G04 #@! TF.GenerationSoftware,KiCad,Pcbnew,5.1.12-84ad8e8a86~92~ubuntu20.04.1*
G04 #@! TF.CreationDate,2021-12-25T09:30:33-05:00*
G04 #@! TF.ProjectId,stereo_whooshy_sound_front_panel,73746572-656f-45f7-9768-6f6f7368795f,0*
G04 #@! TF.SameCoordinates,Original*
G04 #@! TF.FileFunction,Profile,NP*
%FSLAX46Y46*%
G04 Gerber Fmt 4.6, Leading zero omitted, Abs format (unit mm)*
G04 Created by KiCad (PCBNEW 5.1.12-84ad8e8a86~92~ubuntu20.04.1) date 2021-12-25 09:30:33*
%MOMM*%
%LPD*%
G01*
G04 APERTURE LIST*
G04 #@! TA.AperFunction,Profile*
%ADD10C,0.050000*%
G04 #@! TD*
G04 APERTURE END LIST*
D10*
X133985000Y-10160000D02*
G75*
G02*
X139065000Y-15240000I0J-5080000D01*
G01*
X139065000Y-109220000D02*
G75*
G02*
X133985000Y-114300000I-5080000J0D01*
G01*
X6985000Y-114300000D02*
G75*
G02*
X1905000Y-109220000I0J5080000D01*
G01*
X1905000Y-15240000D02*
G75*
G02*
X6985000Y-10160000I5080000J0D01*
G01*
X6985000Y-10160000D02*
X133985000Y-10160000D01*
X1905000Y-109220000D02*
X1905000Y-15240000D01*
X133985000Y-114300000D02*
X6985000Y-114300000D01*
X139065000Y-15240000D02*
X139065000Y-109220000D01*
X36205000Y-102870000D02*
G75*
G03*
X36205000Y-102870000I-2550000J0D01*
G01*
X109865000Y-102870000D02*
G75*
G03*
X109865000Y-102870000I-2550000J0D01*
G01*
X127355000Y-102870000D02*
G75*
G03*
X127355000Y-102870000I-4800000J0D01*
G01*
X23215000Y-102870000D02*
G75*
G03*
X23215000Y-102870000I-4800000J0D01*
G01*
X74805000Y-36830000D02*
G75*
G03*
X74805000Y-36830000I-3050000J0D01*
G01*
X74805000Y-58420000D02*
G75*
G03*
X74805000Y-58420000I-3050000J0D01*
G01*
X74805000Y-80010000D02*
G75*
G03*
X74805000Y-80010000I-3050000J0D01*
G01*
X46865000Y-80010000D02*
G75*
G03*
X46865000Y-80010000I-3050000J0D01*
G01*
X101975000Y-58420000D02*
G75*
G03*
X101975000Y-58420000I-3550000J0D01*
G01*
X101975000Y-80010000D02*
G75*
G03*
X101975000Y-80010000I-3550000J0D01*
G01*
X128645000Y-80010000D02*
G75*
G03*
X128645000Y-80010000I-3550000J0D01*
G01*
X128645000Y-58420000D02*
G75*
G03*
X128645000Y-58420000I-3550000J0D01*
G01*
X128645000Y-36830000D02*
G75*
G03*
X128645000Y-36830000I-3550000J0D01*
G01*
X101975000Y-36830000D02*
G75*
G03*
X101975000Y-36830000I-3550000J0D01*
G01*
X47365000Y-36830000D02*
G75*
G03*
X47365000Y-36830000I-3550000J0D01*
G01*
X47365000Y-58420000D02*
G75*
G03*
X47365000Y-58420000I-3550000J0D01*
G01*
X19425000Y-80010000D02*
G75*
G03*
X19425000Y-80010000I-3550000J0D01*
G01*
X19425000Y-58420000D02*
G75*
G03*
X19425000Y-58420000I-3550000J0D01*
G01*
X19425000Y-36830000D02*
G75*
G03*
X19425000Y-36830000I-3550000J0D01*
G01*
M02*
