G04 #@! TF.GenerationSoftware,KiCad,Pcbnew,5.1.12-84ad8e8a86~92~ubuntu20.04.1*
G04 #@! TF.CreationDate,2021-12-25T09:30:33-05:00*
G04 #@! TF.ProjectId,stereo_whooshy_sound_front_panel,73746572-656f-45f7-9768-6f6f7368795f,0*
G04 #@! TF.SameCoordinates,Original*
G04 #@! TF.FileFunction,Copper,L1,Top*
G04 #@! TF.FilePolarity,Positive*
%FSLAX46Y46*%
G04 Gerber Fmt 4.6, Leading zero omitted, Abs format (unit mm)*
G04 Created by KiCad (PCBNEW 5.1.12-84ad8e8a86~92~ubuntu20.04.1) date 2021-12-25 09:30:33*
%MOMM*%
%LPD*%
G01*
G04 APERTURE LIST*
G04 #@! TA.AperFunction,ComponentPad*
%ADD10C,0.800000*%
G04 #@! TD*
G04 #@! TA.AperFunction,ComponentPad*
%ADD11C,6.400000*%
G04 #@! TD*
G04 #@! TA.AperFunction,Conductor*
%ADD12C,0.254000*%
G04 #@! TD*
G04 #@! TA.AperFunction,Conductor*
%ADD13C,0.100000*%
G04 #@! TD*
G04 APERTURE END LIST*
D10*
X135682056Y-13542944D03*
X133985000Y-12840000D03*
X132287944Y-13542944D03*
X131585000Y-15240000D03*
X132287944Y-16937056D03*
X133985000Y-17640000D03*
X135682056Y-16937056D03*
X136385000Y-15240000D03*
D11*
X133985000Y-15240000D03*
D10*
X8682056Y-13542944D03*
X6985000Y-12840000D03*
X5287944Y-13542944D03*
X4585000Y-15240000D03*
X5287944Y-16937056D03*
X6985000Y-17640000D03*
X8682056Y-16937056D03*
X9385000Y-15240000D03*
D11*
X6985000Y-15240000D03*
D12*
X134767249Y-10892437D02*
X135524774Y-11099672D01*
X136233625Y-11437777D01*
X136871404Y-11896067D01*
X137417946Y-12460055D01*
X137855977Y-13111913D01*
X138171651Y-13831038D01*
X138356206Y-14599768D01*
X138405000Y-15264207D01*
X138405001Y-109190597D01*
X138332563Y-110002249D01*
X138125328Y-110759774D01*
X137787221Y-111468627D01*
X137328928Y-112106410D01*
X136764945Y-112652946D01*
X136113085Y-113090978D01*
X135393963Y-113406651D01*
X134625232Y-113591206D01*
X133960792Y-113640000D01*
X7014392Y-113640000D01*
X6202751Y-113567563D01*
X5445226Y-113360328D01*
X4736373Y-113022221D01*
X4098590Y-112563928D01*
X3552054Y-111999945D01*
X3114022Y-111348085D01*
X2798349Y-110628963D01*
X2613794Y-109860232D01*
X2565000Y-109195792D01*
X2565000Y-102364369D01*
X12958377Y-102364369D01*
X12958377Y-103375631D01*
X13144195Y-104369673D01*
X13509505Y-105312646D01*
X14041866Y-106172438D01*
X14723148Y-106919769D01*
X15530152Y-107529190D01*
X16435396Y-107979948D01*
X17408053Y-108256693D01*
X18415000Y-108350000D01*
X19421947Y-108256693D01*
X20394604Y-107979948D01*
X21299848Y-107529190D01*
X22106852Y-106919769D01*
X22788134Y-106172438D01*
X23320495Y-105312646D01*
X23685805Y-104369673D01*
X23871623Y-103375631D01*
X23871623Y-102553405D01*
X30440553Y-102553405D01*
X30440553Y-103186595D01*
X30564083Y-103807620D01*
X30806394Y-104392611D01*
X31158176Y-104919090D01*
X31605910Y-105366824D01*
X32132389Y-105718606D01*
X32717380Y-105960917D01*
X33338405Y-106084447D01*
X33971595Y-106084447D01*
X34592620Y-105960917D01*
X35177611Y-105718606D01*
X35704090Y-105366824D01*
X36151824Y-104919090D01*
X36503606Y-104392611D01*
X36745917Y-103807620D01*
X36869447Y-103186595D01*
X36869447Y-102553405D01*
X104100553Y-102553405D01*
X104100553Y-103186595D01*
X104224083Y-103807620D01*
X104466394Y-104392611D01*
X104818176Y-104919090D01*
X105265910Y-105366824D01*
X105792389Y-105718606D01*
X106377380Y-105960917D01*
X106998405Y-106084447D01*
X107631595Y-106084447D01*
X108252620Y-105960917D01*
X108837611Y-105718606D01*
X109364090Y-105366824D01*
X109811824Y-104919090D01*
X110163606Y-104392611D01*
X110405917Y-103807620D01*
X110529447Y-103186595D01*
X110529447Y-102553405D01*
X110491846Y-102364369D01*
X117098377Y-102364369D01*
X117098377Y-103375631D01*
X117284195Y-104369673D01*
X117649505Y-105312646D01*
X118181866Y-106172438D01*
X118863148Y-106919769D01*
X119670152Y-107529190D01*
X120575396Y-107979948D01*
X121548053Y-108256693D01*
X122555000Y-108350000D01*
X123561947Y-108256693D01*
X124534604Y-107979948D01*
X125439848Y-107529190D01*
X126246852Y-106919769D01*
X126928134Y-106172438D01*
X127460495Y-105312646D01*
X127825805Y-104369673D01*
X128011623Y-103375631D01*
X128011623Y-102364369D01*
X127825805Y-101370327D01*
X127460495Y-100427354D01*
X126928134Y-99567562D01*
X126246852Y-98820231D01*
X125439848Y-98210810D01*
X124534604Y-97760052D01*
X123561947Y-97483307D01*
X122555000Y-97390000D01*
X121548053Y-97483307D01*
X120575396Y-97760052D01*
X119670152Y-98210810D01*
X118863148Y-98820231D01*
X118181866Y-99567562D01*
X117649505Y-100427354D01*
X117284195Y-101370327D01*
X117098377Y-102364369D01*
X110491846Y-102364369D01*
X110405917Y-101932380D01*
X110163606Y-101347389D01*
X109811824Y-100820910D01*
X109364090Y-100373176D01*
X108837611Y-100021394D01*
X108252620Y-99779083D01*
X107631595Y-99655553D01*
X106998405Y-99655553D01*
X106377380Y-99779083D01*
X105792389Y-100021394D01*
X105265910Y-100373176D01*
X104818176Y-100820910D01*
X104466394Y-101347389D01*
X104224083Y-101932380D01*
X104100553Y-102553405D01*
X36869447Y-102553405D01*
X36745917Y-101932380D01*
X36503606Y-101347389D01*
X36151824Y-100820910D01*
X35704090Y-100373176D01*
X35177611Y-100021394D01*
X34592620Y-99779083D01*
X33971595Y-99655553D01*
X33338405Y-99655553D01*
X32717380Y-99779083D01*
X32132389Y-100021394D01*
X31605910Y-100373176D01*
X31158176Y-100820910D01*
X30806394Y-101347389D01*
X30564083Y-101932380D01*
X30440553Y-102553405D01*
X23871623Y-102553405D01*
X23871623Y-102364369D01*
X23685805Y-101370327D01*
X23320495Y-100427354D01*
X22788134Y-99567562D01*
X22106852Y-98820231D01*
X21299848Y-98210810D01*
X20394604Y-97760052D01*
X19421947Y-97483307D01*
X18415000Y-97390000D01*
X17408053Y-97483307D01*
X16435396Y-97760052D01*
X15530152Y-98210810D01*
X14723148Y-98820231D01*
X14041866Y-99567562D01*
X13509505Y-100427354D01*
X13144195Y-101370327D01*
X12958377Y-102364369D01*
X2565000Y-102364369D01*
X2565000Y-79595387D01*
X11665369Y-79595387D01*
X11665369Y-80424613D01*
X11827142Y-81237904D01*
X12144473Y-82004008D01*
X12605166Y-82693484D01*
X13191516Y-83279834D01*
X13880992Y-83740527D01*
X14647096Y-84057858D01*
X15460387Y-84219631D01*
X16289613Y-84219631D01*
X17102904Y-84057858D01*
X17869008Y-83740527D01*
X18558484Y-83279834D01*
X19144834Y-82693484D01*
X19605527Y-82004008D01*
X19922858Y-81237904D01*
X20084631Y-80424613D01*
X20084631Y-79644396D01*
X40102961Y-79644396D01*
X40102961Y-80375604D01*
X40245613Y-81092762D01*
X40525434Y-81768310D01*
X40931671Y-82376287D01*
X41448713Y-82893329D01*
X42056690Y-83299566D01*
X42732238Y-83579387D01*
X43449396Y-83722039D01*
X44180604Y-83722039D01*
X44897762Y-83579387D01*
X45573310Y-83299566D01*
X46181287Y-82893329D01*
X46698329Y-82376287D01*
X47104566Y-81768310D01*
X47384387Y-81092762D01*
X47527039Y-80375604D01*
X47527039Y-79644396D01*
X68042961Y-79644396D01*
X68042961Y-80375604D01*
X68185613Y-81092762D01*
X68465434Y-81768310D01*
X68871671Y-82376287D01*
X69388713Y-82893329D01*
X69996690Y-83299566D01*
X70672238Y-83579387D01*
X71389396Y-83722039D01*
X72120604Y-83722039D01*
X72837762Y-83579387D01*
X73513310Y-83299566D01*
X74121287Y-82893329D01*
X74638329Y-82376287D01*
X75044566Y-81768310D01*
X75324387Y-81092762D01*
X75467039Y-80375604D01*
X75467039Y-79644396D01*
X75457291Y-79595387D01*
X94215369Y-79595387D01*
X94215369Y-80424613D01*
X94377142Y-81237904D01*
X94694473Y-82004008D01*
X95155166Y-82693484D01*
X95741516Y-83279834D01*
X96430992Y-83740527D01*
X97197096Y-84057858D01*
X98010387Y-84219631D01*
X98839613Y-84219631D01*
X99652904Y-84057858D01*
X100419008Y-83740527D01*
X101108484Y-83279834D01*
X101694834Y-82693484D01*
X102155527Y-82004008D01*
X102472858Y-81237904D01*
X102634631Y-80424613D01*
X102634631Y-79595387D01*
X120885369Y-79595387D01*
X120885369Y-80424613D01*
X121047142Y-81237904D01*
X121364473Y-82004008D01*
X121825166Y-82693484D01*
X122411516Y-83279834D01*
X123100992Y-83740527D01*
X123867096Y-84057858D01*
X124680387Y-84219631D01*
X125509613Y-84219631D01*
X126322904Y-84057858D01*
X127089008Y-83740527D01*
X127778484Y-83279834D01*
X128364834Y-82693484D01*
X128825527Y-82004008D01*
X129142858Y-81237904D01*
X129304631Y-80424613D01*
X129304631Y-79595387D01*
X129142858Y-78782096D01*
X128825527Y-78015992D01*
X128364834Y-77326516D01*
X127778484Y-76740166D01*
X127089008Y-76279473D01*
X126322904Y-75962142D01*
X125509613Y-75800369D01*
X124680387Y-75800369D01*
X123867096Y-75962142D01*
X123100992Y-76279473D01*
X122411516Y-76740166D01*
X121825166Y-77326516D01*
X121364473Y-78015992D01*
X121047142Y-78782096D01*
X120885369Y-79595387D01*
X102634631Y-79595387D01*
X102472858Y-78782096D01*
X102155527Y-78015992D01*
X101694834Y-77326516D01*
X101108484Y-76740166D01*
X100419008Y-76279473D01*
X99652904Y-75962142D01*
X98839613Y-75800369D01*
X98010387Y-75800369D01*
X97197096Y-75962142D01*
X96430992Y-76279473D01*
X95741516Y-76740166D01*
X95155166Y-77326516D01*
X94694473Y-78015992D01*
X94377142Y-78782096D01*
X94215369Y-79595387D01*
X75457291Y-79595387D01*
X75324387Y-78927238D01*
X75044566Y-78251690D01*
X74638329Y-77643713D01*
X74121287Y-77126671D01*
X73513310Y-76720434D01*
X72837762Y-76440613D01*
X72120604Y-76297961D01*
X71389396Y-76297961D01*
X70672238Y-76440613D01*
X69996690Y-76720434D01*
X69388713Y-77126671D01*
X68871671Y-77643713D01*
X68465434Y-78251690D01*
X68185613Y-78927238D01*
X68042961Y-79644396D01*
X47527039Y-79644396D01*
X47384387Y-78927238D01*
X47104566Y-78251690D01*
X46698329Y-77643713D01*
X46181287Y-77126671D01*
X45573310Y-76720434D01*
X44897762Y-76440613D01*
X44180604Y-76297961D01*
X43449396Y-76297961D01*
X42732238Y-76440613D01*
X42056690Y-76720434D01*
X41448713Y-77126671D01*
X40931671Y-77643713D01*
X40525434Y-78251690D01*
X40245613Y-78927238D01*
X40102961Y-79644396D01*
X20084631Y-79644396D01*
X20084631Y-79595387D01*
X19922858Y-78782096D01*
X19605527Y-78015992D01*
X19144834Y-77326516D01*
X18558484Y-76740166D01*
X17869008Y-76279473D01*
X17102904Y-75962142D01*
X16289613Y-75800369D01*
X15460387Y-75800369D01*
X14647096Y-75962142D01*
X13880992Y-76279473D01*
X13191516Y-76740166D01*
X12605166Y-77326516D01*
X12144473Y-78015992D01*
X11827142Y-78782096D01*
X11665369Y-79595387D01*
X2565000Y-79595387D01*
X2565000Y-58005387D01*
X11665369Y-58005387D01*
X11665369Y-58834613D01*
X11827142Y-59647904D01*
X12144473Y-60414008D01*
X12605166Y-61103484D01*
X13191516Y-61689834D01*
X13880992Y-62150527D01*
X14647096Y-62467858D01*
X15460387Y-62629631D01*
X16289613Y-62629631D01*
X17102904Y-62467858D01*
X17869008Y-62150527D01*
X18558484Y-61689834D01*
X19144834Y-61103484D01*
X19605527Y-60414008D01*
X19922858Y-59647904D01*
X20084631Y-58834613D01*
X20084631Y-58005387D01*
X39605369Y-58005387D01*
X39605369Y-58834613D01*
X39767142Y-59647904D01*
X40084473Y-60414008D01*
X40545166Y-61103484D01*
X41131516Y-61689834D01*
X41820992Y-62150527D01*
X42587096Y-62467858D01*
X43400387Y-62629631D01*
X44229613Y-62629631D01*
X45042904Y-62467858D01*
X45809008Y-62150527D01*
X46498484Y-61689834D01*
X47084834Y-61103484D01*
X47545527Y-60414008D01*
X47862858Y-59647904D01*
X48024631Y-58834613D01*
X48024631Y-58054396D01*
X68042961Y-58054396D01*
X68042961Y-58785604D01*
X68185613Y-59502762D01*
X68465434Y-60178310D01*
X68871671Y-60786287D01*
X69388713Y-61303329D01*
X69996690Y-61709566D01*
X70672238Y-61989387D01*
X71389396Y-62132039D01*
X72120604Y-62132039D01*
X72837762Y-61989387D01*
X73513310Y-61709566D01*
X74121287Y-61303329D01*
X74638329Y-60786287D01*
X75044566Y-60178310D01*
X75324387Y-59502762D01*
X75467039Y-58785604D01*
X75467039Y-58054396D01*
X75457291Y-58005387D01*
X94215369Y-58005387D01*
X94215369Y-58834613D01*
X94377142Y-59647904D01*
X94694473Y-60414008D01*
X95155166Y-61103484D01*
X95741516Y-61689834D01*
X96430992Y-62150527D01*
X97197096Y-62467858D01*
X98010387Y-62629631D01*
X98839613Y-62629631D01*
X99652904Y-62467858D01*
X100419008Y-62150527D01*
X101108484Y-61689834D01*
X101694834Y-61103484D01*
X102155527Y-60414008D01*
X102472858Y-59647904D01*
X102634631Y-58834613D01*
X102634631Y-58005387D01*
X120885369Y-58005387D01*
X120885369Y-58834613D01*
X121047142Y-59647904D01*
X121364473Y-60414008D01*
X121825166Y-61103484D01*
X122411516Y-61689834D01*
X123100992Y-62150527D01*
X123867096Y-62467858D01*
X124680387Y-62629631D01*
X125509613Y-62629631D01*
X126322904Y-62467858D01*
X127089008Y-62150527D01*
X127778484Y-61689834D01*
X128364834Y-61103484D01*
X128825527Y-60414008D01*
X129142858Y-59647904D01*
X129304631Y-58834613D01*
X129304631Y-58005387D01*
X129142858Y-57192096D01*
X128825527Y-56425992D01*
X128364834Y-55736516D01*
X127778484Y-55150166D01*
X127089008Y-54689473D01*
X126322904Y-54372142D01*
X125509613Y-54210369D01*
X124680387Y-54210369D01*
X123867096Y-54372142D01*
X123100992Y-54689473D01*
X122411516Y-55150166D01*
X121825166Y-55736516D01*
X121364473Y-56425992D01*
X121047142Y-57192096D01*
X120885369Y-58005387D01*
X102634631Y-58005387D01*
X102472858Y-57192096D01*
X102155527Y-56425992D01*
X101694834Y-55736516D01*
X101108484Y-55150166D01*
X100419008Y-54689473D01*
X99652904Y-54372142D01*
X98839613Y-54210369D01*
X98010387Y-54210369D01*
X97197096Y-54372142D01*
X96430992Y-54689473D01*
X95741516Y-55150166D01*
X95155166Y-55736516D01*
X94694473Y-56425992D01*
X94377142Y-57192096D01*
X94215369Y-58005387D01*
X75457291Y-58005387D01*
X75324387Y-57337238D01*
X75044566Y-56661690D01*
X74638329Y-56053713D01*
X74121287Y-55536671D01*
X73513310Y-55130434D01*
X72837762Y-54850613D01*
X72120604Y-54707961D01*
X71389396Y-54707961D01*
X70672238Y-54850613D01*
X69996690Y-55130434D01*
X69388713Y-55536671D01*
X68871671Y-56053713D01*
X68465434Y-56661690D01*
X68185613Y-57337238D01*
X68042961Y-58054396D01*
X48024631Y-58054396D01*
X48024631Y-58005387D01*
X47862858Y-57192096D01*
X47545527Y-56425992D01*
X47084834Y-55736516D01*
X46498484Y-55150166D01*
X45809008Y-54689473D01*
X45042904Y-54372142D01*
X44229613Y-54210369D01*
X43400387Y-54210369D01*
X42587096Y-54372142D01*
X41820992Y-54689473D01*
X41131516Y-55150166D01*
X40545166Y-55736516D01*
X40084473Y-56425992D01*
X39767142Y-57192096D01*
X39605369Y-58005387D01*
X20084631Y-58005387D01*
X19922858Y-57192096D01*
X19605527Y-56425992D01*
X19144834Y-55736516D01*
X18558484Y-55150166D01*
X17869008Y-54689473D01*
X17102904Y-54372142D01*
X16289613Y-54210369D01*
X15460387Y-54210369D01*
X14647096Y-54372142D01*
X13880992Y-54689473D01*
X13191516Y-55150166D01*
X12605166Y-55736516D01*
X12144473Y-56425992D01*
X11827142Y-57192096D01*
X11665369Y-58005387D01*
X2565000Y-58005387D01*
X2565000Y-36415387D01*
X11665369Y-36415387D01*
X11665369Y-37244613D01*
X11827142Y-38057904D01*
X12144473Y-38824008D01*
X12605166Y-39513484D01*
X13191516Y-40099834D01*
X13880992Y-40560527D01*
X14647096Y-40877858D01*
X15460387Y-41039631D01*
X16289613Y-41039631D01*
X17102904Y-40877858D01*
X17869008Y-40560527D01*
X18558484Y-40099834D01*
X19144834Y-39513484D01*
X19605527Y-38824008D01*
X19922858Y-38057904D01*
X20084631Y-37244613D01*
X20084631Y-36415387D01*
X39605369Y-36415387D01*
X39605369Y-37244613D01*
X39767142Y-38057904D01*
X40084473Y-38824008D01*
X40545166Y-39513484D01*
X41131516Y-40099834D01*
X41820992Y-40560527D01*
X42587096Y-40877858D01*
X43400387Y-41039631D01*
X44229613Y-41039631D01*
X45042904Y-40877858D01*
X45809008Y-40560527D01*
X46498484Y-40099834D01*
X47084834Y-39513484D01*
X47545527Y-38824008D01*
X47862858Y-38057904D01*
X48024631Y-37244613D01*
X48024631Y-36464396D01*
X68042961Y-36464396D01*
X68042961Y-37195604D01*
X68185613Y-37912762D01*
X68465434Y-38588310D01*
X68871671Y-39196287D01*
X69388713Y-39713329D01*
X69996690Y-40119566D01*
X70672238Y-40399387D01*
X71389396Y-40542039D01*
X72120604Y-40542039D01*
X72837762Y-40399387D01*
X73513310Y-40119566D01*
X74121287Y-39713329D01*
X74638329Y-39196287D01*
X75044566Y-38588310D01*
X75324387Y-37912762D01*
X75467039Y-37195604D01*
X75467039Y-36464396D01*
X75457291Y-36415387D01*
X94215369Y-36415387D01*
X94215369Y-37244613D01*
X94377142Y-38057904D01*
X94694473Y-38824008D01*
X95155166Y-39513484D01*
X95741516Y-40099834D01*
X96430992Y-40560527D01*
X97197096Y-40877858D01*
X98010387Y-41039631D01*
X98839613Y-41039631D01*
X99652904Y-40877858D01*
X100419008Y-40560527D01*
X101108484Y-40099834D01*
X101694834Y-39513484D01*
X102155527Y-38824008D01*
X102472858Y-38057904D01*
X102634631Y-37244613D01*
X102634631Y-36415387D01*
X120885369Y-36415387D01*
X120885369Y-37244613D01*
X121047142Y-38057904D01*
X121364473Y-38824008D01*
X121825166Y-39513484D01*
X122411516Y-40099834D01*
X123100992Y-40560527D01*
X123867096Y-40877858D01*
X124680387Y-41039631D01*
X125509613Y-41039631D01*
X126322904Y-40877858D01*
X127089008Y-40560527D01*
X127778484Y-40099834D01*
X128364834Y-39513484D01*
X128825527Y-38824008D01*
X129142858Y-38057904D01*
X129304631Y-37244613D01*
X129304631Y-36415387D01*
X129142858Y-35602096D01*
X128825527Y-34835992D01*
X128364834Y-34146516D01*
X127778484Y-33560166D01*
X127089008Y-33099473D01*
X126322904Y-32782142D01*
X125509613Y-32620369D01*
X124680387Y-32620369D01*
X123867096Y-32782142D01*
X123100992Y-33099473D01*
X122411516Y-33560166D01*
X121825166Y-34146516D01*
X121364473Y-34835992D01*
X121047142Y-35602096D01*
X120885369Y-36415387D01*
X102634631Y-36415387D01*
X102472858Y-35602096D01*
X102155527Y-34835992D01*
X101694834Y-34146516D01*
X101108484Y-33560166D01*
X100419008Y-33099473D01*
X99652904Y-32782142D01*
X98839613Y-32620369D01*
X98010387Y-32620369D01*
X97197096Y-32782142D01*
X96430992Y-33099473D01*
X95741516Y-33560166D01*
X95155166Y-34146516D01*
X94694473Y-34835992D01*
X94377142Y-35602096D01*
X94215369Y-36415387D01*
X75457291Y-36415387D01*
X75324387Y-35747238D01*
X75044566Y-35071690D01*
X74638329Y-34463713D01*
X74121287Y-33946671D01*
X73513310Y-33540434D01*
X72837762Y-33260613D01*
X72120604Y-33117961D01*
X71389396Y-33117961D01*
X70672238Y-33260613D01*
X69996690Y-33540434D01*
X69388713Y-33946671D01*
X68871671Y-34463713D01*
X68465434Y-35071690D01*
X68185613Y-35747238D01*
X68042961Y-36464396D01*
X48024631Y-36464396D01*
X48024631Y-36415387D01*
X47862858Y-35602096D01*
X47545527Y-34835992D01*
X47084834Y-34146516D01*
X46498484Y-33560166D01*
X45809008Y-33099473D01*
X45042904Y-32782142D01*
X44229613Y-32620369D01*
X43400387Y-32620369D01*
X42587096Y-32782142D01*
X41820992Y-33099473D01*
X41131516Y-33560166D01*
X40545166Y-34146516D01*
X40084473Y-34835992D01*
X39767142Y-35602096D01*
X39605369Y-36415387D01*
X20084631Y-36415387D01*
X19922858Y-35602096D01*
X19605527Y-34835992D01*
X19144834Y-34146516D01*
X18558484Y-33560166D01*
X17869008Y-33099473D01*
X17102904Y-32782142D01*
X16289613Y-32620369D01*
X15460387Y-32620369D01*
X14647096Y-32782142D01*
X13880992Y-33099473D01*
X13191516Y-33560166D01*
X12605166Y-34146516D01*
X12144473Y-34835992D01*
X11827142Y-35602096D01*
X11665369Y-36415387D01*
X2565000Y-36415387D01*
X2565000Y-17940881D01*
X4463724Y-17940881D01*
X4823912Y-18430548D01*
X5487882Y-18790849D01*
X6209385Y-19014694D01*
X6960695Y-19093480D01*
X7712938Y-19024178D01*
X8437208Y-18809452D01*
X9105670Y-18457555D01*
X9146088Y-18430548D01*
X9506276Y-17940881D01*
X131463724Y-17940881D01*
X131823912Y-18430548D01*
X132487882Y-18790849D01*
X133209385Y-19014694D01*
X133960695Y-19093480D01*
X134712938Y-19024178D01*
X135437208Y-18809452D01*
X136105670Y-18457555D01*
X136146088Y-18430548D01*
X136506276Y-17940881D01*
X133985000Y-15419605D01*
X131463724Y-17940881D01*
X9506276Y-17940881D01*
X6985000Y-15419605D01*
X4463724Y-17940881D01*
X2565000Y-17940881D01*
X2565000Y-15269392D01*
X2569792Y-15215695D01*
X3131520Y-15215695D01*
X3200822Y-15967938D01*
X3415548Y-16692208D01*
X3767445Y-17360670D01*
X3794452Y-17401088D01*
X4284119Y-17761276D01*
X6805395Y-15240000D01*
X7164605Y-15240000D01*
X9685881Y-17761276D01*
X10175548Y-17401088D01*
X10535849Y-16737118D01*
X10759694Y-16015615D01*
X10838480Y-15264305D01*
X10834002Y-15215695D01*
X130131520Y-15215695D01*
X130200822Y-15967938D01*
X130415548Y-16692208D01*
X130767445Y-17360670D01*
X130794452Y-17401088D01*
X131284119Y-17761276D01*
X133805395Y-15240000D01*
X134164605Y-15240000D01*
X136685881Y-17761276D01*
X137175548Y-17401088D01*
X137535849Y-16737118D01*
X137759694Y-16015615D01*
X137838480Y-15264305D01*
X137769178Y-14512062D01*
X137554452Y-13787792D01*
X137202555Y-13119330D01*
X137175548Y-13078912D01*
X136685881Y-12718724D01*
X134164605Y-15240000D01*
X133805395Y-15240000D01*
X131284119Y-12718724D01*
X130794452Y-13078912D01*
X130434151Y-13742882D01*
X130210306Y-14464385D01*
X130131520Y-15215695D01*
X10834002Y-15215695D01*
X10769178Y-14512062D01*
X10554452Y-13787792D01*
X10202555Y-13119330D01*
X10175548Y-13078912D01*
X9685881Y-12718724D01*
X7164605Y-15240000D01*
X6805395Y-15240000D01*
X4284119Y-12718724D01*
X3794452Y-13078912D01*
X3434151Y-13742882D01*
X3210306Y-14464385D01*
X3131520Y-15215695D01*
X2569792Y-15215695D01*
X2637437Y-14457751D01*
X2844672Y-13700226D01*
X3182777Y-12991375D01*
X3507755Y-12539119D01*
X4463724Y-12539119D01*
X6985000Y-15060395D01*
X9506276Y-12539119D01*
X131463724Y-12539119D01*
X133985000Y-15060395D01*
X136506276Y-12539119D01*
X136146088Y-12049452D01*
X135482118Y-11689151D01*
X134760615Y-11465306D01*
X134009305Y-11386520D01*
X133257062Y-11455822D01*
X132532792Y-11670548D01*
X131864330Y-12022445D01*
X131823912Y-12049452D01*
X131463724Y-12539119D01*
X9506276Y-12539119D01*
X9146088Y-12049452D01*
X8482118Y-11689151D01*
X7760615Y-11465306D01*
X7009305Y-11386520D01*
X6257062Y-11455822D01*
X5532792Y-11670548D01*
X4864330Y-12022445D01*
X4823912Y-12049452D01*
X4463724Y-12539119D01*
X3507755Y-12539119D01*
X3641067Y-12353596D01*
X4205055Y-11807054D01*
X4856913Y-11369023D01*
X5576038Y-11053349D01*
X6344768Y-10868794D01*
X7009207Y-10820000D01*
X133955608Y-10820000D01*
X134767249Y-10892437D01*
G04 #@! TA.AperFunction,Conductor*
D13*
G36*
X134767249Y-10892437D02*
G01*
X135524774Y-11099672D01*
X136233625Y-11437777D01*
X136871404Y-11896067D01*
X137417946Y-12460055D01*
X137855977Y-13111913D01*
X138171651Y-13831038D01*
X138356206Y-14599768D01*
X138405000Y-15264207D01*
X138405001Y-109190597D01*
X138332563Y-110002249D01*
X138125328Y-110759774D01*
X137787221Y-111468627D01*
X137328928Y-112106410D01*
X136764945Y-112652946D01*
X136113085Y-113090978D01*
X135393963Y-113406651D01*
X134625232Y-113591206D01*
X133960792Y-113640000D01*
X7014392Y-113640000D01*
X6202751Y-113567563D01*
X5445226Y-113360328D01*
X4736373Y-113022221D01*
X4098590Y-112563928D01*
X3552054Y-111999945D01*
X3114022Y-111348085D01*
X2798349Y-110628963D01*
X2613794Y-109860232D01*
X2565000Y-109195792D01*
X2565000Y-102364369D01*
X12958377Y-102364369D01*
X12958377Y-103375631D01*
X13144195Y-104369673D01*
X13509505Y-105312646D01*
X14041866Y-106172438D01*
X14723148Y-106919769D01*
X15530152Y-107529190D01*
X16435396Y-107979948D01*
X17408053Y-108256693D01*
X18415000Y-108350000D01*
X19421947Y-108256693D01*
X20394604Y-107979948D01*
X21299848Y-107529190D01*
X22106852Y-106919769D01*
X22788134Y-106172438D01*
X23320495Y-105312646D01*
X23685805Y-104369673D01*
X23871623Y-103375631D01*
X23871623Y-102553405D01*
X30440553Y-102553405D01*
X30440553Y-103186595D01*
X30564083Y-103807620D01*
X30806394Y-104392611D01*
X31158176Y-104919090D01*
X31605910Y-105366824D01*
X32132389Y-105718606D01*
X32717380Y-105960917D01*
X33338405Y-106084447D01*
X33971595Y-106084447D01*
X34592620Y-105960917D01*
X35177611Y-105718606D01*
X35704090Y-105366824D01*
X36151824Y-104919090D01*
X36503606Y-104392611D01*
X36745917Y-103807620D01*
X36869447Y-103186595D01*
X36869447Y-102553405D01*
X104100553Y-102553405D01*
X104100553Y-103186595D01*
X104224083Y-103807620D01*
X104466394Y-104392611D01*
X104818176Y-104919090D01*
X105265910Y-105366824D01*
X105792389Y-105718606D01*
X106377380Y-105960917D01*
X106998405Y-106084447D01*
X107631595Y-106084447D01*
X108252620Y-105960917D01*
X108837611Y-105718606D01*
X109364090Y-105366824D01*
X109811824Y-104919090D01*
X110163606Y-104392611D01*
X110405917Y-103807620D01*
X110529447Y-103186595D01*
X110529447Y-102553405D01*
X110491846Y-102364369D01*
X117098377Y-102364369D01*
X117098377Y-103375631D01*
X117284195Y-104369673D01*
X117649505Y-105312646D01*
X118181866Y-106172438D01*
X118863148Y-106919769D01*
X119670152Y-107529190D01*
X120575396Y-107979948D01*
X121548053Y-108256693D01*
X122555000Y-108350000D01*
X123561947Y-108256693D01*
X124534604Y-107979948D01*
X125439848Y-107529190D01*
X126246852Y-106919769D01*
X126928134Y-106172438D01*
X127460495Y-105312646D01*
X127825805Y-104369673D01*
X128011623Y-103375631D01*
X128011623Y-102364369D01*
X127825805Y-101370327D01*
X127460495Y-100427354D01*
X126928134Y-99567562D01*
X126246852Y-98820231D01*
X125439848Y-98210810D01*
X124534604Y-97760052D01*
X123561947Y-97483307D01*
X122555000Y-97390000D01*
X121548053Y-97483307D01*
X120575396Y-97760052D01*
X119670152Y-98210810D01*
X118863148Y-98820231D01*
X118181866Y-99567562D01*
X117649505Y-100427354D01*
X117284195Y-101370327D01*
X117098377Y-102364369D01*
X110491846Y-102364369D01*
X110405917Y-101932380D01*
X110163606Y-101347389D01*
X109811824Y-100820910D01*
X109364090Y-100373176D01*
X108837611Y-100021394D01*
X108252620Y-99779083D01*
X107631595Y-99655553D01*
X106998405Y-99655553D01*
X106377380Y-99779083D01*
X105792389Y-100021394D01*
X105265910Y-100373176D01*
X104818176Y-100820910D01*
X104466394Y-101347389D01*
X104224083Y-101932380D01*
X104100553Y-102553405D01*
X36869447Y-102553405D01*
X36745917Y-101932380D01*
X36503606Y-101347389D01*
X36151824Y-100820910D01*
X35704090Y-100373176D01*
X35177611Y-100021394D01*
X34592620Y-99779083D01*
X33971595Y-99655553D01*
X33338405Y-99655553D01*
X32717380Y-99779083D01*
X32132389Y-100021394D01*
X31605910Y-100373176D01*
X31158176Y-100820910D01*
X30806394Y-101347389D01*
X30564083Y-101932380D01*
X30440553Y-102553405D01*
X23871623Y-102553405D01*
X23871623Y-102364369D01*
X23685805Y-101370327D01*
X23320495Y-100427354D01*
X22788134Y-99567562D01*
X22106852Y-98820231D01*
X21299848Y-98210810D01*
X20394604Y-97760052D01*
X19421947Y-97483307D01*
X18415000Y-97390000D01*
X17408053Y-97483307D01*
X16435396Y-97760052D01*
X15530152Y-98210810D01*
X14723148Y-98820231D01*
X14041866Y-99567562D01*
X13509505Y-100427354D01*
X13144195Y-101370327D01*
X12958377Y-102364369D01*
X2565000Y-102364369D01*
X2565000Y-79595387D01*
X11665369Y-79595387D01*
X11665369Y-80424613D01*
X11827142Y-81237904D01*
X12144473Y-82004008D01*
X12605166Y-82693484D01*
X13191516Y-83279834D01*
X13880992Y-83740527D01*
X14647096Y-84057858D01*
X15460387Y-84219631D01*
X16289613Y-84219631D01*
X17102904Y-84057858D01*
X17869008Y-83740527D01*
X18558484Y-83279834D01*
X19144834Y-82693484D01*
X19605527Y-82004008D01*
X19922858Y-81237904D01*
X20084631Y-80424613D01*
X20084631Y-79644396D01*
X40102961Y-79644396D01*
X40102961Y-80375604D01*
X40245613Y-81092762D01*
X40525434Y-81768310D01*
X40931671Y-82376287D01*
X41448713Y-82893329D01*
X42056690Y-83299566D01*
X42732238Y-83579387D01*
X43449396Y-83722039D01*
X44180604Y-83722039D01*
X44897762Y-83579387D01*
X45573310Y-83299566D01*
X46181287Y-82893329D01*
X46698329Y-82376287D01*
X47104566Y-81768310D01*
X47384387Y-81092762D01*
X47527039Y-80375604D01*
X47527039Y-79644396D01*
X68042961Y-79644396D01*
X68042961Y-80375604D01*
X68185613Y-81092762D01*
X68465434Y-81768310D01*
X68871671Y-82376287D01*
X69388713Y-82893329D01*
X69996690Y-83299566D01*
X70672238Y-83579387D01*
X71389396Y-83722039D01*
X72120604Y-83722039D01*
X72837762Y-83579387D01*
X73513310Y-83299566D01*
X74121287Y-82893329D01*
X74638329Y-82376287D01*
X75044566Y-81768310D01*
X75324387Y-81092762D01*
X75467039Y-80375604D01*
X75467039Y-79644396D01*
X75457291Y-79595387D01*
X94215369Y-79595387D01*
X94215369Y-80424613D01*
X94377142Y-81237904D01*
X94694473Y-82004008D01*
X95155166Y-82693484D01*
X95741516Y-83279834D01*
X96430992Y-83740527D01*
X97197096Y-84057858D01*
X98010387Y-84219631D01*
X98839613Y-84219631D01*
X99652904Y-84057858D01*
X100419008Y-83740527D01*
X101108484Y-83279834D01*
X101694834Y-82693484D01*
X102155527Y-82004008D01*
X102472858Y-81237904D01*
X102634631Y-80424613D01*
X102634631Y-79595387D01*
X120885369Y-79595387D01*
X120885369Y-80424613D01*
X121047142Y-81237904D01*
X121364473Y-82004008D01*
X121825166Y-82693484D01*
X122411516Y-83279834D01*
X123100992Y-83740527D01*
X123867096Y-84057858D01*
X124680387Y-84219631D01*
X125509613Y-84219631D01*
X126322904Y-84057858D01*
X127089008Y-83740527D01*
X127778484Y-83279834D01*
X128364834Y-82693484D01*
X128825527Y-82004008D01*
X129142858Y-81237904D01*
X129304631Y-80424613D01*
X129304631Y-79595387D01*
X129142858Y-78782096D01*
X128825527Y-78015992D01*
X128364834Y-77326516D01*
X127778484Y-76740166D01*
X127089008Y-76279473D01*
X126322904Y-75962142D01*
X125509613Y-75800369D01*
X124680387Y-75800369D01*
X123867096Y-75962142D01*
X123100992Y-76279473D01*
X122411516Y-76740166D01*
X121825166Y-77326516D01*
X121364473Y-78015992D01*
X121047142Y-78782096D01*
X120885369Y-79595387D01*
X102634631Y-79595387D01*
X102472858Y-78782096D01*
X102155527Y-78015992D01*
X101694834Y-77326516D01*
X101108484Y-76740166D01*
X100419008Y-76279473D01*
X99652904Y-75962142D01*
X98839613Y-75800369D01*
X98010387Y-75800369D01*
X97197096Y-75962142D01*
X96430992Y-76279473D01*
X95741516Y-76740166D01*
X95155166Y-77326516D01*
X94694473Y-78015992D01*
X94377142Y-78782096D01*
X94215369Y-79595387D01*
X75457291Y-79595387D01*
X75324387Y-78927238D01*
X75044566Y-78251690D01*
X74638329Y-77643713D01*
X74121287Y-77126671D01*
X73513310Y-76720434D01*
X72837762Y-76440613D01*
X72120604Y-76297961D01*
X71389396Y-76297961D01*
X70672238Y-76440613D01*
X69996690Y-76720434D01*
X69388713Y-77126671D01*
X68871671Y-77643713D01*
X68465434Y-78251690D01*
X68185613Y-78927238D01*
X68042961Y-79644396D01*
X47527039Y-79644396D01*
X47384387Y-78927238D01*
X47104566Y-78251690D01*
X46698329Y-77643713D01*
X46181287Y-77126671D01*
X45573310Y-76720434D01*
X44897762Y-76440613D01*
X44180604Y-76297961D01*
X43449396Y-76297961D01*
X42732238Y-76440613D01*
X42056690Y-76720434D01*
X41448713Y-77126671D01*
X40931671Y-77643713D01*
X40525434Y-78251690D01*
X40245613Y-78927238D01*
X40102961Y-79644396D01*
X20084631Y-79644396D01*
X20084631Y-79595387D01*
X19922858Y-78782096D01*
X19605527Y-78015992D01*
X19144834Y-77326516D01*
X18558484Y-76740166D01*
X17869008Y-76279473D01*
X17102904Y-75962142D01*
X16289613Y-75800369D01*
X15460387Y-75800369D01*
X14647096Y-75962142D01*
X13880992Y-76279473D01*
X13191516Y-76740166D01*
X12605166Y-77326516D01*
X12144473Y-78015992D01*
X11827142Y-78782096D01*
X11665369Y-79595387D01*
X2565000Y-79595387D01*
X2565000Y-58005387D01*
X11665369Y-58005387D01*
X11665369Y-58834613D01*
X11827142Y-59647904D01*
X12144473Y-60414008D01*
X12605166Y-61103484D01*
X13191516Y-61689834D01*
X13880992Y-62150527D01*
X14647096Y-62467858D01*
X15460387Y-62629631D01*
X16289613Y-62629631D01*
X17102904Y-62467858D01*
X17869008Y-62150527D01*
X18558484Y-61689834D01*
X19144834Y-61103484D01*
X19605527Y-60414008D01*
X19922858Y-59647904D01*
X20084631Y-58834613D01*
X20084631Y-58005387D01*
X39605369Y-58005387D01*
X39605369Y-58834613D01*
X39767142Y-59647904D01*
X40084473Y-60414008D01*
X40545166Y-61103484D01*
X41131516Y-61689834D01*
X41820992Y-62150527D01*
X42587096Y-62467858D01*
X43400387Y-62629631D01*
X44229613Y-62629631D01*
X45042904Y-62467858D01*
X45809008Y-62150527D01*
X46498484Y-61689834D01*
X47084834Y-61103484D01*
X47545527Y-60414008D01*
X47862858Y-59647904D01*
X48024631Y-58834613D01*
X48024631Y-58054396D01*
X68042961Y-58054396D01*
X68042961Y-58785604D01*
X68185613Y-59502762D01*
X68465434Y-60178310D01*
X68871671Y-60786287D01*
X69388713Y-61303329D01*
X69996690Y-61709566D01*
X70672238Y-61989387D01*
X71389396Y-62132039D01*
X72120604Y-62132039D01*
X72837762Y-61989387D01*
X73513310Y-61709566D01*
X74121287Y-61303329D01*
X74638329Y-60786287D01*
X75044566Y-60178310D01*
X75324387Y-59502762D01*
X75467039Y-58785604D01*
X75467039Y-58054396D01*
X75457291Y-58005387D01*
X94215369Y-58005387D01*
X94215369Y-58834613D01*
X94377142Y-59647904D01*
X94694473Y-60414008D01*
X95155166Y-61103484D01*
X95741516Y-61689834D01*
X96430992Y-62150527D01*
X97197096Y-62467858D01*
X98010387Y-62629631D01*
X98839613Y-62629631D01*
X99652904Y-62467858D01*
X100419008Y-62150527D01*
X101108484Y-61689834D01*
X101694834Y-61103484D01*
X102155527Y-60414008D01*
X102472858Y-59647904D01*
X102634631Y-58834613D01*
X102634631Y-58005387D01*
X120885369Y-58005387D01*
X120885369Y-58834613D01*
X121047142Y-59647904D01*
X121364473Y-60414008D01*
X121825166Y-61103484D01*
X122411516Y-61689834D01*
X123100992Y-62150527D01*
X123867096Y-62467858D01*
X124680387Y-62629631D01*
X125509613Y-62629631D01*
X126322904Y-62467858D01*
X127089008Y-62150527D01*
X127778484Y-61689834D01*
X128364834Y-61103484D01*
X128825527Y-60414008D01*
X129142858Y-59647904D01*
X129304631Y-58834613D01*
X129304631Y-58005387D01*
X129142858Y-57192096D01*
X128825527Y-56425992D01*
X128364834Y-55736516D01*
X127778484Y-55150166D01*
X127089008Y-54689473D01*
X126322904Y-54372142D01*
X125509613Y-54210369D01*
X124680387Y-54210369D01*
X123867096Y-54372142D01*
X123100992Y-54689473D01*
X122411516Y-55150166D01*
X121825166Y-55736516D01*
X121364473Y-56425992D01*
X121047142Y-57192096D01*
X120885369Y-58005387D01*
X102634631Y-58005387D01*
X102472858Y-57192096D01*
X102155527Y-56425992D01*
X101694834Y-55736516D01*
X101108484Y-55150166D01*
X100419008Y-54689473D01*
X99652904Y-54372142D01*
X98839613Y-54210369D01*
X98010387Y-54210369D01*
X97197096Y-54372142D01*
X96430992Y-54689473D01*
X95741516Y-55150166D01*
X95155166Y-55736516D01*
X94694473Y-56425992D01*
X94377142Y-57192096D01*
X94215369Y-58005387D01*
X75457291Y-58005387D01*
X75324387Y-57337238D01*
X75044566Y-56661690D01*
X74638329Y-56053713D01*
X74121287Y-55536671D01*
X73513310Y-55130434D01*
X72837762Y-54850613D01*
X72120604Y-54707961D01*
X71389396Y-54707961D01*
X70672238Y-54850613D01*
X69996690Y-55130434D01*
X69388713Y-55536671D01*
X68871671Y-56053713D01*
X68465434Y-56661690D01*
X68185613Y-57337238D01*
X68042961Y-58054396D01*
X48024631Y-58054396D01*
X48024631Y-58005387D01*
X47862858Y-57192096D01*
X47545527Y-56425992D01*
X47084834Y-55736516D01*
X46498484Y-55150166D01*
X45809008Y-54689473D01*
X45042904Y-54372142D01*
X44229613Y-54210369D01*
X43400387Y-54210369D01*
X42587096Y-54372142D01*
X41820992Y-54689473D01*
X41131516Y-55150166D01*
X40545166Y-55736516D01*
X40084473Y-56425992D01*
X39767142Y-57192096D01*
X39605369Y-58005387D01*
X20084631Y-58005387D01*
X19922858Y-57192096D01*
X19605527Y-56425992D01*
X19144834Y-55736516D01*
X18558484Y-55150166D01*
X17869008Y-54689473D01*
X17102904Y-54372142D01*
X16289613Y-54210369D01*
X15460387Y-54210369D01*
X14647096Y-54372142D01*
X13880992Y-54689473D01*
X13191516Y-55150166D01*
X12605166Y-55736516D01*
X12144473Y-56425992D01*
X11827142Y-57192096D01*
X11665369Y-58005387D01*
X2565000Y-58005387D01*
X2565000Y-36415387D01*
X11665369Y-36415387D01*
X11665369Y-37244613D01*
X11827142Y-38057904D01*
X12144473Y-38824008D01*
X12605166Y-39513484D01*
X13191516Y-40099834D01*
X13880992Y-40560527D01*
X14647096Y-40877858D01*
X15460387Y-41039631D01*
X16289613Y-41039631D01*
X17102904Y-40877858D01*
X17869008Y-40560527D01*
X18558484Y-40099834D01*
X19144834Y-39513484D01*
X19605527Y-38824008D01*
X19922858Y-38057904D01*
X20084631Y-37244613D01*
X20084631Y-36415387D01*
X39605369Y-36415387D01*
X39605369Y-37244613D01*
X39767142Y-38057904D01*
X40084473Y-38824008D01*
X40545166Y-39513484D01*
X41131516Y-40099834D01*
X41820992Y-40560527D01*
X42587096Y-40877858D01*
X43400387Y-41039631D01*
X44229613Y-41039631D01*
X45042904Y-40877858D01*
X45809008Y-40560527D01*
X46498484Y-40099834D01*
X47084834Y-39513484D01*
X47545527Y-38824008D01*
X47862858Y-38057904D01*
X48024631Y-37244613D01*
X48024631Y-36464396D01*
X68042961Y-36464396D01*
X68042961Y-37195604D01*
X68185613Y-37912762D01*
X68465434Y-38588310D01*
X68871671Y-39196287D01*
X69388713Y-39713329D01*
X69996690Y-40119566D01*
X70672238Y-40399387D01*
X71389396Y-40542039D01*
X72120604Y-40542039D01*
X72837762Y-40399387D01*
X73513310Y-40119566D01*
X74121287Y-39713329D01*
X74638329Y-39196287D01*
X75044566Y-38588310D01*
X75324387Y-37912762D01*
X75467039Y-37195604D01*
X75467039Y-36464396D01*
X75457291Y-36415387D01*
X94215369Y-36415387D01*
X94215369Y-37244613D01*
X94377142Y-38057904D01*
X94694473Y-38824008D01*
X95155166Y-39513484D01*
X95741516Y-40099834D01*
X96430992Y-40560527D01*
X97197096Y-40877858D01*
X98010387Y-41039631D01*
X98839613Y-41039631D01*
X99652904Y-40877858D01*
X100419008Y-40560527D01*
X101108484Y-40099834D01*
X101694834Y-39513484D01*
X102155527Y-38824008D01*
X102472858Y-38057904D01*
X102634631Y-37244613D01*
X102634631Y-36415387D01*
X120885369Y-36415387D01*
X120885369Y-37244613D01*
X121047142Y-38057904D01*
X121364473Y-38824008D01*
X121825166Y-39513484D01*
X122411516Y-40099834D01*
X123100992Y-40560527D01*
X123867096Y-40877858D01*
X124680387Y-41039631D01*
X125509613Y-41039631D01*
X126322904Y-40877858D01*
X127089008Y-40560527D01*
X127778484Y-40099834D01*
X128364834Y-39513484D01*
X128825527Y-38824008D01*
X129142858Y-38057904D01*
X129304631Y-37244613D01*
X129304631Y-36415387D01*
X129142858Y-35602096D01*
X128825527Y-34835992D01*
X128364834Y-34146516D01*
X127778484Y-33560166D01*
X127089008Y-33099473D01*
X126322904Y-32782142D01*
X125509613Y-32620369D01*
X124680387Y-32620369D01*
X123867096Y-32782142D01*
X123100992Y-33099473D01*
X122411516Y-33560166D01*
X121825166Y-34146516D01*
X121364473Y-34835992D01*
X121047142Y-35602096D01*
X120885369Y-36415387D01*
X102634631Y-36415387D01*
X102472858Y-35602096D01*
X102155527Y-34835992D01*
X101694834Y-34146516D01*
X101108484Y-33560166D01*
X100419008Y-33099473D01*
X99652904Y-32782142D01*
X98839613Y-32620369D01*
X98010387Y-32620369D01*
X97197096Y-32782142D01*
X96430992Y-33099473D01*
X95741516Y-33560166D01*
X95155166Y-34146516D01*
X94694473Y-34835992D01*
X94377142Y-35602096D01*
X94215369Y-36415387D01*
X75457291Y-36415387D01*
X75324387Y-35747238D01*
X75044566Y-35071690D01*
X74638329Y-34463713D01*
X74121287Y-33946671D01*
X73513310Y-33540434D01*
X72837762Y-33260613D01*
X72120604Y-33117961D01*
X71389396Y-33117961D01*
X70672238Y-33260613D01*
X69996690Y-33540434D01*
X69388713Y-33946671D01*
X68871671Y-34463713D01*
X68465434Y-35071690D01*
X68185613Y-35747238D01*
X68042961Y-36464396D01*
X48024631Y-36464396D01*
X48024631Y-36415387D01*
X47862858Y-35602096D01*
X47545527Y-34835992D01*
X47084834Y-34146516D01*
X46498484Y-33560166D01*
X45809008Y-33099473D01*
X45042904Y-32782142D01*
X44229613Y-32620369D01*
X43400387Y-32620369D01*
X42587096Y-32782142D01*
X41820992Y-33099473D01*
X41131516Y-33560166D01*
X40545166Y-34146516D01*
X40084473Y-34835992D01*
X39767142Y-35602096D01*
X39605369Y-36415387D01*
X20084631Y-36415387D01*
X19922858Y-35602096D01*
X19605527Y-34835992D01*
X19144834Y-34146516D01*
X18558484Y-33560166D01*
X17869008Y-33099473D01*
X17102904Y-32782142D01*
X16289613Y-32620369D01*
X15460387Y-32620369D01*
X14647096Y-32782142D01*
X13880992Y-33099473D01*
X13191516Y-33560166D01*
X12605166Y-34146516D01*
X12144473Y-34835992D01*
X11827142Y-35602096D01*
X11665369Y-36415387D01*
X2565000Y-36415387D01*
X2565000Y-17940881D01*
X4463724Y-17940881D01*
X4823912Y-18430548D01*
X5487882Y-18790849D01*
X6209385Y-19014694D01*
X6960695Y-19093480D01*
X7712938Y-19024178D01*
X8437208Y-18809452D01*
X9105670Y-18457555D01*
X9146088Y-18430548D01*
X9506276Y-17940881D01*
X131463724Y-17940881D01*
X131823912Y-18430548D01*
X132487882Y-18790849D01*
X133209385Y-19014694D01*
X133960695Y-19093480D01*
X134712938Y-19024178D01*
X135437208Y-18809452D01*
X136105670Y-18457555D01*
X136146088Y-18430548D01*
X136506276Y-17940881D01*
X133985000Y-15419605D01*
X131463724Y-17940881D01*
X9506276Y-17940881D01*
X6985000Y-15419605D01*
X4463724Y-17940881D01*
X2565000Y-17940881D01*
X2565000Y-15269392D01*
X2569792Y-15215695D01*
X3131520Y-15215695D01*
X3200822Y-15967938D01*
X3415548Y-16692208D01*
X3767445Y-17360670D01*
X3794452Y-17401088D01*
X4284119Y-17761276D01*
X6805395Y-15240000D01*
X7164605Y-15240000D01*
X9685881Y-17761276D01*
X10175548Y-17401088D01*
X10535849Y-16737118D01*
X10759694Y-16015615D01*
X10838480Y-15264305D01*
X10834002Y-15215695D01*
X130131520Y-15215695D01*
X130200822Y-15967938D01*
X130415548Y-16692208D01*
X130767445Y-17360670D01*
X130794452Y-17401088D01*
X131284119Y-17761276D01*
X133805395Y-15240000D01*
X134164605Y-15240000D01*
X136685881Y-17761276D01*
X137175548Y-17401088D01*
X137535849Y-16737118D01*
X137759694Y-16015615D01*
X137838480Y-15264305D01*
X137769178Y-14512062D01*
X137554452Y-13787792D01*
X137202555Y-13119330D01*
X137175548Y-13078912D01*
X136685881Y-12718724D01*
X134164605Y-15240000D01*
X133805395Y-15240000D01*
X131284119Y-12718724D01*
X130794452Y-13078912D01*
X130434151Y-13742882D01*
X130210306Y-14464385D01*
X130131520Y-15215695D01*
X10834002Y-15215695D01*
X10769178Y-14512062D01*
X10554452Y-13787792D01*
X10202555Y-13119330D01*
X10175548Y-13078912D01*
X9685881Y-12718724D01*
X7164605Y-15240000D01*
X6805395Y-15240000D01*
X4284119Y-12718724D01*
X3794452Y-13078912D01*
X3434151Y-13742882D01*
X3210306Y-14464385D01*
X3131520Y-15215695D01*
X2569792Y-15215695D01*
X2637437Y-14457751D01*
X2844672Y-13700226D01*
X3182777Y-12991375D01*
X3507755Y-12539119D01*
X4463724Y-12539119D01*
X6985000Y-15060395D01*
X9506276Y-12539119D01*
X131463724Y-12539119D01*
X133985000Y-15060395D01*
X136506276Y-12539119D01*
X136146088Y-12049452D01*
X135482118Y-11689151D01*
X134760615Y-11465306D01*
X134009305Y-11386520D01*
X133257062Y-11455822D01*
X132532792Y-11670548D01*
X131864330Y-12022445D01*
X131823912Y-12049452D01*
X131463724Y-12539119D01*
X9506276Y-12539119D01*
X9146088Y-12049452D01*
X8482118Y-11689151D01*
X7760615Y-11465306D01*
X7009305Y-11386520D01*
X6257062Y-11455822D01*
X5532792Y-11670548D01*
X4864330Y-12022445D01*
X4823912Y-12049452D01*
X4463724Y-12539119D01*
X3507755Y-12539119D01*
X3641067Y-12353596D01*
X4205055Y-11807054D01*
X4856913Y-11369023D01*
X5576038Y-11053349D01*
X6344768Y-10868794D01*
X7009207Y-10820000D01*
X133955608Y-10820000D01*
X134767249Y-10892437D01*
G37*
G04 #@! TD.AperFunction*
M02*
