%FSLAX45Y45*%
G04 Gerber Fmt 4.5, Leading zero omitted, Abs format (unit mm)*
G04 Created by KiCad (PCBNEW 5.1.12-84ad8e8a86~92~ubuntu20.04.1) date 2021-12-25 09:30:32*
%MOMM*%
%LPD*%
G01*
G04 APERTURE LIST*
%TA.AperFunction,Profile*%
%ADD10C,0.050000*%
%TD*%
%ADD11C,0.200000*%
%ADD12C,0.300000*%
G04 APERTURE END LIST*
D10*
X13398500Y-1016000D02*
G75*
G02*
X13906500Y-1524000I0J-508000D01*
G01*
X13906500Y-10922000D02*
G75*
G02*
X13398500Y-11430000I-508000J0D01*
G01*
X698500Y-11430000D02*
G75*
G02*
X190500Y-10922000I0J508000D01*
G01*
X190500Y-1524000D02*
G75*
G02*
X698500Y-1016000I508000J0D01*
G01*
X698500Y-1016000D02*
X13398500Y-1016000D01*
X190500Y-10922000D02*
X190500Y-1524000D01*
X13398500Y-11430000D02*
X698500Y-11430000D01*
X13906500Y-1524000D02*
X13906500Y-10922000D01*
X3620500Y-10287000D02*
G75*
G03*
X3620500Y-10287000I-255000J0D01*
G01*
X10986500Y-10287000D02*
G75*
G03*
X10986500Y-10287000I-255000J0D01*
G01*
X12735500Y-10287000D02*
G75*
G03*
X12735500Y-10287000I-480000J0D01*
G01*
X2321500Y-10287000D02*
G75*
G03*
X2321500Y-10287000I-480000J0D01*
G01*
X7480500Y-3683000D02*
G75*
G03*
X7480500Y-3683000I-305000J0D01*
G01*
X7480500Y-5842000D02*
G75*
G03*
X7480500Y-5842000I-305000J0D01*
G01*
X7480500Y-8001000D02*
G75*
G03*
X7480500Y-8001000I-305000J0D01*
G01*
X4686500Y-8001000D02*
G75*
G03*
X4686500Y-8001000I-305000J0D01*
G01*
X10197500Y-5842000D02*
G75*
G03*
X10197500Y-5842000I-355000J0D01*
G01*
X10197500Y-8001000D02*
G75*
G03*
X10197500Y-8001000I-355000J0D01*
G01*
X12864500Y-8001000D02*
G75*
G03*
X12864500Y-8001000I-355000J0D01*
G01*
X12864500Y-5842000D02*
G75*
G03*
X12864500Y-5842000I-355000J0D01*
G01*
X12864500Y-3683000D02*
G75*
G03*
X12864500Y-3683000I-355000J0D01*
G01*
X10197500Y-3683000D02*
G75*
G03*
X10197500Y-3683000I-355000J0D01*
G01*
X4736500Y-3683000D02*
G75*
G03*
X4736500Y-3683000I-355000J0D01*
G01*
X4736500Y-5842000D02*
G75*
G03*
X4736500Y-5842000I-355000J0D01*
G01*
X1942500Y-8001000D02*
G75*
G03*
X1942500Y-8001000I-355000J0D01*
G01*
X1942500Y-5842000D02*
G75*
G03*
X1942500Y-5842000I-355000J0D01*
G01*
X1942500Y-3683000D02*
G75*
G03*
X1942500Y-3683000I-355000J0D01*
G01*
D11*
X433500Y-1499000D02*
X483500Y-1549000D01*
X483500Y-1499000D02*
X433500Y-1549000D01*
X503794Y-1329294D02*
X553794Y-1379294D01*
X553794Y-1329294D02*
X503794Y-1379294D01*
X503794Y-1668706D02*
X553794Y-1718706D01*
X553794Y-1668706D02*
X503794Y-1718706D01*
X673500Y-1259000D02*
X723500Y-1309000D01*
X723500Y-1259000D02*
X673500Y-1309000D01*
X673500Y-1739000D02*
X723500Y-1789000D01*
X723500Y-1739000D02*
X673500Y-1789000D01*
X843206Y-1329294D02*
X893206Y-1379294D01*
X893206Y-1329294D02*
X843206Y-1379294D01*
X843206Y-1668706D02*
X893206Y-1718706D01*
X893206Y-1668706D02*
X843206Y-1718706D01*
X913500Y-1499000D02*
X963500Y-1549000D01*
X963500Y-1499000D02*
X913500Y-1549000D01*
X13133500Y-1499000D02*
X13183500Y-1549000D01*
X13183500Y-1499000D02*
X13133500Y-1549000D01*
X13203794Y-1329294D02*
X13253794Y-1379294D01*
X13253794Y-1329294D02*
X13203794Y-1379294D01*
X13203794Y-1668706D02*
X13253794Y-1718706D01*
X13253794Y-1668706D02*
X13203794Y-1718706D01*
X13373500Y-1259000D02*
X13423500Y-1309000D01*
X13423500Y-1259000D02*
X13373500Y-1309000D01*
X13373500Y-1739000D02*
X13423500Y-1789000D01*
X13423500Y-1739000D02*
X13373500Y-1789000D01*
X13543206Y-1329294D02*
X13593206Y-1379294D01*
X13593206Y-1329294D02*
X13543206Y-1379294D01*
X13543206Y-1668706D02*
X13593206Y-1718706D01*
X13593206Y-1668706D02*
X13543206Y-1718706D01*
X13613500Y-1499000D02*
X13663500Y-1549000D01*
X13663500Y-1499000D02*
X13613500Y-1549000D01*
X858500Y-1524000D02*
G75*
G03*
X858500Y-1524000I-160000J0D01*
G01*
X13558500Y-1524000D02*
G75*
G03*
X13558500Y-1524000I-160000J0D01*
G01*
D12*
X474428Y-11898214D02*
X474428Y-11598214D01*
X545857Y-11598214D01*
X588714Y-11612500D01*
X617286Y-11641071D01*
X631571Y-11669643D01*
X645857Y-11726786D01*
X645857Y-11769643D01*
X631571Y-11826786D01*
X617286Y-11855357D01*
X588714Y-11883929D01*
X545857Y-11898214D01*
X474428Y-11898214D01*
X774428Y-11898214D02*
X774428Y-11698214D01*
X774428Y-11755357D02*
X788714Y-11726786D01*
X803000Y-11712500D01*
X831571Y-11698214D01*
X860143Y-11698214D01*
X960143Y-11898214D02*
X960143Y-11698214D01*
X960143Y-11598214D02*
X945857Y-11612500D01*
X960143Y-11626786D01*
X974428Y-11612500D01*
X960143Y-11598214D01*
X960143Y-11626786D01*
X1145857Y-11898214D02*
X1117286Y-11883929D01*
X1103000Y-11855357D01*
X1103000Y-11598214D01*
X1303000Y-11898214D02*
X1274428Y-11883929D01*
X1260143Y-11855357D01*
X1260143Y-11598214D01*
X1645857Y-11898214D02*
X1645857Y-11598214D01*
X1745857Y-11812500D01*
X1845857Y-11598214D01*
X1845857Y-11898214D01*
X2117286Y-11898214D02*
X2117286Y-11741071D01*
X2103000Y-11712500D01*
X2074428Y-11698214D01*
X2017286Y-11698214D01*
X1988714Y-11712500D01*
X2117286Y-11883929D02*
X2088714Y-11898214D01*
X2017286Y-11898214D01*
X1988714Y-11883929D01*
X1974428Y-11855357D01*
X1974428Y-11826786D01*
X1988714Y-11798214D01*
X2017286Y-11783929D01*
X2088714Y-11783929D01*
X2117286Y-11769643D01*
X2260143Y-11698214D02*
X2260143Y-11998214D01*
X2260143Y-11712500D02*
X2288714Y-11698214D01*
X2345857Y-11698214D01*
X2374428Y-11712500D01*
X2388714Y-11726786D01*
X2403000Y-11755357D01*
X2403000Y-11841071D01*
X2388714Y-11869643D01*
X2374428Y-11883929D01*
X2345857Y-11898214D01*
X2288714Y-11898214D01*
X2260143Y-11883929D01*
X2531571Y-11869643D02*
X2545857Y-11883929D01*
X2531571Y-11898214D01*
X2517286Y-11883929D01*
X2531571Y-11869643D01*
X2531571Y-11898214D01*
X2531571Y-11712500D02*
X2545857Y-11726786D01*
X2531571Y-11741071D01*
X2517286Y-11726786D01*
X2531571Y-11712500D01*
X2531571Y-11741071D01*
X138000Y-12367500D02*
X188000Y-12417500D01*
X188000Y-12367500D02*
X138000Y-12417500D01*
X531571Y-12228214D02*
X560143Y-12228214D01*
X588714Y-12242500D01*
X603000Y-12256786D01*
X617286Y-12285357D01*
X631571Y-12342500D01*
X631571Y-12413929D01*
X617286Y-12471071D01*
X603000Y-12499643D01*
X588714Y-12513929D01*
X560143Y-12528214D01*
X531571Y-12528214D01*
X503000Y-12513929D01*
X488714Y-12499643D01*
X474428Y-12471071D01*
X460143Y-12413929D01*
X460143Y-12342500D01*
X474428Y-12285357D01*
X488714Y-12256786D01*
X503000Y-12242500D01*
X531571Y-12228214D01*
X760143Y-12499643D02*
X774428Y-12513929D01*
X760143Y-12528214D01*
X745857Y-12513929D01*
X760143Y-12499643D01*
X760143Y-12528214D01*
X1045857Y-12228214D02*
X903000Y-12228214D01*
X888714Y-12371071D01*
X903000Y-12356786D01*
X931571Y-12342500D01*
X1003000Y-12342500D01*
X1031571Y-12356786D01*
X1045857Y-12371071D01*
X1060143Y-12399643D01*
X1060143Y-12471071D01*
X1045857Y-12499643D01*
X1031571Y-12513929D01*
X1003000Y-12528214D01*
X931571Y-12528214D01*
X903000Y-12513929D01*
X888714Y-12499643D01*
X1245857Y-12228214D02*
X1274428Y-12228214D01*
X1303000Y-12242500D01*
X1317286Y-12256786D01*
X1331571Y-12285357D01*
X1345857Y-12342500D01*
X1345857Y-12413929D01*
X1331571Y-12471071D01*
X1317286Y-12499643D01*
X1303000Y-12513929D01*
X1274428Y-12528214D01*
X1245857Y-12528214D01*
X1217286Y-12513929D01*
X1203000Y-12499643D01*
X1188714Y-12471071D01*
X1174428Y-12413929D01*
X1174428Y-12342500D01*
X1188714Y-12285357D01*
X1203000Y-12256786D01*
X1217286Y-12242500D01*
X1245857Y-12228214D01*
X1531571Y-12228214D02*
X1560143Y-12228214D01*
X1588714Y-12242500D01*
X1603000Y-12256786D01*
X1617286Y-12285357D01*
X1631571Y-12342500D01*
X1631571Y-12413929D01*
X1617286Y-12471071D01*
X1603000Y-12499643D01*
X1588714Y-12513929D01*
X1560143Y-12528214D01*
X1531571Y-12528214D01*
X1503000Y-12513929D01*
X1488714Y-12499643D01*
X1474428Y-12471071D01*
X1460143Y-12413929D01*
X1460143Y-12342500D01*
X1474428Y-12285357D01*
X1488714Y-12256786D01*
X1503000Y-12242500D01*
X1531571Y-12228214D01*
X1760143Y-12528214D02*
X1760143Y-12328214D01*
X1760143Y-12356786D02*
X1774428Y-12342500D01*
X1803000Y-12328214D01*
X1845857Y-12328214D01*
X1874428Y-12342500D01*
X1888714Y-12371071D01*
X1888714Y-12528214D01*
X1888714Y-12371071D02*
X1903000Y-12342500D01*
X1931571Y-12328214D01*
X1974428Y-12328214D01*
X2003000Y-12342500D01*
X2017286Y-12371071D01*
X2017286Y-12528214D01*
X2160143Y-12528214D02*
X2160143Y-12328214D01*
X2160143Y-12356786D02*
X2174428Y-12342500D01*
X2203000Y-12328214D01*
X2245857Y-12328214D01*
X2274428Y-12342500D01*
X2288714Y-12371071D01*
X2288714Y-12528214D01*
X2288714Y-12371071D02*
X2303000Y-12342500D01*
X2331571Y-12328214D01*
X2374428Y-12328214D01*
X2403000Y-12342500D01*
X2417286Y-12371071D01*
X2417286Y-12528214D01*
X3003000Y-12213929D02*
X2745857Y-12599643D01*
X3388714Y-12228214D02*
X3417286Y-12228214D01*
X3445857Y-12242500D01*
X3460143Y-12256786D01*
X3474428Y-12285357D01*
X3488714Y-12342500D01*
X3488714Y-12413929D01*
X3474428Y-12471071D01*
X3460143Y-12499643D01*
X3445857Y-12513929D01*
X3417286Y-12528214D01*
X3388714Y-12528214D01*
X3360143Y-12513929D01*
X3345857Y-12499643D01*
X3331571Y-12471071D01*
X3317286Y-12413929D01*
X3317286Y-12342500D01*
X3331571Y-12285357D01*
X3345857Y-12256786D01*
X3360143Y-12242500D01*
X3388714Y-12228214D01*
X3617286Y-12499643D02*
X3631571Y-12513929D01*
X3617286Y-12528214D01*
X3603000Y-12513929D01*
X3617286Y-12499643D01*
X3617286Y-12528214D01*
X3817286Y-12228214D02*
X3845857Y-12228214D01*
X3874428Y-12242500D01*
X3888714Y-12256786D01*
X3903000Y-12285357D01*
X3917286Y-12342500D01*
X3917286Y-12413929D01*
X3903000Y-12471071D01*
X3888714Y-12499643D01*
X3874428Y-12513929D01*
X3845857Y-12528214D01*
X3817286Y-12528214D01*
X3788714Y-12513929D01*
X3774428Y-12499643D01*
X3760143Y-12471071D01*
X3745857Y-12413929D01*
X3745857Y-12342500D01*
X3760143Y-12285357D01*
X3774428Y-12256786D01*
X3788714Y-12242500D01*
X3817286Y-12228214D01*
X4203000Y-12528214D02*
X4031571Y-12528214D01*
X4117286Y-12528214D02*
X4117286Y-12228214D01*
X4088714Y-12271071D01*
X4060143Y-12299643D01*
X4031571Y-12313929D01*
X4345857Y-12528214D02*
X4403000Y-12528214D01*
X4431571Y-12513929D01*
X4445857Y-12499643D01*
X4474428Y-12456786D01*
X4488714Y-12399643D01*
X4488714Y-12285357D01*
X4474428Y-12256786D01*
X4460143Y-12242500D01*
X4431571Y-12228214D01*
X4374428Y-12228214D01*
X4345857Y-12242500D01*
X4331571Y-12256786D01*
X4317286Y-12285357D01*
X4317286Y-12356786D01*
X4331571Y-12385357D01*
X4345857Y-12399643D01*
X4374428Y-12413929D01*
X4431571Y-12413929D01*
X4460143Y-12399643D01*
X4474428Y-12385357D01*
X4488714Y-12356786D01*
X4588714Y-12228214D02*
X4788714Y-12228214D01*
X4660143Y-12528214D01*
X4888714Y-12228214D02*
X4888714Y-12285357D01*
X5003000Y-12228214D02*
X5003000Y-12285357D01*
X5445857Y-12642500D02*
X5431571Y-12628214D01*
X5403000Y-12585357D01*
X5388714Y-12556786D01*
X5374428Y-12513929D01*
X5360143Y-12442500D01*
X5360143Y-12385357D01*
X5374428Y-12313929D01*
X5388714Y-12271071D01*
X5403000Y-12242500D01*
X5431571Y-12199643D01*
X5445857Y-12185357D01*
X5717286Y-12528214D02*
X5545857Y-12528214D01*
X5631571Y-12528214D02*
X5631571Y-12228214D01*
X5603000Y-12271071D01*
X5574428Y-12299643D01*
X5545857Y-12313929D01*
X5974428Y-12228214D02*
X5917286Y-12228214D01*
X5888714Y-12242500D01*
X5874428Y-12256786D01*
X5845857Y-12299643D01*
X5831571Y-12356786D01*
X5831571Y-12471071D01*
X5845857Y-12499643D01*
X5860143Y-12513929D01*
X5888714Y-12528214D01*
X5945857Y-12528214D01*
X5974428Y-12513929D01*
X5988714Y-12499643D01*
X6003000Y-12471071D01*
X6003000Y-12399643D01*
X5988714Y-12371071D01*
X5974428Y-12356786D01*
X5945857Y-12342500D01*
X5888714Y-12342500D01*
X5860143Y-12356786D01*
X5845857Y-12371071D01*
X5831571Y-12399643D01*
X6360143Y-12528214D02*
X6360143Y-12228214D01*
X6488714Y-12528214D02*
X6488714Y-12371071D01*
X6474428Y-12342500D01*
X6445857Y-12328214D01*
X6403000Y-12328214D01*
X6374428Y-12342500D01*
X6360143Y-12356786D01*
X6674428Y-12528214D02*
X6645857Y-12513929D01*
X6631571Y-12499643D01*
X6617286Y-12471071D01*
X6617286Y-12385357D01*
X6631571Y-12356786D01*
X6645857Y-12342500D01*
X6674428Y-12328214D01*
X6717286Y-12328214D01*
X6745857Y-12342500D01*
X6760143Y-12356786D01*
X6774428Y-12385357D01*
X6774428Y-12471071D01*
X6760143Y-12499643D01*
X6745857Y-12513929D01*
X6717286Y-12528214D01*
X6674428Y-12528214D01*
X6945857Y-12528214D02*
X6917286Y-12513929D01*
X6903000Y-12485357D01*
X6903000Y-12228214D01*
X7174428Y-12513929D02*
X7145857Y-12528214D01*
X7088714Y-12528214D01*
X7060143Y-12513929D01*
X7045857Y-12485357D01*
X7045857Y-12371071D01*
X7060143Y-12342500D01*
X7088714Y-12328214D01*
X7145857Y-12328214D01*
X7174428Y-12342500D01*
X7188714Y-12371071D01*
X7188714Y-12399643D01*
X7045857Y-12428214D01*
X7303000Y-12513929D02*
X7331571Y-12528214D01*
X7388714Y-12528214D01*
X7417286Y-12513929D01*
X7431571Y-12485357D01*
X7431571Y-12471071D01*
X7417286Y-12442500D01*
X7388714Y-12428214D01*
X7345857Y-12428214D01*
X7317286Y-12413929D01*
X7303000Y-12385357D01*
X7303000Y-12371071D01*
X7317286Y-12342500D01*
X7345857Y-12328214D01*
X7388714Y-12328214D01*
X7417286Y-12342500D01*
X7531571Y-12642500D02*
X7545857Y-12628214D01*
X7574428Y-12585357D01*
X7588714Y-12556786D01*
X7603000Y-12513929D01*
X7617286Y-12442500D01*
X7617286Y-12385357D01*
X7603000Y-12313929D01*
X7588714Y-12271071D01*
X7574428Y-12242500D01*
X7545857Y-12199643D01*
X7531571Y-12185357D01*
X188000Y-12788500D02*
G75*
G03*
X188000Y-12788500I-160000J0D01*
G01*
X445857Y-12624214D02*
X631571Y-12624214D01*
X531571Y-12738500D01*
X574428Y-12738500D01*
X603000Y-12752786D01*
X617286Y-12767071D01*
X631571Y-12795643D01*
X631571Y-12867071D01*
X617286Y-12895643D01*
X603000Y-12909929D01*
X574428Y-12924214D01*
X488714Y-12924214D01*
X460143Y-12909929D01*
X445857Y-12895643D01*
X760143Y-12895643D02*
X774428Y-12909929D01*
X760143Y-12924214D01*
X745857Y-12909929D01*
X760143Y-12895643D01*
X760143Y-12924214D01*
X888714Y-12652786D02*
X903000Y-12638500D01*
X931571Y-12624214D01*
X1003000Y-12624214D01*
X1031571Y-12638500D01*
X1045857Y-12652786D01*
X1060143Y-12681357D01*
X1060143Y-12709929D01*
X1045857Y-12752786D01*
X874428Y-12924214D01*
X1060143Y-12924214D01*
X1245857Y-12624214D02*
X1274428Y-12624214D01*
X1303000Y-12638500D01*
X1317286Y-12652786D01*
X1331571Y-12681357D01*
X1345857Y-12738500D01*
X1345857Y-12809929D01*
X1331571Y-12867071D01*
X1317286Y-12895643D01*
X1303000Y-12909929D01*
X1274428Y-12924214D01*
X1245857Y-12924214D01*
X1217286Y-12909929D01*
X1203000Y-12895643D01*
X1188714Y-12867071D01*
X1174428Y-12809929D01*
X1174428Y-12738500D01*
X1188714Y-12681357D01*
X1203000Y-12652786D01*
X1217286Y-12638500D01*
X1245857Y-12624214D01*
X1531571Y-12624214D02*
X1560143Y-12624214D01*
X1588714Y-12638500D01*
X1603000Y-12652786D01*
X1617286Y-12681357D01*
X1631571Y-12738500D01*
X1631571Y-12809929D01*
X1617286Y-12867071D01*
X1603000Y-12895643D01*
X1588714Y-12909929D01*
X1560143Y-12924214D01*
X1531571Y-12924214D01*
X1503000Y-12909929D01*
X1488714Y-12895643D01*
X1474428Y-12867071D01*
X1460143Y-12809929D01*
X1460143Y-12738500D01*
X1474428Y-12681357D01*
X1488714Y-12652786D01*
X1503000Y-12638500D01*
X1531571Y-12624214D01*
X1760143Y-12924214D02*
X1760143Y-12724214D01*
X1760143Y-12752786D02*
X1774428Y-12738500D01*
X1803000Y-12724214D01*
X1845857Y-12724214D01*
X1874428Y-12738500D01*
X1888714Y-12767071D01*
X1888714Y-12924214D01*
X1888714Y-12767071D02*
X1903000Y-12738500D01*
X1931571Y-12724214D01*
X1974428Y-12724214D01*
X2003000Y-12738500D01*
X2017286Y-12767071D01*
X2017286Y-12924214D01*
X2160143Y-12924214D02*
X2160143Y-12724214D01*
X2160143Y-12752786D02*
X2174428Y-12738500D01*
X2203000Y-12724214D01*
X2245857Y-12724214D01*
X2274428Y-12738500D01*
X2288714Y-12767071D01*
X2288714Y-12924214D01*
X2288714Y-12767071D02*
X2303000Y-12738500D01*
X2331571Y-12724214D01*
X2374428Y-12724214D01*
X2403000Y-12738500D01*
X2417286Y-12767071D01*
X2417286Y-12924214D01*
X3003000Y-12609929D02*
X2745857Y-12995643D01*
X3388714Y-12624214D02*
X3417286Y-12624214D01*
X3445857Y-12638500D01*
X3460143Y-12652786D01*
X3474428Y-12681357D01*
X3488714Y-12738500D01*
X3488714Y-12809929D01*
X3474428Y-12867071D01*
X3460143Y-12895643D01*
X3445857Y-12909929D01*
X3417286Y-12924214D01*
X3388714Y-12924214D01*
X3360143Y-12909929D01*
X3345857Y-12895643D01*
X3331571Y-12867071D01*
X3317286Y-12809929D01*
X3317286Y-12738500D01*
X3331571Y-12681357D01*
X3345857Y-12652786D01*
X3360143Y-12638500D01*
X3388714Y-12624214D01*
X3617286Y-12895643D02*
X3631571Y-12909929D01*
X3617286Y-12924214D01*
X3603000Y-12909929D01*
X3617286Y-12895643D01*
X3617286Y-12924214D01*
X3917286Y-12924214D02*
X3745857Y-12924214D01*
X3831571Y-12924214D02*
X3831571Y-12624214D01*
X3803000Y-12667071D01*
X3774428Y-12695643D01*
X3745857Y-12709929D01*
X4031571Y-12652786D02*
X4045857Y-12638500D01*
X4074428Y-12624214D01*
X4145857Y-12624214D01*
X4174428Y-12638500D01*
X4188714Y-12652786D01*
X4203000Y-12681357D01*
X4203000Y-12709929D01*
X4188714Y-12752786D01*
X4017286Y-12924214D01*
X4203000Y-12924214D01*
X4460143Y-12624214D02*
X4403000Y-12624214D01*
X4374428Y-12638500D01*
X4360143Y-12652786D01*
X4331571Y-12695643D01*
X4317286Y-12752786D01*
X4317286Y-12867071D01*
X4331571Y-12895643D01*
X4345857Y-12909929D01*
X4374428Y-12924214D01*
X4431571Y-12924214D01*
X4460143Y-12909929D01*
X4474428Y-12895643D01*
X4488714Y-12867071D01*
X4488714Y-12795643D01*
X4474428Y-12767071D01*
X4460143Y-12752786D01*
X4431571Y-12738500D01*
X4374428Y-12738500D01*
X4345857Y-12752786D01*
X4331571Y-12767071D01*
X4317286Y-12795643D01*
X4674428Y-12624214D02*
X4703000Y-12624214D01*
X4731571Y-12638500D01*
X4745857Y-12652786D01*
X4760143Y-12681357D01*
X4774428Y-12738500D01*
X4774428Y-12809929D01*
X4760143Y-12867071D01*
X4745857Y-12895643D01*
X4731571Y-12909929D01*
X4703000Y-12924214D01*
X4674428Y-12924214D01*
X4645857Y-12909929D01*
X4631571Y-12895643D01*
X4617286Y-12867071D01*
X4603000Y-12809929D01*
X4603000Y-12738500D01*
X4617286Y-12681357D01*
X4631571Y-12652786D01*
X4645857Y-12638500D01*
X4674428Y-12624214D01*
X4888714Y-12624214D02*
X4888714Y-12681357D01*
X5003000Y-12624214D02*
X5003000Y-12681357D01*
X5445857Y-13038500D02*
X5431571Y-13024214D01*
X5403000Y-12981357D01*
X5388714Y-12952786D01*
X5374428Y-12909929D01*
X5360143Y-12838500D01*
X5360143Y-12781357D01*
X5374428Y-12709929D01*
X5388714Y-12667071D01*
X5403000Y-12638500D01*
X5431571Y-12595643D01*
X5445857Y-12581357D01*
X5545857Y-12652786D02*
X5560143Y-12638500D01*
X5588714Y-12624214D01*
X5660143Y-12624214D01*
X5688714Y-12638500D01*
X5703000Y-12652786D01*
X5717286Y-12681357D01*
X5717286Y-12709929D01*
X5703000Y-12752786D01*
X5531571Y-12924214D01*
X5717286Y-12924214D01*
X6074428Y-12924214D02*
X6074428Y-12624214D01*
X6203000Y-12924214D02*
X6203000Y-12767071D01*
X6188714Y-12738500D01*
X6160143Y-12724214D01*
X6117286Y-12724214D01*
X6088714Y-12738500D01*
X6074428Y-12752786D01*
X6388714Y-12924214D02*
X6360143Y-12909929D01*
X6345857Y-12895643D01*
X6331571Y-12867071D01*
X6331571Y-12781357D01*
X6345857Y-12752786D01*
X6360143Y-12738500D01*
X6388714Y-12724214D01*
X6431571Y-12724214D01*
X6460143Y-12738500D01*
X6474428Y-12752786D01*
X6488714Y-12781357D01*
X6488714Y-12867071D01*
X6474428Y-12895643D01*
X6460143Y-12909929D01*
X6431571Y-12924214D01*
X6388714Y-12924214D01*
X6660143Y-12924214D02*
X6631571Y-12909929D01*
X6617286Y-12881357D01*
X6617286Y-12624214D01*
X6888714Y-12909929D02*
X6860143Y-12924214D01*
X6803000Y-12924214D01*
X6774428Y-12909929D01*
X6760143Y-12881357D01*
X6760143Y-12767071D01*
X6774428Y-12738500D01*
X6803000Y-12724214D01*
X6860143Y-12724214D01*
X6888714Y-12738500D01*
X6903000Y-12767071D01*
X6903000Y-12795643D01*
X6760143Y-12824214D01*
X7017286Y-12909929D02*
X7045857Y-12924214D01*
X7103000Y-12924214D01*
X7131571Y-12909929D01*
X7145857Y-12881357D01*
X7145857Y-12867071D01*
X7131571Y-12838500D01*
X7103000Y-12824214D01*
X7060143Y-12824214D01*
X7031571Y-12809929D01*
X7017286Y-12781357D01*
X7017286Y-12767071D01*
X7031571Y-12738500D01*
X7060143Y-12724214D01*
X7103000Y-12724214D01*
X7131571Y-12738500D01*
X7245857Y-13038500D02*
X7260143Y-13024214D01*
X7288714Y-12981357D01*
X7303000Y-12952786D01*
X7317286Y-12909929D01*
X7331571Y-12838500D01*
X7331571Y-12781357D01*
X7317286Y-12709929D01*
X7303000Y-12667071D01*
X7288714Y-12638500D01*
X7260143Y-12595643D01*
X7245857Y-12581357D01*
M02*
