G04 #@! TF.GenerationSoftware,KiCad,Pcbnew,5.1.12-84ad8e8a86~92~ubuntu20.04.1*
G04 #@! TF.CreationDate,2021-12-25T09:30:33-05:00*
G04 #@! TF.ProjectId,stereo_whooshy_sound_front_panel,73746572-656f-45f7-9768-6f6f7368795f,0*
G04 #@! TF.SameCoordinates,Original*
G04 #@! TF.FileFunction,Legend,Top*
G04 #@! TF.FilePolarity,Positive*
%FSLAX46Y46*%
G04 Gerber Fmt 4.6, Leading zero omitted, Abs format (unit mm)*
G04 Created by KiCad (PCBNEW 5.1.12-84ad8e8a86~92~ubuntu20.04.1) date 2021-12-25 09:30:33*
%MOMM*%
%LPD*%
G01*
G04 APERTURE LIST*
%ADD10C,0.500000*%
%ADD11C,0.400000*%
%ADD12C,0.800000*%
%ADD13C,6.400000*%
G04 APERTURE END LIST*
D10*
X135255000Y-88265000D02*
G75*
G02*
X132715000Y-90805000I-2540000J0D01*
G01*
X132715000Y-26670000D02*
G75*
G02*
X135255000Y-29210000I0J-2540000D01*
G01*
X88265000Y-29210000D02*
G75*
G02*
X90805000Y-26670000I2540000J0D01*
G01*
X88265000Y-45720000D02*
G75*
G02*
X85725000Y-48260000I-2540000J0D01*
G01*
X61595000Y-50800000D02*
G75*
G02*
X64135000Y-48260000I2540000J0D01*
G01*
X51435000Y-26670000D02*
G75*
G02*
X53975000Y-29210000I0J-2540000D01*
G01*
X64135000Y-90805000D02*
G75*
G02*
X61595000Y-88265000I0J2540000D01*
G01*
X53975000Y-88265000D02*
G75*
G02*
X51435000Y-90805000I-2540000J0D01*
G01*
X36195000Y-90805000D02*
G75*
G02*
X33655000Y-88265000I0J2540000D01*
G01*
X26035000Y-88265000D02*
G75*
G02*
X23495000Y-90805000I-2540000J0D01*
G01*
X8255000Y-90805000D02*
G75*
G02*
X5715000Y-88265000I0J2540000D01*
G01*
X33655000Y-29210000D02*
G75*
G02*
X36195000Y-26670000I2540000J0D01*
G01*
X23495000Y-26670000D02*
G75*
G02*
X26035000Y-29210000I0J-2540000D01*
G01*
X5715000Y-29210000D02*
G75*
G02*
X8255000Y-26670000I2540000J0D01*
G01*
X132715000Y-90805000D02*
X64135000Y-90805000D01*
X135255000Y-29210000D02*
X135255000Y-88265000D01*
X90805000Y-26670000D02*
X132715000Y-26670000D01*
X88265000Y-29210000D02*
X88265000Y-45720000D01*
X64135000Y-48260000D02*
X85725000Y-48260000D01*
X61595000Y-50800000D02*
X61595000Y-88265000D01*
X51435000Y-90805000D02*
X36195000Y-90805000D01*
X23495000Y-90805000D02*
X8255000Y-90805000D01*
X51435000Y-26670000D02*
X36195000Y-26670000D01*
X53975000Y-29210000D02*
X53975000Y-88265000D01*
X33655000Y-29210000D02*
X33655000Y-88265000D01*
X5715000Y-29210000D02*
X5715000Y-88265000D01*
X26035000Y-29210000D02*
X26035000Y-88265000D01*
X23495000Y-26670000D02*
X8255000Y-26670000D01*
X107600714Y-96234285D02*
X108172142Y-96424761D01*
X108362619Y-96615238D01*
X108553095Y-96996190D01*
X108553095Y-97567619D01*
X108362619Y-97948571D01*
X108172142Y-98139047D01*
X107791190Y-98329523D01*
X106267380Y-98329523D01*
X106267380Y-94329523D01*
X107600714Y-94329523D01*
X107981666Y-94520000D01*
X108172142Y-94710476D01*
X108362619Y-95091428D01*
X108362619Y-95472380D01*
X108172142Y-95853333D01*
X107981666Y-96043809D01*
X107600714Y-96234285D01*
X106267380Y-96234285D01*
X32702619Y-97186666D02*
X34607380Y-97186666D01*
X32321666Y-98329523D02*
X33655000Y-94329523D01*
X34988333Y-98329523D01*
D11*
X76776904Y-37734761D02*
X76586428Y-37639523D01*
X76491190Y-37544285D01*
X76395952Y-37353809D01*
X76395952Y-36782380D01*
X76491190Y-36591904D01*
X76586428Y-36496666D01*
X76776904Y-36401428D01*
X77062619Y-36401428D01*
X77253095Y-36496666D01*
X77348333Y-36591904D01*
X77443571Y-36782380D01*
X77443571Y-37353809D01*
X77348333Y-37544285D01*
X77253095Y-37639523D01*
X77062619Y-37734761D01*
X76776904Y-37734761D01*
X79157857Y-36401428D02*
X79157857Y-37734761D01*
X78300714Y-36401428D02*
X78300714Y-37449047D01*
X78395952Y-37639523D01*
X78586428Y-37734761D01*
X78872142Y-37734761D01*
X79062619Y-37639523D01*
X79157857Y-37544285D01*
X79824523Y-36401428D02*
X80586428Y-36401428D01*
X80110238Y-35734761D02*
X80110238Y-37449047D01*
X80205476Y-37639523D01*
X80395952Y-37734761D01*
X80586428Y-37734761D01*
X82681666Y-37163333D02*
X83634047Y-37163333D01*
X82491190Y-37734761D02*
X83157857Y-35734761D01*
X83824523Y-37734761D01*
X76301190Y-33924761D02*
X76301190Y-32591428D01*
X76301190Y-31924761D02*
X76205952Y-32020000D01*
X76301190Y-32115238D01*
X76396428Y-32020000D01*
X76301190Y-31924761D01*
X76301190Y-32115238D01*
X77253571Y-32591428D02*
X77253571Y-33924761D01*
X77253571Y-32781904D02*
X77348809Y-32686666D01*
X77539285Y-32591428D01*
X77825000Y-32591428D01*
X78015476Y-32686666D01*
X78110714Y-32877142D01*
X78110714Y-33924761D01*
X80491666Y-33353333D02*
X81444047Y-33353333D01*
X80301190Y-33924761D02*
X80967857Y-31924761D01*
X81634523Y-33924761D01*
X76301190Y-41544761D02*
X76301190Y-40211428D01*
X76301190Y-39544761D02*
X76205952Y-39640000D01*
X76301190Y-39735238D01*
X76396428Y-39640000D01*
X76301190Y-39544761D01*
X76301190Y-39735238D01*
X77253571Y-40211428D02*
X77253571Y-41544761D01*
X77253571Y-40401904D02*
X77348809Y-40306666D01*
X77539285Y-40211428D01*
X77825000Y-40211428D01*
X78015476Y-40306666D01*
X78110714Y-40497142D01*
X78110714Y-41544761D01*
X81253571Y-40497142D02*
X81539285Y-40592380D01*
X81634523Y-40687619D01*
X81729761Y-40878095D01*
X81729761Y-41163809D01*
X81634523Y-41354285D01*
X81539285Y-41449523D01*
X81348809Y-41544761D01*
X80586904Y-41544761D01*
X80586904Y-39544761D01*
X81253571Y-39544761D01*
X81444047Y-39640000D01*
X81539285Y-39735238D01*
X81634523Y-39925714D01*
X81634523Y-40116190D01*
X81539285Y-40306666D01*
X81444047Y-40401904D01*
X81253571Y-40497142D01*
X80586904Y-40497142D01*
D10*
X65183571Y-44235714D02*
X65612142Y-44378571D01*
X65755000Y-44521428D01*
X65897857Y-44807142D01*
X65897857Y-45235714D01*
X65755000Y-45521428D01*
X65612142Y-45664285D01*
X65326428Y-45807142D01*
X64183571Y-45807142D01*
X64183571Y-42807142D01*
X65183571Y-42807142D01*
X65469285Y-42950000D01*
X65612142Y-43092857D01*
X65755000Y-43378571D01*
X65755000Y-43664285D01*
X65612142Y-43950000D01*
X65469285Y-44092857D01*
X65183571Y-44235714D01*
X64183571Y-44235714D01*
X69469285Y-45807142D02*
X69469285Y-43807142D01*
X69469285Y-42807142D02*
X69326428Y-42950000D01*
X69469285Y-43092857D01*
X69612142Y-42950000D01*
X69469285Y-42807142D01*
X69469285Y-43092857D01*
X70897857Y-43807142D02*
X70897857Y-45807142D01*
X70897857Y-44092857D02*
X71040714Y-43950000D01*
X71326428Y-43807142D01*
X71755000Y-43807142D01*
X72040714Y-43950000D01*
X72183571Y-44235714D01*
X72183571Y-45807142D01*
X73612142Y-43807142D02*
X73612142Y-46807142D01*
X73612142Y-43950000D02*
X73897857Y-43807142D01*
X74469285Y-43807142D01*
X74755000Y-43950000D01*
X74897857Y-44092857D01*
X75040714Y-44378571D01*
X75040714Y-45235714D01*
X74897857Y-45521428D01*
X74755000Y-45664285D01*
X74469285Y-45807142D01*
X73897857Y-45807142D01*
X73612142Y-45664285D01*
X77612142Y-43807142D02*
X77612142Y-45807142D01*
X76326428Y-43807142D02*
X76326428Y-45378571D01*
X76469285Y-45664285D01*
X76755000Y-45807142D01*
X77183571Y-45807142D01*
X77469285Y-45664285D01*
X77612142Y-45521428D01*
X78612142Y-43807142D02*
X79755000Y-43807142D01*
X79040714Y-42807142D02*
X79040714Y-45378571D01*
X79183571Y-45664285D01*
X79469285Y-45807142D01*
X79755000Y-45807142D01*
X33520714Y-16426428D02*
X33949285Y-16640714D01*
X34806428Y-16640714D01*
X35234999Y-16426428D01*
X35449285Y-15997857D01*
X35449285Y-15783571D01*
X35234999Y-15355000D01*
X34806428Y-15140714D01*
X34163571Y-15140714D01*
X33734999Y-14926428D01*
X33520714Y-14497857D01*
X33520714Y-14283571D01*
X33734999Y-13855000D01*
X34163571Y-13640714D01*
X34806428Y-13640714D01*
X35234999Y-13855000D01*
X36734999Y-13640714D02*
X38449285Y-13640714D01*
X37377857Y-12140714D02*
X37377857Y-15997857D01*
X37592142Y-16426428D01*
X38020714Y-16640714D01*
X38449285Y-16640714D01*
X41663571Y-16426428D02*
X41234999Y-16640714D01*
X40377857Y-16640714D01*
X39949285Y-16426428D01*
X39734999Y-15997857D01*
X39734999Y-14283571D01*
X39949285Y-13855000D01*
X40377857Y-13640714D01*
X41234999Y-13640714D01*
X41663571Y-13855000D01*
X41877857Y-14283571D01*
X41877857Y-14712142D01*
X39734999Y-15140714D01*
X43806428Y-16640714D02*
X43806428Y-13640714D01*
X43806428Y-14497857D02*
X44020714Y-14069285D01*
X44234999Y-13855000D01*
X44663571Y-13640714D01*
X45092142Y-13640714D01*
X48306428Y-16426428D02*
X47877857Y-16640714D01*
X47020714Y-16640714D01*
X46592142Y-16426428D01*
X46377857Y-15997857D01*
X46377857Y-14283571D01*
X46592142Y-13855000D01*
X47020714Y-13640714D01*
X47877857Y-13640714D01*
X48306428Y-13855000D01*
X48520714Y-14283571D01*
X48520714Y-14712142D01*
X46377857Y-15140714D01*
X51092142Y-16640714D02*
X50663571Y-16426428D01*
X50449285Y-16212142D01*
X50234999Y-15783571D01*
X50234999Y-14497857D01*
X50449285Y-14069285D01*
X50663571Y-13855000D01*
X51092142Y-13640714D01*
X51734999Y-13640714D01*
X52163571Y-13855000D01*
X52377857Y-14069285D01*
X52592142Y-14497857D01*
X52592142Y-15783571D01*
X52377857Y-16212142D01*
X52163571Y-16426428D01*
X51734999Y-16640714D01*
X51092142Y-16640714D01*
X57520714Y-13640714D02*
X58377857Y-16640714D01*
X59234999Y-14497857D01*
X60092142Y-16640714D01*
X60949285Y-13640714D01*
X62663571Y-16640714D02*
X62663571Y-12140714D01*
X64592142Y-16640714D02*
X64592142Y-14283571D01*
X64377857Y-13855000D01*
X63949285Y-13640714D01*
X63306428Y-13640714D01*
X62877857Y-13855000D01*
X62663571Y-14069285D01*
X67377857Y-16640714D02*
X66949285Y-16426428D01*
X66734999Y-16212142D01*
X66520714Y-15783571D01*
X66520714Y-14497857D01*
X66734999Y-14069285D01*
X66949285Y-13855000D01*
X67377857Y-13640714D01*
X68020714Y-13640714D01*
X68449285Y-13855000D01*
X68663571Y-14069285D01*
X68877857Y-14497857D01*
X68877857Y-15783571D01*
X68663571Y-16212142D01*
X68449285Y-16426428D01*
X68020714Y-16640714D01*
X67377857Y-16640714D01*
X71449285Y-16640714D02*
X71020714Y-16426428D01*
X70806428Y-16212142D01*
X70592142Y-15783571D01*
X70592142Y-14497857D01*
X70806428Y-14069285D01*
X71020714Y-13855000D01*
X71449285Y-13640714D01*
X72092142Y-13640714D01*
X72520714Y-13855000D01*
X72734999Y-14069285D01*
X72949285Y-14497857D01*
X72949285Y-15783571D01*
X72734999Y-16212142D01*
X72520714Y-16426428D01*
X72092142Y-16640714D01*
X71449285Y-16640714D01*
X74663571Y-16426428D02*
X75092142Y-16640714D01*
X75949285Y-16640714D01*
X76377857Y-16426428D01*
X76592142Y-15997857D01*
X76592142Y-15783571D01*
X76377857Y-15355000D01*
X75949285Y-15140714D01*
X75306428Y-15140714D01*
X74877857Y-14926428D01*
X74663571Y-14497857D01*
X74663571Y-14283571D01*
X74877857Y-13855000D01*
X75306428Y-13640714D01*
X75949285Y-13640714D01*
X76377857Y-13855000D01*
X78520714Y-16640714D02*
X78520714Y-12140714D01*
X80449285Y-16640714D02*
X80449285Y-14283571D01*
X80234999Y-13855000D01*
X79806428Y-13640714D01*
X79163571Y-13640714D01*
X78734999Y-13855000D01*
X78520714Y-14069285D01*
X82163571Y-13640714D02*
X83234999Y-16640714D01*
X84306428Y-13640714D02*
X83234999Y-16640714D01*
X82806428Y-17712142D01*
X82592142Y-17926428D01*
X82163571Y-18140714D01*
X89234999Y-16426428D02*
X89663571Y-16640714D01*
X90520714Y-16640714D01*
X90949285Y-16426428D01*
X91163571Y-15997857D01*
X91163571Y-15783571D01*
X90949285Y-15355000D01*
X90520714Y-15140714D01*
X89877857Y-15140714D01*
X89449285Y-14926428D01*
X89234999Y-14497857D01*
X89234999Y-14283571D01*
X89449285Y-13855000D01*
X89877857Y-13640714D01*
X90520714Y-13640714D01*
X90949285Y-13855000D01*
X93734999Y-16640714D02*
X93306428Y-16426428D01*
X93092142Y-16212142D01*
X92877857Y-15783571D01*
X92877857Y-14497857D01*
X93092142Y-14069285D01*
X93306428Y-13855000D01*
X93734999Y-13640714D01*
X94377857Y-13640714D01*
X94806428Y-13855000D01*
X95020714Y-14069285D01*
X95234999Y-14497857D01*
X95234999Y-15783571D01*
X95020714Y-16212142D01*
X94806428Y-16426428D01*
X94377857Y-16640714D01*
X93734999Y-16640714D01*
X99092142Y-13640714D02*
X99092142Y-16640714D01*
X97163571Y-13640714D02*
X97163571Y-15997857D01*
X97377857Y-16426428D01*
X97806428Y-16640714D01*
X98449285Y-16640714D01*
X98877857Y-16426428D01*
X99092142Y-16212142D01*
X101234999Y-13640714D02*
X101234999Y-16640714D01*
X101234999Y-14069285D02*
X101449285Y-13855000D01*
X101877857Y-13640714D01*
X102520714Y-13640714D01*
X102949285Y-13855000D01*
X103163571Y-14283571D01*
X103163571Y-16640714D01*
X107234999Y-16640714D02*
X107234999Y-12140714D01*
X107234999Y-16426428D02*
X106806428Y-16640714D01*
X105949285Y-16640714D01*
X105520714Y-16426428D01*
X105306428Y-16212142D01*
X105092142Y-15783571D01*
X105092142Y-14497857D01*
X105306428Y-14069285D01*
X105520714Y-13855000D01*
X105949285Y-13640714D01*
X106806428Y-13640714D01*
X107234999Y-13855000D01*
X86140952Y-24479047D02*
X86521904Y-24669523D01*
X87283809Y-24669523D01*
X87664761Y-24479047D01*
X87855238Y-24098095D01*
X87855238Y-23907619D01*
X87664761Y-23526666D01*
X87283809Y-23336190D01*
X86712380Y-23336190D01*
X86331428Y-23145714D01*
X86140952Y-22764761D01*
X86140952Y-22574285D01*
X86331428Y-22193333D01*
X86712380Y-22002857D01*
X87283809Y-22002857D01*
X87664761Y-22193333D01*
X89188571Y-22002857D02*
X89950476Y-24669523D01*
X90712380Y-22764761D01*
X91474285Y-24669523D01*
X92236190Y-22002857D01*
X95283809Y-24479047D02*
X94902857Y-24669523D01*
X94140952Y-24669523D01*
X93760000Y-24479047D01*
X93569523Y-24098095D01*
X93569523Y-22574285D01*
X93760000Y-22193333D01*
X94140952Y-22002857D01*
X94902857Y-22002857D01*
X95283809Y-22193333D01*
X95474285Y-22574285D01*
X95474285Y-22955238D01*
X93569523Y-23336190D01*
X98712380Y-24479047D02*
X98331428Y-24669523D01*
X97569523Y-24669523D01*
X97188571Y-24479047D01*
X96998095Y-24098095D01*
X96998095Y-22574285D01*
X97188571Y-22193333D01*
X97569523Y-22002857D01*
X98331428Y-22002857D01*
X98712380Y-22193333D01*
X98902857Y-22574285D01*
X98902857Y-22955238D01*
X96998095Y-23336190D01*
X100617142Y-22002857D02*
X100617142Y-26002857D01*
X100617142Y-22193333D02*
X100998095Y-22002857D01*
X101759999Y-22002857D01*
X102140952Y-22193333D01*
X102331428Y-22383809D01*
X102521904Y-22764761D01*
X102521904Y-23907619D01*
X102331428Y-24288571D01*
X102140952Y-24479047D01*
X101759999Y-24669523D01*
X100998095Y-24669523D01*
X100617142Y-24479047D01*
X108998095Y-22002857D02*
X108998095Y-25240952D01*
X108807619Y-25621904D01*
X108617142Y-25812380D01*
X108236190Y-26002857D01*
X107664761Y-26002857D01*
X107283809Y-25812380D01*
X108998095Y-24479047D02*
X108617142Y-24669523D01*
X107855238Y-24669523D01*
X107474285Y-24479047D01*
X107283809Y-24288571D01*
X107093333Y-23907619D01*
X107093333Y-22764761D01*
X107283809Y-22383809D01*
X107474285Y-22193333D01*
X107855238Y-22002857D01*
X108617142Y-22002857D01*
X108998095Y-22193333D01*
X112426666Y-24479047D02*
X112045714Y-24669523D01*
X111283809Y-24669523D01*
X110902857Y-24479047D01*
X110712380Y-24098095D01*
X110712380Y-22574285D01*
X110902857Y-22193333D01*
X111283809Y-22002857D01*
X112045714Y-22002857D01*
X112426666Y-22193333D01*
X112617142Y-22574285D01*
X112617142Y-22955238D01*
X110712380Y-23336190D01*
X114331428Y-22002857D02*
X114331428Y-24669523D01*
X114331428Y-22383809D02*
X114521904Y-22193333D01*
X114902857Y-22002857D01*
X115474285Y-22002857D01*
X115855238Y-22193333D01*
X116045714Y-22574285D01*
X116045714Y-24669523D01*
X119474285Y-24479047D02*
X119093333Y-24669523D01*
X118331428Y-24669523D01*
X117950476Y-24479047D01*
X117760000Y-24098095D01*
X117760000Y-22574285D01*
X117950476Y-22193333D01*
X118331428Y-22002857D01*
X119093333Y-22002857D01*
X119474285Y-22193333D01*
X119664761Y-22574285D01*
X119664761Y-22955238D01*
X117760000Y-23336190D01*
X121379047Y-24669523D02*
X121379047Y-22002857D01*
X121379047Y-22764761D02*
X121569523Y-22383809D01*
X121760000Y-22193333D01*
X122140952Y-22002857D01*
X122521904Y-22002857D01*
X125569523Y-24669523D02*
X125569523Y-22574285D01*
X125379047Y-22193333D01*
X124998095Y-22002857D01*
X124236190Y-22002857D01*
X123855238Y-22193333D01*
X125569523Y-24479047D02*
X125188571Y-24669523D01*
X124236190Y-24669523D01*
X123855238Y-24479047D01*
X123664761Y-24098095D01*
X123664761Y-23717142D01*
X123855238Y-23336190D01*
X124236190Y-23145714D01*
X125188571Y-23145714D01*
X125569523Y-22955238D01*
X126902857Y-22002857D02*
X128426666Y-22002857D01*
X127474285Y-20669523D02*
X127474285Y-24098095D01*
X127664761Y-24479047D01*
X128045714Y-24669523D01*
X128426666Y-24669523D01*
X130331428Y-24669523D02*
X129950476Y-24479047D01*
X129760000Y-24288571D01*
X129569523Y-23907619D01*
X129569523Y-22764761D01*
X129760000Y-22383809D01*
X129950476Y-22193333D01*
X130331428Y-22002857D01*
X130902857Y-22002857D01*
X131283809Y-22193333D01*
X131474285Y-22383809D01*
X131664761Y-22764761D01*
X131664761Y-23907619D01*
X131474285Y-24288571D01*
X131283809Y-24479047D01*
X130902857Y-24669523D01*
X130331428Y-24669523D01*
X133379047Y-24669523D02*
X133379047Y-22002857D01*
X133379047Y-22764761D02*
X133569523Y-22383809D01*
X133760000Y-22193333D01*
X134140952Y-22002857D01*
X134521904Y-22002857D01*
X135664761Y-24479047D02*
X136045714Y-24669523D01*
X136807619Y-24669523D01*
X137188571Y-24479047D01*
X137379047Y-24098095D01*
X137379047Y-23907619D01*
X137188571Y-23526666D01*
X136807619Y-23336190D01*
X136236190Y-23336190D01*
X135855238Y-23145714D01*
X135664761Y-22764761D01*
X135664761Y-22574285D01*
X135855238Y-22193333D01*
X136236190Y-22002857D01*
X136807619Y-22002857D01*
X137188571Y-22193333D01*
X33148333Y-24479047D02*
X32767380Y-24669523D01*
X32005476Y-24669523D01*
X31624523Y-24479047D01*
X31434047Y-24098095D01*
X31434047Y-22574285D01*
X31624523Y-22193333D01*
X32005476Y-22002857D01*
X32767380Y-22002857D01*
X33148333Y-22193333D01*
X33338809Y-22574285D01*
X33338809Y-22955238D01*
X31434047Y-23336190D01*
X35053095Y-22002857D02*
X35053095Y-24669523D01*
X35053095Y-22383809D02*
X35243571Y-22193333D01*
X35624523Y-22002857D01*
X36195952Y-22002857D01*
X36576904Y-22193333D01*
X36767380Y-22574285D01*
X36767380Y-24669523D01*
X38291190Y-22002857D02*
X39243571Y-24669523D01*
X40195952Y-22002857D01*
X43243571Y-24479047D02*
X42862619Y-24669523D01*
X42100714Y-24669523D01*
X41719761Y-24479047D01*
X41529285Y-24098095D01*
X41529285Y-22574285D01*
X41719761Y-22193333D01*
X42100714Y-22002857D01*
X42862619Y-22002857D01*
X43243571Y-22193333D01*
X43434047Y-22574285D01*
X43434047Y-22955238D01*
X41529285Y-23336190D01*
X45719761Y-24669523D02*
X45338809Y-24479047D01*
X45148333Y-24098095D01*
X45148333Y-20669523D01*
X47815000Y-24669523D02*
X47434047Y-24479047D01*
X47243571Y-24288571D01*
X47053095Y-23907619D01*
X47053095Y-22764761D01*
X47243571Y-22383809D01*
X47434047Y-22193333D01*
X47815000Y-22002857D01*
X48386428Y-22002857D01*
X48767380Y-22193333D01*
X48957857Y-22383809D01*
X49148333Y-22764761D01*
X49148333Y-23907619D01*
X48957857Y-24288571D01*
X48767380Y-24479047D01*
X48386428Y-24669523D01*
X47815000Y-24669523D01*
X50862619Y-22002857D02*
X50862619Y-26002857D01*
X50862619Y-22193333D02*
X51243571Y-22002857D01*
X52005476Y-22002857D01*
X52386428Y-22193333D01*
X52576904Y-22383809D01*
X52767380Y-22764761D01*
X52767380Y-23907619D01*
X52576904Y-24288571D01*
X52386428Y-24479047D01*
X52005476Y-24669523D01*
X51243571Y-24669523D01*
X50862619Y-24479047D01*
X56005476Y-24479047D02*
X55624523Y-24669523D01*
X54862619Y-24669523D01*
X54481666Y-24479047D01*
X54291190Y-24098095D01*
X54291190Y-22574285D01*
X54481666Y-22193333D01*
X54862619Y-22002857D01*
X55624523Y-22002857D01*
X56005476Y-22193333D01*
X56195952Y-22574285D01*
X56195952Y-22955238D01*
X54291190Y-23336190D01*
X5875000Y-24669523D02*
X5875000Y-22002857D01*
X5875000Y-22383809D02*
X6065476Y-22193333D01*
X6446428Y-22002857D01*
X7017857Y-22002857D01*
X7398809Y-22193333D01*
X7589285Y-22574285D01*
X7589285Y-24669523D01*
X7589285Y-22574285D02*
X7779761Y-22193333D01*
X8160714Y-22002857D01*
X8732142Y-22002857D01*
X9113095Y-22193333D01*
X9303571Y-22574285D01*
X9303571Y-24669523D01*
X12922619Y-24669523D02*
X12922619Y-22574285D01*
X12732142Y-22193333D01*
X12351190Y-22002857D01*
X11589285Y-22002857D01*
X11208333Y-22193333D01*
X12922619Y-24479047D02*
X12541666Y-24669523D01*
X11589285Y-24669523D01*
X11208333Y-24479047D01*
X11017857Y-24098095D01*
X11017857Y-23717142D01*
X11208333Y-23336190D01*
X11589285Y-23145714D01*
X12541666Y-23145714D01*
X12922619Y-22955238D01*
X14827380Y-22002857D02*
X14827380Y-24669523D01*
X14827380Y-22383809D02*
X15017857Y-22193333D01*
X15398809Y-22002857D01*
X15970238Y-22002857D01*
X16351190Y-22193333D01*
X16541666Y-22574285D01*
X16541666Y-24669523D01*
X20160714Y-22002857D02*
X20160714Y-24669523D01*
X18446428Y-22002857D02*
X18446428Y-24098095D01*
X18636904Y-24479047D01*
X19017857Y-24669523D01*
X19589285Y-24669523D01*
X19970238Y-24479047D01*
X20160714Y-24288571D01*
X23779761Y-24669523D02*
X23779761Y-22574285D01*
X23589285Y-22193333D01*
X23208333Y-22002857D01*
X22446428Y-22002857D01*
X22065476Y-22193333D01*
X23779761Y-24479047D02*
X23398809Y-24669523D01*
X22446428Y-24669523D01*
X22065476Y-24479047D01*
X21875000Y-24098095D01*
X21875000Y-23717142D01*
X22065476Y-23336190D01*
X22446428Y-23145714D01*
X23398809Y-23145714D01*
X23779761Y-22955238D01*
X26255952Y-24669523D02*
X25875000Y-24479047D01*
X25684523Y-24098095D01*
X25684523Y-20669523D01*
X37465000Y-85090000D02*
X38100000Y-84455000D01*
X37465000Y-82550000D02*
X37465000Y-85090000D01*
X35560000Y-82550000D02*
X34925000Y-83185000D01*
X37465000Y-85090000D02*
X36830000Y-84455000D01*
X35560000Y-82550000D02*
X36195000Y-83185000D01*
X35560000Y-85090000D02*
X35560000Y-82550000D01*
X35560000Y-81280000D02*
X36195000Y-80645000D01*
X35560000Y-78740000D02*
X35560000Y-81280000D01*
X37465000Y-81280000D02*
X38100000Y-80645000D01*
X35560000Y-81280000D02*
X34925000Y-80645000D01*
X37465000Y-81280000D02*
X36830000Y-80645000D01*
X37465000Y-78740000D02*
X37465000Y-81280000D01*
X35560000Y-74930000D02*
X34925000Y-75565000D01*
X35560000Y-77470000D02*
X35560000Y-74930000D01*
X35560000Y-74930000D02*
X36195000Y-75565000D01*
X37465000Y-74930000D02*
X38100000Y-75565000D01*
X37465000Y-74930000D02*
X36830000Y-75565000D01*
X37465000Y-77470000D02*
X37465000Y-74930000D01*
X12446428Y-88987142D02*
X12446428Y-86987142D01*
X12446428Y-87558571D02*
X12589285Y-87272857D01*
X12732142Y-87130000D01*
X13017857Y-86987142D01*
X13303571Y-86987142D01*
X15446428Y-88844285D02*
X15160714Y-88987142D01*
X14589285Y-88987142D01*
X14303571Y-88844285D01*
X14160714Y-88558571D01*
X14160714Y-87415714D01*
X14303571Y-87130000D01*
X14589285Y-86987142D01*
X15160714Y-86987142D01*
X15446428Y-87130000D01*
X15589285Y-87415714D01*
X15589285Y-87701428D01*
X14160714Y-87987142D01*
X16732142Y-88844285D02*
X17017857Y-88987142D01*
X17589285Y-88987142D01*
X17875000Y-88844285D01*
X18017857Y-88558571D01*
X18017857Y-88415714D01*
X17875000Y-88130000D01*
X17589285Y-87987142D01*
X17160714Y-87987142D01*
X16875000Y-87844285D01*
X16732142Y-87558571D01*
X16732142Y-87415714D01*
X16875000Y-87130000D01*
X17160714Y-86987142D01*
X17589285Y-86987142D01*
X17875000Y-87130000D01*
X19303571Y-88701428D02*
X19446428Y-88844285D01*
X19303571Y-88987142D01*
X19160714Y-88844285D01*
X19303571Y-88701428D01*
X19303571Y-88987142D01*
X11875000Y-67254285D02*
X12160714Y-67397142D01*
X12732142Y-67397142D01*
X13017857Y-67254285D01*
X13160714Y-66968571D01*
X13160714Y-66825714D01*
X13017857Y-66540000D01*
X12732142Y-66397142D01*
X12303571Y-66397142D01*
X12017857Y-66254285D01*
X11875000Y-65968571D01*
X11875000Y-65825714D01*
X12017857Y-65540000D01*
X12303571Y-65397142D01*
X12732142Y-65397142D01*
X13017857Y-65540000D01*
X15589285Y-67254285D02*
X15303571Y-67397142D01*
X14732142Y-67397142D01*
X14446428Y-67254285D01*
X14303571Y-66968571D01*
X14303571Y-65825714D01*
X14446428Y-65540000D01*
X14732142Y-65397142D01*
X15303571Y-65397142D01*
X15589285Y-65540000D01*
X15732142Y-65825714D01*
X15732142Y-66111428D01*
X14303571Y-66397142D01*
X17017857Y-65397142D02*
X17017857Y-68397142D01*
X17017857Y-65540000D02*
X17303571Y-65397142D01*
X17875000Y-65397142D01*
X18160714Y-65540000D01*
X18303571Y-65682857D01*
X18446428Y-65968571D01*
X18446428Y-66825714D01*
X18303571Y-67111428D01*
X18160714Y-67254285D01*
X17875000Y-67397142D01*
X17303571Y-67397142D01*
X17017857Y-67254285D01*
X19732142Y-67111428D02*
X19875000Y-67254285D01*
X19732142Y-67397142D01*
X19589285Y-67254285D01*
X19732142Y-67111428D01*
X19732142Y-67397142D01*
X11017857Y-43807142D02*
X12160714Y-43807142D01*
X11446428Y-45807142D02*
X11446428Y-43235714D01*
X11589285Y-42950000D01*
X11875000Y-42807142D01*
X12160714Y-42807142D01*
X13160714Y-45807142D02*
X13160714Y-43807142D01*
X13160714Y-44378571D02*
X13303571Y-44092857D01*
X13446428Y-43950000D01*
X13732142Y-43807142D01*
X14017857Y-43807142D01*
X16160714Y-45664285D02*
X15875000Y-45807142D01*
X15303571Y-45807142D01*
X15017857Y-45664285D01*
X14875000Y-45378571D01*
X14875000Y-44235714D01*
X15017857Y-43950000D01*
X15303571Y-43807142D01*
X15875000Y-43807142D01*
X16160714Y-43950000D01*
X16303571Y-44235714D01*
X16303571Y-44521428D01*
X14875000Y-44807142D01*
X18875000Y-43807142D02*
X18875000Y-46807142D01*
X18875000Y-45664285D02*
X18589285Y-45807142D01*
X18017857Y-45807142D01*
X17732142Y-45664285D01*
X17589285Y-45521428D01*
X17446428Y-45235714D01*
X17446428Y-44378571D01*
X17589285Y-44092857D01*
X17732142Y-43950000D01*
X18017857Y-43807142D01*
X18589285Y-43807142D01*
X18875000Y-43950000D01*
X20303571Y-45521428D02*
X20446428Y-45664285D01*
X20303571Y-45807142D01*
X20160714Y-45664285D01*
X20303571Y-45521428D01*
X20303571Y-45807142D01*
X38529285Y-88987142D02*
X38529285Y-86987142D01*
X38529285Y-87272857D02*
X38672142Y-87130000D01*
X38957857Y-86987142D01*
X39386428Y-86987142D01*
X39672142Y-87130000D01*
X39815000Y-87415714D01*
X39815000Y-88987142D01*
X39815000Y-87415714D02*
X39957857Y-87130000D01*
X40243571Y-86987142D01*
X40672142Y-86987142D01*
X40957857Y-87130000D01*
X41100714Y-87415714D01*
X41100714Y-88987142D01*
X42957857Y-88987142D02*
X42672142Y-88844285D01*
X42529285Y-88701428D01*
X42386428Y-88415714D01*
X42386428Y-87558571D01*
X42529285Y-87272857D01*
X42672142Y-87130000D01*
X42957857Y-86987142D01*
X43386428Y-86987142D01*
X43672142Y-87130000D01*
X43815000Y-87272857D01*
X43957857Y-87558571D01*
X43957857Y-88415714D01*
X43815000Y-88701428D01*
X43672142Y-88844285D01*
X43386428Y-88987142D01*
X42957857Y-88987142D01*
X46529285Y-88987142D02*
X46529285Y-85987142D01*
X46529285Y-88844285D02*
X46243571Y-88987142D01*
X45672142Y-88987142D01*
X45386428Y-88844285D01*
X45243571Y-88701428D01*
X45100714Y-88415714D01*
X45100714Y-87558571D01*
X45243571Y-87272857D01*
X45386428Y-87130000D01*
X45672142Y-86987142D01*
X46243571Y-86987142D01*
X46529285Y-87130000D01*
X49100714Y-88844285D02*
X48815000Y-88987142D01*
X48243571Y-88987142D01*
X47957857Y-88844285D01*
X47815000Y-88558571D01*
X47815000Y-87415714D01*
X47957857Y-87130000D01*
X48243571Y-86987142D01*
X48815000Y-86987142D01*
X49100714Y-87130000D01*
X49243571Y-87415714D01*
X49243571Y-87701428D01*
X47815000Y-87987142D01*
X39672142Y-67397142D02*
X39386428Y-67254285D01*
X39243571Y-66968571D01*
X39243571Y-64397142D01*
X41957857Y-67254285D02*
X41672142Y-67397142D01*
X41100714Y-67397142D01*
X40815000Y-67254285D01*
X40672142Y-66968571D01*
X40672142Y-65825714D01*
X40815000Y-65540000D01*
X41100714Y-65397142D01*
X41672142Y-65397142D01*
X41957857Y-65540000D01*
X42100714Y-65825714D01*
X42100714Y-66111428D01*
X40672142Y-66397142D01*
X43100714Y-65397142D02*
X43815000Y-67397142D01*
X44529285Y-65397142D01*
X46815000Y-67254285D02*
X46529285Y-67397142D01*
X45957857Y-67397142D01*
X45672142Y-67254285D01*
X45529285Y-66968571D01*
X45529285Y-65825714D01*
X45672142Y-65540000D01*
X45957857Y-65397142D01*
X46529285Y-65397142D01*
X46815000Y-65540000D01*
X46957857Y-65825714D01*
X46957857Y-66111428D01*
X45529285Y-66397142D01*
X48672142Y-67397142D02*
X48386428Y-67254285D01*
X48243571Y-66968571D01*
X48243571Y-64397142D01*
X38886428Y-45807142D02*
X38886428Y-44235714D01*
X38743571Y-43950000D01*
X38457857Y-43807142D01*
X37886428Y-43807142D01*
X37600714Y-43950000D01*
X38886428Y-45664285D02*
X38600714Y-45807142D01*
X37886428Y-45807142D01*
X37600714Y-45664285D01*
X37457857Y-45378571D01*
X37457857Y-45092857D01*
X37600714Y-44807142D01*
X37886428Y-44664285D01*
X38600714Y-44664285D01*
X38886428Y-44521428D01*
X39886428Y-43807142D02*
X41029285Y-43807142D01*
X40315000Y-42807142D02*
X40315000Y-45378571D01*
X40457857Y-45664285D01*
X40743571Y-45807142D01*
X41029285Y-45807142D01*
X41600714Y-43807142D02*
X42743571Y-43807142D01*
X42029285Y-42807142D02*
X42029285Y-45378571D01*
X42172142Y-45664285D01*
X42457857Y-45807142D01*
X42743571Y-45807142D01*
X45029285Y-45807142D02*
X45029285Y-44235714D01*
X44886428Y-43950000D01*
X44600714Y-43807142D01*
X44029285Y-43807142D01*
X43743571Y-43950000D01*
X45029285Y-45664285D02*
X44743571Y-45807142D01*
X44029285Y-45807142D01*
X43743571Y-45664285D01*
X43600714Y-45378571D01*
X43600714Y-45092857D01*
X43743571Y-44807142D01*
X44029285Y-44664285D01*
X44743571Y-44664285D01*
X45029285Y-44521428D01*
X47743571Y-45664285D02*
X47457857Y-45807142D01*
X46886428Y-45807142D01*
X46600714Y-45664285D01*
X46457857Y-45521428D01*
X46315000Y-45235714D01*
X46315000Y-44378571D01*
X46457857Y-44092857D01*
X46600714Y-43950000D01*
X46886428Y-43807142D01*
X47457857Y-43807142D01*
X47743571Y-43950000D01*
X49029285Y-45807142D02*
X49029285Y-42807142D01*
X49315000Y-44664285D02*
X50172142Y-45807142D01*
X50172142Y-43807142D02*
X49029285Y-44950000D01*
X118237857Y-88987142D02*
X118237857Y-85987142D01*
X118237857Y-88844285D02*
X117952142Y-88987142D01*
X117380714Y-88987142D01*
X117095000Y-88844285D01*
X116952142Y-88701428D01*
X116809285Y-88415714D01*
X116809285Y-87558571D01*
X116952142Y-87272857D01*
X117095000Y-87130000D01*
X117380714Y-86987142D01*
X117952142Y-86987142D01*
X118237857Y-87130000D01*
X120809285Y-88844285D02*
X120523571Y-88987142D01*
X119952142Y-88987142D01*
X119666428Y-88844285D01*
X119523571Y-88558571D01*
X119523571Y-87415714D01*
X119666428Y-87130000D01*
X119952142Y-86987142D01*
X120523571Y-86987142D01*
X120809285Y-87130000D01*
X120952142Y-87415714D01*
X120952142Y-87701428D01*
X119523571Y-87987142D01*
X122237857Y-86987142D02*
X122237857Y-89987142D01*
X122237857Y-87130000D02*
X122523571Y-86987142D01*
X123095000Y-86987142D01*
X123380714Y-87130000D01*
X123523571Y-87272857D01*
X123666428Y-87558571D01*
X123666428Y-88415714D01*
X123523571Y-88701428D01*
X123380714Y-88844285D01*
X123095000Y-88987142D01*
X122523571Y-88987142D01*
X122237857Y-88844285D01*
X124523571Y-86987142D02*
X125666428Y-86987142D01*
X124952142Y-85987142D02*
X124952142Y-88558571D01*
X125095000Y-88844285D01*
X125380714Y-88987142D01*
X125666428Y-88987142D01*
X126666428Y-88987142D02*
X126666428Y-85987142D01*
X127952142Y-88987142D02*
X127952142Y-87415714D01*
X127809285Y-87130000D01*
X127523571Y-86987142D01*
X127095000Y-86987142D01*
X126809285Y-87130000D01*
X126666428Y-87272857D01*
X132666428Y-87415714D02*
X133095000Y-87558571D01*
X133237857Y-87701428D01*
X133380714Y-87987142D01*
X133380714Y-88415714D01*
X133237857Y-88701428D01*
X133095000Y-88844285D01*
X132809285Y-88987142D01*
X131666428Y-88987142D01*
X131666428Y-85987142D01*
X132666428Y-85987142D01*
X132952142Y-86130000D01*
X133095000Y-86272857D01*
X133237857Y-86558571D01*
X133237857Y-86844285D01*
X133095000Y-87130000D01*
X132952142Y-87272857D01*
X132666428Y-87415714D01*
X131666428Y-87415714D01*
X91782142Y-88987142D02*
X91782142Y-85987142D01*
X91782142Y-88844285D02*
X91496428Y-88987142D01*
X90925000Y-88987142D01*
X90639285Y-88844285D01*
X90496428Y-88701428D01*
X90353571Y-88415714D01*
X90353571Y-87558571D01*
X90496428Y-87272857D01*
X90639285Y-87130000D01*
X90925000Y-86987142D01*
X91496428Y-86987142D01*
X91782142Y-87130000D01*
X94353571Y-88844285D02*
X94067857Y-88987142D01*
X93496428Y-88987142D01*
X93210714Y-88844285D01*
X93067857Y-88558571D01*
X93067857Y-87415714D01*
X93210714Y-87130000D01*
X93496428Y-86987142D01*
X94067857Y-86987142D01*
X94353571Y-87130000D01*
X94496428Y-87415714D01*
X94496428Y-87701428D01*
X93067857Y-87987142D01*
X95782142Y-86987142D02*
X95782142Y-89987142D01*
X95782142Y-87130000D02*
X96067857Y-86987142D01*
X96639285Y-86987142D01*
X96925000Y-87130000D01*
X97067857Y-87272857D01*
X97210714Y-87558571D01*
X97210714Y-88415714D01*
X97067857Y-88701428D01*
X96925000Y-88844285D01*
X96639285Y-88987142D01*
X96067857Y-88987142D01*
X95782142Y-88844285D01*
X98067857Y-86987142D02*
X99210714Y-86987142D01*
X98496428Y-85987142D02*
X98496428Y-88558571D01*
X98639285Y-88844285D01*
X98925000Y-88987142D01*
X99210714Y-88987142D01*
X100210714Y-88987142D02*
X100210714Y-85987142D01*
X101496428Y-88987142D02*
X101496428Y-87415714D01*
X101353571Y-87130000D01*
X101067857Y-86987142D01*
X100639285Y-86987142D01*
X100353571Y-87130000D01*
X100210714Y-87272857D01*
X105067857Y-88130000D02*
X106496428Y-88130000D01*
X104782142Y-88987142D02*
X105782142Y-85987142D01*
X106782142Y-88987142D01*
X116618809Y-46259523D02*
X116618809Y-43592857D01*
X116618809Y-44354761D02*
X116809285Y-43973809D01*
X116999761Y-43783333D01*
X117380714Y-43592857D01*
X117761666Y-43592857D01*
X120809285Y-46259523D02*
X120809285Y-44164285D01*
X120618809Y-43783333D01*
X120237857Y-43592857D01*
X119475952Y-43592857D01*
X119095000Y-43783333D01*
X120809285Y-46069047D02*
X120428333Y-46259523D01*
X119475952Y-46259523D01*
X119095000Y-46069047D01*
X118904523Y-45688095D01*
X118904523Y-45307142D01*
X119095000Y-44926190D01*
X119475952Y-44735714D01*
X120428333Y-44735714D01*
X120809285Y-44545238D01*
X122142619Y-43592857D02*
X123666428Y-43592857D01*
X122714047Y-42259523D02*
X122714047Y-45688095D01*
X122904523Y-46069047D01*
X123285476Y-46259523D01*
X123666428Y-46259523D01*
X126523571Y-46069047D02*
X126142619Y-46259523D01*
X125380714Y-46259523D01*
X124999761Y-46069047D01*
X124809285Y-45688095D01*
X124809285Y-44164285D01*
X124999761Y-43783333D01*
X125380714Y-43592857D01*
X126142619Y-43592857D01*
X126523571Y-43783333D01*
X126714047Y-44164285D01*
X126714047Y-44545238D01*
X124809285Y-44926190D01*
X132809285Y-44164285D02*
X133380714Y-44354761D01*
X133571190Y-44545238D01*
X133761666Y-44926190D01*
X133761666Y-45497619D01*
X133571190Y-45878571D01*
X133380714Y-46069047D01*
X132999761Y-46259523D01*
X131475952Y-46259523D01*
X131475952Y-42259523D01*
X132809285Y-42259523D01*
X133190238Y-42450000D01*
X133380714Y-42640476D01*
X133571190Y-43021428D01*
X133571190Y-43402380D01*
X133380714Y-43783333D01*
X133190238Y-43973809D01*
X132809285Y-44164285D01*
X131475952Y-44164285D01*
X92282142Y-45807142D02*
X92282142Y-43807142D01*
X92282142Y-44378571D02*
X92425000Y-44092857D01*
X92567857Y-43950000D01*
X92853571Y-43807142D01*
X93139285Y-43807142D01*
X95425000Y-45807142D02*
X95425000Y-44235714D01*
X95282142Y-43950000D01*
X94996428Y-43807142D01*
X94425000Y-43807142D01*
X94139285Y-43950000D01*
X95425000Y-45664285D02*
X95139285Y-45807142D01*
X94425000Y-45807142D01*
X94139285Y-45664285D01*
X93996428Y-45378571D01*
X93996428Y-45092857D01*
X94139285Y-44807142D01*
X94425000Y-44664285D01*
X95139285Y-44664285D01*
X95425000Y-44521428D01*
X96425000Y-43807142D02*
X97567857Y-43807142D01*
X96853571Y-42807142D02*
X96853571Y-45378571D01*
X96996428Y-45664285D01*
X97282142Y-45807142D01*
X97567857Y-45807142D01*
X99710714Y-45664285D02*
X99425000Y-45807142D01*
X98853571Y-45807142D01*
X98567857Y-45664285D01*
X98425000Y-45378571D01*
X98425000Y-44235714D01*
X98567857Y-43950000D01*
X98853571Y-43807142D01*
X99425000Y-43807142D01*
X99710714Y-43950000D01*
X99853571Y-44235714D01*
X99853571Y-44521428D01*
X98425000Y-44807142D01*
X103282142Y-44950000D02*
X104710714Y-44950000D01*
X102996428Y-45807142D02*
X103996428Y-42807142D01*
X104996428Y-45807142D01*
X89996428Y-67254285D02*
X90282142Y-67397142D01*
X90853571Y-67397142D01*
X91139285Y-67254285D01*
X91282142Y-66968571D01*
X91282142Y-66825714D01*
X91139285Y-66540000D01*
X90853571Y-66397142D01*
X90425000Y-66397142D01*
X90139285Y-66254285D01*
X89996428Y-65968571D01*
X89996428Y-65825714D01*
X90139285Y-65540000D01*
X90425000Y-65397142D01*
X90853571Y-65397142D01*
X91139285Y-65540000D01*
X92567857Y-67397142D02*
X92567857Y-64397142D01*
X93853571Y-67397142D02*
X93853571Y-65825714D01*
X93710714Y-65540000D01*
X93425000Y-65397142D01*
X92996428Y-65397142D01*
X92710714Y-65540000D01*
X92567857Y-65682857D01*
X96567857Y-67397142D02*
X96567857Y-65825714D01*
X96425000Y-65540000D01*
X96139285Y-65397142D01*
X95567857Y-65397142D01*
X95282142Y-65540000D01*
X96567857Y-67254285D02*
X96282142Y-67397142D01*
X95567857Y-67397142D01*
X95282142Y-67254285D01*
X95139285Y-66968571D01*
X95139285Y-66682857D01*
X95282142Y-66397142D01*
X95567857Y-66254285D01*
X96282142Y-66254285D01*
X96567857Y-66111428D01*
X97996428Y-65397142D02*
X97996428Y-68397142D01*
X97996428Y-65540000D02*
X98282142Y-65397142D01*
X98853571Y-65397142D01*
X99139285Y-65540000D01*
X99282142Y-65682857D01*
X99425000Y-65968571D01*
X99425000Y-66825714D01*
X99282142Y-67111428D01*
X99139285Y-67254285D01*
X98853571Y-67397142D01*
X98282142Y-67397142D01*
X97996428Y-67254285D01*
X101853571Y-67254285D02*
X101567857Y-67397142D01*
X100996428Y-67397142D01*
X100710714Y-67254285D01*
X100567857Y-66968571D01*
X100567857Y-65825714D01*
X100710714Y-65540000D01*
X100996428Y-65397142D01*
X101567857Y-65397142D01*
X101853571Y-65540000D01*
X101996428Y-65825714D01*
X101996428Y-66111428D01*
X100567857Y-66397142D01*
X105425000Y-66540000D02*
X106853571Y-66540000D01*
X105139285Y-67397142D02*
X106139285Y-64397142D01*
X107139285Y-67397142D01*
X63540714Y-88987142D02*
X63540714Y-86987142D01*
X63540714Y-85987142D02*
X63397857Y-86130000D01*
X63540714Y-86272857D01*
X63683571Y-86130000D01*
X63540714Y-85987142D01*
X63540714Y-86272857D01*
X64969285Y-86987142D02*
X64969285Y-88987142D01*
X64969285Y-87272857D02*
X65112142Y-87130000D01*
X65397857Y-86987142D01*
X65826428Y-86987142D01*
X66112142Y-87130000D01*
X66254999Y-87415714D01*
X66254999Y-88987142D01*
X67397857Y-86987142D02*
X68112142Y-88987142D01*
X68826428Y-86987142D01*
X71112142Y-88844285D02*
X70826428Y-88987142D01*
X70255000Y-88987142D01*
X69969285Y-88844285D01*
X69826428Y-88558571D01*
X69826428Y-87415714D01*
X69969285Y-87130000D01*
X70255000Y-86987142D01*
X70826428Y-86987142D01*
X71112142Y-87130000D01*
X71255000Y-87415714D01*
X71255000Y-87701428D01*
X69826428Y-87987142D01*
X72540714Y-88987142D02*
X72540714Y-86987142D01*
X72540714Y-87558571D02*
X72683571Y-87272857D01*
X72826428Y-87130000D01*
X73112142Y-86987142D01*
X73397857Y-86987142D01*
X73969285Y-86987142D02*
X75112142Y-86987142D01*
X74397857Y-85987142D02*
X74397857Y-88558571D01*
X74540714Y-88844285D01*
X74826428Y-88987142D01*
X75112142Y-88987142D01*
X79397857Y-87415714D02*
X79826428Y-87558571D01*
X79969285Y-87701428D01*
X80112142Y-87987142D01*
X80112142Y-88415714D01*
X79969285Y-88701428D01*
X79826428Y-88844285D01*
X79540714Y-88987142D01*
X78397857Y-88987142D01*
X78397857Y-85987142D01*
X79397857Y-85987142D01*
X79683571Y-86130000D01*
X79826428Y-86272857D01*
X79969285Y-86558571D01*
X79969285Y-86844285D01*
X79826428Y-87130000D01*
X79683571Y-87272857D01*
X79397857Y-87415714D01*
X78397857Y-87415714D01*
D11*
X76301190Y-84724761D02*
X76301190Y-83391428D01*
X76301190Y-82724761D02*
X76205952Y-82820000D01*
X76301190Y-82915238D01*
X76396428Y-82820000D01*
X76301190Y-82724761D01*
X76301190Y-82915238D01*
X77253571Y-83391428D02*
X77253571Y-84724761D01*
X77253571Y-83581904D02*
X77348809Y-83486666D01*
X77539285Y-83391428D01*
X77825000Y-83391428D01*
X78015476Y-83486666D01*
X78110714Y-83677142D01*
X78110714Y-84724761D01*
X78872619Y-83391428D02*
X79348809Y-84724761D01*
X79825000Y-83391428D01*
X76301190Y-75771428D02*
X76301190Y-77104761D01*
X76301190Y-75961904D02*
X76396428Y-75866666D01*
X76586904Y-75771428D01*
X76872619Y-75771428D01*
X77063095Y-75866666D01*
X77158333Y-76057142D01*
X77158333Y-77104761D01*
X78396428Y-77104761D02*
X78205952Y-77009523D01*
X78110714Y-76914285D01*
X78015476Y-76723809D01*
X78015476Y-76152380D01*
X78110714Y-75961904D01*
X78205952Y-75866666D01*
X78396428Y-75771428D01*
X78682142Y-75771428D01*
X78872619Y-75866666D01*
X78967857Y-75961904D01*
X79063095Y-76152380D01*
X79063095Y-76723809D01*
X78967857Y-76914285D01*
X78872619Y-77009523D01*
X78682142Y-77104761D01*
X78396428Y-77104761D01*
X79920238Y-77104761D02*
X79920238Y-75771428D01*
X79920238Y-76152380D02*
X80015476Y-75961904D01*
X80110714Y-75866666D01*
X80301190Y-75771428D01*
X80491666Y-75771428D01*
X81158333Y-77104761D02*
X81158333Y-75771428D01*
X81158333Y-75961904D02*
X81253571Y-75866666D01*
X81444047Y-75771428D01*
X81729761Y-75771428D01*
X81920238Y-75866666D01*
X82015476Y-76057142D01*
X82015476Y-77104761D01*
X82015476Y-76057142D02*
X82110714Y-75866666D01*
X82301190Y-75771428D01*
X82586904Y-75771428D01*
X82777380Y-75866666D01*
X82872619Y-76057142D01*
X82872619Y-77104761D01*
X77158333Y-63134761D02*
X77158333Y-62087142D01*
X77063095Y-61896666D01*
X76872619Y-61801428D01*
X76491666Y-61801428D01*
X76301190Y-61896666D01*
X77158333Y-63039523D02*
X76967857Y-63134761D01*
X76491666Y-63134761D01*
X76301190Y-63039523D01*
X76205952Y-62849047D01*
X76205952Y-62658571D01*
X76301190Y-62468095D01*
X76491666Y-62372857D01*
X76967857Y-62372857D01*
X77158333Y-62277619D01*
X78967857Y-63134761D02*
X78967857Y-61134761D01*
X78967857Y-63039523D02*
X78777380Y-63134761D01*
X78396428Y-63134761D01*
X78205952Y-63039523D01*
X78110714Y-62944285D01*
X78015476Y-62753809D01*
X78015476Y-62182380D01*
X78110714Y-61991904D01*
X78205952Y-61896666D01*
X78396428Y-61801428D01*
X78777380Y-61801428D01*
X78967857Y-61896666D01*
X80777380Y-63134761D02*
X80777380Y-61134761D01*
X80777380Y-63039523D02*
X80586904Y-63134761D01*
X80205952Y-63134761D01*
X80015476Y-63039523D01*
X79920238Y-62944285D01*
X79825000Y-62753809D01*
X79825000Y-62182380D01*
X79920238Y-61991904D01*
X80015476Y-61896666D01*
X80205952Y-61801428D01*
X80586904Y-61801428D01*
X80777380Y-61896666D01*
X76395952Y-59039523D02*
X76586428Y-59134761D01*
X76967380Y-59134761D01*
X77157857Y-59039523D01*
X77253095Y-58849047D01*
X77253095Y-58753809D01*
X77157857Y-58563333D01*
X76967380Y-58468095D01*
X76681666Y-58468095D01*
X76491190Y-58372857D01*
X76395952Y-58182380D01*
X76395952Y-58087142D01*
X76491190Y-57896666D01*
X76681666Y-57801428D01*
X76967380Y-57801428D01*
X77157857Y-57896666D01*
X77919761Y-57801428D02*
X78395952Y-59134761D01*
X78872142Y-57801428D02*
X78395952Y-59134761D01*
X78205476Y-59610952D01*
X78110238Y-59706190D01*
X77919761Y-59801428D01*
X79634047Y-57801428D02*
X79634047Y-59134761D01*
X79634047Y-57991904D02*
X79729285Y-57896666D01*
X79919761Y-57801428D01*
X80205476Y-57801428D01*
X80395952Y-57896666D01*
X80491190Y-58087142D01*
X80491190Y-59134761D01*
X82300714Y-59039523D02*
X82110238Y-59134761D01*
X81729285Y-59134761D01*
X81538809Y-59039523D01*
X81443571Y-58944285D01*
X81348333Y-58753809D01*
X81348333Y-58182380D01*
X81443571Y-57991904D01*
X81538809Y-57896666D01*
X81729285Y-57801428D01*
X82110238Y-57801428D01*
X82300714Y-57896666D01*
X84395952Y-57801428D02*
X85157857Y-57801428D01*
X84681666Y-57134761D02*
X84681666Y-58849047D01*
X84776904Y-59039523D01*
X84967380Y-59134761D01*
X85157857Y-59134761D01*
X86110238Y-59134761D02*
X85919761Y-59039523D01*
X85824523Y-58944285D01*
X85729285Y-58753809D01*
X85729285Y-58182380D01*
X85824523Y-57991904D01*
X85919761Y-57896666D01*
X86110238Y-57801428D01*
X86395952Y-57801428D01*
X86586428Y-57896666D01*
X86681666Y-57991904D01*
X86776904Y-58182380D01*
X86776904Y-58753809D01*
X86681666Y-58944285D01*
X86586428Y-59039523D01*
X86395952Y-59134761D01*
X86110238Y-59134761D01*
X89062619Y-58563333D02*
X90015000Y-58563333D01*
X88872142Y-59134761D02*
X89538809Y-57134761D01*
X90205476Y-59134761D01*
X76301190Y-54181428D02*
X76301190Y-55514761D01*
X76301190Y-54371904D02*
X76396428Y-54276666D01*
X76586904Y-54181428D01*
X76872619Y-54181428D01*
X77063095Y-54276666D01*
X77158333Y-54467142D01*
X77158333Y-55514761D01*
X78396428Y-55514761D02*
X78205952Y-55419523D01*
X78110714Y-55324285D01*
X78015476Y-55133809D01*
X78015476Y-54562380D01*
X78110714Y-54371904D01*
X78205952Y-54276666D01*
X78396428Y-54181428D01*
X78682142Y-54181428D01*
X78872619Y-54276666D01*
X78967857Y-54371904D01*
X79063095Y-54562380D01*
X79063095Y-55133809D01*
X78967857Y-55324285D01*
X78872619Y-55419523D01*
X78682142Y-55514761D01*
X78396428Y-55514761D01*
X79920238Y-55514761D02*
X79920238Y-54181428D01*
X79920238Y-54562380D02*
X80015476Y-54371904D01*
X80110714Y-54276666D01*
X80301190Y-54181428D01*
X80491666Y-54181428D01*
X81158333Y-55514761D02*
X81158333Y-54181428D01*
X81158333Y-54371904D02*
X81253571Y-54276666D01*
X81444047Y-54181428D01*
X81729761Y-54181428D01*
X81920238Y-54276666D01*
X82015476Y-54467142D01*
X82015476Y-55514761D01*
X82015476Y-54467142D02*
X82110714Y-54276666D01*
X82301190Y-54181428D01*
X82586904Y-54181428D01*
X82777380Y-54276666D01*
X82872619Y-54467142D01*
X82872619Y-55514761D01*
D10*
X116452142Y-67254285D02*
X116737857Y-67397142D01*
X117309285Y-67397142D01*
X117595000Y-67254285D01*
X117737857Y-66968571D01*
X117737857Y-66825714D01*
X117595000Y-66540000D01*
X117309285Y-66397142D01*
X116880714Y-66397142D01*
X116595000Y-66254285D01*
X116452142Y-65968571D01*
X116452142Y-65825714D01*
X116595000Y-65540000D01*
X116880714Y-65397142D01*
X117309285Y-65397142D01*
X117595000Y-65540000D01*
X119023571Y-67397142D02*
X119023571Y-64397142D01*
X120309285Y-67397142D02*
X120309285Y-65825714D01*
X120166428Y-65540000D01*
X119880714Y-65397142D01*
X119452142Y-65397142D01*
X119166428Y-65540000D01*
X119023571Y-65682857D01*
X123023571Y-67397142D02*
X123023571Y-65825714D01*
X122880714Y-65540000D01*
X122595000Y-65397142D01*
X122023571Y-65397142D01*
X121737857Y-65540000D01*
X123023571Y-67254285D02*
X122737857Y-67397142D01*
X122023571Y-67397142D01*
X121737857Y-67254285D01*
X121595000Y-66968571D01*
X121595000Y-66682857D01*
X121737857Y-66397142D01*
X122023571Y-66254285D01*
X122737857Y-66254285D01*
X123023571Y-66111428D01*
X124452142Y-65397142D02*
X124452142Y-68397142D01*
X124452142Y-65540000D02*
X124737857Y-65397142D01*
X125309285Y-65397142D01*
X125595000Y-65540000D01*
X125737857Y-65682857D01*
X125880714Y-65968571D01*
X125880714Y-66825714D01*
X125737857Y-67111428D01*
X125595000Y-67254285D01*
X125309285Y-67397142D01*
X124737857Y-67397142D01*
X124452142Y-67254285D01*
X128309285Y-67254285D02*
X128023571Y-67397142D01*
X127452142Y-67397142D01*
X127166428Y-67254285D01*
X127023571Y-66968571D01*
X127023571Y-65825714D01*
X127166428Y-65540000D01*
X127452142Y-65397142D01*
X128023571Y-65397142D01*
X128309285Y-65540000D01*
X128452142Y-65825714D01*
X128452142Y-66111428D01*
X127023571Y-66397142D01*
X133023571Y-65825714D02*
X133452142Y-65968571D01*
X133595000Y-66111428D01*
X133737857Y-66397142D01*
X133737857Y-66825714D01*
X133595000Y-67111428D01*
X133452142Y-67254285D01*
X133166428Y-67397142D01*
X132023571Y-67397142D01*
X132023571Y-64397142D01*
X133023571Y-64397142D01*
X133309285Y-64540000D01*
X133452142Y-64682857D01*
X133595000Y-64968571D01*
X133595000Y-65254285D01*
X133452142Y-65540000D01*
X133309285Y-65682857D01*
X133023571Y-65825714D01*
X132023571Y-65825714D01*
X66469285Y-67397142D02*
X66469285Y-65397142D01*
X66469285Y-65682857D02*
X66612142Y-65540000D01*
X66897857Y-65397142D01*
X67326428Y-65397142D01*
X67612142Y-65540000D01*
X67755000Y-65825714D01*
X67755000Y-67397142D01*
X67755000Y-65825714D02*
X67897857Y-65540000D01*
X68183571Y-65397142D01*
X68612142Y-65397142D01*
X68897857Y-65540000D01*
X69040714Y-65825714D01*
X69040714Y-67397142D01*
X70897857Y-67397142D02*
X70612142Y-67254285D01*
X70469285Y-67111428D01*
X70326428Y-66825714D01*
X70326428Y-65968571D01*
X70469285Y-65682857D01*
X70612142Y-65540000D01*
X70897857Y-65397142D01*
X71326428Y-65397142D01*
X71612142Y-65540000D01*
X71755000Y-65682857D01*
X71897857Y-65968571D01*
X71897857Y-66825714D01*
X71755000Y-67111428D01*
X71612142Y-67254285D01*
X71326428Y-67397142D01*
X70897857Y-67397142D01*
X74469285Y-67397142D02*
X74469285Y-64397142D01*
X74469285Y-67254285D02*
X74183571Y-67397142D01*
X73612142Y-67397142D01*
X73326428Y-67254285D01*
X73183571Y-67111428D01*
X73040714Y-66825714D01*
X73040714Y-65968571D01*
X73183571Y-65682857D01*
X73326428Y-65540000D01*
X73612142Y-65397142D01*
X74183571Y-65397142D01*
X74469285Y-65540000D01*
X77040714Y-67254285D02*
X76755000Y-67397142D01*
X76183571Y-67397142D01*
X75897857Y-67254285D01*
X75755000Y-66968571D01*
X75755000Y-65825714D01*
X75897857Y-65540000D01*
X76183571Y-65397142D01*
X76755000Y-65397142D01*
X77040714Y-65540000D01*
X77183571Y-65825714D01*
X77183571Y-66111428D01*
X75755000Y-66397142D01*
%LPC*%
D12*
X135682056Y-13542944D03*
X133985000Y-12840000D03*
X132287944Y-13542944D03*
X131585000Y-15240000D03*
X132287944Y-16937056D03*
X133985000Y-17640000D03*
X135682056Y-16937056D03*
X136385000Y-15240000D03*
D13*
X133985000Y-15240000D03*
D12*
X8682056Y-13542944D03*
X6985000Y-12840000D03*
X5287944Y-13542944D03*
X4585000Y-15240000D03*
X5287944Y-16937056D03*
X6985000Y-17640000D03*
X8682056Y-16937056D03*
X9385000Y-15240000D03*
D13*
X6985000Y-15240000D03*
M02*
