%FSLAX45Y45*%
G04 Gerber Fmt 4.5, Leading zero omitted, Abs format (unit mm)*
G04 Created by KiCad (PCBNEW 6.0.6-3a73a75311~116~ubuntu22.04.1) date 2022-07-27 16:16:01*
%MOMM*%
%LPD*%
G01*
G04 APERTURE LIST*
%TA.AperFunction,Profile*%
%ADD10C,0.050000*%
%TD*%
%ADD11C,0.200000*%
%ADD12C,0.040000*%
G04 APERTURE END LIST*
D10*
X7772400Y-8153400D02*
X20472400Y-8153400D01*
X20980400Y-8661400D02*
G75*
G03*
X20472400Y-8153400I-508000J0D01*
G01*
X7264400Y-10668000D02*
G75*
G03*
X7772400Y-11176000I508000J0D01*
G01*
X18407000Y-9652000D02*
G75*
G03*
X18407000Y-9652000I-500000J0D01*
G01*
X16413100Y-9502140D02*
G75*
G03*
X16413100Y-9502140I-500000J0D01*
G01*
X7264400Y-10668000D02*
X7264400Y-8661400D01*
X9390000Y-9652000D02*
G75*
G03*
X9390000Y-9652000I-500000J0D01*
G01*
X20980400Y-8661400D02*
X20980400Y-10668000D01*
X7772400Y-8153400D02*
G75*
G03*
X7264400Y-8661400I0J-508000D01*
G01*
X20472400Y-11176000D02*
X7772400Y-11176000D01*
X20472400Y-11176000D02*
G75*
G03*
X20980400Y-10668000I0J508000D01*
G01*
X20185000Y-9652000D02*
G75*
G03*
X20185000Y-9652000I-500000J0D01*
G01*
X11168000Y-9652000D02*
G75*
G03*
X11168000Y-9652000I-500000J0D01*
G01*
X14724000Y-9652000D02*
G75*
G03*
X14724000Y-9652000I-500000J0D01*
G01*
X12946000Y-9652000D02*
G75*
G03*
X12946000Y-9652000I-500000J0D01*
G01*
D11*
D12*
X15893100Y-10775000D02*
X15933100Y-10815000D01*
X15933100Y-10775000D02*
X15893100Y-10815000D01*
D11*
X7519519Y-11488976D02*
X7519519Y-11288976D01*
X7567138Y-11288976D01*
X7595709Y-11298500D01*
X7614757Y-11317548D01*
X7624281Y-11336595D01*
X7633805Y-11374690D01*
X7633805Y-11403262D01*
X7624281Y-11441357D01*
X7614757Y-11460405D01*
X7595709Y-11479452D01*
X7567138Y-11488976D01*
X7519519Y-11488976D01*
X7719519Y-11488976D02*
X7719519Y-11355643D01*
X7719519Y-11393738D02*
X7729043Y-11374690D01*
X7738567Y-11365167D01*
X7757614Y-11355643D01*
X7776662Y-11355643D01*
X7843328Y-11488976D02*
X7843328Y-11355643D01*
X7843328Y-11288976D02*
X7833805Y-11298500D01*
X7843328Y-11308024D01*
X7852852Y-11298500D01*
X7843328Y-11288976D01*
X7843328Y-11308024D01*
X7967138Y-11488976D02*
X7948090Y-11479452D01*
X7938567Y-11460405D01*
X7938567Y-11288976D01*
X8071900Y-11488976D02*
X8052852Y-11479452D01*
X8043328Y-11460405D01*
X8043328Y-11288976D01*
X8300471Y-11488976D02*
X8300471Y-11288976D01*
X8367138Y-11431833D01*
X8433805Y-11288976D01*
X8433805Y-11488976D01*
X8614757Y-11488976D02*
X8614757Y-11384214D01*
X8605233Y-11365167D01*
X8586186Y-11355643D01*
X8548090Y-11355643D01*
X8529043Y-11365167D01*
X8614757Y-11479452D02*
X8595710Y-11488976D01*
X8548090Y-11488976D01*
X8529043Y-11479452D01*
X8519519Y-11460405D01*
X8519519Y-11441357D01*
X8529043Y-11422309D01*
X8548090Y-11412786D01*
X8595710Y-11412786D01*
X8614757Y-11403262D01*
X8709995Y-11355643D02*
X8709995Y-11555643D01*
X8709995Y-11365167D02*
X8729043Y-11355643D01*
X8767138Y-11355643D01*
X8786186Y-11365167D01*
X8795710Y-11374690D01*
X8805233Y-11393738D01*
X8805233Y-11450881D01*
X8795710Y-11469928D01*
X8786186Y-11479452D01*
X8767138Y-11488976D01*
X8729043Y-11488976D01*
X8709995Y-11479452D01*
X8890948Y-11469928D02*
X8900471Y-11479452D01*
X8890948Y-11488976D01*
X8881424Y-11479452D01*
X8890948Y-11469928D01*
X8890948Y-11488976D01*
X8890948Y-11365167D02*
X8900471Y-11374690D01*
X8890948Y-11384214D01*
X8881424Y-11374690D01*
X8890948Y-11365167D01*
X8890948Y-11384214D01*
D12*
X7221900Y-11798500D02*
X7261900Y-11838500D01*
X7261900Y-11798500D02*
X7221900Y-11838500D01*
D11*
X7557614Y-11708976D02*
X7576662Y-11708976D01*
X7595709Y-11718500D01*
X7605233Y-11728024D01*
X7614757Y-11747071D01*
X7624281Y-11785167D01*
X7624281Y-11832786D01*
X7614757Y-11870881D01*
X7605233Y-11889928D01*
X7595709Y-11899452D01*
X7576662Y-11908976D01*
X7557614Y-11908976D01*
X7538567Y-11899452D01*
X7529043Y-11889928D01*
X7519519Y-11870881D01*
X7509995Y-11832786D01*
X7509995Y-11785167D01*
X7519519Y-11747071D01*
X7529043Y-11728024D01*
X7538567Y-11718500D01*
X7557614Y-11708976D01*
X7709995Y-11889928D02*
X7719519Y-11899452D01*
X7709995Y-11908976D01*
X7700471Y-11899452D01*
X7709995Y-11889928D01*
X7709995Y-11908976D01*
X7890948Y-11775643D02*
X7890948Y-11908976D01*
X7843328Y-11699452D02*
X7795709Y-11842309D01*
X7919519Y-11842309D01*
X8033805Y-11708976D02*
X8052852Y-11708976D01*
X8071900Y-11718500D01*
X8081424Y-11728024D01*
X8090948Y-11747071D01*
X8100471Y-11785167D01*
X8100471Y-11832786D01*
X8090948Y-11870881D01*
X8081424Y-11889928D01*
X8071900Y-11899452D01*
X8052852Y-11908976D01*
X8033805Y-11908976D01*
X8014757Y-11899452D01*
X8005233Y-11889928D01*
X7995709Y-11870881D01*
X7986186Y-11832786D01*
X7986186Y-11785167D01*
X7995709Y-11747071D01*
X8005233Y-11728024D01*
X8014757Y-11718500D01*
X8033805Y-11708976D01*
X8224281Y-11708976D02*
X8243328Y-11708976D01*
X8262376Y-11718500D01*
X8271900Y-11728024D01*
X8281424Y-11747071D01*
X8290948Y-11785167D01*
X8290948Y-11832786D01*
X8281424Y-11870881D01*
X8271900Y-11889928D01*
X8262376Y-11899452D01*
X8243328Y-11908976D01*
X8224281Y-11908976D01*
X8205233Y-11899452D01*
X8195709Y-11889928D01*
X8186186Y-11870881D01*
X8176662Y-11832786D01*
X8176662Y-11785167D01*
X8186186Y-11747071D01*
X8195709Y-11728024D01*
X8205233Y-11718500D01*
X8224281Y-11708976D01*
X8376662Y-11908976D02*
X8376662Y-11775643D01*
X8376662Y-11794690D02*
X8386186Y-11785167D01*
X8405233Y-11775643D01*
X8433805Y-11775643D01*
X8452852Y-11785167D01*
X8462376Y-11804214D01*
X8462376Y-11908976D01*
X8462376Y-11804214D02*
X8471900Y-11785167D01*
X8490948Y-11775643D01*
X8519519Y-11775643D01*
X8538567Y-11785167D01*
X8548090Y-11804214D01*
X8548090Y-11908976D01*
X8643329Y-11908976D02*
X8643329Y-11775643D01*
X8643329Y-11794690D02*
X8652852Y-11785167D01*
X8671900Y-11775643D01*
X8700471Y-11775643D01*
X8719519Y-11785167D01*
X8729043Y-11804214D01*
X8729043Y-11908976D01*
X8729043Y-11804214D02*
X8738567Y-11785167D01*
X8757614Y-11775643D01*
X8786186Y-11775643D01*
X8805233Y-11785167D01*
X8814757Y-11804214D01*
X8814757Y-11908976D01*
X9205233Y-11699452D02*
X9033805Y-11956595D01*
X9462376Y-11708976D02*
X9481424Y-11708976D01*
X9500471Y-11718500D01*
X9509995Y-11728024D01*
X9519519Y-11747071D01*
X9529043Y-11785167D01*
X9529043Y-11832786D01*
X9519519Y-11870881D01*
X9509995Y-11889928D01*
X9500471Y-11899452D01*
X9481424Y-11908976D01*
X9462376Y-11908976D01*
X9443329Y-11899452D01*
X9433805Y-11889928D01*
X9424281Y-11870881D01*
X9414757Y-11832786D01*
X9414757Y-11785167D01*
X9424281Y-11747071D01*
X9433805Y-11728024D01*
X9443329Y-11718500D01*
X9462376Y-11708976D01*
X9614757Y-11889928D02*
X9624281Y-11899452D01*
X9614757Y-11908976D01*
X9605233Y-11899452D01*
X9614757Y-11889928D01*
X9614757Y-11908976D01*
X9748090Y-11708976D02*
X9767138Y-11708976D01*
X9786186Y-11718500D01*
X9795710Y-11728024D01*
X9805233Y-11747071D01*
X9814757Y-11785167D01*
X9814757Y-11832786D01*
X9805233Y-11870881D01*
X9795710Y-11889928D01*
X9786186Y-11899452D01*
X9767138Y-11908976D01*
X9748090Y-11908976D01*
X9729043Y-11899452D01*
X9719519Y-11889928D01*
X9709995Y-11870881D01*
X9700471Y-11832786D01*
X9700471Y-11785167D01*
X9709995Y-11747071D01*
X9719519Y-11728024D01*
X9729043Y-11718500D01*
X9748090Y-11708976D01*
X10005233Y-11908976D02*
X9890948Y-11908976D01*
X9948090Y-11908976D02*
X9948090Y-11708976D01*
X9929043Y-11737548D01*
X9909995Y-11756595D01*
X9890948Y-11766119D01*
X10186186Y-11708976D02*
X10090948Y-11708976D01*
X10081424Y-11804214D01*
X10090948Y-11794690D01*
X10109995Y-11785167D01*
X10157614Y-11785167D01*
X10176662Y-11794690D01*
X10186186Y-11804214D01*
X10195710Y-11823262D01*
X10195710Y-11870881D01*
X10186186Y-11889928D01*
X10176662Y-11899452D01*
X10157614Y-11908976D01*
X10109995Y-11908976D01*
X10090948Y-11899452D01*
X10081424Y-11889928D01*
X10262376Y-11708976D02*
X10395710Y-11708976D01*
X10309995Y-11908976D01*
X10462376Y-11708976D02*
X10462376Y-11747071D01*
X10538567Y-11708976D02*
X10538567Y-11747071D01*
X10833805Y-11985167D02*
X10824281Y-11975643D01*
X10805233Y-11947071D01*
X10795710Y-11928024D01*
X10786186Y-11899452D01*
X10776662Y-11851833D01*
X10776662Y-11813738D01*
X10786186Y-11766119D01*
X10795710Y-11737548D01*
X10805233Y-11718500D01*
X10824281Y-11689928D01*
X10833805Y-11680405D01*
X11014757Y-11908976D02*
X10900471Y-11908976D01*
X10957614Y-11908976D02*
X10957614Y-11708976D01*
X10938567Y-11737548D01*
X10919519Y-11756595D01*
X10900471Y-11766119D01*
X11252852Y-11908976D02*
X11252852Y-11708976D01*
X11338567Y-11908976D02*
X11338567Y-11804214D01*
X11329043Y-11785167D01*
X11309995Y-11775643D01*
X11281424Y-11775643D01*
X11262376Y-11785167D01*
X11252852Y-11794690D01*
X11462376Y-11908976D02*
X11443328Y-11899452D01*
X11433805Y-11889928D01*
X11424281Y-11870881D01*
X11424281Y-11813738D01*
X11433805Y-11794690D01*
X11443328Y-11785167D01*
X11462376Y-11775643D01*
X11490948Y-11775643D01*
X11509995Y-11785167D01*
X11519519Y-11794690D01*
X11529043Y-11813738D01*
X11529043Y-11870881D01*
X11519519Y-11889928D01*
X11509995Y-11899452D01*
X11490948Y-11908976D01*
X11462376Y-11908976D01*
X11643328Y-11908976D02*
X11624281Y-11899452D01*
X11614757Y-11880405D01*
X11614757Y-11708976D01*
X11795709Y-11899452D02*
X11776662Y-11908976D01*
X11738567Y-11908976D01*
X11719519Y-11899452D01*
X11709995Y-11880405D01*
X11709995Y-11804214D01*
X11719519Y-11785167D01*
X11738567Y-11775643D01*
X11776662Y-11775643D01*
X11795709Y-11785167D01*
X11805233Y-11804214D01*
X11805233Y-11823262D01*
X11709995Y-11842309D01*
X11871900Y-11985167D02*
X11881424Y-11975643D01*
X11900471Y-11947071D01*
X11909995Y-11928024D01*
X11919519Y-11899452D01*
X11929043Y-11851833D01*
X11929043Y-11813738D01*
X11919519Y-11766119D01*
X11909995Y-11737548D01*
X11900471Y-11718500D01*
X11881424Y-11689928D01*
X11871900Y-11680405D01*
M02*
