  0
SECTION
  2
HEADER
  9
$ANGBASE
  50
0.0
  9
$ANGDIR
  70
1
  9
$MEASUREMENT
  70
1
  0
ENDSEC
  0
SECTION
  2
TABLES
  0
TABLE
  2
LTYPE
  70
4
  0
LTYPE
  5
40F
  2
CONTINUOUS
  70
0
  3
Solid line
  72
65
  73
0
  40
0.0
  0
LTYPE
  5
410
  2
DASHDOT
 70
0
  3
Dash Dot ____ _ ____ _
 72
65
 73
4
 40
2.0
 49
1.25
 49
-0.25
 49
0.25
 49
-0.25
  0
LTYPE
  5
411
  2
DASHED
 70
0
  3
Dashed __ __ __ __ __
 72
65
 73
2
 40
0.75
 49
0.5
 49
-0.25
  0
LTYPE
  5
43B
  2
DOTTED
 70
0
  3
Dotted .  .  .  .
 72
65
 73
2
 40
0.2
 49
0.0
 49
-0.2
  0
ENDTAB
  0
TABLE
  2
STYLE
  70
4
  0
STYLE
  2
KICAD
  70
0
  40
0
  41
1
  42
1
  50
0
  71
0
  3
isocp.shx
  0
STYLE
  2
KICADB
  70
0
  40
0
  41
1
  42
1
  50
0
  71
0
  3
isocp.shx
  0
STYLE
  2
KICADI
  70
0
  40
0
  41
1
  42
1
  50
15
  71
0
  3
isocp.shx
  0
STYLE
  2
KICADBI
  70
0
  40
0
  41
1
  42
1
  50
15
  71
0
  3
isocp.shx
  0
ENDTAB
  0
TABLE
  2
LAYER
  70
1
  0
LAYER
  2
BLACK
  70
0
  62
7
  6
CONTINUOUS
  0
ENDTAB
  0
ENDSEC
  0
SECTION
  2
ENTITIES
0
LINE
8
BLACK
6
CONTINUOUS
10
77.3024
20
-111.768
11
76.8837
21
-111.715
0
LINE
8
BLACK
6
CONTINUOUS
10
76.8837
20
-111.715
11
76.4708
21
-111.629
0
LINE
8
BLACK
6
CONTINUOUS
10
76.4708
20
-111.629
11
76.0664
21
-111.508
0
LINE
8
BLACK
6
CONTINUOUS
10
76.0664
20
-111.508
11
75.6733
21
-111.355
0
LINE
8
BLACK
6
CONTINUOUS
10
75.6733
20
-111.355
11
75.2943
21
-111.17
0
LINE
8
BLACK
6
CONTINUOUS
10
75.2943
20
-111.17
11
74.9318
21
-110.954
0
LINE
8
BLACK
6
CONTINUOUS
10
74.9318
20
-110.954
11
74.5884
21
-110.709
0
LINE
8
BLACK
6
CONTINUOUS
10
74.5884
20
-110.709
11
74.2665
21
-110.436
0
LINE
8
BLACK
6
CONTINUOUS
10
74.2665
20
-110.436
11
73.9681
21
-110.138
0
LINE
8
BLACK
6
CONTINUOUS
10
73.9681
20
-110.138
11
73.6954
21
-109.816
0
LINE
8
BLACK
6
CONTINUOUS
10
73.6954
20
-109.816
11
73.4503
21
-109.472
0
LINE
8
BLACK
6
CONTINUOUS
10
73.4503
20
-109.472
11
73.2343
21
-109.11
0
LINE
8
BLACK
6
CONTINUOUS
10
73.2343
20
-109.11
11
73.049
21
-108.731
0
LINE
8
BLACK
6
CONTINUOUS
10
73.049
20
-108.731
11
72.8956
21
-108.338
0
LINE
8
BLACK
6
CONTINUOUS
10
72.8956
20
-108.338
11
72.7752
21
-107.933
0
LINE
8
BLACK
6
CONTINUOUS
10
72.7752
20
-107.933
11
72.6886
21
-107.52
0
LINE
8
BLACK
6
CONTINUOUS
10
72.6886
20
-107.52
11
72.6364
21
-107.102
0
LINE
8
BLACK
6
CONTINUOUS
10
72.6364
20
-107.102
11
72.619
21
-106.68
0
LINE
8
BLACK
6
CONTINUOUS
10
72.619
20
-106.68
11
72.619
21
-86.614
0
LINE
8
BLACK
6
CONTINUOUS
10
72.619
20
-86.614
11
72.6364
21
-86.1924
0
LINE
8
BLACK
6
CONTINUOUS
10
72.6364
20
-86.1924
11
72.6886
21
-85.7737
0
LINE
8
BLACK
6
CONTINUOUS
10
72.6886
20
-85.7737
11
72.7752
21
-85.3608
0
LINE
8
BLACK
6
CONTINUOUS
10
72.7752
20
-85.3608
11
72.8956
21
-84.9564
0
LINE
8
BLACK
6
CONTINUOUS
10
72.8956
20
-84.9564
11
73.049
21
-84.5633
0
LINE
8
BLACK
6
CONTINUOUS
10
73.049
20
-84.5633
11
73.2343
21
-84.1843
0
LINE
8
BLACK
6
CONTINUOUS
10
73.2343
20
-84.1843
11
73.4503
21
-83.8218
0
LINE
8
BLACK
6
CONTINUOUS
10
73.4503
20
-83.8218
11
73.6954
21
-83.4784
0
LINE
8
BLACK
6
CONTINUOUS
10
73.6954
20
-83.4784
11
73.9681
21
-83.1565
0
LINE
8
BLACK
6
CONTINUOUS
10
73.9681
20
-83.1565
11
74.2665
21
-82.8581
0
LINE
8
BLACK
6
CONTINUOUS
10
74.2665
20
-82.8581
11
74.5884
21
-82.5854
0
LINE
8
BLACK
6
CONTINUOUS
10
74.5884
20
-82.5854
11
74.9318
21
-82.3403
0
LINE
8
BLACK
6
CONTINUOUS
10
74.9318
20
-82.3403
11
75.2943
21
-82.1243
0
LINE
8
BLACK
6
CONTINUOUS
10
75.2943
20
-82.1243
11
75.6733
21
-81.939
0
LINE
8
BLACK
6
CONTINUOUS
10
75.6733
20
-81.939
11
76.0664
21
-81.7856
0
LINE
8
BLACK
6
CONTINUOUS
10
76.0664
20
-81.7856
11
76.4708
21
-81.6652
0
LINE
8
BLACK
6
CONTINUOUS
10
76.4708
20
-81.6652
11
76.8837
21
-81.5786
0
LINE
8
BLACK
6
CONTINUOUS
10
76.8837
20
-81.5786
11
77.3024
21
-81.5264
0
LINE
8
BLACK
6
CONTINUOUS
10
77.3024
20
-81.5264
11
77.724
21
-81.509
0
LINE
8
BLACK
6
CONTINUOUS
10
77.724
20
-81.509
11
204.724
21
-81.509
0
LINE
8
BLACK
6
CONTINUOUS
10
204.724
20
-81.509
11
205.146
21
-81.5264
0
LINE
8
BLACK
6
CONTINUOUS
10
205.146
20
-81.5264
11
205.564
21
-81.5786
0
LINE
8
BLACK
6
CONTINUOUS
10
205.564
20
-81.5786
11
205.977
21
-81.6652
0
LINE
8
BLACK
6
CONTINUOUS
10
205.977
20
-81.6652
11
206.382
21
-81.7856
0
LINE
8
BLACK
6
CONTINUOUS
10
206.382
20
-81.7856
11
206.775
21
-81.939
0
LINE
8
BLACK
6
CONTINUOUS
10
206.775
20
-81.939
11
207.154
21
-82.1243
0
LINE
8
BLACK
6
CONTINUOUS
10
207.154
20
-82.1243
11
207.516
21
-82.3403
0
LINE
8
BLACK
6
CONTINUOUS
10
207.516
20
-82.3403
11
207.86
21
-82.5854
0
LINE
8
BLACK
6
CONTINUOUS
10
207.86
20
-82.5854
11
208.182
21
-82.8581
0
LINE
8
BLACK
6
CONTINUOUS
10
208.182
20
-82.8581
11
208.48
21
-83.1565
0
LINE
8
BLACK
6
CONTINUOUS
10
208.48
20
-83.1565
11
208.753
21
-83.4784
0
LINE
8
BLACK
6
CONTINUOUS
10
208.753
20
-83.4784
11
208.998
21
-83.8218
0
LINE
8
BLACK
6
CONTINUOUS
10
208.998
20
-83.8218
11
209.214
21
-84.1843
0
LINE
8
BLACK
6
CONTINUOUS
10
209.214
20
-84.1843
11
209.399
21
-84.5633
0
LINE
8
BLACK
6
CONTINUOUS
10
209.399
20
-84.5633
11
209.552
21
-84.9564
0
LINE
8
BLACK
6
CONTINUOUS
10
209.552
20
-84.9564
11
209.673
21
-85.3608
0
LINE
8
BLACK
6
CONTINUOUS
10
209.673
20
-85.3608
11
209.759
21
-85.7737
0
LINE
8
BLACK
6
CONTINUOUS
10
209.759
20
-85.7737
11
209.812
21
-86.1924
0
LINE
8
BLACK
6
CONTINUOUS
10
209.812
20
-86.1924
11
209.829
21
-86.614
0
LINE
8
BLACK
6
CONTINUOUS
10
209.829
20
-86.614
11
209.829
21
-106.68
0
LINE
8
BLACK
6
CONTINUOUS
10
209.829
20
-106.68
11
209.812
21
-107.102
0
LINE
8
BLACK
6
CONTINUOUS
10
209.812
20
-107.102
11
209.759
21
-107.52
0
LINE
8
BLACK
6
CONTINUOUS
10
209.759
20
-107.52
11
209.673
21
-107.933
0
LINE
8
BLACK
6
CONTINUOUS
10
209.673
20
-107.933
11
209.552
21
-108.338
0
LINE
8
BLACK
6
CONTINUOUS
10
209.552
20
-108.338
11
209.399
21
-108.731
0
LINE
8
BLACK
6
CONTINUOUS
10
209.399
20
-108.731
11
209.214
21
-109.11
0
LINE
8
BLACK
6
CONTINUOUS
10
209.214
20
-109.11
11
208.998
21
-109.472
0
LINE
8
BLACK
6
CONTINUOUS
10
208.998
20
-109.472
11
208.753
21
-109.816
0
LINE
8
BLACK
6
CONTINUOUS
10
208.753
20
-109.816
11
208.48
21
-110.138
0
LINE
8
BLACK
6
CONTINUOUS
10
208.48
20
-110.138
11
208.182
21
-110.436
0
LINE
8
BLACK
6
CONTINUOUS
10
208.182
20
-110.436
11
207.86
21
-110.709
0
LINE
8
BLACK
6
CONTINUOUS
10
207.86
20
-110.709
11
207.516
21
-110.954
0
LINE
8
BLACK
6
CONTINUOUS
10
207.516
20
-110.954
11
207.154
21
-111.17
0
LINE
8
BLACK
6
CONTINUOUS
10
207.154
20
-111.17
11
206.775
21
-111.355
0
LINE
8
BLACK
6
CONTINUOUS
10
206.775
20
-111.355
11
206.382
21
-111.508
0
LINE
8
BLACK
6
CONTINUOUS
10
206.382
20
-111.508
11
205.977
21
-111.629
0
LINE
8
BLACK
6
CONTINUOUS
10
205.977
20
-111.629
11
205.564
21
-111.715
0
LINE
8
BLACK
6
CONTINUOUS
10
205.564
20
-111.715
11
205.146
21
-111.768
0
LINE
8
BLACK
6
CONTINUOUS
10
205.146
20
-111.768
11
204.724
21
-111.785
0
LINE
8
BLACK
6
CONTINUOUS
10
204.724
20
-111.785
11
77.724
21
-111.785
0
LINE
8
BLACK
6
CONTINUOUS
10
77.724
20
-111.785
11
77.3024
21
-111.768
0
LINE
8
BLACK
6
CONTINUOUS
10
77.7145
20
-81.5551
11
77.3062
21
-81.572
0
LINE
8
BLACK
6
CONTINUOUS
10
77.3062
20
-81.572
11
76.8913
21
-81.6237
0
LINE
8
BLACK
6
CONTINUOUS
10
76.8913
20
-81.6237
11
76.482
21
-81.7095
0
LINE
8
BLACK
6
CONTINUOUS
10
76.482
20
-81.7095
11
76.0812
21
-81.8288
0
LINE
8
BLACK
6
CONTINUOUS
10
76.0812
20
-81.8288
11
75.6917
21
-81.9808
0
LINE
8
BLACK
6
CONTINUOUS
10
75.6917
20
-81.9808
11
75.316
21
-82.1645
0
LINE
8
BLACK
6
CONTINUOUS
10
75.316
20
-82.1645
11
74.9568
21
-82.3785
0
LINE
8
BLACK
6
CONTINUOUS
10
74.9568
20
-82.3785
11
74.6165
21
-82.6215
0
LINE
8
BLACK
6
CONTINUOUS
10
74.6165
20
-82.6215
11
74.2974
21
-82.8917
0
LINE
8
BLACK
6
CONTINUOUS
10
74.2974
20
-82.8917
11
74.0017
21
-83.1874
0
LINE
8
BLACK
6
CONTINUOUS
10
74.0017
20
-83.1874
11
73.7315
21
-83.5065
0
LINE
8
BLACK
6
CONTINUOUS
10
73.7315
20
-83.5065
11
73.4885
21
-83.8468
0
LINE
8
BLACK
6
CONTINUOUS
10
73.4885
20
-83.8468
11
73.2745
21
-84.206
0
LINE
8
BLACK
6
CONTINUOUS
10
73.2745
20
-84.206
11
73.0908
21
-84.5817
0
LINE
8
BLACK
6
CONTINUOUS
10
73.0908
20
-84.5817
11
72.9388
21
-84.9712
0
LINE
8
BLACK
6
CONTINUOUS
10
72.9388
20
-84.9712
11
72.8195
21
-85.372
0
LINE
8
BLACK
6
CONTINUOUS
10
72.8195
20
-85.372
11
72.7337
21
-85.7813
0
LINE
8
BLACK
6
CONTINUOUS
10
72.7337
20
-85.7813
11
72.682
21
-86.1962
0
LINE
8
BLACK
6
CONTINUOUS
10
72.682
20
-86.1962
11
72.6651
21
-86.6045
0
LINE
8
BLACK
6
CONTINUOUS
10
72.6651
20
-86.6045
11
72.669
21
-86.614
0
LINE
8
BLACK
6
CONTINUOUS
10
72.669
20
-86.614
11
72.669
21
-106.68
0
LINE
8
BLACK
6
CONTINUOUS
10
72.669
20
-106.68
11
72.6651
21
-106.689
0
LINE
8
BLACK
6
CONTINUOUS
10
72.6651
20
-106.689
11
72.682
21
-107.098
0
LINE
8
BLACK
6
CONTINUOUS
10
72.682
20
-107.098
11
72.7337
21
-107.513
0
LINE
8
BLACK
6
CONTINUOUS
10
72.7337
20
-107.513
11
72.8195
21
-107.922
0
LINE
8
BLACK
6
CONTINUOUS
10
72.8195
20
-107.922
11
72.9388
21
-108.323
0
LINE
8
BLACK
6
CONTINUOUS
10
72.9388
20
-108.323
11
73.0908
21
-108.712
0
LINE
8
BLACK
6
CONTINUOUS
10
73.0908
20
-108.712
11
73.2745
21
-109.088
0
LINE
8
BLACK
6
CONTINUOUS
10
73.2745
20
-109.088
11
73.4885
21
-109.447
0
LINE
8
BLACK
6
CONTINUOUS
10
73.4885
20
-109.447
11
73.7315
21
-109.787
0
LINE
8
BLACK
6
CONTINUOUS
10
73.7315
20
-109.787
11
74.0017
21
-110.107
0
LINE
8
BLACK
6
CONTINUOUS
10
74.0017
20
-110.107
11
74.2974
21
-110.402
0
LINE
8
BLACK
6
CONTINUOUS
10
74.2974
20
-110.402
11
74.6165
21
-110.673
0
LINE
8
BLACK
6
CONTINUOUS
10
74.6165
20
-110.673
11
74.9568
21
-110.915
0
LINE
8
BLACK
6
CONTINUOUS
10
74.9568
20
-110.915
11
75.316
21
-111.13
0
LINE
8
BLACK
6
CONTINUOUS
10
75.316
20
-111.13
11
75.6917
21
-111.313
0
LINE
8
BLACK
6
CONTINUOUS
10
75.6917
20
-111.313
11
76.0812
21
-111.465
0
LINE
8
BLACK
6
CONTINUOUS
10
76.0812
20
-111.465
11
76.482
21
-111.585
0
LINE
8
BLACK
6
CONTINUOUS
10
76.482
20
-111.585
11
76.8913
21
-111.67
0
LINE
8
BLACK
6
CONTINUOUS
10
76.8913
20
-111.67
11
77.3062
21
-111.722
0
LINE
8
BLACK
6
CONTINUOUS
10
77.3062
20
-111.722
11
77.7145
21
-111.739
0
LINE
8
BLACK
6
CONTINUOUS
10
77.7145
20
-111.739
11
77.724
21
-111.735
0
LINE
8
BLACK
6
CONTINUOUS
10
77.724
20
-111.735
11
204.724
21
-111.735
0
LINE
8
BLACK
6
CONTINUOUS
10
204.724
20
-111.735
11
204.733
21
-111.739
0
LINE
8
BLACK
6
CONTINUOUS
10
204.733
20
-111.739
11
205.142
21
-111.722
0
LINE
8
BLACK
6
CONTINUOUS
10
205.142
20
-111.722
11
205.557
21
-111.67
0
LINE
8
BLACK
6
CONTINUOUS
10
205.557
20
-111.67
11
205.966
21
-111.585
0
LINE
8
BLACK
6
CONTINUOUS
10
205.966
20
-111.585
11
206.367
21
-111.465
0
LINE
8
BLACK
6
CONTINUOUS
10
206.367
20
-111.465
11
206.756
21
-111.313
0
LINE
8
BLACK
6
CONTINUOUS
10
206.756
20
-111.313
11
207.132
21
-111.13
0
LINE
8
BLACK
6
CONTINUOUS
10
207.132
20
-111.13
11
207.491
21
-110.915
0
LINE
8
BLACK
6
CONTINUOUS
10
207.491
20
-110.915
11
207.831
21
-110.673
0
LINE
8
BLACK
6
CONTINUOUS
10
207.831
20
-110.673
11
208.151
21
-110.402
0
LINE
8
BLACK
6
CONTINUOUS
10
208.151
20
-110.402
11
208.446
21
-110.107
0
LINE
8
BLACK
6
CONTINUOUS
10
208.446
20
-110.107
11
208.717
21
-109.787
0
LINE
8
BLACK
6
CONTINUOUS
10
208.717
20
-109.787
11
208.959
21
-109.447
0
LINE
8
BLACK
6
CONTINUOUS
10
208.959
20
-109.447
11
209.174
21
-109.088
0
LINE
8
BLACK
6
CONTINUOUS
10
209.174
20
-109.088
11
209.357
21
-108.712
0
LINE
8
BLACK
6
CONTINUOUS
10
209.357
20
-108.712
11
209.509
21
-108.323
0
LINE
8
BLACK
6
CONTINUOUS
10
209.509
20
-108.323
11
209.629
21
-107.922
0
LINE
8
BLACK
6
CONTINUOUS
10
209.629
20
-107.922
11
209.714
21
-107.513
0
LINE
8
BLACK
6
CONTINUOUS
10
209.714
20
-107.513
11
209.766
21
-107.098
0
LINE
8
BLACK
6
CONTINUOUS
10
209.766
20
-107.098
11
209.783
21
-106.689
0
LINE
8
BLACK
6
CONTINUOUS
10
209.783
20
-106.689
11
209.779
21
-106.68
0
LINE
8
BLACK
6
CONTINUOUS
10
209.779
20
-106.68
11
209.779
21
-86.614
0
LINE
8
BLACK
6
CONTINUOUS
10
209.779
20
-86.614
11
209.783
21
-86.6045
0
LINE
8
BLACK
6
CONTINUOUS
10
209.783
20
-86.6045
11
209.766
21
-86.1962
0
LINE
8
BLACK
6
CONTINUOUS
10
209.766
20
-86.1962
11
209.714
21
-85.7813
0
LINE
8
BLACK
6
CONTINUOUS
10
209.714
20
-85.7813
11
209.629
21
-85.372
0
LINE
8
BLACK
6
CONTINUOUS
10
209.629
20
-85.372
11
209.509
21
-84.9712
0
LINE
8
BLACK
6
CONTINUOUS
10
209.509
20
-84.9712
11
209.357
21
-84.5817
0
LINE
8
BLACK
6
CONTINUOUS
10
209.357
20
-84.5817
11
209.174
21
-84.206
0
LINE
8
BLACK
6
CONTINUOUS
10
209.174
20
-84.206
11
208.959
21
-83.8468
0
LINE
8
BLACK
6
CONTINUOUS
10
208.959
20
-83.8468
11
208.717
21
-83.5065
0
LINE
8
BLACK
6
CONTINUOUS
10
208.717
20
-83.5065
11
208.446
21
-83.1874
0
LINE
8
BLACK
6
CONTINUOUS
10
208.446
20
-83.1874
11
208.151
21
-82.8917
0
LINE
8
BLACK
6
CONTINUOUS
10
208.151
20
-82.8917
11
207.831
21
-82.6215
0
LINE
8
BLACK
6
CONTINUOUS
10
207.831
20
-82.6215
11
207.491
21
-82.3785
0
LINE
8
BLACK
6
CONTINUOUS
10
207.491
20
-82.3785
11
207.132
21
-82.1645
0
LINE
8
BLACK
6
CONTINUOUS
10
207.132
20
-82.1645
11
206.756
21
-81.9808
0
LINE
8
BLACK
6
CONTINUOUS
10
206.756
20
-81.9808
11
206.367
21
-81.8288
0
LINE
8
BLACK
6
CONTINUOUS
10
206.367
20
-81.8288
11
205.966
21
-81.7095
0
LINE
8
BLACK
6
CONTINUOUS
10
205.966
20
-81.7095
11
205.557
21
-81.6237
0
LINE
8
BLACK
6
CONTINUOUS
10
205.557
20
-81.6237
11
205.142
21
-81.572
0
LINE
8
BLACK
6
CONTINUOUS
10
205.142
20
-81.572
11
204.733
21
-81.5551
0
LINE
8
BLACK
6
CONTINUOUS
10
204.733
20
-81.5551
11
204.724
21
-81.559
0
LINE
8
BLACK
6
CONTINUOUS
10
204.724
20
-81.559
11
77.724
21
-81.559
0
LINE
8
BLACK
6
CONTINUOUS
10
77.724
20
-81.559
11
77.7145
21
-81.5551
0
LINE
8
BLACK
6
CONTINUOUS
10
101.688
20
-95.9424
11
101.759
21
-95.501
0
LINE
8
BLACK
6
CONTINUOUS
10
101.759
20
-95.501
11
101.869
21
-95.0676
0
LINE
8
BLACK
6
CONTINUOUS
10
101.869
20
-95.0676
11
102.018
21
-94.6457
0
LINE
8
BLACK
6
CONTINUOUS
10
102.018
20
-94.6457
11
102.203
21
-94.2387
0
LINE
8
BLACK
6
CONTINUOUS
10
102.203
20
-94.2387
11
102.423
21
-93.8497
0
LINE
8
BLACK
6
CONTINUOUS
10
102.423
20
-93.8497
11
102.677
21
-93.4819
0
LINE
8
BLACK
6
CONTINUOUS
10
102.677
20
-93.4819
11
102.963
21
-93.1381
0
LINE
8
BLACK
6
CONTINUOUS
10
102.963
20
-93.1381
11
103.279
21
-92.8211
0
LINE
8
BLACK
6
CONTINUOUS
10
103.279
20
-92.8211
11
103.621
21
-92.5334
0
LINE
8
BLACK
6
CONTINUOUS
10
103.621
20
-92.5334
11
103.987
21
-92.2773
0
LINE
8
BLACK
6
CONTINUOUS
10
103.987
20
-92.2773
11
104.375
21
-92.0547
0
LINE
8
BLACK
6
CONTINUOUS
10
104.375
20
-92.0547
11
104.781
21
-91.8675
0
LINE
8
BLACK
6
CONTINUOUS
10
104.781
20
-91.8675
11
105.202
21
-91.7171
0
LINE
8
BLACK
6
CONTINUOUS
10
105.202
20
-91.7171
11
105.635
21
-91.6048
0
LINE
8
BLACK
6
CONTINUOUS
10
105.635
20
-91.6048
11
106.076
21
-91.5314
0
LINE
8
BLACK
6
CONTINUOUS
10
106.076
20
-91.5314
11
106.522
21
-91.4975
0
LINE
8
BLACK
6
CONTINUOUS
10
106.522
20
-91.4975
11
106.969
21
-91.5033
0
LINE
8
BLACK
6
CONTINUOUS
10
106.969
20
-91.5033
11
107.414
21
-91.5489
0
LINE
8
BLACK
6
CONTINUOUS
10
107.414
20
-91.5489
11
107.853
21
-91.6338
0
LINE
8
BLACK
6
CONTINUOUS
10
107.853
20
-91.6338
11
108.283
21
-91.7575
0
LINE
8
BLACK
6
CONTINUOUS
10
108.283
20
-91.7575
11
108.7
21
-91.9188
0
LINE
8
BLACK
6
CONTINUOUS
10
108.7
20
-91.9188
11
109.101
21
-92.1166
0
LINE
8
BLACK
6
CONTINUOUS
10
109.101
20
-92.1166
11
109.483
21
-92.3492
0
LINE
8
BLACK
6
CONTINUOUS
10
109.483
20
-92.3492
11
109.842
21
-92.6148
0
LINE
8
BLACK
6
CONTINUOUS
10
109.842
20
-92.6148
11
110.177
21
-92.9114
0
LINE
8
BLACK
6
CONTINUOUS
10
110.177
20
-92.9114
11
110.484
21
-93.2366
0
LINE
8
BLACK
6
CONTINUOUS
10
110.484
20
-93.2366
11
110.761
21
-93.5877
0
LINE
8
BLACK
6
CONTINUOUS
10
110.761
20
-93.5877
11
111.005
21
-93.9621
0
LINE
8
BLACK
6
CONTINUOUS
10
111.005
20
-93.9621
11
111.215
21
-94.3567
0
LINE
8
BLACK
6
CONTINUOUS
10
111.215
20
-94.3567
11
111.39
21
-94.7684
0
LINE
8
BLACK
6
CONTINUOUS
10
111.39
20
-94.7684
11
111.527
21
-95.194
0
LINE
8
BLACK
6
CONTINUOUS
10
111.527
20
-95.194
11
111.626
21
-95.6301
0
LINE
8
BLACK
6
CONTINUOUS
10
111.626
20
-95.6301
11
111.685
21
-96.0733
0
LINE
8
BLACK
6
CONTINUOUS
10
111.685
20
-96.0733
11
111.705
21
-96.52
0
LINE
8
BLACK
6
CONTINUOUS
10
111.705
20
-96.52
11
111.698
21
-96.783
0
LINE
8
BLACK
6
CONTINUOUS
10
111.698
20
-96.783
11
111.655
21
-97.228
0
LINE
8
BLACK
6
CONTINUOUS
10
111.655
20
-97.228
11
111.572
21
-97.6675
0
LINE
8
BLACK
6
CONTINUOUS
10
111.572
20
-97.6675
11
111.451
21
-98.0978
0
LINE
8
BLACK
6
CONTINUOUS
10
111.451
20
-98.0978
11
111.292
21
-98.5157
0
LINE
8
BLACK
6
CONTINUOUS
10
111.292
20
-98.5157
11
111.096
21
-98.9177
0
LINE
8
BLACK
6
CONTINUOUS
10
111.096
20
-98.9177
11
110.865
21
-99.3008
0
LINE
8
BLACK
6
CONTINUOUS
10
110.865
20
-99.3008
11
110.602
21
-99.6618
0
LINE
8
BLACK
6
CONTINUOUS
10
110.602
20
-99.6618
11
110.307
21
-99.998
0
LINE
8
BLACK
6
CONTINUOUS
10
110.307
20
-99.998
11
109.983
21
-100.307
0
LINE
8
BLACK
6
CONTINUOUS
10
109.983
20
-100.307
11
109.634
21
-100.585
0
LINE
8
BLACK
6
CONTINUOUS
10
109.634
20
-100.585
11
109.261
21
-100.832
0
LINE
8
BLACK
6
CONTINUOUS
10
109.261
20
-100.832
11
108.867
21
-101.044
0
LINE
8
BLACK
6
CONTINUOUS
10
108.867
20
-101.044
11
108.456
21
-101.221
0
LINE
8
BLACK
6
CONTINUOUS
10
108.456
20
-101.221
11
108.031
21
-101.36
0
LINE
8
BLACK
6
CONTINUOUS
10
108.031
20
-101.36
11
107.596
21
-101.461
0
LINE
8
BLACK
6
CONTINUOUS
10
107.596
20
-101.461
11
107.153
21
-101.523
0
LINE
8
BLACK
6
CONTINUOUS
10
107.153
20
-101.523
11
106.706
21
-101.545
0
LINE
8
BLACK
6
CONTINUOUS
10
106.706
20
-101.545
11
106.26
21
-101.527
0
LINE
8
BLACK
6
CONTINUOUS
10
106.26
20
-101.527
11
105.816
21
-101.47
0
LINE
8
BLACK
6
CONTINUOUS
10
105.816
20
-101.47
11
105.379
21
-101.374
0
LINE
8
BLACK
6
CONTINUOUS
10
105.379
20
-101.374
11
104.953
21
-101.239
0
LINE
8
BLACK
6
CONTINUOUS
10
104.953
20
-101.239
11
104.54
21
-101.067
0
LINE
8
BLACK
6
CONTINUOUS
10
104.54
20
-101.067
11
104.145
21
-100.859
0
LINE
8
BLACK
6
CONTINUOUS
10
104.145
20
-100.859
11
103.769
21
-100.616
0
LINE
8
BLACK
6
CONTINUOUS
10
103.769
20
-100.616
11
103.417
21
-100.341
0
LINE
8
BLACK
6
CONTINUOUS
10
103.417
20
-100.341
11
103.09
21
-100.036
0
LINE
8
BLACK
6
CONTINUOUS
10
103.09
20
-100.036
11
102.791
21
-99.7027
0
LINE
8
BLACK
6
CONTINUOUS
10
102.791
20
-99.7027
11
102.524
21
-99.3445
0
LINE
8
BLACK
6
CONTINUOUS
10
102.524
20
-99.3445
11
102.289
21
-98.9638
0
LINE
8
BLACK
6
CONTINUOUS
10
102.289
20
-98.9638
11
102.089
21
-98.5639
0
LINE
8
BLACK
6
CONTINUOUS
10
102.089
20
-98.5639
11
101.926
21
-98.1477
0
LINE
8
BLACK
6
CONTINUOUS
10
101.926
20
-98.1477
11
101.8
21
-97.7186
0
LINE
8
BLACK
6
CONTINUOUS
10
101.8
20
-97.7186
11
101.713
21
-97.2801
0
LINE
8
BLACK
6
CONTINUOUS
10
101.713
20
-97.2801
11
101.665
21
-96.8355
0
LINE
8
BLACK
6
CONTINUOUS
10
101.665
20
-96.8355
11
101.657
21
-96.3896
0
LINE
8
BLACK
6
CONTINUOUS
10
101.657
20
-96.3896
11
101.657
21
-96.3885
0
LINE
8
BLACK
6
CONTINUOUS
10
101.657
20
-96.3885
11
101.688
21
-95.9424
0
LINE
8
BLACK
6
CONTINUOUS
10
101.757
20
-97.2733
11
101.844
21
-97.7079
0
LINE
8
BLACK
6
CONTINUOUS
10
101.844
20
-97.7079
11
101.968
21
-98.1331
0
LINE
8
BLACK
6
CONTINUOUS
10
101.968
20
-98.1331
11
102.131
21
-98.5456
0
LINE
8
BLACK
6
CONTINUOUS
10
102.131
20
-98.5456
11
102.329
21
-98.942
0
LINE
8
BLACK
6
CONTINUOUS
10
102.329
20
-98.942
11
102.561
21
-99.3192
0
LINE
8
BLACK
6
CONTINUOUS
10
102.561
20
-99.3192
11
102.826
21
-99.6742
0
LINE
8
BLACK
6
CONTINUOUS
10
102.826
20
-99.6742
11
103.122
21
-100.004
0
LINE
8
BLACK
6
CONTINUOUS
10
103.122
20
-100.004
11
103.446
21
-100.307
0
LINE
8
BLACK
6
CONTINUOUS
10
103.446
20
-100.307
11
103.795
21
-100.579
0
LINE
8
BLACK
6
CONTINUOUS
10
103.795
20
-100.579
11
104.167
21
-100.82
0
LINE
8
BLACK
6
CONTINUOUS
10
104.167
20
-100.82
11
104.56
21
-101.026
0
LINE
8
BLACK
6
CONTINUOUS
10
104.56
20
-101.026
11
104.969
21
-101.197
0
LINE
8
BLACK
6
CONTINUOUS
10
104.969
20
-101.197
11
105.391
21
-101.33
0
LINE
8
BLACK
6
CONTINUOUS
10
105.391
20
-101.33
11
105.824
21
-101.426
0
LINE
8
BLACK
6
CONTINUOUS
10
105.824
20
-101.426
11
106.263
21
-101.483
0
LINE
8
BLACK
6
CONTINUOUS
10
106.263
20
-101.483
11
106.706
21
-101.5
0
LINE
8
BLACK
6
CONTINUOUS
10
106.706
20
-101.5
11
107.149
21
-101.478
0
LINE
8
BLACK
6
CONTINUOUS
10
107.149
20
-101.478
11
107.588
21
-101.417
0
LINE
8
BLACK
6
CONTINUOUS
10
107.588
20
-101.417
11
108.019
21
-101.317
0
LINE
8
BLACK
6
CONTINUOUS
10
108.019
20
-101.317
11
108.44
21
-101.179
0
LINE
8
BLACK
6
CONTINUOUS
10
108.44
20
-101.179
11
108.847
21
-101.004
0
LINE
8
BLACK
6
CONTINUOUS
10
108.847
20
-101.004
11
109.237
21
-100.793
0
LINE
8
BLACK
6
CONTINUOUS
10
109.237
20
-100.793
11
109.607
21
-100.549
0
LINE
8
BLACK
6
CONTINUOUS
10
109.607
20
-100.549
11
109.954
21
-100.273
0
LINE
8
BLACK
6
CONTINUOUS
10
109.954
20
-100.273
11
110.274
21
-99.9669
0
LINE
8
BLACK
6
CONTINUOUS
10
110.274
20
-99.9669
11
110.567
21
-99.6337
0
LINE
8
BLACK
6
CONTINUOUS
10
110.567
20
-99.6337
11
110.828
21
-99.2759
0
LINE
8
BLACK
6
CONTINUOUS
10
110.828
20
-99.2759
11
111.057
21
-98.8963
0
LINE
8
BLACK
6
CONTINUOUS
10
111.057
20
-98.8963
11
111.25
21
-98.4978
0
LINE
8
BLACK
6
CONTINUOUS
10
111.25
20
-98.4978
11
111.408
21
-98.0837
0
LINE
8
BLACK
6
CONTINUOUS
10
111.408
20
-98.0837
11
111.528
21
-97.6572
0
LINE
8
BLACK
6
CONTINUOUS
10
111.528
20
-97.6572
11
111.61
21
-97.2217
0
LINE
8
BLACK
6
CONTINUOUS
10
111.61
20
-97.2217
11
111.653
21
-96.7806
0
LINE
8
BLACK
6
CONTINUOUS
10
111.653
20
-96.7806
11
111.66
21
-96.52
0
LINE
8
BLACK
6
CONTINUOUS
10
111.66
20
-96.52
11
111.64
21
-96.0773
0
LINE
8
BLACK
6
CONTINUOUS
10
111.64
20
-96.0773
11
111.581
21
-95.6381
0
LINE
8
BLACK
6
CONTINUOUS
10
111.581
20
-95.6381
11
111.484
21
-95.2059
0
LINE
8
BLACK
6
CONTINUOUS
10
111.484
20
-95.2059
11
111.348
21
-94.7841
0
LINE
8
BLACK
6
CONTINUOUS
10
111.348
20
-94.7841
11
111.175
21
-94.376
0
LINE
8
BLACK
6
CONTINUOUS
10
111.175
20
-94.376
11
110.967
21
-93.985
0
LINE
8
BLACK
6
CONTINUOUS
10
110.967
20
-93.985
11
110.724
21
-93.614
0
LINE
8
BLACK
6
CONTINUOUS
10
110.724
20
-93.614
11
110.45
21
-93.266
0
LINE
8
BLACK
6
CONTINUOUS
10
110.45
20
-93.266
11
110.146
21
-92.9437
0
LINE
8
BLACK
6
CONTINUOUS
10
110.146
20
-92.9437
11
109.814
21
-92.6498
0
LINE
8
BLACK
6
CONTINUOUS
10
109.814
20
-92.6498
11
109.458
21
-92.3865
0
LINE
8
BLACK
6
CONTINUOUS
10
109.458
20
-92.3865
11
109.079
21
-92.156
0
LINE
8
BLACK
6
CONTINUOUS
10
109.079
20
-92.156
11
108.682
21
-91.96
0
LINE
8
BLACK
6
CONTINUOUS
10
108.682
20
-91.96
11
108.268
21
-91.8001
0
LINE
8
BLACK
6
CONTINUOUS
10
108.268
20
-91.8001
11
107.843
21
-91.6776
0
LINE
8
BLACK
6
CONTINUOUS
10
107.843
20
-91.6776
11
107.407
21
-91.5934
0
LINE
8
BLACK
6
CONTINUOUS
10
107.407
20
-91.5934
11
106.967
21
-91.5482
0
LINE
8
BLACK
6
CONTINUOUS
10
106.967
20
-91.5482
11
106.524
21
-91.5424
0
LINE
8
BLACK
6
CONTINUOUS
10
106.524
20
-91.5424
11
106.082
21
-91.5761
0
LINE
8
BLACK
6
CONTINUOUS
10
106.082
20
-91.5761
11
105.645
21
-91.6488
0
LINE
8
BLACK
6
CONTINUOUS
10
105.645
20
-91.6488
11
105.216
21
-91.7601
0
LINE
8
BLACK
6
CONTINUOUS
10
105.216
20
-91.7601
11
104.798
21
-91.9092
0
LINE
8
BLACK
6
CONTINUOUS
10
104.798
20
-91.9092
11
104.396
21
-92.0947
0
LINE
8
BLACK
6
CONTINUOUS
10
104.396
20
-92.0947
11
104.012
21
-92.3152
0
LINE
8
BLACK
6
CONTINUOUS
10
104.012
20
-92.3152
11
103.648
21
-92.5691
0
LINE
8
BLACK
6
CONTINUOUS
10
103.648
20
-92.5691
11
103.309
21
-92.8542
0
LINE
8
BLACK
6
CONTINUOUS
10
103.309
20
-92.8542
11
102.997
21
-93.1684
0
LINE
8
BLACK
6
CONTINUOUS
10
102.997
20
-93.1684
11
102.713
21
-93.5091
0
LINE
8
BLACK
6
CONTINUOUS
10
102.713
20
-93.5091
11
102.461
21
-93.8736
0
LINE
8
BLACK
6
CONTINUOUS
10
102.461
20
-93.8736
11
102.243
21
-94.2591
0
LINE
8
BLACK
6
CONTINUOUS
10
102.243
20
-94.2591
11
102.059
21
-94.6625
0
LINE
8
BLACK
6
CONTINUOUS
10
102.059
20
-94.6625
11
101.913
21
-95.0806
0
LINE
8
BLACK
6
CONTINUOUS
10
101.913
20
-95.0806
11
101.803
21
-95.5101
0
LINE
8
BLACK
6
CONTINUOUS
10
101.803
20
-95.5101
11
101.733
21
-95.9476
0
LINE
8
BLACK
6
CONTINUOUS
10
101.733
20
-95.9476
11
101.702
21
-96.3896
0
LINE
8
BLACK
6
CONTINUOUS
10
101.702
20
-96.3896
11
101.71
21
-96.8327
0
LINE
8
BLACK
6
CONTINUOUS
10
101.71
20
-96.8327
11
101.757
21
-97.2733
0
LINE
8
BLACK
6
CONTINUOUS
10
83.9083
20
-95.9424
11
83.9794
21
-95.501
0
LINE
8
BLACK
6
CONTINUOUS
10
83.9794
20
-95.501
11
84.0895
21
-95.0676
0
LINE
8
BLACK
6
CONTINUOUS
10
84.0895
20
-95.0676
11
84.2376
21
-94.6457
0
LINE
8
BLACK
6
CONTINUOUS
10
84.2376
20
-94.6457
11
84.4227
21
-94.2387
0
LINE
8
BLACK
6
CONTINUOUS
10
84.4227
20
-94.2387
11
84.6432
21
-93.8497
0
LINE
8
BLACK
6
CONTINUOUS
10
84.6432
20
-93.8497
11
84.8974
21
-93.4819
0
LINE
8
BLACK
6
CONTINUOUS
10
84.8974
20
-93.4819
11
85.1834
21
-93.1381
0
LINE
8
BLACK
6
CONTINUOUS
10
85.1834
20
-93.1381
11
85.4987
21
-92.8211
0
LINE
8
BLACK
6
CONTINUOUS
10
85.4987
20
-92.8211
11
85.841
21
-92.5334
0
LINE
8
BLACK
6
CONTINUOUS
10
85.841
20
-92.5334
11
86.2075
21
-92.2773
0
LINE
8
BLACK
6
CONTINUOUS
10
86.2075
20
-92.2773
11
86.5953
21
-92.0547
0
LINE
8
BLACK
6
CONTINUOUS
10
86.5953
20
-92.0547
11
87.0014
21
-91.8675
0
LINE
8
BLACK
6
CONTINUOUS
10
87.0014
20
-91.8675
11
87.4224
21
-91.7171
0
LINE
8
BLACK
6
CONTINUOUS
10
87.4224
20
-91.7171
11
87.8552
21
-91.6048
0
LINE
8
BLACK
6
CONTINUOUS
10
87.8552
20
-91.6048
11
88.2963
21
-91.5314
0
LINE
8
BLACK
6
CONTINUOUS
10
88.2963
20
-91.5314
11
88.7422
21
-91.4975
0
LINE
8
BLACK
6
CONTINUOUS
10
88.7422
20
-91.4975
11
89.1893
21
-91.5033
0
LINE
8
BLACK
6
CONTINUOUS
10
89.1893
20
-91.5033
11
89.6341
21
-91.5489
0
LINE
8
BLACK
6
CONTINUOUS
10
89.6341
20
-91.5489
11
90.0731
21
-91.6338
0
LINE
8
BLACK
6
CONTINUOUS
10
90.0731
20
-91.6338
11
90.5028
21
-91.7575
0
LINE
8
BLACK
6
CONTINUOUS
10
90.5028
20
-91.7575
11
90.9198
21
-91.9188
0
LINE
8
BLACK
6
CONTINUOUS
10
90.9198
20
-91.9188
11
91.3208
21
-92.1166
0
LINE
8
BLACK
6
CONTINUOUS
10
91.3208
20
-92.1166
11
91.7027
21
-92.3492
0
LINE
8
BLACK
6
CONTINUOUS
10
91.7027
20
-92.3492
11
92.0623
21
-92.6148
0
LINE
8
BLACK
6
CONTINUOUS
10
92.0623
20
-92.6148
11
92.397
21
-92.9114
0
LINE
8
BLACK
6
CONTINUOUS
10
92.397
20
-92.9114
11
92.7039
21
-93.2366
0
LINE
8
BLACK
6
CONTINUOUS
10
92.7039
20
-93.2366
11
92.9807
21
-93.5877
0
LINE
8
BLACK
6
CONTINUOUS
10
92.9807
20
-93.5877
11
93.2252
21
-93.9621
0
LINE
8
BLACK
6
CONTINUOUS
10
93.2252
20
-93.9621
11
93.4355
21
-94.3567
0
LINE
8
BLACK
6
CONTINUOUS
10
93.4355
20
-94.3567
11
93.6098
21
-94.7684
0
LINE
8
BLACK
6
CONTINUOUS
10
93.6098
20
-94.7684
11
93.7469
21
-95.194
0
LINE
8
BLACK
6
CONTINUOUS
10
93.7469
20
-95.194
11
93.8456
21
-95.6301
0
LINE
8
BLACK
6
CONTINUOUS
10
93.8456
20
-95.6301
11
93.9051
21
-96.0733
0
LINE
8
BLACK
6
CONTINUOUS
10
93.9051
20
-96.0733
11
93.925
21
-96.52
0
LINE
8
BLACK
6
CONTINUOUS
10
93.925
20
-96.52
11
93.9181
21
-96.783
0
LINE
8
BLACK
6
CONTINUOUS
10
93.9181
20
-96.783
11
93.8749
21
-97.228
0
LINE
8
BLACK
6
CONTINUOUS
10
93.8749
20
-97.228
11
93.7922
21
-97.6675
0
LINE
8
BLACK
6
CONTINUOUS
10
93.7922
20
-97.6675
11
93.6709
21
-98.0978
0
LINE
8
BLACK
6
CONTINUOUS
10
93.6709
20
-98.0978
11
93.5117
21
-98.5157
0
LINE
8
BLACK
6
CONTINUOUS
10
93.5117
20
-98.5157
11
93.3161
21
-98.9177
0
LINE
8
BLACK
6
CONTINUOUS
10
93.3161
20
-98.9177
11
93.0854
21
-99.3008
0
LINE
8
BLACK
6
CONTINUOUS
10
93.0854
20
-99.3008
11
92.8217
21
-99.6618
0
LINE
8
BLACK
6
CONTINUOUS
10
92.8217
20
-99.6618
11
92.5268
21
-99.998
0
LINE
8
BLACK
6
CONTINUOUS
10
92.5268
20
-99.998
11
92.2033
21
-100.307
0
LINE
8
BLACK
6
CONTINUOUS
10
92.2033
20
-100.307
11
91.8536
21
-100.585
0
LINE
8
BLACK
6
CONTINUOUS
10
91.8536
20
-100.585
11
91.4805
21
-100.832
0
LINE
8
BLACK
6
CONTINUOUS
10
91.4805
20
-100.832
11
91.087
21
-101.044
0
LINE
8
BLACK
6
CONTINUOUS
10
91.087
20
-101.044
11
90.6762
21
-101.221
0
LINE
8
BLACK
6
CONTINUOUS
10
90.6762
20
-101.221
11
90.2513
21
-101.36
0
LINE
8
BLACK
6
CONTINUOUS
10
90.2513
20
-101.36
11
89.8157
21
-101.461
0
LINE
8
BLACK
6
CONTINUOUS
10
89.8157
20
-101.461
11
89.3729
21
-101.523
0
LINE
8
BLACK
6
CONTINUOUS
10
89.3729
20
-101.523
11
88.9263
21
-101.545
0
LINE
8
BLACK
6
CONTINUOUS
10
88.9263
20
-101.545
11
88.4795
21
-101.527
0
LINE
8
BLACK
6
CONTINUOUS
10
88.4795
20
-101.527
11
88.0361
21
-101.47
0
LINE
8
BLACK
6
CONTINUOUS
10
88.0361
20
-101.47
11
87.5994
21
-101.374
0
LINE
8
BLACK
6
CONTINUOUS
10
87.5994
20
-101.374
11
87.1731
21
-101.239
0
LINE
8
BLACK
6
CONTINUOUS
10
87.1731
20
-101.239
11
86.7605
21
-101.067
0
LINE
8
BLACK
6
CONTINUOUS
10
86.7605
20
-101.067
11
86.3647
21
-100.859
0
LINE
8
BLACK
6
CONTINUOUS
10
86.3647
20
-100.859
11
85.9891
21
-100.616
0
LINE
8
BLACK
6
CONTINUOUS
10
85.9891
20
-100.616
11
85.6365
21
-100.341
0
LINE
8
BLACK
6
CONTINUOUS
10
85.6365
20
-100.341
11
85.3098
21
-100.036
0
LINE
8
BLACK
6
CONTINUOUS
10
85.3098
20
-100.036
11
85.0115
21
-99.7027
0
LINE
8
BLACK
6
CONTINUOUS
10
85.0115
20
-99.7027
11
84.7439
21
-99.3445
0
LINE
8
BLACK
6
CONTINUOUS
10
84.7439
20
-99.3445
11
84.5093
21
-98.9638
0
LINE
8
BLACK
6
CONTINUOUS
10
84.5093
20
-98.9638
11
84.3094
21
-98.5639
0
LINE
8
BLACK
6
CONTINUOUS
10
84.3094
20
-98.5639
11
84.1459
21
-98.1477
0
LINE
8
BLACK
6
CONTINUOUS
10
84.1459
20
-98.1477
11
84.02
21
-97.7186
0
LINE
8
BLACK
6
CONTINUOUS
10
84.02
20
-97.7186
11
83.9328
21
-97.2801
0
LINE
8
BLACK
6
CONTINUOUS
10
83.9328
20
-97.2801
11
83.8849
21
-96.8355
0
LINE
8
BLACK
6
CONTINUOUS
10
83.8849
20
-96.8355
11
83.8767
21
-96.3896
0
LINE
8
BLACK
6
CONTINUOUS
10
83.8767
20
-96.3896
11
83.8767
21
-96.3885
0
LINE
8
BLACK
6
CONTINUOUS
10
83.8767
20
-96.3885
11
83.9083
21
-95.9424
0
LINE
8
BLACK
6
CONTINUOUS
10
83.9773
20
-97.2733
11
84.0637
21
-97.7079
0
LINE
8
BLACK
6
CONTINUOUS
10
84.0637
20
-97.7079
11
84.1885
21
-98.1331
0
LINE
8
BLACK
6
CONTINUOUS
10
84.1885
20
-98.1331
11
84.3505
21
-98.5456
0
LINE
8
BLACK
6
CONTINUOUS
10
84.3505
20
-98.5456
11
84.5486
21
-98.942
0
LINE
8
BLACK
6
CONTINUOUS
10
84.5486
20
-98.942
11
84.7811
21
-99.3192
0
LINE
8
BLACK
6
CONTINUOUS
10
84.7811
20
-99.3192
11
85.0463
21
-99.6742
0
LINE
8
BLACK
6
CONTINUOUS
10
85.0463
20
-99.6742
11
85.3419
21
-100.004
0
LINE
8
BLACK
6
CONTINUOUS
10
85.3419
20
-100.004
11
85.6657
21
-100.307
0
LINE
8
BLACK
6
CONTINUOUS
10
85.6657
20
-100.307
11
86.0152
21
-100.579
0
LINE
8
BLACK
6
CONTINUOUS
10
86.0152
20
-100.579
11
86.3874
21
-100.82
0
LINE
8
BLACK
6
CONTINUOUS
10
86.3874
20
-100.82
11
86.7796
21
-101.026
0
LINE
8
BLACK
6
CONTINUOUS
10
86.7796
20
-101.026
11
87.1886
21
-101.197
0
LINE
8
BLACK
6
CONTINUOUS
10
87.1886
20
-101.197
11
87.6111
21
-101.33
0
LINE
8
BLACK
6
CONTINUOUS
10
87.6111
20
-101.33
11
88.0438
21
-101.426
0
LINE
8
BLACK
6
CONTINUOUS
10
88.0438
20
-101.426
11
88.4833
21
-101.483
0
LINE
8
BLACK
6
CONTINUOUS
10
88.4833
20
-101.483
11
88.9261
21
-101.5
0
LINE
8
BLACK
6
CONTINUOUS
10
88.9261
20
-101.5
11
89.3687
21
-101.478
0
LINE
8
BLACK
6
CONTINUOUS
10
89.3687
20
-101.478
11
89.8075
21
-101.417
0
LINE
8
BLACK
6
CONTINUOUS
10
89.8075
20
-101.417
11
90.2392
21
-101.317
0
LINE
8
BLACK
6
CONTINUOUS
10
90.2392
20
-101.317
11
90.6603
21
-101.179
0
LINE
8
BLACK
6
CONTINUOUS
10
90.6603
20
-101.179
11
91.0675
21
-101.004
0
LINE
8
BLACK
6
CONTINUOUS
10
91.0675
20
-101.004
11
91.4574
21
-100.793
0
LINE
8
BLACK
6
CONTINUOUS
10
91.4574
20
-100.793
11
91.8272
21
-100.549
0
LINE
8
BLACK
6
CONTINUOUS
10
91.8272
20
-100.549
11
92.1737
21
-100.273
0
LINE
8
BLACK
6
CONTINUOUS
10
92.1737
20
-100.273
11
92.4944
21
-99.9669
0
LINE
8
BLACK
6
CONTINUOUS
10
92.4944
20
-99.9669
11
92.7866
21
-99.6337
0
LINE
8
BLACK
6
CONTINUOUS
10
92.7866
20
-99.6337
11
93.048
21
-99.2759
0
LINE
8
BLACK
6
CONTINUOUS
10
93.048
20
-99.2759
11
93.2765
21
-98.8963
0
LINE
8
BLACK
6
CONTINUOUS
10
93.2765
20
-98.8963
11
93.4704
21
-98.4978
0
LINE
8
BLACK
6
CONTINUOUS
10
93.4704
20
-98.4978
11
93.6282
21
-98.0837
0
LINE
8
BLACK
6
CONTINUOUS
10
93.6282
20
-98.0837
11
93.7484
21
-97.6572
0
LINE
8
BLACK
6
CONTINUOUS
10
93.7484
20
-97.6572
11
93.8303
21
-97.2217
0
LINE
8
BLACK
6
CONTINUOUS
10
93.8303
20
-97.2217
11
93.8732
21
-96.7806
0
LINE
8
BLACK
6
CONTINUOUS
10
93.8732
20
-96.7806
11
93.88
21
-96.52
0
LINE
8
BLACK
6
CONTINUOUS
10
93.88
20
-96.52
11
93.8603
21
-96.0773
0
LINE
8
BLACK
6
CONTINUOUS
10
93.8603
20
-96.0773
11
93.8013
21
-95.6381
0
LINE
8
BLACK
6
CONTINUOUS
10
93.8013
20
-95.6381
11
93.7035
21
-95.2059
0
LINE
8
BLACK
6
CONTINUOUS
10
93.7035
20
-95.2059
11
93.5677
21
-94.7841
0
LINE
8
BLACK
6
CONTINUOUS
10
93.5677
20
-94.7841
11
93.3949
21
-94.376
0
LINE
8
BLACK
6
CONTINUOUS
10
93.3949
20
-94.376
11
93.1865
21
-93.985
0
LINE
8
BLACK
6
CONTINUOUS
10
93.1865
20
-93.985
11
92.9442
21
-93.614
0
LINE
8
BLACK
6
CONTINUOUS
10
92.9442
20
-93.614
11
92.6698
21
-93.266
0
LINE
8
BLACK
6
CONTINUOUS
10
92.6698
20
-93.266
11
92.3657
21
-92.9437
0
LINE
8
BLACK
6
CONTINUOUS
10
92.3657
20
-92.9437
11
92.034
21
-92.6498
0
LINE
8
BLACK
6
CONTINUOUS
10
92.034
20
-92.6498
11
91.6776
21
-92.3865
0
LINE
8
BLACK
6
CONTINUOUS
10
91.6776
20
-92.3865
11
91.2991
21
-92.156
0
LINE
8
BLACK
6
CONTINUOUS
10
91.2991
20
-92.156
11
90.9017
21
-91.96
0
LINE
8
BLACK
6
CONTINUOUS
10
90.9017
20
-91.96
11
90.4884
21
-91.8001
0
LINE
8
BLACK
6
CONTINUOUS
10
90.4884
20
-91.8001
11
90.0626
21
-91.6776
0
LINE
8
BLACK
6
CONTINUOUS
10
90.0626
20
-91.6776
11
89.6275
21
-91.5934
0
LINE
8
BLACK
6
CONTINUOUS
10
89.6275
20
-91.5934
11
89.1867
21
-91.5482
0
LINE
8
BLACK
6
CONTINUOUS
10
89.1867
20
-91.5482
11
88.7436
21
-91.5424
0
LINE
8
BLACK
6
CONTINUOUS
10
88.7436
20
-91.5424
11
88.3017
21
-91.5761
0
LINE
8
BLACK
6
CONTINUOUS
10
88.3017
20
-91.5761
11
87.8646
21
-91.6488
0
LINE
8
BLACK
6
CONTINUOUS
10
87.8646
20
-91.6488
11
87.4357
21
-91.7601
0
LINE
8
BLACK
6
CONTINUOUS
10
87.4357
20
-91.7601
11
87.0183
21
-91.9092
0
LINE
8
BLACK
6
CONTINUOUS
10
87.0183
20
-91.9092
11
86.6159
21
-92.0947
0
LINE
8
BLACK
6
CONTINUOUS
10
86.6159
20
-92.0947
11
86.2316
21
-92.3152
0
LINE
8
BLACK
6
CONTINUOUS
10
86.2316
20
-92.3152
11
85.8684
21
-92.5691
0
LINE
8
BLACK
6
CONTINUOUS
10
85.8684
20
-92.5691
11
85.5291
21
-92.8542
0
LINE
8
BLACK
6
CONTINUOUS
10
85.5291
20
-92.8542
11
85.2166
21
-93.1684
0
LINE
8
BLACK
6
CONTINUOUS
10
85.2166
20
-93.1684
11
84.9333
21
-93.5091
0
LINE
8
BLACK
6
CONTINUOUS
10
84.9333
20
-93.5091
11
84.6813
21
-93.8736
0
LINE
8
BLACK
6
CONTINUOUS
10
84.6813
20
-93.8736
11
84.4628
21
-94.2591
0
LINE
8
BLACK
6
CONTINUOUS
10
84.4628
20
-94.2591
11
84.2794
21
-94.6625
0
LINE
8
BLACK
6
CONTINUOUS
10
84.2794
20
-94.6625
11
84.1325
21
-95.0806
0
LINE
8
BLACK
6
CONTINUOUS
10
84.1325
20
-95.0806
11
84.0235
21
-95.5101
0
LINE
8
BLACK
6
CONTINUOUS
10
84.0235
20
-95.5101
11
83.953
21
-95.9476
0
LINE
8
BLACK
6
CONTINUOUS
10
83.953
20
-95.9476
11
83.9217
21
-96.3896
0
LINE
8
BLACK
6
CONTINUOUS
10
83.9217
20
-96.3896
11
83.9298
21
-96.8327
0
LINE
8
BLACK
6
CONTINUOUS
10
83.9298
20
-96.8327
11
83.9773
21
-97.2733
0
LINE
8
BLACK
6
CONTINUOUS
10
191.858
20
-95.9424
11
191.929
21
-95.501
0
LINE
8
BLACK
6
CONTINUOUS
10
191.929
20
-95.501
11
192.039
21
-95.0676
0
LINE
8
BLACK
6
CONTINUOUS
10
192.039
20
-95.0676
11
192.188
21
-94.6457
0
LINE
8
BLACK
6
CONTINUOUS
10
192.188
20
-94.6457
11
192.373
21
-94.2387
0
LINE
8
BLACK
6
CONTINUOUS
10
192.373
20
-94.2387
11
192.593
21
-93.8497
0
LINE
8
BLACK
6
CONTINUOUS
10
192.593
20
-93.8497
11
192.847
21
-93.4819
0
LINE
8
BLACK
6
CONTINUOUS
10
192.847
20
-93.4819
11
193.133
21
-93.1381
0
LINE
8
BLACK
6
CONTINUOUS
10
193.133
20
-93.1381
11
193.449
21
-92.8211
0
LINE
8
BLACK
6
CONTINUOUS
10
193.449
20
-92.8211
11
193.791
21
-92.5334
0
LINE
8
BLACK
6
CONTINUOUS
10
193.791
20
-92.5334
11
194.157
21
-92.2773
0
LINE
8
BLACK
6
CONTINUOUS
10
194.157
20
-92.2773
11
194.545
21
-92.0547
0
LINE
8
BLACK
6
CONTINUOUS
10
194.545
20
-92.0547
11
194.951
21
-91.8675
0
LINE
8
BLACK
6
CONTINUOUS
10
194.951
20
-91.8675
11
195.372
21
-91.7171
0
LINE
8
BLACK
6
CONTINUOUS
10
195.372
20
-91.7171
11
195.805
21
-91.6048
0
LINE
8
BLACK
6
CONTINUOUS
10
195.805
20
-91.6048
11
196.246
21
-91.5314
0
LINE
8
BLACK
6
CONTINUOUS
10
196.246
20
-91.5314
11
196.692
21
-91.4975
0
LINE
8
BLACK
6
CONTINUOUS
10
196.692
20
-91.4975
11
197.139
21
-91.5033
0
LINE
8
BLACK
6
CONTINUOUS
10
197.139
20
-91.5033
11
197.584
21
-91.5489
0
LINE
8
BLACK
6
CONTINUOUS
10
197.584
20
-91.5489
11
198.023
21
-91.6338
0
LINE
8
BLACK
6
CONTINUOUS
10
198.023
20
-91.6338
11
198.453
21
-91.7575
0
LINE
8
BLACK
6
CONTINUOUS
10
198.453
20
-91.7575
11
198.87
21
-91.9188
0
LINE
8
BLACK
6
CONTINUOUS
10
198.87
20
-91.9188
11
199.271
21
-92.1166
0
LINE
8
BLACK
6
CONTINUOUS
10
199.271
20
-92.1166
11
199.653
21
-92.3492
0
LINE
8
BLACK
6
CONTINUOUS
10
199.653
20
-92.3492
11
200.012
21
-92.6148
0
LINE
8
BLACK
6
CONTINUOUS
10
200.012
20
-92.6148
11
200.347
21
-92.9114
0
LINE
8
BLACK
6
CONTINUOUS
10
200.347
20
-92.9114
11
200.654
21
-93.2366
0
LINE
8
BLACK
6
CONTINUOUS
10
200.654
20
-93.2366
11
200.931
21
-93.5877
0
LINE
8
BLACK
6
CONTINUOUS
10
200.931
20
-93.5877
11
201.175
21
-93.9621
0
LINE
8
BLACK
6
CONTINUOUS
10
201.175
20
-93.9621
11
201.385
21
-94.3567
0
LINE
8
BLACK
6
CONTINUOUS
10
201.385
20
-94.3567
11
201.56
21
-94.7684
0
LINE
8
BLACK
6
CONTINUOUS
10
201.56
20
-94.7684
11
201.697
21
-95.194
0
LINE
8
BLACK
6
CONTINUOUS
10
201.697
20
-95.194
11
201.796
21
-95.6301
0
LINE
8
BLACK
6
CONTINUOUS
10
201.796
20
-95.6301
11
201.855
21
-96.0733
0
LINE
8
BLACK
6
CONTINUOUS
10
201.855
20
-96.0733
11
201.875
21
-96.52
0
LINE
8
BLACK
6
CONTINUOUS
10
201.875
20
-96.52
11
201.868
21
-96.783
0
LINE
8
BLACK
6
CONTINUOUS
10
201.868
20
-96.783
11
201.825
21
-97.228
0
LINE
8
BLACK
6
CONTINUOUS
10
201.825
20
-97.228
11
201.742
21
-97.6675
0
LINE
8
BLACK
6
CONTINUOUS
10
201.742
20
-97.6675
11
201.621
21
-98.0978
0
LINE
8
BLACK
6
CONTINUOUS
10
201.621
20
-98.0978
11
201.462
21
-98.5157
0
LINE
8
BLACK
6
CONTINUOUS
10
201.462
20
-98.5157
11
201.266
21
-98.9177
0
LINE
8
BLACK
6
CONTINUOUS
10
201.266
20
-98.9177
11
201.035
21
-99.3008
0
LINE
8
BLACK
6
CONTINUOUS
10
201.035
20
-99.3008
11
200.772
21
-99.6618
0
LINE
8
BLACK
6
CONTINUOUS
10
200.772
20
-99.6618
11
200.477
21
-99.998
0
LINE
8
BLACK
6
CONTINUOUS
10
200.477
20
-99.998
11
200.153
21
-100.307
0
LINE
8
BLACK
6
CONTINUOUS
10
200.153
20
-100.307
11
199.804
21
-100.585
0
LINE
8
BLACK
6
CONTINUOUS
10
199.804
20
-100.585
11
199.431
21
-100.832
0
LINE
8
BLACK
6
CONTINUOUS
10
199.431
20
-100.832
11
199.037
21
-101.044
0
LINE
8
BLACK
6
CONTINUOUS
10
199.037
20
-101.044
11
198.626
21
-101.221
0
LINE
8
BLACK
6
CONTINUOUS
10
198.626
20
-101.221
11
198.201
21
-101.36
0
LINE
8
BLACK
6
CONTINUOUS
10
198.201
20
-101.36
11
197.766
21
-101.461
0
LINE
8
BLACK
6
CONTINUOUS
10
197.766
20
-101.461
11
197.323
21
-101.523
0
LINE
8
BLACK
6
CONTINUOUS
10
197.323
20
-101.523
11
196.876
21
-101.545
0
LINE
8
BLACK
6
CONTINUOUS
10
196.876
20
-101.545
11
196.43
21
-101.527
0
LINE
8
BLACK
6
CONTINUOUS
10
196.43
20
-101.527
11
195.986
21
-101.47
0
LINE
8
BLACK
6
CONTINUOUS
10
195.986
20
-101.47
11
195.549
21
-101.374
0
LINE
8
BLACK
6
CONTINUOUS
10
195.549
20
-101.374
11
195.123
21
-101.239
0
LINE
8
BLACK
6
CONTINUOUS
10
195.123
20
-101.239
11
194.71
21
-101.067
0
LINE
8
BLACK
6
CONTINUOUS
10
194.71
20
-101.067
11
194.315
21
-100.859
0
LINE
8
BLACK
6
CONTINUOUS
10
194.315
20
-100.859
11
193.939
21
-100.616
0
LINE
8
BLACK
6
CONTINUOUS
10
193.939
20
-100.616
11
193.587
21
-100.341
0
LINE
8
BLACK
6
CONTINUOUS
10
193.587
20
-100.341
11
193.26
21
-100.036
0
LINE
8
BLACK
6
CONTINUOUS
10
193.26
20
-100.036
11
192.961
21
-99.7027
0
LINE
8
BLACK
6
CONTINUOUS
10
192.961
20
-99.7027
11
192.694
21
-99.3445
0
LINE
8
BLACK
6
CONTINUOUS
10
192.694
20
-99.3445
11
192.459
21
-98.9638
0
LINE
8
BLACK
6
CONTINUOUS
10
192.459
20
-98.9638
11
192.259
21
-98.5639
0
LINE
8
BLACK
6
CONTINUOUS
10
192.259
20
-98.5639
11
192.096
21
-98.1477
0
LINE
8
BLACK
6
CONTINUOUS
10
192.096
20
-98.1477
11
191.97
21
-97.7186
0
LINE
8
BLACK
6
CONTINUOUS
10
191.97
20
-97.7186
11
191.883
21
-97.2801
0
LINE
8
BLACK
6
CONTINUOUS
10
191.883
20
-97.2801
11
191.835
21
-96.8355
0
LINE
8
BLACK
6
CONTINUOUS
10
191.835
20
-96.8355
11
191.827
21
-96.3896
0
LINE
8
BLACK
6
CONTINUOUS
10
191.827
20
-96.3896
11
191.827
21
-96.3885
0
LINE
8
BLACK
6
CONTINUOUS
10
191.827
20
-96.3885
11
191.858
21
-95.9424
0
LINE
8
BLACK
6
CONTINUOUS
10
191.927
20
-97.2733
11
192.014
21
-97.7079
0
LINE
8
BLACK
6
CONTINUOUS
10
192.014
20
-97.7079
11
192.138
21
-98.1331
0
LINE
8
BLACK
6
CONTINUOUS
10
192.138
20
-98.1331
11
192.301
21
-98.5456
0
LINE
8
BLACK
6
CONTINUOUS
10
192.301
20
-98.5456
11
192.499
21
-98.942
0
LINE
8
BLACK
6
CONTINUOUS
10
192.499
20
-98.942
11
192.731
21
-99.3192
0
LINE
8
BLACK
6
CONTINUOUS
10
192.731
20
-99.3192
11
192.996
21
-99.6742
0
LINE
8
BLACK
6
CONTINUOUS
10
192.996
20
-99.6742
11
193.292
21
-100.004
0
LINE
8
BLACK
6
CONTINUOUS
10
193.292
20
-100.004
11
193.616
21
-100.307
0
LINE
8
BLACK
6
CONTINUOUS
10
193.616
20
-100.307
11
193.965
21
-100.579
0
LINE
8
BLACK
6
CONTINUOUS
10
193.965
20
-100.579
11
194.337
21
-100.82
0
LINE
8
BLACK
6
CONTINUOUS
10
194.337
20
-100.82
11
194.73
21
-101.026
0
LINE
8
BLACK
6
CONTINUOUS
10
194.73
20
-101.026
11
195.139
21
-101.197
0
LINE
8
BLACK
6
CONTINUOUS
10
195.139
20
-101.197
11
195.561
21
-101.33
0
LINE
8
BLACK
6
CONTINUOUS
10
195.561
20
-101.33
11
195.994
21
-101.426
0
LINE
8
BLACK
6
CONTINUOUS
10
195.994
20
-101.426
11
196.433
21
-101.483
0
LINE
8
BLACK
6
CONTINUOUS
10
196.433
20
-101.483
11
196.876
21
-101.5
0
LINE
8
BLACK
6
CONTINUOUS
10
196.876
20
-101.5
11
197.319
21
-101.478
0
LINE
8
BLACK
6
CONTINUOUS
10
197.319
20
-101.478
11
197.758
21
-101.417
0
LINE
8
BLACK
6
CONTINUOUS
10
197.758
20
-101.417
11
198.189
21
-101.317
0
LINE
8
BLACK
6
CONTINUOUS
10
198.189
20
-101.317
11
198.61
21
-101.179
0
LINE
8
BLACK
6
CONTINUOUS
10
198.61
20
-101.179
11
199.017
21
-101.004
0
LINE
8
BLACK
6
CONTINUOUS
10
199.017
20
-101.004
11
199.407
21
-100.793
0
LINE
8
BLACK
6
CONTINUOUS
10
199.407
20
-100.793
11
199.777
21
-100.549
0
LINE
8
BLACK
6
CONTINUOUS
10
199.777
20
-100.549
11
200.124
21
-100.273
0
LINE
8
BLACK
6
CONTINUOUS
10
200.124
20
-100.273
11
200.444
21
-99.9669
0
LINE
8
BLACK
6
CONTINUOUS
10
200.444
20
-99.9669
11
200.737
21
-99.6337
0
LINE
8
BLACK
6
CONTINUOUS
10
200.737
20
-99.6337
11
200.998
21
-99.2759
0
LINE
8
BLACK
6
CONTINUOUS
10
200.998
20
-99.2759
11
201.227
21
-98.8963
0
LINE
8
BLACK
6
CONTINUOUS
10
201.227
20
-98.8963
11
201.42
21
-98.4978
0
LINE
8
BLACK
6
CONTINUOUS
10
201.42
20
-98.4978
11
201.578
21
-98.0837
0
LINE
8
BLACK
6
CONTINUOUS
10
201.578
20
-98.0837
11
201.698
21
-97.6572
0
LINE
8
BLACK
6
CONTINUOUS
10
201.698
20
-97.6572
11
201.78
21
-97.2217
0
LINE
8
BLACK
6
CONTINUOUS
10
201.78
20
-97.2217
11
201.823
21
-96.7806
0
LINE
8
BLACK
6
CONTINUOUS
10
201.823
20
-96.7806
11
201.83
21
-96.52
0
LINE
8
BLACK
6
CONTINUOUS
10
201.83
20
-96.52
11
201.81
21
-96.0773
0
LINE
8
BLACK
6
CONTINUOUS
10
201.81
20
-96.0773
11
201.751
21
-95.6381
0
LINE
8
BLACK
6
CONTINUOUS
10
201.751
20
-95.6381
11
201.654
21
-95.2059
0
LINE
8
BLACK
6
CONTINUOUS
10
201.654
20
-95.2059
11
201.518
21
-94.7841
0
LINE
8
BLACK
6
CONTINUOUS
10
201.518
20
-94.7841
11
201.345
21
-94.376
0
LINE
8
BLACK
6
CONTINUOUS
10
201.345
20
-94.376
11
201.137
21
-93.985
0
LINE
8
BLACK
6
CONTINUOUS
10
201.137
20
-93.985
11
200.894
21
-93.614
0
LINE
8
BLACK
6
CONTINUOUS
10
200.894
20
-93.614
11
200.62
21
-93.266
0
LINE
8
BLACK
6
CONTINUOUS
10
200.62
20
-93.266
11
200.316
21
-92.9437
0
LINE
8
BLACK
6
CONTINUOUS
10
200.316
20
-92.9437
11
199.984
21
-92.6498
0
LINE
8
BLACK
6
CONTINUOUS
10
199.984
20
-92.6498
11
199.628
21
-92.3865
0
LINE
8
BLACK
6
CONTINUOUS
10
199.628
20
-92.3865
11
199.249
21
-92.156
0
LINE
8
BLACK
6
CONTINUOUS
10
199.249
20
-92.156
11
198.852
21
-91.96
0
LINE
8
BLACK
6
CONTINUOUS
10
198.852
20
-91.96
11
198.438
21
-91.8001
0
LINE
8
BLACK
6
CONTINUOUS
10
198.438
20
-91.8001
11
198.013
21
-91.6776
0
LINE
8
BLACK
6
CONTINUOUS
10
198.013
20
-91.6776
11
197.577
21
-91.5934
0
LINE
8
BLACK
6
CONTINUOUS
10
197.577
20
-91.5934
11
197.137
21
-91.5482
0
LINE
8
BLACK
6
CONTINUOUS
10
197.137
20
-91.5482
11
196.694
21
-91.5424
0
LINE
8
BLACK
6
CONTINUOUS
10
196.694
20
-91.5424
11
196.252
21
-91.5761
0
LINE
8
BLACK
6
CONTINUOUS
10
196.252
20
-91.5761
11
195.815
21
-91.6488
0
LINE
8
BLACK
6
CONTINUOUS
10
195.815
20
-91.6488
11
195.386
21
-91.7601
0
LINE
8
BLACK
6
CONTINUOUS
10
195.386
20
-91.7601
11
194.968
21
-91.9092
0
LINE
8
BLACK
6
CONTINUOUS
10
194.968
20
-91.9092
11
194.566
21
-92.0947
0
LINE
8
BLACK
6
CONTINUOUS
10
194.566
20
-92.0947
11
194.182
21
-92.3152
0
LINE
8
BLACK
6
CONTINUOUS
10
194.182
20
-92.3152
11
193.818
21
-92.5691
0
LINE
8
BLACK
6
CONTINUOUS
10
193.818
20
-92.5691
11
193.479
21
-92.8542
0
LINE
8
BLACK
6
CONTINUOUS
10
193.479
20
-92.8542
11
193.167
21
-93.1684
0
LINE
8
BLACK
6
CONTINUOUS
10
193.167
20
-93.1684
11
192.883
21
-93.5091
0
LINE
8
BLACK
6
CONTINUOUS
10
192.883
20
-93.5091
11
192.631
21
-93.8736
0
LINE
8
BLACK
6
CONTINUOUS
10
192.631
20
-93.8736
11
192.413
21
-94.2591
0
LINE
8
BLACK
6
CONTINUOUS
10
192.413
20
-94.2591
11
192.229
21
-94.6625
0
LINE
8
BLACK
6
CONTINUOUS
10
192.229
20
-94.6625
11
192.083
21
-95.0806
0
LINE
8
BLACK
6
CONTINUOUS
10
192.083
20
-95.0806
11
191.973
21
-95.5101
0
LINE
8
BLACK
6
CONTINUOUS
10
191.973
20
-95.5101
11
191.903
21
-95.9476
0
LINE
8
BLACK
6
CONTINUOUS
10
191.903
20
-95.9476
11
191.872
21
-96.3896
0
LINE
8
BLACK
6
CONTINUOUS
10
191.872
20
-96.3896
11
191.88
21
-96.8327
0
LINE
8
BLACK
6
CONTINUOUS
10
191.88
20
-96.8327
11
191.927
21
-97.2733
0
LINE
8
BLACK
6
CONTINUOUS
10
137.248
20
-95.9424
11
137.319
21
-95.501
0
LINE
8
BLACK
6
CONTINUOUS
10
137.319
20
-95.501
11
137.429
21
-95.0676
0
LINE
8
BLACK
6
CONTINUOUS
10
137.429
20
-95.0676
11
137.578
21
-94.6457
0
LINE
8
BLACK
6
CONTINUOUS
10
137.578
20
-94.6457
11
137.763
21
-94.2387
0
LINE
8
BLACK
6
CONTINUOUS
10
137.763
20
-94.2387
11
137.983
21
-93.8497
0
LINE
8
BLACK
6
CONTINUOUS
10
137.983
20
-93.8497
11
138.237
21
-93.4819
0
LINE
8
BLACK
6
CONTINUOUS
10
138.237
20
-93.4819
11
138.523
21
-93.1381
0
LINE
8
BLACK
6
CONTINUOUS
10
138.523
20
-93.1381
11
138.839
21
-92.8211
0
LINE
8
BLACK
6
CONTINUOUS
10
138.839
20
-92.8211
11
139.181
21
-92.5334
0
LINE
8
BLACK
6
CONTINUOUS
10
139.181
20
-92.5334
11
139.547
21
-92.2773
0
LINE
8
BLACK
6
CONTINUOUS
10
139.547
20
-92.2773
11
139.935
21
-92.0547
0
LINE
8
BLACK
6
CONTINUOUS
10
139.935
20
-92.0547
11
140.341
21
-91.8675
0
LINE
8
BLACK
6
CONTINUOUS
10
140.341
20
-91.8675
11
140.762
21
-91.7171
0
LINE
8
BLACK
6
CONTINUOUS
10
140.762
20
-91.7171
11
141.195
21
-91.6048
0
LINE
8
BLACK
6
CONTINUOUS
10
141.195
20
-91.6048
11
141.636
21
-91.5314
0
LINE
8
BLACK
6
CONTINUOUS
10
141.636
20
-91.5314
11
142.082
21
-91.4975
0
LINE
8
BLACK
6
CONTINUOUS
10
142.082
20
-91.4975
11
142.529
21
-91.5033
0
LINE
8
BLACK
6
CONTINUOUS
10
142.529
20
-91.5033
11
142.974
21
-91.5489
0
LINE
8
BLACK
6
CONTINUOUS
10
142.974
20
-91.5489
11
143.413
21
-91.6338
0
LINE
8
BLACK
6
CONTINUOUS
10
143.413
20
-91.6338
11
143.843
21
-91.7575
0
LINE
8
BLACK
6
CONTINUOUS
10
143.843
20
-91.7575
11
144.26
21
-91.9188
0
LINE
8
BLACK
6
CONTINUOUS
10
144.26
20
-91.9188
11
144.661
21
-92.1166
0
LINE
8
BLACK
6
CONTINUOUS
10
144.661
20
-92.1166
11
145.043
21
-92.3492
0
LINE
8
BLACK
6
CONTINUOUS
10
145.043
20
-92.3492
11
145.402
21
-92.6148
0
LINE
8
BLACK
6
CONTINUOUS
10
145.402
20
-92.6148
11
145.737
21
-92.9114
0
LINE
8
BLACK
6
CONTINUOUS
10
145.737
20
-92.9114
11
146.044
21
-93.2366
0
LINE
8
BLACK
6
CONTINUOUS
10
146.044
20
-93.2366
11
146.321
21
-93.5877
0
LINE
8
BLACK
6
CONTINUOUS
10
146.321
20
-93.5877
11
146.565
21
-93.9621
0
LINE
8
BLACK
6
CONTINUOUS
10
146.565
20
-93.9621
11
146.775
21
-94.3567
0
LINE
8
BLACK
6
CONTINUOUS
10
146.775
20
-94.3567
11
146.95
21
-94.7684
0
LINE
8
BLACK
6
CONTINUOUS
10
146.95
20
-94.7684
11
147.087
21
-95.194
0
LINE
8
BLACK
6
CONTINUOUS
10
147.087
20
-95.194
11
147.186
21
-95.6301
0
LINE
8
BLACK
6
CONTINUOUS
10
147.186
20
-95.6301
11
147.245
21
-96.0733
0
LINE
8
BLACK
6
CONTINUOUS
10
147.245
20
-96.0733
11
147.265
21
-96.52
0
LINE
8
BLACK
6
CONTINUOUS
10
147.265
20
-96.52
11
147.258
21
-96.783
0
LINE
8
BLACK
6
CONTINUOUS
10
147.258
20
-96.783
11
147.215
21
-97.228
0
LINE
8
BLACK
6
CONTINUOUS
10
147.215
20
-97.228
11
147.132
21
-97.6675
0
LINE
8
BLACK
6
CONTINUOUS
10
147.132
20
-97.6675
11
147.011
21
-98.0978
0
LINE
8
BLACK
6
CONTINUOUS
10
147.011
20
-98.0978
11
146.852
21
-98.5157
0
LINE
8
BLACK
6
CONTINUOUS
10
146.852
20
-98.5157
11
146.656
21
-98.9177
0
LINE
8
BLACK
6
CONTINUOUS
10
146.656
20
-98.9177
11
146.425
21
-99.3008
0
LINE
8
BLACK
6
CONTINUOUS
10
146.425
20
-99.3008
11
146.162
21
-99.6618
0
LINE
8
BLACK
6
CONTINUOUS
10
146.162
20
-99.6618
11
145.867
21
-99.998
0
LINE
8
BLACK
6
CONTINUOUS
10
145.867
20
-99.998
11
145.543
21
-100.307
0
LINE
8
BLACK
6
CONTINUOUS
10
145.543
20
-100.307
11
145.194
21
-100.585
0
LINE
8
BLACK
6
CONTINUOUS
10
145.194
20
-100.585
11
144.821
21
-100.832
0
LINE
8
BLACK
6
CONTINUOUS
10
144.821
20
-100.832
11
144.427
21
-101.044
0
LINE
8
BLACK
6
CONTINUOUS
10
144.427
20
-101.044
11
144.016
21
-101.221
0
LINE
8
BLACK
6
CONTINUOUS
10
144.016
20
-101.221
11
143.591
21
-101.36
0
LINE
8
BLACK
6
CONTINUOUS
10
143.591
20
-101.36
11
143.156
21
-101.461
0
LINE
8
BLACK
6
CONTINUOUS
10
143.156
20
-101.461
11
142.713
21
-101.523
0
LINE
8
BLACK
6
CONTINUOUS
10
142.713
20
-101.523
11
142.266
21
-101.545
0
LINE
8
BLACK
6
CONTINUOUS
10
142.266
20
-101.545
11
141.82
21
-101.527
0
LINE
8
BLACK
6
CONTINUOUS
10
141.82
20
-101.527
11
141.376
21
-101.47
0
LINE
8
BLACK
6
CONTINUOUS
10
141.376
20
-101.47
11
140.939
21
-101.374
0
LINE
8
BLACK
6
CONTINUOUS
10
140.939
20
-101.374
11
140.513
21
-101.239
0
LINE
8
BLACK
6
CONTINUOUS
10
140.513
20
-101.239
11
140.1
21
-101.067
0
LINE
8
BLACK
6
CONTINUOUS
10
140.1
20
-101.067
11
139.705
21
-100.859
0
LINE
8
BLACK
6
CONTINUOUS
10
139.705
20
-100.859
11
139.329
21
-100.616
0
LINE
8
BLACK
6
CONTINUOUS
10
139.329
20
-100.616
11
138.977
21
-100.341
0
LINE
8
BLACK
6
CONTINUOUS
10
138.977
20
-100.341
11
138.65
21
-100.036
0
LINE
8
BLACK
6
CONTINUOUS
10
138.65
20
-100.036
11
138.351
21
-99.7027
0
LINE
8
BLACK
6
CONTINUOUS
10
138.351
20
-99.7027
11
138.084
21
-99.3445
0
LINE
8
BLACK
6
CONTINUOUS
10
138.084
20
-99.3445
11
137.849
21
-98.9638
0
LINE
8
BLACK
6
CONTINUOUS
10
137.849
20
-98.9638
11
137.649
21
-98.5639
0
LINE
8
BLACK
6
CONTINUOUS
10
137.649
20
-98.5639
11
137.486
21
-98.1477
0
LINE
8
BLACK
6
CONTINUOUS
10
137.486
20
-98.1477
11
137.36
21
-97.7186
0
LINE
8
BLACK
6
CONTINUOUS
10
137.36
20
-97.7186
11
137.273
21
-97.2801
0
LINE
8
BLACK
6
CONTINUOUS
10
137.273
20
-97.2801
11
137.225
21
-96.8355
0
LINE
8
BLACK
6
CONTINUOUS
10
137.225
20
-96.8355
11
137.217
21
-96.3896
0
LINE
8
BLACK
6
CONTINUOUS
10
137.217
20
-96.3896
11
137.217
21
-96.3885
0
LINE
8
BLACK
6
CONTINUOUS
10
137.217
20
-96.3885
11
137.248
21
-95.9424
0
LINE
8
BLACK
6
CONTINUOUS
10
137.317
20
-97.2733
11
137.404
21
-97.7079
0
LINE
8
BLACK
6
CONTINUOUS
10
137.404
20
-97.7079
11
137.528
21
-98.1331
0
LINE
8
BLACK
6
CONTINUOUS
10
137.528
20
-98.1331
11
137.691
21
-98.5456
0
LINE
8
BLACK
6
CONTINUOUS
10
137.691
20
-98.5456
11
137.889
21
-98.942
0
LINE
8
BLACK
6
CONTINUOUS
10
137.889
20
-98.942
11
138.121
21
-99.3192
0
LINE
8
BLACK
6
CONTINUOUS
10
138.121
20
-99.3192
11
138.386
21
-99.6742
0
LINE
8
BLACK
6
CONTINUOUS
10
138.386
20
-99.6742
11
138.682
21
-100.004
0
LINE
8
BLACK
6
CONTINUOUS
10
138.682
20
-100.004
11
139.006
21
-100.307
0
LINE
8
BLACK
6
CONTINUOUS
10
139.006
20
-100.307
11
139.355
21
-100.579
0
LINE
8
BLACK
6
CONTINUOUS
10
139.355
20
-100.579
11
139.727
21
-100.82
0
LINE
8
BLACK
6
CONTINUOUS
10
139.727
20
-100.82
11
140.12
21
-101.026
0
LINE
8
BLACK
6
CONTINUOUS
10
140.12
20
-101.026
11
140.529
21
-101.197
0
LINE
8
BLACK
6
CONTINUOUS
10
140.529
20
-101.197
11
140.951
21
-101.33
0
LINE
8
BLACK
6
CONTINUOUS
10
140.951
20
-101.33
11
141.384
21
-101.426
0
LINE
8
BLACK
6
CONTINUOUS
10
141.384
20
-101.426
11
141.823
21
-101.483
0
LINE
8
BLACK
6
CONTINUOUS
10
141.823
20
-101.483
11
142.266
21
-101.5
0
LINE
8
BLACK
6
CONTINUOUS
10
142.266
20
-101.5
11
142.709
21
-101.478
0
LINE
8
BLACK
6
CONTINUOUS
10
142.709
20
-101.478
11
143.148
21
-101.417
0
LINE
8
BLACK
6
CONTINUOUS
10
143.148
20
-101.417
11
143.579
21
-101.317
0
LINE
8
BLACK
6
CONTINUOUS
10
143.579
20
-101.317
11
144
21
-101.179
0
LINE
8
BLACK
6
CONTINUOUS
10
144
20
-101.179
11
144.407
21
-101.004
0
LINE
8
BLACK
6
CONTINUOUS
10
144.407
20
-101.004
11
144.797
21
-100.793
0
LINE
8
BLACK
6
CONTINUOUS
10
144.797
20
-100.793
11
145.167
21
-100.549
0
LINE
8
BLACK
6
CONTINUOUS
10
145.167
20
-100.549
11
145.514
21
-100.273
0
LINE
8
BLACK
6
CONTINUOUS
10
145.514
20
-100.273
11
145.834
21
-99.9669
0
LINE
8
BLACK
6
CONTINUOUS
10
145.834
20
-99.9669
11
146.127
21
-99.6337
0
LINE
8
BLACK
6
CONTINUOUS
10
146.127
20
-99.6337
11
146.388
21
-99.2759
0
LINE
8
BLACK
6
CONTINUOUS
10
146.388
20
-99.2759
11
146.617
21
-98.8963
0
LINE
8
BLACK
6
CONTINUOUS
10
146.617
20
-98.8963
11
146.81
21
-98.4978
0
LINE
8
BLACK
6
CONTINUOUS
10
146.81
20
-98.4978
11
146.968
21
-98.0837
0
LINE
8
BLACK
6
CONTINUOUS
10
146.968
20
-98.0837
11
147.088
21
-97.6572
0
LINE
8
BLACK
6
CONTINUOUS
10
147.088
20
-97.6572
11
147.17
21
-97.2217
0
LINE
8
BLACK
6
CONTINUOUS
10
147.17
20
-97.2217
11
147.213
21
-96.7806
0
LINE
8
BLACK
6
CONTINUOUS
10
147.213
20
-96.7806
11
147.22
21
-96.52
0
LINE
8
BLACK
6
CONTINUOUS
10
147.22
20
-96.52
11
147.2
21
-96.0773
0
LINE
8
BLACK
6
CONTINUOUS
10
147.2
20
-96.0773
11
147.141
21
-95.6381
0
LINE
8
BLACK
6
CONTINUOUS
10
147.141
20
-95.6381
11
147.044
21
-95.2059
0
LINE
8
BLACK
6
CONTINUOUS
10
147.044
20
-95.2059
11
146.908
21
-94.7841
0
LINE
8
BLACK
6
CONTINUOUS
10
146.908
20
-94.7841
11
146.735
21
-94.376
0
LINE
8
BLACK
6
CONTINUOUS
10
146.735
20
-94.376
11
146.527
21
-93.985
0
LINE
8
BLACK
6
CONTINUOUS
10
146.527
20
-93.985
11
146.284
21
-93.614
0
LINE
8
BLACK
6
CONTINUOUS
10
146.284
20
-93.614
11
146.01
21
-93.266
0
LINE
8
BLACK
6
CONTINUOUS
10
146.01
20
-93.266
11
145.706
21
-92.9437
0
LINE
8
BLACK
6
CONTINUOUS
10
145.706
20
-92.9437
11
145.374
21
-92.6498
0
LINE
8
BLACK
6
CONTINUOUS
10
145.374
20
-92.6498
11
145.018
21
-92.3865
0
LINE
8
BLACK
6
CONTINUOUS
10
145.018
20
-92.3865
11
144.639
21
-92.156
0
LINE
8
BLACK
6
CONTINUOUS
10
144.639
20
-92.156
11
144.242
21
-91.96
0
LINE
8
BLACK
6
CONTINUOUS
10
144.242
20
-91.96
11
143.828
21
-91.8001
0
LINE
8
BLACK
6
CONTINUOUS
10
143.828
20
-91.8001
11
143.403
21
-91.6776
0
LINE
8
BLACK
6
CONTINUOUS
10
143.403
20
-91.6776
11
142.967
21
-91.5934
0
LINE
8
BLACK
6
CONTINUOUS
10
142.967
20
-91.5934
11
142.527
21
-91.5482
0
LINE
8
BLACK
6
CONTINUOUS
10
142.527
20
-91.5482
11
142.084
21
-91.5424
0
LINE
8
BLACK
6
CONTINUOUS
10
142.084
20
-91.5424
11
141.642
21
-91.5761
0
LINE
8
BLACK
6
CONTINUOUS
10
141.642
20
-91.5761
11
141.205
21
-91.6488
0
LINE
8
BLACK
6
CONTINUOUS
10
141.205
20
-91.6488
11
140.776
21
-91.7601
0
LINE
8
BLACK
6
CONTINUOUS
10
140.776
20
-91.7601
11
140.358
21
-91.9092
0
LINE
8
BLACK
6
CONTINUOUS
10
140.358
20
-91.9092
11
139.956
21
-92.0947
0
LINE
8
BLACK
6
CONTINUOUS
10
139.956
20
-92.0947
11
139.572
21
-92.3152
0
LINE
8
BLACK
6
CONTINUOUS
10
139.572
20
-92.3152
11
139.208
21
-92.5691
0
LINE
8
BLACK
6
CONTINUOUS
10
139.208
20
-92.5691
11
138.869
21
-92.8542
0
LINE
8
BLACK
6
CONTINUOUS
10
138.869
20
-92.8542
11
138.557
21
-93.1684
0
LINE
8
BLACK
6
CONTINUOUS
10
138.557
20
-93.1684
11
138.273
21
-93.5091
0
LINE
8
BLACK
6
CONTINUOUS
10
138.273
20
-93.5091
11
138.021
21
-93.8736
0
LINE
8
BLACK
6
CONTINUOUS
10
138.021
20
-93.8736
11
137.803
21
-94.2591
0
LINE
8
BLACK
6
CONTINUOUS
10
137.803
20
-94.2591
11
137.619
21
-94.6625
0
LINE
8
BLACK
6
CONTINUOUS
10
137.619
20
-94.6625
11
137.473
21
-95.0806
0
LINE
8
BLACK
6
CONTINUOUS
10
137.473
20
-95.0806
11
137.363
21
-95.5101
0
LINE
8
BLACK
6
CONTINUOUS
10
137.363
20
-95.5101
11
137.293
21
-95.9476
0
LINE
8
BLACK
6
CONTINUOUS
10
137.293
20
-95.9476
11
137.262
21
-96.3896
0
LINE
8
BLACK
6
CONTINUOUS
10
137.262
20
-96.3896
11
137.27
21
-96.8327
0
LINE
8
BLACK
6
CONTINUOUS
10
137.27
20
-96.8327
11
137.317
21
-97.2733
0
LINE
8
BLACK
6
CONTINUOUS
10
174.078
20
-95.9424
11
174.149
21
-95.501
0
LINE
8
BLACK
6
CONTINUOUS
10
174.149
20
-95.501
11
174.259
21
-95.0676
0
LINE
8
BLACK
6
CONTINUOUS
10
174.259
20
-95.0676
11
174.408
21
-94.6457
0
LINE
8
BLACK
6
CONTINUOUS
10
174.408
20
-94.6457
11
174.593
21
-94.2387
0
LINE
8
BLACK
6
CONTINUOUS
10
174.593
20
-94.2387
11
174.813
21
-93.8497
0
LINE
8
BLACK
6
CONTINUOUS
10
174.813
20
-93.8497
11
175.067
21
-93.4819
0
LINE
8
BLACK
6
CONTINUOUS
10
175.067
20
-93.4819
11
175.353
21
-93.1381
0
LINE
8
BLACK
6
CONTINUOUS
10
175.353
20
-93.1381
11
175.669
21
-92.8211
0
LINE
8
BLACK
6
CONTINUOUS
10
175.669
20
-92.8211
11
176.011
21
-92.5334
0
LINE
8
BLACK
6
CONTINUOUS
10
176.011
20
-92.5334
11
176.377
21
-92.2773
0
LINE
8
BLACK
6
CONTINUOUS
10
176.377
20
-92.2773
11
176.765
21
-92.0547
0
LINE
8
BLACK
6
CONTINUOUS
10
176.765
20
-92.0547
11
177.171
21
-91.8675
0
LINE
8
BLACK
6
CONTINUOUS
10
177.171
20
-91.8675
11
177.592
21
-91.7171
0
LINE
8
BLACK
6
CONTINUOUS
10
177.592
20
-91.7171
11
178.025
21
-91.6048
0
LINE
8
BLACK
6
CONTINUOUS
10
178.025
20
-91.6048
11
178.466
21
-91.5314
0
LINE
8
BLACK
6
CONTINUOUS
10
178.466
20
-91.5314
11
178.912
21
-91.4975
0
LINE
8
BLACK
6
CONTINUOUS
10
178.912
20
-91.4975
11
179.359
21
-91.5033
0
LINE
8
BLACK
6
CONTINUOUS
10
179.359
20
-91.5033
11
179.804
21
-91.5489
0
LINE
8
BLACK
6
CONTINUOUS
10
179.804
20
-91.5489
11
180.243
21
-91.6338
0
LINE
8
BLACK
6
CONTINUOUS
10
180.243
20
-91.6338
11
180.673
21
-91.7575
0
LINE
8
BLACK
6
CONTINUOUS
10
180.673
20
-91.7575
11
181.09
21
-91.9188
0
LINE
8
BLACK
6
CONTINUOUS
10
181.09
20
-91.9188
11
181.491
21
-92.1166
0
LINE
8
BLACK
6
CONTINUOUS
10
181.491
20
-92.1166
11
181.873
21
-92.3492
0
LINE
8
BLACK
6
CONTINUOUS
10
181.873
20
-92.3492
11
182.232
21
-92.6148
0
LINE
8
BLACK
6
CONTINUOUS
10
182.232
20
-92.6148
11
182.567
21
-92.9114
0
LINE
8
BLACK
6
CONTINUOUS
10
182.567
20
-92.9114
11
182.874
21
-93.2366
0
LINE
8
BLACK
6
CONTINUOUS
10
182.874
20
-93.2366
11
183.151
21
-93.5877
0
LINE
8
BLACK
6
CONTINUOUS
10
183.151
20
-93.5877
11
183.395
21
-93.9621
0
LINE
8
BLACK
6
CONTINUOUS
10
183.395
20
-93.9621
11
183.605
21
-94.3567
0
LINE
8
BLACK
6
CONTINUOUS
10
183.605
20
-94.3567
11
183.78
21
-94.7684
0
LINE
8
BLACK
6
CONTINUOUS
10
183.78
20
-94.7684
11
183.917
21
-95.194
0
LINE
8
BLACK
6
CONTINUOUS
10
183.917
20
-95.194
11
184.016
21
-95.6301
0
LINE
8
BLACK
6
CONTINUOUS
10
184.016
20
-95.6301
11
184.075
21
-96.0733
0
LINE
8
BLACK
6
CONTINUOUS
10
184.075
20
-96.0733
11
184.095
21
-96.52
0
LINE
8
BLACK
6
CONTINUOUS
10
184.095
20
-96.52
11
184.088
21
-96.783
0
LINE
8
BLACK
6
CONTINUOUS
10
184.088
20
-96.783
11
184.045
21
-97.228
0
LINE
8
BLACK
6
CONTINUOUS
10
184.045
20
-97.228
11
183.962
21
-97.6675
0
LINE
8
BLACK
6
CONTINUOUS
10
183.962
20
-97.6675
11
183.841
21
-98.0978
0
LINE
8
BLACK
6
CONTINUOUS
10
183.841
20
-98.0978
11
183.682
21
-98.5157
0
LINE
8
BLACK
6
CONTINUOUS
10
183.682
20
-98.5157
11
183.486
21
-98.9177
0
LINE
8
BLACK
6
CONTINUOUS
10
183.486
20
-98.9177
11
183.255
21
-99.3008
0
LINE
8
BLACK
6
CONTINUOUS
10
183.255
20
-99.3008
11
182.992
21
-99.6618
0
LINE
8
BLACK
6
CONTINUOUS
10
182.992
20
-99.6618
11
182.697
21
-99.998
0
LINE
8
BLACK
6
CONTINUOUS
10
182.697
20
-99.998
11
182.373
21
-100.307
0
LINE
8
BLACK
6
CONTINUOUS
10
182.373
20
-100.307
11
182.024
21
-100.585
0
LINE
8
BLACK
6
CONTINUOUS
10
182.024
20
-100.585
11
181.651
21
-100.832
0
LINE
8
BLACK
6
CONTINUOUS
10
181.651
20
-100.832
11
181.257
21
-101.044
0
LINE
8
BLACK
6
CONTINUOUS
10
181.257
20
-101.044
11
180.846
21
-101.221
0
LINE
8
BLACK
6
CONTINUOUS
10
180.846
20
-101.221
11
180.421
21
-101.36
0
LINE
8
BLACK
6
CONTINUOUS
10
180.421
20
-101.36
11
179.986
21
-101.461
0
LINE
8
BLACK
6
CONTINUOUS
10
179.986
20
-101.461
11
179.543
21
-101.523
0
LINE
8
BLACK
6
CONTINUOUS
10
179.543
20
-101.523
11
179.096
21
-101.545
0
LINE
8
BLACK
6
CONTINUOUS
10
179.096
20
-101.545
11
178.65
21
-101.527
0
LINE
8
BLACK
6
CONTINUOUS
10
178.65
20
-101.527
11
178.206
21
-101.47
0
LINE
8
BLACK
6
CONTINUOUS
10
178.206
20
-101.47
11
177.769
21
-101.374
0
LINE
8
BLACK
6
CONTINUOUS
10
177.769
20
-101.374
11
177.343
21
-101.239
0
LINE
8
BLACK
6
CONTINUOUS
10
177.343
20
-101.239
11
176.93
21
-101.067
0
LINE
8
BLACK
6
CONTINUOUS
10
176.93
20
-101.067
11
176.535
21
-100.859
0
LINE
8
BLACK
6
CONTINUOUS
10
176.535
20
-100.859
11
176.159
21
-100.616
0
LINE
8
BLACK
6
CONTINUOUS
10
176.159
20
-100.616
11
175.807
21
-100.341
0
LINE
8
BLACK
6
CONTINUOUS
10
175.807
20
-100.341
11
175.48
21
-100.036
0
LINE
8
BLACK
6
CONTINUOUS
10
175.48
20
-100.036
11
175.181
21
-99.7027
0
LINE
8
BLACK
6
CONTINUOUS
10
175.181
20
-99.7027
11
174.914
21
-99.3445
0
LINE
8
BLACK
6
CONTINUOUS
10
174.914
20
-99.3445
11
174.679
21
-98.9638
0
LINE
8
BLACK
6
CONTINUOUS
10
174.679
20
-98.9638
11
174.479
21
-98.5639
0
LINE
8
BLACK
6
CONTINUOUS
10
174.479
20
-98.5639
11
174.316
21
-98.1477
0
LINE
8
BLACK
6
CONTINUOUS
10
174.316
20
-98.1477
11
174.19
21
-97.7186
0
LINE
8
BLACK
6
CONTINUOUS
10
174.19
20
-97.7186
11
174.103
21
-97.2801
0
LINE
8
BLACK
6
CONTINUOUS
10
174.103
20
-97.2801
11
174.055
21
-96.8355
0
LINE
8
BLACK
6
CONTINUOUS
10
174.055
20
-96.8355
11
174.047
21
-96.3896
0
LINE
8
BLACK
6
CONTINUOUS
10
174.047
20
-96.3896
11
174.047
21
-96.3885
0
LINE
8
BLACK
6
CONTINUOUS
10
174.047
20
-96.3885
11
174.078
21
-95.9424
0
LINE
8
BLACK
6
CONTINUOUS
10
174.147
20
-97.2733
11
174.234
21
-97.7079
0
LINE
8
BLACK
6
CONTINUOUS
10
174.234
20
-97.7079
11
174.358
21
-98.1331
0
LINE
8
BLACK
6
CONTINUOUS
10
174.358
20
-98.1331
11
174.521
21
-98.5456
0
LINE
8
BLACK
6
CONTINUOUS
10
174.521
20
-98.5456
11
174.719
21
-98.942
0
LINE
8
BLACK
6
CONTINUOUS
10
174.719
20
-98.942
11
174.951
21
-99.3192
0
LINE
8
BLACK
6
CONTINUOUS
10
174.951
20
-99.3192
11
175.216
21
-99.6742
0
LINE
8
BLACK
6
CONTINUOUS
10
175.216
20
-99.6742
11
175.512
21
-100.004
0
LINE
8
BLACK
6
CONTINUOUS
10
175.512
20
-100.004
11
175.836
21
-100.307
0
LINE
8
BLACK
6
CONTINUOUS
10
175.836
20
-100.307
11
176.185
21
-100.579
0
LINE
8
BLACK
6
CONTINUOUS
10
176.185
20
-100.579
11
176.557
21
-100.82
0
LINE
8
BLACK
6
CONTINUOUS
10
176.557
20
-100.82
11
176.95
21
-101.026
0
LINE
8
BLACK
6
CONTINUOUS
10
176.95
20
-101.026
11
177.359
21
-101.197
0
LINE
8
BLACK
6
CONTINUOUS
10
177.359
20
-101.197
11
177.781
21
-101.33
0
LINE
8
BLACK
6
CONTINUOUS
10
177.781
20
-101.33
11
178.214
21
-101.426
0
LINE
8
BLACK
6
CONTINUOUS
10
178.214
20
-101.426
11
178.653
21
-101.483
0
LINE
8
BLACK
6
CONTINUOUS
10
178.653
20
-101.483
11
179.096
21
-101.5
0
LINE
8
BLACK
6
CONTINUOUS
10
179.096
20
-101.5
11
179.539
21
-101.478
0
LINE
8
BLACK
6
CONTINUOUS
10
179.539
20
-101.478
11
179.978
21
-101.417
0
LINE
8
BLACK
6
CONTINUOUS
10
179.978
20
-101.417
11
180.409
21
-101.317
0
LINE
8
BLACK
6
CONTINUOUS
10
180.409
20
-101.317
11
180.83
21
-101.179
0
LINE
8
BLACK
6
CONTINUOUS
10
180.83
20
-101.179
11
181.237
21
-101.004
0
LINE
8
BLACK
6
CONTINUOUS
10
181.237
20
-101.004
11
181.627
21
-100.793
0
LINE
8
BLACK
6
CONTINUOUS
10
181.627
20
-100.793
11
181.997
21
-100.549
0
LINE
8
BLACK
6
CONTINUOUS
10
181.997
20
-100.549
11
182.344
21
-100.273
0
LINE
8
BLACK
6
CONTINUOUS
10
182.344
20
-100.273
11
182.664
21
-99.9669
0
LINE
8
BLACK
6
CONTINUOUS
10
182.664
20
-99.9669
11
182.957
21
-99.6337
0
LINE
8
BLACK
6
CONTINUOUS
10
182.957
20
-99.6337
11
183.218
21
-99.2759
0
LINE
8
BLACK
6
CONTINUOUS
10
183.218
20
-99.2759
11
183.447
21
-98.8963
0
LINE
8
BLACK
6
CONTINUOUS
10
183.447
20
-98.8963
11
183.64
21
-98.4978
0
LINE
8
BLACK
6
CONTINUOUS
10
183.64
20
-98.4978
11
183.798
21
-98.0837
0
LINE
8
BLACK
6
CONTINUOUS
10
183.798
20
-98.0837
11
183.918
21
-97.6572
0
LINE
8
BLACK
6
CONTINUOUS
10
183.918
20
-97.6572
11
184
21
-97.2217
0
LINE
8
BLACK
6
CONTINUOUS
10
184
20
-97.2217
11
184.043
21
-96.7806
0
LINE
8
BLACK
6
CONTINUOUS
10
184.043
20
-96.7806
11
184.05
21
-96.52
0
LINE
8
BLACK
6
CONTINUOUS
10
184.05
20
-96.52
11
184.03
21
-96.0773
0
LINE
8
BLACK
6
CONTINUOUS
10
184.03
20
-96.0773
11
183.971
21
-95.6381
0
LINE
8
BLACK
6
CONTINUOUS
10
183.971
20
-95.6381
11
183.874
21
-95.2059
0
LINE
8
BLACK
6
CONTINUOUS
10
183.874
20
-95.2059
11
183.738
21
-94.7841
0
LINE
8
BLACK
6
CONTINUOUS
10
183.738
20
-94.7841
11
183.565
21
-94.376
0
LINE
8
BLACK
6
CONTINUOUS
10
183.565
20
-94.376
11
183.357
21
-93.985
0
LINE
8
BLACK
6
CONTINUOUS
10
183.357
20
-93.985
11
183.114
21
-93.614
0
LINE
8
BLACK
6
CONTINUOUS
10
183.114
20
-93.614
11
182.84
21
-93.266
0
LINE
8
BLACK
6
CONTINUOUS
10
182.84
20
-93.266
11
182.536
21
-92.9437
0
LINE
8
BLACK
6
CONTINUOUS
10
182.536
20
-92.9437
11
182.204
21
-92.6498
0
LINE
8
BLACK
6
CONTINUOUS
10
182.204
20
-92.6498
11
181.848
21
-92.3865
0
LINE
8
BLACK
6
CONTINUOUS
10
181.848
20
-92.3865
11
181.469
21
-92.156
0
LINE
8
BLACK
6
CONTINUOUS
10
181.469
20
-92.156
11
181.072
21
-91.96
0
LINE
8
BLACK
6
CONTINUOUS
10
181.072
20
-91.96
11
180.658
21
-91.8001
0
LINE
8
BLACK
6
CONTINUOUS
10
180.658
20
-91.8001
11
180.233
21
-91.6776
0
LINE
8
BLACK
6
CONTINUOUS
10
180.233
20
-91.6776
11
179.797
21
-91.5934
0
LINE
8
BLACK
6
CONTINUOUS
10
179.797
20
-91.5934
11
179.357
21
-91.5482
0
LINE
8
BLACK
6
CONTINUOUS
10
179.357
20
-91.5482
11
178.914
21
-91.5424
0
LINE
8
BLACK
6
CONTINUOUS
10
178.914
20
-91.5424
11
178.472
21
-91.5761
0
LINE
8
BLACK
6
CONTINUOUS
10
178.472
20
-91.5761
11
178.035
21
-91.6488
0
LINE
8
BLACK
6
CONTINUOUS
10
178.035
20
-91.6488
11
177.606
21
-91.7601
0
LINE
8
BLACK
6
CONTINUOUS
10
177.606
20
-91.7601
11
177.188
21
-91.9092
0
LINE
8
BLACK
6
CONTINUOUS
10
177.188
20
-91.9092
11
176.786
21
-92.0947
0
LINE
8
BLACK
6
CONTINUOUS
10
176.786
20
-92.0947
11
176.402
21
-92.3152
0
LINE
8
BLACK
6
CONTINUOUS
10
176.402
20
-92.3152
11
176.038
21
-92.5691
0
LINE
8
BLACK
6
CONTINUOUS
10
176.038
20
-92.5691
11
175.699
21
-92.8542
0
LINE
8
BLACK
6
CONTINUOUS
10
175.699
20
-92.8542
11
175.387
21
-93.1684
0
LINE
8
BLACK
6
CONTINUOUS
10
175.387
20
-93.1684
11
175.103
21
-93.5091
0
LINE
8
BLACK
6
CONTINUOUS
10
175.103
20
-93.5091
11
174.851
21
-93.8736
0
LINE
8
BLACK
6
CONTINUOUS
10
174.851
20
-93.8736
11
174.633
21
-94.2591
0
LINE
8
BLACK
6
CONTINUOUS
10
174.633
20
-94.2591
11
174.449
21
-94.6625
0
LINE
8
BLACK
6
CONTINUOUS
10
174.449
20
-94.6625
11
174.303
21
-95.0806
0
LINE
8
BLACK
6
CONTINUOUS
10
174.303
20
-95.0806
11
174.193
21
-95.5101
0
LINE
8
BLACK
6
CONTINUOUS
10
174.193
20
-95.5101
11
174.123
21
-95.9476
0
LINE
8
BLACK
6
CONTINUOUS
10
174.123
20
-95.9476
11
174.092
21
-96.3896
0
LINE
8
BLACK
6
CONTINUOUS
10
174.092
20
-96.3896
11
174.1
21
-96.8327
0
LINE
8
BLACK
6
CONTINUOUS
10
174.1
20
-96.8327
11
174.147
21
-97.2733
0
LINE
8
BLACK
6
CONTINUOUS
10
119.468
20
-95.9424
11
119.539
21
-95.501
0
LINE
8
BLACK
6
CONTINUOUS
10
119.539
20
-95.501
11
119.649
21
-95.0676
0
LINE
8
BLACK
6
CONTINUOUS
10
119.649
20
-95.0676
11
119.798
21
-94.6457
0
LINE
8
BLACK
6
CONTINUOUS
10
119.798
20
-94.6457
11
119.983
21
-94.2387
0
LINE
8
BLACK
6
CONTINUOUS
10
119.983
20
-94.2387
11
120.203
21
-93.8497
0
LINE
8
BLACK
6
CONTINUOUS
10
120.203
20
-93.8497
11
120.457
21
-93.4819
0
LINE
8
BLACK
6
CONTINUOUS
10
120.457
20
-93.4819
11
120.743
21
-93.1381
0
LINE
8
BLACK
6
CONTINUOUS
10
120.743
20
-93.1381
11
121.059
21
-92.8211
0
LINE
8
BLACK
6
CONTINUOUS
10
121.059
20
-92.8211
11
121.401
21
-92.5334
0
LINE
8
BLACK
6
CONTINUOUS
10
121.401
20
-92.5334
11
121.767
21
-92.2773
0
LINE
8
BLACK
6
CONTINUOUS
10
121.767
20
-92.2773
11
122.155
21
-92.0547
0
LINE
8
BLACK
6
CONTINUOUS
10
122.155
20
-92.0547
11
122.561
21
-91.8675
0
LINE
8
BLACK
6
CONTINUOUS
10
122.561
20
-91.8675
11
122.982
21
-91.7171
0
LINE
8
BLACK
6
CONTINUOUS
10
122.982
20
-91.7171
11
123.415
21
-91.6048
0
LINE
8
BLACK
6
CONTINUOUS
10
123.415
20
-91.6048
11
123.856
21
-91.5314
0
LINE
8
BLACK
6
CONTINUOUS
10
123.856
20
-91.5314
11
124.302
21
-91.4975
0
LINE
8
BLACK
6
CONTINUOUS
10
124.302
20
-91.4975
11
124.749
21
-91.5033
0
LINE
8
BLACK
6
CONTINUOUS
10
124.749
20
-91.5033
11
125.194
21
-91.5489
0
LINE
8
BLACK
6
CONTINUOUS
10
125.194
20
-91.5489
11
125.633
21
-91.6338
0
LINE
8
BLACK
6
CONTINUOUS
10
125.633
20
-91.6338
11
126.063
21
-91.7575
0
LINE
8
BLACK
6
CONTINUOUS
10
126.063
20
-91.7575
11
126.48
21
-91.9188
0
LINE
8
BLACK
6
CONTINUOUS
10
126.48
20
-91.9188
11
126.881
21
-92.1166
0
LINE
8
BLACK
6
CONTINUOUS
10
126.881
20
-92.1166
11
127.263
21
-92.3492
0
LINE
8
BLACK
6
CONTINUOUS
10
127.263
20
-92.3492
11
127.622
21
-92.6148
0
LINE
8
BLACK
6
CONTINUOUS
10
127.622
20
-92.6148
11
127.957
21
-92.9114
0
LINE
8
BLACK
6
CONTINUOUS
10
127.957
20
-92.9114
11
128.264
21
-93.2366
0
LINE
8
BLACK
6
CONTINUOUS
10
128.264
20
-93.2366
11
128.541
21
-93.5877
0
LINE
8
BLACK
6
CONTINUOUS
10
128.541
20
-93.5877
11
128.785
21
-93.9621
0
LINE
8
BLACK
6
CONTINUOUS
10
128.785
20
-93.9621
11
128.995
21
-94.3567
0
LINE
8
BLACK
6
CONTINUOUS
10
128.995
20
-94.3567
11
129.17
21
-94.7684
0
LINE
8
BLACK
6
CONTINUOUS
10
129.17
20
-94.7684
11
129.307
21
-95.194
0
LINE
8
BLACK
6
CONTINUOUS
10
129.307
20
-95.194
11
129.406
21
-95.6301
0
LINE
8
BLACK
6
CONTINUOUS
10
129.406
20
-95.6301
11
129.465
21
-96.0733
0
LINE
8
BLACK
6
CONTINUOUS
10
129.465
20
-96.0733
11
129.485
21
-96.52
0
LINE
8
BLACK
6
CONTINUOUS
10
129.485
20
-96.52
11
129.478
21
-96.783
0
LINE
8
BLACK
6
CONTINUOUS
10
129.478
20
-96.783
11
129.435
21
-97.228
0
LINE
8
BLACK
6
CONTINUOUS
10
129.435
20
-97.228
11
129.352
21
-97.6675
0
LINE
8
BLACK
6
CONTINUOUS
10
129.352
20
-97.6675
11
129.231
21
-98.0978
0
LINE
8
BLACK
6
CONTINUOUS
10
129.231
20
-98.0978
11
129.072
21
-98.5157
0
LINE
8
BLACK
6
CONTINUOUS
10
129.072
20
-98.5157
11
128.876
21
-98.9177
0
LINE
8
BLACK
6
CONTINUOUS
10
128.876
20
-98.9177
11
128.645
21
-99.3008
0
LINE
8
BLACK
6
CONTINUOUS
10
128.645
20
-99.3008
11
128.382
21
-99.6618
0
LINE
8
BLACK
6
CONTINUOUS
10
128.382
20
-99.6618
11
128.087
21
-99.998
0
LINE
8
BLACK
6
CONTINUOUS
10
128.087
20
-99.998
11
127.763
21
-100.307
0
LINE
8
BLACK
6
CONTINUOUS
10
127.763
20
-100.307
11
127.414
21
-100.585
0
LINE
8
BLACK
6
CONTINUOUS
10
127.414
20
-100.585
11
127.041
21
-100.832
0
LINE
8
BLACK
6
CONTINUOUS
10
127.041
20
-100.832
11
126.647
21
-101.044
0
LINE
8
BLACK
6
CONTINUOUS
10
126.647
20
-101.044
11
126.236
21
-101.221
0
LINE
8
BLACK
6
CONTINUOUS
10
126.236
20
-101.221
11
125.811
21
-101.36
0
LINE
8
BLACK
6
CONTINUOUS
10
125.811
20
-101.36
11
125.376
21
-101.461
0
LINE
8
BLACK
6
CONTINUOUS
10
125.376
20
-101.461
11
124.933
21
-101.523
0
LINE
8
BLACK
6
CONTINUOUS
10
124.933
20
-101.523
11
124.486
21
-101.545
0
LINE
8
BLACK
6
CONTINUOUS
10
124.486
20
-101.545
11
124.04
21
-101.527
0
LINE
8
BLACK
6
CONTINUOUS
10
124.04
20
-101.527
11
123.596
21
-101.47
0
LINE
8
BLACK
6
CONTINUOUS
10
123.596
20
-101.47
11
123.159
21
-101.374
0
LINE
8
BLACK
6
CONTINUOUS
10
123.159
20
-101.374
11
122.733
21
-101.239
0
LINE
8
BLACK
6
CONTINUOUS
10
122.733
20
-101.239
11
122.32
21
-101.067
0
LINE
8
BLACK
6
CONTINUOUS
10
122.32
20
-101.067
11
121.925
21
-100.859
0
LINE
8
BLACK
6
CONTINUOUS
10
121.925
20
-100.859
11
121.549
21
-100.616
0
LINE
8
BLACK
6
CONTINUOUS
10
121.549
20
-100.616
11
121.197
21
-100.341
0
LINE
8
BLACK
6
CONTINUOUS
10
121.197
20
-100.341
11
120.87
21
-100.036
0
LINE
8
BLACK
6
CONTINUOUS
10
120.87
20
-100.036
11
120.571
21
-99.7027
0
LINE
8
BLACK
6
CONTINUOUS
10
120.571
20
-99.7027
11
120.304
21
-99.3445
0
LINE
8
BLACK
6
CONTINUOUS
10
120.304
20
-99.3445
11
120.069
21
-98.9638
0
LINE
8
BLACK
6
CONTINUOUS
10
120.069
20
-98.9638
11
119.869
21
-98.5639
0
LINE
8
BLACK
6
CONTINUOUS
10
119.869
20
-98.5639
11
119.706
21
-98.1477
0
LINE
8
BLACK
6
CONTINUOUS
10
119.706
20
-98.1477
11
119.58
21
-97.7186
0
LINE
8
BLACK
6
CONTINUOUS
10
119.58
20
-97.7186
11
119.493
21
-97.2801
0
LINE
8
BLACK
6
CONTINUOUS
10
119.493
20
-97.2801
11
119.445
21
-96.8355
0
LINE
8
BLACK
6
CONTINUOUS
10
119.445
20
-96.8355
11
119.437
21
-96.3896
0
LINE
8
BLACK
6
CONTINUOUS
10
119.437
20
-96.3896
11
119.437
21
-96.3885
0
LINE
8
BLACK
6
CONTINUOUS
10
119.437
20
-96.3885
11
119.468
21
-95.9424
0
LINE
8
BLACK
6
CONTINUOUS
10
119.537
20
-97.2733
11
119.624
21
-97.7079
0
LINE
8
BLACK
6
CONTINUOUS
10
119.624
20
-97.7079
11
119.748
21
-98.1331
0
LINE
8
BLACK
6
CONTINUOUS
10
119.748
20
-98.1331
11
119.911
21
-98.5456
0
LINE
8
BLACK
6
CONTINUOUS
10
119.911
20
-98.5456
11
120.109
21
-98.942
0
LINE
8
BLACK
6
CONTINUOUS
10
120.109
20
-98.942
11
120.341
21
-99.3192
0
LINE
8
BLACK
6
CONTINUOUS
10
120.341
20
-99.3192
11
120.606
21
-99.6742
0
LINE
8
BLACK
6
CONTINUOUS
10
120.606
20
-99.6742
11
120.902
21
-100.004
0
LINE
8
BLACK
6
CONTINUOUS
10
120.902
20
-100.004
11
121.226
21
-100.307
0
LINE
8
BLACK
6
CONTINUOUS
10
121.226
20
-100.307
11
121.575
21
-100.579
0
LINE
8
BLACK
6
CONTINUOUS
10
121.575
20
-100.579
11
121.947
21
-100.82
0
LINE
8
BLACK
6
CONTINUOUS
10
121.947
20
-100.82
11
122.34
21
-101.026
0
LINE
8
BLACK
6
CONTINUOUS
10
122.34
20
-101.026
11
122.749
21
-101.197
0
LINE
8
BLACK
6
CONTINUOUS
10
122.749
20
-101.197
11
123.171
21
-101.33
0
LINE
8
BLACK
6
CONTINUOUS
10
123.171
20
-101.33
11
123.604
21
-101.426
0
LINE
8
BLACK
6
CONTINUOUS
10
123.604
20
-101.426
11
124.043
21
-101.483
0
LINE
8
BLACK
6
CONTINUOUS
10
124.043
20
-101.483
11
124.486
21
-101.5
0
LINE
8
BLACK
6
CONTINUOUS
10
124.486
20
-101.5
11
124.929
21
-101.478
0
LINE
8
BLACK
6
CONTINUOUS
10
124.929
20
-101.478
11
125.368
21
-101.417
0
LINE
8
BLACK
6
CONTINUOUS
10
125.368
20
-101.417
11
125.799
21
-101.317
0
LINE
8
BLACK
6
CONTINUOUS
10
125.799
20
-101.317
11
126.22
21
-101.179
0
LINE
8
BLACK
6
CONTINUOUS
10
126.22
20
-101.179
11
126.627
21
-101.004
0
LINE
8
BLACK
6
CONTINUOUS
10
126.627
20
-101.004
11
127.017
21
-100.793
0
LINE
8
BLACK
6
CONTINUOUS
10
127.017
20
-100.793
11
127.387
21
-100.549
0
LINE
8
BLACK
6
CONTINUOUS
10
127.387
20
-100.549
11
127.734
21
-100.273
0
LINE
8
BLACK
6
CONTINUOUS
10
127.734
20
-100.273
11
128.054
21
-99.9669
0
LINE
8
BLACK
6
CONTINUOUS
10
128.054
20
-99.9669
11
128.347
21
-99.6337
0
LINE
8
BLACK
6
CONTINUOUS
10
128.347
20
-99.6337
11
128.608
21
-99.2759
0
LINE
8
BLACK
6
CONTINUOUS
10
128.608
20
-99.2759
11
128.837
21
-98.8963
0
LINE
8
BLACK
6
CONTINUOUS
10
128.837
20
-98.8963
11
129.03
21
-98.4978
0
LINE
8
BLACK
6
CONTINUOUS
10
129.03
20
-98.4978
11
129.188
21
-98.0837
0
LINE
8
BLACK
6
CONTINUOUS
10
129.188
20
-98.0837
11
129.308
21
-97.6572
0
LINE
8
BLACK
6
CONTINUOUS
10
129.308
20
-97.6572
11
129.39
21
-97.2217
0
LINE
8
BLACK
6
CONTINUOUS
10
129.39
20
-97.2217
11
129.433
21
-96.7806
0
LINE
8
BLACK
6
CONTINUOUS
10
129.433
20
-96.7806
11
129.44
21
-96.52
0
LINE
8
BLACK
6
CONTINUOUS
10
129.44
20
-96.52
11
129.42
21
-96.0773
0
LINE
8
BLACK
6
CONTINUOUS
10
129.42
20
-96.0773
11
129.361
21
-95.6381
0
LINE
8
BLACK
6
CONTINUOUS
10
129.361
20
-95.6381
11
129.264
21
-95.2059
0
LINE
8
BLACK
6
CONTINUOUS
10
129.264
20
-95.2059
11
129.128
21
-94.7841
0
LINE
8
BLACK
6
CONTINUOUS
10
129.128
20
-94.7841
11
128.955
21
-94.376
0
LINE
8
BLACK
6
CONTINUOUS
10
128.955
20
-94.376
11
128.747
21
-93.985
0
LINE
8
BLACK
6
CONTINUOUS
10
128.747
20
-93.985
11
128.504
21
-93.614
0
LINE
8
BLACK
6
CONTINUOUS
10
128.504
20
-93.614
11
128.23
21
-93.266
0
LINE
8
BLACK
6
CONTINUOUS
10
128.23
20
-93.266
11
127.926
21
-92.9437
0
LINE
8
BLACK
6
CONTINUOUS
10
127.926
20
-92.9437
11
127.594
21
-92.6498
0
LINE
8
BLACK
6
CONTINUOUS
10
127.594
20
-92.6498
11
127.238
21
-92.3865
0
LINE
8
BLACK
6
CONTINUOUS
10
127.238
20
-92.3865
11
126.859
21
-92.156
0
LINE
8
BLACK
6
CONTINUOUS
10
126.859
20
-92.156
11
126.462
21
-91.96
0
LINE
8
BLACK
6
CONTINUOUS
10
126.462
20
-91.96
11
126.048
21
-91.8001
0
LINE
8
BLACK
6
CONTINUOUS
10
126.048
20
-91.8001
11
125.623
21
-91.6776
0
LINE
8
BLACK
6
CONTINUOUS
10
125.623
20
-91.6776
11
125.187
21
-91.5934
0
LINE
8
BLACK
6
CONTINUOUS
10
125.187
20
-91.5934
11
124.747
21
-91.5482
0
LINE
8
BLACK
6
CONTINUOUS
10
124.747
20
-91.5482
11
124.304
21
-91.5424
0
LINE
8
BLACK
6
CONTINUOUS
10
124.304
20
-91.5424
11
123.862
21
-91.5761
0
LINE
8
BLACK
6
CONTINUOUS
10
123.862
20
-91.5761
11
123.425
21
-91.6488
0
LINE
8
BLACK
6
CONTINUOUS
10
123.425
20
-91.6488
11
122.996
21
-91.7601
0
LINE
8
BLACK
6
CONTINUOUS
10
122.996
20
-91.7601
11
122.578
21
-91.9092
0
LINE
8
BLACK
6
CONTINUOUS
10
122.578
20
-91.9092
11
122.176
21
-92.0947
0
LINE
8
BLACK
6
CONTINUOUS
10
122.176
20
-92.0947
11
121.792
21
-92.3152
0
LINE
8
BLACK
6
CONTINUOUS
10
121.792
20
-92.3152
11
121.428
21
-92.5691
0
LINE
8
BLACK
6
CONTINUOUS
10
121.428
20
-92.5691
11
121.089
21
-92.8542
0
LINE
8
BLACK
6
CONTINUOUS
10
121.089
20
-92.8542
11
120.777
21
-93.1684
0
LINE
8
BLACK
6
CONTINUOUS
10
120.777
20
-93.1684
11
120.493
21
-93.5091
0
LINE
8
BLACK
6
CONTINUOUS
10
120.493
20
-93.5091
11
120.241
21
-93.8736
0
LINE
8
BLACK
6
CONTINUOUS
10
120.241
20
-93.8736
11
120.023
21
-94.2591
0
LINE
8
BLACK
6
CONTINUOUS
10
120.023
20
-94.2591
11
119.839
21
-94.6625
0
LINE
8
BLACK
6
CONTINUOUS
10
119.839
20
-94.6625
11
119.693
21
-95.0806
0
LINE
8
BLACK
6
CONTINUOUS
10
119.693
20
-95.0806
11
119.583
21
-95.5101
0
LINE
8
BLACK
6
CONTINUOUS
10
119.583
20
-95.5101
11
119.513
21
-95.9476
0
LINE
8
BLACK
6
CONTINUOUS
10
119.513
20
-95.9476
11
119.482
21
-96.3896
0
LINE
8
BLACK
6
CONTINUOUS
10
119.482
20
-96.3896
11
119.49
21
-96.8327
0
LINE
8
BLACK
6
CONTINUOUS
10
119.49
20
-96.8327
11
119.537
21
-97.2733
0
LINE
8
BLACK
6
CONTINUOUS
10
154.139
20
-94.4438
11
154.21
21
-94.0024
0
LINE
8
BLACK
6
CONTINUOUS
10
154.21
20
-94.0024
11
154.32
21
-93.569
0
LINE
8
BLACK
6
CONTINUOUS
10
154.32
20
-93.569
11
154.469
21
-93.1471
0
LINE
8
BLACK
6
CONTINUOUS
10
154.469
20
-93.1471
11
154.654
21
-92.7401
0
LINE
8
BLACK
6
CONTINUOUS
10
154.654
20
-92.7401
11
154.874
21
-92.3511
0
LINE
8
BLACK
6
CONTINUOUS
10
154.874
20
-92.3511
11
155.128
21
-91.9833
0
LINE
8
BLACK
6
CONTINUOUS
10
155.128
20
-91.9833
11
155.414
21
-91.6395
0
LINE
8
BLACK
6
CONTINUOUS
10
155.414
20
-91.6395
11
155.73
21
-91.3225
0
LINE
8
BLACK
6
CONTINUOUS
10
155.73
20
-91.3225
11
156.072
21
-91.0348
0
LINE
8
BLACK
6
CONTINUOUS
10
156.072
20
-91.0348
11
156.438
21
-90.7787
0
LINE
8
BLACK
6
CONTINUOUS
10
156.438
20
-90.7787
11
156.826
21
-90.5561
0
LINE
8
BLACK
6
CONTINUOUS
10
156.826
20
-90.5561
11
157.232
21
-90.3689
0
LINE
8
BLACK
6
CONTINUOUS
10
157.232
20
-90.3689
11
157.653
21
-90.2185
0
LINE
8
BLACK
6
CONTINUOUS
10
157.653
20
-90.2185
11
158.086
21
-90.1062
0
LINE
8
BLACK
6
CONTINUOUS
10
158.086
20
-90.1062
11
158.527
21
-90.0328
0
LINE
8
BLACK
6
CONTINUOUS
10
158.527
20
-90.0328
11
158.973
21
-89.9989
0
LINE
8
BLACK
6
CONTINUOUS
10
158.973
20
-89.9989
11
159.42
21
-90.0047
0
LINE
8
BLACK
6
CONTINUOUS
10
159.42
20
-90.0047
11
159.865
21
-90.0503
0
LINE
8
BLACK
6
CONTINUOUS
10
159.865
20
-90.0503
11
160.304
21
-90.1352
0
LINE
8
BLACK
6
CONTINUOUS
10
160.304
20
-90.1352
11
160.734
21
-90.2589
0
LINE
8
BLACK
6
CONTINUOUS
10
160.734
20
-90.2589
11
161.151
21
-90.4202
0
LINE
8
BLACK
6
CONTINUOUS
10
161.151
20
-90.4202
11
161.552
21
-90.618
0
LINE
8
BLACK
6
CONTINUOUS
10
161.552
20
-90.618
11
161.934
21
-90.8506
0
LINE
8
BLACK
6
CONTINUOUS
10
161.934
20
-90.8506
11
162.293
21
-91.1162
0
LINE
8
BLACK
6
CONTINUOUS
10
162.293
20
-91.1162
11
162.628
21
-91.4128
0
LINE
8
BLACK
6
CONTINUOUS
10
162.628
20
-91.4128
11
162.935
21
-91.738
0
LINE
8
BLACK
6
CONTINUOUS
10
162.935
20
-91.738
11
163.212
21
-92.0891
0
LINE
8
BLACK
6
CONTINUOUS
10
163.212
20
-92.0891
11
163.456
21
-92.4635
0
LINE
8
BLACK
6
CONTINUOUS
10
163.456
20
-92.4635
11
163.666
21
-92.8581
0
LINE
8
BLACK
6
CONTINUOUS
10
163.666
20
-92.8581
11
163.841
21
-93.2698
0
LINE
8
BLACK
6
CONTINUOUS
10
163.841
20
-93.2698
11
163.978
21
-93.6954
0
LINE
8
BLACK
6
CONTINUOUS
10
163.978
20
-93.6954
11
164.077
21
-94.1315
0
LINE
8
BLACK
6
CONTINUOUS
10
164.077
20
-94.1315
11
164.136
21
-94.5747
0
LINE
8
BLACK
6
CONTINUOUS
10
164.136
20
-94.5747
11
164.156
21
-95.0214
0
LINE
8
BLACK
6
CONTINUOUS
10
164.156
20
-95.0214
11
164.149
21
-95.2844
0
LINE
8
BLACK
6
CONTINUOUS
10
164.149
20
-95.2844
11
164.106
21
-95.7294
0
LINE
8
BLACK
6
CONTINUOUS
10
164.106
20
-95.7294
11
164.023
21
-96.1689
0
LINE
8
BLACK
6
CONTINUOUS
10
164.023
20
-96.1689
11
163.902
21
-96.5992
0
LINE
8
BLACK
6
CONTINUOUS
10
163.902
20
-96.5992
11
163.743
21
-97.0171
0
LINE
8
BLACK
6
CONTINUOUS
10
163.743
20
-97.0171
11
163.547
21
-97.4191
0
LINE
8
BLACK
6
CONTINUOUS
10
163.547
20
-97.4191
11
163.316
21
-97.8022
0
LINE
8
BLACK
6
CONTINUOUS
10
163.316
20
-97.8022
11
163.053
21
-98.1632
0
LINE
8
BLACK
6
CONTINUOUS
10
163.053
20
-98.1632
11
162.758
21
-98.4994
0
LINE
8
BLACK
6
CONTINUOUS
10
162.758
20
-98.4994
11
162.434
21
-98.8081
0
LINE
8
BLACK
6
CONTINUOUS
10
162.434
20
-98.8081
11
162.085
21
-99.0867
0
LINE
8
BLACK
6
CONTINUOUS
10
162.085
20
-99.0867
11
161.712
21
-99.3332
0
LINE
8
BLACK
6
CONTINUOUS
10
161.712
20
-99.3332
11
161.318
21
-99.5455
0
LINE
8
BLACK
6
CONTINUOUS
10
161.318
20
-99.5455
11
160.907
21
-99.722
0
LINE
8
BLACK
6
CONTINUOUS
10
160.907
20
-99.722
11
160.482
21
-99.8613
0
LINE
8
BLACK
6
CONTINUOUS
10
160.482
20
-99.8613
11
160.047
21
-99.9623
0
LINE
8
BLACK
6
CONTINUOUS
10
160.047
20
-99.9623
11
159.604
21
-100.024
0
LINE
8
BLACK
6
CONTINUOUS
10
159.604
20
-100.024
11
159.157
21
-100.046
0
LINE
8
BLACK
6
CONTINUOUS
10
159.157
20
-100.046
11
158.711
21
-100.029
0
LINE
8
BLACK
6
CONTINUOUS
10
158.711
20
-100.029
11
158.267
21
-99.9716
0
LINE
8
BLACK
6
CONTINUOUS
10
158.267
20
-99.9716
11
157.83
21
-99.8752
0
LINE
8
BLACK
6
CONTINUOUS
10
157.83
20
-99.8752
11
157.404
21
-99.7403
0
LINE
8
BLACK
6
CONTINUOUS
10
157.404
20
-99.7403
11
156.991
21
-99.5682
0
LINE
8
BLACK
6
CONTINUOUS
10
156.991
20
-99.5682
11
156.596
21
-99.36
0
LINE
8
BLACK
6
CONTINUOUS
10
156.596
20
-99.36
11
156.22
21
-99.1174
0
LINE
8
BLACK
6
CONTINUOUS
10
156.22
20
-99.1174
11
155.868
21
-98.8424
0
LINE
8
BLACK
6
CONTINUOUS
10
155.868
20
-98.8424
11
155.541
21
-98.5372
0
LINE
8
BLACK
6
CONTINUOUS
10
155.541
20
-98.5372
11
155.242
21
-98.2041
0
LINE
8
BLACK
6
CONTINUOUS
10
155.242
20
-98.2041
11
154.975
21
-97.8459
0
LINE
8
BLACK
6
CONTINUOUS
10
154.975
20
-97.8459
11
154.74
21
-97.4652
0
LINE
8
BLACK
6
CONTINUOUS
10
154.74
20
-97.4652
11
154.54
21
-97.0653
0
LINE
8
BLACK
6
CONTINUOUS
10
154.54
20
-97.0653
11
154.377
21
-96.6491
0
LINE
8
BLACK
6
CONTINUOUS
10
154.377
20
-96.6491
11
154.251
21
-96.22
0
LINE
8
BLACK
6
CONTINUOUS
10
154.251
20
-96.22
11
154.164
21
-95.7815
0
LINE
8
BLACK
6
CONTINUOUS
10
154.164
20
-95.7815
11
154.116
21
-95.3369
0
LINE
8
BLACK
6
CONTINUOUS
10
154.116
20
-95.3369
11
154.108
21
-94.891
0
LINE
8
BLACK
6
CONTINUOUS
10
154.108
20
-94.891
11
154.108
21
-94.8899
0
LINE
8
BLACK
6
CONTINUOUS
10
154.108
20
-94.8899
11
154.139
21
-94.4438
0
LINE
8
BLACK
6
CONTINUOUS
10
154.208
20
-95.7747
11
154.295
21
-96.2093
0
LINE
8
BLACK
6
CONTINUOUS
10
154.295
20
-96.2093
11
154.419
21
-96.6345
0
LINE
8
BLACK
6
CONTINUOUS
10
154.419
20
-96.6345
11
154.582
21
-97.047
0
LINE
8
BLACK
6
CONTINUOUS
10
154.582
20
-97.047
11
154.78
21
-97.4434
0
LINE
8
BLACK
6
CONTINUOUS
10
154.78
20
-97.4434
11
155.012
21
-97.8206
0
LINE
8
BLACK
6
CONTINUOUS
10
155.012
20
-97.8206
11
155.277
21
-98.1756
0
LINE
8
BLACK
6
CONTINUOUS
10
155.277
20
-98.1756
11
155.573
21
-98.5057
0
LINE
8
BLACK
6
CONTINUOUS
10
155.573
20
-98.5057
11
155.897
21
-98.8082
0
LINE
8
BLACK
6
CONTINUOUS
10
155.897
20
-98.8082
11
156.246
21
-99.0807
0
LINE
8
BLACK
6
CONTINUOUS
10
156.246
20
-99.0807
11
156.618
21
-99.3211
0
LINE
8
BLACK
6
CONTINUOUS
10
156.618
20
-99.3211
11
157.011
21
-99.5275
0
LINE
8
BLACK
6
CONTINUOUS
10
157.011
20
-99.5275
11
157.42
21
-99.6981
0
LINE
8
BLACK
6
CONTINUOUS
10
157.42
20
-99.6981
11
157.842
21
-99.8317
0
LINE
8
BLACK
6
CONTINUOUS
10
157.842
20
-99.8317
11
158.275
21
-99.9273
0
LINE
8
BLACK
6
CONTINUOUS
10
158.275
20
-99.9273
11
158.714
21
-99.9839
0
LINE
8
BLACK
6
CONTINUOUS
10
158.714
20
-99.9839
11
159.157
21
-100.001
0
LINE
8
BLACK
6
CONTINUOUS
10
159.157
20
-100.001
11
159.6
21
-99.9793
0
LINE
8
BLACK
6
CONTINUOUS
10
159.6
20
-99.9793
11
160.039
21
-99.918
0
LINE
8
BLACK
6
CONTINUOUS
10
160.039
20
-99.918
11
160.47
21
-99.818
0
LINE
8
BLACK
6
CONTINUOUS
10
160.47
20
-99.818
11
160.891
21
-99.6799
0
LINE
8
BLACK
6
CONTINUOUS
10
160.891
20
-99.6799
11
161.298
21
-99.505
0
LINE
8
BLACK
6
CONTINUOUS
10
161.298
20
-99.505
11
161.688
21
-99.2946
0
LINE
8
BLACK
6
CONTINUOUS
10
161.688
20
-99.2946
11
162.058
21
-99.0503
0
LINE
8
BLACK
6
CONTINUOUS
10
162.058
20
-99.0503
11
162.405
21
-98.7742
0
LINE
8
BLACK
6
CONTINUOUS
10
162.405
20
-98.7742
11
162.725
21
-98.4683
0
LINE
8
BLACK
6
CONTINUOUS
10
162.725
20
-98.4683
11
163.018
21
-98.1351
0
LINE
8
BLACK
6
CONTINUOUS
10
163.018
20
-98.1351
11
163.279
21
-97.7773
0
LINE
8
BLACK
6
CONTINUOUS
10
163.279
20
-97.7773
11
163.508
21
-97.3977
0
LINE
8
BLACK
6
CONTINUOUS
10
163.508
20
-97.3977
11
163.701
21
-96.9992
0
LINE
8
BLACK
6
CONTINUOUS
10
163.701
20
-96.9992
11
163.859
21
-96.5851
0
LINE
8
BLACK
6
CONTINUOUS
10
163.859
20
-96.5851
11
163.979
21
-96.1586
0
LINE
8
BLACK
6
CONTINUOUS
10
163.979
20
-96.1586
11
164.061
21
-95.7231
0
LINE
8
BLACK
6
CONTINUOUS
10
164.061
20
-95.7231
11
164.104
21
-95.282
0
LINE
8
BLACK
6
CONTINUOUS
10
164.104
20
-95.282
11
164.111
21
-95.0214
0
LINE
8
BLACK
6
CONTINUOUS
10
164.111
20
-95.0214
11
164.091
21
-94.5787
0
LINE
8
BLACK
6
CONTINUOUS
10
164.091
20
-94.5787
11
164.032
21
-94.1395
0
LINE
8
BLACK
6
CONTINUOUS
10
164.032
20
-94.1395
11
163.935
21
-93.7073
0
LINE
8
BLACK
6
CONTINUOUS
10
163.935
20
-93.7073
11
163.799
21
-93.2855
0
LINE
8
BLACK
6
CONTINUOUS
10
163.799
20
-93.2855
11
163.626
21
-92.8774
0
LINE
8
BLACK
6
CONTINUOUS
10
163.626
20
-92.8774
11
163.418
21
-92.4864
0
LINE
8
BLACK
6
CONTINUOUS
10
163.418
20
-92.4864
11
163.175
21
-92.1154
0
LINE
8
BLACK
6
CONTINUOUS
10
163.175
20
-92.1154
11
162.901
21
-91.7674
0
LINE
8
BLACK
6
CONTINUOUS
10
162.901
20
-91.7674
11
162.597
21
-91.4451
0
LINE
8
BLACK
6
CONTINUOUS
10
162.597
20
-91.4451
11
162.265
21
-91.1512
0
LINE
8
BLACK
6
CONTINUOUS
10
162.265
20
-91.1512
11
161.909
21
-90.8879
0
LINE
8
BLACK
6
CONTINUOUS
10
161.909
20
-90.8879
11
161.53
21
-90.6574
0
LINE
8
BLACK
6
CONTINUOUS
10
161.53
20
-90.6574
11
161.133
21
-90.4614
0
LINE
8
BLACK
6
CONTINUOUS
10
161.133
20
-90.4614
11
160.719
21
-90.3015
0
LINE
8
BLACK
6
CONTINUOUS
10
160.719
20
-90.3015
11
160.294
21
-90.179
0
LINE
8
BLACK
6
CONTINUOUS
10
160.294
20
-90.179
11
159.858
21
-90.0948
0
LINE
8
BLACK
6
CONTINUOUS
10
159.858
20
-90.0948
11
159.418
21
-90.0496
0
LINE
8
BLACK
6
CONTINUOUS
10
159.418
20
-90.0496
11
158.975
21
-90.0438
0
LINE
8
BLACK
6
CONTINUOUS
10
158.975
20
-90.0438
11
158.533
21
-90.0775
0
LINE
8
BLACK
6
CONTINUOUS
10
158.533
20
-90.0775
11
158.096
21
-90.1502
0
LINE
8
BLACK
6
CONTINUOUS
10
158.096
20
-90.1502
11
157.667
21
-90.2615
0
LINE
8
BLACK
6
CONTINUOUS
10
157.667
20
-90.2615
11
157.249
21
-90.4106
0
LINE
8
BLACK
6
CONTINUOUS
10
157.249
20
-90.4106
11
156.847
21
-90.5961
0
LINE
8
BLACK
6
CONTINUOUS
10
156.847
20
-90.5961
11
156.463
21
-90.8166
0
LINE
8
BLACK
6
CONTINUOUS
10
156.463
20
-90.8166
11
156.099
21
-91.0705
0
LINE
8
BLACK
6
CONTINUOUS
10
156.099
20
-91.0705
11
155.76
21
-91.3556
0
LINE
8
BLACK
6
CONTINUOUS
10
155.76
20
-91.3556
11
155.448
21
-91.6698
0
LINE
8
BLACK
6
CONTINUOUS
10
155.448
20
-91.6698
11
155.164
21
-92.0105
0
LINE
8
BLACK
6
CONTINUOUS
10
155.164
20
-92.0105
11
154.912
21
-92.375
0
LINE
8
BLACK
6
CONTINUOUS
10
154.912
20
-92.375
11
154.694
21
-92.7605
0
LINE
8
BLACK
6
CONTINUOUS
10
154.694
20
-92.7605
11
154.51
21
-93.1639
0
LINE
8
BLACK
6
CONTINUOUS
10
154.51
20
-93.1639
11
154.364
21
-93.582
0
LINE
8
BLACK
6
CONTINUOUS
10
154.364
20
-93.582
11
154.254
21
-94.0115
0
LINE
8
BLACK
6
CONTINUOUS
10
154.254
20
-94.0115
11
154.184
21
-94.449
0
LINE
8
BLACK
6
CONTINUOUS
10
154.184
20
-94.449
11
154.153
21
-94.891
0
LINE
8
BLACK
6
CONTINUOUS
10
154.153
20
-94.891
11
154.161
21
-95.3341
0
LINE
8
BLACK
6
CONTINUOUS
10
154.161
20
-95.3341
11
154.208
21
-95.7747
  0
ENDSEC
  0
EOF
