  0
SECTION
  2
HEADER
  9
$ANGBASE
  50
0.0
  9
$ANGDIR
  70
1
  9
$MEASUREMENT
  70
1
  0
ENDSEC
  0
SECTION
  2
TABLES
  0
TABLE
  2
LTYPE
  70
4
  0
LTYPE
  5
40F
  2
CONTINUOUS
  70
0
  3
Solid line
  72
65
  73
0
  40
0.0
  0
LTYPE
  5
410
  2
DASHDOT
 70
0
  3
Dash Dot ____ _ ____ _
 72
65
 73
4
 40
2.0
 49
1.25
 49
-0.25
 49
0.25
 49
-0.25
  0
LTYPE
  5
411
  2
DASHED
 70
0
  3
Dashed __ __ __ __ __
 72
65
 73
2
 40
0.75
 49
0.5
 49
-0.25
  0
LTYPE
  5
43B
  2
DOTTED
 70
0
  3
Dotted .  .  .  .
 72
65
 73
2
 40
0.2
 49
0.0
 49
-0.2
  0
ENDTAB
  0
TABLE
  2
STYLE
  70
4
  0
STYLE
  2
KICAD
  70
0
  40
0
  41
1
  42
1
  50
0
  71
0
  3
isocp.shx
  0
STYLE
  2
KICADB
  70
0
  40
0
  41
1
  42
1
  50
0
  71
0
  3
isocp.shx
  0
STYLE
  2
KICADI
  70
0
  40
0
  41
1
  42
1
  50
15
  71
0
  3
isocp.shx
  0
STYLE
  2
KICADBI
  70
0
  40
0
  41
1
  42
1
  50
15
  71
0
  3
isocp.shx
  0
ENDTAB
  0
TABLE
  2
LAYER
  70
1
  0
LAYER
  2
BLACK
  70
0
  62
7
  6
CONTINUOUS
  0
ENDTAB
  0
ENDSEC
  0
SECTION
  2
ENTITIES
0
LINE
8
BLACK
6
CONTINUOUS
10
159.426
20
-106.408
11
159.657
21
-106.471
0
LINE
8
BLACK
6
CONTINUOUS
10
159.657
20
-106.471
11
159.877
21
-106.569
0
LINE
8
BLACK
6
CONTINUOUS
10
159.877
20
-106.569
11
160.079
21
-106.698
0
LINE
8
BLACK
6
CONTINUOUS
10
160.079
20
-106.698
11
160.258
21
-106.857
0
LINE
8
BLACK
6
CONTINUOUS
10
160.258
20
-106.857
11
160.412
21
-107.042
0
LINE
8
BLACK
6
CONTINUOUS
10
160.412
20
-107.042
11
160.535
21
-107.248
0
LINE
8
BLACK
6
CONTINUOUS
10
160.535
20
-107.248
11
160.535
21
-107.248
0
LINE
8
BLACK
6
CONTINUOUS
10
160.535
20
-107.248
11
160.551
21
-107.324
0
LINE
8
BLACK
6
CONTINUOUS
10
160.551
20
-107.324
11
160.526
21
-107.398
0
LINE
8
BLACK
6
CONTINUOUS
10
160.526
20
-107.398
11
160.468
21
-107.449
0
LINE
8
BLACK
6
CONTINUOUS
10
160.468
20
-107.449
11
160.392
21
-107.465
0
LINE
8
BLACK
6
CONTINUOUS
10
160.392
20
-107.465
11
160.318
21
-107.44
0
LINE
8
BLACK
6
CONTINUOUS
10
160.318
20
-107.44
11
160.267
21
-107.382
0
LINE
8
BLACK
6
CONTINUOUS
10
160.267
20
-107.382
11
160.264
21
-107.368
0
LINE
8
BLACK
6
CONTINUOUS
10
160.264
20
-107.368
11
160.156
21
-107.192
0
LINE
8
BLACK
6
CONTINUOUS
10
160.156
20
-107.192
11
160.011
21
-107.027
0
LINE
8
BLACK
6
CONTINUOUS
10
160.011
20
-107.027
11
159.839
21
-106.89
0
LINE
8
BLACK
6
CONTINUOUS
10
159.839
20
-106.89
11
159.646
21
-106.784
0
LINE
8
BLACK
6
CONTINUOUS
10
159.646
20
-106.784
11
159.438
21
-106.713
0
LINE
8
BLACK
6
CONTINUOUS
10
159.438
20
-106.713
11
159.221
21
-106.678
0
LINE
8
BLACK
6
CONTINUOUS
10
159.221
20
-106.678
11
159.001
21
-106.682
0
LINE
8
BLACK
6
CONTINUOUS
10
159.001
20
-106.682
11
158.785
21
-106.723
0
LINE
8
BLACK
6
CONTINUOUS
10
158.785
20
-106.723
11
158.579
21
-106.801
0
LINE
8
BLACK
6
CONTINUOUS
10
158.579
20
-106.801
11
158.39
21
-106.913
0
LINE
8
BLACK
6
CONTINUOUS
10
158.39
20
-106.913
11
158.222
21
-107.056
0
LINE
8
BLACK
6
CONTINUOUS
10
158.222
20
-107.056
11
158.082
21
-107.225
0
LINE
8
BLACK
6
CONTINUOUS
10
158.082
20
-107.225
11
157.973
21
-107.417
0
LINE
8
BLACK
6
CONTINUOUS
10
157.973
20
-107.417
11
157.899
21
-107.624
0
LINE
8
BLACK
6
CONTINUOUS
10
157.899
20
-107.624
11
157.861
21
-107.84
0
LINE
8
BLACK
6
CONTINUOUS
10
157.861
20
-107.84
11
157.861
21
-108.06
0
LINE
8
BLACK
6
CONTINUOUS
10
157.861
20
-108.06
11
157.899
21
-108.277
0
LINE
8
BLACK
6
CONTINUOUS
10
157.899
20
-108.277
11
157.973
21
-108.484
0
LINE
8
BLACK
6
CONTINUOUS
10
157.973
20
-108.484
11
158.083
21
-108.675
0
LINE
8
BLACK
6
CONTINUOUS
10
158.083
20
-108.675
11
158.223
21
-108.845
0
LINE
8
BLACK
6
CONTINUOUS
10
158.223
20
-108.845
11
158.39
21
-108.987
0
LINE
8
BLACK
6
CONTINUOUS
10
158.39
20
-108.987
11
158.579
21
-109.099
0
LINE
8
BLACK
6
CONTINUOUS
10
158.579
20
-109.099
11
158.785
21
-109.177
0
LINE
8
BLACK
6
CONTINUOUS
10
158.785
20
-109.177
11
159.001
21
-109.218
0
LINE
8
BLACK
6
CONTINUOUS
10
159.001
20
-109.218
11
159.221
21
-109.222
0
LINE
8
BLACK
6
CONTINUOUS
10
159.221
20
-109.222
11
159.439
21
-109.187
0
LINE
8
BLACK
6
CONTINUOUS
10
159.439
20
-109.187
11
159.647
21
-109.116
0
LINE
8
BLACK
6
CONTINUOUS
10
159.647
20
-109.116
11
159.839
21
-109.01
0
LINE
8
BLACK
6
CONTINUOUS
10
159.839
20
-109.01
11
160.011
21
-108.872
0
LINE
8
BLACK
6
CONTINUOUS
10
160.011
20
-108.872
11
160.157
21
-108.707
0
LINE
8
BLACK
6
CONTINUOUS
10
160.157
20
-108.707
11
160.264
21
-108.531
0
LINE
8
BLACK
6
CONTINUOUS
10
160.264
20
-108.531
11
160.267
21
-108.517
0
LINE
8
BLACK
6
CONTINUOUS
10
160.267
20
-108.517
11
160.319
21
-108.459
0
LINE
8
BLACK
6
CONTINUOUS
10
160.319
20
-108.459
11
160.392
21
-108.435
0
LINE
8
BLACK
6
CONTINUOUS
10
160.392
20
-108.435
11
160.468
21
-108.45
0
LINE
8
BLACK
6
CONTINUOUS
10
160.468
20
-108.45
11
160.526
21
-108.502
0
LINE
8
BLACK
6
CONTINUOUS
10
160.526
20
-108.502
11
160.551
21
-108.575
0
LINE
8
BLACK
6
CONTINUOUS
10
160.551
20
-108.575
11
160.536
21
-108.651
0
LINE
8
BLACK
6
CONTINUOUS
10
160.536
20
-108.651
11
160.536
21
-108.651
0
LINE
8
BLACK
6
CONTINUOUS
10
160.536
20
-108.651
11
160.412
21
-108.857
0
LINE
8
BLACK
6
CONTINUOUS
10
160.412
20
-108.857
11
160.259
21
-109.042
0
LINE
8
BLACK
6
CONTINUOUS
10
160.259
20
-109.042
11
160.079
21
-109.201
0
LINE
8
BLACK
6
CONTINUOUS
10
160.079
20
-109.201
11
159.877
21
-109.331
0
LINE
8
BLACK
6
CONTINUOUS
10
159.877
20
-109.331
11
159.658
21
-109.429
0
LINE
8
BLACK
6
CONTINUOUS
10
159.658
20
-109.429
11
159.427
21
-109.492
0
LINE
8
BLACK
6
CONTINUOUS
10
159.427
20
-109.492
11
159.188
21
-109.519
0
LINE
8
BLACK
6
CONTINUOUS
10
159.188
20
-109.519
11
158.948
21
-109.509
0
LINE
8
BLACK
6
CONTINUOUS
10
158.948
20
-109.509
11
158.713
21
-109.463
0
LINE
8
BLACK
6
CONTINUOUS
10
158.713
20
-109.463
11
158.487
21
-109.382
0
LINE
8
BLACK
6
CONTINUOUS
10
158.487
20
-109.382
11
158.276
21
-109.267
0
LINE
8
BLACK
6
CONTINUOUS
10
158.276
20
-109.267
11
158.085
21
-109.121
0
LINE
8
BLACK
6
CONTINUOUS
10
158.085
20
-109.121
11
157.919
21
-108.948
0
LINE
8
BLACK
6
CONTINUOUS
10
157.919
20
-108.948
11
157.781
21
-108.752
0
LINE
8
BLACK
6
CONTINUOUS
10
157.781
20
-108.752
11
157.675
21
-108.536
0
LINE
8
BLACK
6
CONTINUOUS
10
157.675
20
-108.536
11
157.602
21
-108.308
0
LINE
8
BLACK
6
CONTINUOUS
10
157.602
20
-108.308
11
157.57
21
-108.1
0
LINE
8
BLACK
6
CONTINUOUS
10
157.57
20
-108.1
11
156.591
21
-108.1
0
LINE
8
BLACK
6
CONTINUOUS
10
156.591
20
-108.1
11
156.516
21
-108.08
0
LINE
8
BLACK
6
CONTINUOUS
10
156.516
20
-108.08
11
156.461
21
-108.025
0
LINE
8
BLACK
6
CONTINUOUS
10
156.461
20
-108.025
11
156.441
21
-107.95
0
LINE
8
BLACK
6
CONTINUOUS
10
156.441
20
-107.95
11
156.461
21
-107.875
0
LINE
8
BLACK
6
CONTINUOUS
10
156.461
20
-107.875
11
156.516
21
-107.82
0
LINE
8
BLACK
6
CONTINUOUS
10
156.516
20
-107.82
11
156.591
21
-107.8
0
LINE
8
BLACK
6
CONTINUOUS
10
156.591
20
-107.8
11
157.57
21
-107.8
0
LINE
8
BLACK
6
CONTINUOUS
10
157.57
20
-107.8
11
157.602
21
-107.593
0
LINE
8
BLACK
6
CONTINUOUS
10
157.602
20
-107.593
11
157.674
21
-107.364
0
LINE
8
BLACK
6
CONTINUOUS
10
157.674
20
-107.364
11
157.781
21
-107.149
0
LINE
8
BLACK
6
CONTINUOUS
10
157.781
20
-107.149
11
157.919
21
-106.953
0
LINE
8
BLACK
6
CONTINUOUS
10
157.919
20
-106.953
11
158.085
21
-106.779
0
LINE
8
BLACK
6
CONTINUOUS
10
158.085
20
-106.779
11
158.276
21
-106.634
0
LINE
8
BLACK
6
CONTINUOUS
10
158.276
20
-106.634
11
158.486
21
-106.519
0
LINE
8
BLACK
6
CONTINUOUS
10
158.486
20
-106.519
11
158.712
21
-106.437
0
LINE
8
BLACK
6
CONTINUOUS
10
158.712
20
-106.437
11
158.947
21
-106.391
0
LINE
8
BLACK
6
CONTINUOUS
10
158.947
20
-106.391
11
159.187
21
-106.381
0
LINE
8
BLACK
6
CONTINUOUS
10
159.187
20
-106.381
11
159.426
21
-106.408
0
LINE
8
BLACK
6
CONTINUOUS
10
154.761
20
-107.185
11
154.816
21
-107.24
0
LINE
8
BLACK
6
CONTINUOUS
10
154.816
20
-107.24
11
154.836
21
-107.315
0
LINE
8
BLACK
6
CONTINUOUS
10
154.836
20
-107.315
11
154.836
21
-107.8
0
LINE
8
BLACK
6
CONTINUOUS
10
154.836
20
-107.8
11
155.321
21
-107.8
0
LINE
8
BLACK
6
CONTINUOUS
10
155.321
20
-107.8
11
155.396
21
-107.82
0
LINE
8
BLACK
6
CONTINUOUS
10
155.396
20
-107.82
11
155.451
21
-107.875
0
LINE
8
BLACK
6
CONTINUOUS
10
155.451
20
-107.875
11
155.471
21
-107.95
0
LINE
8
BLACK
6
CONTINUOUS
10
155.471
20
-107.95
11
155.451
21
-108.025
0
LINE
8
BLACK
6
CONTINUOUS
10
155.451
20
-108.025
11
155.396
21
-108.08
0
LINE
8
BLACK
6
CONTINUOUS
10
155.396
20
-108.08
11
155.321
21
-108.1
0
LINE
8
BLACK
6
CONTINUOUS
10
155.321
20
-108.1
11
154.836
21
-108.1
0
LINE
8
BLACK
6
CONTINUOUS
10
154.836
20
-108.1
11
154.836
21
-108.585
0
LINE
8
BLACK
6
CONTINUOUS
10
154.836
20
-108.585
11
154.816
21
-108.66
0
LINE
8
BLACK
6
CONTINUOUS
10
154.816
20
-108.66
11
154.761
21
-108.715
0
LINE
8
BLACK
6
CONTINUOUS
10
154.761
20
-108.715
11
154.686
21
-108.735
0
LINE
8
BLACK
6
CONTINUOUS
10
154.686
20
-108.735
11
154.611
21
-108.715
0
LINE
8
BLACK
6
CONTINUOUS
10
154.611
20
-108.715
11
154.556
21
-108.66
0
LINE
8
BLACK
6
CONTINUOUS
10
154.556
20
-108.66
11
154.536
21
-108.585
0
LINE
8
BLACK
6
CONTINUOUS
10
154.536
20
-108.585
11
154.536
21
-108.1
0
LINE
8
BLACK
6
CONTINUOUS
10
154.536
20
-108.1
11
154.051
21
-108.1
0
LINE
8
BLACK
6
CONTINUOUS
10
154.051
20
-108.1
11
153.976
21
-108.08
0
LINE
8
BLACK
6
CONTINUOUS
10
153.976
20
-108.08
11
153.921
21
-108.025
0
LINE
8
BLACK
6
CONTINUOUS
10
153.921
20
-108.025
11
153.901
21
-107.95
0
LINE
8
BLACK
6
CONTINUOUS
10
153.901
20
-107.95
11
153.921
21
-107.875
0
LINE
8
BLACK
6
CONTINUOUS
10
153.921
20
-107.875
11
153.976
21
-107.82
0
LINE
8
BLACK
6
CONTINUOUS
10
153.976
20
-107.82
11
154.051
21
-107.8
0
LINE
8
BLACK
6
CONTINUOUS
10
154.051
20
-107.8
11
154.536
21
-107.8
0
LINE
8
BLACK
6
CONTINUOUS
10
154.536
20
-107.8
11
154.536
21
-107.315
0
LINE
8
BLACK
6
CONTINUOUS
10
154.536
20
-107.315
11
154.556
21
-107.24
0
LINE
8
BLACK
6
CONTINUOUS
10
154.556
20
-107.24
11
154.611
21
-107.185
0
LINE
8
BLACK
6
CONTINUOUS
10
154.611
20
-107.185
11
154.686
21
-107.165
0
LINE
8
BLACK
6
CONTINUOUS
10
154.686
20
-107.165
11
154.761
21
-107.185
0
LINE
8
BLACK
6
CONTINUOUS
10
158.392
20
-107.771
11
158.45
21
-107.612
0
LINE
8
BLACK
6
CONTINUOUS
10
158.45
20
-107.612
11
158.542
21
-107.47
0
LINE
8
BLACK
6
CONTINUOUS
10
158.542
20
-107.47
11
158.663
21
-107.351
0
LINE
8
BLACK
6
CONTINUOUS
10
158.663
20
-107.351
11
158.807
21
-107.262
0
LINE
8
BLACK
6
CONTINUOUS
10
158.807
20
-107.262
11
158.968
21
-107.208
0
LINE
8
BLACK
6
CONTINUOUS
10
158.968
20
-107.208
11
159.136
21
-107.19
0
LINE
8
BLACK
6
CONTINUOUS
10
159.136
20
-107.19
11
159.305
21
-107.21
0
LINE
8
BLACK
6
CONTINUOUS
10
159.305
20
-107.21
11
159.464
21
-107.267
0
LINE
8
BLACK
6
CONTINUOUS
10
159.464
20
-107.267
11
159.607
21
-107.358
0
LINE
8
BLACK
6
CONTINUOUS
10
159.607
20
-107.358
11
159.727
21
-107.478
0
LINE
8
BLACK
6
CONTINUOUS
10
159.727
20
-107.478
11
159.816
21
-107.622
0
LINE
8
BLACK
6
CONTINUOUS
10
159.816
20
-107.622
11
159.872
21
-107.782
0
LINE
8
BLACK
6
CONTINUOUS
10
159.872
20
-107.782
11
159.874
21
-107.8
0
LINE
8
BLACK
6
CONTINUOUS
10
159.874
20
-107.8
11
161.671
21
-107.8
0
LINE
8
BLACK
6
CONTINUOUS
10
161.671
20
-107.8
11
161.746
21
-107.82
0
LINE
8
BLACK
6
CONTINUOUS
10
161.746
20
-107.82
11
161.801
21
-107.875
0
LINE
8
BLACK
6
CONTINUOUS
10
161.801
20
-107.875
11
161.821
21
-107.95
0
LINE
8
BLACK
6
CONTINUOUS
10
161.821
20
-107.95
11
161.801
21
-108.025
0
LINE
8
BLACK
6
CONTINUOUS
10
161.801
20
-108.025
11
161.746
21
-108.08
0
LINE
8
BLACK
6
CONTINUOUS
10
161.746
20
-108.08
11
161.671
21
-108.1
0
LINE
8
BLACK
6
CONTINUOUS
10
161.671
20
-108.1
11
159.873
21
-108.1
0
LINE
8
BLACK
6
CONTINUOUS
10
159.873
20
-108.1
11
159.867
21
-108.139
0
LINE
8
BLACK
6
CONTINUOUS
10
159.867
20
-108.139
11
159.807
21
-108.297
0
LINE
8
BLACK
6
CONTINUOUS
10
159.807
20
-108.297
11
159.713
21
-108.439
0
LINE
8
BLACK
6
CONTINUOUS
10
159.713
20
-108.439
11
159.59
21
-108.555
0
LINE
8
BLACK
6
CONTINUOUS
10
159.59
20
-108.555
11
159.445
21
-108.642
0
LINE
8
BLACK
6
CONTINUOUS
10
159.445
20
-108.642
11
159.284
21
-108.694
0
LINE
8
BLACK
6
CONTINUOUS
10
159.284
20
-108.694
11
159.115
21
-108.71
0
LINE
8
BLACK
6
CONTINUOUS
10
159.115
20
-108.71
11
158.947
21
-108.687
0
LINE
8
BLACK
6
CONTINUOUS
10
158.947
20
-108.687
11
158.788
21
-108.628
0
LINE
8
BLACK
6
CONTINUOUS
10
158.788
20
-108.628
11
158.647
21
-108.536
0
LINE
8
BLACK
6
CONTINUOUS
10
158.647
20
-108.536
11
158.529
21
-108.414
0
LINE
8
BLACK
6
CONTINUOUS
10
158.529
20
-108.414
11
158.441
21
-108.269
0
LINE
8
BLACK
6
CONTINUOUS
10
158.441
20
-108.269
11
158.388
21
-108.108
0
LINE
8
BLACK
6
CONTINUOUS
10
158.388
20
-108.108
11
158.371
21
-107.943
0
LINE
8
BLACK
6
CONTINUOUS
10
158.371
20
-107.943
11
158.371
21
-107.939
0
LINE
8
BLACK
6
CONTINUOUS
10
158.371
20
-107.939
11
158.392
21
-107.771
0
LINE
8
BLACK
6
CONTINUOUS
10
164.286
20
-107.82
11
164.341
21
-107.875
0
LINE
8
BLACK
6
CONTINUOUS
10
164.341
20
-107.875
11
164.361
21
-107.95
0
LINE
8
BLACK
6
CONTINUOUS
10
164.361
20
-107.95
11
164.341
21
-108.025
0
LINE
8
BLACK
6
CONTINUOUS
10
164.341
20
-108.025
11
164.286
21
-108.08
0
LINE
8
BLACK
6
CONTINUOUS
10
164.286
20
-108.08
11
164.211
21
-108.1
0
LINE
8
BLACK
6
CONTINUOUS
10
164.211
20
-108.1
11
162.941
21
-108.1
0
LINE
8
BLACK
6
CONTINUOUS
10
162.941
20
-108.1
11
162.866
21
-108.08
0
LINE
8
BLACK
6
CONTINUOUS
10
162.866
20
-108.08
11
162.811
21
-108.025
0
LINE
8
BLACK
6
CONTINUOUS
10
162.811
20
-108.025
11
162.791
21
-107.95
0
LINE
8
BLACK
6
CONTINUOUS
10
162.791
20
-107.95
11
162.811
21
-107.875
0
LINE
8
BLACK
6
CONTINUOUS
10
162.811
20
-107.875
11
162.866
21
-107.82
0
LINE
8
BLACK
6
CONTINUOUS
10
162.866
20
-107.82
11
162.941
21
-107.8
0
LINE
8
BLACK
6
CONTINUOUS
10
162.941
20
-107.8
11
164.211
21
-107.8
0
LINE
8
BLACK
6
CONTINUOUS
10
164.211
20
-107.8
11
164.286
21
-107.82
0
LINE
8
BLACK
6
CONTINUOUS
10
161.135
20
-101.351
11
161.189
21
-101.406
0
LINE
8
BLACK
6
CONTINUOUS
10
161.189
20
-101.406
11
161.21
21
-101.481
0
LINE
8
BLACK
6
CONTINUOUS
10
161.21
20
-101.481
11
161.21
21
-104.481
0
LINE
8
BLACK
6
CONTINUOUS
10
161.21
20
-104.481
11
161.189
21
-104.556
0
LINE
8
BLACK
6
CONTINUOUS
10
161.189
20
-104.556
11
161.135
21
-104.611
0
LINE
8
BLACK
6
CONTINUOUS
10
161.135
20
-104.611
11
161.06
21
-104.631
0
LINE
8
BLACK
6
CONTINUOUS
10
161.06
20
-104.631
11
160.985
21
-104.611
0
LINE
8
BLACK
6
CONTINUOUS
10
160.985
20
-104.611
11
160.94
21
-104.566
0
LINE
8
BLACK
6
CONTINUOUS
10
160.94
20
-104.566
11
160.841
21
-104.615
0
LINE
8
BLACK
6
CONTINUOUS
10
160.841
20
-104.615
11
160.807
21
-104.622
0
LINE
8
BLACK
6
CONTINUOUS
10
160.807
20
-104.622
11
160.774
21
-104.631
0
LINE
8
BLACK
6
CONTINUOUS
10
160.774
20
-104.631
11
160.202
21
-104.631
0
LINE
8
BLACK
6
CONTINUOUS
10
160.202
20
-104.631
11
160.169
21
-104.622
0
LINE
8
BLACK
6
CONTINUOUS
10
160.169
20
-104.622
11
160.135
21
-104.615
0
LINE
8
BLACK
6
CONTINUOUS
10
160.135
20
-104.615
11
159.85
21
-104.472
0
LINE
8
BLACK
6
CONTINUOUS
10
159.85
20
-104.472
11
159.832
21
-104.456
0
LINE
8
BLACK
6
CONTINUOUS
10
159.832
20
-104.456
11
159.811
21
-104.444
0
LINE
8
BLACK
6
CONTINUOUS
10
159.811
20
-104.444
11
159.668
21
-104.301
0
LINE
8
BLACK
6
CONTINUOUS
10
159.668
20
-104.301
11
159.656
21
-104.281
0
LINE
8
BLACK
6
CONTINUOUS
10
159.656
20
-104.281
11
159.64
21
-104.263
0
LINE
8
BLACK
6
CONTINUOUS
10
159.64
20
-104.263
11
159.497
21
-103.977
0
LINE
8
BLACK
6
CONTINUOUS
10
159.497
20
-103.977
11
159.49
21
-103.943
0
LINE
8
BLACK
6
CONTINUOUS
10
159.49
20
-103.943
11
159.481
21
-103.91
0
LINE
8
BLACK
6
CONTINUOUS
10
159.481
20
-103.91
11
159.481
21
-103.053
0
LINE
8
BLACK
6
CONTINUOUS
10
159.481
20
-103.053
11
159.49
21
-103.019
0
LINE
8
BLACK
6
CONTINUOUS
10
159.49
20
-103.019
11
159.497
21
-102.985
0
LINE
8
BLACK
6
CONTINUOUS
10
159.497
20
-102.985
11
159.64
21
-102.7
0
LINE
8
BLACK
6
CONTINUOUS
10
159.64
20
-102.7
11
159.656
21
-102.682
0
LINE
8
BLACK
6
CONTINUOUS
10
159.656
20
-102.682
11
159.668
21
-102.661
0
LINE
8
BLACK
6
CONTINUOUS
10
159.668
20
-102.661
11
159.811
21
-102.518
0
LINE
8
BLACK
6
CONTINUOUS
10
159.811
20
-102.518
11
159.832
21
-102.506
0
LINE
8
BLACK
6
CONTINUOUS
10
159.832
20
-102.506
11
159.85
21
-102.49
0
LINE
8
BLACK
6
CONTINUOUS
10
159.85
20
-102.49
11
160.135
21
-102.347
0
LINE
8
BLACK
6
CONTINUOUS
10
160.135
20
-102.347
11
160.169
21
-102.34
0
LINE
8
BLACK
6
CONTINUOUS
10
160.169
20
-102.34
11
160.202
21
-102.331
0
LINE
8
BLACK
6
CONTINUOUS
10
160.202
20
-102.331
11
160.774
21
-102.331
0
LINE
8
BLACK
6
CONTINUOUS
10
160.774
20
-102.331
11
160.807
21
-102.34
0
LINE
8
BLACK
6
CONTINUOUS
10
160.807
20
-102.34
11
160.841
21
-102.347
0
LINE
8
BLACK
6
CONTINUOUS
10
160.841
20
-102.347
11
160.91
21
-102.381
0
LINE
8
BLACK
6
CONTINUOUS
10
160.91
20
-102.381
11
160.91
21
-101.481
0
LINE
8
BLACK
6
CONTINUOUS
10
160.91
20
-101.481
11
160.93
21
-101.406
0
LINE
8
BLACK
6
CONTINUOUS
10
160.93
20
-101.406
11
160.985
21
-101.351
0
LINE
8
BLACK
6
CONTINUOUS
10
160.985
20
-101.351
11
161.06
21
-101.331
0
LINE
8
BLACK
6
CONTINUOUS
10
161.06
20
-101.331
11
161.135
21
-101.351
0
LINE
8
BLACK
6
CONTINUOUS
10
160.238
20
-102.631
11
160.006
21
-102.747
0
LINE
8
BLACK
6
CONTINUOUS
10
160.006
20
-102.747
11
159.897
21
-102.856
0
LINE
8
BLACK
6
CONTINUOUS
10
159.897
20
-102.856
11
159.781
21
-103.088
0
LINE
8
BLACK
6
CONTINUOUS
10
159.781
20
-103.088
11
159.781
21
-103.874
0
LINE
8
BLACK
6
CONTINUOUS
10
159.781
20
-103.874
11
159.897
21
-104.107
0
LINE
8
BLACK
6
CONTINUOUS
10
159.897
20
-104.107
11
160.006
21
-104.215
0
LINE
8
BLACK
6
CONTINUOUS
10
160.006
20
-104.215
11
160.238
21
-104.331
0
LINE
8
BLACK
6
CONTINUOUS
10
160.238
20
-104.331
11
160.738
21
-104.331
0
LINE
8
BLACK
6
CONTINUOUS
10
160.738
20
-104.331
11
160.91
21
-104.246
0
LINE
8
BLACK
6
CONTINUOUS
10
160.91
20
-104.246
11
160.91
21
-102.717
0
LINE
8
BLACK
6
CONTINUOUS
10
160.91
20
-102.717
11
160.738
21
-102.631
0
LINE
8
BLACK
6
CONTINUOUS
10
160.738
20
-102.631
11
160.238
21
-102.631
0
LINE
8
BLACK
6
CONTINUOUS
10
155.664
20
-101.34
11
155.698
21
-101.347
0
LINE
8
BLACK
6
CONTINUOUS
10
155.698
20
-101.347
11
155.984
21
-101.49
0
LINE
8
BLACK
6
CONTINUOUS
10
155.984
20
-101.49
11
156.002
21
-101.506
0
LINE
8
BLACK
6
CONTINUOUS
10
156.002
20
-101.506
11
156.023
21
-101.518
0
LINE
8
BLACK
6
CONTINUOUS
10
156.023
20
-101.518
11
156.166
21
-101.661
0
LINE
8
BLACK
6
CONTINUOUS
10
156.166
20
-101.661
11
156.178
21
-101.682
0
LINE
8
BLACK
6
CONTINUOUS
10
156.178
20
-101.682
11
156.194
21
-101.7
0
LINE
8
BLACK
6
CONTINUOUS
10
156.194
20
-101.7
11
156.337
21
-101.985
0
LINE
8
BLACK
6
CONTINUOUS
10
156.337
20
-101.985
11
156.344
21
-102.019
0
LINE
8
BLACK
6
CONTINUOUS
10
156.344
20
-102.019
11
156.352
21
-102.053
0
LINE
8
BLACK
6
CONTINUOUS
10
156.352
20
-102.053
11
156.352
21
-103.195
0
LINE
8
BLACK
6
CONTINUOUS
10
156.352
20
-103.195
11
156.348
21
-103.213
0
LINE
8
BLACK
6
CONTINUOUS
10
156.348
20
-103.213
11
156.348
21
-103.232
0
LINE
8
BLACK
6
CONTINUOUS
10
156.348
20
-103.232
11
156.205
21
-103.803
0
LINE
8
BLACK
6
CONTINUOUS
10
156.205
20
-103.803
11
156.193
21
-103.826
0
LINE
8
BLACK
6
CONTINUOUS
10
156.193
20
-103.826
11
156.184
21
-103.85
0
LINE
8
BLACK
6
CONTINUOUS
10
156.184
20
-103.85
11
155.899
21
-104.279
0
LINE
8
BLACK
6
CONTINUOUS
10
155.899
20
-104.279
11
155.887
21
-104.289
0
LINE
8
BLACK
6
CONTINUOUS
10
155.887
20
-104.289
11
155.88
21
-104.301
0
LINE
8
BLACK
6
CONTINUOUS
10
155.88
20
-104.301
11
155.737
21
-104.444
0
LINE
8
BLACK
6
CONTINUOUS
10
155.737
20
-104.444
11
155.716
21
-104.456
0
LINE
8
BLACK
6
CONTINUOUS
10
155.716
20
-104.456
11
155.698
21
-104.472
0
LINE
8
BLACK
6
CONTINUOUS
10
155.698
20
-104.472
11
155.412
21
-104.615
0
LINE
8
BLACK
6
CONTINUOUS
10
155.412
20
-104.615
11
155.379
21
-104.622
0
LINE
8
BLACK
6
CONTINUOUS
10
155.379
20
-104.622
11
155.345
21
-104.631
0
LINE
8
BLACK
6
CONTINUOUS
10
155.345
20
-104.631
11
154.774
21
-104.631
0
LINE
8
BLACK
6
CONTINUOUS
10
154.774
20
-104.631
11
154.699
21
-104.611
0
LINE
8
BLACK
6
CONTINUOUS
10
154.699
20
-104.611
11
154.644
21
-104.556
0
LINE
8
BLACK
6
CONTINUOUS
10
154.644
20
-104.556
11
154.624
21
-104.481
0
LINE
8
BLACK
6
CONTINUOUS
10
154.624
20
-104.481
11
154.644
21
-104.406
0
LINE
8
BLACK
6
CONTINUOUS
10
154.644
20
-104.406
11
154.699
21
-104.351
0
LINE
8
BLACK
6
CONTINUOUS
10
154.699
20
-104.351
11
154.774
21
-104.331
0
LINE
8
BLACK
6
CONTINUOUS
10
154.774
20
-104.331
11
155.31
21
-104.331
0
LINE
8
BLACK
6
CONTINUOUS
10
155.31
20
-104.331
11
155.542
21
-104.215
0
LINE
8
BLACK
6
CONTINUOUS
10
155.542
20
-104.215
11
155.657
21
-104.1
0
LINE
8
BLACK
6
CONTINUOUS
10
155.657
20
-104.1
11
155.92
21
-103.705
0
LINE
8
BLACK
6
CONTINUOUS
10
155.92
20
-103.705
11
156.021
21
-103.302
0
LINE
8
BLACK
6
CONTINUOUS
10
156.021
20
-103.302
11
156.002
21
-103.314
0
LINE
8
BLACK
6
CONTINUOUS
10
156.002
20
-103.314
11
155.984
21
-103.33
0
LINE
8
BLACK
6
CONTINUOUS
10
155.984
20
-103.33
11
155.698
21
-103.472
0
LINE
8
BLACK
6
CONTINUOUS
10
155.698
20
-103.472
11
155.664
21
-103.479
0
LINE
8
BLACK
6
CONTINUOUS
10
155.664
20
-103.479
11
155.631
21
-103.488
0
LINE
8
BLACK
6
CONTINUOUS
10
155.631
20
-103.488
11
155.06
21
-103.488
0
LINE
8
BLACK
6
CONTINUOUS
10
155.06
20
-103.488
11
155.026
21
-103.479
0
LINE
8
BLACK
6
CONTINUOUS
10
155.026
20
-103.479
11
154.992
21
-103.472
0
LINE
8
BLACK
6
CONTINUOUS
10
154.992
20
-103.472
11
154.707
21
-103.33
0
LINE
8
BLACK
6
CONTINUOUS
10
154.707
20
-103.33
11
154.689
21
-103.314
0
LINE
8
BLACK
6
CONTINUOUS
10
154.689
20
-103.314
11
154.668
21
-103.301
0
LINE
8
BLACK
6
CONTINUOUS
10
154.668
20
-103.301
11
154.525
21
-103.159
0
LINE
8
BLACK
6
CONTINUOUS
10
154.525
20
-103.159
11
154.513
21
-103.138
0
LINE
8
BLACK
6
CONTINUOUS
10
154.513
20
-103.138
11
154.497
21
-103.12
0
LINE
8
BLACK
6
CONTINUOUS
10
154.497
20
-103.12
11
154.354
21
-102.834
0
LINE
8
BLACK
6
CONTINUOUS
10
154.354
20
-102.834
11
154.347
21
-102.8
0
LINE
8
BLACK
6
CONTINUOUS
10
154.347
20
-102.8
11
154.338
21
-102.767
0
LINE
8
BLACK
6
CONTINUOUS
10
154.338
20
-102.767
11
154.338
21
-102.053
0
LINE
8
BLACK
6
CONTINUOUS
10
154.338
20
-102.053
11
154.347
21
-102.019
0
LINE
8
BLACK
6
CONTINUOUS
10
154.347
20
-102.019
11
154.354
21
-101.985
0
LINE
8
BLACK
6
CONTINUOUS
10
154.354
20
-101.985
11
154.497
21
-101.7
0
LINE
8
BLACK
6
CONTINUOUS
10
154.497
20
-101.7
11
154.513
21
-101.682
0
LINE
8
BLACK
6
CONTINUOUS
10
154.513
20
-101.682
11
154.525
21
-101.661
0
LINE
8
BLACK
6
CONTINUOUS
10
154.525
20
-101.661
11
154.668
21
-101.518
0
LINE
8
BLACK
6
CONTINUOUS
10
154.668
20
-101.518
11
154.689
21
-101.506
0
LINE
8
BLACK
6
CONTINUOUS
10
154.689
20
-101.506
11
154.707
21
-101.49
0
LINE
8
BLACK
6
CONTINUOUS
10
154.707
20
-101.49
11
154.992
21
-101.347
0
LINE
8
BLACK
6
CONTINUOUS
10
154.992
20
-101.347
11
155.026
21
-101.34
0
LINE
8
BLACK
6
CONTINUOUS
10
155.026
20
-101.34
11
155.06
21
-101.331
0
LINE
8
BLACK
6
CONTINUOUS
10
155.06
20
-101.331
11
155.631
21
-101.331
0
LINE
8
BLACK
6
CONTINUOUS
10
155.631
20
-101.331
11
155.664
21
-101.34
0
LINE
8
BLACK
6
CONTINUOUS
10
155.095
20
-101.631
11
154.863
21
-101.747
0
LINE
8
BLACK
6
CONTINUOUS
10
154.863
20
-101.747
11
154.754
21
-101.856
0
LINE
8
BLACK
6
CONTINUOUS
10
154.754
20
-101.856
11
154.638
21
-102.088
0
LINE
8
BLACK
6
CONTINUOUS
10
154.638
20
-102.088
11
154.638
21
-102.731
0
LINE
8
BLACK
6
CONTINUOUS
10
154.638
20
-102.731
11
154.754
21
-102.964
0
LINE
8
BLACK
6
CONTINUOUS
10
154.754
20
-102.964
11
154.863
21
-103.072
0
LINE
8
BLACK
6
CONTINUOUS
10
154.863
20
-103.072
11
155.095
21
-103.188
0
LINE
8
BLACK
6
CONTINUOUS
10
155.095
20
-103.188
11
155.596
21
-103.188
0
LINE
8
BLACK
6
CONTINUOUS
10
155.596
20
-103.188
11
155.828
21
-103.072
0
LINE
8
BLACK
6
CONTINUOUS
10
155.828
20
-103.072
11
155.936
21
-102.964
0
LINE
8
BLACK
6
CONTINUOUS
10
155.936
20
-102.964
11
156.052
21
-102.731
0
LINE
8
BLACK
6
CONTINUOUS
10
156.052
20
-102.731
11
156.052
21
-102.088
0
LINE
8
BLACK
6
CONTINUOUS
10
156.052
20
-102.088
11
155.936
21
-101.856
0
LINE
8
BLACK
6
CONTINUOUS
10
155.936
20
-101.856
11
155.828
21
-101.747
0
LINE
8
BLACK
6
CONTINUOUS
10
155.828
20
-101.747
11
155.596
21
-101.631
0
LINE
8
BLACK
6
CONTINUOUS
10
155.596
20
-101.631
11
155.095
21
-101.631
0
LINE
8
BLACK
6
CONTINUOUS
10
163.521
20
-102.34
11
163.555
21
-102.347
0
LINE
8
BLACK
6
CONTINUOUS
10
163.555
20
-102.347
11
163.841
21
-102.49
0
LINE
8
BLACK
6
CONTINUOUS
10
163.841
20
-102.49
11
163.899
21
-102.541
0
LINE
8
BLACK
6
CONTINUOUS
10
163.899
20
-102.541
11
163.924
21
-102.615
0
LINE
8
BLACK
6
CONTINUOUS
10
163.924
20
-102.615
11
163.908
21
-102.691
0
LINE
8
BLACK
6
CONTINUOUS
10
163.908
20
-102.691
11
163.857
21
-102.749
0
LINE
8
BLACK
6
CONTINUOUS
10
163.857
20
-102.749
11
163.783
21
-102.774
0
LINE
8
BLACK
6
CONTINUOUS
10
163.783
20
-102.774
11
163.707
21
-102.758
0
LINE
8
BLACK
6
CONTINUOUS
10
163.707
20
-102.758
11
163.453
21
-102.631
0
LINE
8
BLACK
6
CONTINUOUS
10
163.453
20
-102.631
11
162.952
21
-102.631
0
LINE
8
BLACK
6
CONTINUOUS
10
162.952
20
-102.631
11
162.72
21
-102.747
0
LINE
8
BLACK
6
CONTINUOUS
10
162.72
20
-102.747
11
162.611
21
-102.856
0
LINE
8
BLACK
6
CONTINUOUS
10
162.611
20
-102.856
11
162.495
21
-103.088
0
LINE
8
BLACK
6
CONTINUOUS
10
162.495
20
-103.088
11
162.495
21
-103.874
0
LINE
8
BLACK
6
CONTINUOUS
10
162.495
20
-103.874
11
162.611
21
-104.107
0
LINE
8
BLACK
6
CONTINUOUS
10
162.611
20
-104.107
11
162.72
21
-104.215
0
LINE
8
BLACK
6
CONTINUOUS
10
162.72
20
-104.215
11
162.952
21
-104.331
0
LINE
8
BLACK
6
CONTINUOUS
10
162.952
20
-104.331
11
163.453
21
-104.331
0
LINE
8
BLACK
6
CONTINUOUS
10
163.453
20
-104.331
11
163.707
21
-104.204
0
LINE
8
BLACK
6
CONTINUOUS
10
163.707
20
-104.204
11
163.783
21
-104.189
0
LINE
8
BLACK
6
CONTINUOUS
10
163.783
20
-104.189
11
163.857
21
-104.213
0
LINE
8
BLACK
6
CONTINUOUS
10
163.857
20
-104.213
11
163.908
21
-104.271
0
LINE
8
BLACK
6
CONTINUOUS
10
163.908
20
-104.271
11
163.924
21
-104.347
0
LINE
8
BLACK
6
CONTINUOUS
10
163.924
20
-104.347
11
163.899
21
-104.421
0
LINE
8
BLACK
6
CONTINUOUS
10
163.899
20
-104.421
11
163.841
21
-104.472
0
LINE
8
BLACK
6
CONTINUOUS
10
163.841
20
-104.472
11
163.555
21
-104.615
0
LINE
8
BLACK
6
CONTINUOUS
10
163.555
20
-104.615
11
163.521
21
-104.622
0
LINE
8
BLACK
6
CONTINUOUS
10
163.521
20
-104.622
11
163.488
21
-104.631
0
LINE
8
BLACK
6
CONTINUOUS
10
163.488
20
-104.631
11
162.917
21
-104.631
0
LINE
8
BLACK
6
CONTINUOUS
10
162.917
20
-104.631
11
162.883
21
-104.622
0
LINE
8
BLACK
6
CONTINUOUS
10
162.883
20
-104.622
11
162.85
21
-104.615
0
LINE
8
BLACK
6
CONTINUOUS
10
162.85
20
-104.615
11
162.564
21
-104.472
0
LINE
8
BLACK
6
CONTINUOUS
10
162.564
20
-104.472
11
162.546
21
-104.456
0
LINE
8
BLACK
6
CONTINUOUS
10
162.546
20
-104.456
11
162.525
21
-104.444
0
LINE
8
BLACK
6
CONTINUOUS
10
162.525
20
-104.444
11
162.382
21
-104.301
0
LINE
8
BLACK
6
CONTINUOUS
10
162.382
20
-104.301
11
162.37
21
-104.281
0
LINE
8
BLACK
6
CONTINUOUS
10
162.37
20
-104.281
11
162.354
21
-104.263
0
LINE
8
BLACK
6
CONTINUOUS
10
162.354
20
-104.263
11
162.211
21
-103.977
0
LINE
8
BLACK
6
CONTINUOUS
10
162.211
20
-103.977
11
162.204
21
-103.943
0
LINE
8
BLACK
6
CONTINUOUS
10
162.204
20
-103.943
11
162.195
21
-103.91
0
LINE
8
BLACK
6
CONTINUOUS
10
162.195
20
-103.91
11
162.195
21
-103.053
0
LINE
8
BLACK
6
CONTINUOUS
10
162.195
20
-103.053
11
162.204
21
-103.019
0
LINE
8
BLACK
6
CONTINUOUS
10
162.204
20
-103.019
11
162.211
21
-102.985
0
LINE
8
BLACK
6
CONTINUOUS
10
162.211
20
-102.985
11
162.354
21
-102.7
0
LINE
8
BLACK
6
CONTINUOUS
10
162.354
20
-102.7
11
162.37
21
-102.682
0
LINE
8
BLACK
6
CONTINUOUS
10
162.37
20
-102.682
11
162.382
21
-102.661
0
LINE
8
BLACK
6
CONTINUOUS
10
162.382
20
-102.661
11
162.525
21
-102.518
0
LINE
8
BLACK
6
CONTINUOUS
10
162.525
20
-102.518
11
162.546
21
-102.506
0
LINE
8
BLACK
6
CONTINUOUS
10
162.546
20
-102.506
11
162.564
21
-102.49
0
LINE
8
BLACK
6
CONTINUOUS
10
162.564
20
-102.49
11
162.85
21
-102.347
0
LINE
8
BLACK
6
CONTINUOUS
10
162.85
20
-102.347
11
162.883
21
-102.34
0
LINE
8
BLACK
6
CONTINUOUS
10
162.883
20
-102.34
11
162.917
21
-102.331
0
LINE
8
BLACK
6
CONTINUOUS
10
162.917
20
-102.331
11
163.488
21
-102.331
0
LINE
8
BLACK
6
CONTINUOUS
10
163.488
20
-102.331
11
163.521
21
-102.34
0
LINE
8
BLACK
6
CONTINUOUS
10
158.681
20
-102.34
11
158.745
21
-102.384
0
LINE
8
BLACK
6
CONTINUOUS
10
158.745
20
-102.384
11
158.779
21
-102.454
0
LINE
8
BLACK
6
CONTINUOUS
10
158.779
20
-102.454
11
158.772
21
-102.532
0
LINE
8
BLACK
6
CONTINUOUS
10
158.772
20
-102.532
11
158.058
21
-104.532
0
LINE
8
BLACK
6
CONTINUOUS
10
158.058
20
-104.532
11
158.043
21
-104.554
0
LINE
8
BLACK
6
CONTINUOUS
10
158.043
20
-104.554
11
158.031
21
-104.578
0
LINE
8
BLACK
6
CONTINUOUS
10
158.031
20
-104.578
11
158.021
21
-104.585
0
LINE
8
BLACK
6
CONTINUOUS
10
158.021
20
-104.585
11
158.014
21
-104.595
0
LINE
8
BLACK
6
CONTINUOUS
10
158.014
20
-104.595
11
157.989
21
-104.607
0
LINE
8
BLACK
6
CONTINUOUS
10
157.989
20
-104.607
11
157.967
21
-104.622
0
LINE
8
BLACK
6
CONTINUOUS
10
157.967
20
-104.622
11
157.955
21
-104.623
0
LINE
8
BLACK
6
CONTINUOUS
10
157.955
20
-104.623
11
157.944
21
-104.629
0
LINE
8
BLACK
6
CONTINUOUS
10
157.944
20
-104.629
11
157.917
21
-104.627
0
LINE
8
BLACK
6
CONTINUOUS
10
157.917
20
-104.627
11
157.89
21
-104.629
0
LINE
8
BLACK
6
CONTINUOUS
10
157.89
20
-104.629
11
157.879
21
-104.623
0
LINE
8
BLACK
6
CONTINUOUS
10
157.879
20
-104.623
11
157.866
21
-104.622
0
LINE
8
BLACK
6
CONTINUOUS
10
157.866
20
-104.622
11
157.844
21
-104.607
0
LINE
8
BLACK
6
CONTINUOUS
10
157.844
20
-104.607
11
157.82
21
-104.595
0
LINE
8
BLACK
6
CONTINUOUS
10
157.82
20
-104.595
11
157.813
21
-104.585
0
LINE
8
BLACK
6
CONTINUOUS
10
157.813
20
-104.585
11
157.802
21
-104.578
0
LINE
8
BLACK
6
CONTINUOUS
10
157.802
20
-104.578
11
157.791
21
-104.554
0
LINE
8
BLACK
6
CONTINUOUS
10
157.791
20
-104.554
11
157.775
21
-104.532
0
LINE
8
BLACK
6
CONTINUOUS
10
157.775
20
-104.532
11
157.061
21
-102.532
0
LINE
8
BLACK
6
CONTINUOUS
10
157.061
20
-102.532
11
157.055
21
-102.454
0
LINE
8
BLACK
6
CONTINUOUS
10
157.055
20
-102.454
11
157.088
21
-102.384
0
LINE
8
BLACK
6
CONTINUOUS
10
157.088
20
-102.384
11
157.152
21
-102.34
0
LINE
8
BLACK
6
CONTINUOUS
10
157.152
20
-102.34
11
157.229
21
-102.334
0
LINE
8
BLACK
6
CONTINUOUS
10
157.229
20
-102.334
11
157.3
21
-102.367
0
LINE
8
BLACK
6
CONTINUOUS
10
157.3
20
-102.367
11
157.344
21
-102.431
0
LINE
8
BLACK
6
CONTINUOUS
10
157.344
20
-102.431
11
157.917
21
-104.035
0
LINE
8
BLACK
6
CONTINUOUS
10
157.917
20
-104.035
11
158.49
21
-102.431
0
LINE
8
BLACK
6
CONTINUOUS
10
158.49
20
-102.431
11
158.534
21
-102.367
0
LINE
8
BLACK
6
CONTINUOUS
10
158.534
20
-102.367
11
158.604
21
-102.334
0
LINE
8
BLACK
6
CONTINUOUS
10
158.604
20
-102.334
11
158.681
21
-102.34
0
LINE
8
BLACK
6
CONTINUOUS
10
137.63
20
-85.5761
11
137.664
21
-85.583
0
LINE
8
BLACK
6
CONTINUOUS
10
137.664
20
-85.583
11
137.95
21
-85.7258
0
LINE
8
BLACK
6
CONTINUOUS
10
137.95
20
-85.7258
11
137.968
21
-85.7419
0
LINE
8
BLACK
6
CONTINUOUS
10
137.968
20
-85.7419
11
137.989
21
-85.7539
0
LINE
8
BLACK
6
CONTINUOUS
10
137.989
20
-85.7539
11
138.132
21
-85.8968
0
LINE
8
BLACK
6
CONTINUOUS
10
138.132
20
-85.8968
11
138.144
21
-85.9177
0
LINE
8
BLACK
6
CONTINUOUS
10
138.144
20
-85.9177
11
138.16
21
-85.9358
0
LINE
8
BLACK
6
CONTINUOUS
10
138.16
20
-85.9358
11
138.303
21
-86.2215
0
LINE
8
BLACK
6
CONTINUOUS
10
138.303
20
-86.2215
11
138.31
21
-86.2553
0
LINE
8
BLACK
6
CONTINUOUS
10
138.31
20
-86.2553
11
138.319
21
-86.2886
0
LINE
8
BLACK
6
CONTINUOUS
10
138.319
20
-86.2886
11
138.319
21
-87.1457
0
LINE
8
BLACK
6
CONTINUOUS
10
138.319
20
-87.1457
11
138.31
21
-87.179
0
LINE
8
BLACK
6
CONTINUOUS
10
138.31
20
-87.179
11
138.303
21
-87.2128
0
LINE
8
BLACK
6
CONTINUOUS
10
138.303
20
-87.2128
11
138.16
21
-87.4985
0
LINE
8
BLACK
6
CONTINUOUS
10
138.16
20
-87.4985
11
138.144
21
-87.5166
0
LINE
8
BLACK
6
CONTINUOUS
10
138.144
20
-87.5166
11
138.132
21
-87.5375
0
LINE
8
BLACK
6
CONTINUOUS
10
138.132
20
-87.5375
11
137.989
21
-87.6804
0
LINE
8
BLACK
6
CONTINUOUS
10
137.989
20
-87.6804
11
137.968
21
-87.6924
0
LINE
8
BLACK
6
CONTINUOUS
10
137.968
20
-87.6924
11
137.95
21
-87.7084
0
LINE
8
BLACK
6
CONTINUOUS
10
137.95
20
-87.7084
11
137.664
21
-87.8513
0
LINE
8
BLACK
6
CONTINUOUS
10
137.664
20
-87.8513
11
137.63
21
-87.8582
0
LINE
8
BLACK
6
CONTINUOUS
10
137.63
20
-87.8582
11
137.597
21
-87.8671
0
LINE
8
BLACK
6
CONTINUOUS
10
137.597
20
-87.8671
11
137.169
21
-87.8671
0
LINE
8
BLACK
6
CONTINUOUS
10
137.169
20
-87.8671
11
137.135
21
-87.8582
0
LINE
8
BLACK
6
CONTINUOUS
10
137.135
20
-87.8582
11
137.101
21
-87.8513
0
LINE
8
BLACK
6
CONTINUOUS
10
137.101
20
-87.8513
11
136.816
21
-87.7084
0
LINE
8
BLACK
6
CONTINUOUS
10
136.816
20
-87.7084
11
136.798
21
-87.6924
0
LINE
8
BLACK
6
CONTINUOUS
10
136.798
20
-87.6924
11
136.777
21
-87.6804
0
LINE
8
BLACK
6
CONTINUOUS
10
136.777
20
-87.6804
11
136.634
21
-87.5375
0
LINE
8
BLACK
6
CONTINUOUS
10
136.634
20
-87.5375
11
136.622
21
-87.5166
0
LINE
8
BLACK
6
CONTINUOUS
10
136.622
20
-87.5166
11
136.606
21
-87.4985
0
LINE
8
BLACK
6
CONTINUOUS
10
136.606
20
-87.4985
11
136.463
21
-87.2128
0
LINE
8
BLACK
6
CONTINUOUS
10
136.463
20
-87.2128
11
136.456
21
-87.179
0
LINE
8
BLACK
6
CONTINUOUS
10
136.456
20
-87.179
11
136.447
21
-87.1457
0
LINE
8
BLACK
6
CONTINUOUS
10
136.447
20
-87.1457
11
136.447
21
-86.2886
0
LINE
8
BLACK
6
CONTINUOUS
10
136.447
20
-86.2886
11
136.456
21
-86.2553
0
LINE
8
BLACK
6
CONTINUOUS
10
136.456
20
-86.2553
11
136.463
21
-86.2215
0
LINE
8
BLACK
6
CONTINUOUS
10
136.463
20
-86.2215
11
136.606
21
-85.9358
0
LINE
8
BLACK
6
CONTINUOUS
10
136.606
20
-85.9358
11
136.622
21
-85.9177
0
LINE
8
BLACK
6
CONTINUOUS
10
136.622
20
-85.9177
11
136.634
21
-85.8968
0
LINE
8
BLACK
6
CONTINUOUS
10
136.634
20
-85.8968
11
136.777
21
-85.7539
0
LINE
8
BLACK
6
CONTINUOUS
10
136.777
20
-85.7539
11
136.798
21
-85.7419
0
LINE
8
BLACK
6
CONTINUOUS
10
136.798
20
-85.7419
11
136.816
21
-85.7258
0
LINE
8
BLACK
6
CONTINUOUS
10
136.816
20
-85.7258
11
137.101
21
-85.583
0
LINE
8
BLACK
6
CONTINUOUS
10
137.101
20
-85.583
11
137.135
21
-85.5761
0
LINE
8
BLACK
6
CONTINUOUS
10
137.135
20
-85.5761
11
137.169
21
-85.5671
0
LINE
8
BLACK
6
CONTINUOUS
10
137.169
20
-85.5671
11
137.597
21
-85.5671
0
LINE
8
BLACK
6
CONTINUOUS
10
137.597
20
-85.5671
11
137.63
21
-85.5761
0
LINE
8
BLACK
6
CONTINUOUS
10
137.204
20
-85.8671
11
136.972
21
-85.9833
0
LINE
8
BLACK
6
CONTINUOUS
10
136.972
20
-85.9833
11
136.863
21
-86.0917
0
LINE
8
BLACK
6
CONTINUOUS
10
136.863
20
-86.0917
11
136.747
21
-86.324
0
LINE
8
BLACK
6
CONTINUOUS
10
136.747
20
-86.324
11
136.747
21
-87.1103
0
LINE
8
BLACK
6
CONTINUOUS
10
136.747
20
-87.1103
11
136.863
21
-87.3426
0
LINE
8
BLACK
6
CONTINUOUS
10
136.863
20
-87.3426
11
136.972
21
-87.451
0
LINE
8
BLACK
6
CONTINUOUS
10
136.972
20
-87.451
11
137.204
21
-87.5671
0
LINE
8
BLACK
6
CONTINUOUS
10
137.204
20
-87.5671
11
137.562
21
-87.5671
0
LINE
8
BLACK
6
CONTINUOUS
10
137.562
20
-87.5671
11
137.794
21
-87.451
0
LINE
8
BLACK
6
CONTINUOUS
10
137.794
20
-87.451
11
137.902
21
-87.3426
0
LINE
8
BLACK
6
CONTINUOUS
10
137.902
20
-87.3426
11
138.019
21
-87.1103
0
LINE
8
BLACK
6
CONTINUOUS
10
138.019
20
-87.1103
11
138.019
21
-86.324
0
LINE
8
BLACK
6
CONTINUOUS
10
138.019
20
-86.324
11
137.902
21
-86.0917
0
LINE
8
BLACK
6
CONTINUOUS
10
137.902
20
-86.0917
11
137.794
21
-85.9833
0
LINE
8
BLACK
6
CONTINUOUS
10
137.794
20
-85.9833
11
137.562
21
-85.8671
0
LINE
8
BLACK
6
CONTINUOUS
10
137.562
20
-85.8671
11
137.204
21
-85.8671
0
LINE
8
BLACK
6
CONTINUOUS
10
201.026
20
-84.5761
11
201.06
21
-84.583
0
LINE
8
BLACK
6
CONTINUOUS
10
201.06
20
-84.583
11
201.346
21
-84.7258
0
LINE
8
BLACK
6
CONTINUOUS
10
201.346
20
-84.7258
11
201.364
21
-84.7419
0
LINE
8
BLACK
6
CONTINUOUS
10
201.364
20
-84.7419
11
201.385
21
-84.7539
0
LINE
8
BLACK
6
CONTINUOUS
10
201.385
20
-84.7539
11
201.527
21
-84.8968
0
LINE
8
BLACK
6
CONTINUOUS
10
201.527
20
-84.8968
11
201.54
21
-84.9177
0
LINE
8
BLACK
6
CONTINUOUS
10
201.54
20
-84.9177
11
201.556
21
-84.9358
0
LINE
8
BLACK
6
CONTINUOUS
10
201.556
20
-84.9358
11
201.698
21
-85.2215
0
LINE
8
BLACK
6
CONTINUOUS
10
201.698
20
-85.2215
11
201.705
21
-85.2553
0
LINE
8
BLACK
6
CONTINUOUS
10
201.705
20
-85.2553
11
201.714
21
-85.2886
0
LINE
8
BLACK
6
CONTINUOUS
10
201.714
20
-85.2886
11
201.714
21
-85.5743
0
LINE
8
BLACK
6
CONTINUOUS
10
201.714
20
-85.5743
11
201.705
21
-85.6076
0
LINE
8
BLACK
6
CONTINUOUS
10
201.705
20
-85.6076
11
201.698
21
-85.6414
0
LINE
8
BLACK
6
CONTINUOUS
10
201.698
20
-85.6414
11
201.556
21
-85.9271
0
LINE
8
BLACK
6
CONTINUOUS
10
201.556
20
-85.9271
11
201.54
21
-85.9452
0
LINE
8
BLACK
6
CONTINUOUS
10
201.54
20
-85.9452
11
201.527
21
-85.9661
0
LINE
8
BLACK
6
CONTINUOUS
10
201.527
20
-85.9661
11
201.385
21
-86.1089
0
LINE
8
BLACK
6
CONTINUOUS
10
201.385
20
-86.1089
11
201.374
21
-86.1148
0
LINE
8
BLACK
6
CONTINUOUS
10
201.374
20
-86.1148
11
201.469
21
-86.1463
0
LINE
8
BLACK
6
CONTINUOUS
10
201.469
20
-86.1463
11
201.498
21
-86.1653
0
LINE
8
BLACK
6
CONTINUOUS
10
201.498
20
-86.1653
11
201.527
21
-86.1825
0
LINE
8
BLACK
6
CONTINUOUS
10
201.527
20
-86.1825
11
201.67
21
-86.3254
0
LINE
8
BLACK
6
CONTINUOUS
10
201.67
20
-86.3254
11
201.682
21
-86.3463
0
LINE
8
BLACK
6
CONTINUOUS
10
201.682
20
-86.3463
11
201.698
21
-86.3643
0
LINE
8
BLACK
6
CONTINUOUS
10
201.698
20
-86.3643
11
201.841
21
-86.6501
0
LINE
8
BLACK
6
CONTINUOUS
10
201.841
20
-86.6501
11
201.848
21
-86.6838
0
LINE
8
BLACK
6
CONTINUOUS
10
201.848
20
-86.6838
11
201.857
21
-86.7171
0
LINE
8
BLACK
6
CONTINUOUS
10
201.857
20
-86.7171
11
201.857
21
-87.1457
0
LINE
8
BLACK
6
CONTINUOUS
10
201.857
20
-87.1457
11
201.848
21
-87.179
0
LINE
8
BLACK
6
CONTINUOUS
10
201.848
20
-87.179
11
201.841
21
-87.2128
0
LINE
8
BLACK
6
CONTINUOUS
10
201.841
20
-87.2128
11
201.698
21
-87.4985
0
LINE
8
BLACK
6
CONTINUOUS
10
201.698
20
-87.4985
11
201.682
21
-87.5166
0
LINE
8
BLACK
6
CONTINUOUS
10
201.682
20
-87.5166
11
201.67
21
-87.5375
0
LINE
8
BLACK
6
CONTINUOUS
10
201.67
20
-87.5375
11
201.527
21
-87.6804
0
LINE
8
BLACK
6
CONTINUOUS
10
201.527
20
-87.6804
11
201.507
21
-87.6924
0
LINE
8
BLACK
6
CONTINUOUS
10
201.507
20
-87.6924
11
201.489
21
-87.7084
0
LINE
8
BLACK
6
CONTINUOUS
10
201.489
20
-87.7084
11
201.203
21
-87.8513
0
LINE
8
BLACK
6
CONTINUOUS
10
201.203
20
-87.8513
11
201.169
21
-87.8582
0
LINE
8
BLACK
6
CONTINUOUS
10
201.169
20
-87.8582
11
201.136
21
-87.8671
0
LINE
8
BLACK
6
CONTINUOUS
10
201.136
20
-87.8671
11
199.993
21
-87.8671
0
LINE
8
BLACK
6
CONTINUOUS
10
199.993
20
-87.8671
11
199.918
21
-87.847
0
LINE
8
BLACK
6
CONTINUOUS
10
199.918
20
-87.847
11
199.863
21
-87.7921
0
LINE
8
BLACK
6
CONTINUOUS
10
199.863
20
-87.7921
11
199.843
21
-87.7171
0
LINE
8
BLACK
6
CONTINUOUS
10
199.843
20
-87.7171
11
199.843
21
-84.7171
0
LINE
8
BLACK
6
CONTINUOUS
10
199.843
20
-84.7171
11
199.863
21
-84.6421
0
LINE
8
BLACK
6
CONTINUOUS
10
199.863
20
-84.6421
11
199.918
21
-84.5872
0
LINE
8
BLACK
6
CONTINUOUS
10
199.918
20
-84.5872
11
199.993
21
-84.5671
0
LINE
8
BLACK
6
CONTINUOUS
10
199.993
20
-84.5671
11
200.993
21
-84.5671
0
LINE
8
BLACK
6
CONTINUOUS
10
200.993
20
-84.5671
11
201.026
21
-84.5761
0
LINE
8
BLACK
6
CONTINUOUS
10
200.143
20
-86.2957
11
200.143
21
-87.5671
0
LINE
8
BLACK
6
CONTINUOUS
10
200.143
20
-87.5671
11
201.1
21
-87.5671
0
LINE
8
BLACK
6
CONTINUOUS
10
201.1
20
-87.5671
11
201.333
21
-87.451
0
LINE
8
BLACK
6
CONTINUOUS
10
201.333
20
-87.451
11
201.441
21
-87.3426
0
LINE
8
BLACK
6
CONTINUOUS
10
201.441
20
-87.3426
11
201.557
21
-87.1103
0
LINE
8
BLACK
6
CONTINUOUS
10
201.557
20
-87.1103
11
201.557
21
-86.7526
0
LINE
8
BLACK
6
CONTINUOUS
10
201.557
20
-86.7526
11
201.441
21
-86.5203
0
LINE
8
BLACK
6
CONTINUOUS
10
201.441
20
-86.5203
11
201.34
21
-86.4197
0
LINE
8
BLACK
6
CONTINUOUS
10
201.34
20
-86.4197
11
200.969
21
-86.2957
0
LINE
8
BLACK
6
CONTINUOUS
10
200.969
20
-86.2957
11
200.143
21
-86.2957
0
LINE
8
BLACK
6
CONTINUOUS
10
200.143
20
-84.8671
11
200.143
21
-85.9957
0
LINE
8
BLACK
6
CONTINUOUS
10
200.143
20
-85.9957
11
200.957
21
-85.9957
0
LINE
8
BLACK
6
CONTINUOUS
10
200.957
20
-85.9957
11
201.19
21
-85.8796
0
LINE
8
BLACK
6
CONTINUOUS
10
201.19
20
-85.8796
11
201.298
21
-85.7711
0
LINE
8
BLACK
6
CONTINUOUS
10
201.298
20
-85.7711
11
201.414
21
-85.5389
0
LINE
8
BLACK
6
CONTINUOUS
10
201.414
20
-85.5389
11
201.414
21
-85.324
0
LINE
8
BLACK
6
CONTINUOUS
10
201.414
20
-85.324
11
201.298
21
-85.0917
0
LINE
8
BLACK
6
CONTINUOUS
10
201.298
20
-85.0917
11
201.19
21
-84.9833
0
LINE
8
BLACK
6
CONTINUOUS
10
201.19
20
-84.9833
11
200.957
21
-84.8671
0
LINE
8
BLACK
6
CONTINUOUS
10
200.957
20
-84.8671
11
200.143
21
-84.8671
0
LINE
8
BLACK
6
CONTINUOUS
10
193.302
20
-84.5734
11
193.326
21
-84.5748
0
LINE
8
BLACK
6
CONTINUOUS
10
193.326
20
-84.5748
11
193.755
21
-84.7177
0
LINE
8
BLACK
6
CONTINUOUS
10
193.755
20
-84.7177
11
193.783
21
-84.7367
0
LINE
8
BLACK
6
CONTINUOUS
10
193.783
20
-84.7367
11
193.813
21
-84.7539
0
LINE
8
BLACK
6
CONTINUOUS
10
193.813
20
-84.7539
11
193.956
21
-84.8968
0
LINE
8
BLACK
6
CONTINUOUS
10
193.956
20
-84.8968
11
193.995
21
-84.964
0
LINE
8
BLACK
6
CONTINUOUS
10
193.995
20
-84.964
11
193.995
21
-85.0417
0
LINE
8
BLACK
6
CONTINUOUS
10
193.995
20
-85.0417
11
193.956
21
-85.1089
0
LINE
8
BLACK
6
CONTINUOUS
10
193.956
20
-85.1089
11
193.889
21
-85.1477
0
LINE
8
BLACK
6
CONTINUOUS
10
193.889
20
-85.1477
11
193.811
21
-85.1477
0
LINE
8
BLACK
6
CONTINUOUS
10
193.811
20
-85.1477
11
193.744
21
-85.1089
0
LINE
8
BLACK
6
CONTINUOUS
10
193.744
20
-85.1089
11
193.626
21
-84.9911
0
LINE
8
BLACK
6
CONTINUOUS
10
193.626
20
-84.9911
11
193.254
21
-84.8671
0
LINE
8
BLACK
6
CONTINUOUS
10
193.254
20
-84.8671
11
193.017
21
-84.8671
0
LINE
8
BLACK
6
CONTINUOUS
10
193.017
20
-84.8671
11
192.645
21
-84.9911
0
LINE
8
BLACK
6
CONTINUOUS
10
192.645
20
-84.9911
11
192.402
21
-85.2346
0
LINE
8
BLACK
6
CONTINUOUS
10
192.402
20
-85.2346
11
192.277
21
-85.4838
0
LINE
8
BLACK
6
CONTINUOUS
10
192.277
20
-85.4838
11
192.143
21
-86.0213
0
LINE
8
BLACK
6
CONTINUOUS
10
192.143
20
-86.0213
11
192.143
21
-86.413
0
LINE
8
BLACK
6
CONTINUOUS
10
192.143
20
-86.413
11
192.277
21
-86.9505
0
LINE
8
BLACK
6
CONTINUOUS
10
192.277
20
-86.9505
11
192.402
21
-87.1997
0
LINE
8
BLACK
6
CONTINUOUS
10
192.402
20
-87.1997
11
192.645
21
-87.4432
0
LINE
8
BLACK
6
CONTINUOUS
10
192.645
20
-87.4432
11
193.017
21
-87.5671
0
LINE
8
BLACK
6
CONTINUOUS
10
193.017
20
-87.5671
11
193.254
21
-87.5671
0
LINE
8
BLACK
6
CONTINUOUS
10
193.254
20
-87.5671
11
193.626
21
-87.4432
0
LINE
8
BLACK
6
CONTINUOUS
10
193.626
20
-87.4432
11
193.744
21
-87.3254
0
LINE
8
BLACK
6
CONTINUOUS
10
193.744
20
-87.3254
11
193.811
21
-87.2865
0
LINE
8
BLACK
6
CONTINUOUS
10
193.811
20
-87.2865
11
193.889
21
-87.2865
0
LINE
8
BLACK
6
CONTINUOUS
10
193.889
20
-87.2865
11
193.956
21
-87.3254
0
LINE
8
BLACK
6
CONTINUOUS
10
193.956
20
-87.3254
11
193.995
21
-87.3926
0
LINE
8
BLACK
6
CONTINUOUS
10
193.995
20
-87.3926
11
193.995
21
-87.4703
0
LINE
8
BLACK
6
CONTINUOUS
10
193.995
20
-87.4703
11
193.956
21
-87.5375
0
LINE
8
BLACK
6
CONTINUOUS
10
193.956
20
-87.5375
11
193.813
21
-87.6804
0
LINE
8
BLACK
6
CONTINUOUS
10
193.813
20
-87.6804
11
193.783
21
-87.6976
0
LINE
8
BLACK
6
CONTINUOUS
10
193.783
20
-87.6976
11
193.755
21
-87.7166
0
LINE
8
BLACK
6
CONTINUOUS
10
193.755
20
-87.7166
11
193.326
21
-87.8594
0
LINE
8
BLACK
6
CONTINUOUS
10
193.326
20
-87.8594
11
193.302
21
-87.8609
0
LINE
8
BLACK
6
CONTINUOUS
10
193.302
20
-87.8609
11
193.279
21
-87.8671
0
LINE
8
BLACK
6
CONTINUOUS
10
193.279
20
-87.8671
11
192.993
21
-87.8671
0
LINE
8
BLACK
6
CONTINUOUS
10
192.993
20
-87.8671
11
192.97
21
-87.8609
0
LINE
8
BLACK
6
CONTINUOUS
10
192.97
20
-87.8609
11
192.945
21
-87.8594
0
LINE
8
BLACK
6
CONTINUOUS
10
192.945
20
-87.8594
11
192.517
21
-87.7166
0
LINE
8
BLACK
6
CONTINUOUS
10
192.517
20
-87.7166
11
192.488
21
-87.6976
0
LINE
8
BLACK
6
CONTINUOUS
10
192.488
20
-87.6976
11
192.458
21
-87.6804
0
LINE
8
BLACK
6
CONTINUOUS
10
192.458
20
-87.6804
11
192.173
21
-87.3946
0
LINE
8
BLACK
6
CONTINUOUS
10
192.173
20
-87.3946
11
192.16
21
-87.3737
0
LINE
8
BLACK
6
CONTINUOUS
10
192.16
20
-87.3737
11
192.144
21
-87.3557
0
LINE
8
BLACK
6
CONTINUOUS
10
192.144
20
-87.3557
11
192.002
21
-87.0699
0
LINE
8
BLACK
6
CONTINUOUS
10
192.002
20
-87.0699
11
191.998
21
-87.0537
0
LINE
8
BLACK
6
CONTINUOUS
10
191.998
20
-87.0537
11
191.99
21
-87.0392
0
LINE
8
BLACK
6
CONTINUOUS
10
191.99
20
-87.0392
11
191.847
21
-86.4678
0
LINE
8
BLACK
6
CONTINUOUS
10
191.847
20
-86.4678
11
191.848
21
-86.4493
0
LINE
8
BLACK
6
CONTINUOUS
10
191.848
20
-86.4493
11
191.843
21
-86.4314
0
LINE
8
BLACK
6
CONTINUOUS
10
191.843
20
-86.4314
11
191.843
21
-86.0029
0
LINE
8
BLACK
6
CONTINUOUS
10
191.843
20
-86.0029
11
191.848
21
-85.985
0
LINE
8
BLACK
6
CONTINUOUS
10
191.848
20
-85.985
11
191.847
21
-85.9665
0
LINE
8
BLACK
6
CONTINUOUS
10
191.847
20
-85.9665
11
191.99
21
-85.395
0
LINE
8
BLACK
6
CONTINUOUS
10
191.99
20
-85.395
11
191.998
21
-85.3806
0
LINE
8
BLACK
6
CONTINUOUS
10
191.998
20
-85.3806
11
192.002
21
-85.3643
0
LINE
8
BLACK
6
CONTINUOUS
10
192.002
20
-85.3643
11
192.144
21
-85.0786
0
LINE
8
BLACK
6
CONTINUOUS
10
192.144
20
-85.0786
11
192.16
21
-85.0606
0
LINE
8
BLACK
6
CONTINUOUS
10
192.16
20
-85.0606
11
192.173
21
-85.0396
0
LINE
8
BLACK
6
CONTINUOUS
10
192.173
20
-85.0396
11
192.458
21
-84.7539
0
LINE
8
BLACK
6
CONTINUOUS
10
192.458
20
-84.7539
11
192.488
21
-84.7367
0
LINE
8
BLACK
6
CONTINUOUS
10
192.488
20
-84.7367
11
192.517
21
-84.7177
0
LINE
8
BLACK
6
CONTINUOUS
10
192.517
20
-84.7177
11
192.945
21
-84.5748
0
LINE
8
BLACK
6
CONTINUOUS
10
192.945
20
-84.5748
11
192.97
21
-84.5734
0
LINE
8
BLACK
6
CONTINUOUS
10
192.97
20
-84.5734
11
192.993
21
-84.5671
0
LINE
8
BLACK
6
CONTINUOUS
10
192.993
20
-84.5671
11
193.279
21
-84.5671
0
LINE
8
BLACK
6
CONTINUOUS
10
193.279
20
-84.5671
11
193.302
21
-84.5734
0
LINE
8
BLACK
6
CONTINUOUS
10
127.922
20
-84.5761
11
127.956
21
-84.583
0
LINE
8
BLACK
6
CONTINUOUS
10
127.956
20
-84.583
11
128.241
21
-84.7258
0
LINE
8
BLACK
6
CONTINUOUS
10
128.241
20
-84.7258
11
128.259
21
-84.7419
0
LINE
8
BLACK
6
CONTINUOUS
10
128.259
20
-84.7419
11
128.28
21
-84.7539
0
LINE
8
BLACK
6
CONTINUOUS
10
128.28
20
-84.7539
11
128.423
21
-84.8968
0
LINE
8
BLACK
6
CONTINUOUS
10
128.423
20
-84.8968
11
128.435
21
-84.9177
0
LINE
8
BLACK
6
CONTINUOUS
10
128.435
20
-84.9177
11
128.451
21
-84.9358
0
LINE
8
BLACK
6
CONTINUOUS
10
128.451
20
-84.9358
11
128.594
21
-85.2215
0
LINE
8
BLACK
6
CONTINUOUS
10
128.594
20
-85.2215
11
128.601
21
-85.2553
0
LINE
8
BLACK
6
CONTINUOUS
10
128.601
20
-85.2553
11
128.61
21
-85.2886
0
LINE
8
BLACK
6
CONTINUOUS
10
128.61
20
-85.2886
11
128.61
21
-85.5743
0
LINE
8
BLACK
6
CONTINUOUS
10
128.61
20
-85.5743
11
128.601
21
-85.6076
0
LINE
8
BLACK
6
CONTINUOUS
10
128.601
20
-85.6076
11
128.594
21
-85.6414
0
LINE
8
BLACK
6
CONTINUOUS
10
128.594
20
-85.6414
11
128.451
21
-85.9271
0
LINE
8
BLACK
6
CONTINUOUS
10
128.451
20
-85.9271
11
128.435
21
-85.9452
0
LINE
8
BLACK
6
CONTINUOUS
10
128.435
20
-85.9452
11
128.423
21
-85.9661
0
LINE
8
BLACK
6
CONTINUOUS
10
128.423
20
-85.9661
11
128.28
21
-86.1089
0
LINE
8
BLACK
6
CONTINUOUS
10
128.28
20
-86.1089
11
128.27
21
-86.1148
0
LINE
8
BLACK
6
CONTINUOUS
10
128.27
20
-86.1148
11
128.365
21
-86.1463
0
LINE
8
BLACK
6
CONTINUOUS
10
128.365
20
-86.1463
11
128.393
21
-86.1653
0
LINE
8
BLACK
6
CONTINUOUS
10
128.393
20
-86.1653
11
128.423
21
-86.1825
0
LINE
8
BLACK
6
CONTINUOUS
10
128.423
20
-86.1825
11
128.566
21
-86.3254
0
LINE
8
BLACK
6
CONTINUOUS
10
128.566
20
-86.3254
11
128.578
21
-86.3463
0
LINE
8
BLACK
6
CONTINUOUS
10
128.578
20
-86.3463
11
128.594
21
-86.3643
0
LINE
8
BLACK
6
CONTINUOUS
10
128.594
20
-86.3643
11
128.737
21
-86.6501
0
LINE
8
BLACK
6
CONTINUOUS
10
128.737
20
-86.6501
11
128.744
21
-86.6838
0
LINE
8
BLACK
6
CONTINUOUS
10
128.744
20
-86.6838
11
128.753
21
-86.7171
0
LINE
8
BLACK
6
CONTINUOUS
10
128.753
20
-86.7171
11
128.753
21
-87.1457
0
LINE
8
BLACK
6
CONTINUOUS
10
128.753
20
-87.1457
11
128.744
21
-87.179
0
LINE
8
BLACK
6
CONTINUOUS
10
128.744
20
-87.179
11
128.737
21
-87.2128
0
LINE
8
BLACK
6
CONTINUOUS
10
128.737
20
-87.2128
11
128.594
21
-87.4985
0
LINE
8
BLACK
6
CONTINUOUS
10
128.594
20
-87.4985
11
128.578
21
-87.5166
0
LINE
8
BLACK
6
CONTINUOUS
10
128.578
20
-87.5166
11
128.566
21
-87.5375
0
LINE
8
BLACK
6
CONTINUOUS
10
128.566
20
-87.5375
11
128.423
21
-87.6804
0
LINE
8
BLACK
6
CONTINUOUS
10
128.423
20
-87.6804
11
128.402
21
-87.6924
0
LINE
8
BLACK
6
CONTINUOUS
10
128.402
20
-87.6924
11
128.384
21
-87.7084
0
LINE
8
BLACK
6
CONTINUOUS
10
128.384
20
-87.7084
11
128.099
21
-87.8513
0
LINE
8
BLACK
6
CONTINUOUS
10
128.099
20
-87.8513
11
128.065
21
-87.8582
0
LINE
8
BLACK
6
CONTINUOUS
10
128.065
20
-87.8582
11
128.031
21
-87.8671
0
LINE
8
BLACK
6
CONTINUOUS
10
128.031
20
-87.8671
11
126.889
21
-87.8671
0
LINE
8
BLACK
6
CONTINUOUS
10
126.889
20
-87.8671
11
126.814
21
-87.847
0
LINE
8
BLACK
6
CONTINUOUS
10
126.814
20
-87.847
11
126.759
21
-87.7921
0
LINE
8
BLACK
6
CONTINUOUS
10
126.759
20
-87.7921
11
126.739
21
-87.7171
0
LINE
8
BLACK
6
CONTINUOUS
10
126.739
20
-87.7171
11
126.739
21
-84.7171
0
LINE
8
BLACK
6
CONTINUOUS
10
126.739
20
-84.7171
11
126.759
21
-84.6421
0
LINE
8
BLACK
6
CONTINUOUS
10
126.759
20
-84.6421
11
126.814
21
-84.5872
0
LINE
8
BLACK
6
CONTINUOUS
10
126.814
20
-84.5872
11
126.889
21
-84.5671
0
LINE
8
BLACK
6
CONTINUOUS
10
126.889
20
-84.5671
11
127.889
21
-84.5671
0
LINE
8
BLACK
6
CONTINUOUS
10
127.889
20
-84.5671
11
127.922
21
-84.5761
0
LINE
8
BLACK
6
CONTINUOUS
10
127.039
20
-86.2957
11
127.039
21
-87.5671
0
LINE
8
BLACK
6
CONTINUOUS
10
127.039
20
-87.5671
11
127.996
21
-87.5671
0
LINE
8
BLACK
6
CONTINUOUS
10
127.996
20
-87.5671
11
128.228
21
-87.451
0
LINE
8
BLACK
6
CONTINUOUS
10
128.228
20
-87.451
11
128.337
21
-87.3426
0
LINE
8
BLACK
6
CONTINUOUS
10
128.337
20
-87.3426
11
128.453
21
-87.1103
0
LINE
8
BLACK
6
CONTINUOUS
10
128.453
20
-87.1103
11
128.453
21
-86.7526
0
LINE
8
BLACK
6
CONTINUOUS
10
128.453
20
-86.7526
11
128.337
21
-86.5203
0
LINE
8
BLACK
6
CONTINUOUS
10
128.337
20
-86.5203
11
128.236
21
-86.4197
0
LINE
8
BLACK
6
CONTINUOUS
10
128.236
20
-86.4197
11
127.864
21
-86.2957
0
LINE
8
BLACK
6
CONTINUOUS
10
127.864
20
-86.2957
11
127.039
21
-86.2957
0
LINE
8
BLACK
6
CONTINUOUS
10
127.039
20
-84.8671
11
127.039
21
-85.9957
0
LINE
8
BLACK
6
CONTINUOUS
10
127.039
20
-85.9957
11
127.853
21
-85.9957
0
LINE
8
BLACK
6
CONTINUOUS
10
127.853
20
-85.9957
11
128.085
21
-85.8796
0
LINE
8
BLACK
6
CONTINUOUS
10
128.085
20
-85.8796
11
128.194
21
-85.7711
0
LINE
8
BLACK
6
CONTINUOUS
10
128.194
20
-85.7711
11
128.31
21
-85.5389
0
LINE
8
BLACK
6
CONTINUOUS
10
128.31
20
-85.5389
11
128.31
21
-85.324
0
LINE
8
BLACK
6
CONTINUOUS
10
128.31
20
-85.324
11
128.194
21
-85.0917
0
LINE
8
BLACK
6
CONTINUOUS
10
128.194
20
-85.0917
11
128.085
21
-84.9833
0
LINE
8
BLACK
6
CONTINUOUS
10
128.085
20
-84.9833
11
127.853
21
-84.8671
0
LINE
8
BLACK
6
CONTINUOUS
10
127.853
20
-84.8671
11
127.039
21
-84.8671
0
LINE
8
BLACK
6
CONTINUOUS
10
122.779
20
-85.5761
11
122.813
21
-85.583
0
LINE
8
BLACK
6
CONTINUOUS
10
122.813
20
-85.583
11
123.099
21
-85.7258
0
LINE
8
BLACK
6
CONTINUOUS
10
123.099
20
-85.7258
11
123.105
21
-85.7319
0
LINE
8
BLACK
6
CONTINUOUS
10
123.105
20
-85.7319
11
123.114
21
-85.7348
0
LINE
8
BLACK
6
CONTINUOUS
10
123.114
20
-85.7348
11
123.134
21
-85.7574
0
LINE
8
BLACK
6
CONTINUOUS
10
123.134
20
-85.7574
11
123.157
21
-85.7774
0
LINE
8
BLACK
6
CONTINUOUS
10
123.157
20
-85.7774
11
123.16
21
-85.7861
0
LINE
8
BLACK
6
CONTINUOUS
10
123.16
20
-85.7861
11
123.166
21
-85.7929
0
LINE
8
BLACK
6
CONTINUOUS
10
123.166
20
-85.7929
11
123.308
21
-86.0786
0
LINE
8
BLACK
6
CONTINUOUS
10
123.308
20
-86.0786
11
123.315
21
-86.1124
0
LINE
8
BLACK
6
CONTINUOUS
10
123.315
20
-86.1124
11
123.324
21
-86.1457
0
LINE
8
BLACK
6
CONTINUOUS
10
123.324
20
-86.1457
11
123.324
21
-87.7171
0
LINE
8
BLACK
6
CONTINUOUS
10
123.324
20
-87.7171
11
123.304
21
-87.7921
0
LINE
8
BLACK
6
CONTINUOUS
10
123.304
20
-87.7921
11
123.249
21
-87.847
0
LINE
8
BLACK
6
CONTINUOUS
10
123.249
20
-87.847
11
123.174
21
-87.8671
0
LINE
8
BLACK
6
CONTINUOUS
10
123.174
20
-87.8671
11
123.099
21
-87.847
0
LINE
8
BLACK
6
CONTINUOUS
10
123.099
20
-87.847
11
123.044
21
-87.7921
0
LINE
8
BLACK
6
CONTINUOUS
10
123.044
20
-87.7921
11
123.024
21
-87.7171
0
LINE
8
BLACK
6
CONTINUOUS
10
123.024
20
-87.7171
11
123.024
21
-86.1811
0
LINE
8
BLACK
6
CONTINUOUS
10
123.024
20
-86.1811
11
122.92
21
-85.9718
0
LINE
8
BLACK
6
CONTINUOUS
10
122.92
20
-85.9718
11
122.71
21
-85.8671
0
LINE
8
BLACK
6
CONTINUOUS
10
122.71
20
-85.8671
11
122.353
21
-85.8671
0
LINE
8
BLACK
6
CONTINUOUS
10
122.353
20
-85.8671
11
122.12
21
-85.9833
0
LINE
8
BLACK
6
CONTINUOUS
10
122.12
20
-85.9833
11
122.039
21
-86.065
0
LINE
8
BLACK
6
CONTINUOUS
10
122.039
20
-86.065
11
122.039
21
-87.7171
0
LINE
8
BLACK
6
CONTINUOUS
10
122.039
20
-87.7171
11
122.018
21
-87.7921
0
LINE
8
BLACK
6
CONTINUOUS
10
122.018
20
-87.7921
11
121.964
21
-87.847
0
LINE
8
BLACK
6
CONTINUOUS
10
121.964
20
-87.847
11
121.889
21
-87.8671
0
LINE
8
BLACK
6
CONTINUOUS
10
121.889
20
-87.8671
11
121.814
21
-87.847
0
LINE
8
BLACK
6
CONTINUOUS
10
121.814
20
-87.847
11
121.759
21
-87.7921
0
LINE
8
BLACK
6
CONTINUOUS
10
121.759
20
-87.7921
11
121.739
21
-87.7171
0
LINE
8
BLACK
6
CONTINUOUS
10
121.739
20
-87.7171
11
121.739
21
-85.7171
0
LINE
8
BLACK
6
CONTINUOUS
10
121.739
20
-85.7171
11
121.759
21
-85.6421
0
LINE
8
BLACK
6
CONTINUOUS
10
121.759
20
-85.6421
11
121.814
21
-85.5872
0
LINE
8
BLACK
6
CONTINUOUS
10
121.814
20
-85.5872
11
121.889
21
-85.5671
0
LINE
8
BLACK
6
CONTINUOUS
10
121.889
20
-85.5671
11
121.964
21
-85.5872
0
LINE
8
BLACK
6
CONTINUOUS
10
121.964
20
-85.5872
11
122.018
21
-85.6421
0
LINE
8
BLACK
6
CONTINUOUS
10
122.018
20
-85.6421
11
122.032
21
-85.6921
0
LINE
8
BLACK
6
CONTINUOUS
10
122.032
20
-85.6921
11
122.25
21
-85.583
0
LINE
8
BLACK
6
CONTINUOUS
10
122.25
20
-85.583
11
122.284
21
-85.5761
0
LINE
8
BLACK
6
CONTINUOUS
10
122.284
20
-85.5761
11
122.317
21
-85.5671
0
LINE
8
BLACK
6
CONTINUOUS
10
122.317
20
-85.5671
11
122.746
21
-85.5671
0
LINE
8
BLACK
6
CONTINUOUS
10
122.746
20
-85.5671
11
122.779
21
-85.5761
0
LINE
8
BLACK
6
CONTINUOUS
10
120.535
20
-85.5872
11
120.59
21
-85.6421
0
LINE
8
BLACK
6
CONTINUOUS
10
120.59
20
-85.6421
11
120.61
21
-85.7171
0
LINE
8
BLACK
6
CONTINUOUS
10
120.61
20
-85.7171
11
120.61
21
-87.7171
0
LINE
8
BLACK
6
CONTINUOUS
10
120.61
20
-87.7171
11
120.59
21
-87.7921
0
LINE
8
BLACK
6
CONTINUOUS
10
120.59
20
-87.7921
11
120.535
21
-87.847
0
LINE
8
BLACK
6
CONTINUOUS
10
120.535
20
-87.847
11
120.46
21
-87.8671
0
LINE
8
BLACK
6
CONTINUOUS
10
120.46
20
-87.8671
11
120.385
21
-87.847
0
LINE
8
BLACK
6
CONTINUOUS
10
120.385
20
-87.847
11
120.33
21
-87.7921
0
LINE
8
BLACK
6
CONTINUOUS
10
120.33
20
-87.7921
11
120.31
21
-87.7171
0
LINE
8
BLACK
6
CONTINUOUS
10
120.31
20
-87.7171
11
120.31
21
-85.7171
0
LINE
8
BLACK
6
CONTINUOUS
10
120.31
20
-85.7171
11
120.33
21
-85.6421
0
LINE
8
BLACK
6
CONTINUOUS
10
120.33
20
-85.6421
11
120.385
21
-85.5872
0
LINE
8
BLACK
6
CONTINUOUS
10
120.385
20
-85.5872
11
120.46
21
-85.5671
0
LINE
8
BLACK
6
CONTINUOUS
10
120.46
20
-85.5671
11
120.535
21
-85.5872
0
LINE
8
BLACK
6
CONTINUOUS
10
87.4333
20
-85.5761
11
87.4671
21
-85.583
0
LINE
8
BLACK
6
CONTINUOUS
10
87.4671
20
-85.583
11
87.7528
21
-85.7258
0
LINE
8
BLACK
6
CONTINUOUS
10
87.7528
20
-85.7258
11
87.7597
21
-85.7319
0
LINE
8
BLACK
6
CONTINUOUS
10
87.7597
20
-85.7319
11
87.7684
21
-85.7348
0
LINE
8
BLACK
6
CONTINUOUS
10
87.7684
20
-85.7348
11
87.7884
21
-85.7574
0
LINE
8
BLACK
6
CONTINUOUS
10
87.7884
20
-85.7574
11
87.8109
21
-85.7774
0
LINE
8
BLACK
6
CONTINUOUS
10
87.8109
20
-85.7774
11
87.8138
21
-85.7861
0
LINE
8
BLACK
6
CONTINUOUS
10
87.8138
20
-85.7861
11
87.8199
21
-85.7929
0
LINE
8
BLACK
6
CONTINUOUS
10
87.8199
20
-85.7929
11
87.9627
21
-86.0786
0
LINE
8
BLACK
6
CONTINUOUS
10
87.9627
20
-86.0786
11
87.9696
21
-86.1124
0
LINE
8
BLACK
6
CONTINUOUS
10
87.9696
20
-86.1124
11
87.9786
21
-86.1457
0
LINE
8
BLACK
6
CONTINUOUS
10
87.9786
20
-86.1457
11
87.9786
21
-87.7171
0
LINE
8
BLACK
6
CONTINUOUS
10
87.9786
20
-87.7171
11
87.9585
21
-87.7921
0
LINE
8
BLACK
6
CONTINUOUS
10
87.9585
20
-87.7921
11
87.9036
21
-87.847
0
LINE
8
BLACK
6
CONTINUOUS
10
87.9036
20
-87.847
11
87.8286
21
-87.8671
0
LINE
8
BLACK
6
CONTINUOUS
10
87.8286
20
-87.8671
11
87.7536
21
-87.847
0
LINE
8
BLACK
6
CONTINUOUS
10
87.7536
20
-87.847
11
87.6987
21
-87.7921
0
LINE
8
BLACK
6
CONTINUOUS
10
87.6987
20
-87.7921
11
87.6786
21
-87.7171
0
LINE
8
BLACK
6
CONTINUOUS
10
87.6786
20
-87.7171
11
87.6786
21
-86.1811
0
LINE
8
BLACK
6
CONTINUOUS
10
87.6786
20
-86.1811
11
87.5739
21
-85.9718
0
LINE
8
BLACK
6
CONTINUOUS
10
87.5739
20
-85.9718
11
87.3646
21
-85.8671
0
LINE
8
BLACK
6
CONTINUOUS
10
87.3646
20
-85.8671
11
87.0068
21
-85.8671
0
LINE
8
BLACK
6
CONTINUOUS
10
87.0068
20
-85.8671
11
86.7746
21
-85.9833
0
LINE
8
BLACK
6
CONTINUOUS
10
86.7746
20
-85.9833
11
86.6929
21
-86.065
0
LINE
8
BLACK
6
CONTINUOUS
10
86.6929
20
-86.065
11
86.6929
21
-87.7171
0
LINE
8
BLACK
6
CONTINUOUS
10
86.6929
20
-87.7171
11
86.6728
21
-87.7921
0
LINE
8
BLACK
6
CONTINUOUS
10
86.6728
20
-87.7921
11
86.6179
21
-87.847
0
LINE
8
BLACK
6
CONTINUOUS
10
86.6179
20
-87.847
11
86.5429
21
-87.8671
0
LINE
8
BLACK
6
CONTINUOUS
10
86.5429
20
-87.8671
11
86.4679
21
-87.847
0
LINE
8
BLACK
6
CONTINUOUS
10
86.4679
20
-87.847
11
86.413
21
-87.7921
0
LINE
8
BLACK
6
CONTINUOUS
10
86.413
20
-87.7921
11
86.3929
21
-87.7171
0
LINE
8
BLACK
6
CONTINUOUS
10
86.3929
20
-87.7171
11
86.3929
21
-85.7171
0
LINE
8
BLACK
6
CONTINUOUS
10
86.3929
20
-85.7171
11
86.413
21
-85.6421
0
LINE
8
BLACK
6
CONTINUOUS
10
86.413
20
-85.6421
11
86.4679
21
-85.5872
0
LINE
8
BLACK
6
CONTINUOUS
10
86.4679
20
-85.5872
11
86.5429
21
-85.5671
0
LINE
8
BLACK
6
CONTINUOUS
10
86.5429
20
-85.5671
11
86.6179
21
-85.5872
0
LINE
8
BLACK
6
CONTINUOUS
10
86.6179
20
-85.5872
11
86.6728
21
-85.6421
0
LINE
8
BLACK
6
CONTINUOUS
10
86.6728
20
-85.6421
11
86.6861
21
-85.6921
0
LINE
8
BLACK
6
CONTINUOUS
10
86.6861
20
-85.6921
11
86.9043
21
-85.583
0
LINE
8
BLACK
6
CONTINUOUS
10
86.9043
20
-85.583
11
86.9381
21
-85.5761
0
LINE
8
BLACK
6
CONTINUOUS
10
86.9381
20
-85.5761
11
86.9714
21
-85.5671
0
LINE
8
BLACK
6
CONTINUOUS
10
86.9714
20
-85.5671
11
87.4
21
-85.5671
0
LINE
8
BLACK
6
CONTINUOUS
10
87.4
20
-85.5671
11
87.4333
21
-85.5761
0
LINE
8
BLACK
6
CONTINUOUS
10
85.1893
20
-85.5872
11
85.2442
21
-85.6421
0
LINE
8
BLACK
6
CONTINUOUS
10
85.2442
20
-85.6421
11
85.2643
21
-85.7171
0
LINE
8
BLACK
6
CONTINUOUS
10
85.2643
20
-85.7171
11
85.2643
21
-87.7171
0
LINE
8
BLACK
6
CONTINUOUS
10
85.2643
20
-87.7171
11
85.2442
21
-87.7921
0
LINE
8
BLACK
6
CONTINUOUS
10
85.2442
20
-87.7921
11
85.1893
21
-87.847
0
LINE
8
BLACK
6
CONTINUOUS
10
85.1893
20
-87.847
11
85.1143
21
-87.8671
0
LINE
8
BLACK
6
CONTINUOUS
10
85.1143
20
-87.8671
11
85.0393
21
-87.847
0
LINE
8
BLACK
6
CONTINUOUS
10
85.0393
20
-87.847
11
84.9844
21
-87.7921
0
LINE
8
BLACK
6
CONTINUOUS
10
84.9844
20
-87.7921
11
84.9643
21
-87.7171
0
LINE
8
BLACK
6
CONTINUOUS
10
84.9643
20
-87.7171
11
84.9643
21
-85.7171
0
LINE
8
BLACK
6
CONTINUOUS
10
84.9643
20
-85.7171
11
84.9844
21
-85.6421
0
LINE
8
BLACK
6
CONTINUOUS
10
84.9844
20
-85.6421
11
85.0393
21
-85.5872
0
LINE
8
BLACK
6
CONTINUOUS
10
85.0393
20
-85.5872
11
85.1143
21
-85.5671
0
LINE
8
BLACK
6
CONTINUOUS
10
85.1143
20
-85.5671
11
85.1893
21
-85.5872
0
LINE
8
BLACK
6
CONTINUOUS
10
175.736
20
-84.5734
11
175.76
21
-84.5748
0
LINE
8
BLACK
6
CONTINUOUS
10
175.76
20
-84.5748
11
176.189
21
-84.7177
0
LINE
8
BLACK
6
CONTINUOUS
10
176.189
20
-84.7177
11
176.218
21
-84.7367
0
LINE
8
BLACK
6
CONTINUOUS
10
176.218
20
-84.7367
11
176.247
21
-84.7539
0
LINE
8
BLACK
6
CONTINUOUS
10
176.247
20
-84.7539
11
176.39
21
-84.8968
0
LINE
8
BLACK
6
CONTINUOUS
10
176.39
20
-84.8968
11
176.429
21
-84.964
0
LINE
8
BLACK
6
CONTINUOUS
10
176.429
20
-84.964
11
176.429
21
-85.0417
0
LINE
8
BLACK
6
CONTINUOUS
10
176.429
20
-85.0417
11
176.39
21
-85.1089
0
LINE
8
BLACK
6
CONTINUOUS
10
176.39
20
-85.1089
11
176.323
21
-85.1477
0
LINE
8
BLACK
6
CONTINUOUS
10
176.323
20
-85.1477
11
176.245
21
-85.1477
0
LINE
8
BLACK
6
CONTINUOUS
10
176.245
20
-85.1477
11
176.178
21
-85.1089
0
LINE
8
BLACK
6
CONTINUOUS
10
176.178
20
-85.1089
11
176.06
21
-84.9911
0
LINE
8
BLACK
6
CONTINUOUS
10
176.06
20
-84.9911
11
175.689
21
-84.8671
0
LINE
8
BLACK
6
CONTINUOUS
10
175.689
20
-84.8671
11
175.451
21
-84.8671
0
LINE
8
BLACK
6
CONTINUOUS
10
175.451
20
-84.8671
11
175.08
21
-84.9911
0
LINE
8
BLACK
6
CONTINUOUS
10
175.08
20
-84.9911
11
174.836
21
-85.2346
0
LINE
8
BLACK
6
CONTINUOUS
10
174.836
20
-85.2346
11
174.712
21
-85.4838
0
LINE
8
BLACK
6
CONTINUOUS
10
174.712
20
-85.4838
11
174.577
21
-86.0213
0
LINE
8
BLACK
6
CONTINUOUS
10
174.577
20
-86.0213
11
174.577
21
-86.413
0
LINE
8
BLACK
6
CONTINUOUS
10
174.577
20
-86.413
11
174.712
21
-86.9505
0
LINE
8
BLACK
6
CONTINUOUS
10
174.712
20
-86.9505
11
174.836
21
-87.1997
0
LINE
8
BLACK
6
CONTINUOUS
10
174.836
20
-87.1997
11
175.08
21
-87.4432
0
LINE
8
BLACK
6
CONTINUOUS
10
175.08
20
-87.4432
11
175.451
21
-87.5671
0
LINE
8
BLACK
6
CONTINUOUS
10
175.451
20
-87.5671
11
175.689
21
-87.5671
0
LINE
8
BLACK
6
CONTINUOUS
10
175.689
20
-87.5671
11
176.06
21
-87.4432
0
LINE
8
BLACK
6
CONTINUOUS
10
176.06
20
-87.4432
11
176.178
21
-87.3254
0
LINE
8
BLACK
6
CONTINUOUS
10
176.178
20
-87.3254
11
176.245
21
-87.2865
0
LINE
8
BLACK
6
CONTINUOUS
10
176.245
20
-87.2865
11
176.323
21
-87.2865
0
LINE
8
BLACK
6
CONTINUOUS
10
176.323
20
-87.2865
11
176.39
21
-87.3254
0
LINE
8
BLACK
6
CONTINUOUS
10
176.39
20
-87.3254
11
176.429
21
-87.3926
0
LINE
8
BLACK
6
CONTINUOUS
10
176.429
20
-87.3926
11
176.429
21
-87.4703
0
LINE
8
BLACK
6
CONTINUOUS
10
176.429
20
-87.4703
11
176.39
21
-87.5375
0
LINE
8
BLACK
6
CONTINUOUS
10
176.39
20
-87.5375
11
176.247
21
-87.6804
0
LINE
8
BLACK
6
CONTINUOUS
10
176.247
20
-87.6804
11
176.218
21
-87.6976
0
LINE
8
BLACK
6
CONTINUOUS
10
176.218
20
-87.6976
11
176.189
21
-87.7166
0
LINE
8
BLACK
6
CONTINUOUS
10
176.189
20
-87.7166
11
175.76
21
-87.8594
0
LINE
8
BLACK
6
CONTINUOUS
10
175.76
20
-87.8594
11
175.736
21
-87.8609
0
LINE
8
BLACK
6
CONTINUOUS
10
175.736
20
-87.8609
11
175.713
21
-87.8671
0
LINE
8
BLACK
6
CONTINUOUS
10
175.713
20
-87.8671
11
175.427
21
-87.8671
0
LINE
8
BLACK
6
CONTINUOUS
10
175.427
20
-87.8671
11
175.404
21
-87.8609
0
LINE
8
BLACK
6
CONTINUOUS
10
175.404
20
-87.8609
11
175.38
21
-87.8594
0
LINE
8
BLACK
6
CONTINUOUS
10
175.38
20
-87.8594
11
174.951
21
-87.7166
0
LINE
8
BLACK
6
CONTINUOUS
10
174.951
20
-87.7166
11
174.922
21
-87.6976
0
LINE
8
BLACK
6
CONTINUOUS
10
174.922
20
-87.6976
11
174.893
21
-87.6804
0
LINE
8
BLACK
6
CONTINUOUS
10
174.893
20
-87.6804
11
174.607
21
-87.3946
0
LINE
8
BLACK
6
CONTINUOUS
10
174.607
20
-87.3946
11
174.595
21
-87.3737
0
LINE
8
BLACK
6
CONTINUOUS
10
174.595
20
-87.3737
11
174.579
21
-87.3557
0
LINE
8
BLACK
6
CONTINUOUS
10
174.579
20
-87.3557
11
174.436
21
-87.0699
0
LINE
8
BLACK
6
CONTINUOUS
10
174.436
20
-87.0699
11
174.433
21
-87.0537
0
LINE
8
BLACK
6
CONTINUOUS
10
174.433
20
-87.0537
11
174.424
21
-87.0392
0
LINE
8
BLACK
6
CONTINUOUS
10
174.424
20
-87.0392
11
174.282
21
-86.4678
0
LINE
8
BLACK
6
CONTINUOUS
10
174.282
20
-86.4678
11
174.282
21
-86.4493
0
LINE
8
BLACK
6
CONTINUOUS
10
174.282
20
-86.4493
11
174.277
21
-86.4314
0
LINE
8
BLACK
6
CONTINUOUS
10
174.277
20
-86.4314
11
174.277
21
-86.0029
0
LINE
8
BLACK
6
CONTINUOUS
10
174.277
20
-86.0029
11
174.282
21
-85.985
0
LINE
8
BLACK
6
CONTINUOUS
10
174.282
20
-85.985
11
174.282
21
-85.9665
0
LINE
8
BLACK
6
CONTINUOUS
10
174.282
20
-85.9665
11
174.424
21
-85.395
0
LINE
8
BLACK
6
CONTINUOUS
10
174.424
20
-85.395
11
174.433
21
-85.3806
0
LINE
8
BLACK
6
CONTINUOUS
10
174.433
20
-85.3806
11
174.436
21
-85.3643
0
LINE
8
BLACK
6
CONTINUOUS
10
174.436
20
-85.3643
11
174.579
21
-85.0786
0
LINE
8
BLACK
6
CONTINUOUS
10
174.579
20
-85.0786
11
174.595
21
-85.0606
0
LINE
8
BLACK
6
CONTINUOUS
10
174.595
20
-85.0606
11
174.607
21
-85.0396
0
LINE
8
BLACK
6
CONTINUOUS
10
174.607
20
-85.0396
11
174.893
21
-84.7539
0
LINE
8
BLACK
6
CONTINUOUS
10
174.893
20
-84.7539
11
174.922
21
-84.7367
0
LINE
8
BLACK
6
CONTINUOUS
10
174.922
20
-84.7367
11
174.951
21
-84.7177
0
LINE
8
BLACK
6
CONTINUOUS
10
174.951
20
-84.7177
11
175.38
21
-84.5748
0
LINE
8
BLACK
6
CONTINUOUS
10
175.38
20
-84.5748
11
175.404
21
-84.5734
0
LINE
8
BLACK
6
CONTINUOUS
10
175.404
20
-84.5734
11
175.427
21
-84.5671
0
LINE
8
BLACK
6
CONTINUOUS
10
175.427
20
-84.5671
11
175.713
21
-84.5671
0
LINE
8
BLACK
6
CONTINUOUS
10
175.713
20
-84.5671
11
175.736
21
-84.5734
0
LINE
8
BLACK
6
CONTINUOUS
10
147.202
20
-84.5761
11
147.236
21
-84.583
0
LINE
8
BLACK
6
CONTINUOUS
10
147.236
20
-84.583
11
147.521
21
-84.7258
0
LINE
8
BLACK
6
CONTINUOUS
10
147.521
20
-84.7258
11
147.539
21
-84.7419
0
LINE
8
BLACK
6
CONTINUOUS
10
147.539
20
-84.7419
11
147.56
21
-84.7539
0
LINE
8
BLACK
6
CONTINUOUS
10
147.56
20
-84.7539
11
147.703
21
-84.8968
0
LINE
8
BLACK
6
CONTINUOUS
10
147.703
20
-84.8968
11
147.715
21
-84.9177
0
LINE
8
BLACK
6
CONTINUOUS
10
147.715
20
-84.9177
11
147.731
21
-84.9358
0
LINE
8
BLACK
6
CONTINUOUS
10
147.731
20
-84.9358
11
147.874
21
-85.2215
0
LINE
8
BLACK
6
CONTINUOUS
10
147.874
20
-85.2215
11
147.881
21
-85.2553
0
LINE
8
BLACK
6
CONTINUOUS
10
147.881
20
-85.2553
11
147.89
21
-85.2886
0
LINE
8
BLACK
6
CONTINUOUS
10
147.89
20
-85.2886
11
147.89
21
-85.5743
0
LINE
8
BLACK
6
CONTINUOUS
10
147.89
20
-85.5743
11
147.881
21
-85.6076
0
LINE
8
BLACK
6
CONTINUOUS
10
147.881
20
-85.6076
11
147.874
21
-85.6414
0
LINE
8
BLACK
6
CONTINUOUS
10
147.874
20
-85.6414
11
147.731
21
-85.9271
0
LINE
8
BLACK
6
CONTINUOUS
10
147.731
20
-85.9271
11
147.715
21
-85.9452
0
LINE
8
BLACK
6
CONTINUOUS
10
147.715
20
-85.9452
11
147.703
21
-85.9661
0
LINE
8
BLACK
6
CONTINUOUS
10
147.703
20
-85.9661
11
147.56
21
-86.1089
0
LINE
8
BLACK
6
CONTINUOUS
10
147.56
20
-86.1089
11
147.55
21
-86.1148
0
LINE
8
BLACK
6
CONTINUOUS
10
147.55
20
-86.1148
11
147.645
21
-86.1463
0
LINE
8
BLACK
6
CONTINUOUS
10
147.645
20
-86.1463
11
147.673
21
-86.1653
0
LINE
8
BLACK
6
CONTINUOUS
10
147.673
20
-86.1653
11
147.703
21
-86.1825
0
LINE
8
BLACK
6
CONTINUOUS
10
147.703
20
-86.1825
11
147.846
21
-86.3254
0
LINE
8
BLACK
6
CONTINUOUS
10
147.846
20
-86.3254
11
147.858
21
-86.3463
0
LINE
8
BLACK
6
CONTINUOUS
10
147.858
20
-86.3463
11
147.874
21
-86.3643
0
LINE
8
BLACK
6
CONTINUOUS
10
147.874
20
-86.3643
11
148.017
21
-86.6501
0
LINE
8
BLACK
6
CONTINUOUS
10
148.017
20
-86.6501
11
148.024
21
-86.6838
0
LINE
8
BLACK
6
CONTINUOUS
10
148.024
20
-86.6838
11
148.033
21
-86.7171
0
LINE
8
BLACK
6
CONTINUOUS
10
148.033
20
-86.7171
11
148.033
21
-87.1457
0
LINE
8
BLACK
6
CONTINUOUS
10
148.033
20
-87.1457
11
148.024
21
-87.179
0
LINE
8
BLACK
6
CONTINUOUS
10
148.024
20
-87.179
11
148.017
21
-87.2128
0
LINE
8
BLACK
6
CONTINUOUS
10
148.017
20
-87.2128
11
147.874
21
-87.4985
0
LINE
8
BLACK
6
CONTINUOUS
10
147.874
20
-87.4985
11
147.858
21
-87.5166
0
LINE
8
BLACK
6
CONTINUOUS
10
147.858
20
-87.5166
11
147.846
21
-87.5375
0
LINE
8
BLACK
6
CONTINUOUS
10
147.846
20
-87.5375
11
147.703
21
-87.6804
0
LINE
8
BLACK
6
CONTINUOUS
10
147.703
20
-87.6804
11
147.682
21
-87.6924
0
LINE
8
BLACK
6
CONTINUOUS
10
147.682
20
-87.6924
11
147.664
21
-87.7084
0
LINE
8
BLACK
6
CONTINUOUS
10
147.664
20
-87.7084
11
147.379
21
-87.8513
0
LINE
8
BLACK
6
CONTINUOUS
10
147.379
20
-87.8513
11
147.345
21
-87.8582
0
LINE
8
BLACK
6
CONTINUOUS
10
147.345
20
-87.8582
11
147.311
21
-87.8671
0
LINE
8
BLACK
6
CONTINUOUS
10
147.311
20
-87.8671
11
146.169
21
-87.8671
0
LINE
8
BLACK
6
CONTINUOUS
10
146.169
20
-87.8671
11
146.094
21
-87.847
0
LINE
8
BLACK
6
CONTINUOUS
10
146.094
20
-87.847
11
146.039
21
-87.7921
0
LINE
8
BLACK
6
CONTINUOUS
10
146.039
20
-87.7921
11
146.019
21
-87.7171
0
LINE
8
BLACK
6
CONTINUOUS
10
146.019
20
-87.7171
11
146.019
21
-84.7171
0
LINE
8
BLACK
6
CONTINUOUS
10
146.019
20
-84.7171
11
146.039
21
-84.6421
0
LINE
8
BLACK
6
CONTINUOUS
10
146.039
20
-84.6421
11
146.094
21
-84.5872
0
LINE
8
BLACK
6
CONTINUOUS
10
146.094
20
-84.5872
11
146.169
21
-84.5671
0
LINE
8
BLACK
6
CONTINUOUS
10
146.169
20
-84.5671
11
147.169
21
-84.5671
0
LINE
8
BLACK
6
CONTINUOUS
10
147.169
20
-84.5671
11
147.202
21
-84.5761
0
LINE
8
BLACK
6
CONTINUOUS
10
146.319
20
-86.2957
11
146.319
21
-87.5671
0
LINE
8
BLACK
6
CONTINUOUS
10
146.319
20
-87.5671
11
147.276
21
-87.5671
0
LINE
8
BLACK
6
CONTINUOUS
10
147.276
20
-87.5671
11
147.508
21
-87.451
0
LINE
8
BLACK
6
CONTINUOUS
10
147.508
20
-87.451
11
147.617
21
-87.3426
0
LINE
8
BLACK
6
CONTINUOUS
10
147.617
20
-87.3426
11
147.733
21
-87.1103
0
LINE
8
BLACK
6
CONTINUOUS
10
147.733
20
-87.1103
11
147.733
21
-86.7526
0
LINE
8
BLACK
6
CONTINUOUS
10
147.733
20
-86.7526
11
147.617
21
-86.5203
0
LINE
8
BLACK
6
CONTINUOUS
10
147.617
20
-86.5203
11
147.516
21
-86.4197
0
LINE
8
BLACK
6
CONTINUOUS
10
147.516
20
-86.4197
11
147.144
21
-86.2957
0
LINE
8
BLACK
6
CONTINUOUS
10
147.144
20
-86.2957
11
146.319
21
-86.2957
0
LINE
8
BLACK
6
CONTINUOUS
10
146.319
20
-84.8671
11
146.319
21
-85.9957
0
LINE
8
BLACK
6
CONTINUOUS
10
146.319
20
-85.9957
11
147.133
21
-85.9957
0
LINE
8
BLACK
6
CONTINUOUS
10
147.133
20
-85.9957
11
147.365
21
-85.8796
0
LINE
8
BLACK
6
CONTINUOUS
10
147.365
20
-85.8796
11
147.474
21
-85.7711
0
LINE
8
BLACK
6
CONTINUOUS
10
147.474
20
-85.7711
11
147.59
21
-85.5389
0
LINE
8
BLACK
6
CONTINUOUS
10
147.59
20
-85.5389
11
147.59
21
-85.324
0
LINE
8
BLACK
6
CONTINUOUS
10
147.59
20
-85.324
11
147.474
21
-85.0917
0
LINE
8
BLACK
6
CONTINUOUS
10
147.474
20
-85.0917
11
147.365
21
-84.9833
0
LINE
8
BLACK
6
CONTINUOUS
10
147.365
20
-84.9833
11
147.133
21
-84.8671
0
LINE
8
BLACK
6
CONTINUOUS
10
147.133
20
-84.8671
11
146.319
21
-84.8671
0
LINE
8
BLACK
6
CONTINUOUS
10
142.244
20
-84.5872
11
142.298
21
-84.6421
0
LINE
8
BLACK
6
CONTINUOUS
10
142.298
20
-84.6421
11
142.319
21
-84.7171
0
LINE
8
BLACK
6
CONTINUOUS
10
142.319
20
-84.7171
11
142.319
21
-85.5671
0
LINE
8
BLACK
6
CONTINUOUS
10
142.319
20
-85.5671
11
142.883
21
-85.5671
0
LINE
8
BLACK
6
CONTINUOUS
10
142.883
20
-85.5671
11
142.958
21
-85.5872
0
LINE
8
BLACK
6
CONTINUOUS
10
142.958
20
-85.5872
11
143.013
21
-85.6421
0
LINE
8
BLACK
6
CONTINUOUS
10
143.013
20
-85.6421
11
143.033
21
-85.7171
0
LINE
8
BLACK
6
CONTINUOUS
10
143.033
20
-85.7171
11
143.013
21
-85.7921
0
LINE
8
BLACK
6
CONTINUOUS
10
143.013
20
-85.7921
11
142.958
21
-85.847
0
LINE
8
BLACK
6
CONTINUOUS
10
142.958
20
-85.847
11
142.883
21
-85.8671
0
LINE
8
BLACK
6
CONTINUOUS
10
142.883
20
-85.8671
11
142.319
21
-85.8671
0
LINE
8
BLACK
6
CONTINUOUS
10
142.319
20
-85.8671
11
142.319
21
-87.2532
0
LINE
8
BLACK
6
CONTINUOUS
10
142.319
20
-87.2532
11
142.423
21
-87.4625
0
LINE
8
BLACK
6
CONTINUOUS
10
142.423
20
-87.4625
11
142.633
21
-87.5671
0
LINE
8
BLACK
6
CONTINUOUS
10
142.633
20
-87.5671
11
142.883
21
-87.5671
0
LINE
8
BLACK
6
CONTINUOUS
10
142.883
20
-87.5671
11
142.958
21
-87.5872
0
LINE
8
BLACK
6
CONTINUOUS
10
142.958
20
-87.5872
11
143.013
21
-87.6421
0
LINE
8
BLACK
6
CONTINUOUS
10
143.013
20
-87.6421
11
143.033
21
-87.7171
0
LINE
8
BLACK
6
CONTINUOUS
10
143.033
20
-87.7171
11
143.013
21
-87.7921
0
LINE
8
BLACK
6
CONTINUOUS
10
143.013
20
-87.7921
11
142.958
21
-87.847
0
LINE
8
BLACK
6
CONTINUOUS
10
142.958
20
-87.847
11
142.883
21
-87.8671
0
LINE
8
BLACK
6
CONTINUOUS
10
142.883
20
-87.8671
11
142.597
21
-87.8671
0
LINE
8
BLACK
6
CONTINUOUS
10
142.597
20
-87.8671
11
142.564
21
-87.8582
0
LINE
8
BLACK
6
CONTINUOUS
10
142.564
20
-87.8582
11
142.53
21
-87.8513
0
LINE
8
BLACK
6
CONTINUOUS
10
142.53
20
-87.8513
11
142.244
21
-87.7084
0
LINE
8
BLACK
6
CONTINUOUS
10
142.244
20
-87.7084
11
142.237
21
-87.7024
0
LINE
8
BLACK
6
CONTINUOUS
10
142.237
20
-87.7024
11
142.229
21
-87.6995
0
LINE
8
BLACK
6
CONTINUOUS
10
142.229
20
-87.6995
11
142.209
21
-87.6769
0
LINE
8
BLACK
6
CONTINUOUS
10
142.209
20
-87.6769
11
142.186
21
-87.6569
0
LINE
8
BLACK
6
CONTINUOUS
10
142.186
20
-87.6569
11
142.183
21
-87.6482
0
LINE
8
BLACK
6
CONTINUOUS
10
142.183
20
-87.6482
11
142.177
21
-87.6414
0
LINE
8
BLACK
6
CONTINUOUS
10
142.177
20
-87.6414
11
142.034
21
-87.3557
0
LINE
8
BLACK
6
CONTINUOUS
10
142.034
20
-87.3557
11
142.027
21
-87.3219
0
LINE
8
BLACK
6
CONTINUOUS
10
142.027
20
-87.3219
11
142.019
21
-87.2886
0
LINE
8
BLACK
6
CONTINUOUS
10
142.019
20
-87.2886
11
142.019
21
-85.8671
0
LINE
8
BLACK
6
CONTINUOUS
10
142.019
20
-85.8671
11
141.74
21
-85.8671
0
LINE
8
BLACK
6
CONTINUOUS
10
141.74
20
-85.8671
11
141.665
21
-85.847
0
LINE
8
BLACK
6
CONTINUOUS
10
141.665
20
-85.847
11
141.61
21
-85.7921
0
LINE
8
BLACK
6
CONTINUOUS
10
141.61
20
-85.7921
11
141.59
21
-85.7171
0
LINE
8
BLACK
6
CONTINUOUS
10
141.59
20
-85.7171
11
141.61
21
-85.6421
0
LINE
8
BLACK
6
CONTINUOUS
10
141.61
20
-85.6421
11
141.665
21
-85.5872
0
LINE
8
BLACK
6
CONTINUOUS
10
141.665
20
-85.5872
11
141.74
21
-85.5671
0
LINE
8
BLACK
6
CONTINUOUS
10
141.74
20
-85.5671
11
142.019
21
-85.5671
0
LINE
8
BLACK
6
CONTINUOUS
10
142.019
20
-85.5671
11
142.019
21
-84.7171
0
LINE
8
BLACK
6
CONTINUOUS
10
142.019
20
-84.7171
11
142.039
21
-84.6421
0
LINE
8
BLACK
6
CONTINUOUS
10
142.039
20
-84.6421
11
142.094
21
-84.5872
0
LINE
8
BLACK
6
CONTINUOUS
10
142.094
20
-84.5872
11
142.169
21
-84.5671
0
LINE
8
BLACK
6
CONTINUOUS
10
142.169
20
-84.5671
11
142.244
21
-84.5872
0
LINE
8
BLACK
6
CONTINUOUS
10
140.815
20
-85.5872
11
140.87
21
-85.6421
0
LINE
8
BLACK
6
CONTINUOUS
10
140.87
20
-85.6421
11
140.89
21
-85.7171
0
LINE
8
BLACK
6
CONTINUOUS
10
140.89
20
-85.7171
11
140.89
21
-87.7171
0
LINE
8
BLACK
6
CONTINUOUS
10
140.89
20
-87.7171
11
140.87
21
-87.7921
0
LINE
8
BLACK
6
CONTINUOUS
10
140.87
20
-87.7921
11
140.815
21
-87.847
0
LINE
8
BLACK
6
CONTINUOUS
10
140.815
20
-87.847
11
140.74
21
-87.8671
0
LINE
8
BLACK
6
CONTINUOUS
10
140.74
20
-87.8671
11
140.665
21
-87.847
0
LINE
8
BLACK
6
CONTINUOUS
10
140.665
20
-87.847
11
140.61
21
-87.7921
0
LINE
8
BLACK
6
CONTINUOUS
10
140.61
20
-87.7921
11
140.597
21
-87.7422
0
LINE
8
BLACK
6
CONTINUOUS
10
140.597
20
-87.7422
11
140.379
21
-87.8513
0
LINE
8
BLACK
6
CONTINUOUS
10
140.379
20
-87.8513
11
140.345
21
-87.8582
0
LINE
8
BLACK
6
CONTINUOUS
10
140.345
20
-87.8582
11
140.311
21
-87.8671
0
LINE
8
BLACK
6
CONTINUOUS
10
140.311
20
-87.8671
11
139.883
21
-87.8671
0
LINE
8
BLACK
6
CONTINUOUS
10
139.883
20
-87.8671
11
139.85
21
-87.8582
0
LINE
8
BLACK
6
CONTINUOUS
10
139.85
20
-87.8582
11
139.816
21
-87.8513
0
LINE
8
BLACK
6
CONTINUOUS
10
139.816
20
-87.8513
11
139.53
21
-87.7084
0
LINE
8
BLACK
6
CONTINUOUS
10
139.53
20
-87.7084
11
139.523
21
-87.7024
0
LINE
8
BLACK
6
CONTINUOUS
10
139.523
20
-87.7024
11
139.514
21
-87.6995
0
LINE
8
BLACK
6
CONTINUOUS
10
139.514
20
-87.6995
11
139.495
21
-87.6769
0
LINE
8
BLACK
6
CONTINUOUS
10
139.495
20
-87.6769
11
139.472
21
-87.6569
0
LINE
8
BLACK
6
CONTINUOUS
10
139.472
20
-87.6569
11
139.469
21
-87.6482
0
LINE
8
BLACK
6
CONTINUOUS
10
139.469
20
-87.6482
11
139.463
21
-87.6414
0
LINE
8
BLACK
6
CONTINUOUS
10
139.463
20
-87.6414
11
139.32
21
-87.3557
0
LINE
8
BLACK
6
CONTINUOUS
10
139.32
20
-87.3557
11
139.313
21
-87.3219
0
LINE
8
BLACK
6
CONTINUOUS
10
139.313
20
-87.3219
11
139.304
21
-87.2886
0
LINE
8
BLACK
6
CONTINUOUS
10
139.304
20
-87.2886
11
139.304
21
-85.7171
0
LINE
8
BLACK
6
CONTINUOUS
10
139.304
20
-85.7171
11
139.324
21
-85.6421
0
LINE
8
BLACK
6
CONTINUOUS
10
139.324
20
-85.6421
11
139.379
21
-85.5872
0
LINE
8
BLACK
6
CONTINUOUS
10
139.379
20
-85.5872
11
139.454
21
-85.5671
0
LINE
8
BLACK
6
CONTINUOUS
10
139.454
20
-85.5671
11
139.529
21
-85.5872
0
LINE
8
BLACK
6
CONTINUOUS
10
139.529
20
-85.5872
11
139.584
21
-85.6421
0
LINE
8
BLACK
6
CONTINUOUS
10
139.584
20
-85.6421
11
139.604
21
-85.7171
0
LINE
8
BLACK
6
CONTINUOUS
10
139.604
20
-85.7171
11
139.604
21
-87.2532
0
LINE
8
BLACK
6
CONTINUOUS
10
139.604
20
-87.2532
11
139.709
21
-87.4625
0
LINE
8
BLACK
6
CONTINUOUS
10
139.709
20
-87.4625
11
139.918
21
-87.5671
0
LINE
8
BLACK
6
CONTINUOUS
10
139.918
20
-87.5671
11
140.276
21
-87.5671
0
LINE
8
BLACK
6
CONTINUOUS
10
140.276
20
-87.5671
11
140.508
21
-87.451
0
LINE
8
BLACK
6
CONTINUOUS
10
140.508
20
-87.451
11
140.59
21
-87.3693
0
LINE
8
BLACK
6
CONTINUOUS
10
140.59
20
-87.3693
11
140.59
21
-85.7171
0
LINE
8
BLACK
6
CONTINUOUS
10
140.59
20
-85.7171
11
140.61
21
-85.6421
0
LINE
8
BLACK
6
CONTINUOUS
10
140.61
20
-85.6421
11
140.665
21
-85.5872
0
LINE
8
BLACK
6
CONTINUOUS
10
140.665
20
-85.5872
11
140.74
21
-85.5671
0
LINE
8
BLACK
6
CONTINUOUS
10
140.74
20
-85.5671
11
140.815
21
-85.5872
0
LINE
8
BLACK
6
CONTINUOUS
10
105.469
20
-85.5872
11
105.524
21
-85.6421
0
LINE
8
BLACK
6
CONTINUOUS
10
105.524
20
-85.6421
11
105.544
21
-85.7171
0
LINE
8
BLACK
6
CONTINUOUS
10
105.544
20
-85.7171
11
105.544
21
-87.7171
0
LINE
8
BLACK
6
CONTINUOUS
10
105.544
20
-87.7171
11
105.524
21
-87.7921
0
LINE
8
BLACK
6
CONTINUOUS
10
105.524
20
-87.7921
11
105.469
21
-87.847
0
LINE
8
BLACK
6
CONTINUOUS
10
105.469
20
-87.847
11
105.394
21
-87.8671
0
LINE
8
BLACK
6
CONTINUOUS
10
105.394
20
-87.8671
11
105.319
21
-87.847
0
LINE
8
BLACK
6
CONTINUOUS
10
105.319
20
-87.847
11
105.264
21
-87.7921
0
LINE
8
BLACK
6
CONTINUOUS
10
105.264
20
-87.7921
11
105.251
21
-87.7422
0
LINE
8
BLACK
6
CONTINUOUS
10
105.251
20
-87.7422
11
105.033
21
-87.8513
0
LINE
8
BLACK
6
CONTINUOUS
10
105.033
20
-87.8513
11
104.999
21
-87.8582
0
LINE
8
BLACK
6
CONTINUOUS
10
104.999
20
-87.8582
11
104.966
21
-87.8671
0
LINE
8
BLACK
6
CONTINUOUS
10
104.966
20
-87.8671
11
104.537
21
-87.8671
0
LINE
8
BLACK
6
CONTINUOUS
10
104.537
20
-87.8671
11
104.504
21
-87.8582
0
LINE
8
BLACK
6
CONTINUOUS
10
104.504
20
-87.8582
11
104.47
21
-87.8513
0
LINE
8
BLACK
6
CONTINUOUS
10
104.47
20
-87.8513
11
104.184
21
-87.7084
0
LINE
8
BLACK
6
CONTINUOUS
10
104.184
20
-87.7084
11
104.177
21
-87.7024
0
LINE
8
BLACK
6
CONTINUOUS
10
104.177
20
-87.7024
11
104.169
21
-87.6995
0
LINE
8
BLACK
6
CONTINUOUS
10
104.169
20
-87.6995
11
104.149
21
-87.6769
0
LINE
8
BLACK
6
CONTINUOUS
10
104.149
20
-87.6769
11
104.126
21
-87.6569
0
LINE
8
BLACK
6
CONTINUOUS
10
104.126
20
-87.6569
11
104.123
21
-87.6482
0
LINE
8
BLACK
6
CONTINUOUS
10
104.123
20
-87.6482
11
104.117
21
-87.6414
0
LINE
8
BLACK
6
CONTINUOUS
10
104.117
20
-87.6414
11
103.974
21
-87.3557
0
LINE
8
BLACK
6
CONTINUOUS
10
103.974
20
-87.3557
11
103.967
21
-87.3219
0
LINE
8
BLACK
6
CONTINUOUS
10
103.967
20
-87.3219
11
103.959
21
-87.2886
0
LINE
8
BLACK
6
CONTINUOUS
10
103.959
20
-87.2886
11
103.959
21
-85.7171
0
LINE
8
BLACK
6
CONTINUOUS
10
103.959
20
-85.7171
11
103.979
21
-85.6421
0
LINE
8
BLACK
6
CONTINUOUS
10
103.979
20
-85.6421
11
104.034
21
-85.5872
0
LINE
8
BLACK
6
CONTINUOUS
10
104.034
20
-85.5872
11
104.109
21
-85.5671
0
LINE
8
BLACK
6
CONTINUOUS
10
104.109
20
-85.5671
11
104.184
21
-85.5872
0
LINE
8
BLACK
6
CONTINUOUS
10
104.184
20
-85.5872
11
104.238
21
-85.6421
0
LINE
8
BLACK
6
CONTINUOUS
10
104.238
20
-85.6421
11
104.259
21
-85.7171
0
LINE
8
BLACK
6
CONTINUOUS
10
104.259
20
-85.7171
11
104.259
21
-87.2532
0
LINE
8
BLACK
6
CONTINUOUS
10
104.259
20
-87.2532
11
104.363
21
-87.4625
0
LINE
8
BLACK
6
CONTINUOUS
10
104.363
20
-87.4625
11
104.573
21
-87.5671
0
LINE
8
BLACK
6
CONTINUOUS
10
104.573
20
-87.5671
11
104.93
21
-87.5671
0
LINE
8
BLACK
6
CONTINUOUS
10
104.93
20
-87.5671
11
105.163
21
-87.451
0
LINE
8
BLACK
6
CONTINUOUS
10
105.163
20
-87.451
11
105.244
21
-87.3693
0
LINE
8
BLACK
6
CONTINUOUS
10
105.244
20
-87.3693
11
105.244
21
-85.7171
0
LINE
8
BLACK
6
CONTINUOUS
10
105.244
20
-85.7171
11
105.264
21
-85.6421
0
LINE
8
BLACK
6
CONTINUOUS
10
105.264
20
-85.6421
11
105.319
21
-85.5872
0
LINE
8
BLACK
6
CONTINUOUS
10
105.319
20
-85.5872
11
105.394
21
-85.5671
0
LINE
8
BLACK
6
CONTINUOUS
10
105.394
20
-85.5671
11
105.469
21
-85.5872
0
LINE
8
BLACK
6
CONTINUOUS
10
106.898
20
-84.5872
11
106.953
21
-84.6421
0
LINE
8
BLACK
6
CONTINUOUS
10
106.953
20
-84.6421
11
106.973
21
-84.7171
0
LINE
8
BLACK
6
CONTINUOUS
10
106.973
20
-84.7171
11
106.973
21
-85.5671
0
LINE
8
BLACK
6
CONTINUOUS
10
106.973
20
-85.5671
11
107.537
21
-85.5671
0
LINE
8
BLACK
6
CONTINUOUS
10
107.537
20
-85.5671
11
107.612
21
-85.5872
0
LINE
8
BLACK
6
CONTINUOUS
10
107.612
20
-85.5872
11
107.667
21
-85.6421
0
LINE
8
BLACK
6
CONTINUOUS
10
107.667
20
-85.6421
11
107.687
21
-85.7171
0
LINE
8
BLACK
6
CONTINUOUS
10
107.687
20
-85.7171
11
107.667
21
-85.7921
0
LINE
8
BLACK
6
CONTINUOUS
10
107.667
20
-85.7921
11
107.612
21
-85.847
0
LINE
8
BLACK
6
CONTINUOUS
10
107.612
20
-85.847
11
107.537
21
-85.8671
0
LINE
8
BLACK
6
CONTINUOUS
10
107.537
20
-85.8671
11
106.973
21
-85.8671
0
LINE
8
BLACK
6
CONTINUOUS
10
106.973
20
-85.8671
11
106.973
21
-87.2532
0
LINE
8
BLACK
6
CONTINUOUS
10
106.973
20
-87.2532
11
107.078
21
-87.4625
0
LINE
8
BLACK
6
CONTINUOUS
10
107.078
20
-87.4625
11
107.287
21
-87.5671
0
LINE
8
BLACK
6
CONTINUOUS
10
107.287
20
-87.5671
11
107.537
21
-87.5671
0
LINE
8
BLACK
6
CONTINUOUS
10
107.537
20
-87.5671
11
107.612
21
-87.5872
0
LINE
8
BLACK
6
CONTINUOUS
10
107.612
20
-87.5872
11
107.667
21
-87.6421
0
LINE
8
BLACK
6
CONTINUOUS
10
107.667
20
-87.6421
11
107.687
21
-87.7171
0
LINE
8
BLACK
6
CONTINUOUS
10
107.687
20
-87.7171
11
107.667
21
-87.7921
0
LINE
8
BLACK
6
CONTINUOUS
10
107.667
20
-87.7921
11
107.612
21
-87.847
0
LINE
8
BLACK
6
CONTINUOUS
10
107.612
20
-87.847
11
107.537
21
-87.8671
0
LINE
8
BLACK
6
CONTINUOUS
10
107.537
20
-87.8671
11
107.251
21
-87.8671
0
LINE
8
BLACK
6
CONTINUOUS
10
107.251
20
-87.8671
11
107.218
21
-87.8582
0
LINE
8
BLACK
6
CONTINUOUS
10
107.218
20
-87.8582
11
107.184
21
-87.8513
0
LINE
8
BLACK
6
CONTINUOUS
10
107.184
20
-87.8513
11
106.899
21
-87.7084
0
LINE
8
BLACK
6
CONTINUOUS
10
106.899
20
-87.7084
11
106.892
21
-87.7024
0
LINE
8
BLACK
6
CONTINUOUS
10
106.892
20
-87.7024
11
106.883
21
-87.6995
0
LINE
8
BLACK
6
CONTINUOUS
10
106.883
20
-87.6995
11
106.863
21
-87.6769
0
LINE
8
BLACK
6
CONTINUOUS
10
106.863
20
-87.6769
11
106.841
21
-87.6569
0
LINE
8
BLACK
6
CONTINUOUS
10
106.841
20
-87.6569
11
106.838
21
-87.6482
0
LINE
8
BLACK
6
CONTINUOUS
10
106.838
20
-87.6482
11
106.832
21
-87.6414
0
LINE
8
BLACK
6
CONTINUOUS
10
106.832
20
-87.6414
11
106.689
21
-87.3557
0
LINE
8
BLACK
6
CONTINUOUS
10
106.689
20
-87.3557
11
106.682
21
-87.3219
0
LINE
8
BLACK
6
CONTINUOUS
10
106.682
20
-87.3219
11
106.673
21
-87.2886
0
LINE
8
BLACK
6
CONTINUOUS
10
106.673
20
-87.2886
11
106.673
21
-85.8671
0
LINE
8
BLACK
6
CONTINUOUS
10
106.673
20
-85.8671
11
106.394
21
-85.8671
0
LINE
8
BLACK
6
CONTINUOUS
10
106.394
20
-85.8671
11
106.319
21
-85.847
0
LINE
8
BLACK
6
CONTINUOUS
10
106.319
20
-85.847
11
106.264
21
-85.7921
0
LINE
8
BLACK
6
CONTINUOUS
10
106.264
20
-85.7921
11
106.244
21
-85.7171
0
LINE
8
BLACK
6
CONTINUOUS
10
106.244
20
-85.7171
11
106.264
21
-85.6421
0
LINE
8
BLACK
6
CONTINUOUS
10
106.264
20
-85.6421
11
106.319
21
-85.5872
0
LINE
8
BLACK
6
CONTINUOUS
10
106.319
20
-85.5872
11
106.394
21
-85.5671
0
LINE
8
BLACK
6
CONTINUOUS
10
106.394
20
-85.5671
11
106.673
21
-85.5671
0
LINE
8
BLACK
6
CONTINUOUS
10
106.673
20
-85.5671
11
106.673
21
-84.7171
0
LINE
8
BLACK
6
CONTINUOUS
10
106.673
20
-84.7171
11
106.693
21
-84.6421
0
LINE
8
BLACK
6
CONTINUOUS
10
106.693
20
-84.6421
11
106.748
21
-84.5872
0
LINE
8
BLACK
6
CONTINUOUS
10
106.748
20
-84.5872
11
106.823
21
-84.5671
0
LINE
8
BLACK
6
CONTINUOUS
10
106.823
20
-84.5671
11
106.898
21
-84.5872
0
LINE
8
BLACK
6
CONTINUOUS
10
102.285
20
-85.5761
11
102.319
21
-85.583
0
LINE
8
BLACK
6
CONTINUOUS
10
102.319
20
-85.583
11
102.604
21
-85.7258
0
LINE
8
BLACK
6
CONTINUOUS
10
102.604
20
-85.7258
11
102.622
21
-85.7419
0
LINE
8
BLACK
6
CONTINUOUS
10
102.622
20
-85.7419
11
102.643
21
-85.7539
0
LINE
8
BLACK
6
CONTINUOUS
10
102.643
20
-85.7539
11
102.786
21
-85.8968
0
LINE
8
BLACK
6
CONTINUOUS
10
102.786
20
-85.8968
11
102.798
21
-85.9177
0
LINE
8
BLACK
6
CONTINUOUS
10
102.798
20
-85.9177
11
102.814
21
-85.9358
0
LINE
8
BLACK
6
CONTINUOUS
10
102.814
20
-85.9358
11
102.957
21
-86.2215
0
LINE
8
BLACK
6
CONTINUOUS
10
102.957
20
-86.2215
11
102.964
21
-86.2553
0
LINE
8
BLACK
6
CONTINUOUS
10
102.964
20
-86.2553
11
102.973
21
-86.2886
0
LINE
8
BLACK
6
CONTINUOUS
10
102.973
20
-86.2886
11
102.973
21
-87.1457
0
LINE
8
BLACK
6
CONTINUOUS
10
102.973
20
-87.1457
11
102.964
21
-87.179
0
LINE
8
BLACK
6
CONTINUOUS
10
102.964
20
-87.179
11
102.957
21
-87.2128
0
LINE
8
BLACK
6
CONTINUOUS
10
102.957
20
-87.2128
11
102.814
21
-87.4985
0
LINE
8
BLACK
6
CONTINUOUS
10
102.814
20
-87.4985
11
102.798
21
-87.5166
0
LINE
8
BLACK
6
CONTINUOUS
10
102.798
20
-87.5166
11
102.786
21
-87.5375
0
LINE
8
BLACK
6
CONTINUOUS
10
102.786
20
-87.5375
11
102.643
21
-87.6804
0
LINE
8
BLACK
6
CONTINUOUS
10
102.643
20
-87.6804
11
102.622
21
-87.6924
0
LINE
8
BLACK
6
CONTINUOUS
10
102.622
20
-87.6924
11
102.604
21
-87.7084
0
LINE
8
BLACK
6
CONTINUOUS
10
102.604
20
-87.7084
11
102.319
21
-87.8513
0
LINE
8
BLACK
6
CONTINUOUS
10
102.319
20
-87.8513
11
102.285
21
-87.8582
0
LINE
8
BLACK
6
CONTINUOUS
10
102.285
20
-87.8582
11
102.251
21
-87.8671
0
LINE
8
BLACK
6
CONTINUOUS
10
102.251
20
-87.8671
11
101.823
21
-87.8671
0
LINE
8
BLACK
6
CONTINUOUS
10
101.823
20
-87.8671
11
101.79
21
-87.8582
0
LINE
8
BLACK
6
CONTINUOUS
10
101.79
20
-87.8582
11
101.756
21
-87.8513
0
LINE
8
BLACK
6
CONTINUOUS
10
101.756
20
-87.8513
11
101.47
21
-87.7084
0
LINE
8
BLACK
6
CONTINUOUS
10
101.47
20
-87.7084
11
101.452
21
-87.6924
0
LINE
8
BLACK
6
CONTINUOUS
10
101.452
20
-87.6924
11
101.431
21
-87.6804
0
LINE
8
BLACK
6
CONTINUOUS
10
101.431
20
-87.6804
11
101.288
21
-87.5375
0
LINE
8
BLACK
6
CONTINUOUS
10
101.288
20
-87.5375
11
101.276
21
-87.5166
0
LINE
8
BLACK
6
CONTINUOUS
10
101.276
20
-87.5166
11
101.26
21
-87.4985
0
LINE
8
BLACK
6
CONTINUOUS
10
101.26
20
-87.4985
11
101.117
21
-87.2128
0
LINE
8
BLACK
6
CONTINUOUS
10
101.117
20
-87.2128
11
101.11
21
-87.179
0
LINE
8
BLACK
6
CONTINUOUS
10
101.11
20
-87.179
11
101.101
21
-87.1457
0
LINE
8
BLACK
6
CONTINUOUS
10
101.101
20
-87.1457
11
101.101
21
-86.2886
0
LINE
8
BLACK
6
CONTINUOUS
10
101.101
20
-86.2886
11
101.11
21
-86.2553
0
LINE
8
BLACK
6
CONTINUOUS
10
101.11
20
-86.2553
11
101.117
21
-86.2215
0
LINE
8
BLACK
6
CONTINUOUS
10
101.117
20
-86.2215
11
101.26
21
-85.9358
0
LINE
8
BLACK
6
CONTINUOUS
10
101.26
20
-85.9358
11
101.276
21
-85.9177
0
LINE
8
BLACK
6
CONTINUOUS
10
101.276
20
-85.9177
11
101.288
21
-85.8968
0
LINE
8
BLACK
6
CONTINUOUS
10
101.288
20
-85.8968
11
101.431
21
-85.7539
0
LINE
8
BLACK
6
CONTINUOUS
10
101.431
20
-85.7539
11
101.452
21
-85.7419
0
LINE
8
BLACK
6
CONTINUOUS
10
101.452
20
-85.7419
11
101.47
21
-85.7258
0
LINE
8
BLACK
6
CONTINUOUS
10
101.47
20
-85.7258
11
101.756
21
-85.583
0
LINE
8
BLACK
6
CONTINUOUS
10
101.756
20
-85.583
11
101.79
21
-85.5761
0
LINE
8
BLACK
6
CONTINUOUS
10
101.79
20
-85.5761
11
101.823
21
-85.5671
0
LINE
8
BLACK
6
CONTINUOUS
10
101.823
20
-85.5671
11
102.251
21
-85.5671
0
LINE
8
BLACK
6
CONTINUOUS
10
102.251
20
-85.5671
11
102.285
21
-85.5761
0
LINE
8
BLACK
6
CONTINUOUS
10
101.858
20
-85.8671
11
101.626
21
-85.9833
0
LINE
8
BLACK
6
CONTINUOUS
10
101.626
20
-85.9833
11
101.518
21
-86.0917
0
LINE
8
BLACK
6
CONTINUOUS
10
101.518
20
-86.0917
11
101.401
21
-86.324
0
LINE
8
BLACK
6
CONTINUOUS
10
101.401
20
-86.324
11
101.401
21
-87.1103
0
LINE
8
BLACK
6
CONTINUOUS
10
101.401
20
-87.1103
11
101.518
21
-87.3426
0
LINE
8
BLACK
6
CONTINUOUS
10
101.518
20
-87.3426
11
101.626
21
-87.451
0
LINE
8
BLACK
6
CONTINUOUS
10
101.626
20
-87.451
11
101.858
21
-87.5671
0
LINE
8
BLACK
6
CONTINUOUS
10
101.858
20
-87.5671
11
102.216
21
-87.5671
0
LINE
8
BLACK
6
CONTINUOUS
10
102.216
20
-87.5671
11
102.448
21
-87.451
0
LINE
8
BLACK
6
CONTINUOUS
10
102.448
20
-87.451
11
102.557
21
-87.3426
0
LINE
8
BLACK
6
CONTINUOUS
10
102.557
20
-87.3426
11
102.673
21
-87.1103
0
LINE
8
BLACK
6
CONTINUOUS
10
102.673
20
-87.1103
11
102.673
21
-86.324
0
LINE
8
BLACK
6
CONTINUOUS
10
102.673
20
-86.324
11
102.557
21
-86.0917
0
LINE
8
BLACK
6
CONTINUOUS
10
102.557
20
-86.0917
11
102.448
21
-85.9833
0
LINE
8
BLACK
6
CONTINUOUS
10
102.448
20
-85.9833
11
102.216
21
-85.8671
0
LINE
8
BLACK
6
CONTINUOUS
10
102.216
20
-85.8671
11
101.858
21
-85.8671
0
LINE
8
BLACK
6
CONTINUOUS
10
179.189
20
-84.5748
11
179.254
21
-84.6176
0
LINE
8
BLACK
6
CONTINUOUS
10
179.254
20
-84.6176
11
179.288
21
-84.6871
0
LINE
8
BLACK
6
CONTINUOUS
10
179.288
20
-84.6871
11
179.284
21
-84.7646
0
LINE
8
BLACK
6
CONTINUOUS
10
179.284
20
-84.7646
11
178.284
21
-87.7646
0
LINE
8
BLACK
6
CONTINUOUS
10
178.284
20
-87.7646
11
178.267
21
-87.7897
0
LINE
8
BLACK
6
CONTINUOUS
10
178.267
20
-87.7897
11
178.254
21
-87.8167
0
LINE
8
BLACK
6
CONTINUOUS
10
178.254
20
-87.8167
11
178.246
21
-87.8217
0
LINE
8
BLACK
6
CONTINUOUS
10
178.246
20
-87.8217
11
178.241
21
-87.8294
0
LINE
8
BLACK
6
CONTINUOUS
10
178.241
20
-87.8294
11
178.214
21
-87.8428
0
LINE
8
BLACK
6
CONTINUOUS
10
178.214
20
-87.8428
11
178.189
21
-87.8594
0
LINE
8
BLACK
6
CONTINUOUS
10
178.189
20
-87.8594
11
178.18
21
-87.86
0
LINE
8
BLACK
6
CONTINUOUS
10
178.18
20
-87.86
11
178.171
21
-87.8641
0
LINE
8
BLACK
6
CONTINUOUS
10
178.171
20
-87.8641
11
178.141
21
-87.8623
0
LINE
8
BLACK
6
CONTINUOUS
10
178.141
20
-87.8623
11
178.111
21
-87.8641
0
LINE
8
BLACK
6
CONTINUOUS
10
178.111
20
-87.8641
11
178.103
21
-87.86
0
LINE
8
BLACK
6
CONTINUOUS
10
178.103
20
-87.86
11
178.094
21
-87.8594
0
LINE
8
BLACK
6
CONTINUOUS
10
178.094
20
-87.8594
11
178.069
21
-87.8428
0
LINE
8
BLACK
6
CONTINUOUS
10
178.069
20
-87.8428
11
178.042
21
-87.8294
0
LINE
8
BLACK
6
CONTINUOUS
10
178.042
20
-87.8294
11
178.037
21
-87.8217
0
LINE
8
BLACK
6
CONTINUOUS
10
178.037
20
-87.8217
11
178.029
21
-87.8167
0
LINE
8
BLACK
6
CONTINUOUS
10
178.029
20
-87.8167
11
178.016
21
-87.7897
0
LINE
8
BLACK
6
CONTINUOUS
10
178.016
20
-87.7897
11
177.999
21
-87.7646
0
LINE
8
BLACK
6
CONTINUOUS
10
177.999
20
-87.7646
11
176.999
21
-84.7646
0
LINE
8
BLACK
6
CONTINUOUS
10
176.999
20
-84.7646
11
176.994
21
-84.6871
0
LINE
8
BLACK
6
CONTINUOUS
10
176.994
20
-84.6871
11
177.029
21
-84.6176
0
LINE
8
BLACK
6
CONTINUOUS
10
177.029
20
-84.6176
11
177.094
21
-84.5748
0
LINE
8
BLACK
6
CONTINUOUS
10
177.094
20
-84.5748
11
177.171
21
-84.5702
0
LINE
8
BLACK
6
CONTINUOUS
10
177.171
20
-84.5702
11
177.241
21
-84.6049
0
LINE
8
BLACK
6
CONTINUOUS
10
177.241
20
-84.6049
11
177.284
21
-84.6697
0
LINE
8
BLACK
6
CONTINUOUS
10
177.284
20
-84.6697
11
178.141
21
-87.2428
0
LINE
8
BLACK
6
CONTINUOUS
10
178.141
20
-87.2428
11
178.999
21
-84.6697
0
LINE
8
BLACK
6
CONTINUOUS
10
178.999
20
-84.6697
11
179.042
21
-84.6049
0
LINE
8
BLACK
6
CONTINUOUS
10
179.042
20
-84.6049
11
179.111
21
-84.5702
0
LINE
8
BLACK
6
CONTINUOUS
10
179.111
20
-84.5702
11
179.189
21
-84.5748
0
LINE
8
BLACK
6
CONTINUOUS
10
196.755
20
-84.5748
11
196.819
21
-84.6176
0
LINE
8
BLACK
6
CONTINUOUS
10
196.819
20
-84.6176
11
196.854
21
-84.6871
0
LINE
8
BLACK
6
CONTINUOUS
10
196.854
20
-84.6871
11
196.849
21
-84.7646
0
LINE
8
BLACK
6
CONTINUOUS
10
196.849
20
-84.7646
11
195.849
21
-87.7646
0
LINE
8
BLACK
6
CONTINUOUS
10
195.849
20
-87.7646
11
195.833
21
-87.7897
0
LINE
8
BLACK
6
CONTINUOUS
10
195.833
20
-87.7897
11
195.819
21
-87.8167
0
LINE
8
BLACK
6
CONTINUOUS
10
195.819
20
-87.8167
11
195.812
21
-87.8217
0
LINE
8
BLACK
6
CONTINUOUS
10
195.812
20
-87.8217
11
195.807
21
-87.8294
0
LINE
8
BLACK
6
CONTINUOUS
10
195.807
20
-87.8294
11
195.78
21
-87.8428
0
LINE
8
BLACK
6
CONTINUOUS
10
195.78
20
-87.8428
11
195.755
21
-87.8594
0
LINE
8
BLACK
6
CONTINUOUS
10
195.755
20
-87.8594
11
195.745
21
-87.86
0
LINE
8
BLACK
6
CONTINUOUS
10
195.745
20
-87.86
11
195.737
21
-87.8641
0
LINE
8
BLACK
6
CONTINUOUS
10
195.737
20
-87.8641
11
195.707
21
-87.8623
0
LINE
8
BLACK
6
CONTINUOUS
10
195.707
20
-87.8623
11
195.677
21
-87.8641
0
LINE
8
BLACK
6
CONTINUOUS
10
195.677
20
-87.8641
11
195.669
21
-87.86
0
LINE
8
BLACK
6
CONTINUOUS
10
195.669
20
-87.86
11
195.66
21
-87.8594
0
LINE
8
BLACK
6
CONTINUOUS
10
195.66
20
-87.8594
11
195.635
21
-87.8428
0
LINE
8
BLACK
6
CONTINUOUS
10
195.635
20
-87.8428
11
195.608
21
-87.8294
0
LINE
8
BLACK
6
CONTINUOUS
10
195.608
20
-87.8294
11
195.603
21
-87.8217
0
LINE
8
BLACK
6
CONTINUOUS
10
195.603
20
-87.8217
11
195.595
21
-87.8167
0
LINE
8
BLACK
6
CONTINUOUS
10
195.595
20
-87.8167
11
195.581
21
-87.7897
0
LINE
8
BLACK
6
CONTINUOUS
10
195.581
20
-87.7897
11
195.565
21
-87.7646
0
LINE
8
BLACK
6
CONTINUOUS
10
195.565
20
-87.7646
11
194.565
21
-84.7646
0
LINE
8
BLACK
6
CONTINUOUS
10
194.565
20
-84.7646
11
194.56
21
-84.6871
0
LINE
8
BLACK
6
CONTINUOUS
10
194.56
20
-84.6871
11
194.595
21
-84.6176
0
LINE
8
BLACK
6
CONTINUOUS
10
194.595
20
-84.6176
11
194.66
21
-84.5748
0
LINE
8
BLACK
6
CONTINUOUS
10
194.66
20
-84.5748
11
194.737
21
-84.5702
0
LINE
8
BLACK
6
CONTINUOUS
10
194.737
20
-84.5702
11
194.807
21
-84.6049
0
LINE
8
BLACK
6
CONTINUOUS
10
194.807
20
-84.6049
11
194.849
21
-84.6697
0
LINE
8
BLACK
6
CONTINUOUS
10
194.849
20
-84.6697
11
195.707
21
-87.2428
0
LINE
8
BLACK
6
CONTINUOUS
10
195.707
20
-87.2428
11
196.565
21
-84.6697
0
LINE
8
BLACK
6
CONTINUOUS
10
196.565
20
-84.6697
11
196.608
21
-84.6049
0
LINE
8
BLACK
6
CONTINUOUS
10
196.608
20
-84.6049
11
196.677
21
-84.5702
0
LINE
8
BLACK
6
CONTINUOUS
10
196.677
20
-84.5702
11
196.755
21
-84.5748
0
LINE
8
BLACK
6
CONTINUOUS
10
111.433
20
-84.5743
11
111.442
21
-84.5748
0
LINE
8
BLACK
6
CONTINUOUS
10
111.442
20
-84.5748
11
111.467
21
-84.5914
0
LINE
8
BLACK
6
CONTINUOUS
10
111.467
20
-84.5914
11
111.494
21
-84.6049
0
LINE
8
BLACK
6
CONTINUOUS
10
111.494
20
-84.6049
11
111.499
21
-84.6126
0
LINE
8
BLACK
6
CONTINUOUS
10
111.499
20
-84.6126
11
111.507
21
-84.6176
0
LINE
8
BLACK
6
CONTINUOUS
10
111.507
20
-84.6176
11
111.52
21
-84.6446
0
LINE
8
BLACK
6
CONTINUOUS
10
111.52
20
-84.6446
11
111.537
21
-84.6697
0
LINE
8
BLACK
6
CONTINUOUS
10
111.537
20
-84.6697
11
112.537
21
-87.6697
0
LINE
8
BLACK
6
CONTINUOUS
10
112.537
20
-87.6697
11
112.541
21
-87.7472
0
LINE
8
BLACK
6
CONTINUOUS
10
112.541
20
-87.7472
11
112.507
21
-87.8167
0
LINE
8
BLACK
6
CONTINUOUS
10
112.507
20
-87.8167
11
112.442
21
-87.8594
0
LINE
8
BLACK
6
CONTINUOUS
10
112.442
20
-87.8594
11
112.364
21
-87.8641
0
LINE
8
BLACK
6
CONTINUOUS
10
112.364
20
-87.8641
11
112.295
21
-87.8294
0
LINE
8
BLACK
6
CONTINUOUS
10
112.295
20
-87.8294
11
112.252
21
-87.7646
0
LINE
8
BLACK
6
CONTINUOUS
10
112.252
20
-87.7646
11
112
21
-87.01
0
LINE
8
BLACK
6
CONTINUOUS
10
112
20
-87.01
11
110.788
21
-87.01
0
LINE
8
BLACK
6
CONTINUOUS
10
110.788
20
-87.01
11
110.537
21
-87.7646
0
LINE
8
BLACK
6
CONTINUOUS
10
110.537
20
-87.7646
11
110.494
21
-87.8294
0
LINE
8
BLACK
6
CONTINUOUS
10
110.494
20
-87.8294
11
110.424
21
-87.8641
0
LINE
8
BLACK
6
CONTINUOUS
10
110.424
20
-87.8641
11
110.347
21
-87.8594
0
LINE
8
BLACK
6
CONTINUOUS
10
110.347
20
-87.8594
11
110.282
21
-87.8167
0
LINE
8
BLACK
6
CONTINUOUS
10
110.282
20
-87.8167
11
110.247
21
-87.7472
0
LINE
8
BLACK
6
CONTINUOUS
10
110.247
20
-87.7472
11
110.252
21
-87.6697
0
LINE
8
BLACK
6
CONTINUOUS
10
110.252
20
-87.6697
11
111.252
21
-84.6697
0
LINE
8
BLACK
6
CONTINUOUS
10
111.252
20
-84.6697
11
111.269
21
-84.6446
0
LINE
8
BLACK
6
CONTINUOUS
10
111.269
20
-84.6446
11
111.282
21
-84.6176
0
LINE
8
BLACK
6
CONTINUOUS
10
111.282
20
-84.6176
11
111.29
21
-84.6126
0
LINE
8
BLACK
6
CONTINUOUS
10
111.29
20
-84.6126
11
111.295
21
-84.6049
0
LINE
8
BLACK
6
CONTINUOUS
10
111.295
20
-84.6049
11
111.322
21
-84.5914
0
LINE
8
BLACK
6
CONTINUOUS
10
111.322
20
-84.5914
11
111.347
21
-84.5748
0
LINE
8
BLACK
6
CONTINUOUS
10
111.347
20
-84.5748
11
111.356
21
-84.5743
0
LINE
8
BLACK
6
CONTINUOUS
10
111.356
20
-84.5743
11
111.364
21
-84.5702
0
LINE
8
BLACK
6
CONTINUOUS
10
111.364
20
-84.5702
11
111.394
21
-84.572
0
LINE
8
BLACK
6
CONTINUOUS
10
111.394
20
-84.572
11
111.424
21
-84.5702
0
LINE
8
BLACK
6
CONTINUOUS
10
111.424
20
-84.5702
11
111.433
21
-84.5743
0
LINE
8
BLACK
6
CONTINUOUS
10
110.888
20
-86.71
11
111.9
21
-86.71
0
LINE
8
BLACK
6
CONTINUOUS
10
111.9
20
-86.71
11
111.394
21
-85.1915
0
LINE
8
BLACK
6
CONTINUOUS
10
111.394
20
-85.1915
11
110.888
21
-86.71
0
LINE
8
BLACK
6
CONTINUOUS
10
92.1526
20
-84.5743
11
92.1617
21
-84.5748
0
LINE
8
BLACK
6
CONTINUOUS
10
92.1617
20
-84.5748
11
92.1869
21
-84.5914
0
LINE
8
BLACK
6
CONTINUOUS
10
92.1869
20
-84.5914
11
92.2138
21
-84.6049
0
LINE
8
BLACK
6
CONTINUOUS
10
92.2138
20
-84.6049
11
92.2189
21
-84.6126
0
LINE
8
BLACK
6
CONTINUOUS
10
92.2189
20
-84.6126
11
92.2265
21
-84.6176
0
LINE
8
BLACK
6
CONTINUOUS
10
92.2265
20
-84.6176
11
92.24
21
-84.6446
0
LINE
8
BLACK
6
CONTINUOUS
10
92.24
20
-84.6446
11
92.2566
21
-84.6697
0
LINE
8
BLACK
6
CONTINUOUS
10
92.2566
20
-84.6697
11
93.2566
21
-87.6697
0
LINE
8
BLACK
6
CONTINUOUS
10
93.2566
20
-87.6697
11
93.2612
21
-87.7472
0
LINE
8
BLACK
6
CONTINUOUS
10
93.2612
20
-87.7472
11
93.2265
21
-87.8167
0
LINE
8
BLACK
6
CONTINUOUS
10
93.2265
20
-87.8167
11
93.1617
21
-87.8594
0
LINE
8
BLACK
6
CONTINUOUS
10
93.1617
20
-87.8594
11
93.0842
21
-87.8641
0
LINE
8
BLACK
6
CONTINUOUS
10
93.0842
20
-87.8641
11
93.0148
21
-87.8294
0
LINE
8
BLACK
6
CONTINUOUS
10
93.0148
20
-87.8294
11
92.972
21
-87.7646
0
LINE
8
BLACK
6
CONTINUOUS
10
92.972
20
-87.7646
11
92.7205
21
-87.01
0
LINE
8
BLACK
6
CONTINUOUS
10
92.7205
20
-87.01
11
91.5081
21
-87.01
0
LINE
8
BLACK
6
CONTINUOUS
10
91.5081
20
-87.01
11
91.2566
21
-87.7646
0
LINE
8
BLACK
6
CONTINUOUS
10
91.2566
20
-87.7646
11
91.2138
21
-87.8294
0
LINE
8
BLACK
6
CONTINUOUS
10
91.2138
20
-87.8294
11
91.1444
21
-87.8641
0
LINE
8
BLACK
6
CONTINUOUS
10
91.1444
20
-87.8641
11
91.0669
21
-87.8594
0
LINE
8
BLACK
6
CONTINUOUS
10
91.0669
20
-87.8594
11
91.0021
21
-87.8167
0
LINE
8
BLACK
6
CONTINUOUS
10
91.0021
20
-87.8167
11
90.9673
21
-87.7472
0
LINE
8
BLACK
6
CONTINUOUS
10
90.9673
20
-87.7472
11
90.972
21
-87.6697
0
LINE
8
BLACK
6
CONTINUOUS
10
90.972
20
-87.6697
11
91.972
21
-84.6697
0
LINE
8
BLACK
6
CONTINUOUS
10
91.972
20
-84.6697
11
91.9886
21
-84.6446
0
LINE
8
BLACK
6
CONTINUOUS
10
91.9886
20
-84.6446
11
92.0021
21
-84.6176
0
LINE
8
BLACK
6
CONTINUOUS
10
92.0021
20
-84.6176
11
92.0097
21
-84.6126
0
LINE
8
BLACK
6
CONTINUOUS
10
92.0097
20
-84.6126
11
92.0148
21
-84.6049
0
LINE
8
BLACK
6
CONTINUOUS
10
92.0148
20
-84.6049
11
92.0417
21
-84.5914
0
LINE
8
BLACK
6
CONTINUOUS
10
92.0417
20
-84.5914
11
92.0669
21
-84.5748
0
LINE
8
BLACK
6
CONTINUOUS
10
92.0669
20
-84.5748
11
92.076
21
-84.5743
0
LINE
8
BLACK
6
CONTINUOUS
10
92.076
20
-84.5743
11
92.0842
21
-84.5702
0
LINE
8
BLACK
6
CONTINUOUS
10
92.0842
20
-84.5702
11
92.1143
21
-84.572
0
LINE
8
BLACK
6
CONTINUOUS
10
92.1143
20
-84.572
11
92.1444
21
-84.5702
0
LINE
8
BLACK
6
CONTINUOUS
10
92.1444
20
-84.5702
11
92.1526
21
-84.5743
0
LINE
8
BLACK
6
CONTINUOUS
10
91.6081
20
-86.71
11
92.6205
21
-86.71
0
LINE
8
BLACK
6
CONTINUOUS
10
92.6205
20
-86.71
11
92.1143
21
-85.1915
0
LINE
8
BLACK
6
CONTINUOUS
10
92.1143
20
-85.1915
11
91.6081
21
-86.71
0
LINE
8
BLACK
6
CONTINUOUS
10
183.037
20
-84.5743
11
183.046
21
-84.5748
0
LINE
8
BLACK
6
CONTINUOUS
10
183.046
20
-84.5748
11
183.071
21
-84.5914
0
LINE
8
BLACK
6
CONTINUOUS
10
183.071
20
-84.5914
11
183.098
21
-84.6049
0
LINE
8
BLACK
6
CONTINUOUS
10
183.098
20
-84.6049
11
183.103
21
-84.6126
0
LINE
8
BLACK
6
CONTINUOUS
10
183.103
20
-84.6126
11
183.111
21
-84.6176
0
LINE
8
BLACK
6
CONTINUOUS
10
183.111
20
-84.6176
11
183.124
21
-84.6446
0
LINE
8
BLACK
6
CONTINUOUS
10
183.124
20
-84.6446
11
183.141
21
-84.6697
0
LINE
8
BLACK
6
CONTINUOUS
10
183.141
20
-84.6697
11
184.141
21
-87.6697
0
LINE
8
BLACK
6
CONTINUOUS
10
184.141
20
-87.6697
11
184.146
21
-87.7472
0
LINE
8
BLACK
6
CONTINUOUS
10
184.146
20
-87.7472
11
184.111
21
-87.8167
0
LINE
8
BLACK
6
CONTINUOUS
10
184.111
20
-87.8167
11
184.046
21
-87.8594
0
LINE
8
BLACK
6
CONTINUOUS
10
184.046
20
-87.8594
11
183.968
21
-87.8641
0
LINE
8
BLACK
6
CONTINUOUS
10
183.968
20
-87.8641
11
183.899
21
-87.8294
0
LINE
8
BLACK
6
CONTINUOUS
10
183.899
20
-87.8294
11
183.856
21
-87.7646
0
LINE
8
BLACK
6
CONTINUOUS
10
183.856
20
-87.7646
11
183.605
21
-87.01
0
LINE
8
BLACK
6
CONTINUOUS
10
183.605
20
-87.01
11
182.392
21
-87.01
0
LINE
8
BLACK
6
CONTINUOUS
10
182.392
20
-87.01
11
182.141
21
-87.7646
0
LINE
8
BLACK
6
CONTINUOUS
10
182.141
20
-87.7646
11
182.098
21
-87.8294
0
LINE
8
BLACK
6
CONTINUOUS
10
182.098
20
-87.8294
11
182.029
21
-87.8641
0
LINE
8
BLACK
6
CONTINUOUS
10
182.029
20
-87.8641
11
181.951
21
-87.8594
0
LINE
8
BLACK
6
CONTINUOUS
10
181.951
20
-87.8594
11
181.886
21
-87.8167
0
LINE
8
BLACK
6
CONTINUOUS
10
181.886
20
-87.8167
11
181.852
21
-87.7472
0
LINE
8
BLACK
6
CONTINUOUS
10
181.852
20
-87.7472
11
181.856
21
-87.6697
0
LINE
8
BLACK
6
CONTINUOUS
10
181.856
20
-87.6697
11
182.856
21
-84.6697
0
LINE
8
BLACK
6
CONTINUOUS
10
182.856
20
-84.6697
11
182.873
21
-84.6446
0
LINE
8
BLACK
6
CONTINUOUS
10
182.873
20
-84.6446
11
182.886
21
-84.6176
0
LINE
8
BLACK
6
CONTINUOUS
10
182.886
20
-84.6176
11
182.894
21
-84.6126
0
LINE
8
BLACK
6
CONTINUOUS
10
182.894
20
-84.6126
11
182.899
21
-84.6049
0
LINE
8
BLACK
6
CONTINUOUS
10
182.899
20
-84.6049
11
182.926
21
-84.5914
0
LINE
8
BLACK
6
CONTINUOUS
10
182.926
20
-84.5914
11
182.951
21
-84.5748
0
LINE
8
BLACK
6
CONTINUOUS
10
182.951
20
-84.5748
11
182.96
21
-84.5743
0
LINE
8
BLACK
6
CONTINUOUS
10
182.96
20
-84.5743
11
182.968
21
-84.5702
0
LINE
8
BLACK
6
CONTINUOUS
10
182.968
20
-84.5702
11
182.999
21
-84.572
0
LINE
8
BLACK
6
CONTINUOUS
10
182.999
20
-84.572
11
183.029
21
-84.5702
0
LINE
8
BLACK
6
CONTINUOUS
10
183.029
20
-84.5702
11
183.037
21
-84.5743
0
LINE
8
BLACK
6
CONTINUOUS
10
182.492
20
-86.71
11
183.505
21
-86.71
0
LINE
8
BLACK
6
CONTINUOUS
10
183.505
20
-86.71
11
182.999
21
-85.1915
0
LINE
8
BLACK
6
CONTINUOUS
10
182.999
20
-85.1915
11
182.492
21
-86.71
0
LINE
8
BLACK
6
CONTINUOUS
10
120.535
20
-84.5872
11
120.549
21
-84.6012
0
LINE
8
BLACK
6
CONTINUOUS
10
120.549
20
-84.6012
11
120.566
21
-84.6111
0
LINE
8
BLACK
6
CONTINUOUS
10
120.566
20
-84.6111
11
120.709
21
-84.7539
0
LINE
8
BLACK
6
CONTINUOUS
10
120.709
20
-84.7539
11
120.748
21
-84.8212
0
LINE
8
BLACK
6
CONTINUOUS
10
120.748
20
-84.8212
11
120.748
21
-84.8988
0
LINE
8
BLACK
6
CONTINUOUS
10
120.748
20
-84.8988
11
120.709
21
-84.9661
0
LINE
8
BLACK
6
CONTINUOUS
10
120.709
20
-84.9661
11
120.566
21
-85.1089
0
LINE
8
BLACK
6
CONTINUOUS
10
120.566
20
-85.1089
11
120.549
21
-85.1188
0
LINE
8
BLACK
6
CONTINUOUS
10
120.549
20
-85.1188
11
120.535
21
-85.1328
0
LINE
8
BLACK
6
CONTINUOUS
10
120.535
20
-85.1328
11
120.516
21
-85.1379
0
LINE
8
BLACK
6
CONTINUOUS
10
120.516
20
-85.1379
11
120.499
21
-85.1477
0
LINE
8
BLACK
6
CONTINUOUS
10
120.499
20
-85.1477
11
120.479
21
-85.1477
0
LINE
8
BLACK
6
CONTINUOUS
10
120.479
20
-85.1477
11
120.46
21
-85.1529
0
LINE
8
BLACK
6
CONTINUOUS
10
120.46
20
-85.1529
11
120.441
21
-85.1477
0
LINE
8
BLACK
6
CONTINUOUS
10
120.441
20
-85.1477
11
120.421
21
-85.1477
0
LINE
8
BLACK
6
CONTINUOUS
10
120.421
20
-85.1477
11
120.404
21
-85.1379
0
LINE
8
BLACK
6
CONTINUOUS
10
120.404
20
-85.1379
11
120.385
21
-85.1328
0
LINE
8
BLACK
6
CONTINUOUS
10
120.385
20
-85.1328
11
120.371
21
-85.1188
0
LINE
8
BLACK
6
CONTINUOUS
10
120.371
20
-85.1188
11
120.354
21
-85.1089
0
LINE
8
BLACK
6
CONTINUOUS
10
120.354
20
-85.1089
11
120.211
21
-84.9661
0
LINE
8
BLACK
6
CONTINUOUS
10
120.211
20
-84.9661
11
120.172
21
-84.8988
0
LINE
8
BLACK
6
CONTINUOUS
10
120.172
20
-84.8988
11
120.172
21
-84.8212
0
LINE
8
BLACK
6
CONTINUOUS
10
120.172
20
-84.8212
11
120.211
21
-84.7539
0
LINE
8
BLACK
6
CONTINUOUS
10
120.211
20
-84.7539
11
120.354
21
-84.6111
0
LINE
8
BLACK
6
CONTINUOUS
10
120.354
20
-84.6111
11
120.371
21
-84.6012
0
LINE
8
BLACK
6
CONTINUOUS
10
120.371
20
-84.6012
11
120.385
21
-84.5872
0
LINE
8
BLACK
6
CONTINUOUS
10
120.385
20
-84.5872
11
120.404
21
-84.5821
0
LINE
8
BLACK
6
CONTINUOUS
10
120.404
20
-84.5821
11
120.421
21
-84.5723
0
LINE
8
BLACK
6
CONTINUOUS
10
120.421
20
-84.5723
11
120.441
21
-84.5723
0
LINE
8
BLACK
6
CONTINUOUS
10
120.441
20
-84.5723
11
120.46
21
-84.5671
0
LINE
8
BLACK
6
CONTINUOUS
10
120.46
20
-84.5671
11
120.479
21
-84.5723
0
LINE
8
BLACK
6
CONTINUOUS
10
120.479
20
-84.5723
11
120.499
21
-84.5723
0
LINE
8
BLACK
6
CONTINUOUS
10
120.499
20
-84.5723
11
120.516
21
-84.5821
0
LINE
8
BLACK
6
CONTINUOUS
10
120.516
20
-84.5821
11
120.535
21
-84.5872
0
LINE
8
BLACK
6
CONTINUOUS
10
85.1702
20
-84.5821
11
85.1893
21
-84.5872
0
LINE
8
BLACK
6
CONTINUOUS
10
85.1893
20
-84.5872
11
85.2032
21
-84.6012
0
LINE
8
BLACK
6
CONTINUOUS
10
85.2032
20
-84.6012
11
85.2204
21
-84.6111
0
LINE
8
BLACK
6
CONTINUOUS
10
85.2204
20
-84.6111
11
85.3632
21
-84.7539
0
LINE
8
BLACK
6
CONTINUOUS
10
85.3632
20
-84.7539
11
85.402
21
-84.8212
0
LINE
8
BLACK
6
CONTINUOUS
10
85.402
20
-84.8212
11
85.402
21
-84.8988
0
LINE
8
BLACK
6
CONTINUOUS
10
85.402
20
-84.8988
11
85.3632
21
-84.9661
0
LINE
8
BLACK
6
CONTINUOUS
10
85.3632
20
-84.9661
11
85.2204
21
-85.1089
0
LINE
8
BLACK
6
CONTINUOUS
10
85.2204
20
-85.1089
11
85.2032
21
-85.1188
0
LINE
8
BLACK
6
CONTINUOUS
10
85.2032
20
-85.1188
11
85.1893
21
-85.1328
0
LINE
8
BLACK
6
CONTINUOUS
10
85.1893
20
-85.1328
11
85.1702
21
-85.1379
0
LINE
8
BLACK
6
CONTINUOUS
10
85.1702
20
-85.1379
11
85.1531
21
-85.1477
0
LINE
8
BLACK
6
CONTINUOUS
10
85.1531
20
-85.1477
11
85.1334
21
-85.1477
0
LINE
8
BLACK
6
CONTINUOUS
10
85.1334
20
-85.1477
11
85.1143
21
-85.1529
0
LINE
8
BLACK
6
CONTINUOUS
10
85.1143
20
-85.1529
11
85.0952
21
-85.1477
0
LINE
8
BLACK
6
CONTINUOUS
10
85.0952
20
-85.1477
11
85.0755
21
-85.1477
0
LINE
8
BLACK
6
CONTINUOUS
10
85.0755
20
-85.1477
11
85.0584
21
-85.1379
0
LINE
8
BLACK
6
CONTINUOUS
10
85.0584
20
-85.1379
11
85.0393
21
-85.1328
0
LINE
8
BLACK
6
CONTINUOUS
10
85.0393
20
-85.1328
11
85.0253
21
-85.1188
0
LINE
8
BLACK
6
CONTINUOUS
10
85.0253
20
-85.1188
11
85.0082
21
-85.1089
0
LINE
8
BLACK
6
CONTINUOUS
10
85.0082
20
-85.1089
11
84.8654
21
-84.9661
0
LINE
8
BLACK
6
CONTINUOUS
10
84.8654
20
-84.9661
11
84.8265
21
-84.8988
0
LINE
8
BLACK
6
CONTINUOUS
10
84.8265
20
-84.8988
11
84.8265
21
-84.8212
0
LINE
8
BLACK
6
CONTINUOUS
10
84.8265
20
-84.8212
11
84.8654
21
-84.7539
0
LINE
8
BLACK
6
CONTINUOUS
10
84.8654
20
-84.7539
11
85.0082
21
-84.6111
0
LINE
8
BLACK
6
CONTINUOUS
10
85.0082
20
-84.6111
11
85.0253
21
-84.6012
0
LINE
8
BLACK
6
CONTINUOUS
10
85.0253
20
-84.6012
11
85.0393
21
-84.5872
0
LINE
8
BLACK
6
CONTINUOUS
10
85.0393
20
-84.5872
11
85.0584
21
-84.5821
0
LINE
8
BLACK
6
CONTINUOUS
10
85.0584
20
-84.5821
11
85.0755
21
-84.5723
0
LINE
8
BLACK
6
CONTINUOUS
10
85.0755
20
-84.5723
11
85.0952
21
-84.5723
0
LINE
8
BLACK
6
CONTINUOUS
10
85.0952
20
-84.5723
11
85.1143
21
-84.5671
0
LINE
8
BLACK
6
CONTINUOUS
10
85.1143
20
-84.5671
11
85.1334
21
-84.5723
0
LINE
8
BLACK
6
CONTINUOUS
10
85.1334
20
-84.5723
11
85.1531
21
-84.5723
0
LINE
8
BLACK
6
CONTINUOUS
10
85.1531
20
-84.5723
11
85.1702
21
-84.5821
  0
ENDSEC
  0
EOF
