  0
SECTION
  2
HEADER
  9
$ANGBASE
  50
0.0
  9
$ANGDIR
  70
1
  9
$MEASUREMENT
  70
1
  0
ENDSEC
  0
SECTION
  2
TABLES
  0
TABLE
  2
LTYPE
  70
4
  0
LTYPE
  5
40F
  2
CONTINUOUS
  70
0
  3
Solid line
  72
65
  73
0
  40
0.0
  0
LTYPE
  5
410
  2
DASHDOT
 70
0
  3
Dash Dot ____ _ ____ _
 72
65
 73
4
 40
2.0
 49
1.25
 49
-0.25
 49
0.25
 49
-0.25
  0
LTYPE
  5
411
  2
DASHED
 70
0
  3
Dashed __ __ __ __ __
 72
65
 73
2
 40
0.75
 49
0.5
 49
-0.25
  0
LTYPE
  5
43B
  2
DOTTED
 70
0
  3
Dotted .  .  .  .
 72
65
 73
2
 40
0.2
 49
0.0
 49
-0.2
  0
ENDTAB
  0
TABLE
  2
STYLE
  70
4
  0
STYLE
  2
KICAD
  70
0
  40
0
  41
1
  42
1
  50
0
  71
0
  3
isocp.shx
  0
STYLE
  2
KICADB
  70
0
  40
0
  41
1
  42
1
  50
0
  71
0
  3
isocp.shx
  0
STYLE
  2
KICADI
  70
0
  40
0
  41
1
  42
1
  50
15
  71
0
  3
isocp.shx
  0
STYLE
  2
KICADBI
  70
0
  40
0
  41
1
  42
1
  50
15
  71
0
  3
isocp.shx
  0
ENDTAB
  0
TABLE
  2
LAYER
  70
1
  0
LAYER
  2
BLACK
  70
0
  62
7
  6
CONTINUOUS
  0
ENDTAB
  0
ENDSEC
  0
SECTION
  2
ENTITIES
0
LINE
8
BLACK
6
CONTINUOUS
10
142.607
20
-85.46
11
142.626
21
-85.5188
0
LINE
8
BLACK
6
CONTINUOUS
10
142.626
20
-85.5188
11
142.626
21
-87.4188
0
LINE
8
BLACK
6
CONTINUOUS
10
142.626
20
-87.4188
11
143.479
21
-87.4188
0
LINE
8
BLACK
6
CONTINUOUS
10
143.479
20
-87.4188
11
143.537
21
-87.4379
0
LINE
8
BLACK
6
CONTINUOUS
10
143.537
20
-87.4379
11
143.574
21
-87.4879
0
LINE
8
BLACK
6
CONTINUOUS
10
143.574
20
-87.4879
11
143.574
21
-87.5497
0
LINE
8
BLACK
6
CONTINUOUS
10
143.574
20
-87.5497
11
143.537
21
-87.5997
0
LINE
8
BLACK
6
CONTINUOUS
10
143.537
20
-87.5997
11
143.479
21
-87.6188
0
LINE
8
BLACK
6
CONTINUOUS
10
143.479
20
-87.6188
11
142.526
21
-87.6188
0
LINE
8
BLACK
6
CONTINUOUS
10
142.526
20
-87.6188
11
142.511
21
-87.6139
0
LINE
8
BLACK
6
CONTINUOUS
10
142.511
20
-87.6139
11
142.495
21
-87.6139
0
LINE
8
BLACK
6
CONTINUOUS
10
142.495
20
-87.6139
11
142.482
21
-87.6046
0
LINE
8
BLACK
6
CONTINUOUS
10
142.482
20
-87.6046
11
142.467
21
-87.5997
0
LINE
8
BLACK
6
CONTINUOUS
10
142.467
20
-87.5997
11
142.458
21
-87.5868
0
LINE
8
BLACK
6
CONTINUOUS
10
142.458
20
-87.5868
11
142.445
21
-87.5775
0
LINE
8
BLACK
6
CONTINUOUS
10
142.445
20
-87.5775
11
142.44
21
-87.5625
0
LINE
8
BLACK
6
CONTINUOUS
10
142.44
20
-87.5625
11
142.431
21
-87.5497
0
LINE
8
BLACK
6
CONTINUOUS
10
142.431
20
-87.5497
11
142.431
21
-87.5338
0
LINE
8
BLACK
6
CONTINUOUS
10
142.431
20
-87.5338
11
142.426
21
-87.5188
0
LINE
8
BLACK
6
CONTINUOUS
10
142.426
20
-87.5188
11
142.426
21
-85.5188
0
LINE
8
BLACK
6
CONTINUOUS
10
142.426
20
-85.5188
11
142.445
21
-85.46
0
LINE
8
BLACK
6
CONTINUOUS
10
142.445
20
-85.46
11
142.495
21
-85.4237
0
LINE
8
BLACK
6
CONTINUOUS
10
142.495
20
-85.4237
11
142.557
21
-85.4237
0
LINE
8
BLACK
6
CONTINUOUS
10
142.557
20
-85.4237
11
142.607
21
-85.46
0
LINE
8
BLACK
6
CONTINUOUS
10
150.065
20
-85.4238
11
150.082
21
-85.4239
0
LINE
8
BLACK
6
CONTINUOUS
10
150.082
20
-85.4239
11
150.367
21
-85.5191
0
LINE
8
BLACK
6
CONTINUOUS
10
150.367
20
-85.5191
11
150.386
21
-85.5328
0
LINE
8
BLACK
6
CONTINUOUS
10
150.386
20
-85.5328
11
150.406
21
-85.5433
0
LINE
8
BLACK
6
CONTINUOUS
10
150.406
20
-85.5433
11
150.502
21
-85.6385
0
LINE
8
BLACK
6
CONTINUOUS
10
150.502
20
-85.6385
11
150.53
21
-85.6936
0
LINE
8
BLACK
6
CONTINUOUS
10
150.53
20
-85.6936
11
150.52
21
-85.7546
0
LINE
8
BLACK
6
CONTINUOUS
10
150.52
20
-85.7546
11
150.476
21
-85.7983
0
LINE
8
BLACK
6
CONTINUOUS
10
150.476
20
-85.7983
11
150.415
21
-85.808
0
LINE
8
BLACK
6
CONTINUOUS
10
150.415
20
-85.808
11
150.36
21
-85.7799
0
LINE
8
BLACK
6
CONTINUOUS
10
150.36
20
-85.7799
11
150.282
21
-85.7014
0
LINE
8
BLACK
6
CONTINUOUS
10
150.282
20
-85.7014
11
150.034
21
-85.6188
0
LINE
8
BLACK
6
CONTINUOUS
10
150.034
20
-85.6188
11
149.876
21
-85.6188
0
LINE
8
BLACK
6
CONTINUOUS
10
149.876
20
-85.6188
11
149.628
21
-85.7014
0
LINE
8
BLACK
6
CONTINUOUS
10
149.628
20
-85.7014
11
149.465
21
-85.8637
0
LINE
8
BLACK
6
CONTINUOUS
10
149.465
20
-85.8637
11
149.382
21
-86.0299
0
LINE
8
BLACK
6
CONTINUOUS
10
149.382
20
-86.0299
11
149.293
21
-86.3882
0
LINE
8
BLACK
6
CONTINUOUS
10
149.293
20
-86.3882
11
149.293
21
-86.6493
0
LINE
8
BLACK
6
CONTINUOUS
10
149.293
20
-86.6493
11
149.382
21
-87.0077
0
LINE
8
BLACK
6
CONTINUOUS
10
149.382
20
-87.0077
11
149.465
21
-87.1738
0
LINE
8
BLACK
6
CONTINUOUS
10
149.465
20
-87.1738
11
149.628
21
-87.3361
0
LINE
8
BLACK
6
CONTINUOUS
10
149.628
20
-87.3361
11
149.876
21
-87.4188
0
LINE
8
BLACK
6
CONTINUOUS
10
149.876
20
-87.4188
11
150.034
21
-87.4188
0
LINE
8
BLACK
6
CONTINUOUS
10
150.034
20
-87.4188
11
150.282
21
-87.3361
0
LINE
8
BLACK
6
CONTINUOUS
10
150.282
20
-87.3361
11
150.36
21
-87.2576
0
LINE
8
BLACK
6
CONTINUOUS
10
150.36
20
-87.2576
11
150.415
21
-87.2295
0
LINE
8
BLACK
6
CONTINUOUS
10
150.415
20
-87.2295
11
150.476
21
-87.2392
0
LINE
8
BLACK
6
CONTINUOUS
10
150.476
20
-87.2392
11
150.52
21
-87.2829
0
LINE
8
BLACK
6
CONTINUOUS
10
150.52
20
-87.2829
11
150.53
21
-87.3439
0
LINE
8
BLACK
6
CONTINUOUS
10
150.53
20
-87.3439
11
150.502
21
-87.399
0
LINE
8
BLACK
6
CONTINUOUS
10
150.502
20
-87.399
11
150.406
21
-87.4942
0
LINE
8
BLACK
6
CONTINUOUS
10
150.406
20
-87.4942
11
150.386
21
-87.5047
0
LINE
8
BLACK
6
CONTINUOUS
10
150.386
20
-87.5047
11
150.367
21
-87.5184
0
LINE
8
BLACK
6
CONTINUOUS
10
150.367
20
-87.5184
11
150.082
21
-87.6136
0
LINE
8
BLACK
6
CONTINUOUS
10
150.082
20
-87.6136
11
150.065
21
-87.6138
0
LINE
8
BLACK
6
CONTINUOUS
10
150.065
20
-87.6138
11
150.05
21
-87.6188
0
LINE
8
BLACK
6
CONTINUOUS
10
150.05
20
-87.6188
11
149.859
21
-87.6188
0
LINE
8
BLACK
6
CONTINUOUS
10
149.859
20
-87.6188
11
149.844
21
-87.6138
0
LINE
8
BLACK
6
CONTINUOUS
10
149.844
20
-87.6138
11
149.828
21
-87.6136
0
LINE
8
BLACK
6
CONTINUOUS
10
149.828
20
-87.6136
11
149.542
21
-87.5184
0
LINE
8
BLACK
6
CONTINUOUS
10
149.542
20
-87.5184
11
149.524
21
-87.5047
0
LINE
8
BLACK
6
CONTINUOUS
10
149.524
20
-87.5047
11
149.503
21
-87.4942
0
LINE
8
BLACK
6
CONTINUOUS
10
149.503
20
-87.4942
11
149.313
21
-87.3038
0
LINE
8
BLACK
6
CONTINUOUS
10
149.313
20
-87.3038
11
149.305
21
-87.2893
0
LINE
8
BLACK
6
CONTINUOUS
10
149.305
20
-87.2893
11
149.294
21
-87.2778
0
LINE
8
BLACK
6
CONTINUOUS
10
149.294
20
-87.2778
11
149.199
21
-87.0873
0
LINE
8
BLACK
6
CONTINUOUS
10
149.199
20
-87.0873
11
149.197
21
-87.0763
0
LINE
8
BLACK
6
CONTINUOUS
10
149.197
20
-87.0763
11
149.191
21
-87.0668
0
LINE
8
BLACK
6
CONTINUOUS
10
149.191
20
-87.0668
11
149.096
21
-86.6859
0
LINE
8
BLACK
6
CONTINUOUS
10
149.096
20
-86.6859
11
149.097
21
-86.6735
0
LINE
8
BLACK
6
CONTINUOUS
10
149.097
20
-86.6735
11
149.093
21
-86.6616
0
LINE
8
BLACK
6
CONTINUOUS
10
149.093
20
-86.6616
11
149.093
21
-86.3759
0
LINE
8
BLACK
6
CONTINUOUS
10
149.093
20
-86.3759
11
149.097
21
-86.3641
0
LINE
8
BLACK
6
CONTINUOUS
10
149.097
20
-86.3641
11
149.096
21
-86.3516
0
LINE
8
BLACK
6
CONTINUOUS
10
149.096
20
-86.3516
11
149.191
21
-85.9707
0
LINE
8
BLACK
6
CONTINUOUS
10
149.191
20
-85.9707
11
149.197
21
-85.9613
0
LINE
8
BLACK
6
CONTINUOUS
10
149.197
20
-85.9613
11
149.199
21
-85.9502
0
LINE
8
BLACK
6
CONTINUOUS
10
149.199
20
-85.9502
11
149.294
21
-85.7598
0
LINE
8
BLACK
6
CONTINUOUS
10
149.294
20
-85.7598
11
149.305
21
-85.7482
0
LINE
8
BLACK
6
CONTINUOUS
10
149.305
20
-85.7482
11
149.313
21
-85.7338
0
LINE
8
BLACK
6
CONTINUOUS
10
149.313
20
-85.7338
11
149.503
21
-85.5433
0
LINE
8
BLACK
6
CONTINUOUS
10
149.503
20
-85.5433
11
149.524
21
-85.5328
0
LINE
8
BLACK
6
CONTINUOUS
10
149.524
20
-85.5328
11
149.542
21
-85.5191
0
LINE
8
BLACK
6
CONTINUOUS
10
149.542
20
-85.5191
11
149.828
21
-85.4239
0
LINE
8
BLACK
6
CONTINUOUS
10
149.828
20
-85.4239
11
149.844
21
-85.4238
0
LINE
8
BLACK
6
CONTINUOUS
10
149.844
20
-85.4238
11
149.859
21
-85.4188
0
LINE
8
BLACK
6
CONTINUOUS
10
149.859
20
-85.4188
11
150.05
21
-85.4188
0
LINE
8
BLACK
6
CONTINUOUS
10
150.05
20
-85.4188
11
150.065
21
-85.4238
0
LINE
8
BLACK
6
CONTINUOUS
10
147.75
20
-85.46
11
147.769
21
-85.5188
0
LINE
8
BLACK
6
CONTINUOUS
10
147.769
20
-85.5188
11
147.769
21
-87.4188
0
LINE
8
BLACK
6
CONTINUOUS
10
147.769
20
-87.4188
11
148.621
21
-87.4188
0
LINE
8
BLACK
6
CONTINUOUS
10
148.621
20
-87.4188
11
148.68
21
-87.4379
0
LINE
8
BLACK
6
CONTINUOUS
10
148.68
20
-87.4379
11
148.716
21
-87.4879
0
LINE
8
BLACK
6
CONTINUOUS
10
148.716
20
-87.4879
11
148.716
21
-87.5497
0
LINE
8
BLACK
6
CONTINUOUS
10
148.716
20
-87.5497
11
148.68
21
-87.5997
0
LINE
8
BLACK
6
CONTINUOUS
10
148.68
20
-87.5997
11
148.621
21
-87.6188
0
LINE
8
BLACK
6
CONTINUOUS
10
148.621
20
-87.6188
11
147.669
21
-87.6188
0
LINE
8
BLACK
6
CONTINUOUS
10
147.669
20
-87.6188
11
147.654
21
-87.6139
0
LINE
8
BLACK
6
CONTINUOUS
10
147.654
20
-87.6139
11
147.638
21
-87.6139
0
LINE
8
BLACK
6
CONTINUOUS
10
147.638
20
-87.6139
11
147.625
21
-87.6046
0
LINE
8
BLACK
6
CONTINUOUS
10
147.625
20
-87.6046
11
147.61
21
-87.5997
0
LINE
8
BLACK
6
CONTINUOUS
10
147.61
20
-87.5997
11
147.601
21
-87.5868
0
LINE
8
BLACK
6
CONTINUOUS
10
147.601
20
-87.5868
11
147.588
21
-87.5775
0
LINE
8
BLACK
6
CONTINUOUS
10
147.588
20
-87.5775
11
147.583
21
-87.5625
0
LINE
8
BLACK
6
CONTINUOUS
10
147.583
20
-87.5625
11
147.574
21
-87.5497
0
LINE
8
BLACK
6
CONTINUOUS
10
147.574
20
-87.5497
11
147.574
21
-87.5338
0
LINE
8
BLACK
6
CONTINUOUS
10
147.574
20
-87.5338
11
147.569
21
-87.5188
0
LINE
8
BLACK
6
CONTINUOUS
10
147.569
20
-87.5188
11
147.569
21
-85.5188
0
LINE
8
BLACK
6
CONTINUOUS
10
147.569
20
-85.5188
11
147.588
21
-85.46
0
LINE
8
BLACK
6
CONTINUOUS
10
147.588
20
-85.46
11
147.638
21
-85.4237
0
LINE
8
BLACK
6
CONTINUOUS
10
147.638
20
-85.4237
11
147.7
21
-85.4237
0
LINE
8
BLACK
6
CONTINUOUS
10
147.7
20
-85.4237
11
147.75
21
-85.46
0
LINE
8
BLACK
6
CONTINUOUS
10
146.798
20
-85.46
11
146.817
21
-85.5188
0
LINE
8
BLACK
6
CONTINUOUS
10
146.817
20
-85.5188
11
146.817
21
-86.9473
0
LINE
8
BLACK
6
CONTINUOUS
10
146.817
20
-86.9473
11
146.812
21
-86.9627
0
LINE
8
BLACK
6
CONTINUOUS
10
146.812
20
-86.9627
11
146.811
21
-86.979
0
LINE
8
BLACK
6
CONTINUOUS
10
146.811
20
-86.979
11
146.716
21
-87.2647
0
LINE
8
BLACK
6
CONTINUOUS
10
146.716
20
-87.2647
11
146.703
21
-87.2832
0
LINE
8
BLACK
6
CONTINUOUS
10
146.703
20
-87.2832
11
146.692
21
-87.3038
0
LINE
8
BLACK
6
CONTINUOUS
10
146.692
20
-87.3038
11
146.502
21
-87.4942
0
LINE
8
BLACK
6
CONTINUOUS
10
146.502
20
-87.4942
11
146.481
21
-87.5047
0
LINE
8
BLACK
6
CONTINUOUS
10
146.481
20
-87.5047
11
146.463
21
-87.5184
0
LINE
8
BLACK
6
CONTINUOUS
10
146.463
20
-87.5184
11
146.177
21
-87.6136
0
LINE
8
BLACK
6
CONTINUOUS
10
146.177
20
-87.6136
11
146.161
21
-87.6138
0
LINE
8
BLACK
6
CONTINUOUS
10
146.161
20
-87.6138
11
146.145
21
-87.6188
0
LINE
8
BLACK
6
CONTINUOUS
10
146.145
20
-87.6188
11
145.955
21
-87.6188
0
LINE
8
BLACK
6
CONTINUOUS
10
145.955
20
-87.6188
11
145.896
21
-87.5997
0
LINE
8
BLACK
6
CONTINUOUS
10
145.896
20
-87.5997
11
145.86
21
-87.5497
0
LINE
8
BLACK
6
CONTINUOUS
10
145.86
20
-87.5497
11
145.86
21
-87.4879
0
LINE
8
BLACK
6
CONTINUOUS
10
145.86
20
-87.4879
11
145.896
21
-87.4379
0
LINE
8
BLACK
6
CONTINUOUS
10
145.896
20
-87.4379
11
145.955
21
-87.4188
0
LINE
8
BLACK
6
CONTINUOUS
10
145.955
20
-87.4188
11
146.129
21
-87.4188
0
LINE
8
BLACK
6
CONTINUOUS
10
146.129
20
-87.4188
11
146.377
21
-87.3361
0
LINE
8
BLACK
6
CONTINUOUS
10
146.377
20
-87.3361
11
146.534
21
-87.179
0
LINE
8
BLACK
6
CONTINUOUS
10
146.534
20
-87.179
11
146.617
21
-86.9311
0
LINE
8
BLACK
6
CONTINUOUS
10
146.617
20
-86.9311
11
146.617
21
-85.5188
0
LINE
8
BLACK
6
CONTINUOUS
10
146.617
20
-85.5188
11
146.636
21
-85.46
0
LINE
8
BLACK
6
CONTINUOUS
10
146.636
20
-85.46
11
146.686
21
-85.4237
0
LINE
8
BLACK
6
CONTINUOUS
10
146.686
20
-85.4237
11
146.748
21
-85.4237
0
LINE
8
BLACK
6
CONTINUOUS
10
146.748
20
-85.4237
11
146.798
21
-85.46
0
LINE
8
BLACK
6
CONTINUOUS
10
151.94
20
-85.46
11
151.959
21
-85.5188
0
LINE
8
BLACK
6
CONTINUOUS
10
151.959
20
-85.5188
11
151.959
21
-86.9473
0
LINE
8
BLACK
6
CONTINUOUS
10
151.959
20
-86.9473
11
151.954
21
-86.9627
0
LINE
8
BLACK
6
CONTINUOUS
10
151.954
20
-86.9627
11
151.954
21
-86.979
0
LINE
8
BLACK
6
CONTINUOUS
10
151.954
20
-86.979
11
151.859
21
-87.2647
0
LINE
8
BLACK
6
CONTINUOUS
10
151.859
20
-87.2647
11
151.845
21
-87.2832
0
LINE
8
BLACK
6
CONTINUOUS
10
151.845
20
-87.2832
11
151.835
21
-87.3038
0
LINE
8
BLACK
6
CONTINUOUS
10
151.835
20
-87.3038
11
151.644
21
-87.4942
0
LINE
8
BLACK
6
CONTINUOUS
10
151.644
20
-87.4942
11
151.624
21
-87.5047
0
LINE
8
BLACK
6
CONTINUOUS
10
151.624
20
-87.5047
11
151.605
21
-87.5184
0
LINE
8
BLACK
6
CONTINUOUS
10
151.605
20
-87.5184
11
151.32
21
-87.6136
0
LINE
8
BLACK
6
CONTINUOUS
10
151.32
20
-87.6136
11
151.303
21
-87.6138
0
LINE
8
BLACK
6
CONTINUOUS
10
151.303
20
-87.6138
11
151.288
21
-87.6188
0
LINE
8
BLACK
6
CONTINUOUS
10
151.288
20
-87.6188
11
151.098
21
-87.6188
0
LINE
8
BLACK
6
CONTINUOUS
10
151.098
20
-87.6188
11
151.039
21
-87.5997
0
LINE
8
BLACK
6
CONTINUOUS
10
151.039
20
-87.5997
11
151.002
21
-87.5497
0
LINE
8
BLACK
6
CONTINUOUS
10
151.002
20
-87.5497
11
151.002
21
-87.4879
0
LINE
8
BLACK
6
CONTINUOUS
10
151.002
20
-87.4879
11
151.039
21
-87.4379
0
LINE
8
BLACK
6
CONTINUOUS
10
151.039
20
-87.4379
11
151.098
21
-87.4188
0
LINE
8
BLACK
6
CONTINUOUS
10
151.098
20
-87.4188
11
151.272
21
-87.4188
0
LINE
8
BLACK
6
CONTINUOUS
10
151.272
20
-87.4188
11
151.52
21
-87.3361
0
LINE
8
BLACK
6
CONTINUOUS
10
151.52
20
-87.3361
11
151.677
21
-87.179
0
LINE
8
BLACK
6
CONTINUOUS
10
151.677
20
-87.179
11
151.759
21
-86.9311
0
LINE
8
BLACK
6
CONTINUOUS
10
151.759
20
-86.9311
11
151.759
21
-85.5188
0
LINE
8
BLACK
6
CONTINUOUS
10
151.759
20
-85.5188
11
151.779
21
-85.46
0
LINE
8
BLACK
6
CONTINUOUS
10
151.779
20
-85.46
11
151.829
21
-85.4237
0
LINE
8
BLACK
6
CONTINUOUS
10
151.829
20
-85.4237
11
151.89
21
-85.4237
0
LINE
8
BLACK
6
CONTINUOUS
10
151.89
20
-85.4237
11
151.94
21
-85.46
0
LINE
8
BLACK
6
CONTINUOUS
10
144.923
20
-85.4238
11
144.939
21
-85.4239
0
LINE
8
BLACK
6
CONTINUOUS
10
144.939
20
-85.4239
11
145.224
21
-85.5191
0
LINE
8
BLACK
6
CONTINUOUS
10
145.224
20
-85.5191
11
145.243
21
-85.5328
0
LINE
8
BLACK
6
CONTINUOUS
10
145.243
20
-85.5328
11
145.264
21
-85.5433
0
LINE
8
BLACK
6
CONTINUOUS
10
145.264
20
-85.5433
11
145.359
21
-85.6385
0
LINE
8
BLACK
6
CONTINUOUS
10
145.359
20
-85.6385
11
145.387
21
-85.6936
0
LINE
8
BLACK
6
CONTINUOUS
10
145.387
20
-85.6936
11
145.377
21
-85.7546
0
LINE
8
BLACK
6
CONTINUOUS
10
145.377
20
-85.7546
11
145.333
21
-85.7983
0
LINE
8
BLACK
6
CONTINUOUS
10
145.333
20
-85.7983
11
145.272
21
-85.808
0
LINE
8
BLACK
6
CONTINUOUS
10
145.272
20
-85.808
11
145.217
21
-85.7799
0
LINE
8
BLACK
6
CONTINUOUS
10
145.217
20
-85.7799
11
145.139
21
-85.7014
0
LINE
8
BLACK
6
CONTINUOUS
10
145.139
20
-85.7014
11
144.891
21
-85.6188
0
LINE
8
BLACK
6
CONTINUOUS
10
144.891
20
-85.6188
11
144.733
21
-85.6188
0
LINE
8
BLACK
6
CONTINUOUS
10
144.733
20
-85.6188
11
144.485
21
-85.7014
0
LINE
8
BLACK
6
CONTINUOUS
10
144.485
20
-85.7014
11
144.323
21
-85.8637
0
LINE
8
BLACK
6
CONTINUOUS
10
144.323
20
-85.8637
11
144.24
21
-86.0299
0
LINE
8
BLACK
6
CONTINUOUS
10
144.24
20
-86.0299
11
144.15
21
-86.3882
0
LINE
8
BLACK
6
CONTINUOUS
10
144.15
20
-86.3882
11
144.15
21
-86.6493
0
LINE
8
BLACK
6
CONTINUOUS
10
144.15
20
-86.6493
11
144.24
21
-87.0077
0
LINE
8
BLACK
6
CONTINUOUS
10
144.24
20
-87.0077
11
144.323
21
-87.1738
0
LINE
8
BLACK
6
CONTINUOUS
10
144.323
20
-87.1738
11
144.485
21
-87.3361
0
LINE
8
BLACK
6
CONTINUOUS
10
144.485
20
-87.3361
11
144.733
21
-87.4188
0
LINE
8
BLACK
6
CONTINUOUS
10
144.733
20
-87.4188
11
144.891
21
-87.4188
0
LINE
8
BLACK
6
CONTINUOUS
10
144.891
20
-87.4188
11
145.139
21
-87.3361
0
LINE
8
BLACK
6
CONTINUOUS
10
145.139
20
-87.3361
11
145.217
21
-87.2576
0
LINE
8
BLACK
6
CONTINUOUS
10
145.217
20
-87.2576
11
145.272
21
-87.2295
0
LINE
8
BLACK
6
CONTINUOUS
10
145.272
20
-87.2295
11
145.333
21
-87.2392
0
LINE
8
BLACK
6
CONTINUOUS
10
145.333
20
-87.2392
11
145.377
21
-87.2829
0
LINE
8
BLACK
6
CONTINUOUS
10
145.377
20
-87.2829
11
145.387
21
-87.3439
0
LINE
8
BLACK
6
CONTINUOUS
10
145.387
20
-87.3439
11
145.359
21
-87.399
0
LINE
8
BLACK
6
CONTINUOUS
10
145.359
20
-87.399
11
145.264
21
-87.4942
0
LINE
8
BLACK
6
CONTINUOUS
10
145.264
20
-87.4942
11
145.243
21
-87.5047
0
LINE
8
BLACK
6
CONTINUOUS
10
145.243
20
-87.5047
11
145.224
21
-87.5184
0
LINE
8
BLACK
6
CONTINUOUS
10
145.224
20
-87.5184
11
144.939
21
-87.6136
0
LINE
8
BLACK
6
CONTINUOUS
10
144.939
20
-87.6136
11
144.923
21
-87.6138
0
LINE
8
BLACK
6
CONTINUOUS
10
144.923
20
-87.6138
11
144.907
21
-87.6188
0
LINE
8
BLACK
6
CONTINUOUS
10
144.907
20
-87.6188
11
144.717
21
-87.6188
0
LINE
8
BLACK
6
CONTINUOUS
10
144.717
20
-87.6188
11
144.701
21
-87.6138
0
LINE
8
BLACK
6
CONTINUOUS
10
144.701
20
-87.6138
11
144.685
21
-87.6136
0
LINE
8
BLACK
6
CONTINUOUS
10
144.685
20
-87.6136
11
144.399
21
-87.5184
0
LINE
8
BLACK
6
CONTINUOUS
10
144.399
20
-87.5184
11
144.381
21
-87.5047
0
LINE
8
BLACK
6
CONTINUOUS
10
144.381
20
-87.5047
11
144.36
21
-87.4942
0
LINE
8
BLACK
6
CONTINUOUS
10
144.36
20
-87.4942
11
144.17
21
-87.3038
0
LINE
8
BLACK
6
CONTINUOUS
10
144.17
20
-87.3038
11
144.162
21
-87.2893
0
LINE
8
BLACK
6
CONTINUOUS
10
144.162
20
-87.2893
11
144.151
21
-87.2778
0
LINE
8
BLACK
6
CONTINUOUS
10
144.151
20
-87.2778
11
144.056
21
-87.0873
0
LINE
8
BLACK
6
CONTINUOUS
10
144.056
20
-87.0873
11
144.054
21
-87.0763
0
LINE
8
BLACK
6
CONTINUOUS
10
144.054
20
-87.0763
11
144.048
21
-87.0668
0
LINE
8
BLACK
6
CONTINUOUS
10
144.048
20
-87.0668
11
143.953
21
-86.6859
0
LINE
8
BLACK
6
CONTINUOUS
10
143.953
20
-86.6859
11
143.954
21
-86.6735
0
LINE
8
BLACK
6
CONTINUOUS
10
143.954
20
-86.6735
11
143.95
21
-86.6616
0
LINE
8
BLACK
6
CONTINUOUS
10
143.95
20
-86.6616
11
143.95
21
-86.3759
0
LINE
8
BLACK
6
CONTINUOUS
10
143.95
20
-86.3759
11
143.954
21
-86.3641
0
LINE
8
BLACK
6
CONTINUOUS
10
143.954
20
-86.3641
11
143.953
21
-86.3516
0
LINE
8
BLACK
6
CONTINUOUS
10
143.953
20
-86.3516
11
144.048
21
-85.9707
0
LINE
8
BLACK
6
CONTINUOUS
10
144.048
20
-85.9707
11
144.054
21
-85.9613
0
LINE
8
BLACK
6
CONTINUOUS
10
144.054
20
-85.9613
11
144.056
21
-85.9502
0
LINE
8
BLACK
6
CONTINUOUS
10
144.056
20
-85.9502
11
144.151
21
-85.7598
0
LINE
8
BLACK
6
CONTINUOUS
10
144.151
20
-85.7598
11
144.162
21
-85.7482
0
LINE
8
BLACK
6
CONTINUOUS
10
144.162
20
-85.7482
11
144.17
21
-85.7338
0
LINE
8
BLACK
6
CONTINUOUS
10
144.17
20
-85.7338
11
144.36
21
-85.5433
0
LINE
8
BLACK
6
CONTINUOUS
10
144.36
20
-85.5433
11
144.381
21
-85.5328
0
LINE
8
BLACK
6
CONTINUOUS
10
144.381
20
-85.5328
11
144.399
21
-85.5191
0
LINE
8
BLACK
6
CONTINUOUS
10
144.399
20
-85.5191
11
144.685
21
-85.4239
0
LINE
8
BLACK
6
CONTINUOUS
10
144.685
20
-85.4239
11
144.701
21
-85.4238
0
LINE
8
BLACK
6
CONTINUOUS
10
144.701
20
-85.4238
11
144.717
21
-85.4188
0
LINE
8
BLACK
6
CONTINUOUS
10
144.717
20
-85.4188
11
144.907
21
-85.4188
0
LINE
8
BLACK
6
CONTINUOUS
10
144.907
20
-85.4188
11
144.923
21
-85.4238
0
LINE
8
BLACK
6
CONTINUOUS
10
141.655
20
-85.46
11
141.674
21
-85.5188
0
LINE
8
BLACK
6
CONTINUOUS
10
141.674
20
-85.5188
11
141.674
21
-86.9473
0
LINE
8
BLACK
6
CONTINUOUS
10
141.674
20
-86.9473
11
141.669
21
-86.9627
0
LINE
8
BLACK
6
CONTINUOUS
10
141.669
20
-86.9627
11
141.669
21
-86.979
0
LINE
8
BLACK
6
CONTINUOUS
10
141.669
20
-86.979
11
141.573
21
-87.2647
0
LINE
8
BLACK
6
CONTINUOUS
10
141.573
20
-87.2647
11
141.56
21
-87.2832
0
LINE
8
BLACK
6
CONTINUOUS
10
141.56
20
-87.2832
11
141.549
21
-87.3038
0
LINE
8
BLACK
6
CONTINUOUS
10
141.549
20
-87.3038
11
141.359
21
-87.4942
0
LINE
8
BLACK
6
CONTINUOUS
10
141.359
20
-87.4942
11
141.338
21
-87.5047
0
LINE
8
BLACK
6
CONTINUOUS
10
141.338
20
-87.5047
11
141.32
21
-87.5184
0
LINE
8
BLACK
6
CONTINUOUS
10
141.32
20
-87.5184
11
141.034
21
-87.6136
0
LINE
8
BLACK
6
CONTINUOUS
10
141.034
20
-87.6136
11
141.018
21
-87.6138
0
LINE
8
BLACK
6
CONTINUOUS
10
141.018
20
-87.6138
11
141.002
21
-87.6188
0
LINE
8
BLACK
6
CONTINUOUS
10
141.002
20
-87.6188
11
140.812
21
-87.6188
0
LINE
8
BLACK
6
CONTINUOUS
10
140.812
20
-87.6188
11
140.753
21
-87.5997
0
LINE
8
BLACK
6
CONTINUOUS
10
140.753
20
-87.5997
11
140.717
21
-87.5497
0
LINE
8
BLACK
6
CONTINUOUS
10
140.717
20
-87.5497
11
140.717
21
-87.4879
0
LINE
8
BLACK
6
CONTINUOUS
10
140.717
20
-87.4879
11
140.753
21
-87.4379
0
LINE
8
BLACK
6
CONTINUOUS
10
140.753
20
-87.4379
11
140.812
21
-87.4188
0
LINE
8
BLACK
6
CONTINUOUS
10
140.812
20
-87.4188
11
140.986
21
-87.4188
0
LINE
8
BLACK
6
CONTINUOUS
10
140.986
20
-87.4188
11
141.234
21
-87.3361
0
LINE
8
BLACK
6
CONTINUOUS
10
141.234
20
-87.3361
11
141.391
21
-87.179
0
LINE
8
BLACK
6
CONTINUOUS
10
141.391
20
-87.179
11
141.474
21
-86.9311
0
LINE
8
BLACK
6
CONTINUOUS
10
141.474
20
-86.9311
11
141.474
21
-85.5188
0
LINE
8
BLACK
6
CONTINUOUS
10
141.474
20
-85.5188
11
141.493
21
-85.46
0
LINE
8
BLACK
6
CONTINUOUS
10
141.493
20
-85.46
11
141.543
21
-85.4237
0
LINE
8
BLACK
6
CONTINUOUS
10
141.543
20
-85.4237
11
141.605
21
-85.4237
0
LINE
8
BLACK
6
CONTINUOUS
10
141.605
20
-85.4237
11
141.655
21
-85.46
0
LINE
8
BLACK
6
CONTINUOUS
10
152.893
20
-85.46
11
152.912
21
-85.5188
0
LINE
8
BLACK
6
CONTINUOUS
10
152.912
20
-85.5188
11
152.912
21
-87.4188
0
LINE
8
BLACK
6
CONTINUOUS
10
152.912
20
-87.4188
11
153.764
21
-87.4188
0
LINE
8
BLACK
6
CONTINUOUS
10
153.764
20
-87.4188
11
153.823
21
-87.4379
0
LINE
8
BLACK
6
CONTINUOUS
10
153.823
20
-87.4379
11
153.859
21
-87.4879
0
LINE
8
BLACK
6
CONTINUOUS
10
153.859
20
-87.4879
11
153.859
21
-87.5497
0
LINE
8
BLACK
6
CONTINUOUS
10
153.859
20
-87.5497
11
153.823
21
-87.5997
0
LINE
8
BLACK
6
CONTINUOUS
10
153.823
20
-87.5997
11
153.764
21
-87.6188
0
LINE
8
BLACK
6
CONTINUOUS
10
153.764
20
-87.6188
11
152.812
21
-87.6188
0
LINE
8
BLACK
6
CONTINUOUS
10
152.812
20
-87.6188
11
152.797
21
-87.6139
0
LINE
8
BLACK
6
CONTINUOUS
10
152.797
20
-87.6139
11
152.781
21
-87.6139
0
LINE
8
BLACK
6
CONTINUOUS
10
152.781
20
-87.6139
11
152.768
21
-87.6046
0
LINE
8
BLACK
6
CONTINUOUS
10
152.768
20
-87.6046
11
152.753
21
-87.5997
0
LINE
8
BLACK
6
CONTINUOUS
10
152.753
20
-87.5997
11
152.744
21
-87.5868
0
LINE
8
BLACK
6
CONTINUOUS
10
152.744
20
-87.5868
11
152.731
21
-87.5775
0
LINE
8
BLACK
6
CONTINUOUS
10
152.731
20
-87.5775
11
152.726
21
-87.5625
0
LINE
8
BLACK
6
CONTINUOUS
10
152.726
20
-87.5625
11
152.717
21
-87.5497
0
LINE
8
BLACK
6
CONTINUOUS
10
152.717
20
-87.5497
11
152.717
21
-87.5338
0
LINE
8
BLACK
6
CONTINUOUS
10
152.717
20
-87.5338
11
152.712
21
-87.5188
0
LINE
8
BLACK
6
CONTINUOUS
10
152.712
20
-87.5188
11
152.712
21
-85.5188
0
LINE
8
BLACK
6
CONTINUOUS
10
152.712
20
-85.5188
11
152.731
21
-85.46
0
LINE
8
BLACK
6
CONTINUOUS
10
152.731
20
-85.46
11
152.781
21
-85.4237
0
LINE
8
BLACK
6
CONTINUOUS
10
152.781
20
-85.4237
11
152.843
21
-85.4237
0
LINE
8
BLACK
6
CONTINUOUS
10
152.843
20
-85.4237
11
152.893
21
-85.46
0
LINE
8
BLACK
6
CONTINUOUS
10
155.208
20
-85.4238
11
155.224
21
-85.4239
0
LINE
8
BLACK
6
CONTINUOUS
10
155.224
20
-85.4239
11
155.51
21
-85.5191
0
LINE
8
BLACK
6
CONTINUOUS
10
155.51
20
-85.5191
11
155.529
21
-85.5328
0
LINE
8
BLACK
6
CONTINUOUS
10
155.529
20
-85.5328
11
155.549
21
-85.5433
0
LINE
8
BLACK
6
CONTINUOUS
10
155.549
20
-85.5433
11
155.644
21
-85.6385
0
LINE
8
BLACK
6
CONTINUOUS
10
155.644
20
-85.6385
11
155.673
21
-85.6936
0
LINE
8
BLACK
6
CONTINUOUS
10
155.673
20
-85.6936
11
155.663
21
-85.7546
0
LINE
8
BLACK
6
CONTINUOUS
10
155.663
20
-85.7546
11
155.619
21
-85.7983
0
LINE
8
BLACK
6
CONTINUOUS
10
155.619
20
-85.7983
11
155.558
21
-85.808
0
LINE
8
BLACK
6
CONTINUOUS
10
155.558
20
-85.808
11
155.503
21
-85.7799
0
LINE
8
BLACK
6
CONTINUOUS
10
155.503
20
-85.7799
11
155.425
21
-85.7014
0
LINE
8
BLACK
6
CONTINUOUS
10
155.425
20
-85.7014
11
155.177
21
-85.6188
0
LINE
8
BLACK
6
CONTINUOUS
10
155.177
20
-85.6188
11
155.019
21
-85.6188
0
LINE
8
BLACK
6
CONTINUOUS
10
155.019
20
-85.6188
11
154.771
21
-85.7014
0
LINE
8
BLACK
6
CONTINUOUS
10
154.771
20
-85.7014
11
154.608
21
-85.8637
0
LINE
8
BLACK
6
CONTINUOUS
10
154.608
20
-85.8637
11
154.525
21
-86.0299
0
LINE
8
BLACK
6
CONTINUOUS
10
154.525
20
-86.0299
11
154.436
21
-86.3882
0
LINE
8
BLACK
6
CONTINUOUS
10
154.436
20
-86.3882
11
154.436
21
-86.6493
0
LINE
8
BLACK
6
CONTINUOUS
10
154.436
20
-86.6493
11
154.525
21
-87.0077
0
LINE
8
BLACK
6
CONTINUOUS
10
154.525
20
-87.0077
11
154.608
21
-87.1738
0
LINE
8
BLACK
6
CONTINUOUS
10
154.608
20
-87.1738
11
154.771
21
-87.3361
0
LINE
8
BLACK
6
CONTINUOUS
10
154.771
20
-87.3361
11
155.019
21
-87.4188
0
LINE
8
BLACK
6
CONTINUOUS
10
155.019
20
-87.4188
11
155.177
21
-87.4188
0
LINE
8
BLACK
6
CONTINUOUS
10
155.177
20
-87.4188
11
155.425
21
-87.3361
0
LINE
8
BLACK
6
CONTINUOUS
10
155.425
20
-87.3361
11
155.503
21
-87.2576
0
LINE
8
BLACK
6
CONTINUOUS
10
155.503
20
-87.2576
11
155.558
21
-87.2295
0
LINE
8
BLACK
6
CONTINUOUS
10
155.558
20
-87.2295
11
155.619
21
-87.2392
0
LINE
8
BLACK
6
CONTINUOUS
10
155.619
20
-87.2392
11
155.663
21
-87.2829
0
LINE
8
BLACK
6
CONTINUOUS
10
155.663
20
-87.2829
11
155.673
21
-87.3439
0
LINE
8
BLACK
6
CONTINUOUS
10
155.673
20
-87.3439
11
155.644
21
-87.399
0
LINE
8
BLACK
6
CONTINUOUS
10
155.644
20
-87.399
11
155.549
21
-87.4942
0
LINE
8
BLACK
6
CONTINUOUS
10
155.549
20
-87.4942
11
155.529
21
-87.5047
0
LINE
8
BLACK
6
CONTINUOUS
10
155.529
20
-87.5047
11
155.51
21
-87.5184
0
LINE
8
BLACK
6
CONTINUOUS
10
155.51
20
-87.5184
11
155.224
21
-87.6136
0
LINE
8
BLACK
6
CONTINUOUS
10
155.224
20
-87.6136
11
155.208
21
-87.6138
0
LINE
8
BLACK
6
CONTINUOUS
10
155.208
20
-87.6138
11
155.193
21
-87.6188
0
LINE
8
BLACK
6
CONTINUOUS
10
155.193
20
-87.6188
11
155.002
21
-87.6188
0
LINE
8
BLACK
6
CONTINUOUS
10
155.002
20
-87.6188
11
154.987
21
-87.6138
0
LINE
8
BLACK
6
CONTINUOUS
10
154.987
20
-87.6138
11
154.971
21
-87.6136
0
LINE
8
BLACK
6
CONTINUOUS
10
154.971
20
-87.6136
11
154.685
21
-87.5184
0
LINE
8
BLACK
6
CONTINUOUS
10
154.685
20
-87.5184
11
154.666
21
-87.5047
0
LINE
8
BLACK
6
CONTINUOUS
10
154.666
20
-87.5047
11
154.646
21
-87.4942
0
LINE
8
BLACK
6
CONTINUOUS
10
154.646
20
-87.4942
11
154.455
21
-87.3038
0
LINE
8
BLACK
6
CONTINUOUS
10
154.455
20
-87.3038
11
154.448
21
-87.2893
0
LINE
8
BLACK
6
CONTINUOUS
10
154.448
20
-87.2893
11
154.437
21
-87.2778
0
LINE
8
BLACK
6
CONTINUOUS
10
154.437
20
-87.2778
11
154.341
21
-87.0873
0
LINE
8
BLACK
6
CONTINUOUS
10
154.341
20
-87.0873
11
154.34
21
-87.0763
0
LINE
8
BLACK
6
CONTINUOUS
10
154.34
20
-87.0763
11
154.334
21
-87.0668
0
LINE
8
BLACK
6
CONTINUOUS
10
154.334
20
-87.0668
11
154.239
21
-86.6859
0
LINE
8
BLACK
6
CONTINUOUS
10
154.239
20
-86.6859
11
154.24
21
-86.6735
0
LINE
8
BLACK
6
CONTINUOUS
10
154.24
20
-86.6735
11
154.236
21
-86.6616
0
LINE
8
BLACK
6
CONTINUOUS
10
154.236
20
-86.6616
11
154.236
21
-86.3759
0
LINE
8
BLACK
6
CONTINUOUS
10
154.236
20
-86.3759
11
154.24
21
-86.3641
0
LINE
8
BLACK
6
CONTINUOUS
10
154.24
20
-86.3641
11
154.239
21
-86.3516
0
LINE
8
BLACK
6
CONTINUOUS
10
154.239
20
-86.3516
11
154.334
21
-85.9707
0
LINE
8
BLACK
6
CONTINUOUS
10
154.334
20
-85.9707
11
154.34
21
-85.9613
0
LINE
8
BLACK
6
CONTINUOUS
10
154.34
20
-85.9613
11
154.341
21
-85.9502
0
LINE
8
BLACK
6
CONTINUOUS
10
154.341
20
-85.9502
11
154.437
21
-85.7598
0
LINE
8
BLACK
6
CONTINUOUS
10
154.437
20
-85.7598
11
154.448
21
-85.7482
0
LINE
8
BLACK
6
CONTINUOUS
10
154.448
20
-85.7482
11
154.455
21
-85.7338
0
LINE
8
BLACK
6
CONTINUOUS
10
154.455
20
-85.7338
11
154.646
21
-85.5433
0
LINE
8
BLACK
6
CONTINUOUS
10
154.646
20
-85.5433
11
154.666
21
-85.5328
0
LINE
8
BLACK
6
CONTINUOUS
10
154.666
20
-85.5328
11
154.685
21
-85.5191
0
LINE
8
BLACK
6
CONTINUOUS
10
154.685
20
-85.5191
11
154.971
21
-85.4239
0
LINE
8
BLACK
6
CONTINUOUS
10
154.971
20
-85.4239
11
154.987
21
-85.4238
0
LINE
8
BLACK
6
CONTINUOUS
10
154.987
20
-85.4238
11
155.002
21
-85.4188
0
LINE
8
BLACK
6
CONTINUOUS
10
155.002
20
-85.4188
11
155.193
21
-85.4188
0
LINE
8
BLACK
6
CONTINUOUS
10
155.193
20
-85.4188
11
155.208
21
-85.4238
0
LINE
8
BLACK
6
CONTINUOUS
10
139.78
20
-85.4238
11
139.796
21
-85.4239
0
LINE
8
BLACK
6
CONTINUOUS
10
139.796
20
-85.4239
11
140.082
21
-85.5191
0
LINE
8
BLACK
6
CONTINUOUS
10
140.082
20
-85.5191
11
140.1
21
-85.5328
0
LINE
8
BLACK
6
CONTINUOUS
10
140.1
20
-85.5328
11
140.121
21
-85.5433
0
LINE
8
BLACK
6
CONTINUOUS
10
140.121
20
-85.5433
11
140.216
21
-85.6385
0
LINE
8
BLACK
6
CONTINUOUS
10
140.216
20
-85.6385
11
140.244
21
-85.6936
0
LINE
8
BLACK
6
CONTINUOUS
10
140.244
20
-85.6936
11
140.234
21
-85.7546
0
LINE
8
BLACK
6
CONTINUOUS
10
140.234
20
-85.7546
11
140.191
21
-85.7983
0
LINE
8
BLACK
6
CONTINUOUS
10
140.191
20
-85.7983
11
140.13
21
-85.808
0
LINE
8
BLACK
6
CONTINUOUS
10
140.13
20
-85.808
11
140.074
21
-85.7799
0
LINE
8
BLACK
6
CONTINUOUS
10
140.074
20
-85.7799
11
139.996
21
-85.7014
0
LINE
8
BLACK
6
CONTINUOUS
10
139.996
20
-85.7014
11
139.748
21
-85.6188
0
LINE
8
BLACK
6
CONTINUOUS
10
139.748
20
-85.6188
11
139.59
21
-85.6188
0
LINE
8
BLACK
6
CONTINUOUS
10
139.59
20
-85.6188
11
139.342
21
-85.7014
0
LINE
8
BLACK
6
CONTINUOUS
10
139.342
20
-85.7014
11
139.18
21
-85.8637
0
LINE
8
BLACK
6
CONTINUOUS
10
139.18
20
-85.8637
11
139.097
21
-86.0299
0
LINE
8
BLACK
6
CONTINUOUS
10
139.097
20
-86.0299
11
139.007
21
-86.3882
0
LINE
8
BLACK
6
CONTINUOUS
10
139.007
20
-86.3882
11
139.007
21
-86.6493
0
LINE
8
BLACK
6
CONTINUOUS
10
139.007
20
-86.6493
11
139.097
21
-87.0077
0
LINE
8
BLACK
6
CONTINUOUS
10
139.097
20
-87.0077
11
139.18
21
-87.1738
0
LINE
8
BLACK
6
CONTINUOUS
10
139.18
20
-87.1738
11
139.342
21
-87.3361
0
LINE
8
BLACK
6
CONTINUOUS
10
139.342
20
-87.3361
11
139.59
21
-87.4188
0
LINE
8
BLACK
6
CONTINUOUS
10
139.59
20
-87.4188
11
139.748
21
-87.4188
0
LINE
8
BLACK
6
CONTINUOUS
10
139.748
20
-87.4188
11
139.996
21
-87.3361
0
LINE
8
BLACK
6
CONTINUOUS
10
139.996
20
-87.3361
11
140.074
21
-87.2576
0
LINE
8
BLACK
6
CONTINUOUS
10
140.074
20
-87.2576
11
140.13
21
-87.2295
0
LINE
8
BLACK
6
CONTINUOUS
10
140.13
20
-87.2295
11
140.191
21
-87.2392
0
LINE
8
BLACK
6
CONTINUOUS
10
140.191
20
-87.2392
11
140.234
21
-87.2829
0
LINE
8
BLACK
6
CONTINUOUS
10
140.234
20
-87.2829
11
140.244
21
-87.3439
0
LINE
8
BLACK
6
CONTINUOUS
10
140.244
20
-87.3439
11
140.216
21
-87.399
0
LINE
8
BLACK
6
CONTINUOUS
10
140.216
20
-87.399
11
140.121
21
-87.4942
0
LINE
8
BLACK
6
CONTINUOUS
10
140.121
20
-87.4942
11
140.1
21
-87.5047
0
LINE
8
BLACK
6
CONTINUOUS
10
140.1
20
-87.5047
11
140.082
21
-87.5184
0
LINE
8
BLACK
6
CONTINUOUS
10
140.082
20
-87.5184
11
139.796
21
-87.6136
0
LINE
8
BLACK
6
CONTINUOUS
10
139.796
20
-87.6136
11
139.78
21
-87.6138
0
LINE
8
BLACK
6
CONTINUOUS
10
139.78
20
-87.6138
11
139.764
21
-87.6188
0
LINE
8
BLACK
6
CONTINUOUS
10
139.764
20
-87.6188
11
139.574
21
-87.6188
0
LINE
8
BLACK
6
CONTINUOUS
10
139.574
20
-87.6188
11
139.558
21
-87.6138
0
LINE
8
BLACK
6
CONTINUOUS
10
139.558
20
-87.6138
11
139.542
21
-87.6136
0
LINE
8
BLACK
6
CONTINUOUS
10
139.542
20
-87.6136
11
139.256
21
-87.5184
0
LINE
8
BLACK
6
CONTINUOUS
10
139.256
20
-87.5184
11
139.238
21
-87.5047
0
LINE
8
BLACK
6
CONTINUOUS
10
139.238
20
-87.5047
11
139.217
21
-87.4942
0
LINE
8
BLACK
6
CONTINUOUS
10
139.217
20
-87.4942
11
139.027
21
-87.3038
0
LINE
8
BLACK
6
CONTINUOUS
10
139.027
20
-87.3038
11
139.02
21
-87.2893
0
LINE
8
BLACK
6
CONTINUOUS
10
139.02
20
-87.2893
11
139.008
21
-87.2778
0
LINE
8
BLACK
6
CONTINUOUS
10
139.008
20
-87.2778
11
138.913
21
-87.0873
0
LINE
8
BLACK
6
CONTINUOUS
10
138.913
20
-87.0873
11
138.911
21
-87.0763
0
LINE
8
BLACK
6
CONTINUOUS
10
138.911
20
-87.0763
11
138.905
21
-87.0668
0
LINE
8
BLACK
6
CONTINUOUS
10
138.905
20
-87.0668
11
138.81
21
-86.6859
0
LINE
8
BLACK
6
CONTINUOUS
10
138.81
20
-86.6859
11
138.811
21
-86.6735
0
LINE
8
BLACK
6
CONTINUOUS
10
138.811
20
-86.6735
11
138.807
21
-86.6616
0
LINE
8
BLACK
6
CONTINUOUS
10
138.807
20
-86.6616
11
138.807
21
-86.3759
0
LINE
8
BLACK
6
CONTINUOUS
10
138.807
20
-86.3759
11
138.811
21
-86.3641
0
LINE
8
BLACK
6
CONTINUOUS
10
138.811
20
-86.3641
11
138.81
21
-86.3516
0
LINE
8
BLACK
6
CONTINUOUS
10
138.81
20
-86.3516
11
138.905
21
-85.9707
0
LINE
8
BLACK
6
CONTINUOUS
10
138.905
20
-85.9707
11
138.911
21
-85.9613
0
LINE
8
BLACK
6
CONTINUOUS
10
138.911
20
-85.9613
11
138.913
21
-85.9502
0
LINE
8
BLACK
6
CONTINUOUS
10
138.913
20
-85.9502
11
139.008
21
-85.7598
0
LINE
8
BLACK
6
CONTINUOUS
10
139.008
20
-85.7598
11
139.02
21
-85.7482
0
LINE
8
BLACK
6
CONTINUOUS
10
139.02
20
-85.7482
11
139.027
21
-85.7338
0
LINE
8
BLACK
6
CONTINUOUS
10
139.027
20
-85.7338
11
139.217
21
-85.5433
0
LINE
8
BLACK
6
CONTINUOUS
10
139.217
20
-85.5433
11
139.238
21
-85.5328
0
LINE
8
BLACK
6
CONTINUOUS
10
139.238
20
-85.5328
11
139.256
21
-85.5191
0
LINE
8
BLACK
6
CONTINUOUS
10
139.256
20
-85.5191
11
139.542
21
-85.4239
0
LINE
8
BLACK
6
CONTINUOUS
10
139.542
20
-85.4239
11
139.558
21
-85.4238
0
LINE
8
BLACK
6
CONTINUOUS
10
139.558
20
-85.4238
11
139.574
21
-85.4188
0
LINE
8
BLACK
6
CONTINUOUS
10
139.574
20
-85.4188
11
139.764
21
-85.4188
0
LINE
8
BLACK
6
CONTINUOUS
10
139.764
20
-85.4188
11
139.78
21
-85.4238
0
LINE
8
BLACK
6
CONTINUOUS
10
136.512
20
-85.46
11
136.531
21
-85.5188
0
LINE
8
BLACK
6
CONTINUOUS
10
136.531
20
-85.5188
11
136.531
21
-86.9473
0
LINE
8
BLACK
6
CONTINUOUS
10
136.531
20
-86.9473
11
136.526
21
-86.9627
0
LINE
8
BLACK
6
CONTINUOUS
10
136.526
20
-86.9627
11
136.526
21
-86.979
0
LINE
8
BLACK
6
CONTINUOUS
10
136.526
20
-86.979
11
136.431
21
-87.2647
0
LINE
8
BLACK
6
CONTINUOUS
10
136.431
20
-87.2647
11
136.417
21
-87.2832
0
LINE
8
BLACK
6
CONTINUOUS
10
136.417
20
-87.2832
11
136.406
21
-87.3038
0
LINE
8
BLACK
6
CONTINUOUS
10
136.406
20
-87.3038
11
136.216
21
-87.4942
0
LINE
8
BLACK
6
CONTINUOUS
10
136.216
20
-87.4942
11
136.195
21
-87.5047
0
LINE
8
BLACK
6
CONTINUOUS
10
136.195
20
-87.5047
11
136.177
21
-87.5184
0
LINE
8
BLACK
6
CONTINUOUS
10
136.177
20
-87.5184
11
135.891
21
-87.6136
0
LINE
8
BLACK
6
CONTINUOUS
10
135.891
20
-87.6136
11
135.875
21
-87.6138
0
LINE
8
BLACK
6
CONTINUOUS
10
135.875
20
-87.6138
11
135.859
21
-87.6188
0
LINE
8
BLACK
6
CONTINUOUS
10
135.859
20
-87.6188
11
135.669
21
-87.6188
0
LINE
8
BLACK
6
CONTINUOUS
10
135.669
20
-87.6188
11
135.61
21
-87.5997
0
LINE
8
BLACK
6
CONTINUOUS
10
135.61
20
-87.5997
11
135.574
21
-87.5497
0
LINE
8
BLACK
6
CONTINUOUS
10
135.574
20
-87.5497
11
135.574
21
-87.4879
0
LINE
8
BLACK
6
CONTINUOUS
10
135.574
20
-87.4879
11
135.61
21
-87.4379
0
LINE
8
BLACK
6
CONTINUOUS
10
135.61
20
-87.4379
11
135.669
21
-87.4188
0
LINE
8
BLACK
6
CONTINUOUS
10
135.669
20
-87.4188
11
135.843
21
-87.4188
0
LINE
8
BLACK
6
CONTINUOUS
10
135.843
20
-87.4188
11
136.091
21
-87.3361
0
LINE
8
BLACK
6
CONTINUOUS
10
136.091
20
-87.3361
11
136.248
21
-87.179
0
LINE
8
BLACK
6
CONTINUOUS
10
136.248
20
-87.179
11
136.331
21
-86.9311
0
LINE
8
BLACK
6
CONTINUOUS
10
136.331
20
-86.9311
11
136.331
21
-85.5188
0
LINE
8
BLACK
6
CONTINUOUS
10
136.331
20
-85.5188
11
136.35
21
-85.46
0
LINE
8
BLACK
6
CONTINUOUS
10
136.35
20
-85.46
11
136.4
21
-85.4237
0
LINE
8
BLACK
6
CONTINUOUS
10
136.4
20
-85.4237
11
136.462
21
-85.4237
0
LINE
8
BLACK
6
CONTINUOUS
10
136.462
20
-85.4237
11
136.512
21
-85.46
0
LINE
8
BLACK
6
CONTINUOUS
10
137.464
20
-85.46
11
137.483
21
-85.5188
0
LINE
8
BLACK
6
CONTINUOUS
10
137.483
20
-85.5188
11
137.483
21
-87.4188
0
LINE
8
BLACK
6
CONTINUOUS
10
137.483
20
-87.4188
11
138.336
21
-87.4188
0
LINE
8
BLACK
6
CONTINUOUS
10
138.336
20
-87.4188
11
138.394
21
-87.4379
0
LINE
8
BLACK
6
CONTINUOUS
10
138.394
20
-87.4379
11
138.431
21
-87.4879
0
LINE
8
BLACK
6
CONTINUOUS
10
138.431
20
-87.4879
11
138.431
21
-87.5497
0
LINE
8
BLACK
6
CONTINUOUS
10
138.431
20
-87.5497
11
138.394
21
-87.5997
0
LINE
8
BLACK
6
CONTINUOUS
10
138.394
20
-87.5997
11
138.336
21
-87.6188
0
LINE
8
BLACK
6
CONTINUOUS
10
138.336
20
-87.6188
11
137.383
21
-87.6188
0
LINE
8
BLACK
6
CONTINUOUS
10
137.383
20
-87.6188
11
137.368
21
-87.6139
0
LINE
8
BLACK
6
CONTINUOUS
10
137.368
20
-87.6139
11
137.352
21
-87.6139
0
LINE
8
BLACK
6
CONTINUOUS
10
137.352
20
-87.6139
11
137.34
21
-87.6046
0
LINE
8
BLACK
6
CONTINUOUS
10
137.34
20
-87.6046
11
137.325
21
-87.5997
0
LINE
8
BLACK
6
CONTINUOUS
10
137.325
20
-87.5997
11
137.315
21
-87.5868
0
LINE
8
BLACK
6
CONTINUOUS
10
137.315
20
-87.5868
11
137.302
21
-87.5775
0
LINE
8
BLACK
6
CONTINUOUS
10
137.302
20
-87.5775
11
137.297
21
-87.5625
0
LINE
8
BLACK
6
CONTINUOUS
10
137.297
20
-87.5625
11
137.288
21
-87.5497
0
LINE
8
BLACK
6
CONTINUOUS
10
137.288
20
-87.5497
11
137.288
21
-87.5338
0
LINE
8
BLACK
6
CONTINUOUS
10
137.288
20
-87.5338
11
137.283
21
-87.5188
0
LINE
8
BLACK
6
CONTINUOUS
10
137.283
20
-87.5188
11
137.283
21
-85.5188
0
LINE
8
BLACK
6
CONTINUOUS
10
137.283
20
-85.5188
11
137.302
21
-85.46
0
LINE
8
BLACK
6
CONTINUOUS
10
137.302
20
-85.46
11
137.352
21
-85.4237
0
LINE
8
BLACK
6
CONTINUOUS
10
137.352
20
-85.4237
11
137.414
21
-85.4237
0
LINE
8
BLACK
6
CONTINUOUS
10
137.414
20
-85.4237
11
137.464
21
-85.46
  0
ENDSEC
  0
EOF
