  0
SECTION
  2
HEADER
  9
$ANGBASE
  50
0.0
  9
$ANGDIR
  70
1
  9
$MEASUREMENT
  70
1
  0
ENDSEC
  0
SECTION
  2
TABLES
  0
TABLE
  2
LTYPE
  70
4
  0
LTYPE
  5
40F
  2
CONTINUOUS
  70
0
  3
Solid line
  72
65
  73
0
  40
0.0
  0
LTYPE
  5
410
  2
DASHDOT
 70
0
  3
Dash Dot ____ _ ____ _
 72
65
 73
4
 40
2.0
 49
1.25
 49
-0.25
 49
0.25
 49
-0.25
  0
LTYPE
  5
411
  2
DASHED
 70
0
  3
Dashed __ __ __ __ __
 72
65
 73
2
 40
0.75
 49
0.5
 49
-0.25
  0
LTYPE
  5
43B
  2
DOTTED
 70
0
  3
Dotted .  .  .  .
 72
65
 73
2
 40
0.2
 49
0.0
 49
-0.2
  0
ENDTAB
  0
TABLE
  2
STYLE
  70
4
  0
STYLE
  2
KICAD
  70
0
  40
0
  41
1
  42
1
  50
0
  71
0
  3
isocp.shx
  0
STYLE
  2
KICADB
  70
0
  40
0
  41
1
  42
1
  50
0
  71
0
  3
isocp.shx
  0
STYLE
  2
KICADI
  70
0
  40
0
  41
1
  42
1
  50
15
  71
0
  3
isocp.shx
  0
STYLE
  2
KICADBI
  70
0
  40
0
  41
1
  42
1
  50
15
  71
0
  3
isocp.shx
  0
ENDTAB
  0
TABLE
  2
LAYER
  70
1
  0
LAYER
  2
BLACK
  70
0
  62
7
  6
CONTINUOUS
  0
ENDTAB
  0
ENDSEC
  0
SECTION
  2
ENTITIES
0
LINE
8
BLACK
6
CONTINUOUS
10
73.5787
20
-108.607
11
73.516
21
-108.455
0
LINE
8
BLACK
6
CONTINUOUS
10
73.516
20
-108.455
11
73.4303
21
-108.249
0
LINE
8
BLACK
6
CONTINUOUS
10
73.4303
20
-108.249
11
73.4265
21
-108.238
0
LINE
8
BLACK
6
CONTINUOUS
10
73.4265
20
-108.238
11
73.3914
21
-108.127
0
LINE
8
BLACK
6
CONTINUOUS
10
73.3914
20
-108.127
11
73.3636
21
-108.039
0
LINE
8
BLACK
6
CONTINUOUS
10
73.3636
20
-108.039
11
73.3331
21
-107.942
0
LINE
8
BLACK
6
CONTINUOUS
10
73.3331
20
-107.942
11
73.3099
21
-107.868
0
LINE
8
BLACK
6
CONTINUOUS
10
73.3099
20
-107.868
11
73.3071
21
-107.858
0
LINE
8
BLACK
6
CONTINUOUS
10
73.3071
20
-107.858
11
73.2231
21
-107.479
0
LINE
8
BLACK
6
CONTINUOUS
10
73.2231
20
-107.479
11
73.2212
21
-107.468
0
LINE
8
BLACK
6
CONTINUOUS
10
73.2212
20
-107.468
11
73.1706
21
-107.084
0
LINE
8
BLACK
6
CONTINUOUS
10
73.1706
20
-107.084
11
73.1704
21
-107.081
0
LINE
8
BLACK
6
CONTINUOUS
10
73.1704
20
-107.081
11
73.1697
21
-107.073
0
LINE
8
BLACK
6
CONTINUOUS
10
73.1697
20
-107.073
11
73.1671
21
-107.014
0
LINE
8
BLACK
6
CONTINUOUS
10
73.1671
20
-107.014
11
73.1546
21
-106.727
0
LINE
8
BLACK
6
CONTINUOUS
10
73.1546
20
-106.727
11
73.1562
21
-106.701
0
LINE
8
BLACK
6
CONTINUOUS
10
73.1562
20
-106.701
11
73.1568
21
-106.697
0
LINE
8
BLACK
6
CONTINUOUS
10
73.1568
20
-106.697
11
73.1568
21
-106.697
0
LINE
8
BLACK
6
CONTINUOUS
10
73.1568
20
-106.697
11
73.1576
21
-106.693
0
LINE
8
BLACK
6
CONTINUOUS
10
73.1576
20
-106.693
11
73.1577
21
-106.68
0
LINE
8
BLACK
6
CONTINUOUS
10
73.1577
20
-106.68
11
73.1538
21
-106.652
0
LINE
8
BLACK
6
CONTINUOUS
10
73.1538
20
-106.652
11
73.1525
21
-106.635
0
LINE
8
BLACK
6
CONTINUOUS
10
73.1525
20
-106.635
11
73.1525
21
-86.6672
0
LINE
8
BLACK
6
CONTINUOUS
10
73.1525
20
-86.6672
11
73.1542
21
-86.6463
0
LINE
8
BLACK
6
CONTINUOUS
10
73.1542
20
-86.6463
11
73.1568
21
-86.6313
0
LINE
8
BLACK
6
CONTINUOUS
10
73.1568
20
-86.6313
11
73.1568
21
-86.6313
0
LINE
8
BLACK
6
CONTINUOUS
10
73.1568
20
-86.6313
11
73.1576
21
-86.6266
0
LINE
8
BLACK
6
CONTINUOUS
10
73.1576
20
-86.6266
11
73.1577
21
-86.614
0
LINE
8
BLACK
6
CONTINUOUS
10
73.1577
20
-86.614
11
73.157
21
-86.6092
0
LINE
8
BLACK
6
CONTINUOUS
10
73.157
20
-86.6092
11
73.157
21
-86.6092
0
LINE
8
BLACK
6
CONTINUOUS
10
73.157
20
-86.6092
11
73.1554
21
-86.5976
0
LINE
8
BLACK
6
CONTINUOUS
10
73.1554
20
-86.5976
11
73.1542
21
-86.5743
0
LINE
8
BLACK
6
CONTINUOUS
10
73.1542
20
-86.5743
11
73.1697
21
-86.2211
0
LINE
8
BLACK
6
CONTINUOUS
10
73.1697
20
-86.2211
11
73.1706
21
-86.2101
0
LINE
8
BLACK
6
CONTINUOUS
10
73.1706
20
-86.2101
11
73.2212
21
-85.8256
0
LINE
8
BLACK
6
CONTINUOUS
10
73.2212
20
-85.8256
11
73.2231
21
-85.8148
0
LINE
8
BLACK
6
CONTINUOUS
10
73.2231
20
-85.8148
11
73.3071
21
-85.4362
0
LINE
8
BLACK
6
CONTINUOUS
10
73.3071
20
-85.4362
11
73.3099
21
-85.4256
0
LINE
8
BLACK
6
CONTINUOUS
10
73.3099
20
-85.4256
11
73.4265
21
-85.0557
0
LINE
8
BLACK
6
CONTINUOUS
10
73.4265
20
-85.0557
11
73.4303
21
-85.0454
0
LINE
8
BLACK
6
CONTINUOUS
10
73.4303
20
-85.0454
11
73.5787
21
-84.6871
0
LINE
8
BLACK
6
CONTINUOUS
10
73.5787
20
-84.6871
11
73.5834
21
-84.6771
0
LINE
8
BLACK
6
CONTINUOUS
10
73.5834
20
-84.6771
11
73.7624
21
-84.3331
0
LINE
8
BLACK
6
CONTINUOUS
10
73.7624
20
-84.3331
11
73.7679
21
-84.3236
0
LINE
8
BLACK
6
CONTINUOUS
10
73.7679
20
-84.3236
11
73.9763
21
-83.9965
0
LINE
8
BLACK
6
CONTINUOUS
10
73.9763
20
-83.9965
11
73.9826
21
-83.9875
0
LINE
8
BLACK
6
CONTINUOUS
10
73.9826
20
-83.9875
11
74.2187
21
-83.6799
0
LINE
8
BLACK
6
CONTINUOUS
10
74.2187
20
-83.6799
11
74.2257
21
-83.6714
0
LINE
8
BLACK
6
CONTINUOUS
10
74.2257
20
-83.6714
11
74.4877
21
-83.3855
0
LINE
8
BLACK
6
CONTINUOUS
10
74.4877
20
-83.3855
11
74.4955
21
-83.3777
0
LINE
8
BLACK
6
CONTINUOUS
10
74.4955
20
-83.3777
11
74.7814
21
-83.1157
0
LINE
8
BLACK
6
CONTINUOUS
10
74.7814
20
-83.1157
11
74.7899
21
-83.1087
0
LINE
8
BLACK
6
CONTINUOUS
10
74.7899
20
-83.1087
11
75.0975
21
-82.8726
0
LINE
8
BLACK
6
CONTINUOUS
10
75.0975
20
-82.8726
11
75.1065
21
-82.8663
0
LINE
8
BLACK
6
CONTINUOUS
10
75.1065
20
-82.8663
11
75.4336
21
-82.6579
0
LINE
8
BLACK
6
CONTINUOUS
10
75.4336
20
-82.6579
11
75.4431
21
-82.6524
0
LINE
8
BLACK
6
CONTINUOUS
10
75.4431
20
-82.6524
11
75.7871
21
-82.4734
0
LINE
8
BLACK
6
CONTINUOUS
10
75.7871
20
-82.4734
11
75.7971
21
-82.4687
0
LINE
8
BLACK
6
CONTINUOUS
10
75.7971
20
-82.4687
11
76.1554
21
-82.3203
0
LINE
8
BLACK
6
CONTINUOUS
10
76.1554
20
-82.3203
11
76.1657
21
-82.3165
0
LINE
8
BLACK
6
CONTINUOUS
10
76.1657
20
-82.3165
11
76.3653
21
-82.2536
0
LINE
8
BLACK
6
CONTINUOUS
10
76.3653
20
-82.2536
11
76.5356
21
-82.1999
0
LINE
8
BLACK
6
CONTINUOUS
10
76.5356
20
-82.1999
11
76.5462
21
-82.1971
0
LINE
8
BLACK
6
CONTINUOUS
10
76.5462
20
-82.1971
11
76.9248
21
-82.1131
0
LINE
8
BLACK
6
CONTINUOUS
10
76.9248
20
-82.1131
11
76.9356
21
-82.1112
0
LINE
8
BLACK
6
CONTINUOUS
10
76.9356
20
-82.1112
11
77.3201
21
-82.0606
0
LINE
8
BLACK
6
CONTINUOUS
10
77.3201
20
-82.0606
11
77.3311
21
-82.0597
0
LINE
8
BLACK
6
CONTINUOUS
10
77.3311
20
-82.0597
11
77.6806
21
-82.0444
0
LINE
8
BLACK
6
CONTINUOUS
10
77.6806
20
-82.0444
11
77.7054
21
-82.0458
0
LINE
8
BLACK
6
CONTINUOUS
10
77.7054
20
-82.0458
11
77.7177
21
-82.0477
0
LINE
8
BLACK
6
CONTINUOUS
10
77.7177
20
-82.0477
11
77.7266
21
-82.0465
0
LINE
8
BLACK
6
CONTINUOUS
10
77.7266
20
-82.0465
11
77.7266
21
-82.0465
0
LINE
8
BLACK
6
CONTINUOUS
10
77.7266
20
-82.0465
11
77.7454
21
-82.0441
0
LINE
8
BLACK
6
CONTINUOUS
10
77.7454
20
-82.0441
11
77.7493
21
-82.0436
0
LINE
8
BLACK
6
CONTINUOUS
10
77.7493
20
-82.0436
11
77.7656
21
-82.0425
0
LINE
8
BLACK
6
CONTINUOUS
10
77.7656
20
-82.0425
11
204.675
21
-82.0425
0
LINE
8
BLACK
6
CONTINUOUS
10
204.675
20
-82.0425
11
204.694
21
-82.044
0
LINE
8
BLACK
6
CONTINUOUS
10
204.694
20
-82.044
11
204.709
21
-82.0463
0
LINE
8
BLACK
6
CONTINUOUS
10
204.709
20
-82.0463
11
204.709
21
-82.0463
0
LINE
8
BLACK
6
CONTINUOUS
10
204.709
20
-82.0463
11
204.718
21
-82.0477
0
LINE
8
BLACK
6
CONTINUOUS
10
204.718
20
-82.0477
11
204.738
21
-82.045
0
LINE
8
BLACK
6
CONTINUOUS
10
204.738
20
-82.045
11
204.76
21
-82.0441
0
LINE
8
BLACK
6
CONTINUOUS
10
204.76
20
-82.0441
11
205.117
21
-82.0597
0
LINE
8
BLACK
6
CONTINUOUS
10
205.117
20
-82.0597
11
205.128
21
-82.0606
0
LINE
8
BLACK
6
CONTINUOUS
10
205.128
20
-82.0606
11
205.512
21
-82.1112
0
LINE
8
BLACK
6
CONTINUOUS
10
205.512
20
-82.1112
11
205.523
21
-82.1131
0
LINE
8
BLACK
6
CONTINUOUS
10
205.523
20
-82.1131
11
205.902
21
-82.1971
0
LINE
8
BLACK
6
CONTINUOUS
10
205.902
20
-82.1971
11
205.912
21
-82.1999
0
LINE
8
BLACK
6
CONTINUOUS
10
205.912
20
-82.1999
11
206.083
21
-82.2536
0
LINE
8
BLACK
6
CONTINUOUS
10
206.083
20
-82.2536
11
206.282
21
-82.3165
0
LINE
8
BLACK
6
CONTINUOUS
10
206.282
20
-82.3165
11
206.293
21
-82.3203
0
LINE
8
BLACK
6
CONTINUOUS
10
206.293
20
-82.3203
11
206.651
21
-82.4687
0
LINE
8
BLACK
6
CONTINUOUS
10
206.651
20
-82.4687
11
206.661
21
-82.4734
0
LINE
8
BLACK
6
CONTINUOUS
10
206.661
20
-82.4734
11
207.005
21
-82.6524
0
LINE
8
BLACK
6
CONTINUOUS
10
207.005
20
-82.6524
11
207.014
21
-82.6579
0
LINE
8
BLACK
6
CONTINUOUS
10
207.014
20
-82.6579
11
207.341
21
-82.8663
0
LINE
8
BLACK
6
CONTINUOUS
10
207.341
20
-82.8663
11
207.35
21
-82.8726
0
LINE
8
BLACK
6
CONTINUOUS
10
207.35
20
-82.8726
11
207.658
21
-83.1087
0
LINE
8
BLACK
6
CONTINUOUS
10
207.658
20
-83.1087
11
207.667
21
-83.1157
0
LINE
8
BLACK
6
CONTINUOUS
10
207.667
20
-83.1157
11
207.952
21
-83.3777
0
LINE
8
BLACK
6
CONTINUOUS
10
207.952
20
-83.3777
11
207.96
21
-83.3855
0
LINE
8
BLACK
6
CONTINUOUS
10
207.96
20
-83.3855
11
208.222
21
-83.6714
0
LINE
8
BLACK
6
CONTINUOUS
10
208.222
20
-83.6714
11
208.229
21
-83.6799
0
LINE
8
BLACK
6
CONTINUOUS
10
208.229
20
-83.6799
11
208.465
21
-83.9875
0
LINE
8
BLACK
6
CONTINUOUS
10
208.465
20
-83.9875
11
208.472
21
-83.9965
0
LINE
8
BLACK
6
CONTINUOUS
10
208.472
20
-83.9965
11
208.68
21
-84.3236
0
LINE
8
BLACK
6
CONTINUOUS
10
208.68
20
-84.3236
11
208.686
21
-84.3331
0
LINE
8
BLACK
6
CONTINUOUS
10
208.686
20
-84.3331
11
208.865
21
-84.6771
0
LINE
8
BLACK
6
CONTINUOUS
10
208.865
20
-84.6771
11
208.869
21
-84.6871
0
LINE
8
BLACK
6
CONTINUOUS
10
208.869
20
-84.6871
11
209.018
21
-85.0454
0
LINE
8
BLACK
6
CONTINUOUS
10
209.018
20
-85.0454
11
209.021
21
-85.0557
0
LINE
8
BLACK
6
CONTINUOUS
10
209.021
20
-85.0557
11
209.138
21
-85.4256
0
LINE
8
BLACK
6
CONTINUOUS
10
209.138
20
-85.4256
11
209.141
21
-85.4362
0
LINE
8
BLACK
6
CONTINUOUS
10
209.141
20
-85.4362
11
209.225
21
-85.8148
0
LINE
8
BLACK
6
CONTINUOUS
10
209.225
20
-85.8148
11
209.227
21
-85.8256
0
LINE
8
BLACK
6
CONTINUOUS
10
209.227
20
-85.8256
11
209.277
21
-86.2101
0
LINE
8
BLACK
6
CONTINUOUS
10
209.277
20
-86.2101
11
209.278
21
-86.2211
0
LINE
8
BLACK
6
CONTINUOUS
10
209.278
20
-86.2211
11
209.294
21
-86.5706
0
LINE
8
BLACK
6
CONTINUOUS
10
209.294
20
-86.5706
11
209.292
21
-86.5954
0
LINE
8
BLACK
6
CONTINUOUS
10
209.292
20
-86.5954
11
209.29
21
-86.6077
0
LINE
8
BLACK
6
CONTINUOUS
10
209.29
20
-86.6077
11
209.291
21
-86.6166
0
LINE
8
BLACK
6
CONTINUOUS
10
209.291
20
-86.6166
11
209.291
21
-86.6166
0
LINE
8
BLACK
6
CONTINUOUS
10
209.291
20
-86.6166
11
209.294
21
-86.6393
0
LINE
8
BLACK
6
CONTINUOUS
10
209.294
20
-86.6393
11
209.296
21
-86.6556
0
LINE
8
BLACK
6
CONTINUOUS
10
209.296
20
-86.6556
11
209.296
21
-106.631
0
LINE
8
BLACK
6
CONTINUOUS
10
209.296
20
-106.631
11
209.294
21
-106.65
0
LINE
8
BLACK
6
CONTINUOUS
10
209.294
20
-106.65
11
209.292
21
-106.665
0
LINE
8
BLACK
6
CONTINUOUS
10
209.292
20
-106.665
11
209.292
21
-106.665
0
LINE
8
BLACK
6
CONTINUOUS
10
209.292
20
-106.665
11
209.29
21
-106.674
0
LINE
8
BLACK
6
CONTINUOUS
10
209.29
20
-106.674
11
209.293
21
-106.694
0
LINE
8
BLACK
6
CONTINUOUS
10
209.293
20
-106.694
11
209.294
21
-106.716
0
LINE
8
BLACK
6
CONTINUOUS
10
209.294
20
-106.716
11
209.281
21
-107.014
0
LINE
8
BLACK
6
CONTINUOUS
10
209.281
20
-107.014
11
209.278
21
-107.073
0
LINE
8
BLACK
6
CONTINUOUS
10
209.278
20
-107.073
11
209.277
21
-107.084
0
LINE
8
BLACK
6
CONTINUOUS
10
209.277
20
-107.084
11
209.227
21
-107.468
0
LINE
8
BLACK
6
CONTINUOUS
10
209.227
20
-107.468
11
209.225
21
-107.479
0
LINE
8
BLACK
6
CONTINUOUS
10
209.225
20
-107.479
11
209.141
21
-107.858
0
LINE
8
BLACK
6
CONTINUOUS
10
209.141
20
-107.858
11
209.138
21
-107.868
0
LINE
8
BLACK
6
CONTINUOUS
10
209.138
20
-107.868
11
209.084
21
-108.039
0
LINE
8
BLACK
6
CONTINUOUS
10
209.084
20
-108.039
11
209.057
21
-108.127
0
LINE
8
BLACK
6
CONTINUOUS
10
209.057
20
-108.127
11
209.021
21
-108.238
0
LINE
8
BLACK
6
CONTINUOUS
10
209.021
20
-108.238
11
209.018
21
-108.249
0
LINE
8
BLACK
6
CONTINUOUS
10
209.018
20
-108.249
11
208.932
21
-108.455
0
LINE
8
BLACK
6
CONTINUOUS
10
208.932
20
-108.455
11
208.869
21
-108.607
0
LINE
8
BLACK
6
CONTINUOUS
10
208.869
20
-108.607
11
208.865
21
-108.617
0
LINE
8
BLACK
6
CONTINUOUS
10
208.865
20
-108.617
11
208.73
21
-108.875
0
LINE
8
BLACK
6
CONTINUOUS
10
208.73
20
-108.875
11
208.686
21
-108.961
0
LINE
8
BLACK
6
CONTINUOUS
10
208.686
20
-108.961
11
208.68
21
-108.97
0
LINE
8
BLACK
6
CONTINUOUS
10
208.68
20
-108.97
11
208.472
21
-109.297
0
LINE
8
BLACK
6
CONTINUOUS
10
208.472
20
-109.297
11
208.465
21
-109.306
0
LINE
8
BLACK
6
CONTINUOUS
10
208.465
20
-109.306
11
208.229
21
-109.614
0
LINE
8
BLACK
6
CONTINUOUS
10
208.229
20
-109.614
11
208.222
21
-109.623
0
LINE
8
BLACK
6
CONTINUOUS
10
208.222
20
-109.623
11
207.96
21
-109.908
0
LINE
8
BLACK
6
CONTINUOUS
10
207.96
20
-109.908
11
207.952
21
-109.916
0
LINE
8
BLACK
6
CONTINUOUS
10
207.952
20
-109.916
11
207.667
21
-110.178
0
LINE
8
BLACK
6
CONTINUOUS
10
207.667
20
-110.178
11
207.658
21
-110.185
0
LINE
8
BLACK
6
CONTINUOUS
10
207.658
20
-110.185
11
207.35
21
-110.421
0
LINE
8
BLACK
6
CONTINUOUS
10
207.35
20
-110.421
11
207.341
21
-110.428
0
LINE
8
BLACK
6
CONTINUOUS
10
207.341
20
-110.428
11
207.014
21
-110.636
0
LINE
8
BLACK
6
CONTINUOUS
10
207.014
20
-110.636
11
207.005
21
-110.642
0
LINE
8
BLACK
6
CONTINUOUS
10
207.005
20
-110.642
11
206.661
21
-110.821
0
LINE
8
BLACK
6
CONTINUOUS
10
206.661
20
-110.821
11
206.651
21
-110.825
0
LINE
8
BLACK
6
CONTINUOUS
10
206.651
20
-110.825
11
206.293
21
-110.974
0
LINE
8
BLACK
6
CONTINUOUS
10
206.293
20
-110.974
11
206.282
21
-110.977
0
LINE
8
BLACK
6
CONTINUOUS
10
206.282
20
-110.977
11
206.083
21
-111.04
0
LINE
8
BLACK
6
CONTINUOUS
10
206.083
20
-111.04
11
205.912
21
-111.094
0
LINE
8
BLACK
6
CONTINUOUS
10
205.912
20
-111.094
11
205.902
21
-111.097
0
LINE
8
BLACK
6
CONTINUOUS
10
205.902
20
-111.097
11
205.523
21
-111.181
0
LINE
8
BLACK
6
CONTINUOUS
10
205.523
20
-111.181
11
205.512
21
-111.183
0
LINE
8
BLACK
6
CONTINUOUS
10
205.512
20
-111.183
11
205.128
21
-111.233
0
LINE
8
BLACK
6
CONTINUOUS
10
205.128
20
-111.233
11
205.117
21
-111.234
0
LINE
8
BLACK
6
CONTINUOUS
10
205.117
20
-111.234
11
204.767
21
-111.25
0
LINE
8
BLACK
6
CONTINUOUS
10
204.767
20
-111.25
11
204.743
21
-111.248
0
LINE
8
BLACK
6
CONTINUOUS
10
204.743
20
-111.248
11
204.73
21
-111.246
0
LINE
8
BLACK
6
CONTINUOUS
10
204.73
20
-111.246
11
204.721
21
-111.247
0
LINE
8
BLACK
6
CONTINUOUS
10
204.721
20
-111.247
11
204.721
21
-111.247
0
LINE
8
BLACK
6
CONTINUOUS
10
204.721
20
-111.247
11
204.706
21
-111.249
0
LINE
8
BLACK
6
CONTINUOUS
10
204.706
20
-111.249
11
204.699
21
-111.25
0
LINE
8
BLACK
6
CONTINUOUS
10
204.699
20
-111.25
11
204.682
21
-111.251
0
LINE
8
BLACK
6
CONTINUOUS
10
204.682
20
-111.251
11
77.7734
21
-111.251
0
LINE
8
BLACK
6
CONTINUOUS
10
77.7734
20
-111.251
11
77.754
21
-111.25
0
LINE
8
BLACK
6
CONTINUOUS
10
77.754
20
-111.25
11
77.7391
21
-111.248
0
LINE
8
BLACK
6
CONTINUOUS
10
77.7391
20
-111.248
11
77.7391
21
-111.248
0
LINE
8
BLACK
6
CONTINUOUS
10
77.7391
20
-111.248
11
77.7303
21
-111.246
0
LINE
8
BLACK
6
CONTINUOUS
10
77.7303
20
-111.246
11
77.7098
21
-111.249
0
LINE
8
BLACK
6
CONTINUOUS
10
77.7098
20
-111.249
11
77.688
21
-111.25
0
LINE
8
BLACK
6
CONTINUOUS
10
77.688
20
-111.25
11
77.3311
21
-111.234
0
LINE
8
BLACK
6
CONTINUOUS
10
77.3311
20
-111.234
11
77.3201
21
-111.233
0
LINE
8
BLACK
6
CONTINUOUS
10
77.3201
20
-111.233
11
76.9356
21
-111.183
0
LINE
8
BLACK
6
CONTINUOUS
10
76.9356
20
-111.183
11
76.9248
21
-111.181
0
LINE
8
BLACK
6
CONTINUOUS
10
76.9248
20
-111.181
11
76.5462
21
-111.097
0
LINE
8
BLACK
6
CONTINUOUS
10
76.5462
20
-111.097
11
76.5356
21
-111.094
0
LINE
8
BLACK
6
CONTINUOUS
10
76.5356
20
-111.094
11
76.3653
21
-111.04
0
LINE
8
BLACK
6
CONTINUOUS
10
76.3653
20
-111.04
11
76.1657
21
-110.977
0
LINE
8
BLACK
6
CONTINUOUS
10
76.1657
20
-110.977
11
76.1554
21
-110.974
0
LINE
8
BLACK
6
CONTINUOUS
10
76.1554
20
-110.974
11
75.7971
21
-110.825
0
LINE
8
BLACK
6
CONTINUOUS
10
75.7971
20
-110.825
11
75.7871
21
-110.821
0
LINE
8
BLACK
6
CONTINUOUS
10
75.7871
20
-110.821
11
75.4431
21
-110.642
0
LINE
8
BLACK
6
CONTINUOUS
10
75.4431
20
-110.642
11
75.4336
21
-110.636
0
LINE
8
BLACK
6
CONTINUOUS
10
75.4336
20
-110.636
11
75.1065
21
-110.428
0
LINE
8
BLACK
6
CONTINUOUS
10
75.1065
20
-110.428
11
75.0975
21
-110.421
0
LINE
8
BLACK
6
CONTINUOUS
10
75.0975
20
-110.421
11
74.7899
21
-110.185
0
LINE
8
BLACK
6
CONTINUOUS
10
74.7899
20
-110.185
11
74.7814
21
-110.178
0
LINE
8
BLACK
6
CONTINUOUS
10
74.7814
20
-110.178
11
74.4955
21
-109.916
0
LINE
8
BLACK
6
CONTINUOUS
10
74.4955
20
-109.916
11
74.4877
21
-109.908
0
LINE
8
BLACK
6
CONTINUOUS
10
74.4877
20
-109.908
11
74.2257
21
-109.623
0
LINE
8
BLACK
6
CONTINUOUS
10
74.2257
20
-109.623
11
74.2187
21
-109.614
0
LINE
8
BLACK
6
CONTINUOUS
10
74.2187
20
-109.614
11
73.9826
21
-109.306
0
LINE
8
BLACK
6
CONTINUOUS
10
73.9826
20
-109.306
11
73.9763
21
-109.297
0
LINE
8
BLACK
6
CONTINUOUS
10
73.9763
20
-109.297
11
73.7679
21
-108.97
0
LINE
8
BLACK
6
CONTINUOUS
10
73.7679
20
-108.97
11
73.7624
21
-108.961
0
LINE
8
BLACK
6
CONTINUOUS
10
73.7624
20
-108.961
11
73.7178
21
-108.875
0
LINE
8
BLACK
6
CONTINUOUS
10
73.7178
20
-108.875
11
73.6886
21
-108.819
0
LINE
8
BLACK
6
CONTINUOUS
10
73.6886
20
-108.819
11
73.5834
21
-108.617
0
LINE
8
BLACK
6
CONTINUOUS
10
73.5834
20
-108.617
11
73.5787
21
-108.607
0
LINE
8
BLACK
6
CONTINUOUS
10
158.72
20
-108.875
11
158.731
21
-108.88
0
LINE
8
BLACK
6
CONTINUOUS
10
158.731
20
-108.88
11
158.908
21
-108.937
0
LINE
8
BLACK
6
CONTINUOUS
10
158.908
20
-108.937
11
158.92
21
-108.94
0
LINE
8
BLACK
6
CONTINUOUS
10
158.92
20
-108.94
11
159.104
21
-108.962
0
LINE
8
BLACK
6
CONTINUOUS
10
159.104
20
-108.962
11
159.116
21
-108.962
0
LINE
8
BLACK
6
CONTINUOUS
10
159.116
20
-108.962
11
159.301
21
-108.948
0
LINE
8
BLACK
6
CONTINUOUS
10
159.301
20
-108.948
11
159.313
21
-108.946
0
LINE
8
BLACK
6
CONTINUOUS
10
159.313
20
-108.946
11
159.491
21
-108.896
0
LINE
8
BLACK
6
CONTINUOUS
10
159.491
20
-108.896
11
159.503
21
-108.892
0
LINE
8
BLACK
6
CONTINUOUS
10
159.503
20
-108.892
11
159.627
21
-108.829
0
LINE
8
BLACK
6
CONTINUOUS
10
159.627
20
-108.829
11
159.637
21
-108.819
0
LINE
8
BLACK
6
CONTINUOUS
10
159.637
20
-108.819
11
159.635
21
-108.813
0
LINE
8
BLACK
6
CONTINUOUS
10
159.635
20
-108.813
11
159.252
21
-108.43
0
LINE
8
BLACK
6
CONTINUOUS
10
159.252
20
-108.43
11
159.193
21
-108.446
0
LINE
8
BLACK
6
CONTINUOUS
10
159.193
20
-108.446
11
159.051
21
-108.444
0
LINE
8
BLACK
6
CONTINUOUS
10
159.051
20
-108.444
11
159.01
21
-108.431
0
LINE
8
BLACK
6
CONTINUOUS
10
159.01
20
-108.431
11
158.633
21
-108.807
0
LINE
8
BLACK
6
CONTINUOUS
10
158.633
20
-108.807
11
158.627
21
-108.819
0
LINE
8
BLACK
6
CONTINUOUS
10
158.627
20
-108.819
11
158.632
21
-108.826
0
LINE
8
BLACK
6
CONTINUOUS
10
158.632
20
-108.826
11
158.72
21
-108.875
0
LINE
8
BLACK
6
CONTINUOUS
10
159.993
20
-107.448
11
159.613
21
-107.827
0
LINE
8
BLACK
6
CONTINUOUS
10
159.613
20
-107.827
11
159.631
21
-107.95
0
LINE
8
BLACK
6
CONTINUOUS
10
159.631
20
-107.95
11
159.631
21
-107.962
0
LINE
8
BLACK
6
CONTINUOUS
10
159.631
20
-107.962
11
159.612
21
-108.072
0
LINE
8
BLACK
6
CONTINUOUS
10
159.612
20
-108.072
11
159.988
21
-108.447
0
LINE
8
BLACK
6
CONTINUOUS
10
159.988
20
-108.447
11
160
21
-108.454
0
LINE
8
BLACK
6
CONTINUOUS
10
160
20
-108.454
11
160.007
21
-108.449
0
LINE
8
BLACK
6
CONTINUOUS
10
160.007
20
-108.449
11
160.053
21
-108.367
0
LINE
8
BLACK
6
CONTINUOUS
10
160.053
20
-108.367
11
160.058
21
-108.356
0
LINE
8
BLACK
6
CONTINUOUS
10
160.058
20
-108.356
11
160.117
21
-108.18
0
LINE
8
BLACK
6
CONTINUOUS
10
160.117
20
-108.18
11
160.119
21
-108.168
0
LINE
8
BLACK
6
CONTINUOUS
10
160.119
20
-108.168
11
160.143
21
-107.982
0
LINE
8
BLACK
6
CONTINUOUS
10
160.143
20
-107.982
11
160.144
21
-107.975
0
LINE
8
BLACK
6
CONTINUOUS
10
160.144
20
-107.975
11
160.144
21
-107.954
0
LINE
8
BLACK
6
CONTINUOUS
10
160.144
20
-107.954
11
160.144
21
-107.946
0
LINE
8
BLACK
6
CONTINUOUS
10
160.144
20
-107.946
11
160.125
21
-107.759
0
LINE
8
BLACK
6
CONTINUOUS
10
160.125
20
-107.759
11
160.123
21
-107.747
0
LINE
8
BLACK
6
CONTINUOUS
10
160.123
20
-107.747
11
160.069
21
-107.57
0
LINE
8
BLACK
6
CONTINUOUS
10
160.069
20
-107.57
11
160.065
21
-107.559
0
LINE
8
BLACK
6
CONTINUOUS
10
160.065
20
-107.559
11
160.01
21
-107.455
0
LINE
8
BLACK
6
CONTINUOUS
10
160.01
20
-107.455
11
160
21
-107.445
0
LINE
8
BLACK
6
CONTINUOUS
10
160
20
-107.445
11
159.993
21
-107.448
0
LINE
8
BLACK
6
CONTINUOUS
10
158.136
20
-108.139
11
158.188
21
-108.317
0
LINE
8
BLACK
6
CONTINUOUS
10
158.188
20
-108.317
11
158.192
21
-108.328
0
LINE
8
BLACK
6
CONTINUOUS
10
158.192
20
-108.328
11
158.252
21
-108.445
0
LINE
8
BLACK
6
CONTINUOUS
10
158.252
20
-108.445
11
158.262
21
-108.455
0
LINE
8
BLACK
6
CONTINUOUS
10
158.262
20
-108.455
11
158.269
21
-108.453
0
LINE
8
BLACK
6
CONTINUOUS
10
158.269
20
-108.453
11
158.648
21
-108.074
0
LINE
8
BLACK
6
CONTINUOUS
10
158.648
20
-108.074
11
158.631
21
-107.944
0
LINE
8
BLACK
6
CONTINUOUS
10
158.631
20
-107.944
11
158.649
21
-107.827
0
LINE
8
BLACK
6
CONTINUOUS
10
158.649
20
-107.827
11
158.274
21
-107.452
0
LINE
8
BLACK
6
CONTINUOUS
10
158.274
20
-107.452
11
158.262
21
-107.446
0
LINE
8
BLACK
6
CONTINUOUS
10
158.262
20
-107.446
11
158.255
21
-107.45
0
LINE
8
BLACK
6
CONTINUOUS
10
158.255
20
-107.45
11
158.203
21
-107.546
0
LINE
8
BLACK
6
CONTINUOUS
10
158.203
20
-107.546
11
158.198
21
-107.557
0
LINE
8
BLACK
6
CONTINUOUS
10
158.198
20
-107.557
11
158.142
21
-107.734
0
LINE
8
BLACK
6
CONTINUOUS
10
158.142
20
-107.734
11
158.14
21
-107.746
0
LINE
8
BLACK
6
CONTINUOUS
10
158.14
20
-107.746
11
158.119
21
-107.93
0
LINE
8
BLACK
6
CONTINUOUS
10
158.119
20
-107.93
11
158.119
21
-107.942
0
LINE
8
BLACK
6
CONTINUOUS
10
158.119
20
-107.942
11
158.134
21
-108.127
0
LINE
8
BLACK
6
CONTINUOUS
10
158.134
20
-108.127
11
158.136
21
-108.139
0
LINE
8
BLACK
6
CONTINUOUS
10
159.01
20
-107.47
11
159.063
21
-107.455
0
LINE
8
BLACK
6
CONTINUOUS
10
159.063
20
-107.455
11
159.205
21
-107.455
0
LINE
8
BLACK
6
CONTINUOUS
10
159.205
20
-107.455
11
159.252
21
-107.47
0
LINE
8
BLACK
6
CONTINUOUS
10
159.252
20
-107.47
11
159.629
21
-107.093
0
LINE
8
BLACK
6
CONTINUOUS
10
159.629
20
-107.093
11
159.636
21
-107.081
0
LINE
8
BLACK
6
CONTINUOUS
10
159.636
20
-107.081
11
159.631
21
-107.074
0
LINE
8
BLACK
6
CONTINUOUS
10
159.631
20
-107.074
11
159.529
21
-107.019
0
LINE
8
BLACK
6
CONTINUOUS
10
159.529
20
-107.019
11
159.518
21
-107.014
0
LINE
8
BLACK
6
CONTINUOUS
10
159.518
20
-107.014
11
159.341
21
-106.96
0
LINE
8
BLACK
6
CONTINUOUS
10
159.341
20
-106.96
11
159.329
21
-106.957
0
LINE
8
BLACK
6
CONTINUOUS
10
159.329
20
-106.957
11
159.144
21
-106.938
0
LINE
8
BLACK
6
CONTINUOUS
10
159.144
20
-106.938
11
159.132
21
-106.938
0
LINE
8
BLACK
6
CONTINUOUS
10
159.132
20
-106.938
11
158.947
21
-106.955
0
LINE
8
BLACK
6
CONTINUOUS
10
158.947
20
-106.955
11
158.935
21
-106.957
0
LINE
8
BLACK
6
CONTINUOUS
10
158.935
20
-106.957
11
158.757
21
-107.009
0
LINE
8
BLACK
6
CONTINUOUS
10
158.757
20
-107.009
11
158.746
21
-107.014
0
LINE
8
BLACK
6
CONTINUOUS
10
158.746
20
-107.014
11
158.636
21
-107.071
0
LINE
8
BLACK
6
CONTINUOUS
10
158.636
20
-107.071
11
158.626
21
-107.081
0
LINE
8
BLACK
6
CONTINUOUS
10
158.626
20
-107.081
11
158.628
21
-107.088
0
LINE
8
BLACK
6
CONTINUOUS
10
158.628
20
-107.088
11
159.01
21
-107.47
0
LINE
8
BLACK
6
CONTINUOUS
10
191.342
20
-96.7535
11
191.348
21
-96.8321
0
LINE
8
BLACK
6
CONTINUOUS
10
191.348
20
-96.8321
11
191.38
21
-97.211
0
LINE
8
BLACK
6
CONTINUOUS
10
191.38
20
-97.211
11
191.38
21
-97.2136
0
LINE
8
BLACK
6
CONTINUOUS
10
191.38
20
-97.2136
11
191.419
21
-97.442
0
LINE
8
BLACK
6
CONTINUOUS
10
191.419
20
-97.442
11
191.457
21
-97.6663
0
LINE
8
BLACK
6
CONTINUOUS
10
191.457
20
-97.6663
11
191.458
21
-97.6689
0
LINE
8
BLACK
6
CONTINUOUS
10
191.458
20
-97.6689
11
191.562
21
-98.0746
0
LINE
8
BLACK
6
CONTINUOUS
10
191.562
20
-98.0746
11
191.572
21
-98.1136
0
LINE
8
BLACK
6
CONTINUOUS
10
191.572
20
-98.1136
11
191.724
21
-98.5496
0
LINE
8
BLACK
6
CONTINUOUS
10
191.724
20
-98.5496
11
191.912
21
-98.9715
0
LINE
8
BLACK
6
CONTINUOUS
10
191.912
20
-98.9715
11
192.134
21
-99.3761
0
LINE
8
BLACK
6
CONTINUOUS
10
192.134
20
-99.3761
11
192.135
21
-99.3783
0
LINE
8
BLACK
6
CONTINUOUS
10
192.135
20
-99.3783
11
192.135
21
-99.3783
0
LINE
8
BLACK
6
CONTINUOUS
10
192.135
20
-99.3783
11
192.264
21
-99.5717
0
LINE
8
BLACK
6
CONTINUOUS
10
192.264
20
-99.5717
11
192.39
21
-99.7607
0
LINE
8
BLACK
6
CONTINUOUS
10
192.39
20
-99.7607
11
192.505
21
-99.9061
0
LINE
8
BLACK
6
CONTINUOUS
10
192.505
20
-99.9061
11
192.662
21
-100.104
0
LINE
8
BLACK
6
CONTINUOUS
10
192.662
20
-100.104
11
192.676
21
-100.123
0
LINE
8
BLACK
6
CONTINUOUS
10
192.676
20
-100.123
11
192.678
21
-100.125
0
LINE
8
BLACK
6
CONTINUOUS
10
192.678
20
-100.125
11
192.678
21
-100.125
0
LINE
8
BLACK
6
CONTINUOUS
10
192.678
20
-100.125
11
192.811
21
-100.266
0
LINE
8
BLACK
6
CONTINUOUS
10
192.811
20
-100.266
11
192.992
21
-100.459
0
LINE
8
BLACK
6
CONTINUOUS
10
192.992
20
-100.459
11
193.336
21
-100.768
0
LINE
8
BLACK
6
CONTINUOUS
10
193.336
20
-100.768
11
193.703
21
-101.047
0
LINE
8
BLACK
6
CONTINUOUS
10
193.703
20
-101.047
11
193.706
21
-101.049
0
LINE
8
BLACK
6
CONTINUOUS
10
193.706
20
-101.049
11
193.706
21
-101.049
0
LINE
8
BLACK
6
CONTINUOUS
10
193.706
20
-101.049
11
194.028
21
-101.253
0
LINE
8
BLACK
6
CONTINUOUS
10
194.028
20
-101.253
11
194.093
21
-101.295
0
LINE
8
BLACK
6
CONTINUOUS
10
194.093
20
-101.295
11
194.096
21
-101.296
0
LINE
8
BLACK
6
CONTINUOUS
10
194.096
20
-101.296
11
194.096
21
-101.296
0
LINE
8
BLACK
6
CONTINUOUS
10
194.096
20
-101.296
11
194.5
21
-101.508
0
LINE
8
BLACK
6
CONTINUOUS
10
194.5
20
-101.508
11
194.5
21
-101.508
0
LINE
8
BLACK
6
CONTINUOUS
10
194.5
20
-101.508
11
194.502
21
-101.509
0
LINE
8
BLACK
6
CONTINUOUS
10
194.502
20
-101.509
11
194.928
21
-101.688
0
LINE
8
BLACK
6
CONTINUOUS
10
194.928
20
-101.688
11
194.931
21
-101.688
0
LINE
8
BLACK
6
CONTINUOUS
10
194.931
20
-101.688
11
194.931
21
-101.688
0
LINE
8
BLACK
6
CONTINUOUS
10
194.931
20
-101.688
11
195.365
21
-101.83
0
LINE
8
BLACK
6
CONTINUOUS
10
195.365
20
-101.83
11
195.365
21
-101.83
0
LINE
8
BLACK
6
CONTINUOUS
10
195.365
20
-101.83
11
195.367
21
-101.83
0
LINE
8
BLACK
6
CONTINUOUS
10
195.367
20
-101.83
11
195.689
21
-101.906
0
LINE
8
BLACK
6
CONTINUOUS
10
195.689
20
-101.906
11
195.814
21
-101.935
0
LINE
8
BLACK
6
CONTINUOUS
10
195.814
20
-101.935
11
195.814
21
-101.935
0
LINE
8
BLACK
6
CONTINUOUS
10
195.814
20
-101.935
11
195.817
21
-101.936
0
LINE
8
BLACK
6
CONTINUOUS
10
195.817
20
-101.936
11
195.819
21
-101.936
0
LINE
8
BLACK
6
CONTINUOUS
10
195.819
20
-101.936
11
195.819
21
-101.936
0
LINE
8
BLACK
6
CONTINUOUS
10
195.819
20
-101.936
11
196.271
21
-102.003
0
LINE
8
BLACK
6
CONTINUOUS
10
196.271
20
-102.003
11
196.271
21
-102.003
0
LINE
8
BLACK
6
CONTINUOUS
10
196.271
20
-102.003
11
196.274
21
-102.003
0
LINE
8
BLACK
6
CONTINUOUS
10
196.274
20
-102.003
11
196.735
21
-102.032
0
LINE
8
BLACK
6
CONTINUOUS
10
196.735
20
-102.032
11
196.737
21
-102.032
0
LINE
8
BLACK
6
CONTINUOUS
10
196.737
20
-102.032
11
196.737
21
-102.032
0
LINE
8
BLACK
6
CONTINUOUS
10
196.737
20
-102.032
11
196.913
21
-102.029
0
LINE
8
BLACK
6
CONTINUOUS
10
196.913
20
-102.029
11
197.196
21
-102.023
0
LINE
8
BLACK
6
CONTINUOUS
10
197.196
20
-102.023
11
197.655
21
-101.974
0
LINE
8
BLACK
6
CONTINUOUS
10
197.655
20
-101.974
11
198.109
21
-101.888
0
LINE
8
BLACK
6
CONTINUOUS
10
198.109
20
-101.888
11
198.112
21
-101.887
0
LINE
8
BLACK
6
CONTINUOUS
10
198.112
20
-101.887
11
198.112
21
-101.887
0
LINE
8
BLACK
6
CONTINUOUS
10
198.112
20
-101.887
11
198.551
21
-101.764
0
LINE
8
BLACK
6
CONTINUOUS
10
198.551
20
-101.764
11
198.551
21
-101.764
0
LINE
8
BLACK
6
CONTINUOUS
10
198.551
20
-101.764
11
198.554
21
-101.764
0
LINE
8
BLACK
6
CONTINUOUS
10
198.554
20
-101.764
11
198.83
21
-101.661
0
LINE
8
BLACK
6
CONTINUOUS
10
198.83
20
-101.661
11
198.984
21
-101.604
0
LINE
8
BLACK
6
CONTINUOUS
10
198.984
20
-101.604
11
198.984
21
-101.604
0
LINE
8
BLACK
6
CONTINUOUS
10
198.984
20
-101.604
11
198.987
21
-101.603
0
LINE
8
BLACK
6
CONTINUOUS
10
198.987
20
-101.603
11
199.404
21
-101.406
0
LINE
8
BLACK
6
CONTINUOUS
10
199.404
20
-101.406
11
199.804
21
-101.175
0
LINE
8
BLACK
6
CONTINUOUS
10
199.804
20
-101.175
11
200.183
21
-100.912
0
LINE
8
BLACK
6
CONTINUOUS
10
200.183
20
-100.912
11
200.539
21
-100.617
0
LINE
8
BLACK
6
CONTINUOUS
10
200.539
20
-100.617
11
200.83
21
-100.332
0
LINE
8
BLACK
6
CONTINUOUS
10
200.83
20
-100.332
11
200.867
21
-100.296
0
LINE
8
BLACK
6
CONTINUOUS
10
200.867
20
-100.296
11
200.867
21
-100.296
0
LINE
8
BLACK
6
CONTINUOUS
10
200.867
20
-100.296
11
200.869
21
-100.294
0
LINE
8
BLACK
6
CONTINUOUS
10
200.869
20
-100.294
11
201.171
21
-99.9447
0
LINE
8
BLACK
6
CONTINUOUS
10
201.171
20
-99.9447
11
201.442
21
-99.5711
0
LINE
8
BLACK
6
CONTINUOUS
10
201.442
20
-99.5711
11
201.478
21
-99.5128
0
LINE
8
BLACK
6
CONTINUOUS
10
201.478
20
-99.5128
11
201.6
21
-99.3099
0
LINE
8
BLACK
6
CONTINUOUS
10
201.6
20
-99.3099
11
201.681
21
-99.1761
0
LINE
8
BLACK
6
CONTINUOUS
10
201.681
20
-99.1761
11
201.887
21
-98.7625
0
LINE
8
BLACK
6
CONTINUOUS
10
201.887
20
-98.7625
11
202.057
21
-98.3332
0
LINE
8
BLACK
6
CONTINUOUS
10
202.057
20
-98.3332
11
202.19
21
-97.8911
0
LINE
8
BLACK
6
CONTINUOUS
10
202.19
20
-97.8911
11
202.238
21
-97.6663
0
LINE
8
BLACK
6
CONTINUOUS
10
202.238
20
-97.6663
11
202.286
21
-97.442
0
LINE
8
BLACK
6
CONTINUOUS
10
202.286
20
-97.442
11
202.286
21
-97.4395
0
LINE
8
BLACK
6
CONTINUOUS
10
202.286
20
-97.4395
11
202.344
21
-96.9814
0
LINE
8
BLACK
6
CONTINUOUS
10
202.344
20
-96.9814
11
202.363
21
-96.52
0
LINE
8
BLACK
6
CONTINUOUS
10
202.363
20
-96.52
11
202.361
21
-96.4632
0
LINE
8
BLACK
6
CONTINUOUS
10
202.361
20
-96.4632
11
202.344
21
-96.0613
0
LINE
8
BLACK
6
CONTINUOUS
10
202.344
20
-96.0613
11
202.344
21
-96.0613
0
LINE
8
BLACK
6
CONTINUOUS
10
202.344
20
-96.0613
11
202.344
21
-96.0586
0
LINE
8
BLACK
6
CONTINUOUS
10
202.344
20
-96.0586
11
202.286
21
-95.6005
0
LINE
8
BLACK
6
CONTINUOUS
10
202.286
20
-95.6005
11
202.239
21
-95.3763
0
LINE
8
BLACK
6
CONTINUOUS
10
202.239
20
-95.3763
11
202.191
21
-95.1514
0
LINE
8
BLACK
6
CONTINUOUS
10
202.191
20
-95.1514
11
202.191
21
-95.1514
0
LINE
8
BLACK
6
CONTINUOUS
10
202.191
20
-95.1514
11
202.19
21
-95.1489
0
LINE
8
BLACK
6
CONTINUOUS
10
202.19
20
-95.1489
11
202.057
21
-94.7068
0
LINE
8
BLACK
6
CONTINUOUS
10
202.057
20
-94.7068
11
201.887
21
-94.2775
0
LINE
8
BLACK
6
CONTINUOUS
10
201.887
20
-94.2775
11
201.681
21
-93.8639
0
LINE
8
BLACK
6
CONTINUOUS
10
201.681
20
-93.8639
11
201.506
21
-93.5739
0
LINE
8
BLACK
6
CONTINUOUS
10
201.506
20
-93.5739
11
201.444
21
-93.4711
0
LINE
8
BLACK
6
CONTINUOUS
10
201.444
20
-93.4711
11
201.444
21
-93.4711
0
LINE
8
BLACK
6
CONTINUOUS
10
201.444
20
-93.4711
11
201.442
21
-93.4689
0
LINE
8
BLACK
6
CONTINUOUS
10
201.442
20
-93.4689
11
201.171
21
-93.0953
0
LINE
8
BLACK
6
CONTINUOUS
10
201.171
20
-93.0953
11
200.869
21
-92.7458
0
LINE
8
BLACK
6
CONTINUOUS
10
200.869
20
-92.7458
11
200.539
21
-92.4227
0
LINE
8
BLACK
6
CONTINUOUS
10
200.539
20
-92.4227
11
200.183
21
-92.1284
0
LINE
8
BLACK
6
CONTINUOUS
10
200.183
20
-92.1284
11
199.804
21
-91.8648
0
LINE
8
BLACK
6
CONTINUOUS
10
199.804
20
-91.8648
11
199.404
21
-91.6339
0
LINE
8
BLACK
6
CONTINUOUS
10
199.404
20
-91.6339
11
198.987
21
-91.4373
0
LINE
8
BLACK
6
CONTINUOUS
10
198.987
20
-91.4373
11
198.984
21
-91.4364
0
LINE
8
BLACK
6
CONTINUOUS
10
198.984
20
-91.4364
11
198.984
21
-91.4364
0
LINE
8
BLACK
6
CONTINUOUS
10
198.984
20
-91.4364
11
198.756
21
-91.3515
0
LINE
8
BLACK
6
CONTINUOUS
10
198.756
20
-91.3515
11
198.554
21
-91.2764
0
LINE
8
BLACK
6
CONTINUOUS
10
198.554
20
-91.2764
11
198.551
21
-91.2757
0
LINE
8
BLACK
6
CONTINUOUS
10
198.551
20
-91.2757
11
198.551
21
-91.2757
0
LINE
8
BLACK
6
CONTINUOUS
10
198.551
20
-91.2757
11
198.112
21
-91.1529
0
LINE
8
BLACK
6
CONTINUOUS
10
198.112
20
-91.1529
11
198.112
21
-91.1529
0
LINE
8
BLACK
6
CONTINUOUS
10
198.112
20
-91.1529
11
198.109
21
-91.1522
0
LINE
8
BLACK
6
CONTINUOUS
10
198.109
20
-91.1522
11
197.655
21
-91.0657
0
LINE
8
BLACK
6
CONTINUOUS
10
197.655
20
-91.0657
11
197.196
21
-91.0174
0
LINE
8
BLACK
6
CONTINUOUS
10
197.196
20
-91.0174
11
196.913
21
-91.0115
0
LINE
8
BLACK
6
CONTINUOUS
10
196.913
20
-91.0115
11
196.737
21
-91.0078
0
LINE
8
BLACK
6
CONTINUOUS
10
196.737
20
-91.0078
11
196.737
21
-91.0078
0
LINE
8
BLACK
6
CONTINUOUS
10
196.737
20
-91.0078
11
196.735
21
-91.0077
0
LINE
8
BLACK
6
CONTINUOUS
10
196.735
20
-91.0077
11
196.274
21
-91.0367
0
LINE
8
BLACK
6
CONTINUOUS
10
196.274
20
-91.0367
11
196.271
21
-91.0371
0
LINE
8
BLACK
6
CONTINUOUS
10
196.271
20
-91.0371
11
196.271
21
-91.0371
0
LINE
8
BLACK
6
CONTINUOUS
10
196.271
20
-91.0371
11
195.819
21
-91.1038
0
LINE
8
BLACK
6
CONTINUOUS
10
195.819
20
-91.1038
11
195.819
21
-91.1038
0
LINE
8
BLACK
6
CONTINUOUS
10
195.819
20
-91.1038
11
195.817
21
-91.1042
0
LINE
8
BLACK
6
CONTINUOUS
10
195.817
20
-91.1042
11
195.814
21
-91.1048
0
LINE
8
BLACK
6
CONTINUOUS
10
195.814
20
-91.1048
11
195.814
21
-91.1048
0
LINE
8
BLACK
6
CONTINUOUS
10
195.814
20
-91.1048
11
195.766
21
-91.1161
0
LINE
8
BLACK
6
CONTINUOUS
10
195.766
20
-91.1161
11
195.367
21
-91.2096
0
LINE
8
BLACK
6
CONTINUOUS
10
195.367
20
-91.2096
11
195.365
21
-91.2104
0
LINE
8
BLACK
6
CONTINUOUS
10
195.365
20
-91.2104
11
195.365
21
-91.2105
0
LINE
8
BLACK
6
CONTINUOUS
10
195.365
20
-91.2105
11
195.164
21
-91.2757
0
LINE
8
BLACK
6
CONTINUOUS
10
195.164
20
-91.2757
11
194.928
21
-91.3523
0
LINE
8
BLACK
6
CONTINUOUS
10
194.928
20
-91.3523
11
194.502
21
-91.5313
0
LINE
8
BLACK
6
CONTINUOUS
10
194.502
20
-91.5313
11
194.5
21
-91.5325
0
LINE
8
BLACK
6
CONTINUOUS
10
194.5
20
-91.5325
11
194.5
21
-91.5325
0
LINE
8
BLACK
6
CONTINUOUS
10
194.5
20
-91.5325
11
194.096
21
-91.744
0
LINE
8
BLACK
6
CONTINUOUS
10
194.096
20
-91.744
11
194.096
21
-91.744
0
LINE
8
BLACK
6
CONTINUOUS
10
194.096
20
-91.744
11
194.093
21
-91.7452
0
LINE
8
BLACK
6
CONTINUOUS
10
194.093
20
-91.7452
11
194.041
21
-91.7786
0
LINE
8
BLACK
6
CONTINUOUS
10
194.041
20
-91.7786
11
193.706
21
-91.9912
0
LINE
8
BLACK
6
CONTINUOUS
10
193.706
20
-91.9912
11
193.706
21
-91.9912
0
LINE
8
BLACK
6
CONTINUOUS
10
193.706
20
-91.9912
11
193.703
21
-91.9926
0
LINE
8
BLACK
6
CONTINUOUS
10
193.703
20
-91.9926
11
193.336
21
-92.2718
0
LINE
8
BLACK
6
CONTINUOUS
10
193.336
20
-92.2718
11
192.992
21
-92.5808
0
LINE
8
BLACK
6
CONTINUOUS
10
192.992
20
-92.5808
11
192.991
21
-92.5827
0
LINE
8
BLACK
6
CONTINUOUS
10
192.991
20
-92.5827
11
192.991
21
-92.5827
0
LINE
8
BLACK
6
CONTINUOUS
10
192.991
20
-92.5827
11
192.809
21
-92.7765
0
LINE
8
BLACK
6
CONTINUOUS
10
192.809
20
-92.7765
11
192.676
21
-92.9174
0
LINE
8
BLACK
6
CONTINUOUS
10
192.676
20
-92.9174
11
192.675
21
-92.9195
0
LINE
8
BLACK
6
CONTINUOUS
10
192.675
20
-92.9195
11
192.675
21
-92.9195
0
LINE
8
BLACK
6
CONTINUOUS
10
192.675
20
-92.9195
11
192.591
21
-93.0252
0
LINE
8
BLACK
6
CONTINUOUS
10
192.591
20
-93.0252
11
192.39
21
-93.2793
0
LINE
8
BLACK
6
CONTINUOUS
10
192.39
20
-93.2793
11
192.388
21
-93.2815
0
LINE
8
BLACK
6
CONTINUOUS
10
192.388
20
-93.2815
11
192.145
21
-93.6477
0
LINE
8
BLACK
6
CONTINUOUS
10
192.145
20
-93.6477
11
192.134
21
-93.6639
0
LINE
8
BLACK
6
CONTINUOUS
10
192.134
20
-93.6639
11
191.912
21
-94.0685
0
LINE
8
BLACK
6
CONTINUOUS
10
191.912
20
-94.0685
11
191.724
21
-94.4904
0
LINE
8
BLACK
6
CONTINUOUS
10
191.724
20
-94.4904
11
191.572
21
-94.9264
0
LINE
8
BLACK
6
CONTINUOUS
10
191.572
20
-94.9264
11
191.571
21
-94.929
0
LINE
8
BLACK
6
CONTINUOUS
10
191.571
20
-94.929
11
191.571
21
-94.929
0
LINE
8
BLACK
6
CONTINUOUS
10
191.571
20
-94.929
11
191.534
21
-95.0725
0
LINE
8
BLACK
6
CONTINUOUS
10
191.534
20
-95.0725
11
191.457
21
-95.3737
0
LINE
8
BLACK
6
CONTINUOUS
10
191.457
20
-95.3737
11
191.457
21
-95.3763
0
LINE
8
BLACK
6
CONTINUOUS
10
191.457
20
-95.3763
11
191.457
21
-95.3763
0
LINE
8
BLACK
6
CONTINUOUS
10
191.457
20
-95.3763
11
191.399
21
-95.715
0
LINE
8
BLACK
6
CONTINUOUS
10
191.399
20
-95.715
11
191.38
21
-95.829
0
LINE
8
BLACK
6
CONTINUOUS
10
191.38
20
-95.829
11
191.341
21
-96.2891
0
LINE
8
BLACK
6
CONTINUOUS
10
191.341
20
-96.2891
11
191.341
21
-96.7509
0
LINE
8
BLACK
6
CONTINUOUS
10
191.341
20
-96.7509
11
191.342
21
-96.7535
0
LINE
8
BLACK
6
CONTINUOUS
10
191.342
20
-96.7535
11
191.342
21
-96.7535
0
LINE
8
BLACK
6
CONTINUOUS
10
184.581
20
-96.4632
11
184.564
21
-96.0613
0
LINE
8
BLACK
6
CONTINUOUS
10
184.564
20
-96.0613
11
184.564
21
-96.0613
0
LINE
8
BLACK
6
CONTINUOUS
10
184.564
20
-96.0613
11
184.564
21
-96.0586
0
LINE
8
BLACK
6
CONTINUOUS
10
184.564
20
-96.0586
11
184.506
21
-95.6005
0
LINE
8
BLACK
6
CONTINUOUS
10
184.506
20
-95.6005
11
184.459
21
-95.3763
0
LINE
8
BLACK
6
CONTINUOUS
10
184.459
20
-95.3763
11
184.411
21
-95.1514
0
LINE
8
BLACK
6
CONTINUOUS
10
184.411
20
-95.1514
11
184.411
21
-95.1514
0
LINE
8
BLACK
6
CONTINUOUS
10
184.411
20
-95.1514
11
184.41
21
-95.1489
0
LINE
8
BLACK
6
CONTINUOUS
10
184.41
20
-95.1489
11
184.277
21
-94.7068
0
LINE
8
BLACK
6
CONTINUOUS
10
184.277
20
-94.7068
11
184.107
21
-94.2775
0
LINE
8
BLACK
6
CONTINUOUS
10
184.107
20
-94.2775
11
183.901
21
-93.8639
0
LINE
8
BLACK
6
CONTINUOUS
10
183.901
20
-93.8639
11
183.726
21
-93.5739
0
LINE
8
BLACK
6
CONTINUOUS
10
183.726
20
-93.5739
11
183.664
21
-93.4711
0
LINE
8
BLACK
6
CONTINUOUS
10
183.664
20
-93.4711
11
183.664
21
-93.4711
0
LINE
8
BLACK
6
CONTINUOUS
10
183.664
20
-93.4711
11
183.662
21
-93.4689
0
LINE
8
BLACK
6
CONTINUOUS
10
183.662
20
-93.4689
11
183.391
21
-93.0953
0
LINE
8
BLACK
6
CONTINUOUS
10
183.391
20
-93.0953
11
183.089
21
-92.7458
0
LINE
8
BLACK
6
CONTINUOUS
10
183.089
20
-92.7458
11
182.759
21
-92.4227
0
LINE
8
BLACK
6
CONTINUOUS
10
182.759
20
-92.4227
11
182.403
21
-92.1284
0
LINE
8
BLACK
6
CONTINUOUS
10
182.403
20
-92.1284
11
182.024
21
-91.8648
0
LINE
8
BLACK
6
CONTINUOUS
10
182.024
20
-91.8648
11
181.624
21
-91.6339
0
LINE
8
BLACK
6
CONTINUOUS
10
181.624
20
-91.6339
11
181.207
21
-91.4373
0
LINE
8
BLACK
6
CONTINUOUS
10
181.207
20
-91.4373
11
181.204
21
-91.4364
0
LINE
8
BLACK
6
CONTINUOUS
10
181.204
20
-91.4364
11
181.204
21
-91.4364
0
LINE
8
BLACK
6
CONTINUOUS
10
181.204
20
-91.4364
11
180.976
21
-91.3515
0
LINE
8
BLACK
6
CONTINUOUS
10
180.976
20
-91.3515
11
180.774
21
-91.2764
0
LINE
8
BLACK
6
CONTINUOUS
10
180.774
20
-91.2764
11
180.771
21
-91.2757
0
LINE
8
BLACK
6
CONTINUOUS
10
180.771
20
-91.2757
11
180.771
21
-91.2757
0
LINE
8
BLACK
6
CONTINUOUS
10
180.771
20
-91.2757
11
180.332
21
-91.1529
0
LINE
8
BLACK
6
CONTINUOUS
10
180.332
20
-91.1529
11
180.332
21
-91.1529
0
LINE
8
BLACK
6
CONTINUOUS
10
180.332
20
-91.1529
11
180.329
21
-91.1522
0
LINE
8
BLACK
6
CONTINUOUS
10
180.329
20
-91.1522
11
179.875
21
-91.0657
0
LINE
8
BLACK
6
CONTINUOUS
10
179.875
20
-91.0657
11
179.416
21
-91.0174
0
LINE
8
BLACK
6
CONTINUOUS
10
179.416
20
-91.0174
11
179.133
21
-91.0115
0
LINE
8
BLACK
6
CONTINUOUS
10
179.133
20
-91.0115
11
178.957
21
-91.0078
0
LINE
8
BLACK
6
CONTINUOUS
10
178.957
20
-91.0078
11
178.957
21
-91.0078
0
LINE
8
BLACK
6
CONTINUOUS
10
178.957
20
-91.0078
11
178.955
21
-91.0077
0
LINE
8
BLACK
6
CONTINUOUS
10
178.955
20
-91.0077
11
178.494
21
-91.0367
0
LINE
8
BLACK
6
CONTINUOUS
10
178.494
20
-91.0367
11
178.491
21
-91.0371
0
LINE
8
BLACK
6
CONTINUOUS
10
178.491
20
-91.0371
11
178.491
21
-91.0371
0
LINE
8
BLACK
6
CONTINUOUS
10
178.491
20
-91.0371
11
178.039
21
-91.1038
0
LINE
8
BLACK
6
CONTINUOUS
10
178.039
20
-91.1038
11
178.039
21
-91.1038
0
LINE
8
BLACK
6
CONTINUOUS
10
178.039
20
-91.1038
11
178.037
21
-91.1042
0
LINE
8
BLACK
6
CONTINUOUS
10
178.037
20
-91.1042
11
178.034
21
-91.1048
0
LINE
8
BLACK
6
CONTINUOUS
10
178.034
20
-91.1048
11
178.034
21
-91.1048
0
LINE
8
BLACK
6
CONTINUOUS
10
178.034
20
-91.1048
11
177.986
21
-91.1161
0
LINE
8
BLACK
6
CONTINUOUS
10
177.986
20
-91.1161
11
177.587
21
-91.2096
0
LINE
8
BLACK
6
CONTINUOUS
10
177.587
20
-91.2096
11
177.585
21
-91.2104
0
LINE
8
BLACK
6
CONTINUOUS
10
177.585
20
-91.2104
11
177.585
21
-91.2105
0
LINE
8
BLACK
6
CONTINUOUS
10
177.585
20
-91.2105
11
177.384
21
-91.2757
0
LINE
8
BLACK
6
CONTINUOUS
10
177.384
20
-91.2757
11
177.148
21
-91.3523
0
LINE
8
BLACK
6
CONTINUOUS
10
177.148
20
-91.3523
11
176.722
21
-91.5313
0
LINE
8
BLACK
6
CONTINUOUS
10
176.722
20
-91.5313
11
176.72
21
-91.5325
0
LINE
8
BLACK
6
CONTINUOUS
10
176.72
20
-91.5325
11
176.72
21
-91.5325
0
LINE
8
BLACK
6
CONTINUOUS
10
176.72
20
-91.5325
11
176.316
21
-91.744
0
LINE
8
BLACK
6
CONTINUOUS
10
176.316
20
-91.744
11
176.316
21
-91.744
0
LINE
8
BLACK
6
CONTINUOUS
10
176.316
20
-91.744
11
176.313
21
-91.7452
0
LINE
8
BLACK
6
CONTINUOUS
10
176.313
20
-91.7452
11
176.261
21
-91.7786
0
LINE
8
BLACK
6
CONTINUOUS
10
176.261
20
-91.7786
11
175.926
21
-91.9912
0
LINE
8
BLACK
6
CONTINUOUS
10
175.926
20
-91.9912
11
175.926
21
-91.9912
0
LINE
8
BLACK
6
CONTINUOUS
10
175.926
20
-91.9912
11
175.923
21
-91.9926
0
LINE
8
BLACK
6
CONTINUOUS
10
175.923
20
-91.9926
11
175.556
21
-92.2718
0
LINE
8
BLACK
6
CONTINUOUS
10
175.556
20
-92.2718
11
175.212
21
-92.5808
0
LINE
8
BLACK
6
CONTINUOUS
10
175.212
20
-92.5808
11
175.211
21
-92.5827
0
LINE
8
BLACK
6
CONTINUOUS
10
175.211
20
-92.5827
11
175.211
21
-92.5827
0
LINE
8
BLACK
6
CONTINUOUS
10
175.211
20
-92.5827
11
175.029
21
-92.7765
0
LINE
8
BLACK
6
CONTINUOUS
10
175.029
20
-92.7765
11
174.896
21
-92.9174
0
LINE
8
BLACK
6
CONTINUOUS
10
174.896
20
-92.9174
11
174.895
21
-92.9195
0
LINE
8
BLACK
6
CONTINUOUS
10
174.895
20
-92.9195
11
174.895
21
-92.9195
0
LINE
8
BLACK
6
CONTINUOUS
10
174.895
20
-92.9195
11
174.811
21
-93.0252
0
LINE
8
BLACK
6
CONTINUOUS
10
174.811
20
-93.0252
11
174.61
21
-93.2793
0
LINE
8
BLACK
6
CONTINUOUS
10
174.61
20
-93.2793
11
174.608
21
-93.2815
0
LINE
8
BLACK
6
CONTINUOUS
10
174.608
20
-93.2815
11
174.365
21
-93.6477
0
LINE
8
BLACK
6
CONTINUOUS
10
174.365
20
-93.6477
11
174.354
21
-93.6639
0
LINE
8
BLACK
6
CONTINUOUS
10
174.354
20
-93.6639
11
174.132
21
-94.0685
0
LINE
8
BLACK
6
CONTINUOUS
10
174.132
20
-94.0685
11
173.944
21
-94.4904
0
LINE
8
BLACK
6
CONTINUOUS
10
173.944
20
-94.4904
11
173.792
21
-94.9264
0
LINE
8
BLACK
6
CONTINUOUS
10
173.792
20
-94.9264
11
173.791
21
-94.929
0
LINE
8
BLACK
6
CONTINUOUS
10
173.791
20
-94.929
11
173.791
21
-94.929
0
LINE
8
BLACK
6
CONTINUOUS
10
173.791
20
-94.929
11
173.754
21
-95.0725
0
LINE
8
BLACK
6
CONTINUOUS
10
173.754
20
-95.0725
11
173.677
21
-95.3737
0
LINE
8
BLACK
6
CONTINUOUS
10
173.677
20
-95.3737
11
173.677
21
-95.3763
0
LINE
8
BLACK
6
CONTINUOUS
10
173.677
20
-95.3763
11
173.677
21
-95.3763
0
LINE
8
BLACK
6
CONTINUOUS
10
173.677
20
-95.3763
11
173.619
21
-95.715
0
LINE
8
BLACK
6
CONTINUOUS
10
173.619
20
-95.715
11
173.6
21
-95.829
0
LINE
8
BLACK
6
CONTINUOUS
10
173.6
20
-95.829
11
173.561
21
-96.2891
0
LINE
8
BLACK
6
CONTINUOUS
10
173.561
20
-96.2891
11
173.561
21
-96.7509
0
LINE
8
BLACK
6
CONTINUOUS
10
173.561
20
-96.7509
11
173.562
21
-96.7535
0
LINE
8
BLACK
6
CONTINUOUS
10
173.562
20
-96.7535
11
173.562
21
-96.7535
0
LINE
8
BLACK
6
CONTINUOUS
10
173.562
20
-96.7535
11
173.568
21
-96.8321
0
LINE
8
BLACK
6
CONTINUOUS
10
173.568
20
-96.8321
11
173.6
21
-97.211
0
LINE
8
BLACK
6
CONTINUOUS
10
173.6
20
-97.211
11
173.6
21
-97.2136
0
LINE
8
BLACK
6
CONTINUOUS
10
173.6
20
-97.2136
11
173.639
21
-97.442
0
LINE
8
BLACK
6
CONTINUOUS
10
173.639
20
-97.442
11
173.677
21
-97.6663
0
LINE
8
BLACK
6
CONTINUOUS
10
173.677
20
-97.6663
11
173.678
21
-97.6689
0
LINE
8
BLACK
6
CONTINUOUS
10
173.678
20
-97.6689
11
173.782
21
-98.0746
0
LINE
8
BLACK
6
CONTINUOUS
10
173.782
20
-98.0746
11
173.792
21
-98.1136
0
LINE
8
BLACK
6
CONTINUOUS
10
173.792
20
-98.1136
11
173.944
21
-98.5496
0
LINE
8
BLACK
6
CONTINUOUS
10
173.944
20
-98.5496
11
174.132
21
-98.9715
0
LINE
8
BLACK
6
CONTINUOUS
10
174.132
20
-98.9715
11
174.354
21
-99.3761
0
LINE
8
BLACK
6
CONTINUOUS
10
174.354
20
-99.3761
11
174.355
21
-99.3783
0
LINE
8
BLACK
6
CONTINUOUS
10
174.355
20
-99.3783
11
174.355
21
-99.3783
0
LINE
8
BLACK
6
CONTINUOUS
10
174.355
20
-99.3783
11
174.484
21
-99.5717
0
LINE
8
BLACK
6
CONTINUOUS
10
174.484
20
-99.5717
11
174.61
21
-99.7607
0
LINE
8
BLACK
6
CONTINUOUS
10
174.61
20
-99.7607
11
174.725
21
-99.9061
0
LINE
8
BLACK
6
CONTINUOUS
10
174.725
20
-99.9061
11
174.882
21
-100.104
0
LINE
8
BLACK
6
CONTINUOUS
10
174.882
20
-100.104
11
174.896
21
-100.123
0
LINE
8
BLACK
6
CONTINUOUS
10
174.896
20
-100.123
11
174.898
21
-100.125
0
LINE
8
BLACK
6
CONTINUOUS
10
174.898
20
-100.125
11
174.898
21
-100.125
0
LINE
8
BLACK
6
CONTINUOUS
10
174.898
20
-100.125
11
175.031
21
-100.266
0
LINE
8
BLACK
6
CONTINUOUS
10
175.031
20
-100.266
11
175.212
21
-100.459
0
LINE
8
BLACK
6
CONTINUOUS
10
175.212
20
-100.459
11
175.556
21
-100.768
0
LINE
8
BLACK
6
CONTINUOUS
10
175.556
20
-100.768
11
175.923
21
-101.047
0
LINE
8
BLACK
6
CONTINUOUS
10
175.923
20
-101.047
11
175.926
21
-101.049
0
LINE
8
BLACK
6
CONTINUOUS
10
175.926
20
-101.049
11
175.926
21
-101.049
0
LINE
8
BLACK
6
CONTINUOUS
10
175.926
20
-101.049
11
176.248
21
-101.253
0
LINE
8
BLACK
6
CONTINUOUS
10
176.248
20
-101.253
11
176.313
21
-101.295
0
LINE
8
BLACK
6
CONTINUOUS
10
176.313
20
-101.295
11
176.316
21
-101.296
0
LINE
8
BLACK
6
CONTINUOUS
10
176.316
20
-101.296
11
176.316
21
-101.296
0
LINE
8
BLACK
6
CONTINUOUS
10
176.316
20
-101.296
11
176.72
21
-101.508
0
LINE
8
BLACK
6
CONTINUOUS
10
176.72
20
-101.508
11
176.72
21
-101.508
0
LINE
8
BLACK
6
CONTINUOUS
10
176.72
20
-101.508
11
176.722
21
-101.509
0
LINE
8
BLACK
6
CONTINUOUS
10
176.722
20
-101.509
11
177.148
21
-101.688
0
LINE
8
BLACK
6
CONTINUOUS
10
177.148
20
-101.688
11
177.151
21
-101.688
0
LINE
8
BLACK
6
CONTINUOUS
10
177.151
20
-101.688
11
177.151
21
-101.688
0
LINE
8
BLACK
6
CONTINUOUS
10
177.151
20
-101.688
11
177.585
21
-101.83
0
LINE
8
BLACK
6
CONTINUOUS
10
177.585
20
-101.83
11
177.585
21
-101.83
0
LINE
8
BLACK
6
CONTINUOUS
10
177.585
20
-101.83
11
177.587
21
-101.83
0
LINE
8
BLACK
6
CONTINUOUS
10
177.587
20
-101.83
11
177.909
21
-101.906
0
LINE
8
BLACK
6
CONTINUOUS
10
177.909
20
-101.906
11
178.034
21
-101.935
0
LINE
8
BLACK
6
CONTINUOUS
10
178.034
20
-101.935
11
178.034
21
-101.935
0
LINE
8
BLACK
6
CONTINUOUS
10
178.034
20
-101.935
11
178.037
21
-101.936
0
LINE
8
BLACK
6
CONTINUOUS
10
178.037
20
-101.936
11
178.039
21
-101.936
0
LINE
8
BLACK
6
CONTINUOUS
10
178.039
20
-101.936
11
178.039
21
-101.936
0
LINE
8
BLACK
6
CONTINUOUS
10
178.039
20
-101.936
11
178.491
21
-102.003
0
LINE
8
BLACK
6
CONTINUOUS
10
178.491
20
-102.003
11
178.491
21
-102.003
0
LINE
8
BLACK
6
CONTINUOUS
10
178.491
20
-102.003
11
178.494
21
-102.003
0
LINE
8
BLACK
6
CONTINUOUS
10
178.494
20
-102.003
11
178.955
21
-102.032
0
LINE
8
BLACK
6
CONTINUOUS
10
178.955
20
-102.032
11
178.957
21
-102.032
0
LINE
8
BLACK
6
CONTINUOUS
10
178.957
20
-102.032
11
178.957
21
-102.032
0
LINE
8
BLACK
6
CONTINUOUS
10
178.957
20
-102.032
11
179.133
21
-102.029
0
LINE
8
BLACK
6
CONTINUOUS
10
179.133
20
-102.029
11
179.416
21
-102.023
0
LINE
8
BLACK
6
CONTINUOUS
10
179.416
20
-102.023
11
179.875
21
-101.974
0
LINE
8
BLACK
6
CONTINUOUS
10
179.875
20
-101.974
11
180.329
21
-101.888
0
LINE
8
BLACK
6
CONTINUOUS
10
180.329
20
-101.888
11
180.332
21
-101.887
0
LINE
8
BLACK
6
CONTINUOUS
10
180.332
20
-101.887
11
180.332
21
-101.887
0
LINE
8
BLACK
6
CONTINUOUS
10
180.332
20
-101.887
11
180.771
21
-101.764
0
LINE
8
BLACK
6
CONTINUOUS
10
180.771
20
-101.764
11
180.771
21
-101.764
0
LINE
8
BLACK
6
CONTINUOUS
10
180.771
20
-101.764
11
180.774
21
-101.764
0
LINE
8
BLACK
6
CONTINUOUS
10
180.774
20
-101.764
11
181.05
21
-101.661
0
LINE
8
BLACK
6
CONTINUOUS
10
181.05
20
-101.661
11
181.204
21
-101.604
0
LINE
8
BLACK
6
CONTINUOUS
10
181.204
20
-101.604
11
181.204
21
-101.604
0
LINE
8
BLACK
6
CONTINUOUS
10
181.204
20
-101.604
11
181.207
21
-101.603
0
LINE
8
BLACK
6
CONTINUOUS
10
181.207
20
-101.603
11
181.624
21
-101.406
0
LINE
8
BLACK
6
CONTINUOUS
10
181.624
20
-101.406
11
182.024
21
-101.175
0
LINE
8
BLACK
6
CONTINUOUS
10
182.024
20
-101.175
11
182.403
21
-100.912
0
LINE
8
BLACK
6
CONTINUOUS
10
182.403
20
-100.912
11
182.759
21
-100.617
0
LINE
8
BLACK
6
CONTINUOUS
10
182.759
20
-100.617
11
183.05
21
-100.332
0
LINE
8
BLACK
6
CONTINUOUS
10
183.05
20
-100.332
11
183.087
21
-100.296
0
LINE
8
BLACK
6
CONTINUOUS
10
183.087
20
-100.296
11
183.087
21
-100.296
0
LINE
8
BLACK
6
CONTINUOUS
10
183.087
20
-100.296
11
183.089
21
-100.294
0
LINE
8
BLACK
6
CONTINUOUS
10
183.089
20
-100.294
11
183.391
21
-99.9447
0
LINE
8
BLACK
6
CONTINUOUS
10
183.391
20
-99.9447
11
183.662
21
-99.5711
0
LINE
8
BLACK
6
CONTINUOUS
10
183.662
20
-99.5711
11
183.698
21
-99.5128
0
LINE
8
BLACK
6
CONTINUOUS
10
183.698
20
-99.5128
11
183.82
21
-99.3099
0
LINE
8
BLACK
6
CONTINUOUS
10
183.82
20
-99.3099
11
183.901
21
-99.1761
0
LINE
8
BLACK
6
CONTINUOUS
10
183.901
20
-99.1761
11
184.107
21
-98.7625
0
LINE
8
BLACK
6
CONTINUOUS
10
184.107
20
-98.7625
11
184.277
21
-98.3332
0
LINE
8
BLACK
6
CONTINUOUS
10
184.277
20
-98.3332
11
184.41
21
-97.8911
0
LINE
8
BLACK
6
CONTINUOUS
10
184.41
20
-97.8911
11
184.458
21
-97.6663
0
LINE
8
BLACK
6
CONTINUOUS
10
184.458
20
-97.6663
11
184.506
21
-97.442
0
LINE
8
BLACK
6
CONTINUOUS
10
184.506
20
-97.442
11
184.506
21
-97.4395
0
LINE
8
BLACK
6
CONTINUOUS
10
184.506
20
-97.4395
11
184.564
21
-96.9814
0
LINE
8
BLACK
6
CONTINUOUS
10
184.564
20
-96.9814
11
184.574
21
-96.7509
0
LINE
8
BLACK
6
CONTINUOUS
10
184.574
20
-96.7509
11
184.583
21
-96.52
0
LINE
8
BLACK
6
CONTINUOUS
10
184.583
20
-96.52
11
184.581
21
-96.4632
0
LINE
8
BLACK
6
CONTINUOUS
10
164.519
20
-96.1677
11
164.567
21
-95.9434
0
LINE
8
BLACK
6
CONTINUOUS
10
164.567
20
-95.9434
11
164.567
21
-95.9409
0
LINE
8
BLACK
6
CONTINUOUS
10
164.567
20
-95.9409
11
164.625
21
-95.4828
0
LINE
8
BLACK
6
CONTINUOUS
10
164.625
20
-95.4828
11
164.63
21
-95.3737
0
LINE
8
BLACK
6
CONTINUOUS
10
164.63
20
-95.3737
11
164.644
21
-95.024
0
LINE
8
BLACK
6
CONTINUOUS
10
164.644
20
-95.024
11
164.644
21
-95.0214
0
LINE
8
BLACK
6
CONTINUOUS
10
164.644
20
-95.0214
11
164.625
21
-94.56
0
LINE
8
BLACK
6
CONTINUOUS
10
164.625
20
-94.56
11
164.567
21
-94.1019
0
LINE
8
BLACK
6
CONTINUOUS
10
164.567
20
-94.1019
11
164.52
21
-93.8777
0
LINE
8
BLACK
6
CONTINUOUS
10
164.52
20
-93.8777
11
164.472
21
-93.6528
0
LINE
8
BLACK
6
CONTINUOUS
10
164.472
20
-93.6528
11
164.472
21
-93.6528
0
LINE
8
BLACK
6
CONTINUOUS
10
164.472
20
-93.6528
11
164.471
21
-93.6503
0
LINE
8
BLACK
6
CONTINUOUS
10
164.471
20
-93.6503
11
164.338
21
-93.2082
0
LINE
8
BLACK
6
CONTINUOUS
10
164.338
20
-93.2082
11
164.168
21
-92.7789
0
LINE
8
BLACK
6
CONTINUOUS
10
164.168
20
-92.7789
11
163.962
21
-92.3653
0
LINE
8
BLACK
6
CONTINUOUS
10
163.962
20
-92.3653
11
163.778
21
-92.0601
0
LINE
8
BLACK
6
CONTINUOUS
10
163.778
20
-92.0601
11
163.725
21
-91.9725
0
LINE
8
BLACK
6
CONTINUOUS
10
163.725
20
-91.9725
11
163.725
21
-91.9725
0
LINE
8
BLACK
6
CONTINUOUS
10
163.725
20
-91.9725
11
163.723
21
-91.9703
0
LINE
8
BLACK
6
CONTINUOUS
10
163.723
20
-91.9703
11
163.452
21
-91.5967
0
LINE
8
BLACK
6
CONTINUOUS
10
163.452
20
-91.5967
11
163.15
21
-91.2472
0
LINE
8
BLACK
6
CONTINUOUS
10
163.15
20
-91.2472
11
163.112
21
-91.2096
0
LINE
8
BLACK
6
CONTINUOUS
10
163.112
20
-91.2096
11
162.906
21
-91.0077
0
LINE
8
BLACK
6
CONTINUOUS
10
162.906
20
-91.0077
11
162.82
21
-90.9241
0
LINE
8
BLACK
6
CONTINUOUS
10
162.82
20
-90.9241
11
162.464
21
-90.6298
0
LINE
8
BLACK
6
CONTINUOUS
10
162.464
20
-90.6298
11
162.085
21
-90.3662
0
LINE
8
BLACK
6
CONTINUOUS
10
162.085
20
-90.3662
11
161.685
21
-90.1353
0
LINE
8
BLACK
6
CONTINUOUS
10
161.685
20
-90.1353
11
161.268
21
-89.9387
0
LINE
8
BLACK
6
CONTINUOUS
10
161.268
20
-89.9387
11
161.265
21
-89.9378
0
LINE
8
BLACK
6
CONTINUOUS
10
161.265
20
-89.9378
11
161.265
21
-89.9378
0
LINE
8
BLACK
6
CONTINUOUS
10
161.265
20
-89.9378
11
161.037
21
-89.8529
0
LINE
8
BLACK
6
CONTINUOUS
10
161.037
20
-89.8529
11
160.835
21
-89.7778
0
LINE
8
BLACK
6
CONTINUOUS
10
160.835
20
-89.7778
11
160.832
21
-89.7771
0
LINE
8
BLACK
6
CONTINUOUS
10
160.832
20
-89.7771
11
160.832
21
-89.7771
0
LINE
8
BLACK
6
CONTINUOUS
10
160.832
20
-89.7771
11
160.393
21
-89.6543
0
LINE
8
BLACK
6
CONTINUOUS
10
160.393
20
-89.6543
11
160.393
21
-89.6543
0
LINE
8
BLACK
6
CONTINUOUS
10
160.393
20
-89.6543
11
160.39
21
-89.6536
0
LINE
8
BLACK
6
CONTINUOUS
10
160.39
20
-89.6536
11
159.936
21
-89.5671
0
LINE
8
BLACK
6
CONTINUOUS
10
159.936
20
-89.5671
11
159.477
21
-89.5188
0
LINE
8
BLACK
6
CONTINUOUS
10
159.477
20
-89.5188
11
159.194
21
-89.5129
0
LINE
8
BLACK
6
CONTINUOUS
10
159.194
20
-89.5129
11
159.018
21
-89.5092
0
LINE
8
BLACK
6
CONTINUOUS
10
159.018
20
-89.5092
11
159.018
21
-89.5092
0
LINE
8
BLACK
6
CONTINUOUS
10
159.018
20
-89.5092
11
159.016
21
-89.5091
0
LINE
8
BLACK
6
CONTINUOUS
10
159.016
20
-89.5091
11
158.555
21
-89.5381
0
LINE
8
BLACK
6
CONTINUOUS
10
158.555
20
-89.5381
11
158.552
21
-89.5385
0
LINE
8
BLACK
6
CONTINUOUS
10
158.552
20
-89.5385
11
158.552
21
-89.5385
0
LINE
8
BLACK
6
CONTINUOUS
10
158.552
20
-89.5385
11
158.1
21
-89.6052
0
LINE
8
BLACK
6
CONTINUOUS
10
158.1
20
-89.6052
11
158.1
21
-89.6052
0
LINE
8
BLACK
6
CONTINUOUS
10
158.1
20
-89.6052
11
158.098
21
-89.6056
0
LINE
8
BLACK
6
CONTINUOUS
10
158.098
20
-89.6056
11
158.095
21
-89.6062
0
LINE
8
BLACK
6
CONTINUOUS
10
158.095
20
-89.6062
11
158.095
21
-89.6062
0
LINE
8
BLACK
6
CONTINUOUS
10
158.095
20
-89.6062
11
157.97
21
-89.6357
0
LINE
8
BLACK
6
CONTINUOUS
10
157.97
20
-89.6357
11
157.648
21
-89.711
0
LINE
8
BLACK
6
CONTINUOUS
10
157.648
20
-89.711
11
157.646
21
-89.7118
0
LINE
8
BLACK
6
CONTINUOUS
10
157.646
20
-89.7118
11
157.646
21
-89.7119
0
LINE
8
BLACK
6
CONTINUOUS
10
157.646
20
-89.7119
11
157.445
21
-89.7771
0
LINE
8
BLACK
6
CONTINUOUS
10
157.445
20
-89.7771
11
157.209
21
-89.8537
0
LINE
8
BLACK
6
CONTINUOUS
10
157.209
20
-89.8537
11
156.783
21
-90.0327
0
LINE
8
BLACK
6
CONTINUOUS
10
156.783
20
-90.0327
11
156.781
21
-90.0339
0
LINE
8
BLACK
6
CONTINUOUS
10
156.781
20
-90.0339
11
156.781
21
-90.0339
0
LINE
8
BLACK
6
CONTINUOUS
10
156.781
20
-90.0339
11
156.377
21
-90.2454
0
LINE
8
BLACK
6
CONTINUOUS
10
156.377
20
-90.2454
11
156.377
21
-90.2454
0
LINE
8
BLACK
6
CONTINUOUS
10
156.377
20
-90.2454
11
156.374
21
-90.2466
0
LINE
8
BLACK
6
CONTINUOUS
10
156.374
20
-90.2466
11
156.372
21
-90.248
0
LINE
8
BLACK
6
CONTINUOUS
10
156.372
20
-90.248
11
155.987
21
-90.4926
0
LINE
8
BLACK
6
CONTINUOUS
10
155.987
20
-90.4926
11
155.987
21
-90.4926
0
LINE
8
BLACK
6
CONTINUOUS
10
155.987
20
-90.4926
11
155.984
21
-90.494
0
LINE
8
BLACK
6
CONTINUOUS
10
155.984
20
-90.494
11
155.617
21
-90.7732
0
LINE
8
BLACK
6
CONTINUOUS
10
155.617
20
-90.7732
11
155.273
21
-91.0822
0
LINE
8
BLACK
6
CONTINUOUS
10
155.273
20
-91.0822
11
155.272
21
-91.0841
0
LINE
8
BLACK
6
CONTINUOUS
10
155.272
20
-91.0841
11
155.272
21
-91.0841
0
LINE
8
BLACK
6
CONTINUOUS
10
155.272
20
-91.0841
11
155.019
21
-91.3533
0
LINE
8
BLACK
6
CONTINUOUS
10
155.019
20
-91.3533
11
154.957
21
-91.4188
0
LINE
8
BLACK
6
CONTINUOUS
10
154.957
20
-91.4188
11
154.956
21
-91.4209
0
LINE
8
BLACK
6
CONTINUOUS
10
154.956
20
-91.4209
11
154.956
21
-91.4209
0
LINE
8
BLACK
6
CONTINUOUS
10
154.956
20
-91.4209
11
154.942
21
-91.4385
0
LINE
8
BLACK
6
CONTINUOUS
10
154.942
20
-91.4385
11
154.671
21
-91.7807
0
LINE
8
BLACK
6
CONTINUOUS
10
154.671
20
-91.7807
11
154.669
21
-91.7829
0
LINE
8
BLACK
6
CONTINUOUS
10
154.669
20
-91.7829
11
154.44
21
-92.1284
0
LINE
8
BLACK
6
CONTINUOUS
10
154.44
20
-92.1284
11
154.415
21
-92.1653
0
LINE
8
BLACK
6
CONTINUOUS
10
154.415
20
-92.1653
11
154.193
21
-92.5699
0
LINE
8
BLACK
6
CONTINUOUS
10
154.193
20
-92.5699
11
154.005
21
-92.9918
0
LINE
8
BLACK
6
CONTINUOUS
10
154.005
20
-92.9918
11
153.853
21
-93.4278
0
LINE
8
BLACK
6
CONTINUOUS
10
153.853
20
-93.4278
11
153.852
21
-93.4304
0
LINE
8
BLACK
6
CONTINUOUS
10
153.852
20
-93.4304
11
153.852
21
-93.4304
0
LINE
8
BLACK
6
CONTINUOUS
10
153.852
20
-93.4304
11
153.842
21
-93.4689
0
LINE
8
BLACK
6
CONTINUOUS
10
153.842
20
-93.4689
11
153.738
21
-93.8751
0
LINE
8
BLACK
6
CONTINUOUS
10
153.738
20
-93.8751
11
153.738
21
-93.8777
0
LINE
8
BLACK
6
CONTINUOUS
10
153.738
20
-93.8777
11
153.738
21
-93.8777
0
LINE
8
BLACK
6
CONTINUOUS
10
153.738
20
-93.8777
11
153.681
21
-94.2106
0
LINE
8
BLACK
6
CONTINUOUS
10
153.681
20
-94.2106
11
153.661
21
-94.3304
0
LINE
8
BLACK
6
CONTINUOUS
10
153.661
20
-94.3304
11
153.622
21
-94.7905
0
LINE
8
BLACK
6
CONTINUOUS
10
153.622
20
-94.7905
11
153.622
21
-95.2523
0
LINE
8
BLACK
6
CONTINUOUS
10
153.622
20
-95.2523
11
153.661
21
-95.7124
0
LINE
8
BLACK
6
CONTINUOUS
10
153.661
20
-95.7124
11
153.661
21
-95.715
0
LINE
8
BLACK
6
CONTINUOUS
10
153.661
20
-95.715
11
153.72
21
-96.0613
0
LINE
8
BLACK
6
CONTINUOUS
10
153.72
20
-96.0613
11
153.738
21
-96.1677
0
LINE
8
BLACK
6
CONTINUOUS
10
153.738
20
-96.1677
11
153.739
21
-96.1703
0
LINE
8
BLACK
6
CONTINUOUS
10
153.739
20
-96.1703
11
153.828
21
-96.5174
0
LINE
8
BLACK
6
CONTINUOUS
10
153.828
20
-96.5174
11
153.853
21
-96.615
0
LINE
8
BLACK
6
CONTINUOUS
10
153.853
20
-96.615
11
154.005
21
-97.051
0
LINE
8
BLACK
6
CONTINUOUS
10
154.005
20
-97.051
11
154.193
21
-97.4729
0
LINE
8
BLACK
6
CONTINUOUS
10
154.193
20
-97.4729
11
154.415
21
-97.8775
0
LINE
8
BLACK
6
CONTINUOUS
10
154.415
20
-97.8775
11
154.416
21
-97.8797
0
LINE
8
BLACK
6
CONTINUOUS
10
154.416
20
-97.8797
11
154.416
21
-97.8797
0
LINE
8
BLACK
6
CONTINUOUS
10
154.416
20
-97.8797
11
154.545
21
-98.0731
0
LINE
8
BLACK
6
CONTINUOUS
10
154.545
20
-98.0731
11
154.671
21
-98.2621
0
LINE
8
BLACK
6
CONTINUOUS
10
154.671
20
-98.2621
11
154.815
21
-98.4439
0
LINE
8
BLACK
6
CONTINUOUS
10
154.815
20
-98.4439
11
154.917
21
-98.5731
0
LINE
8
BLACK
6
CONTINUOUS
10
154.917
20
-98.5731
11
154.957
21
-98.624
0
LINE
8
BLACK
6
CONTINUOUS
10
154.957
20
-98.624
11
154.959
21
-98.6259
0
LINE
8
BLACK
6
CONTINUOUS
10
154.959
20
-98.6259
11
154.959
21
-98.6259
0
LINE
8
BLACK
6
CONTINUOUS
10
154.959
20
-98.6259
11
155.117
21
-98.7936
0
LINE
8
BLACK
6
CONTINUOUS
10
155.117
20
-98.7936
11
155.273
21
-98.9606
0
LINE
8
BLACK
6
CONTINUOUS
10
155.273
20
-98.9606
11
155.617
21
-99.2696
0
LINE
8
BLACK
6
CONTINUOUS
10
155.617
20
-99.2696
11
155.984
21
-99.5488
0
LINE
8
BLACK
6
CONTINUOUS
10
155.984
20
-99.5488
11
155.987
21
-99.5502
0
LINE
8
BLACK
6
CONTINUOUS
10
155.987
20
-99.5502
11
155.987
21
-99.5502
0
LINE
8
BLACK
6
CONTINUOUS
10
155.987
20
-99.5502
11
156.309
21
-99.7545
0
LINE
8
BLACK
6
CONTINUOUS
10
156.309
20
-99.7545
11
156.374
21
-99.7962
0
LINE
8
BLACK
6
CONTINUOUS
10
156.374
20
-99.7962
11
156.377
21
-99.7974
0
LINE
8
BLACK
6
CONTINUOUS
10
156.377
20
-99.7974
11
156.377
21
-99.7974
0
LINE
8
BLACK
6
CONTINUOUS
10
156.377
20
-99.7974
11
156.781
21
-100.009
0
LINE
8
BLACK
6
CONTINUOUS
10
156.781
20
-100.009
11
156.781
21
-100.009
0
LINE
8
BLACK
6
CONTINUOUS
10
156.781
20
-100.009
11
156.783
21
-100.01
0
LINE
8
BLACK
6
CONTINUOUS
10
156.783
20
-100.01
11
157.209
21
-100.189
0
LINE
8
BLACK
6
CONTINUOUS
10
157.209
20
-100.189
11
157.212
21
-100.19
0
LINE
8
BLACK
6
CONTINUOUS
10
157.212
20
-100.19
11
157.212
21
-100.19
0
LINE
8
BLACK
6
CONTINUOUS
10
157.212
20
-100.19
11
157.646
21
-100.331
0
LINE
8
BLACK
6
CONTINUOUS
10
157.646
20
-100.331
11
157.646
21
-100.331
0
LINE
8
BLACK
6
CONTINUOUS
10
157.646
20
-100.331
11
157.648
21
-100.332
0
LINE
8
BLACK
6
CONTINUOUS
10
157.648
20
-100.332
11
157.97
21
-100.407
0
LINE
8
BLACK
6
CONTINUOUS
10
157.97
20
-100.407
11
158.095
21
-100.437
0
LINE
8
BLACK
6
CONTINUOUS
10
158.095
20
-100.437
11
158.095
21
-100.437
0
LINE
8
BLACK
6
CONTINUOUS
10
158.095
20
-100.437
11
158.098
21
-100.437
0
LINE
8
BLACK
6
CONTINUOUS
10
158.098
20
-100.437
11
158.1
21
-100.438
0
LINE
8
BLACK
6
CONTINUOUS
10
158.1
20
-100.438
11
158.1
21
-100.438
0
LINE
8
BLACK
6
CONTINUOUS
10
158.1
20
-100.438
11
158.552
21
-100.504
0
LINE
8
BLACK
6
CONTINUOUS
10
158.552
20
-100.504
11
158.552
21
-100.504
0
LINE
8
BLACK
6
CONTINUOUS
10
158.552
20
-100.504
11
158.555
21
-100.505
0
LINE
8
BLACK
6
CONTINUOUS
10
158.555
20
-100.505
11
159.016
21
-100.534
0
LINE
8
BLACK
6
CONTINUOUS
10
159.016
20
-100.534
11
159.018
21
-100.534
0
LINE
8
BLACK
6
CONTINUOUS
10
159.018
20
-100.534
11
159.018
21
-100.534
0
LINE
8
BLACK
6
CONTINUOUS
10
159.018
20
-100.534
11
159.194
21
-100.53
0
LINE
8
BLACK
6
CONTINUOUS
10
159.194
20
-100.53
11
159.477
21
-100.524
0
LINE
8
BLACK
6
CONTINUOUS
10
159.477
20
-100.524
11
159.936
21
-100.476
0
LINE
8
BLACK
6
CONTINUOUS
10
159.936
20
-100.476
11
160.39
21
-100.389
0
LINE
8
BLACK
6
CONTINUOUS
10
160.39
20
-100.389
11
160.393
21
-100.388
0
LINE
8
BLACK
6
CONTINUOUS
10
160.393
20
-100.388
11
160.393
21
-100.388
0
LINE
8
BLACK
6
CONTINUOUS
10
160.393
20
-100.388
11
160.832
21
-100.266
0
LINE
8
BLACK
6
CONTINUOUS
10
160.832
20
-100.266
11
160.832
21
-100.266
0
LINE
8
BLACK
6
CONTINUOUS
10
160.832
20
-100.266
11
160.835
21
-100.265
0
LINE
8
BLACK
6
CONTINUOUS
10
160.835
20
-100.265
11
161.134
21
-100.154
0
LINE
8
BLACK
6
CONTINUOUS
10
161.134
20
-100.154
11
161.265
21
-100.105
0
LINE
8
BLACK
6
CONTINUOUS
10
161.265
20
-100.105
11
161.265
21
-100.105
0
LINE
8
BLACK
6
CONTINUOUS
10
161.265
20
-100.105
11
161.268
21
-100.104
0
LINE
8
BLACK
6
CONTINUOUS
10
161.268
20
-100.104
11
161.685
21
-99.9075
0
LINE
8
BLACK
6
CONTINUOUS
10
161.685
20
-99.9075
11
162.085
21
-99.6766
0
LINE
8
BLACK
6
CONTINUOUS
10
162.085
20
-99.6766
11
162.464
21
-99.413
0
LINE
8
BLACK
6
CONTINUOUS
10
162.464
20
-99.413
11
162.82
21
-99.1187
0
LINE
8
BLACK
6
CONTINUOUS
10
162.82
20
-99.1187
11
163.15
21
-98.7956
0
LINE
8
BLACK
6
CONTINUOUS
10
163.15
20
-98.7956
11
163.452
21
-98.4461
0
LINE
8
BLACK
6
CONTINUOUS
10
163.452
20
-98.4461
11
163.723
21
-98.0725
0
LINE
8
BLACK
6
CONTINUOUS
10
163.723
20
-98.0725
11
163.962
21
-97.6775
0
LINE
8
BLACK
6
CONTINUOUS
10
163.962
20
-97.6775
11
164.168
21
-97.2639
0
LINE
8
BLACK
6
CONTINUOUS
10
164.168
20
-97.2639
11
164.338
21
-96.8346
0
LINE
8
BLACK
6
CONTINUOUS
10
164.338
20
-96.8346
11
164.363
21
-96.7509
0
LINE
8
BLACK
6
CONTINUOUS
10
164.363
20
-96.7509
11
164.471
21
-96.3925
0
LINE
8
BLACK
6
CONTINUOUS
10
164.471
20
-96.3925
11
164.519
21
-96.1677
0
LINE
8
BLACK
6
CONTINUOUS
10
129.971
20
-96.4632
11
129.954
21
-96.0613
0
LINE
8
BLACK
6
CONTINUOUS
10
129.954
20
-96.0613
11
129.954
21
-96.0613
0
LINE
8
BLACK
6
CONTINUOUS
10
129.954
20
-96.0613
11
129.954
21
-96.0586
0
LINE
8
BLACK
6
CONTINUOUS
10
129.954
20
-96.0586
11
129.896
21
-95.6005
0
LINE
8
BLACK
6
CONTINUOUS
10
129.896
20
-95.6005
11
129.849
21
-95.3763
0
LINE
8
BLACK
6
CONTINUOUS
10
129.849
20
-95.3763
11
129.801
21
-95.1514
0
LINE
8
BLACK
6
CONTINUOUS
10
129.801
20
-95.1514
11
129.801
21
-95.1514
0
LINE
8
BLACK
6
CONTINUOUS
10
129.801
20
-95.1514
11
129.8
21
-95.1489
0
LINE
8
BLACK
6
CONTINUOUS
10
129.8
20
-95.1489
11
129.667
21
-94.7068
0
LINE
8
BLACK
6
CONTINUOUS
10
129.667
20
-94.7068
11
129.497
21
-94.2775
0
LINE
8
BLACK
6
CONTINUOUS
10
129.497
20
-94.2775
11
129.291
21
-93.8639
0
LINE
8
BLACK
6
CONTINUOUS
10
129.291
20
-93.8639
11
129.116
21
-93.5739
0
LINE
8
BLACK
6
CONTINUOUS
10
129.116
20
-93.5739
11
129.054
21
-93.4711
0
LINE
8
BLACK
6
CONTINUOUS
10
129.054
20
-93.4711
11
129.054
21
-93.4711
0
LINE
8
BLACK
6
CONTINUOUS
10
129.054
20
-93.4711
11
129.052
21
-93.4689
0
LINE
8
BLACK
6
CONTINUOUS
10
129.052
20
-93.4689
11
128.781
21
-93.0953
0
LINE
8
BLACK
6
CONTINUOUS
10
128.781
20
-93.0953
11
128.479
21
-92.7458
0
LINE
8
BLACK
6
CONTINUOUS
10
128.479
20
-92.7458
11
128.149
21
-92.4227
0
LINE
8
BLACK
6
CONTINUOUS
10
128.149
20
-92.4227
11
127.793
21
-92.1284
0
LINE
8
BLACK
6
CONTINUOUS
10
127.793
20
-92.1284
11
127.414
21
-91.8648
0
LINE
8
BLACK
6
CONTINUOUS
10
127.414
20
-91.8648
11
127.014
21
-91.6339
0
LINE
8
BLACK
6
CONTINUOUS
10
127.014
20
-91.6339
11
126.597
21
-91.4373
0
LINE
8
BLACK
6
CONTINUOUS
10
126.597
20
-91.4373
11
126.594
21
-91.4364
0
LINE
8
BLACK
6
CONTINUOUS
10
126.594
20
-91.4364
11
126.594
21
-91.4364
0
LINE
8
BLACK
6
CONTINUOUS
10
126.594
20
-91.4364
11
126.366
21
-91.3515
0
LINE
8
BLACK
6
CONTINUOUS
10
126.366
20
-91.3515
11
126.164
21
-91.2764
0
LINE
8
BLACK
6
CONTINUOUS
10
126.164
20
-91.2764
11
126.161
21
-91.2757
0
LINE
8
BLACK
6
CONTINUOUS
10
126.161
20
-91.2757
11
126.161
21
-91.2757
0
LINE
8
BLACK
6
CONTINUOUS
10
126.161
20
-91.2757
11
125.722
21
-91.1529
0
LINE
8
BLACK
6
CONTINUOUS
10
125.722
20
-91.1529
11
125.722
21
-91.1529
0
LINE
8
BLACK
6
CONTINUOUS
10
125.722
20
-91.1529
11
125.719
21
-91.1522
0
LINE
8
BLACK
6
CONTINUOUS
10
125.719
20
-91.1522
11
125.265
21
-91.0657
0
LINE
8
BLACK
6
CONTINUOUS
10
125.265
20
-91.0657
11
124.806
21
-91.0174
0
LINE
8
BLACK
6
CONTINUOUS
10
124.806
20
-91.0174
11
124.523
21
-91.0115
0
LINE
8
BLACK
6
CONTINUOUS
10
124.523
20
-91.0115
11
124.347
21
-91.0078
0
LINE
8
BLACK
6
CONTINUOUS
10
124.347
20
-91.0078
11
124.347
21
-91.0078
0
LINE
8
BLACK
6
CONTINUOUS
10
124.347
20
-91.0078
11
124.345
21
-91.0077
0
LINE
8
BLACK
6
CONTINUOUS
10
124.345
20
-91.0077
11
123.884
21
-91.0367
0
LINE
8
BLACK
6
CONTINUOUS
10
123.884
20
-91.0367
11
123.881
21
-91.0371
0
LINE
8
BLACK
6
CONTINUOUS
10
123.881
20
-91.0371
11
123.881
21
-91.0371
0
LINE
8
BLACK
6
CONTINUOUS
10
123.881
20
-91.0371
11
123.429
21
-91.1038
0
LINE
8
BLACK
6
CONTINUOUS
10
123.429
20
-91.1038
11
123.429
21
-91.1038
0
LINE
8
BLACK
6
CONTINUOUS
10
123.429
20
-91.1038
11
123.427
21
-91.1042
0
LINE
8
BLACK
6
CONTINUOUS
10
123.427
20
-91.1042
11
123.424
21
-91.1048
0
LINE
8
BLACK
6
CONTINUOUS
10
123.424
20
-91.1048
11
123.424
21
-91.1048
0
LINE
8
BLACK
6
CONTINUOUS
10
123.424
20
-91.1048
11
123.376
21
-91.1161
0
LINE
8
BLACK
6
CONTINUOUS
10
123.376
20
-91.1161
11
122.977
21
-91.2096
0
LINE
8
BLACK
6
CONTINUOUS
10
122.977
20
-91.2096
11
122.975
21
-91.2104
0
LINE
8
BLACK
6
CONTINUOUS
10
122.975
20
-91.2104
11
122.975
21
-91.2105
0
LINE
8
BLACK
6
CONTINUOUS
10
122.975
20
-91.2105
11
122.774
21
-91.2757
0
LINE
8
BLACK
6
CONTINUOUS
10
122.774
20
-91.2757
11
122.538
21
-91.3523
0
LINE
8
BLACK
6
CONTINUOUS
10
122.538
20
-91.3523
11
122.112
21
-91.5313
0
LINE
8
BLACK
6
CONTINUOUS
10
122.112
20
-91.5313
11
122.11
21
-91.5325
0
LINE
8
BLACK
6
CONTINUOUS
10
122.11
20
-91.5325
11
122.11
21
-91.5325
0
LINE
8
BLACK
6
CONTINUOUS
10
122.11
20
-91.5325
11
121.706
21
-91.744
0
LINE
8
BLACK
6
CONTINUOUS
10
121.706
20
-91.744
11
121.706
21
-91.744
0
LINE
8
BLACK
6
CONTINUOUS
10
121.706
20
-91.744
11
121.703
21
-91.7452
0
LINE
8
BLACK
6
CONTINUOUS
10
121.703
20
-91.7452
11
121.651
21
-91.7786
0
LINE
8
BLACK
6
CONTINUOUS
10
121.651
20
-91.7786
11
121.316
21
-91.9912
0
LINE
8
BLACK
6
CONTINUOUS
10
121.316
20
-91.9912
11
121.316
21
-91.9912
0
LINE
8
BLACK
6
CONTINUOUS
10
121.316
20
-91.9912
11
121.313
21
-91.9926
0
LINE
8
BLACK
6
CONTINUOUS
10
121.313
20
-91.9926
11
120.946
21
-92.2718
0
LINE
8
BLACK
6
CONTINUOUS
10
120.946
20
-92.2718
11
120.602
21
-92.5808
0
LINE
8
BLACK
6
CONTINUOUS
10
120.602
20
-92.5808
11
120.601
21
-92.5827
0
LINE
8
BLACK
6
CONTINUOUS
10
120.601
20
-92.5827
11
120.601
21
-92.5827
0
LINE
8
BLACK
6
CONTINUOUS
10
120.601
20
-92.5827
11
120.419
21
-92.7765
0
LINE
8
BLACK
6
CONTINUOUS
10
120.419
20
-92.7765
11
120.286
21
-92.9174
0
LINE
8
BLACK
6
CONTINUOUS
10
120.286
20
-92.9174
11
120.285
21
-92.9195
0
LINE
8
BLACK
6
CONTINUOUS
10
120.285
20
-92.9195
11
120.285
21
-92.9195
0
LINE
8
BLACK
6
CONTINUOUS
10
120.285
20
-92.9195
11
120.201
21
-93.0252
0
LINE
8
BLACK
6
CONTINUOUS
10
120.201
20
-93.0252
11
120
21
-93.2793
0
LINE
8
BLACK
6
CONTINUOUS
10
120
20
-93.2793
11
119.998
21
-93.2815
0
LINE
8
BLACK
6
CONTINUOUS
10
119.998
20
-93.2815
11
119.755
21
-93.6477
0
LINE
8
BLACK
6
CONTINUOUS
10
119.755
20
-93.6477
11
119.744
21
-93.6639
0
LINE
8
BLACK
6
CONTINUOUS
10
119.744
20
-93.6639
11
119.522
21
-94.0685
0
LINE
8
BLACK
6
CONTINUOUS
10
119.522
20
-94.0685
11
119.334
21
-94.4904
0
LINE
8
BLACK
6
CONTINUOUS
10
119.334
20
-94.4904
11
119.182
21
-94.9264
0
LINE
8
BLACK
6
CONTINUOUS
10
119.182
20
-94.9264
11
119.181
21
-94.929
0
LINE
8
BLACK
6
CONTINUOUS
10
119.181
20
-94.929
11
119.181
21
-94.929
0
LINE
8
BLACK
6
CONTINUOUS
10
119.181
20
-94.929
11
119.144
21
-95.0725
0
LINE
8
BLACK
6
CONTINUOUS
10
119.144
20
-95.0725
11
119.067
21
-95.3737
0
LINE
8
BLACK
6
CONTINUOUS
10
119.067
20
-95.3737
11
119.067
21
-95.3763
0
LINE
8
BLACK
6
CONTINUOUS
10
119.067
20
-95.3763
11
119.067
21
-95.3763
0
LINE
8
BLACK
6
CONTINUOUS
10
119.067
20
-95.3763
11
119.009
21
-95.715
0
LINE
8
BLACK
6
CONTINUOUS
10
119.009
20
-95.715
11
118.99
21
-95.829
0
LINE
8
BLACK
6
CONTINUOUS
10
118.99
20
-95.829
11
118.951
21
-96.2891
0
LINE
8
BLACK
6
CONTINUOUS
10
118.951
20
-96.2891
11
118.951
21
-96.7509
0
LINE
8
BLACK
6
CONTINUOUS
10
118.951
20
-96.7509
11
118.952
21
-96.7535
0
LINE
8
BLACK
6
CONTINUOUS
10
118.952
20
-96.7535
11
118.952
21
-96.7535
0
LINE
8
BLACK
6
CONTINUOUS
10
118.952
20
-96.7535
11
118.958
21
-96.8321
0
LINE
8
BLACK
6
CONTINUOUS
10
118.958
20
-96.8321
11
118.99
21
-97.211
0
LINE
8
BLACK
6
CONTINUOUS
10
118.99
20
-97.211
11
118.99
21
-97.2136
0
LINE
8
BLACK
6
CONTINUOUS
10
118.99
20
-97.2136
11
119.029
21
-97.442
0
LINE
8
BLACK
6
CONTINUOUS
10
119.029
20
-97.442
11
119.067
21
-97.6663
0
LINE
8
BLACK
6
CONTINUOUS
10
119.067
20
-97.6663
11
119.068
21
-97.6689
0
LINE
8
BLACK
6
CONTINUOUS
10
119.068
20
-97.6689
11
119.172
21
-98.0746
0
LINE
8
BLACK
6
CONTINUOUS
10
119.172
20
-98.0746
11
119.182
21
-98.1136
0
LINE
8
BLACK
6
CONTINUOUS
10
119.182
20
-98.1136
11
119.334
21
-98.5496
0
LINE
8
BLACK
6
CONTINUOUS
10
119.334
20
-98.5496
11
119.522
21
-98.9715
0
LINE
8
BLACK
6
CONTINUOUS
10
119.522
20
-98.9715
11
119.744
21
-99.3761
0
LINE
8
BLACK
6
CONTINUOUS
10
119.744
20
-99.3761
11
119.745
21
-99.3783
0
LINE
8
BLACK
6
CONTINUOUS
10
119.745
20
-99.3783
11
119.745
21
-99.3783
0
LINE
8
BLACK
6
CONTINUOUS
10
119.745
20
-99.3783
11
119.874
21
-99.5717
0
LINE
8
BLACK
6
CONTINUOUS
10
119.874
20
-99.5717
11
120
21
-99.7607
0
LINE
8
BLACK
6
CONTINUOUS
10
120
20
-99.7607
11
120.115
21
-99.9061
0
LINE
8
BLACK
6
CONTINUOUS
10
120.115
20
-99.9061
11
120.272
21
-100.104
0
LINE
8
BLACK
6
CONTINUOUS
10
120.272
20
-100.104
11
120.286
21
-100.123
0
LINE
8
BLACK
6
CONTINUOUS
10
120.286
20
-100.123
11
120.288
21
-100.125
0
LINE
8
BLACK
6
CONTINUOUS
10
120.288
20
-100.125
11
120.288
21
-100.125
0
LINE
8
BLACK
6
CONTINUOUS
10
120.288
20
-100.125
11
120.421
21
-100.266
0
LINE
8
BLACK
6
CONTINUOUS
10
120.421
20
-100.266
11
120.602
21
-100.459
0
LINE
8
BLACK
6
CONTINUOUS
10
120.602
20
-100.459
11
120.946
21
-100.768
0
LINE
8
BLACK
6
CONTINUOUS
10
120.946
20
-100.768
11
121.313
21
-101.047
0
LINE
8
BLACK
6
CONTINUOUS
10
121.313
20
-101.047
11
121.316
21
-101.049
0
LINE
8
BLACK
6
CONTINUOUS
10
121.316
20
-101.049
11
121.316
21
-101.049
0
LINE
8
BLACK
6
CONTINUOUS
10
121.316
20
-101.049
11
121.638
21
-101.253
0
LINE
8
BLACK
6
CONTINUOUS
10
121.638
20
-101.253
11
121.703
21
-101.295
0
LINE
8
BLACK
6
CONTINUOUS
10
121.703
20
-101.295
11
121.706
21
-101.296
0
LINE
8
BLACK
6
CONTINUOUS
10
121.706
20
-101.296
11
121.706
21
-101.296
0
LINE
8
BLACK
6
CONTINUOUS
10
121.706
20
-101.296
11
122.11
21
-101.508
0
LINE
8
BLACK
6
CONTINUOUS
10
122.11
20
-101.508
11
122.11
21
-101.508
0
LINE
8
BLACK
6
CONTINUOUS
10
122.11
20
-101.508
11
122.112
21
-101.509
0
LINE
8
BLACK
6
CONTINUOUS
10
122.112
20
-101.509
11
122.538
21
-101.688
0
LINE
8
BLACK
6
CONTINUOUS
10
122.538
20
-101.688
11
122.541
21
-101.688
0
LINE
8
BLACK
6
CONTINUOUS
10
122.541
20
-101.688
11
122.541
21
-101.688
0
LINE
8
BLACK
6
CONTINUOUS
10
122.541
20
-101.688
11
122.975
21
-101.83
0
LINE
8
BLACK
6
CONTINUOUS
10
122.975
20
-101.83
11
122.975
21
-101.83
0
LINE
8
BLACK
6
CONTINUOUS
10
122.975
20
-101.83
11
122.977
21
-101.83
0
LINE
8
BLACK
6
CONTINUOUS
10
122.977
20
-101.83
11
123.299
21
-101.906
0
LINE
8
BLACK
6
CONTINUOUS
10
123.299
20
-101.906
11
123.424
21
-101.935
0
LINE
8
BLACK
6
CONTINUOUS
10
123.424
20
-101.935
11
123.424
21
-101.935
0
LINE
8
BLACK
6
CONTINUOUS
10
123.424
20
-101.935
11
123.427
21
-101.936
0
LINE
8
BLACK
6
CONTINUOUS
10
123.427
20
-101.936
11
123.429
21
-101.936
0
LINE
8
BLACK
6
CONTINUOUS
10
123.429
20
-101.936
11
123.429
21
-101.936
0
LINE
8
BLACK
6
CONTINUOUS
10
123.429
20
-101.936
11
123.881
21
-102.003
0
LINE
8
BLACK
6
CONTINUOUS
10
123.881
20
-102.003
11
123.881
21
-102.003
0
LINE
8
BLACK
6
CONTINUOUS
10
123.881
20
-102.003
11
123.884
21
-102.003
0
LINE
8
BLACK
6
CONTINUOUS
10
123.884
20
-102.003
11
124.345
21
-102.032
0
LINE
8
BLACK
6
CONTINUOUS
10
124.345
20
-102.032
11
124.347
21
-102.032
0
LINE
8
BLACK
6
CONTINUOUS
10
124.347
20
-102.032
11
124.347
21
-102.032
0
LINE
8
BLACK
6
CONTINUOUS
10
124.347
20
-102.032
11
124.523
21
-102.029
0
LINE
8
BLACK
6
CONTINUOUS
10
124.523
20
-102.029
11
124.806
21
-102.023
0
LINE
8
BLACK
6
CONTINUOUS
10
124.806
20
-102.023
11
125.265
21
-101.974
0
LINE
8
BLACK
6
CONTINUOUS
10
125.265
20
-101.974
11
125.719
21
-101.888
0
LINE
8
BLACK
6
CONTINUOUS
10
125.719
20
-101.888
11
125.722
21
-101.887
0
LINE
8
BLACK
6
CONTINUOUS
10
125.722
20
-101.887
11
125.722
21
-101.887
0
LINE
8
BLACK
6
CONTINUOUS
10
125.722
20
-101.887
11
126.161
21
-101.764
0
LINE
8
BLACK
6
CONTINUOUS
10
126.161
20
-101.764
11
126.161
21
-101.764
0
LINE
8
BLACK
6
CONTINUOUS
10
126.161
20
-101.764
11
126.164
21
-101.764
0
LINE
8
BLACK
6
CONTINUOUS
10
126.164
20
-101.764
11
126.44
21
-101.661
0
LINE
8
BLACK
6
CONTINUOUS
10
126.44
20
-101.661
11
126.594
21
-101.604
0
LINE
8
BLACK
6
CONTINUOUS
10
126.594
20
-101.604
11
126.594
21
-101.604
0
LINE
8
BLACK
6
CONTINUOUS
10
126.594
20
-101.604
11
126.597
21
-101.603
0
LINE
8
BLACK
6
CONTINUOUS
10
126.597
20
-101.603
11
127.014
21
-101.406
0
LINE
8
BLACK
6
CONTINUOUS
10
127.014
20
-101.406
11
127.414
21
-101.175
0
LINE
8
BLACK
6
CONTINUOUS
10
127.414
20
-101.175
11
127.793
21
-100.912
0
LINE
8
BLACK
6
CONTINUOUS
10
127.793
20
-100.912
11
128.149
21
-100.617
0
LINE
8
BLACK
6
CONTINUOUS
10
128.149
20
-100.617
11
128.44
21
-100.332
0
LINE
8
BLACK
6
CONTINUOUS
10
128.44
20
-100.332
11
128.477
21
-100.296
0
LINE
8
BLACK
6
CONTINUOUS
10
128.477
20
-100.296
11
128.477
21
-100.296
0
LINE
8
BLACK
6
CONTINUOUS
10
128.477
20
-100.296
11
128.479
21
-100.294
0
LINE
8
BLACK
6
CONTINUOUS
10
128.479
20
-100.294
11
128.781
21
-99.9447
0
LINE
8
BLACK
6
CONTINUOUS
10
128.781
20
-99.9447
11
129.052
21
-99.5711
0
LINE
8
BLACK
6
CONTINUOUS
10
129.052
20
-99.5711
11
129.088
21
-99.5128
0
LINE
8
BLACK
6
CONTINUOUS
10
129.088
20
-99.5128
11
129.21
21
-99.3099
0
LINE
8
BLACK
6
CONTINUOUS
10
129.21
20
-99.3099
11
129.291
21
-99.1761
0
LINE
8
BLACK
6
CONTINUOUS
10
129.291
20
-99.1761
11
129.497
21
-98.7625
0
LINE
8
BLACK
6
CONTINUOUS
10
129.497
20
-98.7625
11
129.667
21
-98.3332
0
LINE
8
BLACK
6
CONTINUOUS
10
129.667
20
-98.3332
11
129.8
21
-97.8911
0
LINE
8
BLACK
6
CONTINUOUS
10
129.8
20
-97.8911
11
129.848
21
-97.6663
0
LINE
8
BLACK
6
CONTINUOUS
10
129.848
20
-97.6663
11
129.896
21
-97.442
0
LINE
8
BLACK
6
CONTINUOUS
10
129.896
20
-97.442
11
129.896
21
-97.4395
0
LINE
8
BLACK
6
CONTINUOUS
10
129.896
20
-97.4395
11
129.954
21
-96.9814
0
LINE
8
BLACK
6
CONTINUOUS
10
129.954
20
-96.9814
11
129.964
21
-96.7509
0
LINE
8
BLACK
6
CONTINUOUS
10
129.964
20
-96.7509
11
129.973
21
-96.52
0
LINE
8
BLACK
6
CONTINUOUS
10
129.973
20
-96.52
11
129.971
21
-96.4632
0
LINE
8
BLACK
6
CONTINUOUS
10
112.191
20
-96.4632
11
112.174
21
-96.0613
0
LINE
8
BLACK
6
CONTINUOUS
10
112.174
20
-96.0613
11
112.174
21
-96.0613
0
LINE
8
BLACK
6
CONTINUOUS
10
112.174
20
-96.0613
11
112.174
21
-96.0586
0
LINE
8
BLACK
6
CONTINUOUS
10
112.174
20
-96.0586
11
112.116
21
-95.6005
0
LINE
8
BLACK
6
CONTINUOUS
10
112.116
20
-95.6005
11
112.069
21
-95.3763
0
LINE
8
BLACK
6
CONTINUOUS
10
112.069
20
-95.3763
11
112.021
21
-95.1514
0
LINE
8
BLACK
6
CONTINUOUS
10
112.021
20
-95.1514
11
112.021
21
-95.1514
0
LINE
8
BLACK
6
CONTINUOUS
10
112.021
20
-95.1514
11
112.02
21
-95.1489
0
LINE
8
BLACK
6
CONTINUOUS
10
112.02
20
-95.1489
11
111.887
21
-94.7068
0
LINE
8
BLACK
6
CONTINUOUS
10
111.887
20
-94.7068
11
111.717
21
-94.2775
0
LINE
8
BLACK
6
CONTINUOUS
10
111.717
20
-94.2775
11
111.511
21
-93.8639
0
LINE
8
BLACK
6
CONTINUOUS
10
111.511
20
-93.8639
11
111.336
21
-93.5739
0
LINE
8
BLACK
6
CONTINUOUS
10
111.336
20
-93.5739
11
111.274
21
-93.4711
0
LINE
8
BLACK
6
CONTINUOUS
10
111.274
20
-93.4711
11
111.274
21
-93.4711
0
LINE
8
BLACK
6
CONTINUOUS
10
111.274
20
-93.4711
11
111.272
21
-93.4689
0
LINE
8
BLACK
6
CONTINUOUS
10
111.272
20
-93.4689
11
111.001
21
-93.0953
0
LINE
8
BLACK
6
CONTINUOUS
10
111.001
20
-93.0953
11
110.699
21
-92.7458
0
LINE
8
BLACK
6
CONTINUOUS
10
110.699
20
-92.7458
11
110.369
21
-92.4227
0
LINE
8
BLACK
6
CONTINUOUS
10
110.369
20
-92.4227
11
110.013
21
-92.1284
0
LINE
8
BLACK
6
CONTINUOUS
10
110.013
20
-92.1284
11
109.634
21
-91.8648
0
LINE
8
BLACK
6
CONTINUOUS
10
109.634
20
-91.8648
11
109.234
21
-91.6339
0
LINE
8
BLACK
6
CONTINUOUS
10
109.234
20
-91.6339
11
108.817
21
-91.4373
0
LINE
8
BLACK
6
CONTINUOUS
10
108.817
20
-91.4373
11
108.814
21
-91.4364
0
LINE
8
BLACK
6
CONTINUOUS
10
108.814
20
-91.4364
11
108.814
21
-91.4364
0
LINE
8
BLACK
6
CONTINUOUS
10
108.814
20
-91.4364
11
108.586
21
-91.3515
0
LINE
8
BLACK
6
CONTINUOUS
10
108.586
20
-91.3515
11
108.384
21
-91.2764
0
LINE
8
BLACK
6
CONTINUOUS
10
108.384
20
-91.2764
11
108.381
21
-91.2757
0
LINE
8
BLACK
6
CONTINUOUS
10
108.381
20
-91.2757
11
108.381
21
-91.2757
0
LINE
8
BLACK
6
CONTINUOUS
10
108.381
20
-91.2757
11
107.942
21
-91.1529
0
LINE
8
BLACK
6
CONTINUOUS
10
107.942
20
-91.1529
11
107.942
21
-91.1529
0
LINE
8
BLACK
6
CONTINUOUS
10
107.942
20
-91.1529
11
107.939
21
-91.1522
0
LINE
8
BLACK
6
CONTINUOUS
10
107.939
20
-91.1522
11
107.485
21
-91.0657
0
LINE
8
BLACK
6
CONTINUOUS
10
107.485
20
-91.0657
11
107.026
21
-91.0174
0
LINE
8
BLACK
6
CONTINUOUS
10
107.026
20
-91.0174
11
106.743
21
-91.0115
0
LINE
8
BLACK
6
CONTINUOUS
10
106.743
20
-91.0115
11
106.567
21
-91.0078
0
LINE
8
BLACK
6
CONTINUOUS
10
106.567
20
-91.0078
11
106.567
21
-91.0078
0
LINE
8
BLACK
6
CONTINUOUS
10
106.567
20
-91.0078
11
106.565
21
-91.0077
0
LINE
8
BLACK
6
CONTINUOUS
10
106.565
20
-91.0077
11
106.104
21
-91.0367
0
LINE
8
BLACK
6
CONTINUOUS
10
106.104
20
-91.0367
11
106.101
21
-91.0371
0
LINE
8
BLACK
6
CONTINUOUS
10
106.101
20
-91.0371
11
106.101
21
-91.0371
0
LINE
8
BLACK
6
CONTINUOUS
10
106.101
20
-91.0371
11
105.649
21
-91.1038
0
LINE
8
BLACK
6
CONTINUOUS
10
105.649
20
-91.1038
11
105.649
21
-91.1038
0
LINE
8
BLACK
6
CONTINUOUS
10
105.649
20
-91.1038
11
105.647
21
-91.1042
0
LINE
8
BLACK
6
CONTINUOUS
10
105.647
20
-91.1042
11
105.644
21
-91.1048
0
LINE
8
BLACK
6
CONTINUOUS
10
105.644
20
-91.1048
11
105.644
21
-91.1048
0
LINE
8
BLACK
6
CONTINUOUS
10
105.644
20
-91.1048
11
105.596
21
-91.1161
0
LINE
8
BLACK
6
CONTINUOUS
10
105.596
20
-91.1161
11
105.197
21
-91.2096
0
LINE
8
BLACK
6
CONTINUOUS
10
105.197
20
-91.2096
11
105.195
21
-91.2104
0
LINE
8
BLACK
6
CONTINUOUS
10
105.195
20
-91.2104
11
105.195
21
-91.2105
0
LINE
8
BLACK
6
CONTINUOUS
10
105.195
20
-91.2105
11
104.994
21
-91.2757
0
LINE
8
BLACK
6
CONTINUOUS
10
104.994
20
-91.2757
11
104.758
21
-91.3523
0
LINE
8
BLACK
6
CONTINUOUS
10
104.758
20
-91.3523
11
104.332
21
-91.5313
0
LINE
8
BLACK
6
CONTINUOUS
10
104.332
20
-91.5313
11
104.33
21
-91.5325
0
LINE
8
BLACK
6
CONTINUOUS
10
104.33
20
-91.5325
11
104.33
21
-91.5325
0
LINE
8
BLACK
6
CONTINUOUS
10
104.33
20
-91.5325
11
103.926
21
-91.744
0
LINE
8
BLACK
6
CONTINUOUS
10
103.926
20
-91.744
11
103.926
21
-91.744
0
LINE
8
BLACK
6
CONTINUOUS
10
103.926
20
-91.744
11
103.923
21
-91.7452
0
LINE
8
BLACK
6
CONTINUOUS
10
103.923
20
-91.7452
11
103.871
21
-91.7786
0
LINE
8
BLACK
6
CONTINUOUS
10
103.871
20
-91.7786
11
103.536
21
-91.9912
0
LINE
8
BLACK
6
CONTINUOUS
10
103.536
20
-91.9912
11
103.536
21
-91.9912
0
LINE
8
BLACK
6
CONTINUOUS
10
103.536
20
-91.9912
11
103.533
21
-91.9926
0
LINE
8
BLACK
6
CONTINUOUS
10
103.533
20
-91.9926
11
103.166
21
-92.2718
0
LINE
8
BLACK
6
CONTINUOUS
10
103.166
20
-92.2718
11
102.822
21
-92.5808
0
LINE
8
BLACK
6
CONTINUOUS
10
102.822
20
-92.5808
11
102.821
21
-92.5827
0
LINE
8
BLACK
6
CONTINUOUS
10
102.821
20
-92.5827
11
102.821
21
-92.5827
0
LINE
8
BLACK
6
CONTINUOUS
10
102.821
20
-92.5827
11
102.639
21
-92.7765
0
LINE
8
BLACK
6
CONTINUOUS
10
102.639
20
-92.7765
11
102.506
21
-92.9174
0
LINE
8
BLACK
6
CONTINUOUS
10
102.506
20
-92.9174
11
102.505
21
-92.9195
0
LINE
8
BLACK
6
CONTINUOUS
10
102.505
20
-92.9195
11
102.505
21
-92.9195
0
LINE
8
BLACK
6
CONTINUOUS
10
102.505
20
-92.9195
11
102.421
21
-93.0252
0
LINE
8
BLACK
6
CONTINUOUS
10
102.421
20
-93.0252
11
102.22
21
-93.2793
0
LINE
8
BLACK
6
CONTINUOUS
10
102.22
20
-93.2793
11
102.218
21
-93.2815
0
LINE
8
BLACK
6
CONTINUOUS
10
102.218
20
-93.2815
11
101.975
21
-93.6477
0
LINE
8
BLACK
6
CONTINUOUS
10
101.975
20
-93.6477
11
101.964
21
-93.6639
0
LINE
8
BLACK
6
CONTINUOUS
10
101.964
20
-93.6639
11
101.742
21
-94.0685
0
LINE
8
BLACK
6
CONTINUOUS
10
101.742
20
-94.0685
11
101.554
21
-94.4904
0
LINE
8
BLACK
6
CONTINUOUS
10
101.554
20
-94.4904
11
101.402
21
-94.9264
0
LINE
8
BLACK
6
CONTINUOUS
10
101.402
20
-94.9264
11
101.401
21
-94.929
0
LINE
8
BLACK
6
CONTINUOUS
10
101.401
20
-94.929
11
101.401
21
-94.929
0
LINE
8
BLACK
6
CONTINUOUS
10
101.401
20
-94.929
11
101.364
21
-95.0725
0
LINE
8
BLACK
6
CONTINUOUS
10
101.364
20
-95.0725
11
101.287
21
-95.3737
0
LINE
8
BLACK
6
CONTINUOUS
10
101.287
20
-95.3737
11
101.287
21
-95.3763
0
LINE
8
BLACK
6
CONTINUOUS
10
101.287
20
-95.3763
11
101.287
21
-95.3763
0
LINE
8
BLACK
6
CONTINUOUS
10
101.287
20
-95.3763
11
101.229
21
-95.715
0
LINE
8
BLACK
6
CONTINUOUS
10
101.229
20
-95.715
11
101.21
21
-95.829
0
LINE
8
BLACK
6
CONTINUOUS
10
101.21
20
-95.829
11
101.171
21
-96.2891
0
LINE
8
BLACK
6
CONTINUOUS
10
101.171
20
-96.2891
11
101.171
21
-96.7509
0
LINE
8
BLACK
6
CONTINUOUS
10
101.171
20
-96.7509
11
101.172
21
-96.7535
0
LINE
8
BLACK
6
CONTINUOUS
10
101.172
20
-96.7535
11
101.172
21
-96.7535
0
LINE
8
BLACK
6
CONTINUOUS
10
101.172
20
-96.7535
11
101.178
21
-96.8321
0
LINE
8
BLACK
6
CONTINUOUS
10
101.178
20
-96.8321
11
101.21
21
-97.211
0
LINE
8
BLACK
6
CONTINUOUS
10
101.21
20
-97.211
11
101.21
21
-97.2136
0
LINE
8
BLACK
6
CONTINUOUS
10
101.21
20
-97.2136
11
101.249
21
-97.442
0
LINE
8
BLACK
6
CONTINUOUS
10
101.249
20
-97.442
11
101.287
21
-97.6663
0
LINE
8
BLACK
6
CONTINUOUS
10
101.287
20
-97.6663
11
101.288
21
-97.6689
0
LINE
8
BLACK
6
CONTINUOUS
10
101.288
20
-97.6689
11
101.392
21
-98.0746
0
LINE
8
BLACK
6
CONTINUOUS
10
101.392
20
-98.0746
11
101.402
21
-98.1136
0
LINE
8
BLACK
6
CONTINUOUS
10
101.402
20
-98.1136
11
101.554
21
-98.5496
0
LINE
8
BLACK
6
CONTINUOUS
10
101.554
20
-98.5496
11
101.742
21
-98.9715
0
LINE
8
BLACK
6
CONTINUOUS
10
101.742
20
-98.9715
11
101.964
21
-99.3761
0
LINE
8
BLACK
6
CONTINUOUS
10
101.964
20
-99.3761
11
101.965
21
-99.3783
0
LINE
8
BLACK
6
CONTINUOUS
10
101.965
20
-99.3783
11
101.965
21
-99.3783
0
LINE
8
BLACK
6
CONTINUOUS
10
101.965
20
-99.3783
11
102.094
21
-99.5717
0
LINE
8
BLACK
6
CONTINUOUS
10
102.094
20
-99.5717
11
102.22
21
-99.7607
0
LINE
8
BLACK
6
CONTINUOUS
10
102.22
20
-99.7607
11
102.335
21
-99.9061
0
LINE
8
BLACK
6
CONTINUOUS
10
102.335
20
-99.9061
11
102.492
21
-100.104
0
LINE
8
BLACK
6
CONTINUOUS
10
102.492
20
-100.104
11
102.506
21
-100.123
0
LINE
8
BLACK
6
CONTINUOUS
10
102.506
20
-100.123
11
102.508
21
-100.125
0
LINE
8
BLACK
6
CONTINUOUS
10
102.508
20
-100.125
11
102.508
21
-100.125
0
LINE
8
BLACK
6
CONTINUOUS
10
102.508
20
-100.125
11
102.641
21
-100.266
0
LINE
8
BLACK
6
CONTINUOUS
10
102.641
20
-100.266
11
102.822
21
-100.459
0
LINE
8
BLACK
6
CONTINUOUS
10
102.822
20
-100.459
11
103.166
21
-100.768
0
LINE
8
BLACK
6
CONTINUOUS
10
103.166
20
-100.768
11
103.533
21
-101.047
0
LINE
8
BLACK
6
CONTINUOUS
10
103.533
20
-101.047
11
103.536
21
-101.049
0
LINE
8
BLACK
6
CONTINUOUS
10
103.536
20
-101.049
11
103.536
21
-101.049
0
LINE
8
BLACK
6
CONTINUOUS
10
103.536
20
-101.049
11
103.858
21
-101.253
0
LINE
8
BLACK
6
CONTINUOUS
10
103.858
20
-101.253
11
103.923
21
-101.295
0
LINE
8
BLACK
6
CONTINUOUS
10
103.923
20
-101.295
11
103.926
21
-101.296
0
LINE
8
BLACK
6
CONTINUOUS
10
103.926
20
-101.296
11
103.926
21
-101.296
0
LINE
8
BLACK
6
CONTINUOUS
10
103.926
20
-101.296
11
104.33
21
-101.508
0
LINE
8
BLACK
6
CONTINUOUS
10
104.33
20
-101.508
11
104.33
21
-101.508
0
LINE
8
BLACK
6
CONTINUOUS
10
104.33
20
-101.508
11
104.332
21
-101.509
0
LINE
8
BLACK
6
CONTINUOUS
10
104.332
20
-101.509
11
104.758
21
-101.688
0
LINE
8
BLACK
6
CONTINUOUS
10
104.758
20
-101.688
11
104.761
21
-101.688
0
LINE
8
BLACK
6
CONTINUOUS
10
104.761
20
-101.688
11
104.761
21
-101.688
0
LINE
8
BLACK
6
CONTINUOUS
10
104.761
20
-101.688
11
105.195
21
-101.83
0
LINE
8
BLACK
6
CONTINUOUS
10
105.195
20
-101.83
11
105.195
21
-101.83
0
LINE
8
BLACK
6
CONTINUOUS
10
105.195
20
-101.83
11
105.197
21
-101.83
0
LINE
8
BLACK
6
CONTINUOUS
10
105.197
20
-101.83
11
105.519
21
-101.906
0
LINE
8
BLACK
6
CONTINUOUS
10
105.519
20
-101.906
11
105.644
21
-101.935
0
LINE
8
BLACK
6
CONTINUOUS
10
105.644
20
-101.935
11
105.644
21
-101.935
0
LINE
8
BLACK
6
CONTINUOUS
10
105.644
20
-101.935
11
105.647
21
-101.936
0
LINE
8
BLACK
6
CONTINUOUS
10
105.647
20
-101.936
11
105.649
21
-101.936
0
LINE
8
BLACK
6
CONTINUOUS
10
105.649
20
-101.936
11
105.649
21
-101.936
0
LINE
8
BLACK
6
CONTINUOUS
10
105.649
20
-101.936
11
106.101
21
-102.003
0
LINE
8
BLACK
6
CONTINUOUS
10
106.101
20
-102.003
11
106.101
21
-102.003
0
LINE
8
BLACK
6
CONTINUOUS
10
106.101
20
-102.003
11
106.104
21
-102.003
0
LINE
8
BLACK
6
CONTINUOUS
10
106.104
20
-102.003
11
106.565
21
-102.032
0
LINE
8
BLACK
6
CONTINUOUS
10
106.565
20
-102.032
11
106.567
21
-102.032
0
LINE
8
BLACK
6
CONTINUOUS
10
106.567
20
-102.032
11
106.567
21
-102.032
0
LINE
8
BLACK
6
CONTINUOUS
10
106.567
20
-102.032
11
106.743
21
-102.029
0
LINE
8
BLACK
6
CONTINUOUS
10
106.743
20
-102.029
11
107.026
21
-102.023
0
LINE
8
BLACK
6
CONTINUOUS
10
107.026
20
-102.023
11
107.485
21
-101.974
0
LINE
8
BLACK
6
CONTINUOUS
10
107.485
20
-101.974
11
107.939
21
-101.888
0
LINE
8
BLACK
6
CONTINUOUS
10
107.939
20
-101.888
11
107.942
21
-101.887
0
LINE
8
BLACK
6
CONTINUOUS
10
107.942
20
-101.887
11
107.942
21
-101.887
0
LINE
8
BLACK
6
CONTINUOUS
10
107.942
20
-101.887
11
108.381
21
-101.764
0
LINE
8
BLACK
6
CONTINUOUS
10
108.381
20
-101.764
11
108.381
21
-101.764
0
LINE
8
BLACK
6
CONTINUOUS
10
108.381
20
-101.764
11
108.384
21
-101.764
0
LINE
8
BLACK
6
CONTINUOUS
10
108.384
20
-101.764
11
108.66
21
-101.661
0
LINE
8
BLACK
6
CONTINUOUS
10
108.66
20
-101.661
11
108.814
21
-101.604
0
LINE
8
BLACK
6
CONTINUOUS
10
108.814
20
-101.604
11
108.814
21
-101.604
0
LINE
8
BLACK
6
CONTINUOUS
10
108.814
20
-101.604
11
108.817
21
-101.603
0
LINE
8
BLACK
6
CONTINUOUS
10
108.817
20
-101.603
11
109.234
21
-101.406
0
LINE
8
BLACK
6
CONTINUOUS
10
109.234
20
-101.406
11
109.634
21
-101.175
0
LINE
8
BLACK
6
CONTINUOUS
10
109.634
20
-101.175
11
110.013
21
-100.912
0
LINE
8
BLACK
6
CONTINUOUS
10
110.013
20
-100.912
11
110.369
21
-100.617
0
LINE
8
BLACK
6
CONTINUOUS
10
110.369
20
-100.617
11
110.66
21
-100.332
0
LINE
8
BLACK
6
CONTINUOUS
10
110.66
20
-100.332
11
110.697
21
-100.296
0
LINE
8
BLACK
6
CONTINUOUS
10
110.697
20
-100.296
11
110.697
21
-100.296
0
LINE
8
BLACK
6
CONTINUOUS
10
110.697
20
-100.296
11
110.699
21
-100.294
0
LINE
8
BLACK
6
CONTINUOUS
10
110.699
20
-100.294
11
111.001
21
-99.9447
0
LINE
8
BLACK
6
CONTINUOUS
10
111.001
20
-99.9447
11
111.272
21
-99.5711
0
LINE
8
BLACK
6
CONTINUOUS
10
111.272
20
-99.5711
11
111.308
21
-99.5128
0
LINE
8
BLACK
6
CONTINUOUS
10
111.308
20
-99.5128
11
111.43
21
-99.3099
0
LINE
8
BLACK
6
CONTINUOUS
10
111.43
20
-99.3099
11
111.511
21
-99.1761
0
LINE
8
BLACK
6
CONTINUOUS
10
111.511
20
-99.1761
11
111.717
21
-98.7625
0
LINE
8
BLACK
6
CONTINUOUS
10
111.717
20
-98.7625
11
111.887
21
-98.3332
0
LINE
8
BLACK
6
CONTINUOUS
10
111.887
20
-98.3332
11
112.02
21
-97.8911
0
LINE
8
BLACK
6
CONTINUOUS
10
112.02
20
-97.8911
11
112.068
21
-97.6663
0
LINE
8
BLACK
6
CONTINUOUS
10
112.068
20
-97.6663
11
112.116
21
-97.442
0
LINE
8
BLACK
6
CONTINUOUS
10
112.116
20
-97.442
11
112.116
21
-97.4395
0
LINE
8
BLACK
6
CONTINUOUS
10
112.116
20
-97.4395
11
112.174
21
-96.9814
0
LINE
8
BLACK
6
CONTINUOUS
10
112.174
20
-96.9814
11
112.184
21
-96.7509
0
LINE
8
BLACK
6
CONTINUOUS
10
112.184
20
-96.7509
11
112.193
21
-96.52
0
LINE
8
BLACK
6
CONTINUOUS
10
112.193
20
-96.52
11
112.191
21
-96.4632
0
LINE
8
BLACK
6
CONTINUOUS
10
94.4111
20
-96.4632
11
94.3942
21
-96.0613
0
LINE
8
BLACK
6
CONTINUOUS
10
94.3942
20
-96.0613
11
94.3942
21
-96.0613
0
LINE
8
BLACK
6
CONTINUOUS
10
94.3942
20
-96.0613
11
94.3941
21
-96.0586
0
LINE
8
BLACK
6
CONTINUOUS
10
94.3941
20
-96.0586
11
94.3363
21
-95.6005
0
LINE
8
BLACK
6
CONTINUOUS
10
94.3363
20
-95.6005
11
94.2886
21
-95.3763
0
LINE
8
BLACK
6
CONTINUOUS
10
94.2886
20
-95.3763
11
94.2408
21
-95.1514
0
LINE
8
BLACK
6
CONTINUOUS
10
94.2408
20
-95.1514
11
94.2408
21
-95.1514
0
LINE
8
BLACK
6
CONTINUOUS
10
94.2408
20
-95.1514
11
94.2403
21
-95.1489
0
LINE
8
BLACK
6
CONTINUOUS
10
94.2403
20
-95.1489
11
94.1068
21
-94.7068
0
LINE
8
BLACK
6
CONTINUOUS
10
94.1068
20
-94.7068
11
93.9368
21
-94.2775
0
LINE
8
BLACK
6
CONTINUOUS
10
93.9368
20
-94.2775
11
93.7315
21
-93.8639
0
LINE
8
BLACK
6
CONTINUOUS
10
93.7315
20
-93.8639
11
93.5559
21
-93.5739
0
LINE
8
BLACK
6
CONTINUOUS
10
93.5559
20
-93.5739
11
93.4937
21
-93.4711
0
LINE
8
BLACK
6
CONTINUOUS
10
93.4937
20
-93.4711
11
93.4936
21
-93.4711
0
LINE
8
BLACK
6
CONTINUOUS
10
93.4936
20
-93.4711
11
93.4923
21
-93.4689
0
LINE
8
BLACK
6
CONTINUOUS
10
93.4923
20
-93.4689
11
93.2209
21
-93.0953
0
LINE
8
BLACK
6
CONTINUOUS
10
93.2209
20
-93.0953
11
92.9191
21
-92.7458
0
LINE
8
BLACK
6
CONTINUOUS
10
92.9191
20
-92.7458
11
92.5892
21
-92.4227
0
LINE
8
BLACK
6
CONTINUOUS
10
92.5892
20
-92.4227
11
92.2334
21
-92.1284
0
LINE
8
BLACK
6
CONTINUOUS
10
92.2334
20
-92.1284
11
91.8543
21
-91.8648
0
LINE
8
BLACK
6
CONTINUOUS
10
91.8543
20
-91.8648
11
91.4544
21
-91.6339
0
LINE
8
BLACK
6
CONTINUOUS
10
91.4544
20
-91.6339
11
91.0366
21
-91.4373
0
LINE
8
BLACK
6
CONTINUOUS
10
91.0366
20
-91.4373
11
91.0341
21
-91.4364
0
LINE
8
BLACK
6
CONTINUOUS
10
91.0341
20
-91.4364
11
91.0341
21
-91.4364
0
LINE
8
BLACK
6
CONTINUOUS
10
91.0341
20
-91.4364
11
90.8058
21
-91.3515
0
LINE
8
BLACK
6
CONTINUOUS
10
90.8058
20
-91.3515
11
90.6038
21
-91.2764
0
LINE
8
BLACK
6
CONTINUOUS
10
90.6038
20
-91.2764
11
90.6012
21
-91.2757
0
LINE
8
BLACK
6
CONTINUOUS
10
90.6012
20
-91.2757
11
90.6012
21
-91.2757
0
LINE
8
BLACK
6
CONTINUOUS
10
90.6012
20
-91.2757
11
90.1615
21
-91.1529
0
LINE
8
BLACK
6
CONTINUOUS
10
90.1615
20
-91.1529
11
90.1615
21
-91.1529
0
LINE
8
BLACK
6
CONTINUOUS
10
90.1615
20
-91.1529
11
90.159
21
-91.1522
0
LINE
8
BLACK
6
CONTINUOUS
10
90.159
20
-91.1522
11
89.7054
21
-91.0657
0
LINE
8
BLACK
6
CONTINUOUS
10
89.7054
20
-91.0657
11
89.2462
21
-91.0174
0
LINE
8
BLACK
6
CONTINUOUS
10
89.2462
20
-91.0174
11
88.9632
21
-91.0115
0
LINE
8
BLACK
6
CONTINUOUS
10
88.9632
20
-91.0115
11
88.7872
21
-91.0078
0
LINE
8
BLACK
6
CONTINUOUS
10
88.7872
20
-91.0078
11
88.7872
21
-91.0078
0
LINE
8
BLACK
6
CONTINUOUS
10
88.7872
20
-91.0078
11
88.7845
21
-91.0077
0
LINE
8
BLACK
6
CONTINUOUS
10
88.7845
20
-91.0077
11
88.3237
21
-91.0367
0
LINE
8
BLACK
6
CONTINUOUS
10
88.3237
20
-91.0367
11
88.3211
21
-91.0371
0
LINE
8
BLACK
6
CONTINUOUS
10
88.3211
20
-91.0371
11
88.3211
21
-91.0371
0
LINE
8
BLACK
6
CONTINUOUS
10
88.3211
20
-91.0371
11
87.8695
21
-91.1038
0
LINE
8
BLACK
6
CONTINUOUS
10
87.8695
20
-91.1038
11
87.8695
21
-91.1038
0
LINE
8
BLACK
6
CONTINUOUS
10
87.8695
20
-91.1038
11
87.8669
21
-91.1042
0
LINE
8
BLACK
6
CONTINUOUS
10
87.8669
20
-91.1042
11
87.8643
21
-91.1048
0
LINE
8
BLACK
6
CONTINUOUS
10
87.8643
20
-91.1048
11
87.8643
21
-91.1048
0
LINE
8
BLACK
6
CONTINUOUS
10
87.8643
20
-91.1048
11
87.8163
21
-91.1161
0
LINE
8
BLACK
6
CONTINUOUS
10
87.8163
20
-91.1161
11
87.4173
21
-91.2096
0
LINE
8
BLACK
6
CONTINUOUS
10
87.4173
20
-91.2096
11
87.4148
21
-91.2104
0
LINE
8
BLACK
6
CONTINUOUS
10
87.4148
20
-91.2104
11
87.4148
21
-91.2105
0
LINE
8
BLACK
6
CONTINUOUS
10
87.4148
20
-91.2105
11
87.2141
21
-91.2757
0
LINE
8
BLACK
6
CONTINUOUS
10
87.2141
20
-91.2757
11
86.9782
21
-91.3523
0
LINE
8
BLACK
6
CONTINUOUS
10
86.9782
20
-91.3523
11
86.5525
21
-91.5313
0
LINE
8
BLACK
6
CONTINUOUS
10
86.5525
20
-91.5313
11
86.5501
21
-91.5325
0
LINE
8
BLACK
6
CONTINUOUS
10
86.5501
20
-91.5325
11
86.5501
21
-91.5325
0
LINE
8
BLACK
6
CONTINUOUS
10
86.5501
20
-91.5325
11
86.1456
21
-91.744
0
LINE
8
BLACK
6
CONTINUOUS
10
86.1456
20
-91.744
11
86.1456
21
-91.744
0
LINE
8
BLACK
6
CONTINUOUS
10
86.1456
20
-91.744
11
86.1433
21
-91.7452
0
LINE
8
BLACK
6
CONTINUOUS
10
86.1433
20
-91.7452
11
86.0906
21
-91.7786
0
LINE
8
BLACK
6
CONTINUOUS
10
86.0906
20
-91.7786
11
85.7556
21
-91.9912
0
LINE
8
BLACK
6
CONTINUOUS
10
85.7556
20
-91.9912
11
85.7556
21
-91.9912
0
LINE
8
BLACK
6
CONTINUOUS
10
85.7556
20
-91.9912
11
85.7534
21
-91.9926
0
LINE
8
BLACK
6
CONTINUOUS
10
85.7534
20
-91.9926
11
85.3856
21
-92.2718
0
LINE
8
BLACK
6
CONTINUOUS
10
85.3856
20
-92.2718
11
85.0424
21
-92.5808
0
LINE
8
BLACK
6
CONTINUOUS
10
85.0424
20
-92.5808
11
85.0406
21
-92.5827
0
LINE
8
BLACK
6
CONTINUOUS
10
85.0406
20
-92.5827
11
85.0406
21
-92.5827
0
LINE
8
BLACK
6
CONTINUOUS
10
85.0406
20
-92.5827
11
84.8586
21
-92.7765
0
LINE
8
BLACK
6
CONTINUOUS
10
84.8586
20
-92.7765
11
84.7263
21
-92.9174
0
LINE
8
BLACK
6
CONTINUOUS
10
84.7263
20
-92.9174
11
84.7247
21
-92.9195
0
LINE
8
BLACK
6
CONTINUOUS
10
84.7247
20
-92.9195
11
84.7247
21
-92.9195
0
LINE
8
BLACK
6
CONTINUOUS
10
84.7247
20
-92.9195
11
84.6409
21
-93.0252
0
LINE
8
BLACK
6
CONTINUOUS
10
84.6409
20
-93.0252
11
84.4395
21
-93.2793
0
LINE
8
BLACK
6
CONTINUOUS
10
84.4395
20
-93.2793
11
84.438
21
-93.2815
0
LINE
8
BLACK
6
CONTINUOUS
10
84.438
20
-93.2815
11
84.1947
21
-93.6477
0
LINE
8
BLACK
6
CONTINUOUS
10
84.1947
20
-93.6477
11
84.184
21
-93.6639
0
LINE
8
BLACK
6
CONTINUOUS
10
84.184
20
-93.6639
11
83.9615
21
-94.0685
0
LINE
8
BLACK
6
CONTINUOUS
10
83.9615
20
-94.0685
11
83.7737
21
-94.4904
0
LINE
8
BLACK
6
CONTINUOUS
10
83.7737
20
-94.4904
11
83.6218
21
-94.9264
0
LINE
8
BLACK
6
CONTINUOUS
10
83.6218
20
-94.9264
11
83.6212
21
-94.929
0
LINE
8
BLACK
6
CONTINUOUS
10
83.6212
20
-94.929
11
83.6212
21
-94.929
0
LINE
8
BLACK
6
CONTINUOUS
10
83.6212
20
-94.929
11
83.5843
21
-95.0725
0
LINE
8
BLACK
6
CONTINUOUS
10
83.5843
20
-95.0725
11
83.507
21
-95.3737
0
LINE
8
BLACK
6
CONTINUOUS
10
83.507
20
-95.3737
11
83.5066
21
-95.3763
0
LINE
8
BLACK
6
CONTINUOUS
10
83.5066
20
-95.3763
11
83.5066
21
-95.3763
0
LINE
8
BLACK
6
CONTINUOUS
10
83.5066
20
-95.3763
11
83.4493
21
-95.715
0
LINE
8
BLACK
6
CONTINUOUS
10
83.4493
20
-95.715
11
83.43
21
-95.829
0
LINE
8
BLACK
6
CONTINUOUS
10
83.43
20
-95.829
11
83.3914
21
-96.2891
0
LINE
8
BLACK
6
CONTINUOUS
10
83.3914
20
-96.2891
11
83.3914
21
-96.7509
0
LINE
8
BLACK
6
CONTINUOUS
10
83.3914
20
-96.7509
11
83.3916
21
-96.7535
0
LINE
8
BLACK
6
CONTINUOUS
10
83.3916
20
-96.7535
11
83.3916
21
-96.7535
0
LINE
8
BLACK
6
CONTINUOUS
10
83.3916
20
-96.7535
11
83.3982
21
-96.8321
0
LINE
8
BLACK
6
CONTINUOUS
10
83.3982
20
-96.8321
11
83.43
21
-97.211
0
LINE
8
BLACK
6
CONTINUOUS
10
83.43
20
-97.211
11
83.4304
21
-97.2136
0
LINE
8
BLACK
6
CONTINUOUS
10
83.4304
20
-97.2136
11
83.4691
21
-97.442
0
LINE
8
BLACK
6
CONTINUOUS
10
83.4691
20
-97.442
11
83.507
21
-97.6663
0
LINE
8
BLACK
6
CONTINUOUS
10
83.507
20
-97.6663
11
83.5077
21
-97.6689
0
LINE
8
BLACK
6
CONTINUOUS
10
83.5077
20
-97.6689
11
83.6119
21
-98.0746
0
LINE
8
BLACK
6
CONTINUOUS
10
83.6119
20
-98.0746
11
83.6218
21
-98.1136
0
LINE
8
BLACK
6
CONTINUOUS
10
83.6218
20
-98.1136
11
83.7737
21
-98.5496
0
LINE
8
BLACK
6
CONTINUOUS
10
83.7737
20
-98.5496
11
83.9615
21
-98.9715
0
LINE
8
BLACK
6
CONTINUOUS
10
83.9615
20
-98.9715
11
84.184
21
-99.3761
0
LINE
8
BLACK
6
CONTINUOUS
10
84.184
20
-99.3761
11
84.1854
21
-99.3783
0
LINE
8
BLACK
6
CONTINUOUS
10
84.1854
20
-99.3783
11
84.1854
21
-99.3783
0
LINE
8
BLACK
6
CONTINUOUS
10
84.1854
20
-99.3783
11
84.3139
21
-99.5717
0
LINE
8
BLACK
6
CONTINUOUS
10
84.3139
20
-99.5717
11
84.4395
21
-99.7607
0
LINE
8
BLACK
6
CONTINUOUS
10
84.4395
20
-99.7607
11
84.5548
21
-99.9061
0
LINE
8
BLACK
6
CONTINUOUS
10
84.5548
20
-99.9061
11
84.7116
21
-100.104
0
LINE
8
BLACK
6
CONTINUOUS
10
84.7116
20
-100.104
11
84.7263
21
-100.123
0
LINE
8
BLACK
6
CONTINUOUS
10
84.7263
20
-100.123
11
84.7281
21
-100.125
0
LINE
8
BLACK
6
CONTINUOUS
10
84.7281
20
-100.125
11
84.7281
21
-100.125
0
LINE
8
BLACK
6
CONTINUOUS
10
84.7281
20
-100.125
11
84.8607
21
-100.266
0
LINE
8
BLACK
6
CONTINUOUS
10
84.8607
20
-100.266
11
85.0424
21
-100.459
0
LINE
8
BLACK
6
CONTINUOUS
10
85.0424
20
-100.459
11
85.3856
21
-100.768
0
LINE
8
BLACK
6
CONTINUOUS
10
85.3856
20
-100.768
11
85.7534
21
-101.047
0
LINE
8
BLACK
6
CONTINUOUS
10
85.7534
20
-101.047
11
85.7556
21
-101.049
0
LINE
8
BLACK
6
CONTINUOUS
10
85.7556
20
-101.049
11
85.7556
21
-101.049
0
LINE
8
BLACK
6
CONTINUOUS
10
85.7556
20
-101.049
11
86.0775
21
-101.253
0
LINE
8
BLACK
6
CONTINUOUS
10
86.0775
20
-101.253
11
86.1433
21
-101.295
0
LINE
8
BLACK
6
CONTINUOUS
10
86.1433
20
-101.295
11
86.1456
21
-101.296
0
LINE
8
BLACK
6
CONTINUOUS
10
86.1456
20
-101.296
11
86.1456
21
-101.296
0
LINE
8
BLACK
6
CONTINUOUS
10
86.1456
20
-101.296
11
86.5501
21
-101.508
0
LINE
8
BLACK
6
CONTINUOUS
10
86.5501
20
-101.508
11
86.5501
21
-101.508
0
LINE
8
BLACK
6
CONTINUOUS
10
86.5501
20
-101.508
11
86.5525
21
-101.509
0
LINE
8
BLACK
6
CONTINUOUS
10
86.5525
20
-101.509
11
86.9782
21
-101.688
0
LINE
8
BLACK
6
CONTINUOUS
10
86.9782
20
-101.688
11
86.9807
21
-101.688
0
LINE
8
BLACK
6
CONTINUOUS
10
86.9807
20
-101.688
11
86.9807
21
-101.688
0
LINE
8
BLACK
6
CONTINUOUS
10
86.9807
20
-101.688
11
87.4148
21
-101.83
0
LINE
8
BLACK
6
CONTINUOUS
10
87.4148
20
-101.83
11
87.4148
21
-101.83
0
LINE
8
BLACK
6
CONTINUOUS
10
87.4148
20
-101.83
11
87.4173
21
-101.83
0
LINE
8
BLACK
6
CONTINUOUS
10
87.4173
20
-101.83
11
87.7385
21
-101.906
0
LINE
8
BLACK
6
CONTINUOUS
10
87.7385
20
-101.906
11
87.8643
21
-101.935
0
LINE
8
BLACK
6
CONTINUOUS
10
87.8643
20
-101.935
11
87.8643
21
-101.935
0
LINE
8
BLACK
6
CONTINUOUS
10
87.8643
20
-101.935
11
87.8669
21
-101.936
0
LINE
8
BLACK
6
CONTINUOUS
10
87.8669
20
-101.936
11
87.8695
21
-101.936
0
LINE
8
BLACK
6
CONTINUOUS
10
87.8695
20
-101.936
11
87.8695
21
-101.936
0
LINE
8
BLACK
6
CONTINUOUS
10
87.8695
20
-101.936
11
88.3211
21
-102.003
0
LINE
8
BLACK
6
CONTINUOUS
10
88.3211
20
-102.003
11
88.3211
21
-102.003
0
LINE
8
BLACK
6
CONTINUOUS
10
88.3211
20
-102.003
11
88.3237
21
-102.003
0
LINE
8
BLACK
6
CONTINUOUS
10
88.3237
20
-102.003
11
88.7845
21
-102.032
0
LINE
8
BLACK
6
CONTINUOUS
10
88.7845
20
-102.032
11
88.7872
21
-102.032
0
LINE
8
BLACK
6
CONTINUOUS
10
88.7872
20
-102.032
11
88.7872
21
-102.032
0
LINE
8
BLACK
6
CONTINUOUS
10
88.7872
20
-102.032
11
88.9632
21
-102.029
0
LINE
8
BLACK
6
CONTINUOUS
10
88.9632
20
-102.029
11
89.2462
21
-102.023
0
LINE
8
BLACK
6
CONTINUOUS
10
89.2462
20
-102.023
11
89.7054
21
-101.974
0
LINE
8
BLACK
6
CONTINUOUS
10
89.7054
20
-101.974
11
90.159
21
-101.888
0
LINE
8
BLACK
6
CONTINUOUS
10
90.159
20
-101.888
11
90.1615
21
-101.887
0
LINE
8
BLACK
6
CONTINUOUS
10
90.1615
20
-101.887
11
90.1615
21
-101.887
0
LINE
8
BLACK
6
CONTINUOUS
10
90.1615
20
-101.887
11
90.6012
21
-101.764
0
LINE
8
BLACK
6
CONTINUOUS
10
90.6012
20
-101.764
11
90.6012
21
-101.764
0
LINE
8
BLACK
6
CONTINUOUS
10
90.6012
20
-101.764
11
90.6038
21
-101.764
0
LINE
8
BLACK
6
CONTINUOUS
10
90.6038
20
-101.764
11
90.8799
21
-101.661
0
LINE
8
BLACK
6
CONTINUOUS
10
90.8799
20
-101.661
11
91.0341
21
-101.604
0
LINE
8
BLACK
6
CONTINUOUS
10
91.0341
20
-101.604
11
91.0341
21
-101.604
0
LINE
8
BLACK
6
CONTINUOUS
10
91.0341
20
-101.604
11
91.0366
21
-101.603
0
LINE
8
BLACK
6
CONTINUOUS
10
91.0366
20
-101.603
11
91.4544
21
-101.406
0
LINE
8
BLACK
6
CONTINUOUS
10
91.4544
20
-101.406
11
91.8543
21
-101.175
0
LINE
8
BLACK
6
CONTINUOUS
10
91.8543
20
-101.175
11
92.2334
21
-100.912
0
LINE
8
BLACK
6
CONTINUOUS
10
92.2334
20
-100.912
11
92.5892
21
-100.617
0
LINE
8
BLACK
6
CONTINUOUS
10
92.5892
20
-100.617
11
92.8802
21
-100.332
0
LINE
8
BLACK
6
CONTINUOUS
10
92.8802
20
-100.332
11
92.9173
21
-100.296
0
LINE
8
BLACK
6
CONTINUOUS
10
92.9173
20
-100.296
11
92.9173
21
-100.296
0
LINE
8
BLACK
6
CONTINUOUS
10
92.9173
20
-100.296
11
92.9191
21
-100.294
0
LINE
8
BLACK
6
CONTINUOUS
10
92.9191
20
-100.294
11
93.2209
21
-99.9447
0
LINE
8
BLACK
6
CONTINUOUS
10
93.2209
20
-99.9447
11
93.4923
21
-99.5711
0
LINE
8
BLACK
6
CONTINUOUS
10
93.4923
20
-99.5711
11
93.5276
21
-99.5128
0
LINE
8
BLACK
6
CONTINUOUS
10
93.5276
20
-99.5128
11
93.6505
21
-99.3099
0
LINE
8
BLACK
6
CONTINUOUS
10
93.6505
20
-99.3099
11
93.7315
21
-99.1761
0
LINE
8
BLACK
6
CONTINUOUS
10
93.7315
20
-99.1761
11
93.9368
21
-98.7625
0
LINE
8
BLACK
6
CONTINUOUS
10
93.9368
20
-98.7625
11
94.1068
21
-98.3332
0
LINE
8
BLACK
6
CONTINUOUS
10
94.1068
20
-98.3332
11
94.2403
21
-97.8911
0
LINE
8
BLACK
6
CONTINUOUS
10
94.2403
20
-97.8911
11
94.288
21
-97.6663
0
LINE
8
BLACK
6
CONTINUOUS
10
94.288
20
-97.6663
11
94.3357
21
-97.442
0
LINE
8
BLACK
6
CONTINUOUS
10
94.3357
20
-97.442
11
94.3363
21
-97.4395
0
LINE
8
BLACK
6
CONTINUOUS
10
94.3363
20
-97.4395
11
94.3941
21
-96.9814
0
LINE
8
BLACK
6
CONTINUOUS
10
94.3941
20
-96.9814
11
94.4038
21
-96.7509
0
LINE
8
BLACK
6
CONTINUOUS
10
94.4038
20
-96.7509
11
94.4135
21
-96.52
0
LINE
8
BLACK
6
CONTINUOUS
10
94.4135
20
-96.52
11
94.4111
21
-96.4632
0
LINE
8
BLACK
6
CONTINUOUS
10
136.732
20
-96.7535
11
136.738
21
-96.8321
0
LINE
8
BLACK
6
CONTINUOUS
10
136.738
20
-96.8321
11
136.77
21
-97.211
0
LINE
8
BLACK
6
CONTINUOUS
10
136.77
20
-97.211
11
136.77
21
-97.2136
0
LINE
8
BLACK
6
CONTINUOUS
10
136.77
20
-97.2136
11
136.809
21
-97.442
0
LINE
8
BLACK
6
CONTINUOUS
10
136.809
20
-97.442
11
136.847
21
-97.6663
0
LINE
8
BLACK
6
CONTINUOUS
10
136.847
20
-97.6663
11
136.848
21
-97.6689
0
LINE
8
BLACK
6
CONTINUOUS
10
136.848
20
-97.6689
11
136.952
21
-98.0746
0
LINE
8
BLACK
6
CONTINUOUS
10
136.952
20
-98.0746
11
136.962
21
-98.1136
0
LINE
8
BLACK
6
CONTINUOUS
10
136.962
20
-98.1136
11
137.114
21
-98.5496
0
LINE
8
BLACK
6
CONTINUOUS
10
137.114
20
-98.5496
11
137.302
21
-98.9715
0
LINE
8
BLACK
6
CONTINUOUS
10
137.302
20
-98.9715
11
137.524
21
-99.3761
0
LINE
8
BLACK
6
CONTINUOUS
10
137.524
20
-99.3761
11
137.525
21
-99.3783
0
LINE
8
BLACK
6
CONTINUOUS
10
137.525
20
-99.3783
11
137.525
21
-99.3783
0
LINE
8
BLACK
6
CONTINUOUS
10
137.525
20
-99.3783
11
137.654
21
-99.5717
0
LINE
8
BLACK
6
CONTINUOUS
10
137.654
20
-99.5717
11
137.78
21
-99.7607
0
LINE
8
BLACK
6
CONTINUOUS
10
137.78
20
-99.7607
11
137.895
21
-99.9061
0
LINE
8
BLACK
6
CONTINUOUS
10
137.895
20
-99.9061
11
138.052
21
-100.104
0
LINE
8
BLACK
6
CONTINUOUS
10
138.052
20
-100.104
11
138.066
21
-100.123
0
LINE
8
BLACK
6
CONTINUOUS
10
138.066
20
-100.123
11
138.068
21
-100.125
0
LINE
8
BLACK
6
CONTINUOUS
10
138.068
20
-100.125
11
138.068
21
-100.125
0
LINE
8
BLACK
6
CONTINUOUS
10
138.068
20
-100.125
11
138.201
21
-100.266
0
LINE
8
BLACK
6
CONTINUOUS
10
138.201
20
-100.266
11
138.382
21
-100.459
0
LINE
8
BLACK
6
CONTINUOUS
10
138.382
20
-100.459
11
138.726
21
-100.768
0
LINE
8
BLACK
6
CONTINUOUS
10
138.726
20
-100.768
11
139.093
21
-101.047
0
LINE
8
BLACK
6
CONTINUOUS
10
139.093
20
-101.047
11
139.096
21
-101.049
0
LINE
8
BLACK
6
CONTINUOUS
10
139.096
20
-101.049
11
139.096
21
-101.049
0
LINE
8
BLACK
6
CONTINUOUS
10
139.096
20
-101.049
11
139.418
21
-101.253
0
LINE
8
BLACK
6
CONTINUOUS
10
139.418
20
-101.253
11
139.483
21
-101.295
0
LINE
8
BLACK
6
CONTINUOUS
10
139.483
20
-101.295
11
139.486
21
-101.296
0
LINE
8
BLACK
6
CONTINUOUS
10
139.486
20
-101.296
11
139.486
21
-101.296
0
LINE
8
BLACK
6
CONTINUOUS
10
139.486
20
-101.296
11
139.89
21
-101.508
0
LINE
8
BLACK
6
CONTINUOUS
10
139.89
20
-101.508
11
139.89
21
-101.508
0
LINE
8
BLACK
6
CONTINUOUS
10
139.89
20
-101.508
11
139.892
21
-101.509
0
LINE
8
BLACK
6
CONTINUOUS
10
139.892
20
-101.509
11
140.318
21
-101.688
0
LINE
8
BLACK
6
CONTINUOUS
10
140.318
20
-101.688
11
140.321
21
-101.688
0
LINE
8
BLACK
6
CONTINUOUS
10
140.321
20
-101.688
11
140.321
21
-101.688
0
LINE
8
BLACK
6
CONTINUOUS
10
140.321
20
-101.688
11
140.755
21
-101.83
0
LINE
8
BLACK
6
CONTINUOUS
10
140.755
20
-101.83
11
140.755
21
-101.83
0
LINE
8
BLACK
6
CONTINUOUS
10
140.755
20
-101.83
11
140.757
21
-101.83
0
LINE
8
BLACK
6
CONTINUOUS
10
140.757
20
-101.83
11
141.079
21
-101.906
0
LINE
8
BLACK
6
CONTINUOUS
10
141.079
20
-101.906
11
141.204
21
-101.935
0
LINE
8
BLACK
6
CONTINUOUS
10
141.204
20
-101.935
11
141.204
21
-101.935
0
LINE
8
BLACK
6
CONTINUOUS
10
141.204
20
-101.935
11
141.207
21
-101.936
0
LINE
8
BLACK
6
CONTINUOUS
10
141.207
20
-101.936
11
141.209
21
-101.936
0
LINE
8
BLACK
6
CONTINUOUS
10
141.209
20
-101.936
11
141.209
21
-101.936
0
LINE
8
BLACK
6
CONTINUOUS
10
141.209
20
-101.936
11
141.661
21
-102.003
0
LINE
8
BLACK
6
CONTINUOUS
10
141.661
20
-102.003
11
141.661
21
-102.003
0
LINE
8
BLACK
6
CONTINUOUS
10
141.661
20
-102.003
11
141.664
21
-102.003
0
LINE
8
BLACK
6
CONTINUOUS
10
141.664
20
-102.003
11
142.125
21
-102.032
0
LINE
8
BLACK
6
CONTINUOUS
10
142.125
20
-102.032
11
142.127
21
-102.032
0
LINE
8
BLACK
6
CONTINUOUS
10
142.127
20
-102.032
11
142.127
21
-102.032
0
LINE
8
BLACK
6
CONTINUOUS
10
142.127
20
-102.032
11
142.303
21
-102.029
0
LINE
8
BLACK
6
CONTINUOUS
10
142.303
20
-102.029
11
142.586
21
-102.023
0
LINE
8
BLACK
6
CONTINUOUS
10
142.586
20
-102.023
11
143.045
21
-101.974
0
LINE
8
BLACK
6
CONTINUOUS
10
143.045
20
-101.974
11
143.499
21
-101.888
0
LINE
8
BLACK
6
CONTINUOUS
10
143.499
20
-101.888
11
143.502
21
-101.887
0
LINE
8
BLACK
6
CONTINUOUS
10
143.502
20
-101.887
11
143.502
21
-101.887
0
LINE
8
BLACK
6
CONTINUOUS
10
143.502
20
-101.887
11
143.941
21
-101.764
0
LINE
8
BLACK
6
CONTINUOUS
10
143.941
20
-101.764
11
143.941
21
-101.764
0
LINE
8
BLACK
6
CONTINUOUS
10
143.941
20
-101.764
11
143.944
21
-101.764
0
LINE
8
BLACK
6
CONTINUOUS
10
143.944
20
-101.764
11
144.22
21
-101.661
0
LINE
8
BLACK
6
CONTINUOUS
10
144.22
20
-101.661
11
144.374
21
-101.604
0
LINE
8
BLACK
6
CONTINUOUS
10
144.374
20
-101.604
11
144.374
21
-101.604
0
LINE
8
BLACK
6
CONTINUOUS
10
144.374
20
-101.604
11
144.377
21
-101.603
0
LINE
8
BLACK
6
CONTINUOUS
10
144.377
20
-101.603
11
144.794
21
-101.406
0
LINE
8
BLACK
6
CONTINUOUS
10
144.794
20
-101.406
11
145.194
21
-101.175
0
LINE
8
BLACK
6
CONTINUOUS
10
145.194
20
-101.175
11
145.573
21
-100.912
0
LINE
8
BLACK
6
CONTINUOUS
10
145.573
20
-100.912
11
145.929
21
-100.617
0
LINE
8
BLACK
6
CONTINUOUS
10
145.929
20
-100.617
11
146.22
21
-100.332
0
LINE
8
BLACK
6
CONTINUOUS
10
146.22
20
-100.332
11
146.257
21
-100.296
0
LINE
8
BLACK
6
CONTINUOUS
10
146.257
20
-100.296
11
146.257
21
-100.296
0
LINE
8
BLACK
6
CONTINUOUS
10
146.257
20
-100.296
11
146.259
21
-100.294
0
LINE
8
BLACK
6
CONTINUOUS
10
146.259
20
-100.294
11
146.561
21
-99.9447
0
LINE
8
BLACK
6
CONTINUOUS
10
146.561
20
-99.9447
11
146.832
21
-99.5711
0
LINE
8
BLACK
6
CONTINUOUS
10
146.832
20
-99.5711
11
146.868
21
-99.5128
0
LINE
8
BLACK
6
CONTINUOUS
10
146.868
20
-99.5128
11
146.99
21
-99.3099
0
LINE
8
BLACK
6
CONTINUOUS
10
146.99
20
-99.3099
11
147.071
21
-99.1761
0
LINE
8
BLACK
6
CONTINUOUS
10
147.071
20
-99.1761
11
147.277
21
-98.7625
0
LINE
8
BLACK
6
CONTINUOUS
10
147.277
20
-98.7625
11
147.447
21
-98.3332
0
LINE
8
BLACK
6
CONTINUOUS
10
147.447
20
-98.3332
11
147.58
21
-97.8911
0
LINE
8
BLACK
6
CONTINUOUS
10
147.58
20
-97.8911
11
147.628
21
-97.6663
0
LINE
8
BLACK
6
CONTINUOUS
10
147.628
20
-97.6663
11
147.676
21
-97.442
0
LINE
8
BLACK
6
CONTINUOUS
10
147.676
20
-97.442
11
147.676
21
-97.4395
0
LINE
8
BLACK
6
CONTINUOUS
10
147.676
20
-97.4395
11
147.734
21
-96.9814
0
LINE
8
BLACK
6
CONTINUOUS
10
147.734
20
-96.9814
11
147.753
21
-96.52
0
LINE
8
BLACK
6
CONTINUOUS
10
147.753
20
-96.52
11
147.751
21
-96.4632
0
LINE
8
BLACK
6
CONTINUOUS
10
147.751
20
-96.4632
11
147.734
21
-96.0613
0
LINE
8
BLACK
6
CONTINUOUS
10
147.734
20
-96.0613
11
147.734
21
-96.0613
0
LINE
8
BLACK
6
CONTINUOUS
10
147.734
20
-96.0613
11
147.734
21
-96.0586
0
LINE
8
BLACK
6
CONTINUOUS
10
147.734
20
-96.0586
11
147.676
21
-95.6005
0
LINE
8
BLACK
6
CONTINUOUS
10
147.676
20
-95.6005
11
147.629
21
-95.3763
0
LINE
8
BLACK
6
CONTINUOUS
10
147.629
20
-95.3763
11
147.602
21
-95.2523
0
LINE
8
BLACK
6
CONTINUOUS
10
147.602
20
-95.2523
11
147.581
21
-95.1514
0
LINE
8
BLACK
6
CONTINUOUS
10
147.581
20
-95.1514
11
147.581
21
-95.1514
0
LINE
8
BLACK
6
CONTINUOUS
10
147.581
20
-95.1514
11
147.58
21
-95.1489
0
LINE
8
BLACK
6
CONTINUOUS
10
147.58
20
-95.1489
11
147.447
21
-94.7068
0
LINE
8
BLACK
6
CONTINUOUS
10
147.447
20
-94.7068
11
147.277
21
-94.2775
0
LINE
8
BLACK
6
CONTINUOUS
10
147.277
20
-94.2775
11
147.071
21
-93.8639
0
LINE
8
BLACK
6
CONTINUOUS
10
147.071
20
-93.8639
11
146.896
21
-93.5739
0
LINE
8
BLACK
6
CONTINUOUS
10
146.896
20
-93.5739
11
146.834
21
-93.4711
0
LINE
8
BLACK
6
CONTINUOUS
10
146.834
20
-93.4711
11
146.834
21
-93.4711
0
LINE
8
BLACK
6
CONTINUOUS
10
146.834
20
-93.4711
11
146.832
21
-93.4689
0
LINE
8
BLACK
6
CONTINUOUS
10
146.832
20
-93.4689
11
146.561
21
-93.0953
0
LINE
8
BLACK
6
CONTINUOUS
10
146.561
20
-93.0953
11
146.259
21
-92.7458
0
LINE
8
BLACK
6
CONTINUOUS
10
146.259
20
-92.7458
11
145.929
21
-92.4227
0
LINE
8
BLACK
6
CONTINUOUS
10
145.929
20
-92.4227
11
145.573
21
-92.1284
0
LINE
8
BLACK
6
CONTINUOUS
10
145.573
20
-92.1284
11
145.194
21
-91.8648
0
LINE
8
BLACK
6
CONTINUOUS
10
145.194
20
-91.8648
11
144.794
21
-91.6339
0
LINE
8
BLACK
6
CONTINUOUS
10
144.794
20
-91.6339
11
144.377
21
-91.4373
0
LINE
8
BLACK
6
CONTINUOUS
10
144.377
20
-91.4373
11
144.374
21
-91.4364
0
LINE
8
BLACK
6
CONTINUOUS
10
144.374
20
-91.4364
11
144.374
21
-91.4364
0
LINE
8
BLACK
6
CONTINUOUS
10
144.374
20
-91.4364
11
144.146
21
-91.3515
0
LINE
8
BLACK
6
CONTINUOUS
10
144.146
20
-91.3515
11
143.944
21
-91.2764
0
LINE
8
BLACK
6
CONTINUOUS
10
143.944
20
-91.2764
11
143.941
21
-91.2757
0
LINE
8
BLACK
6
CONTINUOUS
10
143.941
20
-91.2757
11
143.941
21
-91.2757
0
LINE
8
BLACK
6
CONTINUOUS
10
143.941
20
-91.2757
11
143.502
21
-91.1529
0
LINE
8
BLACK
6
CONTINUOUS
10
143.502
20
-91.1529
11
143.502
21
-91.1529
0
LINE
8
BLACK
6
CONTINUOUS
10
143.502
20
-91.1529
11
143.499
21
-91.1522
0
LINE
8
BLACK
6
CONTINUOUS
10
143.499
20
-91.1522
11
143.045
21
-91.0657
0
LINE
8
BLACK
6
CONTINUOUS
10
143.045
20
-91.0657
11
142.586
21
-91.0174
0
LINE
8
BLACK
6
CONTINUOUS
10
142.586
20
-91.0174
11
142.303
21
-91.0115
0
LINE
8
BLACK
6
CONTINUOUS
10
142.303
20
-91.0115
11
142.127
21
-91.0078
0
LINE
8
BLACK
6
CONTINUOUS
10
142.127
20
-91.0078
11
142.127
21
-91.0078
0
LINE
8
BLACK
6
CONTINUOUS
10
142.127
20
-91.0078
11
142.125
21
-91.0077
0
LINE
8
BLACK
6
CONTINUOUS
10
142.125
20
-91.0077
11
141.664
21
-91.0367
0
LINE
8
BLACK
6
CONTINUOUS
10
141.664
20
-91.0367
11
141.661
21
-91.0371
0
LINE
8
BLACK
6
CONTINUOUS
10
141.661
20
-91.0371
11
141.661
21
-91.0371
0
LINE
8
BLACK
6
CONTINUOUS
10
141.661
20
-91.0371
11
141.209
21
-91.1038
0
LINE
8
BLACK
6
CONTINUOUS
10
141.209
20
-91.1038
11
141.209
21
-91.1038
0
LINE
8
BLACK
6
CONTINUOUS
10
141.209
20
-91.1038
11
141.207
21
-91.1042
0
LINE
8
BLACK
6
CONTINUOUS
10
141.207
20
-91.1042
11
141.204
21
-91.1048
0
LINE
8
BLACK
6
CONTINUOUS
10
141.204
20
-91.1048
11
141.204
21
-91.1048
0
LINE
8
BLACK
6
CONTINUOUS
10
141.204
20
-91.1048
11
141.156
21
-91.1161
0
LINE
8
BLACK
6
CONTINUOUS
10
141.156
20
-91.1161
11
140.757
21
-91.2096
0
LINE
8
BLACK
6
CONTINUOUS
10
140.757
20
-91.2096
11
140.755
21
-91.2104
0
LINE
8
BLACK
6
CONTINUOUS
10
140.755
20
-91.2104
11
140.755
21
-91.2105
0
LINE
8
BLACK
6
CONTINUOUS
10
140.755
20
-91.2105
11
140.554
21
-91.2757
0
LINE
8
BLACK
6
CONTINUOUS
10
140.554
20
-91.2757
11
140.318
21
-91.3523
0
LINE
8
BLACK
6
CONTINUOUS
10
140.318
20
-91.3523
11
139.892
21
-91.5313
0
LINE
8
BLACK
6
CONTINUOUS
10
139.892
20
-91.5313
11
139.89
21
-91.5325
0
LINE
8
BLACK
6
CONTINUOUS
10
139.89
20
-91.5325
11
139.89
21
-91.5325
0
LINE
8
BLACK
6
CONTINUOUS
10
139.89
20
-91.5325
11
139.486
21
-91.744
0
LINE
8
BLACK
6
CONTINUOUS
10
139.486
20
-91.744
11
139.486
21
-91.744
0
LINE
8
BLACK
6
CONTINUOUS
10
139.486
20
-91.744
11
139.483
21
-91.7452
0
LINE
8
BLACK
6
CONTINUOUS
10
139.483
20
-91.7452
11
139.431
21
-91.7786
0
LINE
8
BLACK
6
CONTINUOUS
10
139.431
20
-91.7786
11
139.096
21
-91.9912
0
LINE
8
BLACK
6
CONTINUOUS
10
139.096
20
-91.9912
11
139.096
21
-91.9912
0
LINE
8
BLACK
6
CONTINUOUS
10
139.096
20
-91.9912
11
139.093
21
-91.9926
0
LINE
8
BLACK
6
CONTINUOUS
10
139.093
20
-91.9926
11
138.726
21
-92.2718
0
LINE
8
BLACK
6
CONTINUOUS
10
138.726
20
-92.2718
11
138.382
21
-92.5808
0
LINE
8
BLACK
6
CONTINUOUS
10
138.382
20
-92.5808
11
138.381
21
-92.5827
0
LINE
8
BLACK
6
CONTINUOUS
10
138.381
20
-92.5827
11
138.381
21
-92.5827
0
LINE
8
BLACK
6
CONTINUOUS
10
138.381
20
-92.5827
11
138.199
21
-92.7765
0
LINE
8
BLACK
6
CONTINUOUS
10
138.199
20
-92.7765
11
138.066
21
-92.9174
0
LINE
8
BLACK
6
CONTINUOUS
10
138.066
20
-92.9174
11
138.065
21
-92.9195
0
LINE
8
BLACK
6
CONTINUOUS
10
138.065
20
-92.9195
11
138.065
21
-92.9195
0
LINE
8
BLACK
6
CONTINUOUS
10
138.065
20
-92.9195
11
137.981
21
-93.0252
0
LINE
8
BLACK
6
CONTINUOUS
10
137.981
20
-93.0252
11
137.78
21
-93.2793
0
LINE
8
BLACK
6
CONTINUOUS
10
137.78
20
-93.2793
11
137.778
21
-93.2815
0
LINE
8
BLACK
6
CONTINUOUS
10
137.778
20
-93.2815
11
137.535
21
-93.6477
0
LINE
8
BLACK
6
CONTINUOUS
10
137.535
20
-93.6477
11
137.524
21
-93.6639
0
LINE
8
BLACK
6
CONTINUOUS
10
137.524
20
-93.6639
11
137.302
21
-94.0685
0
LINE
8
BLACK
6
CONTINUOUS
10
137.302
20
-94.0685
11
137.114
21
-94.4904
0
LINE
8
BLACK
6
CONTINUOUS
10
137.114
20
-94.4904
11
136.962
21
-94.9264
0
LINE
8
BLACK
6
CONTINUOUS
10
136.962
20
-94.9264
11
136.961
21
-94.929
0
LINE
8
BLACK
6
CONTINUOUS
10
136.961
20
-94.929
11
136.961
21
-94.929
0
LINE
8
BLACK
6
CONTINUOUS
10
136.961
20
-94.929
11
136.924
21
-95.0725
0
LINE
8
BLACK
6
CONTINUOUS
10
136.924
20
-95.0725
11
136.847
21
-95.3737
0
LINE
8
BLACK
6
CONTINUOUS
10
136.847
20
-95.3737
11
136.847
21
-95.3763
0
LINE
8
BLACK
6
CONTINUOUS
10
136.847
20
-95.3763
11
136.847
21
-95.3763
0
LINE
8
BLACK
6
CONTINUOUS
10
136.847
20
-95.3763
11
136.789
21
-95.715
0
LINE
8
BLACK
6
CONTINUOUS
10
136.789
20
-95.715
11
136.77
21
-95.829
0
LINE
8
BLACK
6
CONTINUOUS
10
136.77
20
-95.829
11
136.731
21
-96.2891
0
LINE
8
BLACK
6
CONTINUOUS
10
136.731
20
-96.2891
11
136.731
21
-96.7509
0
LINE
8
BLACK
6
CONTINUOUS
10
136.731
20
-96.7509
11
136.732
21
-96.7535
0
LINE
8
BLACK
6
CONTINUOUS
10
136.732
20
-96.7535
11
136.732
21
-96.7535
0
CIRCLE
8
BLACK
10
159.131
20
-107.95
40
0.2
  0
ENDSEC
  0
EOF
