G04 #@! TF.GenerationSoftware,KiCad,Pcbnew,5.1.10-88a1d61d58~90~ubuntu20.04.1*
G04 #@! TF.CreationDate,2021-08-08T15:21:02-04:00*
G04 #@! TF.ProjectId,stereo_whooshy_sound_main_pcb,73746572-656f-45f7-9768-6f6f7368795f,0*
G04 #@! TF.SameCoordinates,Original*
G04 #@! TF.FileFunction,Copper,L4,Bot*
G04 #@! TF.FilePolarity,Positive*
%FSLAX46Y46*%
G04 Gerber Fmt 4.6, Leading zero omitted, Abs format (unit mm)*
G04 Created by KiCad (PCBNEW 5.1.10-88a1d61d58~90~ubuntu20.04.1) date 2021-08-08 15:21:02*
%MOMM*%
%LPD*%
G01*
G04 APERTURE LIST*
G04 #@! TA.AperFunction,SMDPad,CuDef*
%ADD10R,0.800000X0.900000*%
G04 #@! TD*
G04 #@! TA.AperFunction,ComponentPad*
%ADD11C,3.000000*%
G04 #@! TD*
G04 #@! TA.AperFunction,ComponentPad*
%ADD12C,2.000000*%
G04 #@! TD*
G04 #@! TA.AperFunction,ComponentPad*
%ADD13O,2.000000X3.500000*%
G04 #@! TD*
G04 #@! TA.AperFunction,ComponentPad*
%ADD14O,3.300000X2.000000*%
G04 #@! TD*
G04 #@! TA.AperFunction,ComponentPad*
%ADD15R,4.000000X2.000000*%
G04 #@! TD*
G04 #@! TA.AperFunction,SMDPad,CuDef*
%ADD16R,0.400000X1.100000*%
G04 #@! TD*
G04 #@! TA.AperFunction,SMDPad,CuDef*
%ADD17R,0.650000X1.220000*%
G04 #@! TD*
G04 #@! TA.AperFunction,SMDPad,CuDef*
%ADD18R,2.000000X1.500000*%
G04 #@! TD*
G04 #@! TA.AperFunction,SMDPad,CuDef*
%ADD19R,2.000000X3.800000*%
G04 #@! TD*
G04 #@! TA.AperFunction,SMDPad,CuDef*
%ADD20R,1.500000X4.200000*%
G04 #@! TD*
G04 #@! TA.AperFunction,ComponentPad*
%ADD21O,1.700000X1.700000*%
G04 #@! TD*
G04 #@! TA.AperFunction,ComponentPad*
%ADD22R,1.700000X1.700000*%
G04 #@! TD*
G04 #@! TA.AperFunction,ComponentPad*
%ADD23C,1.800000*%
G04 #@! TD*
G04 #@! TA.AperFunction,ComponentPad*
%ADD24R,1.800000X1.800000*%
G04 #@! TD*
G04 #@! TA.AperFunction,SMDPad,CuDef*
%ADD25R,1.100000X1.100000*%
G04 #@! TD*
G04 #@! TA.AperFunction,SMDPad,CuDef*
%ADD26R,1.200000X0.900000*%
G04 #@! TD*
G04 #@! TA.AperFunction,ComponentPad*
%ADD27C,1.600000*%
G04 #@! TD*
G04 #@! TA.AperFunction,ComponentPad*
%ADD28O,2.720000X3.240000*%
G04 #@! TD*
G04 #@! TA.AperFunction,ComponentPad*
%ADD29C,2.500000*%
G04 #@! TD*
G04 #@! TA.AperFunction,ViaPad*
%ADD30C,0.800000*%
G04 #@! TD*
G04 #@! TA.AperFunction,Conductor*
%ADD31C,0.400000*%
G04 #@! TD*
G04 #@! TA.AperFunction,Conductor*
%ADD32C,1.000000*%
G04 #@! TD*
G04 #@! TA.AperFunction,Conductor*
%ADD33C,0.700000*%
G04 #@! TD*
G04 #@! TA.AperFunction,Conductor*
%ADD34C,0.500000*%
G04 #@! TD*
G04 APERTURE END LIST*
D10*
X87376000Y-78756000D03*
X86426000Y-80756000D03*
X88326000Y-80756000D03*
G04 #@! TA.AperFunction,SMDPad,CuDef*
G36*
G01*
X84476000Y-75013000D02*
X83926000Y-75013000D01*
G75*
G02*
X83726000Y-74813000I0J200000D01*
G01*
X83726000Y-74413000D01*
G75*
G02*
X83926000Y-74213000I200000J0D01*
G01*
X84476000Y-74213000D01*
G75*
G02*
X84676000Y-74413000I0J-200000D01*
G01*
X84676000Y-74813000D01*
G75*
G02*
X84476000Y-75013000I-200000J0D01*
G01*
G37*
G04 #@! TD.AperFunction*
G04 #@! TA.AperFunction,SMDPad,CuDef*
G36*
G01*
X84476000Y-76663000D02*
X83926000Y-76663000D01*
G75*
G02*
X83726000Y-76463000I0J200000D01*
G01*
X83726000Y-76063000D01*
G75*
G02*
X83926000Y-75863000I200000J0D01*
G01*
X84476000Y-75863000D01*
G75*
G02*
X84676000Y-76063000I0J-200000D01*
G01*
X84676000Y-76463000D01*
G75*
G02*
X84476000Y-76663000I-200000J0D01*
G01*
G37*
G04 #@! TD.AperFunction*
G04 #@! TA.AperFunction,SMDPad,CuDef*
G36*
G01*
X90826000Y-75013000D02*
X90276000Y-75013000D01*
G75*
G02*
X90076000Y-74813000I0J200000D01*
G01*
X90076000Y-74413000D01*
G75*
G02*
X90276000Y-74213000I200000J0D01*
G01*
X90826000Y-74213000D01*
G75*
G02*
X91026000Y-74413000I0J-200000D01*
G01*
X91026000Y-74813000D01*
G75*
G02*
X90826000Y-75013000I-200000J0D01*
G01*
G37*
G04 #@! TD.AperFunction*
G04 #@! TA.AperFunction,SMDPad,CuDef*
G36*
G01*
X90826000Y-76663000D02*
X90276000Y-76663000D01*
G75*
G02*
X90076000Y-76463000I0J200000D01*
G01*
X90076000Y-76063000D01*
G75*
G02*
X90276000Y-75863000I200000J0D01*
G01*
X90826000Y-75863000D01*
G75*
G02*
X91026000Y-76063000I0J-200000D01*
G01*
X91026000Y-76463000D01*
G75*
G02*
X90826000Y-76663000I-200000J0D01*
G01*
G37*
G04 #@! TD.AperFunction*
G04 #@! TA.AperFunction,SMDPad,CuDef*
G36*
G01*
X87651000Y-75013000D02*
X87101000Y-75013000D01*
G75*
G02*
X86901000Y-74813000I0J200000D01*
G01*
X86901000Y-74413000D01*
G75*
G02*
X87101000Y-74213000I200000J0D01*
G01*
X87651000Y-74213000D01*
G75*
G02*
X87851000Y-74413000I0J-200000D01*
G01*
X87851000Y-74813000D01*
G75*
G02*
X87651000Y-75013000I-200000J0D01*
G01*
G37*
G04 #@! TD.AperFunction*
G04 #@! TA.AperFunction,SMDPad,CuDef*
G36*
G01*
X87651000Y-76663000D02*
X87101000Y-76663000D01*
G75*
G02*
X86901000Y-76463000I0J200000D01*
G01*
X86901000Y-76063000D01*
G75*
G02*
X87101000Y-75863000I200000J0D01*
G01*
X87651000Y-75863000D01*
G75*
G02*
X87851000Y-76063000I0J-200000D01*
G01*
X87851000Y-76463000D01*
G75*
G02*
X87651000Y-76663000I-200000J0D01*
G01*
G37*
G04 #@! TD.AperFunction*
G04 #@! TA.AperFunction,SMDPad,CuDef*
G36*
G01*
X101748000Y-75013000D02*
X101198000Y-75013000D01*
G75*
G02*
X100998000Y-74813000I0J200000D01*
G01*
X100998000Y-74413000D01*
G75*
G02*
X101198000Y-74213000I200000J0D01*
G01*
X101748000Y-74213000D01*
G75*
G02*
X101948000Y-74413000I0J-200000D01*
G01*
X101948000Y-74813000D01*
G75*
G02*
X101748000Y-75013000I-200000J0D01*
G01*
G37*
G04 #@! TD.AperFunction*
G04 #@! TA.AperFunction,SMDPad,CuDef*
G36*
G01*
X101748000Y-76663000D02*
X101198000Y-76663000D01*
G75*
G02*
X100998000Y-76463000I0J200000D01*
G01*
X100998000Y-76063000D01*
G75*
G02*
X101198000Y-75863000I200000J0D01*
G01*
X101748000Y-75863000D01*
G75*
G02*
X101948000Y-76063000I0J-200000D01*
G01*
X101948000Y-76463000D01*
G75*
G02*
X101748000Y-76663000I-200000J0D01*
G01*
G37*
G04 #@! TD.AperFunction*
G04 #@! TA.AperFunction,SMDPad,CuDef*
G36*
G01*
X95652000Y-75013000D02*
X95102000Y-75013000D01*
G75*
G02*
X94902000Y-74813000I0J200000D01*
G01*
X94902000Y-74413000D01*
G75*
G02*
X95102000Y-74213000I200000J0D01*
G01*
X95652000Y-74213000D01*
G75*
G02*
X95852000Y-74413000I0J-200000D01*
G01*
X95852000Y-74813000D01*
G75*
G02*
X95652000Y-75013000I-200000J0D01*
G01*
G37*
G04 #@! TD.AperFunction*
G04 #@! TA.AperFunction,SMDPad,CuDef*
G36*
G01*
X95652000Y-76663000D02*
X95102000Y-76663000D01*
G75*
G02*
X94902000Y-76463000I0J200000D01*
G01*
X94902000Y-76063000D01*
G75*
G02*
X95102000Y-75863000I200000J0D01*
G01*
X95652000Y-75863000D01*
G75*
G02*
X95852000Y-76063000I0J-200000D01*
G01*
X95852000Y-76463000D01*
G75*
G02*
X95652000Y-76663000I-200000J0D01*
G01*
G37*
G04 #@! TD.AperFunction*
G04 #@! TA.AperFunction,SMDPad,CuDef*
G36*
G01*
X98700000Y-75013000D02*
X98150000Y-75013000D01*
G75*
G02*
X97950000Y-74813000I0J200000D01*
G01*
X97950000Y-74413000D01*
G75*
G02*
X98150000Y-74213000I200000J0D01*
G01*
X98700000Y-74213000D01*
G75*
G02*
X98900000Y-74413000I0J-200000D01*
G01*
X98900000Y-74813000D01*
G75*
G02*
X98700000Y-75013000I-200000J0D01*
G01*
G37*
G04 #@! TD.AperFunction*
G04 #@! TA.AperFunction,SMDPad,CuDef*
G36*
G01*
X98700000Y-76663000D02*
X98150000Y-76663000D01*
G75*
G02*
X97950000Y-76463000I0J200000D01*
G01*
X97950000Y-76063000D01*
G75*
G02*
X98150000Y-75863000I200000J0D01*
G01*
X98700000Y-75863000D01*
G75*
G02*
X98900000Y-76063000I0J-200000D01*
G01*
X98900000Y-76463000D01*
G75*
G02*
X98700000Y-76663000I-200000J0D01*
G01*
G37*
G04 #@! TD.AperFunction*
G04 #@! TA.AperFunction,SMDPad,CuDef*
G36*
G01*
X110431000Y-42321000D02*
X110631000Y-42321000D01*
G75*
G02*
X110731000Y-42421000I0J-100000D01*
G01*
X110731000Y-43846000D01*
G75*
G02*
X110631000Y-43946000I-100000J0D01*
G01*
X110431000Y-43946000D01*
G75*
G02*
X110331000Y-43846000I0J100000D01*
G01*
X110331000Y-42421000D01*
G75*
G02*
X110431000Y-42321000I100000J0D01*
G01*
G37*
G04 #@! TD.AperFunction*
G04 #@! TA.AperFunction,SMDPad,CuDef*
G36*
G01*
X111081000Y-42321000D02*
X111281000Y-42321000D01*
G75*
G02*
X111381000Y-42421000I0J-100000D01*
G01*
X111381000Y-43846000D01*
G75*
G02*
X111281000Y-43946000I-100000J0D01*
G01*
X111081000Y-43946000D01*
G75*
G02*
X110981000Y-43846000I0J100000D01*
G01*
X110981000Y-42421000D01*
G75*
G02*
X111081000Y-42321000I100000J0D01*
G01*
G37*
G04 #@! TD.AperFunction*
G04 #@! TA.AperFunction,SMDPad,CuDef*
G36*
G01*
X111731000Y-42321000D02*
X111931000Y-42321000D01*
G75*
G02*
X112031000Y-42421000I0J-100000D01*
G01*
X112031000Y-43846000D01*
G75*
G02*
X111931000Y-43946000I-100000J0D01*
G01*
X111731000Y-43946000D01*
G75*
G02*
X111631000Y-43846000I0J100000D01*
G01*
X111631000Y-42421000D01*
G75*
G02*
X111731000Y-42321000I100000J0D01*
G01*
G37*
G04 #@! TD.AperFunction*
G04 #@! TA.AperFunction,SMDPad,CuDef*
G36*
G01*
X112381000Y-42321000D02*
X112581000Y-42321000D01*
G75*
G02*
X112681000Y-42421000I0J-100000D01*
G01*
X112681000Y-43846000D01*
G75*
G02*
X112581000Y-43946000I-100000J0D01*
G01*
X112381000Y-43946000D01*
G75*
G02*
X112281000Y-43846000I0J100000D01*
G01*
X112281000Y-42421000D01*
G75*
G02*
X112381000Y-42321000I100000J0D01*
G01*
G37*
G04 #@! TD.AperFunction*
G04 #@! TA.AperFunction,SMDPad,CuDef*
G36*
G01*
X112381000Y-38096000D02*
X112581000Y-38096000D01*
G75*
G02*
X112681000Y-38196000I0J-100000D01*
G01*
X112681000Y-39621000D01*
G75*
G02*
X112581000Y-39721000I-100000J0D01*
G01*
X112381000Y-39721000D01*
G75*
G02*
X112281000Y-39621000I0J100000D01*
G01*
X112281000Y-38196000D01*
G75*
G02*
X112381000Y-38096000I100000J0D01*
G01*
G37*
G04 #@! TD.AperFunction*
G04 #@! TA.AperFunction,SMDPad,CuDef*
G36*
G01*
X111731000Y-38096000D02*
X111931000Y-38096000D01*
G75*
G02*
X112031000Y-38196000I0J-100000D01*
G01*
X112031000Y-39621000D01*
G75*
G02*
X111931000Y-39721000I-100000J0D01*
G01*
X111731000Y-39721000D01*
G75*
G02*
X111631000Y-39621000I0J100000D01*
G01*
X111631000Y-38196000D01*
G75*
G02*
X111731000Y-38096000I100000J0D01*
G01*
G37*
G04 #@! TD.AperFunction*
G04 #@! TA.AperFunction,SMDPad,CuDef*
G36*
G01*
X111081000Y-38096000D02*
X111281000Y-38096000D01*
G75*
G02*
X111381000Y-38196000I0J-100000D01*
G01*
X111381000Y-39621000D01*
G75*
G02*
X111281000Y-39721000I-100000J0D01*
G01*
X111081000Y-39721000D01*
G75*
G02*
X110981000Y-39621000I0J100000D01*
G01*
X110981000Y-38196000D01*
G75*
G02*
X111081000Y-38096000I100000J0D01*
G01*
G37*
G04 #@! TD.AperFunction*
G04 #@! TA.AperFunction,SMDPad,CuDef*
G36*
G01*
X110431000Y-38096000D02*
X110631000Y-38096000D01*
G75*
G02*
X110731000Y-38196000I0J-100000D01*
G01*
X110731000Y-39621000D01*
G75*
G02*
X110631000Y-39721000I-100000J0D01*
G01*
X110431000Y-39721000D01*
G75*
G02*
X110331000Y-39621000I0J100000D01*
G01*
X110331000Y-38196000D01*
G75*
G02*
X110431000Y-38096000I100000J0D01*
G01*
G37*
G04 #@! TD.AperFunction*
G04 #@! TA.AperFunction,SMDPad,CuDef*
G36*
G01*
X85666000Y-38096000D02*
X85866000Y-38096000D01*
G75*
G02*
X85966000Y-38196000I0J-100000D01*
G01*
X85966000Y-39621000D01*
G75*
G02*
X85866000Y-39721000I-100000J0D01*
G01*
X85666000Y-39721000D01*
G75*
G02*
X85566000Y-39621000I0J100000D01*
G01*
X85566000Y-38196000D01*
G75*
G02*
X85666000Y-38096000I100000J0D01*
G01*
G37*
G04 #@! TD.AperFunction*
G04 #@! TA.AperFunction,SMDPad,CuDef*
G36*
G01*
X86316000Y-38096000D02*
X86516000Y-38096000D01*
G75*
G02*
X86616000Y-38196000I0J-100000D01*
G01*
X86616000Y-39621000D01*
G75*
G02*
X86516000Y-39721000I-100000J0D01*
G01*
X86316000Y-39721000D01*
G75*
G02*
X86216000Y-39621000I0J100000D01*
G01*
X86216000Y-38196000D01*
G75*
G02*
X86316000Y-38096000I100000J0D01*
G01*
G37*
G04 #@! TD.AperFunction*
G04 #@! TA.AperFunction,SMDPad,CuDef*
G36*
G01*
X86966000Y-38096000D02*
X87166000Y-38096000D01*
G75*
G02*
X87266000Y-38196000I0J-100000D01*
G01*
X87266000Y-39621000D01*
G75*
G02*
X87166000Y-39721000I-100000J0D01*
G01*
X86966000Y-39721000D01*
G75*
G02*
X86866000Y-39621000I0J100000D01*
G01*
X86866000Y-38196000D01*
G75*
G02*
X86966000Y-38096000I100000J0D01*
G01*
G37*
G04 #@! TD.AperFunction*
G04 #@! TA.AperFunction,SMDPad,CuDef*
G36*
G01*
X87616000Y-38096000D02*
X87816000Y-38096000D01*
G75*
G02*
X87916000Y-38196000I0J-100000D01*
G01*
X87916000Y-39621000D01*
G75*
G02*
X87816000Y-39721000I-100000J0D01*
G01*
X87616000Y-39721000D01*
G75*
G02*
X87516000Y-39621000I0J100000D01*
G01*
X87516000Y-38196000D01*
G75*
G02*
X87616000Y-38096000I100000J0D01*
G01*
G37*
G04 #@! TD.AperFunction*
G04 #@! TA.AperFunction,SMDPad,CuDef*
G36*
G01*
X87616000Y-42321000D02*
X87816000Y-42321000D01*
G75*
G02*
X87916000Y-42421000I0J-100000D01*
G01*
X87916000Y-43846000D01*
G75*
G02*
X87816000Y-43946000I-100000J0D01*
G01*
X87616000Y-43946000D01*
G75*
G02*
X87516000Y-43846000I0J100000D01*
G01*
X87516000Y-42421000D01*
G75*
G02*
X87616000Y-42321000I100000J0D01*
G01*
G37*
G04 #@! TD.AperFunction*
G04 #@! TA.AperFunction,SMDPad,CuDef*
G36*
G01*
X86966000Y-42321000D02*
X87166000Y-42321000D01*
G75*
G02*
X87266000Y-42421000I0J-100000D01*
G01*
X87266000Y-43846000D01*
G75*
G02*
X87166000Y-43946000I-100000J0D01*
G01*
X86966000Y-43946000D01*
G75*
G02*
X86866000Y-43846000I0J100000D01*
G01*
X86866000Y-42421000D01*
G75*
G02*
X86966000Y-42321000I100000J0D01*
G01*
G37*
G04 #@! TD.AperFunction*
G04 #@! TA.AperFunction,SMDPad,CuDef*
G36*
G01*
X86316000Y-42321000D02*
X86516000Y-42321000D01*
G75*
G02*
X86616000Y-42421000I0J-100000D01*
G01*
X86616000Y-43846000D01*
G75*
G02*
X86516000Y-43946000I-100000J0D01*
G01*
X86316000Y-43946000D01*
G75*
G02*
X86216000Y-43846000I0J100000D01*
G01*
X86216000Y-42421000D01*
G75*
G02*
X86316000Y-42321000I100000J0D01*
G01*
G37*
G04 #@! TD.AperFunction*
G04 #@! TA.AperFunction,SMDPad,CuDef*
G36*
G01*
X85666000Y-42321000D02*
X85866000Y-42321000D01*
G75*
G02*
X85966000Y-42421000I0J-100000D01*
G01*
X85966000Y-43846000D01*
G75*
G02*
X85866000Y-43946000I-100000J0D01*
G01*
X85666000Y-43946000D01*
G75*
G02*
X85566000Y-43846000I0J100000D01*
G01*
X85566000Y-42421000D01*
G75*
G02*
X85666000Y-42321000I100000J0D01*
G01*
G37*
G04 #@! TD.AperFunction*
G04 #@! TA.AperFunction,SMDPad,CuDef*
G36*
G01*
X85580000Y-68165000D02*
X85780000Y-68165000D01*
G75*
G02*
X85880000Y-68265000I0J-100000D01*
G01*
X85880000Y-69540000D01*
G75*
G02*
X85780000Y-69640000I-100000J0D01*
G01*
X85580000Y-69640000D01*
G75*
G02*
X85480000Y-69540000I0J100000D01*
G01*
X85480000Y-68265000D01*
G75*
G02*
X85580000Y-68165000I100000J0D01*
G01*
G37*
G04 #@! TD.AperFunction*
G04 #@! TA.AperFunction,SMDPad,CuDef*
G36*
G01*
X86230000Y-68165000D02*
X86430000Y-68165000D01*
G75*
G02*
X86530000Y-68265000I0J-100000D01*
G01*
X86530000Y-69540000D01*
G75*
G02*
X86430000Y-69640000I-100000J0D01*
G01*
X86230000Y-69640000D01*
G75*
G02*
X86130000Y-69540000I0J100000D01*
G01*
X86130000Y-68265000D01*
G75*
G02*
X86230000Y-68165000I100000J0D01*
G01*
G37*
G04 #@! TD.AperFunction*
G04 #@! TA.AperFunction,SMDPad,CuDef*
G36*
G01*
X86880000Y-68165000D02*
X87080000Y-68165000D01*
G75*
G02*
X87180000Y-68265000I0J-100000D01*
G01*
X87180000Y-69540000D01*
G75*
G02*
X87080000Y-69640000I-100000J0D01*
G01*
X86880000Y-69640000D01*
G75*
G02*
X86780000Y-69540000I0J100000D01*
G01*
X86780000Y-68265000D01*
G75*
G02*
X86880000Y-68165000I100000J0D01*
G01*
G37*
G04 #@! TD.AperFunction*
G04 #@! TA.AperFunction,SMDPad,CuDef*
G36*
G01*
X87530000Y-68165000D02*
X87730000Y-68165000D01*
G75*
G02*
X87830000Y-68265000I0J-100000D01*
G01*
X87830000Y-69540000D01*
G75*
G02*
X87730000Y-69640000I-100000J0D01*
G01*
X87530000Y-69640000D01*
G75*
G02*
X87430000Y-69540000I0J100000D01*
G01*
X87430000Y-68265000D01*
G75*
G02*
X87530000Y-68165000I100000J0D01*
G01*
G37*
G04 #@! TD.AperFunction*
G04 #@! TA.AperFunction,SMDPad,CuDef*
G36*
G01*
X88180000Y-68165000D02*
X88380000Y-68165000D01*
G75*
G02*
X88480000Y-68265000I0J-100000D01*
G01*
X88480000Y-69540000D01*
G75*
G02*
X88380000Y-69640000I-100000J0D01*
G01*
X88180000Y-69640000D01*
G75*
G02*
X88080000Y-69540000I0J100000D01*
G01*
X88080000Y-68265000D01*
G75*
G02*
X88180000Y-68165000I100000J0D01*
G01*
G37*
G04 #@! TD.AperFunction*
G04 #@! TA.AperFunction,SMDPad,CuDef*
G36*
G01*
X88830000Y-68165000D02*
X89030000Y-68165000D01*
G75*
G02*
X89130000Y-68265000I0J-100000D01*
G01*
X89130000Y-69540000D01*
G75*
G02*
X89030000Y-69640000I-100000J0D01*
G01*
X88830000Y-69640000D01*
G75*
G02*
X88730000Y-69540000I0J100000D01*
G01*
X88730000Y-68265000D01*
G75*
G02*
X88830000Y-68165000I100000J0D01*
G01*
G37*
G04 #@! TD.AperFunction*
G04 #@! TA.AperFunction,SMDPad,CuDef*
G36*
G01*
X89480000Y-68165000D02*
X89680000Y-68165000D01*
G75*
G02*
X89780000Y-68265000I0J-100000D01*
G01*
X89780000Y-69540000D01*
G75*
G02*
X89680000Y-69640000I-100000J0D01*
G01*
X89480000Y-69640000D01*
G75*
G02*
X89380000Y-69540000I0J100000D01*
G01*
X89380000Y-68265000D01*
G75*
G02*
X89480000Y-68165000I100000J0D01*
G01*
G37*
G04 #@! TD.AperFunction*
G04 #@! TA.AperFunction,SMDPad,CuDef*
G36*
G01*
X89480000Y-62440000D02*
X89680000Y-62440000D01*
G75*
G02*
X89780000Y-62540000I0J-100000D01*
G01*
X89780000Y-63815000D01*
G75*
G02*
X89680000Y-63915000I-100000J0D01*
G01*
X89480000Y-63915000D01*
G75*
G02*
X89380000Y-63815000I0J100000D01*
G01*
X89380000Y-62540000D01*
G75*
G02*
X89480000Y-62440000I100000J0D01*
G01*
G37*
G04 #@! TD.AperFunction*
G04 #@! TA.AperFunction,SMDPad,CuDef*
G36*
G01*
X88830000Y-62440000D02*
X89030000Y-62440000D01*
G75*
G02*
X89130000Y-62540000I0J-100000D01*
G01*
X89130000Y-63815000D01*
G75*
G02*
X89030000Y-63915000I-100000J0D01*
G01*
X88830000Y-63915000D01*
G75*
G02*
X88730000Y-63815000I0J100000D01*
G01*
X88730000Y-62540000D01*
G75*
G02*
X88830000Y-62440000I100000J0D01*
G01*
G37*
G04 #@! TD.AperFunction*
G04 #@! TA.AperFunction,SMDPad,CuDef*
G36*
G01*
X88180000Y-62440000D02*
X88380000Y-62440000D01*
G75*
G02*
X88480000Y-62540000I0J-100000D01*
G01*
X88480000Y-63815000D01*
G75*
G02*
X88380000Y-63915000I-100000J0D01*
G01*
X88180000Y-63915000D01*
G75*
G02*
X88080000Y-63815000I0J100000D01*
G01*
X88080000Y-62540000D01*
G75*
G02*
X88180000Y-62440000I100000J0D01*
G01*
G37*
G04 #@! TD.AperFunction*
G04 #@! TA.AperFunction,SMDPad,CuDef*
G36*
G01*
X87530000Y-62440000D02*
X87730000Y-62440000D01*
G75*
G02*
X87830000Y-62540000I0J-100000D01*
G01*
X87830000Y-63815000D01*
G75*
G02*
X87730000Y-63915000I-100000J0D01*
G01*
X87530000Y-63915000D01*
G75*
G02*
X87430000Y-63815000I0J100000D01*
G01*
X87430000Y-62540000D01*
G75*
G02*
X87530000Y-62440000I100000J0D01*
G01*
G37*
G04 #@! TD.AperFunction*
G04 #@! TA.AperFunction,SMDPad,CuDef*
G36*
G01*
X86880000Y-62440000D02*
X87080000Y-62440000D01*
G75*
G02*
X87180000Y-62540000I0J-100000D01*
G01*
X87180000Y-63815000D01*
G75*
G02*
X87080000Y-63915000I-100000J0D01*
G01*
X86880000Y-63915000D01*
G75*
G02*
X86780000Y-63815000I0J100000D01*
G01*
X86780000Y-62540000D01*
G75*
G02*
X86880000Y-62440000I100000J0D01*
G01*
G37*
G04 #@! TD.AperFunction*
G04 #@! TA.AperFunction,SMDPad,CuDef*
G36*
G01*
X86230000Y-62440000D02*
X86430000Y-62440000D01*
G75*
G02*
X86530000Y-62540000I0J-100000D01*
G01*
X86530000Y-63815000D01*
G75*
G02*
X86430000Y-63915000I-100000J0D01*
G01*
X86230000Y-63915000D01*
G75*
G02*
X86130000Y-63815000I0J100000D01*
G01*
X86130000Y-62540000D01*
G75*
G02*
X86230000Y-62440000I100000J0D01*
G01*
G37*
G04 #@! TD.AperFunction*
G04 #@! TA.AperFunction,SMDPad,CuDef*
G36*
G01*
X85580000Y-62440000D02*
X85780000Y-62440000D01*
G75*
G02*
X85880000Y-62540000I0J-100000D01*
G01*
X85880000Y-63815000D01*
G75*
G02*
X85780000Y-63915000I-100000J0D01*
G01*
X85580000Y-63915000D01*
G75*
G02*
X85480000Y-63815000I0J100000D01*
G01*
X85480000Y-62540000D01*
G75*
G02*
X85580000Y-62440000I100000J0D01*
G01*
G37*
G04 #@! TD.AperFunction*
G04 #@! TA.AperFunction,SMDPad,CuDef*
G36*
G01*
X51925000Y-63339000D02*
X52125000Y-63339000D01*
G75*
G02*
X52225000Y-63439000I0J-100000D01*
G01*
X52225000Y-64714000D01*
G75*
G02*
X52125000Y-64814000I-100000J0D01*
G01*
X51925000Y-64814000D01*
G75*
G02*
X51825000Y-64714000I0J100000D01*
G01*
X51825000Y-63439000D01*
G75*
G02*
X51925000Y-63339000I100000J0D01*
G01*
G37*
G04 #@! TD.AperFunction*
G04 #@! TA.AperFunction,SMDPad,CuDef*
G36*
G01*
X52575000Y-63339000D02*
X52775000Y-63339000D01*
G75*
G02*
X52875000Y-63439000I0J-100000D01*
G01*
X52875000Y-64714000D01*
G75*
G02*
X52775000Y-64814000I-100000J0D01*
G01*
X52575000Y-64814000D01*
G75*
G02*
X52475000Y-64714000I0J100000D01*
G01*
X52475000Y-63439000D01*
G75*
G02*
X52575000Y-63339000I100000J0D01*
G01*
G37*
G04 #@! TD.AperFunction*
G04 #@! TA.AperFunction,SMDPad,CuDef*
G36*
G01*
X53225000Y-63339000D02*
X53425000Y-63339000D01*
G75*
G02*
X53525000Y-63439000I0J-100000D01*
G01*
X53525000Y-64714000D01*
G75*
G02*
X53425000Y-64814000I-100000J0D01*
G01*
X53225000Y-64814000D01*
G75*
G02*
X53125000Y-64714000I0J100000D01*
G01*
X53125000Y-63439000D01*
G75*
G02*
X53225000Y-63339000I100000J0D01*
G01*
G37*
G04 #@! TD.AperFunction*
G04 #@! TA.AperFunction,SMDPad,CuDef*
G36*
G01*
X53875000Y-63339000D02*
X54075000Y-63339000D01*
G75*
G02*
X54175000Y-63439000I0J-100000D01*
G01*
X54175000Y-64714000D01*
G75*
G02*
X54075000Y-64814000I-100000J0D01*
G01*
X53875000Y-64814000D01*
G75*
G02*
X53775000Y-64714000I0J100000D01*
G01*
X53775000Y-63439000D01*
G75*
G02*
X53875000Y-63339000I100000J0D01*
G01*
G37*
G04 #@! TD.AperFunction*
G04 #@! TA.AperFunction,SMDPad,CuDef*
G36*
G01*
X54525000Y-63339000D02*
X54725000Y-63339000D01*
G75*
G02*
X54825000Y-63439000I0J-100000D01*
G01*
X54825000Y-64714000D01*
G75*
G02*
X54725000Y-64814000I-100000J0D01*
G01*
X54525000Y-64814000D01*
G75*
G02*
X54425000Y-64714000I0J100000D01*
G01*
X54425000Y-63439000D01*
G75*
G02*
X54525000Y-63339000I100000J0D01*
G01*
G37*
G04 #@! TD.AperFunction*
G04 #@! TA.AperFunction,SMDPad,CuDef*
G36*
G01*
X55175000Y-63339000D02*
X55375000Y-63339000D01*
G75*
G02*
X55475000Y-63439000I0J-100000D01*
G01*
X55475000Y-64714000D01*
G75*
G02*
X55375000Y-64814000I-100000J0D01*
G01*
X55175000Y-64814000D01*
G75*
G02*
X55075000Y-64714000I0J100000D01*
G01*
X55075000Y-63439000D01*
G75*
G02*
X55175000Y-63339000I100000J0D01*
G01*
G37*
G04 #@! TD.AperFunction*
G04 #@! TA.AperFunction,SMDPad,CuDef*
G36*
G01*
X55825000Y-63339000D02*
X56025000Y-63339000D01*
G75*
G02*
X56125000Y-63439000I0J-100000D01*
G01*
X56125000Y-64714000D01*
G75*
G02*
X56025000Y-64814000I-100000J0D01*
G01*
X55825000Y-64814000D01*
G75*
G02*
X55725000Y-64714000I0J100000D01*
G01*
X55725000Y-63439000D01*
G75*
G02*
X55825000Y-63339000I100000J0D01*
G01*
G37*
G04 #@! TD.AperFunction*
G04 #@! TA.AperFunction,SMDPad,CuDef*
G36*
G01*
X55825000Y-57614000D02*
X56025000Y-57614000D01*
G75*
G02*
X56125000Y-57714000I0J-100000D01*
G01*
X56125000Y-58989000D01*
G75*
G02*
X56025000Y-59089000I-100000J0D01*
G01*
X55825000Y-59089000D01*
G75*
G02*
X55725000Y-58989000I0J100000D01*
G01*
X55725000Y-57714000D01*
G75*
G02*
X55825000Y-57614000I100000J0D01*
G01*
G37*
G04 #@! TD.AperFunction*
G04 #@! TA.AperFunction,SMDPad,CuDef*
G36*
G01*
X55175000Y-57614000D02*
X55375000Y-57614000D01*
G75*
G02*
X55475000Y-57714000I0J-100000D01*
G01*
X55475000Y-58989000D01*
G75*
G02*
X55375000Y-59089000I-100000J0D01*
G01*
X55175000Y-59089000D01*
G75*
G02*
X55075000Y-58989000I0J100000D01*
G01*
X55075000Y-57714000D01*
G75*
G02*
X55175000Y-57614000I100000J0D01*
G01*
G37*
G04 #@! TD.AperFunction*
G04 #@! TA.AperFunction,SMDPad,CuDef*
G36*
G01*
X54525000Y-57614000D02*
X54725000Y-57614000D01*
G75*
G02*
X54825000Y-57714000I0J-100000D01*
G01*
X54825000Y-58989000D01*
G75*
G02*
X54725000Y-59089000I-100000J0D01*
G01*
X54525000Y-59089000D01*
G75*
G02*
X54425000Y-58989000I0J100000D01*
G01*
X54425000Y-57714000D01*
G75*
G02*
X54525000Y-57614000I100000J0D01*
G01*
G37*
G04 #@! TD.AperFunction*
G04 #@! TA.AperFunction,SMDPad,CuDef*
G36*
G01*
X53875000Y-57614000D02*
X54075000Y-57614000D01*
G75*
G02*
X54175000Y-57714000I0J-100000D01*
G01*
X54175000Y-58989000D01*
G75*
G02*
X54075000Y-59089000I-100000J0D01*
G01*
X53875000Y-59089000D01*
G75*
G02*
X53775000Y-58989000I0J100000D01*
G01*
X53775000Y-57714000D01*
G75*
G02*
X53875000Y-57614000I100000J0D01*
G01*
G37*
G04 #@! TD.AperFunction*
G04 #@! TA.AperFunction,SMDPad,CuDef*
G36*
G01*
X53225000Y-57614000D02*
X53425000Y-57614000D01*
G75*
G02*
X53525000Y-57714000I0J-100000D01*
G01*
X53525000Y-58989000D01*
G75*
G02*
X53425000Y-59089000I-100000J0D01*
G01*
X53225000Y-59089000D01*
G75*
G02*
X53125000Y-58989000I0J100000D01*
G01*
X53125000Y-57714000D01*
G75*
G02*
X53225000Y-57614000I100000J0D01*
G01*
G37*
G04 #@! TD.AperFunction*
G04 #@! TA.AperFunction,SMDPad,CuDef*
G36*
G01*
X52575000Y-57614000D02*
X52775000Y-57614000D01*
G75*
G02*
X52875000Y-57714000I0J-100000D01*
G01*
X52875000Y-58989000D01*
G75*
G02*
X52775000Y-59089000I-100000J0D01*
G01*
X52575000Y-59089000D01*
G75*
G02*
X52475000Y-58989000I0J100000D01*
G01*
X52475000Y-57714000D01*
G75*
G02*
X52575000Y-57614000I100000J0D01*
G01*
G37*
G04 #@! TD.AperFunction*
G04 #@! TA.AperFunction,SMDPad,CuDef*
G36*
G01*
X51925000Y-57614000D02*
X52125000Y-57614000D01*
G75*
G02*
X52225000Y-57714000I0J-100000D01*
G01*
X52225000Y-58989000D01*
G75*
G02*
X52125000Y-59089000I-100000J0D01*
G01*
X51925000Y-59089000D01*
G75*
G02*
X51825000Y-58989000I0J100000D01*
G01*
X51825000Y-57714000D01*
G75*
G02*
X51925000Y-57614000I100000J0D01*
G01*
G37*
G04 #@! TD.AperFunction*
G04 #@! TA.AperFunction,SMDPad,CuDef*
G36*
G01*
X27795000Y-76039000D02*
X27995000Y-76039000D01*
G75*
G02*
X28095000Y-76139000I0J-100000D01*
G01*
X28095000Y-77414000D01*
G75*
G02*
X27995000Y-77514000I-100000J0D01*
G01*
X27795000Y-77514000D01*
G75*
G02*
X27695000Y-77414000I0J100000D01*
G01*
X27695000Y-76139000D01*
G75*
G02*
X27795000Y-76039000I100000J0D01*
G01*
G37*
G04 #@! TD.AperFunction*
G04 #@! TA.AperFunction,SMDPad,CuDef*
G36*
G01*
X28445000Y-76039000D02*
X28645000Y-76039000D01*
G75*
G02*
X28745000Y-76139000I0J-100000D01*
G01*
X28745000Y-77414000D01*
G75*
G02*
X28645000Y-77514000I-100000J0D01*
G01*
X28445000Y-77514000D01*
G75*
G02*
X28345000Y-77414000I0J100000D01*
G01*
X28345000Y-76139000D01*
G75*
G02*
X28445000Y-76039000I100000J0D01*
G01*
G37*
G04 #@! TD.AperFunction*
G04 #@! TA.AperFunction,SMDPad,CuDef*
G36*
G01*
X29095000Y-76039000D02*
X29295000Y-76039000D01*
G75*
G02*
X29395000Y-76139000I0J-100000D01*
G01*
X29395000Y-77414000D01*
G75*
G02*
X29295000Y-77514000I-100000J0D01*
G01*
X29095000Y-77514000D01*
G75*
G02*
X28995000Y-77414000I0J100000D01*
G01*
X28995000Y-76139000D01*
G75*
G02*
X29095000Y-76039000I100000J0D01*
G01*
G37*
G04 #@! TD.AperFunction*
G04 #@! TA.AperFunction,SMDPad,CuDef*
G36*
G01*
X29745000Y-76039000D02*
X29945000Y-76039000D01*
G75*
G02*
X30045000Y-76139000I0J-100000D01*
G01*
X30045000Y-77414000D01*
G75*
G02*
X29945000Y-77514000I-100000J0D01*
G01*
X29745000Y-77514000D01*
G75*
G02*
X29645000Y-77414000I0J100000D01*
G01*
X29645000Y-76139000D01*
G75*
G02*
X29745000Y-76039000I100000J0D01*
G01*
G37*
G04 #@! TD.AperFunction*
G04 #@! TA.AperFunction,SMDPad,CuDef*
G36*
G01*
X30395000Y-76039000D02*
X30595000Y-76039000D01*
G75*
G02*
X30695000Y-76139000I0J-100000D01*
G01*
X30695000Y-77414000D01*
G75*
G02*
X30595000Y-77514000I-100000J0D01*
G01*
X30395000Y-77514000D01*
G75*
G02*
X30295000Y-77414000I0J100000D01*
G01*
X30295000Y-76139000D01*
G75*
G02*
X30395000Y-76039000I100000J0D01*
G01*
G37*
G04 #@! TD.AperFunction*
G04 #@! TA.AperFunction,SMDPad,CuDef*
G36*
G01*
X31045000Y-76039000D02*
X31245000Y-76039000D01*
G75*
G02*
X31345000Y-76139000I0J-100000D01*
G01*
X31345000Y-77414000D01*
G75*
G02*
X31245000Y-77514000I-100000J0D01*
G01*
X31045000Y-77514000D01*
G75*
G02*
X30945000Y-77414000I0J100000D01*
G01*
X30945000Y-76139000D01*
G75*
G02*
X31045000Y-76039000I100000J0D01*
G01*
G37*
G04 #@! TD.AperFunction*
G04 #@! TA.AperFunction,SMDPad,CuDef*
G36*
G01*
X31695000Y-76039000D02*
X31895000Y-76039000D01*
G75*
G02*
X31995000Y-76139000I0J-100000D01*
G01*
X31995000Y-77414000D01*
G75*
G02*
X31895000Y-77514000I-100000J0D01*
G01*
X31695000Y-77514000D01*
G75*
G02*
X31595000Y-77414000I0J100000D01*
G01*
X31595000Y-76139000D01*
G75*
G02*
X31695000Y-76039000I100000J0D01*
G01*
G37*
G04 #@! TD.AperFunction*
G04 #@! TA.AperFunction,SMDPad,CuDef*
G36*
G01*
X31695000Y-70314000D02*
X31895000Y-70314000D01*
G75*
G02*
X31995000Y-70414000I0J-100000D01*
G01*
X31995000Y-71689000D01*
G75*
G02*
X31895000Y-71789000I-100000J0D01*
G01*
X31695000Y-71789000D01*
G75*
G02*
X31595000Y-71689000I0J100000D01*
G01*
X31595000Y-70414000D01*
G75*
G02*
X31695000Y-70314000I100000J0D01*
G01*
G37*
G04 #@! TD.AperFunction*
G04 #@! TA.AperFunction,SMDPad,CuDef*
G36*
G01*
X31045000Y-70314000D02*
X31245000Y-70314000D01*
G75*
G02*
X31345000Y-70414000I0J-100000D01*
G01*
X31345000Y-71689000D01*
G75*
G02*
X31245000Y-71789000I-100000J0D01*
G01*
X31045000Y-71789000D01*
G75*
G02*
X30945000Y-71689000I0J100000D01*
G01*
X30945000Y-70414000D01*
G75*
G02*
X31045000Y-70314000I100000J0D01*
G01*
G37*
G04 #@! TD.AperFunction*
G04 #@! TA.AperFunction,SMDPad,CuDef*
G36*
G01*
X30395000Y-70314000D02*
X30595000Y-70314000D01*
G75*
G02*
X30695000Y-70414000I0J-100000D01*
G01*
X30695000Y-71689000D01*
G75*
G02*
X30595000Y-71789000I-100000J0D01*
G01*
X30395000Y-71789000D01*
G75*
G02*
X30295000Y-71689000I0J100000D01*
G01*
X30295000Y-70414000D01*
G75*
G02*
X30395000Y-70314000I100000J0D01*
G01*
G37*
G04 #@! TD.AperFunction*
G04 #@! TA.AperFunction,SMDPad,CuDef*
G36*
G01*
X29745000Y-70314000D02*
X29945000Y-70314000D01*
G75*
G02*
X30045000Y-70414000I0J-100000D01*
G01*
X30045000Y-71689000D01*
G75*
G02*
X29945000Y-71789000I-100000J0D01*
G01*
X29745000Y-71789000D01*
G75*
G02*
X29645000Y-71689000I0J100000D01*
G01*
X29645000Y-70414000D01*
G75*
G02*
X29745000Y-70314000I100000J0D01*
G01*
G37*
G04 #@! TD.AperFunction*
G04 #@! TA.AperFunction,SMDPad,CuDef*
G36*
G01*
X29095000Y-70314000D02*
X29295000Y-70314000D01*
G75*
G02*
X29395000Y-70414000I0J-100000D01*
G01*
X29395000Y-71689000D01*
G75*
G02*
X29295000Y-71789000I-100000J0D01*
G01*
X29095000Y-71789000D01*
G75*
G02*
X28995000Y-71689000I0J100000D01*
G01*
X28995000Y-70414000D01*
G75*
G02*
X29095000Y-70314000I100000J0D01*
G01*
G37*
G04 #@! TD.AperFunction*
G04 #@! TA.AperFunction,SMDPad,CuDef*
G36*
G01*
X28445000Y-70314000D02*
X28645000Y-70314000D01*
G75*
G02*
X28745000Y-70414000I0J-100000D01*
G01*
X28745000Y-71689000D01*
G75*
G02*
X28645000Y-71789000I-100000J0D01*
G01*
X28445000Y-71789000D01*
G75*
G02*
X28345000Y-71689000I0J100000D01*
G01*
X28345000Y-70414000D01*
G75*
G02*
X28445000Y-70314000I100000J0D01*
G01*
G37*
G04 #@! TD.AperFunction*
G04 #@! TA.AperFunction,SMDPad,CuDef*
G36*
G01*
X27795000Y-70314000D02*
X27995000Y-70314000D01*
G75*
G02*
X28095000Y-70414000I0J-100000D01*
G01*
X28095000Y-71689000D01*
G75*
G02*
X27995000Y-71789000I-100000J0D01*
G01*
X27795000Y-71789000D01*
G75*
G02*
X27695000Y-71689000I0J100000D01*
G01*
X27695000Y-70414000D01*
G75*
G02*
X27795000Y-70314000I100000J0D01*
G01*
G37*
G04 #@! TD.AperFunction*
G04 #@! TA.AperFunction,SMDPad,CuDef*
G36*
G01*
X27414000Y-49877000D02*
X27614000Y-49877000D01*
G75*
G02*
X27714000Y-49977000I0J-100000D01*
G01*
X27714000Y-51252000D01*
G75*
G02*
X27614000Y-51352000I-100000J0D01*
G01*
X27414000Y-51352000D01*
G75*
G02*
X27314000Y-51252000I0J100000D01*
G01*
X27314000Y-49977000D01*
G75*
G02*
X27414000Y-49877000I100000J0D01*
G01*
G37*
G04 #@! TD.AperFunction*
G04 #@! TA.AperFunction,SMDPad,CuDef*
G36*
G01*
X28064000Y-49877000D02*
X28264000Y-49877000D01*
G75*
G02*
X28364000Y-49977000I0J-100000D01*
G01*
X28364000Y-51252000D01*
G75*
G02*
X28264000Y-51352000I-100000J0D01*
G01*
X28064000Y-51352000D01*
G75*
G02*
X27964000Y-51252000I0J100000D01*
G01*
X27964000Y-49977000D01*
G75*
G02*
X28064000Y-49877000I100000J0D01*
G01*
G37*
G04 #@! TD.AperFunction*
G04 #@! TA.AperFunction,SMDPad,CuDef*
G36*
G01*
X28714000Y-49877000D02*
X28914000Y-49877000D01*
G75*
G02*
X29014000Y-49977000I0J-100000D01*
G01*
X29014000Y-51252000D01*
G75*
G02*
X28914000Y-51352000I-100000J0D01*
G01*
X28714000Y-51352000D01*
G75*
G02*
X28614000Y-51252000I0J100000D01*
G01*
X28614000Y-49977000D01*
G75*
G02*
X28714000Y-49877000I100000J0D01*
G01*
G37*
G04 #@! TD.AperFunction*
G04 #@! TA.AperFunction,SMDPad,CuDef*
G36*
G01*
X29364000Y-49877000D02*
X29564000Y-49877000D01*
G75*
G02*
X29664000Y-49977000I0J-100000D01*
G01*
X29664000Y-51252000D01*
G75*
G02*
X29564000Y-51352000I-100000J0D01*
G01*
X29364000Y-51352000D01*
G75*
G02*
X29264000Y-51252000I0J100000D01*
G01*
X29264000Y-49977000D01*
G75*
G02*
X29364000Y-49877000I100000J0D01*
G01*
G37*
G04 #@! TD.AperFunction*
G04 #@! TA.AperFunction,SMDPad,CuDef*
G36*
G01*
X30014000Y-49877000D02*
X30214000Y-49877000D01*
G75*
G02*
X30314000Y-49977000I0J-100000D01*
G01*
X30314000Y-51252000D01*
G75*
G02*
X30214000Y-51352000I-100000J0D01*
G01*
X30014000Y-51352000D01*
G75*
G02*
X29914000Y-51252000I0J100000D01*
G01*
X29914000Y-49977000D01*
G75*
G02*
X30014000Y-49877000I100000J0D01*
G01*
G37*
G04 #@! TD.AperFunction*
G04 #@! TA.AperFunction,SMDPad,CuDef*
G36*
G01*
X30664000Y-49877000D02*
X30864000Y-49877000D01*
G75*
G02*
X30964000Y-49977000I0J-100000D01*
G01*
X30964000Y-51252000D01*
G75*
G02*
X30864000Y-51352000I-100000J0D01*
G01*
X30664000Y-51352000D01*
G75*
G02*
X30564000Y-51252000I0J100000D01*
G01*
X30564000Y-49977000D01*
G75*
G02*
X30664000Y-49877000I100000J0D01*
G01*
G37*
G04 #@! TD.AperFunction*
G04 #@! TA.AperFunction,SMDPad,CuDef*
G36*
G01*
X31314000Y-49877000D02*
X31514000Y-49877000D01*
G75*
G02*
X31614000Y-49977000I0J-100000D01*
G01*
X31614000Y-51252000D01*
G75*
G02*
X31514000Y-51352000I-100000J0D01*
G01*
X31314000Y-51352000D01*
G75*
G02*
X31214000Y-51252000I0J100000D01*
G01*
X31214000Y-49977000D01*
G75*
G02*
X31314000Y-49877000I100000J0D01*
G01*
G37*
G04 #@! TD.AperFunction*
G04 #@! TA.AperFunction,SMDPad,CuDef*
G36*
G01*
X31314000Y-44152000D02*
X31514000Y-44152000D01*
G75*
G02*
X31614000Y-44252000I0J-100000D01*
G01*
X31614000Y-45527000D01*
G75*
G02*
X31514000Y-45627000I-100000J0D01*
G01*
X31314000Y-45627000D01*
G75*
G02*
X31214000Y-45527000I0J100000D01*
G01*
X31214000Y-44252000D01*
G75*
G02*
X31314000Y-44152000I100000J0D01*
G01*
G37*
G04 #@! TD.AperFunction*
G04 #@! TA.AperFunction,SMDPad,CuDef*
G36*
G01*
X30664000Y-44152000D02*
X30864000Y-44152000D01*
G75*
G02*
X30964000Y-44252000I0J-100000D01*
G01*
X30964000Y-45527000D01*
G75*
G02*
X30864000Y-45627000I-100000J0D01*
G01*
X30664000Y-45627000D01*
G75*
G02*
X30564000Y-45527000I0J100000D01*
G01*
X30564000Y-44252000D01*
G75*
G02*
X30664000Y-44152000I100000J0D01*
G01*
G37*
G04 #@! TD.AperFunction*
G04 #@! TA.AperFunction,SMDPad,CuDef*
G36*
G01*
X30014000Y-44152000D02*
X30214000Y-44152000D01*
G75*
G02*
X30314000Y-44252000I0J-100000D01*
G01*
X30314000Y-45527000D01*
G75*
G02*
X30214000Y-45627000I-100000J0D01*
G01*
X30014000Y-45627000D01*
G75*
G02*
X29914000Y-45527000I0J100000D01*
G01*
X29914000Y-44252000D01*
G75*
G02*
X30014000Y-44152000I100000J0D01*
G01*
G37*
G04 #@! TD.AperFunction*
G04 #@! TA.AperFunction,SMDPad,CuDef*
G36*
G01*
X29364000Y-44152000D02*
X29564000Y-44152000D01*
G75*
G02*
X29664000Y-44252000I0J-100000D01*
G01*
X29664000Y-45527000D01*
G75*
G02*
X29564000Y-45627000I-100000J0D01*
G01*
X29364000Y-45627000D01*
G75*
G02*
X29264000Y-45527000I0J100000D01*
G01*
X29264000Y-44252000D01*
G75*
G02*
X29364000Y-44152000I100000J0D01*
G01*
G37*
G04 #@! TD.AperFunction*
G04 #@! TA.AperFunction,SMDPad,CuDef*
G36*
G01*
X28714000Y-44152000D02*
X28914000Y-44152000D01*
G75*
G02*
X29014000Y-44252000I0J-100000D01*
G01*
X29014000Y-45527000D01*
G75*
G02*
X28914000Y-45627000I-100000J0D01*
G01*
X28714000Y-45627000D01*
G75*
G02*
X28614000Y-45527000I0J100000D01*
G01*
X28614000Y-44252000D01*
G75*
G02*
X28714000Y-44152000I100000J0D01*
G01*
G37*
G04 #@! TD.AperFunction*
G04 #@! TA.AperFunction,SMDPad,CuDef*
G36*
G01*
X28064000Y-44152000D02*
X28264000Y-44152000D01*
G75*
G02*
X28364000Y-44252000I0J-100000D01*
G01*
X28364000Y-45527000D01*
G75*
G02*
X28264000Y-45627000I-100000J0D01*
G01*
X28064000Y-45627000D01*
G75*
G02*
X27964000Y-45527000I0J100000D01*
G01*
X27964000Y-44252000D01*
G75*
G02*
X28064000Y-44152000I100000J0D01*
G01*
G37*
G04 #@! TD.AperFunction*
G04 #@! TA.AperFunction,SMDPad,CuDef*
G36*
G01*
X27414000Y-44152000D02*
X27614000Y-44152000D01*
G75*
G02*
X27714000Y-44252000I0J-100000D01*
G01*
X27714000Y-45527000D01*
G75*
G02*
X27614000Y-45627000I-100000J0D01*
G01*
X27414000Y-45627000D01*
G75*
G02*
X27314000Y-45527000I0J100000D01*
G01*
X27314000Y-44252000D01*
G75*
G02*
X27414000Y-44152000I100000J0D01*
G01*
G37*
G04 #@! TD.AperFunction*
G04 #@! TA.AperFunction,SMDPad,CuDef*
G36*
G01*
X99550000Y-32859000D02*
X99750000Y-32859000D01*
G75*
G02*
X99850000Y-32959000I0J-100000D01*
G01*
X99850000Y-34234000D01*
G75*
G02*
X99750000Y-34334000I-100000J0D01*
G01*
X99550000Y-34334000D01*
G75*
G02*
X99450000Y-34234000I0J100000D01*
G01*
X99450000Y-32959000D01*
G75*
G02*
X99550000Y-32859000I100000J0D01*
G01*
G37*
G04 #@! TD.AperFunction*
G04 #@! TA.AperFunction,SMDPad,CuDef*
G36*
G01*
X100200000Y-32859000D02*
X100400000Y-32859000D01*
G75*
G02*
X100500000Y-32959000I0J-100000D01*
G01*
X100500000Y-34234000D01*
G75*
G02*
X100400000Y-34334000I-100000J0D01*
G01*
X100200000Y-34334000D01*
G75*
G02*
X100100000Y-34234000I0J100000D01*
G01*
X100100000Y-32959000D01*
G75*
G02*
X100200000Y-32859000I100000J0D01*
G01*
G37*
G04 #@! TD.AperFunction*
G04 #@! TA.AperFunction,SMDPad,CuDef*
G36*
G01*
X100850000Y-32859000D02*
X101050000Y-32859000D01*
G75*
G02*
X101150000Y-32959000I0J-100000D01*
G01*
X101150000Y-34234000D01*
G75*
G02*
X101050000Y-34334000I-100000J0D01*
G01*
X100850000Y-34334000D01*
G75*
G02*
X100750000Y-34234000I0J100000D01*
G01*
X100750000Y-32959000D01*
G75*
G02*
X100850000Y-32859000I100000J0D01*
G01*
G37*
G04 #@! TD.AperFunction*
G04 #@! TA.AperFunction,SMDPad,CuDef*
G36*
G01*
X101500000Y-32859000D02*
X101700000Y-32859000D01*
G75*
G02*
X101800000Y-32959000I0J-100000D01*
G01*
X101800000Y-34234000D01*
G75*
G02*
X101700000Y-34334000I-100000J0D01*
G01*
X101500000Y-34334000D01*
G75*
G02*
X101400000Y-34234000I0J100000D01*
G01*
X101400000Y-32959000D01*
G75*
G02*
X101500000Y-32859000I100000J0D01*
G01*
G37*
G04 #@! TD.AperFunction*
G04 #@! TA.AperFunction,SMDPad,CuDef*
G36*
G01*
X102150000Y-32859000D02*
X102350000Y-32859000D01*
G75*
G02*
X102450000Y-32959000I0J-100000D01*
G01*
X102450000Y-34234000D01*
G75*
G02*
X102350000Y-34334000I-100000J0D01*
G01*
X102150000Y-34334000D01*
G75*
G02*
X102050000Y-34234000I0J100000D01*
G01*
X102050000Y-32959000D01*
G75*
G02*
X102150000Y-32859000I100000J0D01*
G01*
G37*
G04 #@! TD.AperFunction*
G04 #@! TA.AperFunction,SMDPad,CuDef*
G36*
G01*
X102800000Y-32859000D02*
X103000000Y-32859000D01*
G75*
G02*
X103100000Y-32959000I0J-100000D01*
G01*
X103100000Y-34234000D01*
G75*
G02*
X103000000Y-34334000I-100000J0D01*
G01*
X102800000Y-34334000D01*
G75*
G02*
X102700000Y-34234000I0J100000D01*
G01*
X102700000Y-32959000D01*
G75*
G02*
X102800000Y-32859000I100000J0D01*
G01*
G37*
G04 #@! TD.AperFunction*
G04 #@! TA.AperFunction,SMDPad,CuDef*
G36*
G01*
X103450000Y-32859000D02*
X103650000Y-32859000D01*
G75*
G02*
X103750000Y-32959000I0J-100000D01*
G01*
X103750000Y-34234000D01*
G75*
G02*
X103650000Y-34334000I-100000J0D01*
G01*
X103450000Y-34334000D01*
G75*
G02*
X103350000Y-34234000I0J100000D01*
G01*
X103350000Y-32959000D01*
G75*
G02*
X103450000Y-32859000I100000J0D01*
G01*
G37*
G04 #@! TD.AperFunction*
G04 #@! TA.AperFunction,SMDPad,CuDef*
G36*
G01*
X103450000Y-27134000D02*
X103650000Y-27134000D01*
G75*
G02*
X103750000Y-27234000I0J-100000D01*
G01*
X103750000Y-28509000D01*
G75*
G02*
X103650000Y-28609000I-100000J0D01*
G01*
X103450000Y-28609000D01*
G75*
G02*
X103350000Y-28509000I0J100000D01*
G01*
X103350000Y-27234000D01*
G75*
G02*
X103450000Y-27134000I100000J0D01*
G01*
G37*
G04 #@! TD.AperFunction*
G04 #@! TA.AperFunction,SMDPad,CuDef*
G36*
G01*
X102800000Y-27134000D02*
X103000000Y-27134000D01*
G75*
G02*
X103100000Y-27234000I0J-100000D01*
G01*
X103100000Y-28509000D01*
G75*
G02*
X103000000Y-28609000I-100000J0D01*
G01*
X102800000Y-28609000D01*
G75*
G02*
X102700000Y-28509000I0J100000D01*
G01*
X102700000Y-27234000D01*
G75*
G02*
X102800000Y-27134000I100000J0D01*
G01*
G37*
G04 #@! TD.AperFunction*
G04 #@! TA.AperFunction,SMDPad,CuDef*
G36*
G01*
X102150000Y-27134000D02*
X102350000Y-27134000D01*
G75*
G02*
X102450000Y-27234000I0J-100000D01*
G01*
X102450000Y-28509000D01*
G75*
G02*
X102350000Y-28609000I-100000J0D01*
G01*
X102150000Y-28609000D01*
G75*
G02*
X102050000Y-28509000I0J100000D01*
G01*
X102050000Y-27234000D01*
G75*
G02*
X102150000Y-27134000I100000J0D01*
G01*
G37*
G04 #@! TD.AperFunction*
G04 #@! TA.AperFunction,SMDPad,CuDef*
G36*
G01*
X101500000Y-27134000D02*
X101700000Y-27134000D01*
G75*
G02*
X101800000Y-27234000I0J-100000D01*
G01*
X101800000Y-28509000D01*
G75*
G02*
X101700000Y-28609000I-100000J0D01*
G01*
X101500000Y-28609000D01*
G75*
G02*
X101400000Y-28509000I0J100000D01*
G01*
X101400000Y-27234000D01*
G75*
G02*
X101500000Y-27134000I100000J0D01*
G01*
G37*
G04 #@! TD.AperFunction*
G04 #@! TA.AperFunction,SMDPad,CuDef*
G36*
G01*
X100850000Y-27134000D02*
X101050000Y-27134000D01*
G75*
G02*
X101150000Y-27234000I0J-100000D01*
G01*
X101150000Y-28509000D01*
G75*
G02*
X101050000Y-28609000I-100000J0D01*
G01*
X100850000Y-28609000D01*
G75*
G02*
X100750000Y-28509000I0J100000D01*
G01*
X100750000Y-27234000D01*
G75*
G02*
X100850000Y-27134000I100000J0D01*
G01*
G37*
G04 #@! TD.AperFunction*
G04 #@! TA.AperFunction,SMDPad,CuDef*
G36*
G01*
X100200000Y-27134000D02*
X100400000Y-27134000D01*
G75*
G02*
X100500000Y-27234000I0J-100000D01*
G01*
X100500000Y-28509000D01*
G75*
G02*
X100400000Y-28609000I-100000J0D01*
G01*
X100200000Y-28609000D01*
G75*
G02*
X100100000Y-28509000I0J100000D01*
G01*
X100100000Y-27234000D01*
G75*
G02*
X100200000Y-27134000I100000J0D01*
G01*
G37*
G04 #@! TD.AperFunction*
G04 #@! TA.AperFunction,SMDPad,CuDef*
G36*
G01*
X99550000Y-27134000D02*
X99750000Y-27134000D01*
G75*
G02*
X99850000Y-27234000I0J-100000D01*
G01*
X99850000Y-28509000D01*
G75*
G02*
X99750000Y-28609000I-100000J0D01*
G01*
X99550000Y-28609000D01*
G75*
G02*
X99450000Y-28509000I0J100000D01*
G01*
X99450000Y-27234000D01*
G75*
G02*
X99550000Y-27134000I100000J0D01*
G01*
G37*
G04 #@! TD.AperFunction*
X98425000Y-78756000D03*
X97475000Y-80756000D03*
X99375000Y-80756000D03*
D11*
X10795000Y-11430000D03*
X22225000Y-11430000D03*
X10795000Y-17780000D03*
X10795000Y-5080000D03*
X22225000Y-5080000D03*
X22225000Y-17780000D03*
X28575000Y-11430000D03*
X40005000Y-11430000D03*
X28575000Y-17780000D03*
X28575000Y-5080000D03*
X40005000Y-5080000D03*
X40005000Y-17780000D03*
X65405000Y-11430000D03*
X76835000Y-11430000D03*
X65405000Y-17780000D03*
X65405000Y-5080000D03*
X76835000Y-5080000D03*
X76835000Y-17780000D03*
X83185000Y-11430000D03*
X94615000Y-11430000D03*
X83185000Y-17780000D03*
X83185000Y-5080000D03*
X94615000Y-5080000D03*
X94615000Y-17780000D03*
X100965000Y-11430000D03*
X112395000Y-11430000D03*
X100965000Y-17780000D03*
X100965000Y-5080000D03*
X112395000Y-5080000D03*
X112395000Y-17780000D03*
X118745000Y-11430000D03*
X130175000Y-11430000D03*
X118745000Y-17780000D03*
X118745000Y-5080000D03*
X130175000Y-5080000D03*
X130175000Y-17780000D03*
D12*
X42545000Y-30480000D03*
X37545000Y-32980000D03*
X37545000Y-27980000D03*
X57785000Y-30480000D03*
X52785000Y-32980000D03*
X52785000Y-27980000D03*
X11985000Y-30520000D03*
X6985000Y-33020000D03*
X6985000Y-28020000D03*
X27225000Y-30480000D03*
X22225000Y-32980000D03*
X22225000Y-27980000D03*
G04 #@! TA.AperFunction,SMDPad,CuDef*
G36*
G01*
X55605000Y-68687000D02*
X56155000Y-68687000D01*
G75*
G02*
X56355000Y-68887000I0J-200000D01*
G01*
X56355000Y-69287000D01*
G75*
G02*
X56155000Y-69487000I-200000J0D01*
G01*
X55605000Y-69487000D01*
G75*
G02*
X55405000Y-69287000I0J200000D01*
G01*
X55405000Y-68887000D01*
G75*
G02*
X55605000Y-68687000I200000J0D01*
G01*
G37*
G04 #@! TD.AperFunction*
G04 #@! TA.AperFunction,SMDPad,CuDef*
G36*
G01*
X55605000Y-67037000D02*
X56155000Y-67037000D01*
G75*
G02*
X56355000Y-67237000I0J-200000D01*
G01*
X56355000Y-67637000D01*
G75*
G02*
X56155000Y-67837000I-200000J0D01*
G01*
X55605000Y-67837000D01*
G75*
G02*
X55405000Y-67637000I0J200000D01*
G01*
X55405000Y-67237000D01*
G75*
G02*
X55605000Y-67037000I200000J0D01*
G01*
G37*
G04 #@! TD.AperFunction*
G04 #@! TA.AperFunction,SMDPad,CuDef*
G36*
G01*
X55605000Y-73132000D02*
X56155000Y-73132000D01*
G75*
G02*
X56355000Y-73332000I0J-200000D01*
G01*
X56355000Y-73732000D01*
G75*
G02*
X56155000Y-73932000I-200000J0D01*
G01*
X55605000Y-73932000D01*
G75*
G02*
X55405000Y-73732000I0J200000D01*
G01*
X55405000Y-73332000D01*
G75*
G02*
X55605000Y-73132000I200000J0D01*
G01*
G37*
G04 #@! TD.AperFunction*
G04 #@! TA.AperFunction,SMDPad,CuDef*
G36*
G01*
X55605000Y-71482000D02*
X56155000Y-71482000D01*
G75*
G02*
X56355000Y-71682000I0J-200000D01*
G01*
X56355000Y-72082000D01*
G75*
G02*
X56155000Y-72282000I-200000J0D01*
G01*
X55605000Y-72282000D01*
G75*
G02*
X55405000Y-72082000I0J200000D01*
G01*
X55405000Y-71682000D01*
G75*
G02*
X55605000Y-71482000I200000J0D01*
G01*
G37*
G04 #@! TD.AperFunction*
G04 #@! TA.AperFunction,SMDPad,CuDef*
G36*
G01*
X58653000Y-64242000D02*
X59203000Y-64242000D01*
G75*
G02*
X59403000Y-64442000I0J-200000D01*
G01*
X59403000Y-64842000D01*
G75*
G02*
X59203000Y-65042000I-200000J0D01*
G01*
X58653000Y-65042000D01*
G75*
G02*
X58453000Y-64842000I0J200000D01*
G01*
X58453000Y-64442000D01*
G75*
G02*
X58653000Y-64242000I200000J0D01*
G01*
G37*
G04 #@! TD.AperFunction*
G04 #@! TA.AperFunction,SMDPad,CuDef*
G36*
G01*
X58653000Y-62592000D02*
X59203000Y-62592000D01*
G75*
G02*
X59403000Y-62792000I0J-200000D01*
G01*
X59403000Y-63192000D01*
G75*
G02*
X59203000Y-63392000I-200000J0D01*
G01*
X58653000Y-63392000D01*
G75*
G02*
X58453000Y-63192000I0J200000D01*
G01*
X58453000Y-62792000D01*
G75*
G02*
X58653000Y-62592000I200000J0D01*
G01*
G37*
G04 #@! TD.AperFunction*
G04 #@! TA.AperFunction,SMDPad,CuDef*
G36*
G01*
X62505000Y-53487000D02*
X61955000Y-53487000D01*
G75*
G02*
X61755000Y-53287000I0J200000D01*
G01*
X61755000Y-52887000D01*
G75*
G02*
X61955000Y-52687000I200000J0D01*
G01*
X62505000Y-52687000D01*
G75*
G02*
X62705000Y-52887000I0J-200000D01*
G01*
X62705000Y-53287000D01*
G75*
G02*
X62505000Y-53487000I-200000J0D01*
G01*
G37*
G04 #@! TD.AperFunction*
G04 #@! TA.AperFunction,SMDPad,CuDef*
G36*
G01*
X62505000Y-55137000D02*
X61955000Y-55137000D01*
G75*
G02*
X61755000Y-54937000I0J200000D01*
G01*
X61755000Y-54537000D01*
G75*
G02*
X61955000Y-54337000I200000J0D01*
G01*
X62505000Y-54337000D01*
G75*
G02*
X62705000Y-54537000I0J-200000D01*
G01*
X62705000Y-54937000D01*
G75*
G02*
X62505000Y-55137000I-200000J0D01*
G01*
G37*
G04 #@! TD.AperFunction*
G04 #@! TA.AperFunction,SMDPad,CuDef*
G36*
G01*
X61701000Y-68687000D02*
X62251000Y-68687000D01*
G75*
G02*
X62451000Y-68887000I0J-200000D01*
G01*
X62451000Y-69287000D01*
G75*
G02*
X62251000Y-69487000I-200000J0D01*
G01*
X61701000Y-69487000D01*
G75*
G02*
X61501000Y-69287000I0J200000D01*
G01*
X61501000Y-68887000D01*
G75*
G02*
X61701000Y-68687000I200000J0D01*
G01*
G37*
G04 #@! TD.AperFunction*
G04 #@! TA.AperFunction,SMDPad,CuDef*
G36*
G01*
X61701000Y-67037000D02*
X62251000Y-67037000D01*
G75*
G02*
X62451000Y-67237000I0J-200000D01*
G01*
X62451000Y-67637000D01*
G75*
G02*
X62251000Y-67837000I-200000J0D01*
G01*
X61701000Y-67837000D01*
G75*
G02*
X61501000Y-67637000I0J200000D01*
G01*
X61501000Y-67237000D01*
G75*
G02*
X61701000Y-67037000I200000J0D01*
G01*
G37*
G04 #@! TD.AperFunction*
G04 #@! TA.AperFunction,SMDPad,CuDef*
G36*
G01*
X58653000Y-68687000D02*
X59203000Y-68687000D01*
G75*
G02*
X59403000Y-68887000I0J-200000D01*
G01*
X59403000Y-69287000D01*
G75*
G02*
X59203000Y-69487000I-200000J0D01*
G01*
X58653000Y-69487000D01*
G75*
G02*
X58453000Y-69287000I0J200000D01*
G01*
X58453000Y-68887000D01*
G75*
G02*
X58653000Y-68687000I200000J0D01*
G01*
G37*
G04 #@! TD.AperFunction*
G04 #@! TA.AperFunction,SMDPad,CuDef*
G36*
G01*
X58653000Y-67037000D02*
X59203000Y-67037000D01*
G75*
G02*
X59403000Y-67237000I0J-200000D01*
G01*
X59403000Y-67637000D01*
G75*
G02*
X59203000Y-67837000I-200000J0D01*
G01*
X58653000Y-67837000D01*
G75*
G02*
X58453000Y-67637000I0J200000D01*
G01*
X58453000Y-67237000D01*
G75*
G02*
X58653000Y-67037000I200000J0D01*
G01*
G37*
G04 #@! TD.AperFunction*
G04 #@! TA.AperFunction,SMDPad,CuDef*
G36*
G01*
X101494000Y-105747000D02*
X100944000Y-105747000D01*
G75*
G02*
X100744000Y-105547000I0J200000D01*
G01*
X100744000Y-105147000D01*
G75*
G02*
X100944000Y-104947000I200000J0D01*
G01*
X101494000Y-104947000D01*
G75*
G02*
X101694000Y-105147000I0J-200000D01*
G01*
X101694000Y-105547000D01*
G75*
G02*
X101494000Y-105747000I-200000J0D01*
G01*
G37*
G04 #@! TD.AperFunction*
G04 #@! TA.AperFunction,SMDPad,CuDef*
G36*
G01*
X101494000Y-107397000D02*
X100944000Y-107397000D01*
G75*
G02*
X100744000Y-107197000I0J200000D01*
G01*
X100744000Y-106797000D01*
G75*
G02*
X100944000Y-106597000I200000J0D01*
G01*
X101494000Y-106597000D01*
G75*
G02*
X101694000Y-106797000I0J-200000D01*
G01*
X101694000Y-107197000D01*
G75*
G02*
X101494000Y-107397000I-200000J0D01*
G01*
G37*
G04 #@! TD.AperFunction*
G04 #@! TA.AperFunction,SMDPad,CuDef*
G36*
G01*
X43074000Y-105176000D02*
X42524000Y-105176000D01*
G75*
G02*
X42324000Y-104976000I0J200000D01*
G01*
X42324000Y-104576000D01*
G75*
G02*
X42524000Y-104376000I200000J0D01*
G01*
X43074000Y-104376000D01*
G75*
G02*
X43274000Y-104576000I0J-200000D01*
G01*
X43274000Y-104976000D01*
G75*
G02*
X43074000Y-105176000I-200000J0D01*
G01*
G37*
G04 #@! TD.AperFunction*
G04 #@! TA.AperFunction,SMDPad,CuDef*
G36*
G01*
X43074000Y-106826000D02*
X42524000Y-106826000D01*
G75*
G02*
X42324000Y-106626000I0J200000D01*
G01*
X42324000Y-106226000D01*
G75*
G02*
X42524000Y-106026000I200000J0D01*
G01*
X43074000Y-106026000D01*
G75*
G02*
X43274000Y-106226000I0J-200000D01*
G01*
X43274000Y-106626000D01*
G75*
G02*
X43074000Y-106826000I-200000J0D01*
G01*
G37*
G04 #@! TD.AperFunction*
G04 #@! TA.AperFunction,SMDPad,CuDef*
G36*
G01*
X91690000Y-42842000D02*
X91190000Y-42842000D01*
G75*
G02*
X90965000Y-42617000I0J225000D01*
G01*
X90965000Y-42167000D01*
G75*
G02*
X91190000Y-41942000I225000J0D01*
G01*
X91690000Y-41942000D01*
G75*
G02*
X91915000Y-42167000I0J-225000D01*
G01*
X91915000Y-42617000D01*
G75*
G02*
X91690000Y-42842000I-225000J0D01*
G01*
G37*
G04 #@! TD.AperFunction*
G04 #@! TA.AperFunction,SMDPad,CuDef*
G36*
G01*
X91690000Y-44392000D02*
X91190000Y-44392000D01*
G75*
G02*
X90965000Y-44167000I0J225000D01*
G01*
X90965000Y-43717000D01*
G75*
G02*
X91190000Y-43492000I225000J0D01*
G01*
X91690000Y-43492000D01*
G75*
G02*
X91915000Y-43717000I0J-225000D01*
G01*
X91915000Y-44167000D01*
G75*
G02*
X91690000Y-44392000I-225000J0D01*
G01*
G37*
G04 #@! TD.AperFunction*
G04 #@! TA.AperFunction,SMDPad,CuDef*
G36*
G01*
X91690000Y-38651000D02*
X91190000Y-38651000D01*
G75*
G02*
X90965000Y-38426000I0J225000D01*
G01*
X90965000Y-37976000D01*
G75*
G02*
X91190000Y-37751000I225000J0D01*
G01*
X91690000Y-37751000D01*
G75*
G02*
X91915000Y-37976000I0J-225000D01*
G01*
X91915000Y-38426000D01*
G75*
G02*
X91690000Y-38651000I-225000J0D01*
G01*
G37*
G04 #@! TD.AperFunction*
G04 #@! TA.AperFunction,SMDPad,CuDef*
G36*
G01*
X91690000Y-40201000D02*
X91190000Y-40201000D01*
G75*
G02*
X90965000Y-39976000I0J225000D01*
G01*
X90965000Y-39526000D01*
G75*
G02*
X91190000Y-39301000I225000J0D01*
G01*
X91690000Y-39301000D01*
G75*
G02*
X91915000Y-39526000I0J-225000D01*
G01*
X91915000Y-39976000D01*
G75*
G02*
X91690000Y-40201000I-225000J0D01*
G01*
G37*
G04 #@! TD.AperFunction*
G04 #@! TA.AperFunction,SMDPad,CuDef*
G36*
G01*
X107565000Y-42868000D02*
X107065000Y-42868000D01*
G75*
G02*
X106840000Y-42643000I0J225000D01*
G01*
X106840000Y-42193000D01*
G75*
G02*
X107065000Y-41968000I225000J0D01*
G01*
X107565000Y-41968000D01*
G75*
G02*
X107790000Y-42193000I0J-225000D01*
G01*
X107790000Y-42643000D01*
G75*
G02*
X107565000Y-42868000I-225000J0D01*
G01*
G37*
G04 #@! TD.AperFunction*
G04 #@! TA.AperFunction,SMDPad,CuDef*
G36*
G01*
X107565000Y-44418000D02*
X107065000Y-44418000D01*
G75*
G02*
X106840000Y-44193000I0J225000D01*
G01*
X106840000Y-43743000D01*
G75*
G02*
X107065000Y-43518000I225000J0D01*
G01*
X107565000Y-43518000D01*
G75*
G02*
X107790000Y-43743000I0J-225000D01*
G01*
X107790000Y-44193000D01*
G75*
G02*
X107565000Y-44418000I-225000J0D01*
G01*
G37*
G04 #@! TD.AperFunction*
G04 #@! TA.AperFunction,SMDPad,CuDef*
G36*
G01*
X107565000Y-38651000D02*
X107065000Y-38651000D01*
G75*
G02*
X106840000Y-38426000I0J225000D01*
G01*
X106840000Y-37976000D01*
G75*
G02*
X107065000Y-37751000I225000J0D01*
G01*
X107565000Y-37751000D01*
G75*
G02*
X107790000Y-37976000I0J-225000D01*
G01*
X107790000Y-38426000D01*
G75*
G02*
X107565000Y-38651000I-225000J0D01*
G01*
G37*
G04 #@! TD.AperFunction*
G04 #@! TA.AperFunction,SMDPad,CuDef*
G36*
G01*
X107565000Y-40201000D02*
X107065000Y-40201000D01*
G75*
G02*
X106840000Y-39976000I0J225000D01*
G01*
X106840000Y-39526000D01*
G75*
G02*
X107065000Y-39301000I225000J0D01*
G01*
X107565000Y-39301000D01*
G75*
G02*
X107790000Y-39526000I0J-225000D01*
G01*
X107790000Y-39976000D01*
G75*
G02*
X107565000Y-40201000I-225000J0D01*
G01*
G37*
G04 #@! TD.AperFunction*
G04 #@! TA.AperFunction,SMDPad,CuDef*
G36*
G01*
X92587000Y-66378000D02*
X93087000Y-66378000D01*
G75*
G02*
X93312000Y-66603000I0J-225000D01*
G01*
X93312000Y-67053000D01*
G75*
G02*
X93087000Y-67278000I-225000J0D01*
G01*
X92587000Y-67278000D01*
G75*
G02*
X92362000Y-67053000I0J225000D01*
G01*
X92362000Y-66603000D01*
G75*
G02*
X92587000Y-66378000I225000J0D01*
G01*
G37*
G04 #@! TD.AperFunction*
G04 #@! TA.AperFunction,SMDPad,CuDef*
G36*
G01*
X92587000Y-64828000D02*
X93087000Y-64828000D01*
G75*
G02*
X93312000Y-65053000I0J-225000D01*
G01*
X93312000Y-65503000D01*
G75*
G02*
X93087000Y-65728000I-225000J0D01*
G01*
X92587000Y-65728000D01*
G75*
G02*
X92362000Y-65503000I0J225000D01*
G01*
X92362000Y-65053000D01*
G75*
G02*
X92587000Y-64828000I225000J0D01*
G01*
G37*
G04 #@! TD.AperFunction*
G04 #@! TA.AperFunction,SMDPad,CuDef*
G36*
G01*
X48645000Y-62695000D02*
X49145000Y-62695000D01*
G75*
G02*
X49370000Y-62920000I0J-225000D01*
G01*
X49370000Y-63370000D01*
G75*
G02*
X49145000Y-63595000I-225000J0D01*
G01*
X48645000Y-63595000D01*
G75*
G02*
X48420000Y-63370000I0J225000D01*
G01*
X48420000Y-62920000D01*
G75*
G02*
X48645000Y-62695000I225000J0D01*
G01*
G37*
G04 #@! TD.AperFunction*
G04 #@! TA.AperFunction,SMDPad,CuDef*
G36*
G01*
X48645000Y-61145000D02*
X49145000Y-61145000D01*
G75*
G02*
X49370000Y-61370000I0J-225000D01*
G01*
X49370000Y-61820000D01*
G75*
G02*
X49145000Y-62045000I-225000J0D01*
G01*
X48645000Y-62045000D01*
G75*
G02*
X48420000Y-61820000I0J225000D01*
G01*
X48420000Y-61370000D01*
G75*
G02*
X48645000Y-61145000I225000J0D01*
G01*
G37*
G04 #@! TD.AperFunction*
G04 #@! TA.AperFunction,SMDPad,CuDef*
G36*
G01*
X24490000Y-81006000D02*
X25040000Y-81006000D01*
G75*
G02*
X25240000Y-81206000I0J-200000D01*
G01*
X25240000Y-81606000D01*
G75*
G02*
X25040000Y-81806000I-200000J0D01*
G01*
X24490000Y-81806000D01*
G75*
G02*
X24290000Y-81606000I0J200000D01*
G01*
X24290000Y-81206000D01*
G75*
G02*
X24490000Y-81006000I200000J0D01*
G01*
G37*
G04 #@! TD.AperFunction*
G04 #@! TA.AperFunction,SMDPad,CuDef*
G36*
G01*
X24490000Y-79356000D02*
X25040000Y-79356000D01*
G75*
G02*
X25240000Y-79556000I0J-200000D01*
G01*
X25240000Y-79956000D01*
G75*
G02*
X25040000Y-80156000I-200000J0D01*
G01*
X24490000Y-80156000D01*
G75*
G02*
X24290000Y-79956000I0J200000D01*
G01*
X24290000Y-79556000D01*
G75*
G02*
X24490000Y-79356000I200000J0D01*
G01*
G37*
G04 #@! TD.AperFunction*
G04 #@! TA.AperFunction,SMDPad,CuDef*
G36*
G01*
X30586000Y-81006000D02*
X31136000Y-81006000D01*
G75*
G02*
X31336000Y-81206000I0J-200000D01*
G01*
X31336000Y-81606000D01*
G75*
G02*
X31136000Y-81806000I-200000J0D01*
G01*
X30586000Y-81806000D01*
G75*
G02*
X30386000Y-81606000I0J200000D01*
G01*
X30386000Y-81206000D01*
G75*
G02*
X30586000Y-81006000I200000J0D01*
G01*
G37*
G04 #@! TD.AperFunction*
G04 #@! TA.AperFunction,SMDPad,CuDef*
G36*
G01*
X30586000Y-79356000D02*
X31136000Y-79356000D01*
G75*
G02*
X31336000Y-79556000I0J-200000D01*
G01*
X31336000Y-79956000D01*
G75*
G02*
X31136000Y-80156000I-200000J0D01*
G01*
X30586000Y-80156000D01*
G75*
G02*
X30386000Y-79956000I0J200000D01*
G01*
X30386000Y-79556000D01*
G75*
G02*
X30586000Y-79356000I200000J0D01*
G01*
G37*
G04 #@! TD.AperFunction*
G04 #@! TA.AperFunction,SMDPad,CuDef*
G36*
G01*
X27538000Y-81006000D02*
X28088000Y-81006000D01*
G75*
G02*
X28288000Y-81206000I0J-200000D01*
G01*
X28288000Y-81606000D01*
G75*
G02*
X28088000Y-81806000I-200000J0D01*
G01*
X27538000Y-81806000D01*
G75*
G02*
X27338000Y-81606000I0J200000D01*
G01*
X27338000Y-81206000D01*
G75*
G02*
X27538000Y-81006000I200000J0D01*
G01*
G37*
G04 #@! TD.AperFunction*
G04 #@! TA.AperFunction,SMDPad,CuDef*
G36*
G01*
X27538000Y-79356000D02*
X28088000Y-79356000D01*
G75*
G02*
X28288000Y-79556000I0J-200000D01*
G01*
X28288000Y-79956000D01*
G75*
G02*
X28088000Y-80156000I-200000J0D01*
G01*
X27538000Y-80156000D01*
G75*
G02*
X27338000Y-79956000I0J200000D01*
G01*
X27338000Y-79556000D01*
G75*
G02*
X27538000Y-79356000I200000J0D01*
G01*
G37*
G04 #@! TD.AperFunction*
G04 #@! TA.AperFunction,SMDPad,CuDef*
G36*
G01*
X32618000Y-67544000D02*
X33168000Y-67544000D01*
G75*
G02*
X33368000Y-67744000I0J-200000D01*
G01*
X33368000Y-68144000D01*
G75*
G02*
X33168000Y-68344000I-200000J0D01*
G01*
X32618000Y-68344000D01*
G75*
G02*
X32418000Y-68144000I0J200000D01*
G01*
X32418000Y-67744000D01*
G75*
G02*
X32618000Y-67544000I200000J0D01*
G01*
G37*
G04 #@! TD.AperFunction*
G04 #@! TA.AperFunction,SMDPad,CuDef*
G36*
G01*
X32618000Y-65894000D02*
X33168000Y-65894000D01*
G75*
G02*
X33368000Y-66094000I0J-200000D01*
G01*
X33368000Y-66494000D01*
G75*
G02*
X33168000Y-66694000I-200000J0D01*
G01*
X32618000Y-66694000D01*
G75*
G02*
X32418000Y-66494000I0J200000D01*
G01*
X32418000Y-66094000D01*
G75*
G02*
X32618000Y-65894000I200000J0D01*
G01*
G37*
G04 #@! TD.AperFunction*
G04 #@! TA.AperFunction,SMDPad,CuDef*
G36*
G01*
X35666000Y-67544000D02*
X36216000Y-67544000D01*
G75*
G02*
X36416000Y-67744000I0J-200000D01*
G01*
X36416000Y-68144000D01*
G75*
G02*
X36216000Y-68344000I-200000J0D01*
G01*
X35666000Y-68344000D01*
G75*
G02*
X35466000Y-68144000I0J200000D01*
G01*
X35466000Y-67744000D01*
G75*
G02*
X35666000Y-67544000I200000J0D01*
G01*
G37*
G04 #@! TD.AperFunction*
G04 #@! TA.AperFunction,SMDPad,CuDef*
G36*
G01*
X35666000Y-65894000D02*
X36216000Y-65894000D01*
G75*
G02*
X36416000Y-66094000I0J-200000D01*
G01*
X36416000Y-66494000D01*
G75*
G02*
X36216000Y-66694000I-200000J0D01*
G01*
X35666000Y-66694000D01*
G75*
G02*
X35466000Y-66494000I0J200000D01*
G01*
X35466000Y-66094000D01*
G75*
G02*
X35666000Y-65894000I200000J0D01*
G01*
G37*
G04 #@! TD.AperFunction*
G04 #@! TA.AperFunction,SMDPad,CuDef*
G36*
G01*
X23474000Y-67544000D02*
X24024000Y-67544000D01*
G75*
G02*
X24224000Y-67744000I0J-200000D01*
G01*
X24224000Y-68144000D01*
G75*
G02*
X24024000Y-68344000I-200000J0D01*
G01*
X23474000Y-68344000D01*
G75*
G02*
X23274000Y-68144000I0J200000D01*
G01*
X23274000Y-67744000D01*
G75*
G02*
X23474000Y-67544000I200000J0D01*
G01*
G37*
G04 #@! TD.AperFunction*
G04 #@! TA.AperFunction,SMDPad,CuDef*
G36*
G01*
X23474000Y-65894000D02*
X24024000Y-65894000D01*
G75*
G02*
X24224000Y-66094000I0J-200000D01*
G01*
X24224000Y-66494000D01*
G75*
G02*
X24024000Y-66694000I-200000J0D01*
G01*
X23474000Y-66694000D01*
G75*
G02*
X23274000Y-66494000I0J200000D01*
G01*
X23274000Y-66094000D01*
G75*
G02*
X23474000Y-65894000I200000J0D01*
G01*
G37*
G04 #@! TD.AperFunction*
G04 #@! TA.AperFunction,SMDPad,CuDef*
G36*
G01*
X26522000Y-67544000D02*
X27072000Y-67544000D01*
G75*
G02*
X27272000Y-67744000I0J-200000D01*
G01*
X27272000Y-68144000D01*
G75*
G02*
X27072000Y-68344000I-200000J0D01*
G01*
X26522000Y-68344000D01*
G75*
G02*
X26322000Y-68144000I0J200000D01*
G01*
X26322000Y-67744000D01*
G75*
G02*
X26522000Y-67544000I200000J0D01*
G01*
G37*
G04 #@! TD.AperFunction*
G04 #@! TA.AperFunction,SMDPad,CuDef*
G36*
G01*
X26522000Y-65894000D02*
X27072000Y-65894000D01*
G75*
G02*
X27272000Y-66094000I0J-200000D01*
G01*
X27272000Y-66494000D01*
G75*
G02*
X27072000Y-66694000I-200000J0D01*
G01*
X26522000Y-66694000D01*
G75*
G02*
X26322000Y-66494000I0J200000D01*
G01*
X26322000Y-66094000D01*
G75*
G02*
X26522000Y-65894000I200000J0D01*
G01*
G37*
G04 #@! TD.AperFunction*
G04 #@! TA.AperFunction,SMDPad,CuDef*
G36*
G01*
X30120000Y-66694000D02*
X29570000Y-66694000D01*
G75*
G02*
X29370000Y-66494000I0J200000D01*
G01*
X29370000Y-66094000D01*
G75*
G02*
X29570000Y-65894000I200000J0D01*
G01*
X30120000Y-65894000D01*
G75*
G02*
X30320000Y-66094000I0J-200000D01*
G01*
X30320000Y-66494000D01*
G75*
G02*
X30120000Y-66694000I-200000J0D01*
G01*
G37*
G04 #@! TD.AperFunction*
G04 #@! TA.AperFunction,SMDPad,CuDef*
G36*
G01*
X30120000Y-68344000D02*
X29570000Y-68344000D01*
G75*
G02*
X29370000Y-68144000I0J200000D01*
G01*
X29370000Y-67744000D01*
G75*
G02*
X29570000Y-67544000I200000J0D01*
G01*
X30120000Y-67544000D01*
G75*
G02*
X30320000Y-67744000I0J-200000D01*
G01*
X30320000Y-68144000D01*
G75*
G02*
X30120000Y-68344000I-200000J0D01*
G01*
G37*
G04 #@! TD.AperFunction*
G04 #@! TA.AperFunction,SMDPad,CuDef*
G36*
G01*
X33688000Y-81156000D02*
X34638000Y-81156000D01*
G75*
G02*
X34888000Y-81406000I0J-250000D01*
G01*
X34888000Y-81906000D01*
G75*
G02*
X34638000Y-82156000I-250000J0D01*
G01*
X33688000Y-82156000D01*
G75*
G02*
X33438000Y-81906000I0J250000D01*
G01*
X33438000Y-81406000D01*
G75*
G02*
X33688000Y-81156000I250000J0D01*
G01*
G37*
G04 #@! TD.AperFunction*
G04 #@! TA.AperFunction,SMDPad,CuDef*
G36*
G01*
X33688000Y-79256000D02*
X34638000Y-79256000D01*
G75*
G02*
X34888000Y-79506000I0J-250000D01*
G01*
X34888000Y-80006000D01*
G75*
G02*
X34638000Y-80256000I-250000J0D01*
G01*
X33688000Y-80256000D01*
G75*
G02*
X33438000Y-80006000I0J250000D01*
G01*
X33438000Y-79506000D01*
G75*
G02*
X33688000Y-79256000I250000J0D01*
G01*
G37*
G04 #@! TD.AperFunction*
G04 #@! TA.AperFunction,SMDPad,CuDef*
G36*
G01*
X100944000Y-102724000D02*
X101494000Y-102724000D01*
G75*
G02*
X101694000Y-102924000I0J-200000D01*
G01*
X101694000Y-103324000D01*
G75*
G02*
X101494000Y-103524000I-200000J0D01*
G01*
X100944000Y-103524000D01*
G75*
G02*
X100744000Y-103324000I0J200000D01*
G01*
X100744000Y-102924000D01*
G75*
G02*
X100944000Y-102724000I200000J0D01*
G01*
G37*
G04 #@! TD.AperFunction*
G04 #@! TA.AperFunction,SMDPad,CuDef*
G36*
G01*
X100944000Y-101074000D02*
X101494000Y-101074000D01*
G75*
G02*
X101694000Y-101274000I0J-200000D01*
G01*
X101694000Y-101674000D01*
G75*
G02*
X101494000Y-101874000I-200000J0D01*
G01*
X100944000Y-101874000D01*
G75*
G02*
X100744000Y-101674000I0J200000D01*
G01*
X100744000Y-101274000D01*
G75*
G02*
X100944000Y-101074000I200000J0D01*
G01*
G37*
G04 #@! TD.AperFunction*
G04 #@! TA.AperFunction,SMDPad,CuDef*
G36*
G01*
X42524000Y-102342000D02*
X43074000Y-102342000D01*
G75*
G02*
X43274000Y-102542000I0J-200000D01*
G01*
X43274000Y-102942000D01*
G75*
G02*
X43074000Y-103142000I-200000J0D01*
G01*
X42524000Y-103142000D01*
G75*
G02*
X42324000Y-102942000I0J200000D01*
G01*
X42324000Y-102542000D01*
G75*
G02*
X42524000Y-102342000I200000J0D01*
G01*
G37*
G04 #@! TD.AperFunction*
G04 #@! TA.AperFunction,SMDPad,CuDef*
G36*
G01*
X42524000Y-100692000D02*
X43074000Y-100692000D01*
G75*
G02*
X43274000Y-100892000I0J-200000D01*
G01*
X43274000Y-101292000D01*
G75*
G02*
X43074000Y-101492000I-200000J0D01*
G01*
X42524000Y-101492000D01*
G75*
G02*
X42324000Y-101292000I0J200000D01*
G01*
X42324000Y-100892000D01*
G75*
G02*
X42524000Y-100692000I200000J0D01*
G01*
G37*
G04 #@! TD.AperFunction*
G04 #@! TA.AperFunction,SMDPad,CuDef*
G36*
G01*
X91915000Y-28826000D02*
X90965000Y-28826000D01*
G75*
G02*
X90715000Y-28576000I0J250000D01*
G01*
X90715000Y-28076000D01*
G75*
G02*
X90965000Y-27826000I250000J0D01*
G01*
X91915000Y-27826000D01*
G75*
G02*
X92165000Y-28076000I0J-250000D01*
G01*
X92165000Y-28576000D01*
G75*
G02*
X91915000Y-28826000I-250000J0D01*
G01*
G37*
G04 #@! TD.AperFunction*
G04 #@! TA.AperFunction,SMDPad,CuDef*
G36*
G01*
X91915000Y-30726000D02*
X90965000Y-30726000D01*
G75*
G02*
X90715000Y-30476000I0J250000D01*
G01*
X90715000Y-29976000D01*
G75*
G02*
X90965000Y-29726000I250000J0D01*
G01*
X91915000Y-29726000D01*
G75*
G02*
X92165000Y-29976000I0J-250000D01*
G01*
X92165000Y-30476000D01*
G75*
G02*
X91915000Y-30726000I-250000J0D01*
G01*
G37*
G04 #@! TD.AperFunction*
G04 #@! TA.AperFunction,SMDPad,CuDef*
G36*
G01*
X129380000Y-28694000D02*
X128430000Y-28694000D01*
G75*
G02*
X128180000Y-28444000I0J250000D01*
G01*
X128180000Y-27944000D01*
G75*
G02*
X128430000Y-27694000I250000J0D01*
G01*
X129380000Y-27694000D01*
G75*
G02*
X129630000Y-27944000I0J-250000D01*
G01*
X129630000Y-28444000D01*
G75*
G02*
X129380000Y-28694000I-250000J0D01*
G01*
G37*
G04 #@! TD.AperFunction*
G04 #@! TA.AperFunction,SMDPad,CuDef*
G36*
G01*
X129380000Y-30594000D02*
X128430000Y-30594000D01*
G75*
G02*
X128180000Y-30344000I0J250000D01*
G01*
X128180000Y-29844000D01*
G75*
G02*
X128430000Y-29594000I250000J0D01*
G01*
X129380000Y-29594000D01*
G75*
G02*
X129630000Y-29844000I0J-250000D01*
G01*
X129630000Y-30344000D01*
G75*
G02*
X129380000Y-30594000I-250000J0D01*
G01*
G37*
G04 #@! TD.AperFunction*
D13*
X57205000Y-5175000D03*
X48205000Y-5175000D03*
D14*
X52705000Y-6175000D03*
D15*
X52705000Y-12175000D03*
D16*
X90211000Y-110862000D03*
X90861000Y-110862000D03*
X91511000Y-110862000D03*
X92161000Y-110862000D03*
X92161000Y-106562000D03*
X91511000Y-106562000D03*
X90861000Y-106562000D03*
X90211000Y-106562000D03*
G04 #@! TA.AperFunction,SMDPad,CuDef*
G36*
G01*
X81557000Y-102201000D02*
X81757000Y-102201000D01*
G75*
G02*
X81857000Y-102301000I0J-100000D01*
G01*
X81857000Y-103576000D01*
G75*
G02*
X81757000Y-103676000I-100000J0D01*
G01*
X81557000Y-103676000D01*
G75*
G02*
X81457000Y-103576000I0J100000D01*
G01*
X81457000Y-102301000D01*
G75*
G02*
X81557000Y-102201000I100000J0D01*
G01*
G37*
G04 #@! TD.AperFunction*
G04 #@! TA.AperFunction,SMDPad,CuDef*
G36*
G01*
X82207000Y-102201000D02*
X82407000Y-102201000D01*
G75*
G02*
X82507000Y-102301000I0J-100000D01*
G01*
X82507000Y-103576000D01*
G75*
G02*
X82407000Y-103676000I-100000J0D01*
G01*
X82207000Y-103676000D01*
G75*
G02*
X82107000Y-103576000I0J100000D01*
G01*
X82107000Y-102301000D01*
G75*
G02*
X82207000Y-102201000I100000J0D01*
G01*
G37*
G04 #@! TD.AperFunction*
G04 #@! TA.AperFunction,SMDPad,CuDef*
G36*
G01*
X82857000Y-102201000D02*
X83057000Y-102201000D01*
G75*
G02*
X83157000Y-102301000I0J-100000D01*
G01*
X83157000Y-103576000D01*
G75*
G02*
X83057000Y-103676000I-100000J0D01*
G01*
X82857000Y-103676000D01*
G75*
G02*
X82757000Y-103576000I0J100000D01*
G01*
X82757000Y-102301000D01*
G75*
G02*
X82857000Y-102201000I100000J0D01*
G01*
G37*
G04 #@! TD.AperFunction*
G04 #@! TA.AperFunction,SMDPad,CuDef*
G36*
G01*
X83507000Y-102201000D02*
X83707000Y-102201000D01*
G75*
G02*
X83807000Y-102301000I0J-100000D01*
G01*
X83807000Y-103576000D01*
G75*
G02*
X83707000Y-103676000I-100000J0D01*
G01*
X83507000Y-103676000D01*
G75*
G02*
X83407000Y-103576000I0J100000D01*
G01*
X83407000Y-102301000D01*
G75*
G02*
X83507000Y-102201000I100000J0D01*
G01*
G37*
G04 #@! TD.AperFunction*
G04 #@! TA.AperFunction,SMDPad,CuDef*
G36*
G01*
X84157000Y-102201000D02*
X84357000Y-102201000D01*
G75*
G02*
X84457000Y-102301000I0J-100000D01*
G01*
X84457000Y-103576000D01*
G75*
G02*
X84357000Y-103676000I-100000J0D01*
G01*
X84157000Y-103676000D01*
G75*
G02*
X84057000Y-103576000I0J100000D01*
G01*
X84057000Y-102301000D01*
G75*
G02*
X84157000Y-102201000I100000J0D01*
G01*
G37*
G04 #@! TD.AperFunction*
G04 #@! TA.AperFunction,SMDPad,CuDef*
G36*
G01*
X84807000Y-102201000D02*
X85007000Y-102201000D01*
G75*
G02*
X85107000Y-102301000I0J-100000D01*
G01*
X85107000Y-103576000D01*
G75*
G02*
X85007000Y-103676000I-100000J0D01*
G01*
X84807000Y-103676000D01*
G75*
G02*
X84707000Y-103576000I0J100000D01*
G01*
X84707000Y-102301000D01*
G75*
G02*
X84807000Y-102201000I100000J0D01*
G01*
G37*
G04 #@! TD.AperFunction*
G04 #@! TA.AperFunction,SMDPad,CuDef*
G36*
G01*
X85457000Y-102201000D02*
X85657000Y-102201000D01*
G75*
G02*
X85757000Y-102301000I0J-100000D01*
G01*
X85757000Y-103576000D01*
G75*
G02*
X85657000Y-103676000I-100000J0D01*
G01*
X85457000Y-103676000D01*
G75*
G02*
X85357000Y-103576000I0J100000D01*
G01*
X85357000Y-102301000D01*
G75*
G02*
X85457000Y-102201000I100000J0D01*
G01*
G37*
G04 #@! TD.AperFunction*
G04 #@! TA.AperFunction,SMDPad,CuDef*
G36*
G01*
X86107000Y-102201000D02*
X86307000Y-102201000D01*
G75*
G02*
X86407000Y-102301000I0J-100000D01*
G01*
X86407000Y-103576000D01*
G75*
G02*
X86307000Y-103676000I-100000J0D01*
G01*
X86107000Y-103676000D01*
G75*
G02*
X86007000Y-103576000I0J100000D01*
G01*
X86007000Y-102301000D01*
G75*
G02*
X86107000Y-102201000I100000J0D01*
G01*
G37*
G04 #@! TD.AperFunction*
G04 #@! TA.AperFunction,SMDPad,CuDef*
G36*
G01*
X86757000Y-102201000D02*
X86957000Y-102201000D01*
G75*
G02*
X87057000Y-102301000I0J-100000D01*
G01*
X87057000Y-103576000D01*
G75*
G02*
X86957000Y-103676000I-100000J0D01*
G01*
X86757000Y-103676000D01*
G75*
G02*
X86657000Y-103576000I0J100000D01*
G01*
X86657000Y-102301000D01*
G75*
G02*
X86757000Y-102201000I100000J0D01*
G01*
G37*
G04 #@! TD.AperFunction*
G04 #@! TA.AperFunction,SMDPad,CuDef*
G36*
G01*
X87407000Y-102201000D02*
X87607000Y-102201000D01*
G75*
G02*
X87707000Y-102301000I0J-100000D01*
G01*
X87707000Y-103576000D01*
G75*
G02*
X87607000Y-103676000I-100000J0D01*
G01*
X87407000Y-103676000D01*
G75*
G02*
X87307000Y-103576000I0J100000D01*
G01*
X87307000Y-102301000D01*
G75*
G02*
X87407000Y-102201000I100000J0D01*
G01*
G37*
G04 #@! TD.AperFunction*
G04 #@! TA.AperFunction,SMDPad,CuDef*
G36*
G01*
X87407000Y-96476000D02*
X87607000Y-96476000D01*
G75*
G02*
X87707000Y-96576000I0J-100000D01*
G01*
X87707000Y-97851000D01*
G75*
G02*
X87607000Y-97951000I-100000J0D01*
G01*
X87407000Y-97951000D01*
G75*
G02*
X87307000Y-97851000I0J100000D01*
G01*
X87307000Y-96576000D01*
G75*
G02*
X87407000Y-96476000I100000J0D01*
G01*
G37*
G04 #@! TD.AperFunction*
G04 #@! TA.AperFunction,SMDPad,CuDef*
G36*
G01*
X86757000Y-96476000D02*
X86957000Y-96476000D01*
G75*
G02*
X87057000Y-96576000I0J-100000D01*
G01*
X87057000Y-97851000D01*
G75*
G02*
X86957000Y-97951000I-100000J0D01*
G01*
X86757000Y-97951000D01*
G75*
G02*
X86657000Y-97851000I0J100000D01*
G01*
X86657000Y-96576000D01*
G75*
G02*
X86757000Y-96476000I100000J0D01*
G01*
G37*
G04 #@! TD.AperFunction*
G04 #@! TA.AperFunction,SMDPad,CuDef*
G36*
G01*
X86107000Y-96476000D02*
X86307000Y-96476000D01*
G75*
G02*
X86407000Y-96576000I0J-100000D01*
G01*
X86407000Y-97851000D01*
G75*
G02*
X86307000Y-97951000I-100000J0D01*
G01*
X86107000Y-97951000D01*
G75*
G02*
X86007000Y-97851000I0J100000D01*
G01*
X86007000Y-96576000D01*
G75*
G02*
X86107000Y-96476000I100000J0D01*
G01*
G37*
G04 #@! TD.AperFunction*
G04 #@! TA.AperFunction,SMDPad,CuDef*
G36*
G01*
X85457000Y-96476000D02*
X85657000Y-96476000D01*
G75*
G02*
X85757000Y-96576000I0J-100000D01*
G01*
X85757000Y-97851000D01*
G75*
G02*
X85657000Y-97951000I-100000J0D01*
G01*
X85457000Y-97951000D01*
G75*
G02*
X85357000Y-97851000I0J100000D01*
G01*
X85357000Y-96576000D01*
G75*
G02*
X85457000Y-96476000I100000J0D01*
G01*
G37*
G04 #@! TD.AperFunction*
G04 #@! TA.AperFunction,SMDPad,CuDef*
G36*
G01*
X84807000Y-96476000D02*
X85007000Y-96476000D01*
G75*
G02*
X85107000Y-96576000I0J-100000D01*
G01*
X85107000Y-97851000D01*
G75*
G02*
X85007000Y-97951000I-100000J0D01*
G01*
X84807000Y-97951000D01*
G75*
G02*
X84707000Y-97851000I0J100000D01*
G01*
X84707000Y-96576000D01*
G75*
G02*
X84807000Y-96476000I100000J0D01*
G01*
G37*
G04 #@! TD.AperFunction*
G04 #@! TA.AperFunction,SMDPad,CuDef*
G36*
G01*
X84157000Y-96476000D02*
X84357000Y-96476000D01*
G75*
G02*
X84457000Y-96576000I0J-100000D01*
G01*
X84457000Y-97851000D01*
G75*
G02*
X84357000Y-97951000I-100000J0D01*
G01*
X84157000Y-97951000D01*
G75*
G02*
X84057000Y-97851000I0J100000D01*
G01*
X84057000Y-96576000D01*
G75*
G02*
X84157000Y-96476000I100000J0D01*
G01*
G37*
G04 #@! TD.AperFunction*
G04 #@! TA.AperFunction,SMDPad,CuDef*
G36*
G01*
X83507000Y-96476000D02*
X83707000Y-96476000D01*
G75*
G02*
X83807000Y-96576000I0J-100000D01*
G01*
X83807000Y-97851000D01*
G75*
G02*
X83707000Y-97951000I-100000J0D01*
G01*
X83507000Y-97951000D01*
G75*
G02*
X83407000Y-97851000I0J100000D01*
G01*
X83407000Y-96576000D01*
G75*
G02*
X83507000Y-96476000I100000J0D01*
G01*
G37*
G04 #@! TD.AperFunction*
G04 #@! TA.AperFunction,SMDPad,CuDef*
G36*
G01*
X82857000Y-96476000D02*
X83057000Y-96476000D01*
G75*
G02*
X83157000Y-96576000I0J-100000D01*
G01*
X83157000Y-97851000D01*
G75*
G02*
X83057000Y-97951000I-100000J0D01*
G01*
X82857000Y-97951000D01*
G75*
G02*
X82757000Y-97851000I0J100000D01*
G01*
X82757000Y-96576000D01*
G75*
G02*
X82857000Y-96476000I100000J0D01*
G01*
G37*
G04 #@! TD.AperFunction*
G04 #@! TA.AperFunction,SMDPad,CuDef*
G36*
G01*
X82207000Y-96476000D02*
X82407000Y-96476000D01*
G75*
G02*
X82507000Y-96576000I0J-100000D01*
G01*
X82507000Y-97851000D01*
G75*
G02*
X82407000Y-97951000I-100000J0D01*
G01*
X82207000Y-97951000D01*
G75*
G02*
X82107000Y-97851000I0J100000D01*
G01*
X82107000Y-96576000D01*
G75*
G02*
X82207000Y-96476000I100000J0D01*
G01*
G37*
G04 #@! TD.AperFunction*
G04 #@! TA.AperFunction,SMDPad,CuDef*
G36*
G01*
X81557000Y-96476000D02*
X81757000Y-96476000D01*
G75*
G02*
X81857000Y-96576000I0J-100000D01*
G01*
X81857000Y-97851000D01*
G75*
G02*
X81757000Y-97951000I-100000J0D01*
G01*
X81557000Y-97951000D01*
G75*
G02*
X81457000Y-97851000I0J100000D01*
G01*
X81457000Y-96576000D01*
G75*
G02*
X81557000Y-96476000I100000J0D01*
G01*
G37*
G04 #@! TD.AperFunction*
D10*
X13975000Y-75057000D03*
X15875000Y-75057000D03*
X14925000Y-77057000D03*
D17*
X55438000Y-108498000D03*
X56388000Y-108498000D03*
X57338000Y-108498000D03*
X57338000Y-105878000D03*
X56388000Y-105878000D03*
X55438000Y-105878000D03*
D18*
X49022000Y-23636000D03*
X49022000Y-19036000D03*
X49022000Y-21336000D03*
D19*
X55322000Y-21336000D03*
G04 #@! TA.AperFunction,SMDPad,CuDef*
G36*
G01*
X25040000Y-54502000D02*
X24490000Y-54502000D01*
G75*
G02*
X24290000Y-54302000I0J200000D01*
G01*
X24290000Y-53902000D01*
G75*
G02*
X24490000Y-53702000I200000J0D01*
G01*
X25040000Y-53702000D01*
G75*
G02*
X25240000Y-53902000I0J-200000D01*
G01*
X25240000Y-54302000D01*
G75*
G02*
X25040000Y-54502000I-200000J0D01*
G01*
G37*
G04 #@! TD.AperFunction*
G04 #@! TA.AperFunction,SMDPad,CuDef*
G36*
G01*
X25040000Y-56152000D02*
X24490000Y-56152000D01*
G75*
G02*
X24290000Y-55952000I0J200000D01*
G01*
X24290000Y-55552000D01*
G75*
G02*
X24490000Y-55352000I200000J0D01*
G01*
X25040000Y-55352000D01*
G75*
G02*
X25240000Y-55552000I0J-200000D01*
G01*
X25240000Y-55952000D01*
G75*
G02*
X25040000Y-56152000I-200000J0D01*
G01*
G37*
G04 #@! TD.AperFunction*
G04 #@! TA.AperFunction,SMDPad,CuDef*
G36*
G01*
X30586000Y-55289000D02*
X31136000Y-55289000D01*
G75*
G02*
X31336000Y-55489000I0J-200000D01*
G01*
X31336000Y-55889000D01*
G75*
G02*
X31136000Y-56089000I-200000J0D01*
G01*
X30586000Y-56089000D01*
G75*
G02*
X30386000Y-55889000I0J200000D01*
G01*
X30386000Y-55489000D01*
G75*
G02*
X30586000Y-55289000I200000J0D01*
G01*
G37*
G04 #@! TD.AperFunction*
G04 #@! TA.AperFunction,SMDPad,CuDef*
G36*
G01*
X30586000Y-53639000D02*
X31136000Y-53639000D01*
G75*
G02*
X31336000Y-53839000I0J-200000D01*
G01*
X31336000Y-54239000D01*
G75*
G02*
X31136000Y-54439000I-200000J0D01*
G01*
X30586000Y-54439000D01*
G75*
G02*
X30386000Y-54239000I0J200000D01*
G01*
X30386000Y-53839000D01*
G75*
G02*
X30586000Y-53639000I200000J0D01*
G01*
G37*
G04 #@! TD.AperFunction*
G04 #@! TA.AperFunction,SMDPad,CuDef*
G36*
G01*
X27538000Y-55352000D02*
X28088000Y-55352000D01*
G75*
G02*
X28288000Y-55552000I0J-200000D01*
G01*
X28288000Y-55952000D01*
G75*
G02*
X28088000Y-56152000I-200000J0D01*
G01*
X27538000Y-56152000D01*
G75*
G02*
X27338000Y-55952000I0J200000D01*
G01*
X27338000Y-55552000D01*
G75*
G02*
X27538000Y-55352000I200000J0D01*
G01*
G37*
G04 #@! TD.AperFunction*
G04 #@! TA.AperFunction,SMDPad,CuDef*
G36*
G01*
X27538000Y-53702000D02*
X28088000Y-53702000D01*
G75*
G02*
X28288000Y-53902000I0J-200000D01*
G01*
X28288000Y-54302000D01*
G75*
G02*
X28088000Y-54502000I-200000J0D01*
G01*
X27538000Y-54502000D01*
G75*
G02*
X27338000Y-54302000I0J200000D01*
G01*
X27338000Y-53902000D01*
G75*
G02*
X27538000Y-53702000I200000J0D01*
G01*
G37*
G04 #@! TD.AperFunction*
G04 #@! TA.AperFunction,SMDPad,CuDef*
G36*
G01*
X32618000Y-41319000D02*
X33168000Y-41319000D01*
G75*
G02*
X33368000Y-41519000I0J-200000D01*
G01*
X33368000Y-41919000D01*
G75*
G02*
X33168000Y-42119000I-200000J0D01*
G01*
X32618000Y-42119000D01*
G75*
G02*
X32418000Y-41919000I0J200000D01*
G01*
X32418000Y-41519000D01*
G75*
G02*
X32618000Y-41319000I200000J0D01*
G01*
G37*
G04 #@! TD.AperFunction*
G04 #@! TA.AperFunction,SMDPad,CuDef*
G36*
G01*
X32618000Y-39669000D02*
X33168000Y-39669000D01*
G75*
G02*
X33368000Y-39869000I0J-200000D01*
G01*
X33368000Y-40269000D01*
G75*
G02*
X33168000Y-40469000I-200000J0D01*
G01*
X32618000Y-40469000D01*
G75*
G02*
X32418000Y-40269000I0J200000D01*
G01*
X32418000Y-39869000D01*
G75*
G02*
X32618000Y-39669000I200000J0D01*
G01*
G37*
G04 #@! TD.AperFunction*
G04 #@! TA.AperFunction,SMDPad,CuDef*
G36*
G01*
X35666000Y-41319000D02*
X36216000Y-41319000D01*
G75*
G02*
X36416000Y-41519000I0J-200000D01*
G01*
X36416000Y-41919000D01*
G75*
G02*
X36216000Y-42119000I-200000J0D01*
G01*
X35666000Y-42119000D01*
G75*
G02*
X35466000Y-41919000I0J200000D01*
G01*
X35466000Y-41519000D01*
G75*
G02*
X35666000Y-41319000I200000J0D01*
G01*
G37*
G04 #@! TD.AperFunction*
G04 #@! TA.AperFunction,SMDPad,CuDef*
G36*
G01*
X35666000Y-39669000D02*
X36216000Y-39669000D01*
G75*
G02*
X36416000Y-39869000I0J-200000D01*
G01*
X36416000Y-40269000D01*
G75*
G02*
X36216000Y-40469000I-200000J0D01*
G01*
X35666000Y-40469000D01*
G75*
G02*
X35466000Y-40269000I0J200000D01*
G01*
X35466000Y-39869000D01*
G75*
G02*
X35666000Y-39669000I200000J0D01*
G01*
G37*
G04 #@! TD.AperFunction*
G04 #@! TA.AperFunction,SMDPad,CuDef*
G36*
G01*
X23474000Y-41256000D02*
X24024000Y-41256000D01*
G75*
G02*
X24224000Y-41456000I0J-200000D01*
G01*
X24224000Y-41856000D01*
G75*
G02*
X24024000Y-42056000I-200000J0D01*
G01*
X23474000Y-42056000D01*
G75*
G02*
X23274000Y-41856000I0J200000D01*
G01*
X23274000Y-41456000D01*
G75*
G02*
X23474000Y-41256000I200000J0D01*
G01*
G37*
G04 #@! TD.AperFunction*
G04 #@! TA.AperFunction,SMDPad,CuDef*
G36*
G01*
X23474000Y-39606000D02*
X24024000Y-39606000D01*
G75*
G02*
X24224000Y-39806000I0J-200000D01*
G01*
X24224000Y-40206000D01*
G75*
G02*
X24024000Y-40406000I-200000J0D01*
G01*
X23474000Y-40406000D01*
G75*
G02*
X23274000Y-40206000I0J200000D01*
G01*
X23274000Y-39806000D01*
G75*
G02*
X23474000Y-39606000I200000J0D01*
G01*
G37*
G04 #@! TD.AperFunction*
G04 #@! TA.AperFunction,SMDPad,CuDef*
G36*
G01*
X30120000Y-40469000D02*
X29570000Y-40469000D01*
G75*
G02*
X29370000Y-40269000I0J200000D01*
G01*
X29370000Y-39869000D01*
G75*
G02*
X29570000Y-39669000I200000J0D01*
G01*
X30120000Y-39669000D01*
G75*
G02*
X30320000Y-39869000I0J-200000D01*
G01*
X30320000Y-40269000D01*
G75*
G02*
X30120000Y-40469000I-200000J0D01*
G01*
G37*
G04 #@! TD.AperFunction*
G04 #@! TA.AperFunction,SMDPad,CuDef*
G36*
G01*
X30120000Y-42119000D02*
X29570000Y-42119000D01*
G75*
G02*
X29370000Y-41919000I0J200000D01*
G01*
X29370000Y-41519000D01*
G75*
G02*
X29570000Y-41319000I200000J0D01*
G01*
X30120000Y-41319000D01*
G75*
G02*
X30320000Y-41519000I0J-200000D01*
G01*
X30320000Y-41919000D01*
G75*
G02*
X30120000Y-42119000I-200000J0D01*
G01*
G37*
G04 #@! TD.AperFunction*
G04 #@! TA.AperFunction,SMDPad,CuDef*
G36*
G01*
X27072000Y-40469000D02*
X26522000Y-40469000D01*
G75*
G02*
X26322000Y-40269000I0J200000D01*
G01*
X26322000Y-39869000D01*
G75*
G02*
X26522000Y-39669000I200000J0D01*
G01*
X27072000Y-39669000D01*
G75*
G02*
X27272000Y-39869000I0J-200000D01*
G01*
X27272000Y-40269000D01*
G75*
G02*
X27072000Y-40469000I-200000J0D01*
G01*
G37*
G04 #@! TD.AperFunction*
G04 #@! TA.AperFunction,SMDPad,CuDef*
G36*
G01*
X27072000Y-42119000D02*
X26522000Y-42119000D01*
G75*
G02*
X26322000Y-41919000I0J200000D01*
G01*
X26322000Y-41519000D01*
G75*
G02*
X26522000Y-41319000I200000J0D01*
G01*
X27072000Y-41319000D01*
G75*
G02*
X27272000Y-41519000I0J-200000D01*
G01*
X27272000Y-41919000D01*
G75*
G02*
X27072000Y-42119000I-200000J0D01*
G01*
G37*
G04 #@! TD.AperFunction*
G04 #@! TA.AperFunction,SMDPad,CuDef*
G36*
G01*
X75713000Y-92222000D02*
X75163000Y-92222000D01*
G75*
G02*
X74963000Y-92022000I0J200000D01*
G01*
X74963000Y-91622000D01*
G75*
G02*
X75163000Y-91422000I200000J0D01*
G01*
X75713000Y-91422000D01*
G75*
G02*
X75913000Y-91622000I0J-200000D01*
G01*
X75913000Y-92022000D01*
G75*
G02*
X75713000Y-92222000I-200000J0D01*
G01*
G37*
G04 #@! TD.AperFunction*
G04 #@! TA.AperFunction,SMDPad,CuDef*
G36*
G01*
X75713000Y-93872000D02*
X75163000Y-93872000D01*
G75*
G02*
X74963000Y-93672000I0J200000D01*
G01*
X74963000Y-93272000D01*
G75*
G02*
X75163000Y-93072000I200000J0D01*
G01*
X75713000Y-93072000D01*
G75*
G02*
X75913000Y-93272000I0J-200000D01*
G01*
X75913000Y-93672000D01*
G75*
G02*
X75713000Y-93872000I-200000J0D01*
G01*
G37*
G04 #@! TD.AperFunction*
G04 #@! TA.AperFunction,SMDPad,CuDef*
G36*
G01*
X52853000Y-67837000D02*
X52303000Y-67837000D01*
G75*
G02*
X52103000Y-67637000I0J200000D01*
G01*
X52103000Y-67237000D01*
G75*
G02*
X52303000Y-67037000I200000J0D01*
G01*
X52853000Y-67037000D01*
G75*
G02*
X53053000Y-67237000I0J-200000D01*
G01*
X53053000Y-67637000D01*
G75*
G02*
X52853000Y-67837000I-200000J0D01*
G01*
G37*
G04 #@! TD.AperFunction*
G04 #@! TA.AperFunction,SMDPad,CuDef*
G36*
G01*
X52853000Y-69487000D02*
X52303000Y-69487000D01*
G75*
G02*
X52103000Y-69287000I0J200000D01*
G01*
X52103000Y-68887000D01*
G75*
G02*
X52303000Y-68687000I200000J0D01*
G01*
X52853000Y-68687000D01*
G75*
G02*
X53053000Y-68887000I0J-200000D01*
G01*
X53053000Y-69287000D01*
G75*
G02*
X52853000Y-69487000I-200000J0D01*
G01*
G37*
G04 #@! TD.AperFunction*
G04 #@! TA.AperFunction,SMDPad,CuDef*
G36*
G01*
X52303000Y-54336000D02*
X52853000Y-54336000D01*
G75*
G02*
X53053000Y-54536000I0J-200000D01*
G01*
X53053000Y-54936000D01*
G75*
G02*
X52853000Y-55136000I-200000J0D01*
G01*
X52303000Y-55136000D01*
G75*
G02*
X52103000Y-54936000I0J200000D01*
G01*
X52103000Y-54536000D01*
G75*
G02*
X52303000Y-54336000I200000J0D01*
G01*
G37*
G04 #@! TD.AperFunction*
G04 #@! TA.AperFunction,SMDPad,CuDef*
G36*
G01*
X52303000Y-52686000D02*
X52853000Y-52686000D01*
G75*
G02*
X53053000Y-52886000I0J-200000D01*
G01*
X53053000Y-53286000D01*
G75*
G02*
X52853000Y-53486000I-200000J0D01*
G01*
X52303000Y-53486000D01*
G75*
G02*
X52103000Y-53286000I0J200000D01*
G01*
X52103000Y-52886000D01*
G75*
G02*
X52303000Y-52686000I200000J0D01*
G01*
G37*
G04 #@! TD.AperFunction*
G04 #@! TA.AperFunction,SMDPad,CuDef*
G36*
G01*
X52303000Y-73132000D02*
X52853000Y-73132000D01*
G75*
G02*
X53053000Y-73332000I0J-200000D01*
G01*
X53053000Y-73732000D01*
G75*
G02*
X52853000Y-73932000I-200000J0D01*
G01*
X52303000Y-73932000D01*
G75*
G02*
X52103000Y-73732000I0J200000D01*
G01*
X52103000Y-73332000D01*
G75*
G02*
X52303000Y-73132000I200000J0D01*
G01*
G37*
G04 #@! TD.AperFunction*
G04 #@! TA.AperFunction,SMDPad,CuDef*
G36*
G01*
X52303000Y-71482000D02*
X52853000Y-71482000D01*
G75*
G02*
X53053000Y-71682000I0J-200000D01*
G01*
X53053000Y-72082000D01*
G75*
G02*
X52853000Y-72282000I-200000J0D01*
G01*
X52303000Y-72282000D01*
G75*
G02*
X52103000Y-72082000I0J200000D01*
G01*
X52103000Y-71682000D01*
G75*
G02*
X52303000Y-71482000I200000J0D01*
G01*
G37*
G04 #@! TD.AperFunction*
G04 #@! TA.AperFunction,SMDPad,CuDef*
G36*
G01*
X61701000Y-73132000D02*
X62251000Y-73132000D01*
G75*
G02*
X62451000Y-73332000I0J-200000D01*
G01*
X62451000Y-73732000D01*
G75*
G02*
X62251000Y-73932000I-200000J0D01*
G01*
X61701000Y-73932000D01*
G75*
G02*
X61501000Y-73732000I0J200000D01*
G01*
X61501000Y-73332000D01*
G75*
G02*
X61701000Y-73132000I200000J0D01*
G01*
G37*
G04 #@! TD.AperFunction*
G04 #@! TA.AperFunction,SMDPad,CuDef*
G36*
G01*
X61701000Y-71482000D02*
X62251000Y-71482000D01*
G75*
G02*
X62451000Y-71682000I0J-200000D01*
G01*
X62451000Y-72082000D01*
G75*
G02*
X62251000Y-72282000I-200000J0D01*
G01*
X61701000Y-72282000D01*
G75*
G02*
X61501000Y-72082000I0J200000D01*
G01*
X61501000Y-71682000D01*
G75*
G02*
X61701000Y-71482000I200000J0D01*
G01*
G37*
G04 #@! TD.AperFunction*
G04 #@! TA.AperFunction,SMDPad,CuDef*
G36*
G01*
X58653000Y-73132000D02*
X59203000Y-73132000D01*
G75*
G02*
X59403000Y-73332000I0J-200000D01*
G01*
X59403000Y-73732000D01*
G75*
G02*
X59203000Y-73932000I-200000J0D01*
G01*
X58653000Y-73932000D01*
G75*
G02*
X58453000Y-73732000I0J200000D01*
G01*
X58453000Y-73332000D01*
G75*
G02*
X58653000Y-73132000I200000J0D01*
G01*
G37*
G04 #@! TD.AperFunction*
G04 #@! TA.AperFunction,SMDPad,CuDef*
G36*
G01*
X58653000Y-71482000D02*
X59203000Y-71482000D01*
G75*
G02*
X59403000Y-71682000I0J-200000D01*
G01*
X59403000Y-72082000D01*
G75*
G02*
X59203000Y-72282000I-200000J0D01*
G01*
X58653000Y-72282000D01*
G75*
G02*
X58453000Y-72082000I0J200000D01*
G01*
X58453000Y-71682000D01*
G75*
G02*
X58653000Y-71482000I200000J0D01*
G01*
G37*
G04 #@! TD.AperFunction*
G04 #@! TA.AperFunction,SMDPad,CuDef*
G36*
G01*
X49255000Y-73132000D02*
X49805000Y-73132000D01*
G75*
G02*
X50005000Y-73332000I0J-200000D01*
G01*
X50005000Y-73732000D01*
G75*
G02*
X49805000Y-73932000I-200000J0D01*
G01*
X49255000Y-73932000D01*
G75*
G02*
X49055000Y-73732000I0J200000D01*
G01*
X49055000Y-73332000D01*
G75*
G02*
X49255000Y-73132000I200000J0D01*
G01*
G37*
G04 #@! TD.AperFunction*
G04 #@! TA.AperFunction,SMDPad,CuDef*
G36*
G01*
X49255000Y-71482000D02*
X49805000Y-71482000D01*
G75*
G02*
X50005000Y-71682000I0J-200000D01*
G01*
X50005000Y-72082000D01*
G75*
G02*
X49805000Y-72282000I-200000J0D01*
G01*
X49255000Y-72282000D01*
G75*
G02*
X49055000Y-72082000I0J200000D01*
G01*
X49055000Y-71682000D01*
G75*
G02*
X49255000Y-71482000I200000J0D01*
G01*
G37*
G04 #@! TD.AperFunction*
G04 #@! TA.AperFunction,SMDPad,CuDef*
G36*
G01*
X56155000Y-53487000D02*
X55605000Y-53487000D01*
G75*
G02*
X55405000Y-53287000I0J200000D01*
G01*
X55405000Y-52887000D01*
G75*
G02*
X55605000Y-52687000I200000J0D01*
G01*
X56155000Y-52687000D01*
G75*
G02*
X56355000Y-52887000I0J-200000D01*
G01*
X56355000Y-53287000D01*
G75*
G02*
X56155000Y-53487000I-200000J0D01*
G01*
G37*
G04 #@! TD.AperFunction*
G04 #@! TA.AperFunction,SMDPad,CuDef*
G36*
G01*
X56155000Y-55137000D02*
X55605000Y-55137000D01*
G75*
G02*
X55405000Y-54937000I0J200000D01*
G01*
X55405000Y-54537000D01*
G75*
G02*
X55605000Y-54337000I200000J0D01*
G01*
X56155000Y-54337000D01*
G75*
G02*
X56355000Y-54537000I0J-200000D01*
G01*
X56355000Y-54937000D01*
G75*
G02*
X56155000Y-55137000I-200000J0D01*
G01*
G37*
G04 #@! TD.AperFunction*
G04 #@! TA.AperFunction,SMDPad,CuDef*
G36*
G01*
X59203000Y-53486000D02*
X58653000Y-53486000D01*
G75*
G02*
X58453000Y-53286000I0J200000D01*
G01*
X58453000Y-52886000D01*
G75*
G02*
X58653000Y-52686000I200000J0D01*
G01*
X59203000Y-52686000D01*
G75*
G02*
X59403000Y-52886000I0J-200000D01*
G01*
X59403000Y-53286000D01*
G75*
G02*
X59203000Y-53486000I-200000J0D01*
G01*
G37*
G04 #@! TD.AperFunction*
G04 #@! TA.AperFunction,SMDPad,CuDef*
G36*
G01*
X59203000Y-55136000D02*
X58653000Y-55136000D01*
G75*
G02*
X58453000Y-54936000I0J200000D01*
G01*
X58453000Y-54536000D01*
G75*
G02*
X58653000Y-54336000I200000J0D01*
G01*
X59203000Y-54336000D01*
G75*
G02*
X59403000Y-54536000I0J-200000D01*
G01*
X59403000Y-54936000D01*
G75*
G02*
X59203000Y-55136000I-200000J0D01*
G01*
G37*
G04 #@! TD.AperFunction*
G04 #@! TA.AperFunction,SMDPad,CuDef*
G36*
G01*
X52853000Y-49042000D02*
X52303000Y-49042000D01*
G75*
G02*
X52103000Y-48842000I0J200000D01*
G01*
X52103000Y-48442000D01*
G75*
G02*
X52303000Y-48242000I200000J0D01*
G01*
X52853000Y-48242000D01*
G75*
G02*
X53053000Y-48442000I0J-200000D01*
G01*
X53053000Y-48842000D01*
G75*
G02*
X52853000Y-49042000I-200000J0D01*
G01*
G37*
G04 #@! TD.AperFunction*
G04 #@! TA.AperFunction,SMDPad,CuDef*
G36*
G01*
X52853000Y-50692000D02*
X52303000Y-50692000D01*
G75*
G02*
X52103000Y-50492000I0J200000D01*
G01*
X52103000Y-50092000D01*
G75*
G02*
X52303000Y-49892000I200000J0D01*
G01*
X52853000Y-49892000D01*
G75*
G02*
X53053000Y-50092000I0J-200000D01*
G01*
X53053000Y-50492000D01*
G75*
G02*
X52853000Y-50692000I-200000J0D01*
G01*
G37*
G04 #@! TD.AperFunction*
G04 #@! TA.AperFunction,SMDPad,CuDef*
G36*
G01*
X59203000Y-49042000D02*
X58653000Y-49042000D01*
G75*
G02*
X58453000Y-48842000I0J200000D01*
G01*
X58453000Y-48442000D01*
G75*
G02*
X58653000Y-48242000I200000J0D01*
G01*
X59203000Y-48242000D01*
G75*
G02*
X59403000Y-48442000I0J-200000D01*
G01*
X59403000Y-48842000D01*
G75*
G02*
X59203000Y-49042000I-200000J0D01*
G01*
G37*
G04 #@! TD.AperFunction*
G04 #@! TA.AperFunction,SMDPad,CuDef*
G36*
G01*
X59203000Y-50692000D02*
X58653000Y-50692000D01*
G75*
G02*
X58453000Y-50492000I0J200000D01*
G01*
X58453000Y-50092000D01*
G75*
G02*
X58653000Y-49892000I200000J0D01*
G01*
X59203000Y-49892000D01*
G75*
G02*
X59403000Y-50092000I0J-200000D01*
G01*
X59403000Y-50492000D01*
G75*
G02*
X59203000Y-50692000I-200000J0D01*
G01*
G37*
G04 #@! TD.AperFunction*
G04 #@! TA.AperFunction,SMDPad,CuDef*
G36*
G01*
X56155000Y-49168000D02*
X55605000Y-49168000D01*
G75*
G02*
X55405000Y-48968000I0J200000D01*
G01*
X55405000Y-48568000D01*
G75*
G02*
X55605000Y-48368000I200000J0D01*
G01*
X56155000Y-48368000D01*
G75*
G02*
X56355000Y-48568000I0J-200000D01*
G01*
X56355000Y-48968000D01*
G75*
G02*
X56155000Y-49168000I-200000J0D01*
G01*
G37*
G04 #@! TD.AperFunction*
G04 #@! TA.AperFunction,SMDPad,CuDef*
G36*
G01*
X56155000Y-50818000D02*
X55605000Y-50818000D01*
G75*
G02*
X55405000Y-50618000I0J200000D01*
G01*
X55405000Y-50218000D01*
G75*
G02*
X55605000Y-50018000I200000J0D01*
G01*
X56155000Y-50018000D01*
G75*
G02*
X56355000Y-50218000I0J-200000D01*
G01*
X56355000Y-50618000D01*
G75*
G02*
X56155000Y-50818000I-200000J0D01*
G01*
G37*
G04 #@! TD.AperFunction*
G04 #@! TA.AperFunction,SMDPad,CuDef*
G36*
G01*
X49805000Y-49042000D02*
X49255000Y-49042000D01*
G75*
G02*
X49055000Y-48842000I0J200000D01*
G01*
X49055000Y-48442000D01*
G75*
G02*
X49255000Y-48242000I200000J0D01*
G01*
X49805000Y-48242000D01*
G75*
G02*
X50005000Y-48442000I0J-200000D01*
G01*
X50005000Y-48842000D01*
G75*
G02*
X49805000Y-49042000I-200000J0D01*
G01*
G37*
G04 #@! TD.AperFunction*
G04 #@! TA.AperFunction,SMDPad,CuDef*
G36*
G01*
X49805000Y-50692000D02*
X49255000Y-50692000D01*
G75*
G02*
X49055000Y-50492000I0J200000D01*
G01*
X49055000Y-50092000D01*
G75*
G02*
X49255000Y-49892000I200000J0D01*
G01*
X49805000Y-49892000D01*
G75*
G02*
X50005000Y-50092000I0J-200000D01*
G01*
X50005000Y-50492000D01*
G75*
G02*
X49805000Y-50692000I-200000J0D01*
G01*
G37*
G04 #@! TD.AperFunction*
G04 #@! TA.AperFunction,SMDPad,CuDef*
G36*
G01*
X61701000Y-59417000D02*
X62251000Y-59417000D01*
G75*
G02*
X62451000Y-59617000I0J-200000D01*
G01*
X62451000Y-60017000D01*
G75*
G02*
X62251000Y-60217000I-200000J0D01*
G01*
X61701000Y-60217000D01*
G75*
G02*
X61501000Y-60017000I0J200000D01*
G01*
X61501000Y-59617000D01*
G75*
G02*
X61701000Y-59417000I200000J0D01*
G01*
G37*
G04 #@! TD.AperFunction*
G04 #@! TA.AperFunction,SMDPad,CuDef*
G36*
G01*
X61701000Y-57767000D02*
X62251000Y-57767000D01*
G75*
G02*
X62451000Y-57967000I0J-200000D01*
G01*
X62451000Y-58367000D01*
G75*
G02*
X62251000Y-58567000I-200000J0D01*
G01*
X61701000Y-58567000D01*
G75*
G02*
X61501000Y-58367000I0J200000D01*
G01*
X61501000Y-57967000D01*
G75*
G02*
X61701000Y-57767000I200000J0D01*
G01*
G37*
G04 #@! TD.AperFunction*
G04 #@! TA.AperFunction,SMDPad,CuDef*
G36*
G01*
X61701000Y-64242000D02*
X62251000Y-64242000D01*
G75*
G02*
X62451000Y-64442000I0J-200000D01*
G01*
X62451000Y-64842000D01*
G75*
G02*
X62251000Y-65042000I-200000J0D01*
G01*
X61701000Y-65042000D01*
G75*
G02*
X61501000Y-64842000I0J200000D01*
G01*
X61501000Y-64442000D01*
G75*
G02*
X61701000Y-64242000I200000J0D01*
G01*
G37*
G04 #@! TD.AperFunction*
G04 #@! TA.AperFunction,SMDPad,CuDef*
G36*
G01*
X61701000Y-62592000D02*
X62251000Y-62592000D01*
G75*
G02*
X62451000Y-62792000I0J-200000D01*
G01*
X62451000Y-63192000D01*
G75*
G02*
X62251000Y-63392000I-200000J0D01*
G01*
X61701000Y-63392000D01*
G75*
G02*
X61501000Y-63192000I0J200000D01*
G01*
X61501000Y-62792000D01*
G75*
G02*
X61701000Y-62592000I200000J0D01*
G01*
G37*
G04 #@! TD.AperFunction*
G04 #@! TA.AperFunction,SMDPad,CuDef*
G36*
G01*
X15092000Y-38080000D02*
X15642000Y-38080000D01*
G75*
G02*
X15842000Y-38280000I0J-200000D01*
G01*
X15842000Y-38680000D01*
G75*
G02*
X15642000Y-38880000I-200000J0D01*
G01*
X15092000Y-38880000D01*
G75*
G02*
X14892000Y-38680000I0J200000D01*
G01*
X14892000Y-38280000D01*
G75*
G02*
X15092000Y-38080000I200000J0D01*
G01*
G37*
G04 #@! TD.AperFunction*
G04 #@! TA.AperFunction,SMDPad,CuDef*
G36*
G01*
X15092000Y-36430000D02*
X15642000Y-36430000D01*
G75*
G02*
X15842000Y-36630000I0J-200000D01*
G01*
X15842000Y-37030000D01*
G75*
G02*
X15642000Y-37230000I-200000J0D01*
G01*
X15092000Y-37230000D01*
G75*
G02*
X14892000Y-37030000I0J200000D01*
G01*
X14892000Y-36630000D01*
G75*
G02*
X15092000Y-36430000I200000J0D01*
G01*
G37*
G04 #@! TD.AperFunction*
G04 #@! TA.AperFunction,SMDPad,CuDef*
G36*
G01*
X26522000Y-37572000D02*
X27072000Y-37572000D01*
G75*
G02*
X27272000Y-37772000I0J-200000D01*
G01*
X27272000Y-38172000D01*
G75*
G02*
X27072000Y-38372000I-200000J0D01*
G01*
X26522000Y-38372000D01*
G75*
G02*
X26322000Y-38172000I0J200000D01*
G01*
X26322000Y-37772000D01*
G75*
G02*
X26522000Y-37572000I200000J0D01*
G01*
G37*
G04 #@! TD.AperFunction*
G04 #@! TA.AperFunction,SMDPad,CuDef*
G36*
G01*
X26522000Y-35922000D02*
X27072000Y-35922000D01*
G75*
G02*
X27272000Y-36122000I0J-200000D01*
G01*
X27272000Y-36522000D01*
G75*
G02*
X27072000Y-36722000I-200000J0D01*
G01*
X26522000Y-36722000D01*
G75*
G02*
X26322000Y-36522000I0J200000D01*
G01*
X26322000Y-36122000D01*
G75*
G02*
X26522000Y-35922000I200000J0D01*
G01*
G37*
G04 #@! TD.AperFunction*
G04 #@! TA.AperFunction,SMDPad,CuDef*
G36*
G01*
X87355000Y-55225000D02*
X87905000Y-55225000D01*
G75*
G02*
X88105000Y-55425000I0J-200000D01*
G01*
X88105000Y-55825000D01*
G75*
G02*
X87905000Y-56025000I-200000J0D01*
G01*
X87355000Y-56025000D01*
G75*
G02*
X87155000Y-55825000I0J200000D01*
G01*
X87155000Y-55425000D01*
G75*
G02*
X87355000Y-55225000I200000J0D01*
G01*
G37*
G04 #@! TD.AperFunction*
G04 #@! TA.AperFunction,SMDPad,CuDef*
G36*
G01*
X87355000Y-53575000D02*
X87905000Y-53575000D01*
G75*
G02*
X88105000Y-53775000I0J-200000D01*
G01*
X88105000Y-54175000D01*
G75*
G02*
X87905000Y-54375000I-200000J0D01*
G01*
X87355000Y-54375000D01*
G75*
G02*
X87155000Y-54175000I0J200000D01*
G01*
X87155000Y-53775000D01*
G75*
G02*
X87355000Y-53575000I200000J0D01*
G01*
G37*
G04 #@! TD.AperFunction*
G04 #@! TA.AperFunction,SMDPad,CuDef*
G36*
G01*
X91080000Y-56025000D02*
X90530000Y-56025000D01*
G75*
G02*
X90330000Y-55825000I0J200000D01*
G01*
X90330000Y-55425000D01*
G75*
G02*
X90530000Y-55225000I200000J0D01*
G01*
X91080000Y-55225000D01*
G75*
G02*
X91280000Y-55425000I0J-200000D01*
G01*
X91280000Y-55825000D01*
G75*
G02*
X91080000Y-56025000I-200000J0D01*
G01*
G37*
G04 #@! TD.AperFunction*
G04 #@! TA.AperFunction,SMDPad,CuDef*
G36*
G01*
X91080000Y-54375000D02*
X90530000Y-54375000D01*
G75*
G02*
X90330000Y-54175000I0J200000D01*
G01*
X90330000Y-53775000D01*
G75*
G02*
X90530000Y-53575000I200000J0D01*
G01*
X91080000Y-53575000D01*
G75*
G02*
X91280000Y-53775000I0J-200000D01*
G01*
X91280000Y-54175000D01*
G75*
G02*
X91080000Y-54375000I-200000J0D01*
G01*
G37*
G04 #@! TD.AperFunction*
G04 #@! TA.AperFunction,SMDPad,CuDef*
G36*
G01*
X104923000Y-101873000D02*
X104373000Y-101873000D01*
G75*
G02*
X104173000Y-101673000I0J200000D01*
G01*
X104173000Y-101273000D01*
G75*
G02*
X104373000Y-101073000I200000J0D01*
G01*
X104923000Y-101073000D01*
G75*
G02*
X105123000Y-101273000I0J-200000D01*
G01*
X105123000Y-101673000D01*
G75*
G02*
X104923000Y-101873000I-200000J0D01*
G01*
G37*
G04 #@! TD.AperFunction*
G04 #@! TA.AperFunction,SMDPad,CuDef*
G36*
G01*
X104923000Y-103523000D02*
X104373000Y-103523000D01*
G75*
G02*
X104173000Y-103323000I0J200000D01*
G01*
X104173000Y-102923000D01*
G75*
G02*
X104373000Y-102723000I200000J0D01*
G01*
X104923000Y-102723000D01*
G75*
G02*
X105123000Y-102923000I0J-200000D01*
G01*
X105123000Y-103323000D01*
G75*
G02*
X104923000Y-103523000I-200000J0D01*
G01*
G37*
G04 #@! TD.AperFunction*
G04 #@! TA.AperFunction,SMDPad,CuDef*
G36*
G01*
X39518000Y-101492000D02*
X38968000Y-101492000D01*
G75*
G02*
X38768000Y-101292000I0J200000D01*
G01*
X38768000Y-100892000D01*
G75*
G02*
X38968000Y-100692000I200000J0D01*
G01*
X39518000Y-100692000D01*
G75*
G02*
X39718000Y-100892000I0J-200000D01*
G01*
X39718000Y-101292000D01*
G75*
G02*
X39518000Y-101492000I-200000J0D01*
G01*
G37*
G04 #@! TD.AperFunction*
G04 #@! TA.AperFunction,SMDPad,CuDef*
G36*
G01*
X39518000Y-103142000D02*
X38968000Y-103142000D01*
G75*
G02*
X38768000Y-102942000I0J200000D01*
G01*
X38768000Y-102542000D01*
G75*
G02*
X38968000Y-102342000I200000J0D01*
G01*
X39518000Y-102342000D01*
G75*
G02*
X39718000Y-102542000I0J-200000D01*
G01*
X39718000Y-102942000D01*
G75*
G02*
X39518000Y-103142000I-200000J0D01*
G01*
G37*
G04 #@! TD.AperFunction*
G04 #@! TA.AperFunction,SMDPad,CuDef*
G36*
G01*
X72750000Y-28175000D02*
X73300000Y-28175000D01*
G75*
G02*
X73500000Y-28375000I0J-200000D01*
G01*
X73500000Y-28775000D01*
G75*
G02*
X73300000Y-28975000I-200000J0D01*
G01*
X72750000Y-28975000D01*
G75*
G02*
X72550000Y-28775000I0J200000D01*
G01*
X72550000Y-28375000D01*
G75*
G02*
X72750000Y-28175000I200000J0D01*
G01*
G37*
G04 #@! TD.AperFunction*
G04 #@! TA.AperFunction,SMDPad,CuDef*
G36*
G01*
X72750000Y-26525000D02*
X73300000Y-26525000D01*
G75*
G02*
X73500000Y-26725000I0J-200000D01*
G01*
X73500000Y-27125000D01*
G75*
G02*
X73300000Y-27325000I-200000J0D01*
G01*
X72750000Y-27325000D01*
G75*
G02*
X72550000Y-27125000I0J200000D01*
G01*
X72550000Y-26725000D01*
G75*
G02*
X72750000Y-26525000I200000J0D01*
G01*
G37*
G04 #@! TD.AperFunction*
G04 #@! TA.AperFunction,SMDPad,CuDef*
G36*
G01*
X120629000Y-29572000D02*
X121179000Y-29572000D01*
G75*
G02*
X121379000Y-29772000I0J-200000D01*
G01*
X121379000Y-30172000D01*
G75*
G02*
X121179000Y-30372000I-200000J0D01*
G01*
X120629000Y-30372000D01*
G75*
G02*
X120429000Y-30172000I0J200000D01*
G01*
X120429000Y-29772000D01*
G75*
G02*
X120629000Y-29572000I200000J0D01*
G01*
G37*
G04 #@! TD.AperFunction*
G04 #@! TA.AperFunction,SMDPad,CuDef*
G36*
G01*
X120629000Y-27922000D02*
X121179000Y-27922000D01*
G75*
G02*
X121379000Y-28122000I0J-200000D01*
G01*
X121379000Y-28522000D01*
G75*
G02*
X121179000Y-28722000I-200000J0D01*
G01*
X120629000Y-28722000D01*
G75*
G02*
X120429000Y-28522000I0J200000D01*
G01*
X120429000Y-28122000D01*
G75*
G02*
X120629000Y-27922000I200000J0D01*
G01*
G37*
G04 #@! TD.AperFunction*
G04 #@! TA.AperFunction,SMDPad,CuDef*
G36*
G01*
X87270000Y-33166000D02*
X86720000Y-33166000D01*
G75*
G02*
X86520000Y-32966000I0J200000D01*
G01*
X86520000Y-32566000D01*
G75*
G02*
X86720000Y-32366000I200000J0D01*
G01*
X87270000Y-32366000D01*
G75*
G02*
X87470000Y-32566000I0J-200000D01*
G01*
X87470000Y-32966000D01*
G75*
G02*
X87270000Y-33166000I-200000J0D01*
G01*
G37*
G04 #@! TD.AperFunction*
G04 #@! TA.AperFunction,SMDPad,CuDef*
G36*
G01*
X87270000Y-34816000D02*
X86720000Y-34816000D01*
G75*
G02*
X86520000Y-34616000I0J200000D01*
G01*
X86520000Y-34216000D01*
G75*
G02*
X86720000Y-34016000I200000J0D01*
G01*
X87270000Y-34016000D01*
G75*
G02*
X87470000Y-34216000I0J-200000D01*
G01*
X87470000Y-34616000D01*
G75*
G02*
X87270000Y-34816000I-200000J0D01*
G01*
G37*
G04 #@! TD.AperFunction*
G04 #@! TA.AperFunction,SMDPad,CuDef*
G36*
G01*
X110850000Y-33635000D02*
X111400000Y-33635000D01*
G75*
G02*
X111600000Y-33835000I0J-200000D01*
G01*
X111600000Y-34235000D01*
G75*
G02*
X111400000Y-34435000I-200000J0D01*
G01*
X110850000Y-34435000D01*
G75*
G02*
X110650000Y-34235000I0J200000D01*
G01*
X110650000Y-33835000D01*
G75*
G02*
X110850000Y-33635000I200000J0D01*
G01*
G37*
G04 #@! TD.AperFunction*
G04 #@! TA.AperFunction,SMDPad,CuDef*
G36*
G01*
X110850000Y-31985000D02*
X111400000Y-31985000D01*
G75*
G02*
X111600000Y-32185000I0J-200000D01*
G01*
X111600000Y-32585000D01*
G75*
G02*
X111400000Y-32785000I-200000J0D01*
G01*
X110850000Y-32785000D01*
G75*
G02*
X110650000Y-32585000I0J200000D01*
G01*
X110650000Y-32185000D01*
G75*
G02*
X110850000Y-31985000I200000J0D01*
G01*
G37*
G04 #@! TD.AperFunction*
G04 #@! TA.AperFunction,SMDPad,CuDef*
G36*
G01*
X87355000Y-59925000D02*
X87905000Y-59925000D01*
G75*
G02*
X88105000Y-60125000I0J-200000D01*
G01*
X88105000Y-60525000D01*
G75*
G02*
X87905000Y-60725000I-200000J0D01*
G01*
X87355000Y-60725000D01*
G75*
G02*
X87155000Y-60525000I0J200000D01*
G01*
X87155000Y-60125000D01*
G75*
G02*
X87355000Y-59925000I200000J0D01*
G01*
G37*
G04 #@! TD.AperFunction*
G04 #@! TA.AperFunction,SMDPad,CuDef*
G36*
G01*
X87355000Y-58275000D02*
X87905000Y-58275000D01*
G75*
G02*
X88105000Y-58475000I0J-200000D01*
G01*
X88105000Y-58875000D01*
G75*
G02*
X87905000Y-59075000I-200000J0D01*
G01*
X87355000Y-59075000D01*
G75*
G02*
X87155000Y-58875000I0J200000D01*
G01*
X87155000Y-58475000D01*
G75*
G02*
X87355000Y-58275000I200000J0D01*
G01*
G37*
G04 #@! TD.AperFunction*
G04 #@! TA.AperFunction,SMDPad,CuDef*
G36*
G01*
X63479000Y-106280000D02*
X64029000Y-106280000D01*
G75*
G02*
X64229000Y-106480000I0J-200000D01*
G01*
X64229000Y-106880000D01*
G75*
G02*
X64029000Y-107080000I-200000J0D01*
G01*
X63479000Y-107080000D01*
G75*
G02*
X63279000Y-106880000I0J200000D01*
G01*
X63279000Y-106480000D01*
G75*
G02*
X63479000Y-106280000I200000J0D01*
G01*
G37*
G04 #@! TD.AperFunction*
G04 #@! TA.AperFunction,SMDPad,CuDef*
G36*
G01*
X63479000Y-104630000D02*
X64029000Y-104630000D01*
G75*
G02*
X64229000Y-104830000I0J-200000D01*
G01*
X64229000Y-105230000D01*
G75*
G02*
X64029000Y-105430000I-200000J0D01*
G01*
X63479000Y-105430000D01*
G75*
G02*
X63279000Y-105230000I0J200000D01*
G01*
X63279000Y-104830000D01*
G75*
G02*
X63479000Y-104630000I200000J0D01*
G01*
G37*
G04 #@! TD.AperFunction*
G04 #@! TA.AperFunction,SMDPad,CuDef*
G36*
G01*
X60981000Y-105430000D02*
X60431000Y-105430000D01*
G75*
G02*
X60231000Y-105230000I0J200000D01*
G01*
X60231000Y-104830000D01*
G75*
G02*
X60431000Y-104630000I200000J0D01*
G01*
X60981000Y-104630000D01*
G75*
G02*
X61181000Y-104830000I0J-200000D01*
G01*
X61181000Y-105230000D01*
G75*
G02*
X60981000Y-105430000I-200000J0D01*
G01*
G37*
G04 #@! TD.AperFunction*
G04 #@! TA.AperFunction,SMDPad,CuDef*
G36*
G01*
X60981000Y-107080000D02*
X60431000Y-107080000D01*
G75*
G02*
X60231000Y-106880000I0J200000D01*
G01*
X60231000Y-106480000D01*
G75*
G02*
X60431000Y-106280000I200000J0D01*
G01*
X60981000Y-106280000D01*
G75*
G02*
X61181000Y-106480000I0J-200000D01*
G01*
X61181000Y-106880000D01*
G75*
G02*
X60981000Y-107080000I-200000J0D01*
G01*
G37*
G04 #@! TD.AperFunction*
G04 #@! TA.AperFunction,SMDPad,CuDef*
G36*
G01*
X84730000Y-59075000D02*
X84180000Y-59075000D01*
G75*
G02*
X83980000Y-58875000I0J200000D01*
G01*
X83980000Y-58475000D01*
G75*
G02*
X84180000Y-58275000I200000J0D01*
G01*
X84730000Y-58275000D01*
G75*
G02*
X84930000Y-58475000I0J-200000D01*
G01*
X84930000Y-58875000D01*
G75*
G02*
X84730000Y-59075000I-200000J0D01*
G01*
G37*
G04 #@! TD.AperFunction*
G04 #@! TA.AperFunction,SMDPad,CuDef*
G36*
G01*
X84730000Y-60725000D02*
X84180000Y-60725000D01*
G75*
G02*
X83980000Y-60525000I0J200000D01*
G01*
X83980000Y-60125000D01*
G75*
G02*
X84180000Y-59925000I200000J0D01*
G01*
X84730000Y-59925000D01*
G75*
G02*
X84930000Y-60125000I0J-200000D01*
G01*
X84930000Y-60525000D01*
G75*
G02*
X84730000Y-60725000I-200000J0D01*
G01*
G37*
G04 #@! TD.AperFunction*
G04 #@! TA.AperFunction,SMDPad,CuDef*
G36*
G01*
X54631000Y-100096000D02*
X54081000Y-100096000D01*
G75*
G02*
X53881000Y-99896000I0J200000D01*
G01*
X53881000Y-99496000D01*
G75*
G02*
X54081000Y-99296000I200000J0D01*
G01*
X54631000Y-99296000D01*
G75*
G02*
X54831000Y-99496000I0J-200000D01*
G01*
X54831000Y-99896000D01*
G75*
G02*
X54631000Y-100096000I-200000J0D01*
G01*
G37*
G04 #@! TD.AperFunction*
G04 #@! TA.AperFunction,SMDPad,CuDef*
G36*
G01*
X54631000Y-101746000D02*
X54081000Y-101746000D01*
G75*
G02*
X53881000Y-101546000I0J200000D01*
G01*
X53881000Y-101146000D01*
G75*
G02*
X54081000Y-100946000I200000J0D01*
G01*
X54631000Y-100946000D01*
G75*
G02*
X54831000Y-101146000I0J-200000D01*
G01*
X54831000Y-101546000D01*
G75*
G02*
X54631000Y-101746000I-200000J0D01*
G01*
G37*
G04 #@! TD.AperFunction*
G04 #@! TA.AperFunction,SMDPad,CuDef*
G36*
G01*
X47519000Y-95142000D02*
X46969000Y-95142000D01*
G75*
G02*
X46769000Y-94942000I0J200000D01*
G01*
X46769000Y-94542000D01*
G75*
G02*
X46969000Y-94342000I200000J0D01*
G01*
X47519000Y-94342000D01*
G75*
G02*
X47719000Y-94542000I0J-200000D01*
G01*
X47719000Y-94942000D01*
G75*
G02*
X47519000Y-95142000I-200000J0D01*
G01*
G37*
G04 #@! TD.AperFunction*
G04 #@! TA.AperFunction,SMDPad,CuDef*
G36*
G01*
X47519000Y-96792000D02*
X46969000Y-96792000D01*
G75*
G02*
X46769000Y-96592000I0J200000D01*
G01*
X46769000Y-96192000D01*
G75*
G02*
X46969000Y-95992000I200000J0D01*
G01*
X47519000Y-95992000D01*
G75*
G02*
X47719000Y-96192000I0J-200000D01*
G01*
X47719000Y-96592000D01*
G75*
G02*
X47519000Y-96792000I-200000J0D01*
G01*
G37*
G04 #@! TD.AperFunction*
G04 #@! TA.AperFunction,SMDPad,CuDef*
G36*
G01*
X19960000Y-75267000D02*
X19410000Y-75267000D01*
G75*
G02*
X19210000Y-75067000I0J200000D01*
G01*
X19210000Y-74667000D01*
G75*
G02*
X19410000Y-74467000I200000J0D01*
G01*
X19960000Y-74467000D01*
G75*
G02*
X20160000Y-74667000I0J-200000D01*
G01*
X20160000Y-75067000D01*
G75*
G02*
X19960000Y-75267000I-200000J0D01*
G01*
G37*
G04 #@! TD.AperFunction*
G04 #@! TA.AperFunction,SMDPad,CuDef*
G36*
G01*
X19960000Y-76917000D02*
X19410000Y-76917000D01*
G75*
G02*
X19210000Y-76717000I0J200000D01*
G01*
X19210000Y-76317000D01*
G75*
G02*
X19410000Y-76117000I200000J0D01*
G01*
X19960000Y-76117000D01*
G75*
G02*
X20160000Y-76317000I0J-200000D01*
G01*
X20160000Y-76717000D01*
G75*
G02*
X19960000Y-76917000I-200000J0D01*
G01*
G37*
G04 #@! TD.AperFunction*
G04 #@! TA.AperFunction,SMDPad,CuDef*
G36*
G01*
X87270000Y-29039000D02*
X86720000Y-29039000D01*
G75*
G02*
X86520000Y-28839000I0J200000D01*
G01*
X86520000Y-28439000D01*
G75*
G02*
X86720000Y-28239000I200000J0D01*
G01*
X87270000Y-28239000D01*
G75*
G02*
X87470000Y-28439000I0J-200000D01*
G01*
X87470000Y-28839000D01*
G75*
G02*
X87270000Y-29039000I-200000J0D01*
G01*
G37*
G04 #@! TD.AperFunction*
G04 #@! TA.AperFunction,SMDPad,CuDef*
G36*
G01*
X87270000Y-30689000D02*
X86720000Y-30689000D01*
G75*
G02*
X86520000Y-30489000I0J200000D01*
G01*
X86520000Y-30089000D01*
G75*
G02*
X86720000Y-29889000I200000J0D01*
G01*
X87270000Y-29889000D01*
G75*
G02*
X87470000Y-30089000I0J-200000D01*
G01*
X87470000Y-30489000D01*
G75*
G02*
X87270000Y-30689000I-200000J0D01*
G01*
G37*
G04 #@! TD.AperFunction*
G04 #@! TA.AperFunction,SMDPad,CuDef*
G36*
G01*
X96160000Y-28976000D02*
X95610000Y-28976000D01*
G75*
G02*
X95410000Y-28776000I0J200000D01*
G01*
X95410000Y-28376000D01*
G75*
G02*
X95610000Y-28176000I200000J0D01*
G01*
X96160000Y-28176000D01*
G75*
G02*
X96360000Y-28376000I0J-200000D01*
G01*
X96360000Y-28776000D01*
G75*
G02*
X96160000Y-28976000I-200000J0D01*
G01*
G37*
G04 #@! TD.AperFunction*
G04 #@! TA.AperFunction,SMDPad,CuDef*
G36*
G01*
X96160000Y-30626000D02*
X95610000Y-30626000D01*
G75*
G02*
X95410000Y-30426000I0J200000D01*
G01*
X95410000Y-30026000D01*
G75*
G02*
X95610000Y-29826000I200000J0D01*
G01*
X96160000Y-29826000D01*
G75*
G02*
X96360000Y-30026000I0J-200000D01*
G01*
X96360000Y-30426000D01*
G75*
G02*
X96160000Y-30626000I-200000J0D01*
G01*
G37*
G04 #@! TD.AperFunction*
G04 #@! TA.AperFunction,SMDPad,CuDef*
G36*
G01*
X125370000Y-28595000D02*
X124820000Y-28595000D01*
G75*
G02*
X124620000Y-28395000I0J200000D01*
G01*
X124620000Y-27995000D01*
G75*
G02*
X124820000Y-27795000I200000J0D01*
G01*
X125370000Y-27795000D01*
G75*
G02*
X125570000Y-27995000I0J-200000D01*
G01*
X125570000Y-28395000D01*
G75*
G02*
X125370000Y-28595000I-200000J0D01*
G01*
G37*
G04 #@! TD.AperFunction*
G04 #@! TA.AperFunction,SMDPad,CuDef*
G36*
G01*
X125370000Y-30245000D02*
X124820000Y-30245000D01*
G75*
G02*
X124620000Y-30045000I0J200000D01*
G01*
X124620000Y-29645000D01*
G75*
G02*
X124820000Y-29445000I200000J0D01*
G01*
X125370000Y-29445000D01*
G75*
G02*
X125570000Y-29645000I0J-200000D01*
G01*
X125570000Y-30045000D01*
G75*
G02*
X125370000Y-30245000I-200000J0D01*
G01*
G37*
G04 #@! TD.AperFunction*
G04 #@! TA.AperFunction,SMDPad,CuDef*
G36*
G01*
X132990000Y-28595000D02*
X132440000Y-28595000D01*
G75*
G02*
X132240000Y-28395000I0J200000D01*
G01*
X132240000Y-27995000D01*
G75*
G02*
X132440000Y-27795000I200000J0D01*
G01*
X132990000Y-27795000D01*
G75*
G02*
X133190000Y-27995000I0J-200000D01*
G01*
X133190000Y-28395000D01*
G75*
G02*
X132990000Y-28595000I-200000J0D01*
G01*
G37*
G04 #@! TD.AperFunction*
G04 #@! TA.AperFunction,SMDPad,CuDef*
G36*
G01*
X132990000Y-30245000D02*
X132440000Y-30245000D01*
G75*
G02*
X132240000Y-30045000I0J200000D01*
G01*
X132240000Y-29645000D01*
G75*
G02*
X132440000Y-29445000I200000J0D01*
G01*
X132990000Y-29445000D01*
G75*
G02*
X133190000Y-29645000I0J-200000D01*
G01*
X133190000Y-30045000D01*
G75*
G02*
X132990000Y-30245000I-200000J0D01*
G01*
G37*
G04 #@! TD.AperFunction*
D20*
X48216000Y-105664000D03*
X51816000Y-105664000D03*
D21*
X107315000Y-110490000D03*
D22*
X107315000Y-107950000D03*
D21*
X33655000Y-110490000D03*
D22*
X33655000Y-107950000D03*
D21*
X74930000Y-110490000D03*
X72390000Y-110490000D03*
X69850000Y-110490000D03*
D22*
X67310000Y-110490000D03*
G04 #@! TA.AperFunction,SMDPad,CuDef*
G36*
G01*
X19303750Y-71537500D02*
X20066250Y-71537500D01*
G75*
G02*
X20285000Y-71756250I0J-218750D01*
G01*
X20285000Y-72193750D01*
G75*
G02*
X20066250Y-72412500I-218750J0D01*
G01*
X19303750Y-72412500D01*
G75*
G02*
X19085000Y-72193750I0J218750D01*
G01*
X19085000Y-71756250D01*
G75*
G02*
X19303750Y-71537500I218750J0D01*
G01*
G37*
G04 #@! TD.AperFunction*
G04 #@! TA.AperFunction,SMDPad,CuDef*
G36*
G01*
X19303750Y-69412500D02*
X20066250Y-69412500D01*
G75*
G02*
X20285000Y-69631250I0J-218750D01*
G01*
X20285000Y-70068750D01*
G75*
G02*
X20066250Y-70287500I-218750J0D01*
G01*
X19303750Y-70287500D01*
G75*
G02*
X19085000Y-70068750I0J218750D01*
G01*
X19085000Y-69631250D01*
G75*
G02*
X19303750Y-69412500I218750J0D01*
G01*
G37*
G04 #@! TD.AperFunction*
G04 #@! TA.AperFunction,SMDPad,CuDef*
G36*
G01*
X46608750Y-112177500D02*
X47371250Y-112177500D01*
G75*
G02*
X47590000Y-112396250I0J-218750D01*
G01*
X47590000Y-112833750D01*
G75*
G02*
X47371250Y-113052500I-218750J0D01*
G01*
X46608750Y-113052500D01*
G75*
G02*
X46390000Y-112833750I0J218750D01*
G01*
X46390000Y-112396250D01*
G75*
G02*
X46608750Y-112177500I218750J0D01*
G01*
G37*
G04 #@! TD.AperFunction*
G04 #@! TA.AperFunction,SMDPad,CuDef*
G36*
G01*
X46608750Y-110052500D02*
X47371250Y-110052500D01*
G75*
G02*
X47590000Y-110271250I0J-218750D01*
G01*
X47590000Y-110708750D01*
G75*
G02*
X47371250Y-110927500I-218750J0D01*
G01*
X46608750Y-110927500D01*
G75*
G02*
X46390000Y-110708750I0J218750D01*
G01*
X46390000Y-110271250D01*
G75*
G02*
X46608750Y-110052500I218750J0D01*
G01*
G37*
G04 #@! TD.AperFunction*
G04 #@! TA.AperFunction,SMDPad,CuDef*
G36*
G01*
X72263250Y-92292500D02*
X71500750Y-92292500D01*
G75*
G02*
X71282000Y-92073750I0J218750D01*
G01*
X71282000Y-91636250D01*
G75*
G02*
X71500750Y-91417500I218750J0D01*
G01*
X72263250Y-91417500D01*
G75*
G02*
X72482000Y-91636250I0J-218750D01*
G01*
X72482000Y-92073750D01*
G75*
G02*
X72263250Y-92292500I-218750J0D01*
G01*
G37*
G04 #@! TD.AperFunction*
G04 #@! TA.AperFunction,SMDPad,CuDef*
G36*
G01*
X72263250Y-94417500D02*
X71500750Y-94417500D01*
G75*
G02*
X71282000Y-94198750I0J218750D01*
G01*
X71282000Y-93761250D01*
G75*
G02*
X71500750Y-93542500I218750J0D01*
G01*
X72263250Y-93542500D01*
G75*
G02*
X72482000Y-93761250I0J-218750D01*
G01*
X72482000Y-94198750D01*
G75*
G02*
X72263250Y-94417500I-218750J0D01*
G01*
G37*
G04 #@! TD.AperFunction*
G04 #@! TA.AperFunction,SMDPad,CuDef*
G36*
G01*
X50235500Y-16891250D02*
X50235500Y-16128750D01*
G75*
G02*
X50454250Y-15910000I218750J0D01*
G01*
X50891750Y-15910000D01*
G75*
G02*
X51110500Y-16128750I0J-218750D01*
G01*
X51110500Y-16891250D01*
G75*
G02*
X50891750Y-17110000I-218750J0D01*
G01*
X50454250Y-17110000D01*
G75*
G02*
X50235500Y-16891250I0J218750D01*
G01*
G37*
G04 #@! TD.AperFunction*
G04 #@! TA.AperFunction,SMDPad,CuDef*
G36*
G01*
X48110500Y-16891250D02*
X48110500Y-16128750D01*
G75*
G02*
X48329250Y-15910000I218750J0D01*
G01*
X48766750Y-15910000D01*
G75*
G02*
X48985500Y-16128750I0J-218750D01*
G01*
X48985500Y-16891250D01*
G75*
G02*
X48766750Y-17110000I-218750J0D01*
G01*
X48329250Y-17110000D01*
G75*
G02*
X48110500Y-16891250I0J218750D01*
G01*
G37*
G04 #@! TD.AperFunction*
D23*
X107315000Y-101600000D03*
D24*
X107315000Y-104140000D03*
D23*
X33655000Y-101600000D03*
D24*
X33655000Y-104140000D03*
D25*
X53346000Y-92710000D03*
X50546000Y-92710000D03*
X57652000Y-98298000D03*
X60452000Y-98298000D03*
X60452000Y-101854000D03*
X57652000Y-101854000D03*
X50540000Y-96266000D03*
X53340000Y-96266000D03*
D26*
X60325000Y-14226000D03*
X60325000Y-17526000D03*
G04 #@! TA.AperFunction,SMDPad,CuDef*
G36*
G01*
X33688000Y-55314000D02*
X34638000Y-55314000D01*
G75*
G02*
X34888000Y-55564000I0J-250000D01*
G01*
X34888000Y-56064000D01*
G75*
G02*
X34638000Y-56314000I-250000J0D01*
G01*
X33688000Y-56314000D01*
G75*
G02*
X33438000Y-56064000I0J250000D01*
G01*
X33438000Y-55564000D01*
G75*
G02*
X33688000Y-55314000I250000J0D01*
G01*
G37*
G04 #@! TD.AperFunction*
G04 #@! TA.AperFunction,SMDPad,CuDef*
G36*
G01*
X33688000Y-53414000D02*
X34638000Y-53414000D01*
G75*
G02*
X34888000Y-53664000I0J-250000D01*
G01*
X34888000Y-54164000D01*
G75*
G02*
X34638000Y-54414000I-250000J0D01*
G01*
X33688000Y-54414000D01*
G75*
G02*
X33438000Y-54164000I0J250000D01*
G01*
X33438000Y-53664000D01*
G75*
G02*
X33688000Y-53414000I250000J0D01*
G01*
G37*
G04 #@! TD.AperFunction*
G04 #@! TA.AperFunction,SMDPad,CuDef*
G36*
G01*
X83660000Y-108450000D02*
X82710000Y-108450000D01*
G75*
G02*
X82460000Y-108200000I0J250000D01*
G01*
X82460000Y-107700000D01*
G75*
G02*
X82710000Y-107450000I250000J0D01*
G01*
X83660000Y-107450000D01*
G75*
G02*
X83910000Y-107700000I0J-250000D01*
G01*
X83910000Y-108200000D01*
G75*
G02*
X83660000Y-108450000I-250000J0D01*
G01*
G37*
G04 #@! TD.AperFunction*
G04 #@! TA.AperFunction,SMDPad,CuDef*
G36*
G01*
X83660000Y-110350000D02*
X82710000Y-110350000D01*
G75*
G02*
X82460000Y-110100000I0J250000D01*
G01*
X82460000Y-109600000D01*
G75*
G02*
X82710000Y-109350000I250000J0D01*
G01*
X83660000Y-109350000D01*
G75*
G02*
X83910000Y-109600000I0J-250000D01*
G01*
X83910000Y-110100000D01*
G75*
G02*
X83660000Y-110350000I-250000J0D01*
G01*
G37*
G04 #@! TD.AperFunction*
G04 #@! TA.AperFunction,SMDPad,CuDef*
G36*
G01*
X80104000Y-108450000D02*
X79154000Y-108450000D01*
G75*
G02*
X78904000Y-108200000I0J250000D01*
G01*
X78904000Y-107700000D01*
G75*
G02*
X79154000Y-107450000I250000J0D01*
G01*
X80104000Y-107450000D01*
G75*
G02*
X80354000Y-107700000I0J-250000D01*
G01*
X80354000Y-108200000D01*
G75*
G02*
X80104000Y-108450000I-250000J0D01*
G01*
G37*
G04 #@! TD.AperFunction*
G04 #@! TA.AperFunction,SMDPad,CuDef*
G36*
G01*
X80104000Y-110350000D02*
X79154000Y-110350000D01*
G75*
G02*
X78904000Y-110100000I0J250000D01*
G01*
X78904000Y-109600000D01*
G75*
G02*
X79154000Y-109350000I250000J0D01*
G01*
X80104000Y-109350000D01*
G75*
G02*
X80354000Y-109600000I0J-250000D01*
G01*
X80354000Y-110100000D01*
G75*
G02*
X80104000Y-110350000I-250000J0D01*
G01*
G37*
G04 #@! TD.AperFunction*
G04 #@! TA.AperFunction,SMDPad,CuDef*
G36*
G01*
X78990000Y-92372000D02*
X78490000Y-92372000D01*
G75*
G02*
X78265000Y-92147000I0J225000D01*
G01*
X78265000Y-91697000D01*
G75*
G02*
X78490000Y-91472000I225000J0D01*
G01*
X78990000Y-91472000D01*
G75*
G02*
X79215000Y-91697000I0J-225000D01*
G01*
X79215000Y-92147000D01*
G75*
G02*
X78990000Y-92372000I-225000J0D01*
G01*
G37*
G04 #@! TD.AperFunction*
G04 #@! TA.AperFunction,SMDPad,CuDef*
G36*
G01*
X78990000Y-93922000D02*
X78490000Y-93922000D01*
G75*
G02*
X78265000Y-93697000I0J225000D01*
G01*
X78265000Y-93247000D01*
G75*
G02*
X78490000Y-93022000I225000J0D01*
G01*
X78990000Y-93022000D01*
G75*
G02*
X79215000Y-93247000I0J-225000D01*
G01*
X79215000Y-93697000D01*
G75*
G02*
X78990000Y-93922000I-225000J0D01*
G01*
G37*
G04 #@! TD.AperFunction*
G04 #@! TA.AperFunction,SMDPad,CuDef*
G36*
G01*
X86237000Y-109050000D02*
X86737000Y-109050000D01*
G75*
G02*
X86962000Y-109275000I0J-225000D01*
G01*
X86962000Y-109725000D01*
G75*
G02*
X86737000Y-109950000I-225000J0D01*
G01*
X86237000Y-109950000D01*
G75*
G02*
X86012000Y-109725000I0J225000D01*
G01*
X86012000Y-109275000D01*
G75*
G02*
X86237000Y-109050000I225000J0D01*
G01*
G37*
G04 #@! TD.AperFunction*
G04 #@! TA.AperFunction,SMDPad,CuDef*
G36*
G01*
X86237000Y-107500000D02*
X86737000Y-107500000D01*
G75*
G02*
X86962000Y-107725000I0J-225000D01*
G01*
X86962000Y-108175000D01*
G75*
G02*
X86737000Y-108400000I-225000J0D01*
G01*
X86237000Y-108400000D01*
G75*
G02*
X86012000Y-108175000I0J225000D01*
G01*
X86012000Y-107725000D01*
G75*
G02*
X86237000Y-107500000I225000J0D01*
G01*
G37*
G04 #@! TD.AperFunction*
G04 #@! TA.AperFunction,SMDPad,CuDef*
G36*
G01*
X94992000Y-92398000D02*
X94492000Y-92398000D01*
G75*
G02*
X94267000Y-92173000I0J225000D01*
G01*
X94267000Y-91723000D01*
G75*
G02*
X94492000Y-91498000I225000J0D01*
G01*
X94992000Y-91498000D01*
G75*
G02*
X95217000Y-91723000I0J-225000D01*
G01*
X95217000Y-92173000D01*
G75*
G02*
X94992000Y-92398000I-225000J0D01*
G01*
G37*
G04 #@! TD.AperFunction*
G04 #@! TA.AperFunction,SMDPad,CuDef*
G36*
G01*
X94992000Y-93948000D02*
X94492000Y-93948000D01*
G75*
G02*
X94267000Y-93723000I0J225000D01*
G01*
X94267000Y-93273000D01*
G75*
G02*
X94492000Y-93048000I225000J0D01*
G01*
X94992000Y-93048000D01*
G75*
G02*
X95217000Y-93273000I0J-225000D01*
G01*
X95217000Y-93723000D01*
G75*
G02*
X94992000Y-93948000I-225000J0D01*
G01*
G37*
G04 #@! TD.AperFunction*
G04 #@! TA.AperFunction,SMDPad,CuDef*
G36*
G01*
X91944000Y-92372000D02*
X91444000Y-92372000D01*
G75*
G02*
X91219000Y-92147000I0J225000D01*
G01*
X91219000Y-91697000D01*
G75*
G02*
X91444000Y-91472000I225000J0D01*
G01*
X91944000Y-91472000D01*
G75*
G02*
X92169000Y-91697000I0J-225000D01*
G01*
X92169000Y-92147000D01*
G75*
G02*
X91944000Y-92372000I-225000J0D01*
G01*
G37*
G04 #@! TD.AperFunction*
G04 #@! TA.AperFunction,SMDPad,CuDef*
G36*
G01*
X91944000Y-93922000D02*
X91444000Y-93922000D01*
G75*
G02*
X91219000Y-93697000I0J225000D01*
G01*
X91219000Y-93247000D01*
G75*
G02*
X91444000Y-93022000I225000J0D01*
G01*
X91944000Y-93022000D01*
G75*
G02*
X92169000Y-93247000I0J-225000D01*
G01*
X92169000Y-93697000D01*
G75*
G02*
X91944000Y-93922000I-225000J0D01*
G01*
G37*
G04 #@! TD.AperFunction*
G04 #@! TA.AperFunction,SMDPad,CuDef*
G36*
G01*
X88896000Y-92372000D02*
X88396000Y-92372000D01*
G75*
G02*
X88171000Y-92147000I0J225000D01*
G01*
X88171000Y-91697000D01*
G75*
G02*
X88396000Y-91472000I225000J0D01*
G01*
X88896000Y-91472000D01*
G75*
G02*
X89121000Y-91697000I0J-225000D01*
G01*
X89121000Y-92147000D01*
G75*
G02*
X88896000Y-92372000I-225000J0D01*
G01*
G37*
G04 #@! TD.AperFunction*
G04 #@! TA.AperFunction,SMDPad,CuDef*
G36*
G01*
X88896000Y-93922000D02*
X88396000Y-93922000D01*
G75*
G02*
X88171000Y-93697000I0J225000D01*
G01*
X88171000Y-93247000D01*
G75*
G02*
X88396000Y-93022000I225000J0D01*
G01*
X88896000Y-93022000D01*
G75*
G02*
X89121000Y-93247000I0J-225000D01*
G01*
X89121000Y-93697000D01*
G75*
G02*
X88896000Y-93922000I-225000J0D01*
G01*
G37*
G04 #@! TD.AperFunction*
G04 #@! TA.AperFunction,SMDPad,CuDef*
G36*
G01*
X85594000Y-92372000D02*
X85094000Y-92372000D01*
G75*
G02*
X84869000Y-92147000I0J225000D01*
G01*
X84869000Y-91697000D01*
G75*
G02*
X85094000Y-91472000I225000J0D01*
G01*
X85594000Y-91472000D01*
G75*
G02*
X85819000Y-91697000I0J-225000D01*
G01*
X85819000Y-92147000D01*
G75*
G02*
X85594000Y-92372000I-225000J0D01*
G01*
G37*
G04 #@! TD.AperFunction*
G04 #@! TA.AperFunction,SMDPad,CuDef*
G36*
G01*
X85594000Y-93922000D02*
X85094000Y-93922000D01*
G75*
G02*
X84869000Y-93697000I0J225000D01*
G01*
X84869000Y-93247000D01*
G75*
G02*
X85094000Y-93022000I225000J0D01*
G01*
X85594000Y-93022000D01*
G75*
G02*
X85819000Y-93247000I0J-225000D01*
G01*
X85819000Y-93697000D01*
G75*
G02*
X85594000Y-93922000I-225000J0D01*
G01*
G37*
G04 #@! TD.AperFunction*
G04 #@! TA.AperFunction,SMDPad,CuDef*
G36*
G01*
X82292000Y-92372000D02*
X81792000Y-92372000D01*
G75*
G02*
X81567000Y-92147000I0J225000D01*
G01*
X81567000Y-91697000D01*
G75*
G02*
X81792000Y-91472000I225000J0D01*
G01*
X82292000Y-91472000D01*
G75*
G02*
X82517000Y-91697000I0J-225000D01*
G01*
X82517000Y-92147000D01*
G75*
G02*
X82292000Y-92372000I-225000J0D01*
G01*
G37*
G04 #@! TD.AperFunction*
G04 #@! TA.AperFunction,SMDPad,CuDef*
G36*
G01*
X82292000Y-93922000D02*
X81792000Y-93922000D01*
G75*
G02*
X81567000Y-93697000I0J225000D01*
G01*
X81567000Y-93247000D01*
G75*
G02*
X81792000Y-93022000I225000J0D01*
G01*
X82292000Y-93022000D01*
G75*
G02*
X82517000Y-93247000I0J-225000D01*
G01*
X82517000Y-93697000D01*
G75*
G02*
X82292000Y-93922000I-225000J0D01*
G01*
G37*
G04 #@! TD.AperFunction*
G04 #@! TA.AperFunction,SMDPad,CuDef*
G36*
G01*
X49780000Y-67887000D02*
X49280000Y-67887000D01*
G75*
G02*
X49055000Y-67662000I0J225000D01*
G01*
X49055000Y-67212000D01*
G75*
G02*
X49280000Y-66987000I225000J0D01*
G01*
X49780000Y-66987000D01*
G75*
G02*
X50005000Y-67212000I0J-225000D01*
G01*
X50005000Y-67662000D01*
G75*
G02*
X49780000Y-67887000I-225000J0D01*
G01*
G37*
G04 #@! TD.AperFunction*
G04 #@! TA.AperFunction,SMDPad,CuDef*
G36*
G01*
X49780000Y-69437000D02*
X49280000Y-69437000D01*
G75*
G02*
X49055000Y-69212000I0J225000D01*
G01*
X49055000Y-68762000D01*
G75*
G02*
X49280000Y-68537000I225000J0D01*
G01*
X49780000Y-68537000D01*
G75*
G02*
X50005000Y-68762000I0J-225000D01*
G01*
X50005000Y-69212000D01*
G75*
G02*
X49780000Y-69437000I-225000J0D01*
G01*
G37*
G04 #@! TD.AperFunction*
G04 #@! TA.AperFunction,SMDPad,CuDef*
G36*
G01*
X49280000Y-54287000D02*
X49780000Y-54287000D01*
G75*
G02*
X50005000Y-54512000I0J-225000D01*
G01*
X50005000Y-54962000D01*
G75*
G02*
X49780000Y-55187000I-225000J0D01*
G01*
X49280000Y-55187000D01*
G75*
G02*
X49055000Y-54962000I0J225000D01*
G01*
X49055000Y-54512000D01*
G75*
G02*
X49280000Y-54287000I225000J0D01*
G01*
G37*
G04 #@! TD.AperFunction*
G04 #@! TA.AperFunction,SMDPad,CuDef*
G36*
G01*
X49280000Y-52737000D02*
X49780000Y-52737000D01*
G75*
G02*
X50005000Y-52962000I0J-225000D01*
G01*
X50005000Y-53412000D01*
G75*
G02*
X49780000Y-53637000I-225000J0D01*
G01*
X49280000Y-53637000D01*
G75*
G02*
X49055000Y-53412000I0J225000D01*
G01*
X49055000Y-52962000D01*
G75*
G02*
X49280000Y-52737000I225000J0D01*
G01*
G37*
G04 #@! TD.AperFunction*
G04 #@! TA.AperFunction,SMDPad,CuDef*
G36*
G01*
X58678000Y-59393000D02*
X59178000Y-59393000D01*
G75*
G02*
X59403000Y-59618000I0J-225000D01*
G01*
X59403000Y-60068000D01*
G75*
G02*
X59178000Y-60293000I-225000J0D01*
G01*
X58678000Y-60293000D01*
G75*
G02*
X58453000Y-60068000I0J225000D01*
G01*
X58453000Y-59618000D01*
G75*
G02*
X58678000Y-59393000I225000J0D01*
G01*
G37*
G04 #@! TD.AperFunction*
G04 #@! TA.AperFunction,SMDPad,CuDef*
G36*
G01*
X58678000Y-57843000D02*
X59178000Y-57843000D01*
G75*
G02*
X59403000Y-58068000I0J-225000D01*
G01*
X59403000Y-58518000D01*
G75*
G02*
X59178000Y-58743000I-225000J0D01*
G01*
X58678000Y-58743000D01*
G75*
G02*
X58453000Y-58518000I0J225000D01*
G01*
X58453000Y-58068000D01*
G75*
G02*
X58678000Y-57843000I225000J0D01*
G01*
G37*
G04 #@! TD.AperFunction*
G04 #@! TA.AperFunction,SMDPad,CuDef*
G36*
G01*
X84205000Y-55075000D02*
X84705000Y-55075000D01*
G75*
G02*
X84930000Y-55300000I0J-225000D01*
G01*
X84930000Y-55750000D01*
G75*
G02*
X84705000Y-55975000I-225000J0D01*
G01*
X84205000Y-55975000D01*
G75*
G02*
X83980000Y-55750000I0J225000D01*
G01*
X83980000Y-55300000D01*
G75*
G02*
X84205000Y-55075000I225000J0D01*
G01*
G37*
G04 #@! TD.AperFunction*
G04 #@! TA.AperFunction,SMDPad,CuDef*
G36*
G01*
X84205000Y-53525000D02*
X84705000Y-53525000D01*
G75*
G02*
X84930000Y-53750000I0J-225000D01*
G01*
X84930000Y-54200000D01*
G75*
G02*
X84705000Y-54425000I-225000J0D01*
G01*
X84205000Y-54425000D01*
G75*
G02*
X83980000Y-54200000I0J225000D01*
G01*
X83980000Y-53750000D01*
G75*
G02*
X84205000Y-53525000I225000J0D01*
G01*
G37*
G04 #@! TD.AperFunction*
D27*
X81240000Y-29210000D03*
X78740000Y-29210000D03*
X113705000Y-29210000D03*
X116205000Y-29210000D03*
G04 #@! TA.AperFunction,SMDPad,CuDef*
G36*
G01*
X61689000Y-94358000D02*
X60739000Y-94358000D01*
G75*
G02*
X60489000Y-94108000I0J250000D01*
G01*
X60489000Y-93608000D01*
G75*
G02*
X60739000Y-93358000I250000J0D01*
G01*
X61689000Y-93358000D01*
G75*
G02*
X61939000Y-93608000I0J-250000D01*
G01*
X61939000Y-94108000D01*
G75*
G02*
X61689000Y-94358000I-250000J0D01*
G01*
G37*
G04 #@! TD.AperFunction*
G04 #@! TA.AperFunction,SMDPad,CuDef*
G36*
G01*
X61689000Y-96258000D02*
X60739000Y-96258000D01*
G75*
G02*
X60489000Y-96008000I0J250000D01*
G01*
X60489000Y-95508000D01*
G75*
G02*
X60739000Y-95258000I250000J0D01*
G01*
X61689000Y-95258000D01*
G75*
G02*
X61939000Y-95508000I0J-250000D01*
G01*
X61939000Y-96008000D01*
G75*
G02*
X61689000Y-96258000I-250000J0D01*
G01*
G37*
G04 #@! TD.AperFunction*
G04 #@! TA.AperFunction,SMDPad,CuDef*
G36*
G01*
X90555000Y-59875000D02*
X91055000Y-59875000D01*
G75*
G02*
X91280000Y-60100000I0J-225000D01*
G01*
X91280000Y-60550000D01*
G75*
G02*
X91055000Y-60775000I-225000J0D01*
G01*
X90555000Y-60775000D01*
G75*
G02*
X90330000Y-60550000I0J225000D01*
G01*
X90330000Y-60100000D01*
G75*
G02*
X90555000Y-59875000I225000J0D01*
G01*
G37*
G04 #@! TD.AperFunction*
G04 #@! TA.AperFunction,SMDPad,CuDef*
G36*
G01*
X90555000Y-58325000D02*
X91055000Y-58325000D01*
G75*
G02*
X91280000Y-58550000I0J-225000D01*
G01*
X91280000Y-59000000D01*
G75*
G02*
X91055000Y-59225000I-225000J0D01*
G01*
X90555000Y-59225000D01*
G75*
G02*
X90330000Y-59000000I0J225000D01*
G01*
X90330000Y-58550000D01*
G75*
G02*
X90555000Y-58325000I225000J0D01*
G01*
G37*
G04 #@! TD.AperFunction*
G04 #@! TA.AperFunction,SMDPad,CuDef*
G36*
G01*
X61689000Y-90294000D02*
X60739000Y-90294000D01*
G75*
G02*
X60489000Y-90044000I0J250000D01*
G01*
X60489000Y-89544000D01*
G75*
G02*
X60739000Y-89294000I250000J0D01*
G01*
X61689000Y-89294000D01*
G75*
G02*
X61939000Y-89544000I0J-250000D01*
G01*
X61939000Y-90044000D01*
G75*
G02*
X61689000Y-90294000I-250000J0D01*
G01*
G37*
G04 #@! TD.AperFunction*
G04 #@! TA.AperFunction,SMDPad,CuDef*
G36*
G01*
X61689000Y-92194000D02*
X60739000Y-92194000D01*
G75*
G02*
X60489000Y-91944000I0J250000D01*
G01*
X60489000Y-91444000D01*
G75*
G02*
X60739000Y-91194000I250000J0D01*
G01*
X61689000Y-91194000D01*
G75*
G02*
X61939000Y-91444000I0J-250000D01*
G01*
X61939000Y-91944000D01*
G75*
G02*
X61689000Y-92194000I-250000J0D01*
G01*
G37*
G04 #@! TD.AperFunction*
G04 #@! TA.AperFunction,SMDPad,CuDef*
G36*
G01*
X50579000Y-100846000D02*
X51529000Y-100846000D01*
G75*
G02*
X51779000Y-101096000I0J-250000D01*
G01*
X51779000Y-101596000D01*
G75*
G02*
X51529000Y-101846000I-250000J0D01*
G01*
X50579000Y-101846000D01*
G75*
G02*
X50329000Y-101596000I0J250000D01*
G01*
X50329000Y-101096000D01*
G75*
G02*
X50579000Y-100846000I250000J0D01*
G01*
G37*
G04 #@! TD.AperFunction*
G04 #@! TA.AperFunction,SMDPad,CuDef*
G36*
G01*
X50579000Y-98946000D02*
X51529000Y-98946000D01*
G75*
G02*
X51779000Y-99196000I0J-250000D01*
G01*
X51779000Y-99696000D01*
G75*
G02*
X51529000Y-99946000I-250000J0D01*
G01*
X50579000Y-99946000D01*
G75*
G02*
X50329000Y-99696000I0J250000D01*
G01*
X50329000Y-99196000D01*
G75*
G02*
X50579000Y-98946000I250000J0D01*
G01*
G37*
G04 #@! TD.AperFunction*
G04 #@! TA.AperFunction,SMDPad,CuDef*
G36*
G01*
X15171000Y-72640000D02*
X15171000Y-72140000D01*
G75*
G02*
X15396000Y-71915000I225000J0D01*
G01*
X15846000Y-71915000D01*
G75*
G02*
X16071000Y-72140000I0J-225000D01*
G01*
X16071000Y-72640000D01*
G75*
G02*
X15846000Y-72865000I-225000J0D01*
G01*
X15396000Y-72865000D01*
G75*
G02*
X15171000Y-72640000I0J225000D01*
G01*
G37*
G04 #@! TD.AperFunction*
G04 #@! TA.AperFunction,SMDPad,CuDef*
G36*
G01*
X13621000Y-72640000D02*
X13621000Y-72140000D01*
G75*
G02*
X13846000Y-71915000I225000J0D01*
G01*
X14296000Y-71915000D01*
G75*
G02*
X14521000Y-72140000I0J-225000D01*
G01*
X14521000Y-72640000D01*
G75*
G02*
X14296000Y-72865000I-225000J0D01*
G01*
X13846000Y-72865000D01*
G75*
G02*
X13621000Y-72640000I0J225000D01*
G01*
G37*
G04 #@! TD.AperFunction*
G04 #@! TA.AperFunction,SMDPad,CuDef*
G36*
G01*
X47719000Y-99946000D02*
X46769000Y-99946000D01*
G75*
G02*
X46519000Y-99696000I0J250000D01*
G01*
X46519000Y-99196000D01*
G75*
G02*
X46769000Y-98946000I250000J0D01*
G01*
X47719000Y-98946000D01*
G75*
G02*
X47969000Y-99196000I0J-250000D01*
G01*
X47969000Y-99696000D01*
G75*
G02*
X47719000Y-99946000I-250000J0D01*
G01*
G37*
G04 #@! TD.AperFunction*
G04 #@! TA.AperFunction,SMDPad,CuDef*
G36*
G01*
X47719000Y-101846000D02*
X46769000Y-101846000D01*
G75*
G02*
X46519000Y-101596000I0J250000D01*
G01*
X46519000Y-101096000D01*
G75*
G02*
X46769000Y-100846000I250000J0D01*
G01*
X47719000Y-100846000D01*
G75*
G02*
X47969000Y-101096000I0J-250000D01*
G01*
X47969000Y-101596000D01*
G75*
G02*
X47719000Y-101846000I-250000J0D01*
G01*
G37*
G04 #@! TD.AperFunction*
G04 #@! TA.AperFunction,SMDPad,CuDef*
G36*
G01*
X15070000Y-69465000D02*
X15070000Y-68965000D01*
G75*
G02*
X15295000Y-68740000I225000J0D01*
G01*
X15745000Y-68740000D01*
G75*
G02*
X15970000Y-68965000I0J-225000D01*
G01*
X15970000Y-69465000D01*
G75*
G02*
X15745000Y-69690000I-225000J0D01*
G01*
X15295000Y-69690000D01*
G75*
G02*
X15070000Y-69465000I0J225000D01*
G01*
G37*
G04 #@! TD.AperFunction*
G04 #@! TA.AperFunction,SMDPad,CuDef*
G36*
G01*
X13520000Y-69465000D02*
X13520000Y-68965000D01*
G75*
G02*
X13745000Y-68740000I225000J0D01*
G01*
X14195000Y-68740000D01*
G75*
G02*
X14420000Y-68965000I0J-225000D01*
G01*
X14420000Y-69465000D01*
G75*
G02*
X14195000Y-69690000I-225000J0D01*
G01*
X13745000Y-69690000D01*
G75*
G02*
X13520000Y-69465000I0J225000D01*
G01*
G37*
G04 #@! TD.AperFunction*
G04 #@! TA.AperFunction,SMDPad,CuDef*
G36*
G01*
X56138000Y-111844000D02*
X56638000Y-111844000D01*
G75*
G02*
X56863000Y-112069000I0J-225000D01*
G01*
X56863000Y-112519000D01*
G75*
G02*
X56638000Y-112744000I-225000J0D01*
G01*
X56138000Y-112744000D01*
G75*
G02*
X55913000Y-112519000I0J225000D01*
G01*
X55913000Y-112069000D01*
G75*
G02*
X56138000Y-111844000I225000J0D01*
G01*
G37*
G04 #@! TD.AperFunction*
G04 #@! TA.AperFunction,SMDPad,CuDef*
G36*
G01*
X56138000Y-110294000D02*
X56638000Y-110294000D01*
G75*
G02*
X56863000Y-110519000I0J-225000D01*
G01*
X56863000Y-110969000D01*
G75*
G02*
X56638000Y-111194000I-225000J0D01*
G01*
X56138000Y-111194000D01*
G75*
G02*
X55913000Y-110969000I0J225000D01*
G01*
X55913000Y-110519000D01*
G75*
G02*
X56138000Y-110294000I225000J0D01*
G01*
G37*
G04 #@! TD.AperFunction*
G04 #@! TA.AperFunction,SMDPad,CuDef*
G36*
G01*
X50960000Y-111890000D02*
X51910000Y-111890000D01*
G75*
G02*
X52160000Y-112140000I0J-250000D01*
G01*
X52160000Y-112640000D01*
G75*
G02*
X51910000Y-112890000I-250000J0D01*
G01*
X50960000Y-112890000D01*
G75*
G02*
X50710000Y-112640000I0J250000D01*
G01*
X50710000Y-112140000D01*
G75*
G02*
X50960000Y-111890000I250000J0D01*
G01*
G37*
G04 #@! TD.AperFunction*
G04 #@! TA.AperFunction,SMDPad,CuDef*
G36*
G01*
X50960000Y-109990000D02*
X51910000Y-109990000D01*
G75*
G02*
X52160000Y-110240000I0J-250000D01*
G01*
X52160000Y-110740000D01*
G75*
G02*
X51910000Y-110990000I-250000J0D01*
G01*
X50960000Y-110990000D01*
G75*
G02*
X50710000Y-110740000I0J250000D01*
G01*
X50710000Y-110240000D01*
G75*
G02*
X50960000Y-109990000I250000J0D01*
G01*
G37*
G04 #@! TD.AperFunction*
G04 #@! TA.AperFunction,SMDPad,CuDef*
G36*
G01*
X78236000Y-100668000D02*
X78736000Y-100668000D01*
G75*
G02*
X78961000Y-100893000I0J-225000D01*
G01*
X78961000Y-101343000D01*
G75*
G02*
X78736000Y-101568000I-225000J0D01*
G01*
X78236000Y-101568000D01*
G75*
G02*
X78011000Y-101343000I0J225000D01*
G01*
X78011000Y-100893000D01*
G75*
G02*
X78236000Y-100668000I225000J0D01*
G01*
G37*
G04 #@! TD.AperFunction*
G04 #@! TA.AperFunction,SMDPad,CuDef*
G36*
G01*
X78236000Y-99118000D02*
X78736000Y-99118000D01*
G75*
G02*
X78961000Y-99343000I0J-225000D01*
G01*
X78961000Y-99793000D01*
G75*
G02*
X78736000Y-100018000I-225000J0D01*
G01*
X78236000Y-100018000D01*
G75*
G02*
X78011000Y-99793000I0J225000D01*
G01*
X78011000Y-99343000D01*
G75*
G02*
X78236000Y-99118000I225000J0D01*
G01*
G37*
G04 #@! TD.AperFunction*
G04 #@! TA.AperFunction,SMDPad,CuDef*
G36*
G01*
X74328000Y-100460000D02*
X75278000Y-100460000D01*
G75*
G02*
X75528000Y-100710000I0J-250000D01*
G01*
X75528000Y-101210000D01*
G75*
G02*
X75278000Y-101460000I-250000J0D01*
G01*
X74328000Y-101460000D01*
G75*
G02*
X74078000Y-101210000I0J250000D01*
G01*
X74078000Y-100710000D01*
G75*
G02*
X74328000Y-100460000I250000J0D01*
G01*
G37*
G04 #@! TD.AperFunction*
G04 #@! TA.AperFunction,SMDPad,CuDef*
G36*
G01*
X74328000Y-98560000D02*
X75278000Y-98560000D01*
G75*
G02*
X75528000Y-98810000I0J-250000D01*
G01*
X75528000Y-99310000D01*
G75*
G02*
X75278000Y-99560000I-250000J0D01*
G01*
X74328000Y-99560000D01*
G75*
G02*
X74078000Y-99310000I0J250000D01*
G01*
X74078000Y-98810000D01*
G75*
G02*
X74328000Y-98560000I250000J0D01*
G01*
G37*
G04 #@! TD.AperFunction*
G04 #@! TA.AperFunction,SMDPad,CuDef*
G36*
G01*
X44610000Y-23498000D02*
X45560000Y-23498000D01*
G75*
G02*
X45810000Y-23748000I0J-250000D01*
G01*
X45810000Y-24248000D01*
G75*
G02*
X45560000Y-24498000I-250000J0D01*
G01*
X44610000Y-24498000D01*
G75*
G02*
X44360000Y-24248000I0J250000D01*
G01*
X44360000Y-23748000D01*
G75*
G02*
X44610000Y-23498000I250000J0D01*
G01*
G37*
G04 #@! TD.AperFunction*
G04 #@! TA.AperFunction,SMDPad,CuDef*
G36*
G01*
X44610000Y-21598000D02*
X45560000Y-21598000D01*
G75*
G02*
X45810000Y-21848000I0J-250000D01*
G01*
X45810000Y-22348000D01*
G75*
G02*
X45560000Y-22598000I-250000J0D01*
G01*
X44610000Y-22598000D01*
G75*
G02*
X44360000Y-22348000I0J250000D01*
G01*
X44360000Y-21848000D01*
G75*
G02*
X44610000Y-21598000I250000J0D01*
G01*
G37*
G04 #@! TD.AperFunction*
G04 #@! TA.AperFunction,SMDPad,CuDef*
G36*
G01*
X93349000Y-98128000D02*
X93849000Y-98128000D01*
G75*
G02*
X94074000Y-98353000I0J-225000D01*
G01*
X94074000Y-98803000D01*
G75*
G02*
X93849000Y-99028000I-225000J0D01*
G01*
X93349000Y-99028000D01*
G75*
G02*
X93124000Y-98803000I0J225000D01*
G01*
X93124000Y-98353000D01*
G75*
G02*
X93349000Y-98128000I225000J0D01*
G01*
G37*
G04 #@! TD.AperFunction*
G04 #@! TA.AperFunction,SMDPad,CuDef*
G36*
G01*
X93349000Y-96578000D02*
X93849000Y-96578000D01*
G75*
G02*
X94074000Y-96803000I0J-225000D01*
G01*
X94074000Y-97253000D01*
G75*
G02*
X93849000Y-97478000I-225000J0D01*
G01*
X93349000Y-97478000D01*
G75*
G02*
X93124000Y-97253000I0J225000D01*
G01*
X93124000Y-96803000D01*
G75*
G02*
X93349000Y-96578000I225000J0D01*
G01*
G37*
G04 #@! TD.AperFunction*
G04 #@! TA.AperFunction,SMDPad,CuDef*
G36*
G01*
X45560000Y-17264000D02*
X44610000Y-17264000D01*
G75*
G02*
X44360000Y-17014000I0J250000D01*
G01*
X44360000Y-16514000D01*
G75*
G02*
X44610000Y-16264000I250000J0D01*
G01*
X45560000Y-16264000D01*
G75*
G02*
X45810000Y-16514000I0J-250000D01*
G01*
X45810000Y-17014000D01*
G75*
G02*
X45560000Y-17264000I-250000J0D01*
G01*
G37*
G04 #@! TD.AperFunction*
G04 #@! TA.AperFunction,SMDPad,CuDef*
G36*
G01*
X45560000Y-19164000D02*
X44610000Y-19164000D01*
G75*
G02*
X44360000Y-18914000I0J250000D01*
G01*
X44360000Y-18414000D01*
G75*
G02*
X44610000Y-18164000I250000J0D01*
G01*
X45560000Y-18164000D01*
G75*
G02*
X45810000Y-18414000I0J-250000D01*
G01*
X45810000Y-18914000D01*
G75*
G02*
X45560000Y-19164000I-250000J0D01*
G01*
G37*
G04 #@! TD.AperFunction*
G04 #@! TA.AperFunction,SMDPad,CuDef*
G36*
G01*
X90301000Y-98115000D02*
X90801000Y-98115000D01*
G75*
G02*
X91026000Y-98340000I0J-225000D01*
G01*
X91026000Y-98790000D01*
G75*
G02*
X90801000Y-99015000I-225000J0D01*
G01*
X90301000Y-99015000D01*
G75*
G02*
X90076000Y-98790000I0J225000D01*
G01*
X90076000Y-98340000D01*
G75*
G02*
X90301000Y-98115000I225000J0D01*
G01*
G37*
G04 #@! TD.AperFunction*
G04 #@! TA.AperFunction,SMDPad,CuDef*
G36*
G01*
X90301000Y-96565000D02*
X90801000Y-96565000D01*
G75*
G02*
X91026000Y-96790000I0J-225000D01*
G01*
X91026000Y-97240000D01*
G75*
G02*
X90801000Y-97465000I-225000J0D01*
G01*
X90301000Y-97465000D01*
G75*
G02*
X90076000Y-97240000I0J225000D01*
G01*
X90076000Y-96790000D01*
G75*
G02*
X90301000Y-96565000I225000J0D01*
G01*
G37*
G04 #@! TD.AperFunction*
G04 #@! TA.AperFunction,SMDPad,CuDef*
G36*
G01*
X96426000Y-98174000D02*
X97376000Y-98174000D01*
G75*
G02*
X97626000Y-98424000I0J-250000D01*
G01*
X97626000Y-98924000D01*
G75*
G02*
X97376000Y-99174000I-250000J0D01*
G01*
X96426000Y-99174000D01*
G75*
G02*
X96176000Y-98924000I0J250000D01*
G01*
X96176000Y-98424000D01*
G75*
G02*
X96426000Y-98174000I250000J0D01*
G01*
G37*
G04 #@! TD.AperFunction*
G04 #@! TA.AperFunction,SMDPad,CuDef*
G36*
G01*
X96426000Y-96274000D02*
X97376000Y-96274000D01*
G75*
G02*
X97626000Y-96524000I0J-250000D01*
G01*
X97626000Y-97024000D01*
G75*
G02*
X97376000Y-97274000I-250000J0D01*
G01*
X96426000Y-97274000D01*
G75*
G02*
X96176000Y-97024000I0J250000D01*
G01*
X96176000Y-96524000D01*
G75*
G02*
X96426000Y-96274000I250000J0D01*
G01*
G37*
G04 #@! TD.AperFunction*
G04 #@! TA.AperFunction,SMDPad,CuDef*
G36*
G01*
X34929000Y-74239000D02*
X35429000Y-74239000D01*
G75*
G02*
X35654000Y-74464000I0J-225000D01*
G01*
X35654000Y-74914000D01*
G75*
G02*
X35429000Y-75139000I-225000J0D01*
G01*
X34929000Y-75139000D01*
G75*
G02*
X34704000Y-74914000I0J225000D01*
G01*
X34704000Y-74464000D01*
G75*
G02*
X34929000Y-74239000I225000J0D01*
G01*
G37*
G04 #@! TD.AperFunction*
G04 #@! TA.AperFunction,SMDPad,CuDef*
G36*
G01*
X34929000Y-72689000D02*
X35429000Y-72689000D01*
G75*
G02*
X35654000Y-72914000I0J-225000D01*
G01*
X35654000Y-73364000D01*
G75*
G02*
X35429000Y-73589000I-225000J0D01*
G01*
X34929000Y-73589000D01*
G75*
G02*
X34704000Y-73364000I0J225000D01*
G01*
X34704000Y-72914000D01*
G75*
G02*
X34929000Y-72689000I225000J0D01*
G01*
G37*
G04 #@! TD.AperFunction*
G04 #@! TA.AperFunction,SMDPad,CuDef*
G36*
G01*
X34421000Y-48204000D02*
X34921000Y-48204000D01*
G75*
G02*
X35146000Y-48429000I0J-225000D01*
G01*
X35146000Y-48879000D01*
G75*
G02*
X34921000Y-49104000I-225000J0D01*
G01*
X34421000Y-49104000D01*
G75*
G02*
X34196000Y-48879000I0J225000D01*
G01*
X34196000Y-48429000D01*
G75*
G02*
X34421000Y-48204000I225000J0D01*
G01*
G37*
G04 #@! TD.AperFunction*
G04 #@! TA.AperFunction,SMDPad,CuDef*
G36*
G01*
X34421000Y-46654000D02*
X34921000Y-46654000D01*
G75*
G02*
X35146000Y-46879000I0J-225000D01*
G01*
X35146000Y-47329000D01*
G75*
G02*
X34921000Y-47554000I-225000J0D01*
G01*
X34421000Y-47554000D01*
G75*
G02*
X34196000Y-47329000I0J225000D01*
G01*
X34196000Y-46879000D01*
G75*
G02*
X34421000Y-46654000I225000J0D01*
G01*
G37*
G04 #@! TD.AperFunction*
G04 #@! TA.AperFunction,SMDPad,CuDef*
G36*
G01*
X95127000Y-112098000D02*
X95627000Y-112098000D01*
G75*
G02*
X95852000Y-112323000I0J-225000D01*
G01*
X95852000Y-112773000D01*
G75*
G02*
X95627000Y-112998000I-225000J0D01*
G01*
X95127000Y-112998000D01*
G75*
G02*
X94902000Y-112773000I0J225000D01*
G01*
X94902000Y-112323000D01*
G75*
G02*
X95127000Y-112098000I225000J0D01*
G01*
G37*
G04 #@! TD.AperFunction*
G04 #@! TA.AperFunction,SMDPad,CuDef*
G36*
G01*
X95127000Y-110548000D02*
X95627000Y-110548000D01*
G75*
G02*
X95852000Y-110773000I0J-225000D01*
G01*
X95852000Y-111223000D01*
G75*
G02*
X95627000Y-111448000I-225000J0D01*
G01*
X95127000Y-111448000D01*
G75*
G02*
X94902000Y-111223000I0J225000D01*
G01*
X94902000Y-110773000D01*
G75*
G02*
X95127000Y-110548000I225000J0D01*
G01*
G37*
G04 #@! TD.AperFunction*
G04 #@! TA.AperFunction,SMDPad,CuDef*
G36*
G01*
X107057000Y-32200000D02*
X106557000Y-32200000D01*
G75*
G02*
X106332000Y-31975000I0J225000D01*
G01*
X106332000Y-31525000D01*
G75*
G02*
X106557000Y-31300000I225000J0D01*
G01*
X107057000Y-31300000D01*
G75*
G02*
X107282000Y-31525000I0J-225000D01*
G01*
X107282000Y-31975000D01*
G75*
G02*
X107057000Y-32200000I-225000J0D01*
G01*
G37*
G04 #@! TD.AperFunction*
G04 #@! TA.AperFunction,SMDPad,CuDef*
G36*
G01*
X107057000Y-33750000D02*
X106557000Y-33750000D01*
G75*
G02*
X106332000Y-33525000I0J225000D01*
G01*
X106332000Y-33075000D01*
G75*
G02*
X106557000Y-32850000I225000J0D01*
G01*
X107057000Y-32850000D01*
G75*
G02*
X107282000Y-33075000I0J-225000D01*
G01*
X107282000Y-33525000D01*
G75*
G02*
X107057000Y-33750000I-225000J0D01*
G01*
G37*
G04 #@! TD.AperFunction*
G04 #@! TA.AperFunction,SMDPad,CuDef*
G36*
G01*
X107057000Y-28110000D02*
X106557000Y-28110000D01*
G75*
G02*
X106332000Y-27885000I0J225000D01*
G01*
X106332000Y-27435000D01*
G75*
G02*
X106557000Y-27210000I225000J0D01*
G01*
X107057000Y-27210000D01*
G75*
G02*
X107282000Y-27435000I0J-225000D01*
G01*
X107282000Y-27885000D01*
G75*
G02*
X107057000Y-28110000I-225000J0D01*
G01*
G37*
G04 #@! TD.AperFunction*
G04 #@! TA.AperFunction,SMDPad,CuDef*
G36*
G01*
X107057000Y-29660000D02*
X106557000Y-29660000D01*
G75*
G02*
X106332000Y-29435000I0J225000D01*
G01*
X106332000Y-28985000D01*
G75*
G02*
X106557000Y-28760000I225000J0D01*
G01*
X107057000Y-28760000D01*
G75*
G02*
X107282000Y-28985000I0J-225000D01*
G01*
X107282000Y-29435000D01*
G75*
G02*
X107057000Y-29660000I-225000J0D01*
G01*
G37*
G04 #@! TD.AperFunction*
G04 #@! TA.AperFunction,SMDPad,CuDef*
G36*
G01*
X95852000Y-105910000D02*
X94902000Y-105910000D01*
G75*
G02*
X94652000Y-105660000I0J250000D01*
G01*
X94652000Y-105160000D01*
G75*
G02*
X94902000Y-104910000I250000J0D01*
G01*
X95852000Y-104910000D01*
G75*
G02*
X96102000Y-105160000I0J-250000D01*
G01*
X96102000Y-105660000D01*
G75*
G02*
X95852000Y-105910000I-250000J0D01*
G01*
G37*
G04 #@! TD.AperFunction*
G04 #@! TA.AperFunction,SMDPad,CuDef*
G36*
G01*
X95852000Y-107810000D02*
X94902000Y-107810000D01*
G75*
G02*
X94652000Y-107560000I0J250000D01*
G01*
X94652000Y-107060000D01*
G75*
G02*
X94902000Y-106810000I250000J0D01*
G01*
X95852000Y-106810000D01*
G75*
G02*
X96102000Y-107060000I0J-250000D01*
G01*
X96102000Y-107560000D01*
G75*
G02*
X95852000Y-107810000I-250000J0D01*
G01*
G37*
G04 #@! TD.AperFunction*
D24*
X41315000Y-66080000D03*
D23*
X43815000Y-66080000D03*
X46315000Y-66080000D03*
D28*
X48565000Y-58580000D03*
X39065000Y-58580000D03*
D23*
X46315000Y-68580000D03*
X43815000Y-68580000D03*
X41315000Y-68580000D03*
D24*
X41315000Y-44450000D03*
D23*
X43815000Y-44450000D03*
X46315000Y-44450000D03*
D28*
X48565000Y-36950000D03*
X39065000Y-36950000D03*
D23*
X46315000Y-46950000D03*
X43815000Y-46950000D03*
X41315000Y-46950000D03*
D24*
X122595000Y-87630000D03*
D23*
X125095000Y-87630000D03*
X127595000Y-87630000D03*
D28*
X129895000Y-80130000D03*
X120295000Y-80130000D03*
D24*
X122595000Y-66040000D03*
D23*
X125095000Y-66040000D03*
X127595000Y-66040000D03*
D28*
X129895000Y-58540000D03*
X120295000Y-58540000D03*
D24*
X122595000Y-44450000D03*
D23*
X125095000Y-44450000D03*
X127595000Y-44450000D03*
D28*
X129895000Y-36950000D03*
X120295000Y-36950000D03*
D24*
X95925000Y-87630000D03*
D23*
X98425000Y-87630000D03*
X100925000Y-87630000D03*
D28*
X103225000Y-80130000D03*
X93625000Y-80130000D03*
D24*
X95925000Y-66040000D03*
D23*
X98425000Y-66040000D03*
X100925000Y-66040000D03*
D28*
X103225000Y-58540000D03*
X93625000Y-58540000D03*
D24*
X95925000Y-44450000D03*
D23*
X98425000Y-44450000D03*
X100925000Y-44450000D03*
D28*
X103225000Y-36950000D03*
X93625000Y-36950000D03*
D24*
X13375000Y-87630000D03*
D23*
X15875000Y-87630000D03*
X18375000Y-87630000D03*
D28*
X20675000Y-80130000D03*
X11075000Y-80130000D03*
D24*
X13375000Y-66040000D03*
D23*
X15875000Y-66040000D03*
X18375000Y-66040000D03*
D28*
X20675000Y-58540000D03*
X11075000Y-58540000D03*
D24*
X13375000Y-44450000D03*
D23*
X15875000Y-44450000D03*
X18375000Y-44450000D03*
D28*
X20675000Y-36950000D03*
X11075000Y-36950000D03*
D29*
X46230000Y-84710000D03*
X46230000Y-80010000D03*
X46230000Y-75310000D03*
X41400000Y-84710000D03*
X41400000Y-80010000D03*
X41400000Y-75310000D03*
X71755000Y-84710000D03*
X71755000Y-80010000D03*
X71755000Y-75310000D03*
X71755000Y-63120000D03*
X71755000Y-58420000D03*
X71755000Y-53720000D03*
X74170000Y-41530000D03*
X74170000Y-36830000D03*
X74170000Y-32130000D03*
X69340000Y-41530000D03*
X69340000Y-36830000D03*
X69340000Y-32130000D03*
D21*
X6985000Y-83820000D03*
X6985000Y-81280000D03*
X6985000Y-78740000D03*
X6985000Y-76200000D03*
X6985000Y-73660000D03*
X6985000Y-71120000D03*
X6985000Y-68580000D03*
D22*
X6985000Y-66040000D03*
D21*
X6985000Y-45720000D03*
X6985000Y-43180000D03*
X6985000Y-40640000D03*
D22*
X6985000Y-38100000D03*
D21*
X60325000Y-83820000D03*
X60325000Y-81280000D03*
X60325000Y-78740000D03*
D22*
X60325000Y-76200000D03*
D21*
X60325000Y-45720000D03*
X60325000Y-43180000D03*
X60325000Y-40640000D03*
D22*
X60325000Y-38100000D03*
D21*
X80645000Y-83820000D03*
X80645000Y-81280000D03*
X80645000Y-78740000D03*
X80645000Y-76200000D03*
X80645000Y-73660000D03*
X80645000Y-71120000D03*
X80645000Y-68580000D03*
D22*
X80645000Y-66040000D03*
D21*
X80645000Y-45720000D03*
X80645000Y-43180000D03*
X80645000Y-40640000D03*
D22*
X80645000Y-38100000D03*
D21*
X133985000Y-83820000D03*
X133985000Y-81280000D03*
X133985000Y-78740000D03*
D22*
X133985000Y-76200000D03*
D21*
X133985000Y-45720000D03*
X133985000Y-43180000D03*
X133985000Y-40640000D03*
D22*
X133985000Y-38100000D03*
D30*
X73660000Y-90043000D03*
X75057000Y-90043000D03*
X32893000Y-38798500D03*
X32893000Y-64770000D03*
X34163000Y-83058000D03*
X49847500Y-64135000D03*
X61976000Y-70294500D03*
X54800500Y-96266000D03*
X60325000Y-100203000D03*
X58864500Y-100266500D03*
X44196000Y-104775000D03*
X87693500Y-61468000D03*
X125095000Y-27114500D03*
X132715000Y-26924000D03*
X122364500Y-30162500D03*
X49784000Y-65151000D03*
X29466578Y-68967111D03*
X34163000Y-56934010D03*
X28829000Y-46459977D03*
X35941000Y-47498000D03*
X96139000Y-91948000D03*
X91694000Y-90678000D03*
X78867000Y-90678000D03*
X76327000Y-90932000D03*
X39243000Y-99822000D03*
X86995000Y-27305000D03*
X95631000Y-27178000D03*
X91821000Y-67945000D03*
X11176000Y-69850000D03*
X11176000Y-72390000D03*
X10160000Y-75184000D03*
X65278000Y-105029000D03*
X36449000Y-48198990D03*
X54864000Y-60452000D03*
X92837000Y-68045979D03*
X108267500Y-27747010D03*
X104267000Y-100076000D03*
X102743000Y-105410000D03*
X96901000Y-105410000D03*
X96901000Y-112522000D03*
X86487000Y-110744000D03*
X36195000Y-75437994D03*
X85813990Y-90678000D03*
X61976000Y-51181000D03*
X88265000Y-90508010D03*
X78486000Y-102616000D03*
X74803000Y-102616000D03*
X58420000Y-103886000D03*
X59690000Y-103886000D03*
X57150000Y-103886000D03*
X54610000Y-97790000D03*
X62992000Y-92710000D03*
X62992000Y-91694000D03*
X62992000Y-93726000D03*
X64770000Y-103632000D03*
X93599002Y-99822000D03*
X91694000Y-99822000D03*
X95250000Y-99822000D03*
X73025000Y-29972000D03*
X107315000Y-45466000D03*
X108458000Y-37084000D03*
X87066000Y-37140000D03*
X112095088Y-36482269D03*
X97790000Y-82423000D03*
X81334979Y-90678000D03*
X88745021Y-82296000D03*
X82295377Y-106011495D03*
X91440000Y-45593000D03*
X52832000Y-111633000D03*
X53086006Y-112776000D03*
X57658000Y-111379000D03*
X57658007Y-112775993D03*
X78613000Y-105918000D03*
X90932000Y-36957000D03*
X106172000Y-34544000D03*
X70739000Y-90678000D03*
X71945500Y-90551000D03*
X92837000Y-63881000D03*
X50800000Y-59690000D03*
X50800000Y-58674000D03*
X53467000Y-21336000D03*
X52197000Y-21336000D03*
X50927000Y-21336000D03*
X46990000Y-21717000D03*
X33401000Y-45974000D03*
X34671000Y-45720000D03*
X91821010Y-64135000D03*
X96901000Y-95250000D03*
X98171000Y-95504000D03*
X35687000Y-72136000D03*
X97155000Y-107188000D03*
X97155000Y-108712000D03*
X36019319Y-73283989D03*
X93937001Y-72305999D03*
X109220000Y-29337000D03*
X108204000Y-29337000D03*
X92710000Y-39878000D03*
X108099998Y-31645998D03*
X108099998Y-35248296D03*
X92837000Y-42418000D03*
X55880000Y-51816000D03*
X55880000Y-51816000D03*
X55880000Y-70777010D03*
X85090000Y-57150000D03*
X40259000Y-52451004D03*
X34163000Y-52324000D03*
X52451000Y-17526000D03*
X53911500Y-17526000D03*
X45339000Y-108966000D03*
X45339000Y-110363000D03*
X101219000Y-100076000D03*
X45339000Y-104267000D03*
X45339000Y-105791000D03*
X58293000Y-51602491D03*
X22479000Y-69977000D03*
X58927996Y-70358000D03*
X104724490Y-26809990D03*
X31940500Y-33401000D03*
X52197000Y-61411957D03*
X85979000Y-66675000D03*
X99441000Y-31369000D03*
X110490000Y-44958000D03*
X51435000Y-78486000D03*
X51181000Y-70104000D03*
X95631000Y-72390000D03*
X30226000Y-57150000D03*
X47024223Y-51777990D03*
X26416000Y-50253990D03*
X84074000Y-106045000D03*
X85090000Y-105791000D03*
X87630000Y-57404000D03*
X88138000Y-84328000D03*
X86995000Y-87884000D03*
X49530000Y-47434500D03*
X50292000Y-75184000D03*
X57277000Y-74676000D03*
X79629000Y-111506000D03*
X57277000Y-47686000D03*
X83185000Y-111252000D03*
X85090000Y-70866000D03*
X86995000Y-104902000D03*
X86106000Y-71628000D03*
X88645996Y-105918000D03*
X90297000Y-70485000D03*
X107188000Y-70485004D03*
X89211686Y-70681314D03*
X106172000Y-71501000D03*
X110490000Y-36830000D03*
X90170000Y-73279000D03*
X93091000Y-104521000D03*
X89154000Y-51054000D03*
X111760000Y-45720000D03*
X108765001Y-74495999D03*
X28829000Y-65278000D03*
X28828994Y-48006000D03*
X37084000Y-67945000D03*
X33528000Y-68834000D03*
X25400000Y-69469000D03*
X90805000Y-52705000D03*
X91440000Y-86614000D03*
X54229000Y-74422000D03*
D31*
X83439000Y-99568000D02*
X78486000Y-99568000D01*
X84257000Y-98750000D02*
X83439000Y-99568000D01*
X84257000Y-97213500D02*
X84257000Y-98750000D01*
D32*
X73660000Y-92202000D02*
X71882000Y-93980000D01*
X73660000Y-90043000D02*
X73660000Y-92202000D01*
X73660000Y-90043000D02*
X75057000Y-90043000D01*
X74803000Y-96901000D02*
X71882000Y-93980000D01*
X74803000Y-99060000D02*
X74803000Y-96901000D01*
X77978000Y-99060000D02*
X74803000Y-99060000D01*
X78486000Y-99568000D02*
X77978000Y-99060000D01*
D31*
X92161000Y-110041998D02*
X92161000Y-110862000D01*
X91847002Y-109728000D02*
X92161000Y-110041998D01*
X91059000Y-109728000D02*
X91847002Y-109728000D01*
X90861000Y-109926000D02*
X91059000Y-109728000D01*
X90861000Y-110862000D02*
X90861000Y-109926000D01*
X29464000Y-50741500D02*
X29464000Y-49720500D01*
X30530500Y-48654000D02*
X34671000Y-48654000D01*
X29464000Y-49720500D02*
X30530500Y-48654000D01*
X29845000Y-76776500D02*
X29845000Y-75565000D01*
X30721000Y-74689000D02*
X35179000Y-74689000D01*
X29845000Y-75565000D02*
X30721000Y-74689000D01*
X53975000Y-63949500D02*
X53975000Y-65191458D01*
X53975000Y-65191458D02*
X54188542Y-65405000D01*
X54188542Y-65405000D02*
X54546500Y-65405000D01*
X54625000Y-65326500D02*
X54625000Y-63949500D01*
X54546500Y-65405000D02*
X54625000Y-65326500D01*
X48895000Y-63145000D02*
X48742000Y-63145000D01*
X48895000Y-63145000D02*
X48895000Y-63182500D01*
X44195000Y-104776000D02*
X44196000Y-104775000D01*
X88280000Y-63177500D02*
X88280000Y-61673500D01*
X88280000Y-61673500D02*
X88074500Y-61468000D01*
X88074500Y-61468000D02*
X87693500Y-61468000D01*
X86980000Y-61673500D02*
X86980000Y-63177500D01*
X87185500Y-61468000D02*
X86980000Y-61673500D01*
X87693500Y-61468000D02*
X87185500Y-61468000D01*
X49847500Y-65087500D02*
X49784000Y-65151000D01*
X29195000Y-69238689D02*
X29466578Y-68967111D01*
X29195000Y-71051500D02*
X29195000Y-69238689D01*
X92557000Y-66548000D02*
X92837000Y-66828000D01*
X88773000Y-66548000D02*
X92557000Y-66548000D01*
X87630000Y-67691000D02*
X88773000Y-66548000D01*
X87630000Y-68902500D02*
X87630000Y-67691000D01*
X28814000Y-46444977D02*
X28829000Y-46459977D01*
X28814000Y-45016500D02*
X28814000Y-46444977D01*
X34671000Y-48654000D02*
X34785000Y-48654000D01*
X94742000Y-91948000D02*
X96139000Y-91948000D01*
X85344000Y-91922000D02*
X85344000Y-91859000D01*
X78740000Y-90805000D02*
X78867000Y-90678000D01*
X75438000Y-91822000D02*
X75438000Y-91821000D01*
X92837000Y-66828000D02*
X92837000Y-66929000D01*
X96901000Y-98674000D02*
X96901000Y-98806000D01*
X32893000Y-64770000D02*
X32893000Y-66294000D01*
X34163000Y-83058000D02*
X34163000Y-81656000D01*
X86995000Y-27305000D02*
X86995000Y-28639000D01*
X95631000Y-28322000D02*
X95885000Y-28576000D01*
X95631000Y-27178000D02*
X95631000Y-28322000D01*
X121094500Y-30162500D02*
X120904000Y-29972000D01*
X122364500Y-30162500D02*
X121094500Y-30162500D01*
X125095000Y-27114500D02*
X125095000Y-28195000D01*
X132715000Y-26924000D02*
X132715000Y-28195000D01*
X91821000Y-67844000D02*
X92837000Y-66828000D01*
X91821000Y-67945000D02*
X91821000Y-67844000D01*
X91694000Y-90678000D02*
X91694000Y-91922000D01*
X78867000Y-90678000D02*
X78867000Y-91313000D01*
X78740000Y-91440000D02*
X78740000Y-91922000D01*
X78867000Y-91313000D02*
X78740000Y-91440000D01*
X76327000Y-90933000D02*
X75438000Y-91822000D01*
X76327000Y-90932000D02*
X76327000Y-90933000D01*
X65277000Y-105030000D02*
X65278000Y-105029000D01*
X63754000Y-105030000D02*
X65277000Y-105030000D01*
X60452000Y-100330000D02*
X60325000Y-100203000D01*
X60452000Y-101854000D02*
X60452000Y-100330000D01*
X58864500Y-100266500D02*
X60452000Y-101854000D01*
X54800500Y-96266000D02*
X53340000Y-96266000D01*
X42800000Y-104775000D02*
X42799000Y-104776000D01*
X44196000Y-104775000D02*
X42800000Y-104775000D01*
X39243000Y-99822000D02*
X39243000Y-101092000D01*
X11176000Y-72390000D02*
X14071000Y-72390000D01*
X13848000Y-75184000D02*
X13975000Y-75057000D01*
X10160000Y-75184000D02*
X13848000Y-75184000D01*
X49847500Y-64097500D02*
X48895000Y-63145000D01*
X49847500Y-64135000D02*
X49847500Y-64097500D01*
X49784000Y-64198500D02*
X49847500Y-64135000D01*
X49784000Y-65151000D02*
X49784000Y-64198500D01*
X61976000Y-70294500D02*
X61976000Y-69087000D01*
X35827000Y-47498000D02*
X34671000Y-48654000D01*
X35941000Y-47498000D02*
X35827000Y-47498000D01*
X32893000Y-38798500D02*
X32893000Y-40069000D01*
D32*
X45447000Y-23636000D02*
X45085000Y-23998000D01*
X49022000Y-23636000D02*
X45447000Y-23636000D01*
X44360000Y-16764000D02*
X45085000Y-16764000D01*
X43659990Y-17464010D02*
X44360000Y-16764000D01*
X43659990Y-23297990D02*
X43659990Y-17464010D01*
X44360000Y-23998000D02*
X43659990Y-23297990D01*
X45085000Y-23998000D02*
X44360000Y-23998000D01*
D31*
X34163000Y-56934010D02*
X34163000Y-55814000D01*
X34671000Y-48654000D02*
X35993990Y-48654000D01*
X35993990Y-48654000D02*
X36449000Y-48198990D01*
X54625000Y-58224500D02*
X54625000Y-60213000D01*
X54625000Y-60213000D02*
X54864000Y-60452000D01*
X92837000Y-66828000D02*
X92837000Y-68045979D01*
X108180490Y-27660000D02*
X108267500Y-27747010D01*
X106807000Y-27660000D02*
X108180490Y-27660000D01*
X108230000Y-27660000D02*
X108267500Y-27697500D01*
X108267500Y-27697500D02*
X108267500Y-27747010D01*
X104648000Y-100457000D02*
X104267000Y-100076000D01*
X104648000Y-101473000D02*
X104648000Y-100457000D01*
X102680000Y-105347000D02*
X102743000Y-105410000D01*
X101219000Y-105347000D02*
X102680000Y-105347000D01*
X95377000Y-105410000D02*
X96901000Y-105410000D01*
X96875000Y-112548000D02*
X96901000Y-112522000D01*
X95377000Y-112548000D02*
X96875000Y-112548000D01*
X94641000Y-112548000D02*
X95377000Y-112548000D01*
X92955000Y-110862000D02*
X94641000Y-112548000D01*
X92161000Y-110862000D02*
X92955000Y-110862000D01*
X86487000Y-109500000D02*
X86487000Y-110744000D01*
X35446006Y-74689000D02*
X36195000Y-75437994D01*
X35179000Y-74689000D02*
X35446006Y-74689000D01*
X49228010Y-62811990D02*
X48895000Y-63145000D01*
X53975000Y-63154876D02*
X53632114Y-62811990D01*
X53632114Y-62811990D02*
X49228010Y-62811990D01*
X53975000Y-63949500D02*
X53975000Y-63154876D01*
X85344000Y-91922000D02*
X85344000Y-91147990D01*
X85344000Y-91147990D02*
X85813990Y-90678000D01*
X62230000Y-53087000D02*
X62230000Y-51435000D01*
X62230000Y-51435000D02*
X61976000Y-51181000D01*
X88646000Y-91922000D02*
X88646000Y-90889010D01*
X88646000Y-90889010D02*
X88265000Y-90508010D01*
D32*
X49674000Y-12175000D02*
X52180000Y-12175000D01*
X45085000Y-16764000D02*
X49674000Y-12175000D01*
D31*
X74803000Y-100960000D02*
X74803000Y-102616000D01*
X78486000Y-101118000D02*
X78486000Y-102616000D01*
D33*
X60452000Y-103632000D02*
X60452000Y-101854000D01*
X60198000Y-103886000D02*
X60452000Y-103632000D01*
X56896000Y-103886000D02*
X57150000Y-103886000D01*
X56388000Y-104394000D02*
X56896000Y-103886000D01*
X56388000Y-105878000D02*
X56388000Y-104394000D01*
X58420000Y-103886000D02*
X59690000Y-103886000D01*
X59690000Y-103886000D02*
X60198000Y-103886000D01*
X57150000Y-103886000D02*
X58420000Y-103886000D01*
D31*
X53340000Y-96520000D02*
X54610000Y-97790000D01*
X53340000Y-96266000D02*
X53340000Y-96520000D01*
X62860000Y-93858000D02*
X62992000Y-93726000D01*
D33*
X62992000Y-93726000D02*
X62992000Y-91694000D01*
X61346000Y-93726000D02*
X61214000Y-93858000D01*
X62992000Y-93726000D02*
X61346000Y-93726000D01*
X62992000Y-91694000D02*
X61214000Y-91694000D01*
D31*
X63754000Y-104648000D02*
X64770000Y-103632000D01*
X63754000Y-105030000D02*
X63754000Y-104648000D01*
X93599000Y-98578000D02*
X93599000Y-99821998D01*
X93599000Y-99821998D02*
X93599002Y-99822000D01*
X91694000Y-99708000D02*
X91694000Y-99822000D01*
X90551000Y-98565000D02*
X91694000Y-99708000D01*
X96901000Y-98674000D02*
X95753000Y-99822000D01*
X95753000Y-99822000D02*
X95250000Y-99822000D01*
D33*
X95250000Y-99822000D02*
X91694000Y-99822000D01*
D31*
X89776000Y-98565000D02*
X90551000Y-98565000D01*
X88773000Y-99568000D02*
X89776000Y-98565000D01*
X84907000Y-101746792D02*
X87085792Y-99568000D01*
X87085792Y-99568000D02*
X88773000Y-99568000D01*
X84907000Y-102938500D02*
X84907000Y-101746792D01*
X73025000Y-29972000D02*
X73025000Y-28575000D01*
X107315000Y-43968000D02*
X107315000Y-45466000D01*
X107341000Y-38201000D02*
X108458000Y-37084000D01*
X107315000Y-38201000D02*
X107341000Y-38201000D01*
X87066000Y-38908500D02*
X87066000Y-37140000D01*
X111831000Y-38908500D02*
X111831000Y-36746357D01*
X111831000Y-36746357D02*
X112095088Y-36482269D01*
X97475000Y-82108000D02*
X97790000Y-82423000D01*
X97475000Y-80756000D02*
X97475000Y-82108000D01*
X82042000Y-91922000D02*
X82042000Y-91385021D01*
X82042000Y-91385021D02*
X81334979Y-90678000D01*
X86426000Y-80756000D02*
X87966000Y-82296000D01*
X87966000Y-82296000D02*
X88745021Y-82296000D01*
X91440000Y-43942000D02*
X91440000Y-45593000D01*
X51435000Y-112390000D02*
X52192000Y-111633000D01*
X52192000Y-111633000D02*
X52832000Y-111633000D01*
X51435000Y-112390000D02*
X52700006Y-112390000D01*
X52700006Y-112390000D02*
X53086006Y-112776000D01*
X56388000Y-112294000D02*
X56743000Y-112294000D01*
X56743000Y-112294000D02*
X57658000Y-111379000D01*
X56388000Y-112294000D02*
X57176014Y-112294000D01*
X57176014Y-112294000D02*
X57658007Y-112775993D01*
X82677000Y-106393118D02*
X82295377Y-106011495D01*
X82677000Y-107569000D02*
X82677000Y-106393118D01*
X83058000Y-107950000D02*
X82677000Y-107569000D01*
X83185000Y-107950000D02*
X83058000Y-107950000D01*
X79629000Y-106934000D02*
X78613000Y-105918000D01*
X79629000Y-107950000D02*
X79629000Y-106934000D01*
X91440000Y-37465000D02*
X90932000Y-36957000D01*
X91440000Y-38201000D02*
X91440000Y-37465000D01*
X106807000Y-33909000D02*
X106172000Y-34544000D01*
X106807000Y-33300000D02*
X106807000Y-33909000D01*
D34*
X13975000Y-69220000D02*
X13970000Y-69215000D01*
X13975000Y-75057000D02*
X13975000Y-69220000D01*
D31*
X11938000Y-69215000D02*
X13970000Y-69215000D01*
X11303000Y-69850000D02*
X11938000Y-69215000D01*
X11176000Y-69850000D02*
X11303000Y-69850000D01*
D32*
X55322000Y-21336000D02*
X53467000Y-21336000D01*
X45085000Y-22098000D02*
X46609000Y-22098000D01*
X47371000Y-21336000D02*
X49022000Y-21336000D01*
X46609000Y-22098000D02*
X46990000Y-21717000D01*
D31*
X29845000Y-71051500D02*
X29845000Y-72072500D01*
X30911500Y-73139000D02*
X35179000Y-73139000D01*
X29845000Y-72072500D02*
X30911500Y-73139000D01*
X87630000Y-63177500D02*
X87630000Y-64452500D01*
X88455500Y-65278000D02*
X92837000Y-65278000D01*
X87630000Y-64452500D02*
X88455500Y-65278000D01*
X71882000Y-91821000D02*
X70739000Y-90678000D01*
X71882000Y-91855000D02*
X71882000Y-91821000D01*
X71882000Y-90614500D02*
X71945500Y-90551000D01*
X71882000Y-91855000D02*
X71882000Y-90614500D01*
X34671000Y-47104000D02*
X34747500Y-47104000D01*
X92837000Y-65278000D02*
X92837000Y-63881000D01*
X48895000Y-61595000D02*
X50800000Y-59690000D01*
D32*
X53467000Y-21336000D02*
X52197000Y-21336000D01*
X52197000Y-21336000D02*
X50927000Y-21336000D01*
X50927000Y-21336000D02*
X49022000Y-21336000D01*
X46990000Y-21717000D02*
X47371000Y-21336000D01*
D31*
X30657027Y-47104000D02*
X34671000Y-47104000D01*
X29464000Y-45910973D02*
X30657027Y-47104000D01*
X29464000Y-45016500D02*
X29464000Y-45910973D01*
X34531000Y-47104000D02*
X33401000Y-45974000D01*
X34671000Y-47104000D02*
X34531000Y-47104000D01*
X34671000Y-47104000D02*
X34671000Y-45720000D01*
X91821010Y-64262010D02*
X91821010Y-64135000D01*
X92837000Y-65278000D02*
X91821010Y-64262010D01*
X96901000Y-96774000D02*
X96901000Y-95250000D01*
X96901000Y-96774000D02*
X98171000Y-95504000D01*
X96660000Y-97015000D02*
X96901000Y-96774000D01*
X90551000Y-97015000D02*
X96660000Y-97015000D01*
X35179000Y-72644000D02*
X35687000Y-72136000D01*
X35179000Y-73139000D02*
X35179000Y-72644000D01*
X94107000Y-110998000D02*
X95377000Y-110998000D01*
X91821000Y-108712000D02*
X94107000Y-110998000D01*
X90805000Y-108712000D02*
X91821000Y-108712000D01*
X90211000Y-108118000D02*
X90805000Y-108712000D01*
X90211000Y-106562000D02*
X90211000Y-108118000D01*
X97033000Y-107310000D02*
X97155000Y-107188000D01*
X95377000Y-107310000D02*
X97033000Y-107310000D01*
X95753000Y-107310000D02*
X97155000Y-108712000D01*
X95377000Y-107310000D02*
X95753000Y-107310000D01*
D33*
X95377000Y-107310000D02*
X95377000Y-110998000D01*
D31*
X35874330Y-73139000D02*
X36019319Y-73283989D01*
X35179000Y-73139000D02*
X35874330Y-73139000D01*
X49511979Y-62211979D02*
X48895000Y-61595000D01*
X52637037Y-62211979D02*
X49511979Y-62211979D01*
X53975000Y-58224500D02*
X53975000Y-60874016D01*
X53975000Y-60874016D02*
X52637037Y-62211979D01*
X89675000Y-97015000D02*
X90551000Y-97015000D01*
X87884000Y-98806000D02*
X89675000Y-97015000D01*
X84257000Y-101548250D02*
X86999250Y-98806000D01*
X86999250Y-98806000D02*
X87884000Y-98806000D01*
X84257000Y-102938500D02*
X84257000Y-101548250D01*
X97624990Y-75413010D02*
X98425000Y-74613000D01*
X87376000Y-74613000D02*
X88176010Y-75413010D01*
X94082010Y-72451008D02*
X93937001Y-72305999D01*
X94082010Y-75413010D02*
X94082010Y-72451008D01*
X88176010Y-75413010D02*
X94082010Y-75413010D01*
X94082010Y-75413010D02*
X97624990Y-75413010D01*
D32*
X61702001Y-99548001D02*
X60452000Y-98298000D01*
X61702001Y-104033999D02*
X61702001Y-99548001D01*
X60706000Y-105030000D02*
X61702001Y-104033999D01*
X61214000Y-97536000D02*
X60452000Y-98298000D01*
X61214000Y-95758000D02*
X61214000Y-97536000D01*
D33*
X60621999Y-95165999D02*
X61214000Y-95758000D01*
X51816000Y-93270002D02*
X53711997Y-95165999D01*
X51816000Y-91290000D02*
X51816000Y-93270002D01*
X49606001Y-89080001D02*
X51816000Y-91290000D01*
X6985000Y-86042500D02*
X10022501Y-89080001D01*
X53711997Y-95165999D02*
X60621999Y-95165999D01*
X10022501Y-89080001D02*
X49606001Y-89080001D01*
X6985000Y-83820000D02*
X6985000Y-86042500D01*
D32*
X109220000Y-29337000D02*
X108204000Y-29337000D01*
X106934000Y-29337000D02*
X106807000Y-29210000D01*
X108204000Y-29337000D02*
X106934000Y-29337000D01*
D33*
X77343000Y-87122000D02*
X80645000Y-83820000D01*
X72888998Y-87122000D02*
X77343000Y-87122000D01*
X64252998Y-95758000D02*
X72888998Y-87122000D01*
X61214000Y-95758000D02*
X64252998Y-95758000D01*
D31*
X106807000Y-29210000D02*
X101854000Y-29210000D01*
X101600000Y-28956000D02*
X101600000Y-27871500D01*
X101854000Y-29210000D02*
X101600000Y-28956000D01*
X91440000Y-39751000D02*
X89281000Y-39751000D01*
X88438500Y-38908500D02*
X87716000Y-38908500D01*
X89281000Y-39751000D02*
X88438500Y-38908500D01*
X112481000Y-38908500D02*
X112481000Y-40300000D01*
X112481000Y-40300000D02*
X112268000Y-40513000D01*
X108077000Y-40513000D02*
X107315000Y-39751000D01*
X112268000Y-40513000D02*
X108077000Y-40513000D01*
X92837000Y-39751000D02*
X92710000Y-39878000D01*
X107315000Y-39751000D02*
X92837000Y-39751000D01*
X92583000Y-39751000D02*
X92710000Y-39878000D01*
X91440000Y-39751000D02*
X92583000Y-39751000D01*
D32*
X56262000Y-89794000D02*
X61214000Y-89794000D01*
X53346000Y-92710000D02*
X56262000Y-89794000D01*
X106911002Y-31645998D02*
X106807000Y-31750000D01*
X108099998Y-31645998D02*
X106911002Y-31645998D01*
X108099998Y-31645998D02*
X108099998Y-35248296D01*
D33*
X68712000Y-82296000D02*
X61214000Y-89794000D01*
X77120750Y-82296000D02*
X68712000Y-82296000D01*
X80645000Y-78771750D02*
X77120750Y-82296000D01*
X80645000Y-78740000D02*
X80645000Y-78771750D01*
X53346000Y-91192000D02*
X53346000Y-92710000D01*
X17427009Y-84582000D02*
X20856009Y-88011000D01*
X50165000Y-88011000D02*
X53346000Y-91192000D01*
X8763000Y-83058000D02*
X10287000Y-84582000D01*
X8763000Y-80518000D02*
X8763000Y-83058000D01*
X20856009Y-88011000D02*
X50165000Y-88011000D01*
X10287000Y-84582000D02*
X17427009Y-84582000D01*
X6985000Y-78740000D02*
X8763000Y-80518000D01*
D31*
X106299000Y-31242000D02*
X106807000Y-31750000D01*
X102108000Y-31242000D02*
X106299000Y-31242000D01*
X101600000Y-31750000D02*
X102108000Y-31242000D01*
X101600000Y-33342500D02*
X101600000Y-31750000D01*
X86416000Y-42263876D02*
X87150876Y-41529000D01*
X86416000Y-43133500D02*
X86416000Y-42263876D01*
X90577000Y-41529000D02*
X91440000Y-42392000D01*
X87150876Y-41529000D02*
X90577000Y-41529000D01*
X111181000Y-43133500D02*
X111181000Y-41839000D01*
X111181000Y-41839000D02*
X110871000Y-41529000D01*
X108204000Y-41529000D02*
X107315000Y-42418000D01*
X110871000Y-41529000D02*
X108204000Y-41529000D01*
X92811000Y-42392000D02*
X92837000Y-42418000D01*
X91440000Y-42392000D02*
X92811000Y-42392000D01*
X107315000Y-42418000D02*
X92837000Y-42418000D01*
D33*
X19685000Y-69850000D02*
X17999990Y-68164990D01*
X17999990Y-68164990D02*
X11464010Y-68164990D01*
X11464010Y-68164990D02*
X9525000Y-70104000D01*
X9525000Y-73660000D02*
X6985000Y-76200000D01*
X9525000Y-70104000D02*
X9525000Y-73660000D01*
D32*
X48548000Y-18562000D02*
X49022000Y-19036000D01*
X48548000Y-16510000D02*
X48548000Y-18562000D01*
X48650000Y-18664000D02*
X49022000Y-19036000D01*
X45085000Y-18664000D02*
X48650000Y-18664000D01*
D33*
X55438000Y-107249000D02*
X55438000Y-108498000D01*
X55499000Y-107188000D02*
X55438000Y-107249000D01*
X57277000Y-107188000D02*
X55499000Y-107188000D01*
X57338000Y-107249000D02*
X57277000Y-107188000D01*
X57338000Y-108498000D02*
X57338000Y-107249000D01*
X55438000Y-108498000D02*
X52999000Y-108498000D01*
X51816000Y-107315000D02*
X51816000Y-105664000D01*
X52999000Y-108498000D02*
X51816000Y-107315000D01*
D32*
X46990000Y-110490000D02*
X51435000Y-110490000D01*
X51435000Y-106045000D02*
X51816000Y-105664000D01*
X51435000Y-110490000D02*
X51435000Y-106045000D01*
D33*
X56388000Y-108498000D02*
X56388000Y-110744000D01*
X19685000Y-71975000D02*
X19685000Y-74867000D01*
X16925000Y-69215000D02*
X19685000Y-71975000D01*
X15520000Y-69215000D02*
X16925000Y-69215000D01*
D32*
X47244000Y-99446000D02*
X47244000Y-96392000D01*
X50414000Y-96392000D02*
X50540000Y-96266000D01*
X47244000Y-96392000D02*
X50414000Y-96392000D01*
D33*
X52216000Y-101346000D02*
X51054000Y-101346000D01*
X55438000Y-104568000D02*
X52216000Y-101346000D01*
X55438000Y-105878000D02*
X55438000Y-104568000D01*
D32*
X48133000Y-105581000D02*
X48216000Y-105664000D01*
X48133000Y-101346000D02*
X48133000Y-105581000D01*
X51054000Y-101346000D02*
X48133000Y-101346000D01*
X48133000Y-101346000D02*
X47244000Y-101346000D01*
D31*
X55880000Y-51816000D02*
X55880000Y-53087000D01*
X55880000Y-69087000D02*
X55880000Y-70777010D01*
X84455000Y-57785000D02*
X85090000Y-57150000D01*
X84455000Y-58675000D02*
X84455000Y-57785000D01*
D33*
X15621000Y-74803000D02*
X15875000Y-75057000D01*
X15621000Y-72390000D02*
X15621000Y-74803000D01*
X17335000Y-76517000D02*
X19685000Y-76517000D01*
X15875000Y-75057000D02*
X17335000Y-76517000D01*
X21209000Y-68874000D02*
X18375000Y-66040000D01*
X21209000Y-74993000D02*
X21209000Y-68874000D01*
X19685000Y-76517000D02*
X21209000Y-74993000D01*
D32*
X51304000Y-99696000D02*
X51054000Y-99446000D01*
X54356000Y-99696000D02*
X51304000Y-99696000D01*
X56254000Y-99696000D02*
X57652000Y-98298000D01*
X54356000Y-99696000D02*
X56254000Y-99696000D01*
D31*
X32070000Y-53914000D02*
X34163000Y-53914000D01*
X30114000Y-51958000D02*
X32070000Y-53914000D01*
X30114000Y-50741500D02*
X30114000Y-51958000D01*
D33*
X43815000Y-44450000D02*
X46315000Y-44450000D01*
D31*
X46315000Y-44450000D02*
X47615001Y-45750001D01*
X47615001Y-45750001D02*
X47615001Y-47574001D01*
X47615001Y-47574001D02*
X42737998Y-52451004D01*
X42737998Y-52451004D02*
X40259000Y-52451004D01*
X34163000Y-53914000D02*
X34163000Y-52324000D01*
D32*
X53230000Y-6700000D02*
X52705000Y-6700000D01*
X60325000Y-13795000D02*
X53230000Y-6700000D01*
X60325000Y-14226000D02*
X60325000Y-13795000D01*
X9485000Y-30520000D02*
X6985000Y-28020000D01*
X11985000Y-30520000D02*
X9485000Y-30520000D01*
X24725000Y-27980000D02*
X27225000Y-30480000D01*
X22225000Y-27980000D02*
X24725000Y-27980000D01*
X43815000Y-101092000D02*
X42799000Y-101092000D01*
X45339000Y-102616000D02*
X43815000Y-101092000D01*
X46194000Y-112615000D02*
X45339000Y-111760000D01*
X46990000Y-112615000D02*
X46194000Y-112615000D01*
X51689000Y-17526000D02*
X50673000Y-16510000D01*
X52451000Y-17526000D02*
X51689000Y-17526000D01*
X60325000Y-17526000D02*
X53911500Y-17526000D01*
X45339000Y-108966000D02*
X45339000Y-105791000D01*
X45339000Y-110363000D02*
X45339000Y-108966000D01*
X45339000Y-111760000D02*
X45339000Y-110363000D01*
D31*
X101219000Y-100076000D02*
X101219000Y-101474000D01*
D32*
X45339000Y-104267000D02*
X45339000Y-102616000D01*
X45339000Y-105791000D02*
X45339000Y-104267000D01*
X53911500Y-17526000D02*
X52451000Y-17526000D01*
X57144000Y-101346000D02*
X57652000Y-101854000D01*
X54356000Y-101346000D02*
X57144000Y-101346000D01*
X48514000Y-94742000D02*
X50546000Y-92710000D01*
X47244000Y-94742000D02*
X48514000Y-94742000D01*
X78995000Y-41530000D02*
X80645000Y-43180000D01*
X74170000Y-41530000D02*
X78995000Y-41530000D01*
D31*
X83014124Y-43180000D02*
X80645000Y-43180000D01*
X86416000Y-39778124D02*
X83014124Y-43180000D01*
X86416000Y-38908500D02*
X86416000Y-39778124D01*
X58928000Y-52237491D02*
X58293000Y-51602491D01*
X58928000Y-53086000D02*
X58928000Y-52237491D01*
X58928000Y-70357996D02*
X58927996Y-70358000D01*
X58928000Y-69087000D02*
X58928000Y-70357996D01*
X102900000Y-27617500D02*
X102900000Y-26386000D01*
X102900000Y-26386000D02*
X102997000Y-26289000D01*
X102997000Y-26289000D02*
X103505000Y-26289000D01*
X103550000Y-26334000D02*
X103550000Y-27617500D01*
X103505000Y-26289000D02*
X103550000Y-26334000D01*
X103550000Y-27617500D02*
X104357510Y-26809990D01*
X104357510Y-26809990D02*
X104724490Y-26809990D01*
X30368534Y-40869010D02*
X31940500Y-39297044D01*
X26797000Y-40069000D02*
X28521456Y-40069000D01*
X31940500Y-39297044D02*
X31940500Y-33401000D01*
X29321466Y-40869010D02*
X30368534Y-40869010D01*
X28521456Y-40069000D02*
X29321466Y-40869010D01*
X72279999Y-44469999D02*
X69340000Y-41530000D01*
X85324001Y-44469999D02*
X72279999Y-44469999D01*
X85766000Y-44028000D02*
X85324001Y-44469999D01*
X85766000Y-43133500D02*
X85766000Y-44028000D01*
X52025000Y-58224500D02*
X52025000Y-56470000D01*
X52025000Y-56470000D02*
X51181000Y-55626000D01*
X48654990Y-54062010D02*
X49530000Y-53187000D01*
X48654990Y-55220890D02*
X48654990Y-54062010D01*
X49060100Y-55626000D02*
X48654990Y-55220890D01*
X51181000Y-55626000D02*
X49060100Y-55626000D01*
X52477000Y-53187000D02*
X52578000Y-53086000D01*
X49530000Y-53187000D02*
X52477000Y-53187000D01*
X52025000Y-58224500D02*
X52025000Y-61239957D01*
X52025000Y-61239957D02*
X52197000Y-61411957D01*
X84201000Y-68453000D02*
X85979000Y-66675000D01*
X84201000Y-74613000D02*
X84201000Y-68453000D01*
X84455000Y-53975000D02*
X87630000Y-53975000D01*
X82296000Y-56134000D02*
X84455000Y-53975000D01*
X82296000Y-60960000D02*
X82296000Y-56134000D01*
X84513500Y-63177500D02*
X82296000Y-60960000D01*
X85680000Y-63177500D02*
X84513500Y-63177500D01*
X84836000Y-66929000D02*
X80645000Y-71120000D01*
X84836000Y-65532000D02*
X84836000Y-66929000D01*
X85680000Y-64688000D02*
X84836000Y-65532000D01*
X85680000Y-63177500D02*
X85680000Y-64688000D01*
X99631500Y-33361000D02*
X99650000Y-33342500D01*
X99650000Y-33342500D02*
X99650000Y-34753000D01*
X99650000Y-34753000D02*
X99695000Y-34798000D01*
X99695000Y-34798000D02*
X100203000Y-34798000D01*
X100300000Y-34701000D02*
X100300000Y-33342500D01*
X100203000Y-34798000D02*
X100300000Y-34701000D01*
X99650000Y-31578000D02*
X99441000Y-31369000D01*
X99650000Y-33342500D02*
X99650000Y-31578000D01*
X110531000Y-44917000D02*
X110490000Y-44958000D01*
X110531000Y-43133500D02*
X110531000Y-44917000D01*
X49630000Y-69087000D02*
X49530000Y-68987000D01*
X48654990Y-66953110D02*
X49314100Y-66294000D01*
X48654990Y-67920890D02*
X48654990Y-66953110D01*
X49530000Y-68795900D02*
X48654990Y-67920890D01*
X49530000Y-68987000D02*
X49530000Y-68795900D01*
X52025000Y-65704000D02*
X52025000Y-63949500D01*
X51435000Y-66294000D02*
X52025000Y-65704000D01*
X49314100Y-66294000D02*
X51435000Y-66294000D01*
X51181000Y-69213000D02*
X51307000Y-69087000D01*
X51307000Y-69087000D02*
X49630000Y-69087000D01*
X52578000Y-69087000D02*
X51307000Y-69087000D01*
D33*
X57531000Y-78486000D02*
X51435000Y-78486000D01*
X60325000Y-81280000D02*
X57658000Y-78613000D01*
D31*
X57658000Y-78613000D02*
X57531000Y-78486000D01*
D33*
X51181000Y-69213000D02*
X51181000Y-69596000D01*
X51181000Y-69596000D02*
X51181000Y-70104000D01*
D31*
X95377000Y-72644000D02*
X95631000Y-72390000D01*
X95377000Y-74613000D02*
X95377000Y-72644000D01*
D33*
X63754000Y-106680000D02*
X60706000Y-106680000D01*
X59222000Y-106680000D02*
X58420000Y-105878000D01*
X60706000Y-106680000D02*
X59222000Y-106680000D01*
X58420000Y-105878000D02*
X57338000Y-105878000D01*
D31*
X28164000Y-43086000D02*
X28164000Y-45016500D01*
X26797000Y-41719000D02*
X28164000Y-43086000D01*
X29845000Y-39116000D02*
X29845000Y-40069000D01*
X29527500Y-38798500D02*
X29845000Y-39116000D01*
X23632956Y-38798500D02*
X29527500Y-38798500D01*
X22873990Y-39557466D02*
X23632956Y-38798500D01*
X22873990Y-40454534D02*
X22873990Y-39557466D01*
X24222554Y-40806010D02*
X23225466Y-40806010D01*
X25135544Y-41719000D02*
X24222554Y-40806010D01*
X23225466Y-40806010D02*
X22873990Y-40454534D01*
X26797000Y-41719000D02*
X25135544Y-41719000D01*
X30114000Y-41988000D02*
X29845000Y-41719000D01*
X30114000Y-45016500D02*
X30114000Y-41988000D01*
X23750000Y-40005000D02*
X23749000Y-40006000D01*
X25400000Y-40005000D02*
X23750000Y-40005000D01*
X26313990Y-40918990D02*
X25400000Y-40005000D01*
X27320534Y-40918990D02*
X26313990Y-40918990D01*
X28057544Y-41656000D02*
X27320534Y-40918990D01*
X29782000Y-41656000D02*
X28057544Y-41656000D01*
X29845000Y-41719000D02*
X29782000Y-41656000D01*
X27109500Y-45016500D02*
X23749000Y-41656000D01*
X27514000Y-45016500D02*
X27109500Y-45016500D01*
X31414000Y-45016500D02*
X31414000Y-44046542D01*
X31414000Y-44046542D02*
X32788542Y-42672000D01*
X34988000Y-42672000D02*
X35941000Y-41719000D01*
X32788542Y-42672000D02*
X34988000Y-42672000D01*
D33*
X34915990Y-40693990D02*
X35941000Y-41719000D01*
X34915990Y-33315008D02*
X34915990Y-40693990D01*
X37179498Y-31051500D02*
X34915990Y-33315008D01*
X39497000Y-31051500D02*
X37179498Y-31051500D01*
X42568500Y-27980000D02*
X39497000Y-31051500D01*
X52785000Y-27980000D02*
X42568500Y-27980000D01*
X40322000Y-44450000D02*
X35941000Y-40069000D01*
X41315000Y-44450000D02*
X40322000Y-44450000D01*
D31*
X30764000Y-43848000D02*
X32893000Y-41719000D01*
X30764000Y-45016500D02*
X30764000Y-43848000D01*
D32*
X55285000Y-32980000D02*
X57785000Y-30480000D01*
X52785000Y-32980000D02*
X55285000Y-32980000D01*
D33*
X33918010Y-40693990D02*
X32893000Y-41719000D01*
X33918010Y-33040182D02*
X33918010Y-40693990D01*
X36806701Y-30151491D02*
X33918010Y-33040182D01*
X38809509Y-30151491D02*
X36806701Y-30151491D01*
X53734999Y-26429999D02*
X42531001Y-26429999D01*
X42531001Y-26429999D02*
X38809509Y-30151491D01*
X57785000Y-30480000D02*
X53734999Y-26429999D01*
D31*
X30798000Y-55752000D02*
X30861000Y-55689000D01*
X27813000Y-55752000D02*
X30798000Y-55752000D01*
X31414000Y-51861000D02*
X31414000Y-50741500D01*
X30764000Y-50741500D02*
X30764000Y-51719000D01*
X30906000Y-51861000D02*
X31414000Y-51861000D01*
X30764000Y-51719000D02*
X30906000Y-51861000D01*
X31735990Y-54814010D02*
X34907246Y-54814010D01*
X31751002Y-51523998D02*
X31414000Y-51861000D01*
X34907246Y-54814010D02*
X35344002Y-54377254D01*
X30861000Y-55689000D02*
X31735990Y-54814010D01*
X34674002Y-51523998D02*
X31751002Y-51523998D01*
X35344002Y-52193998D02*
X34674002Y-51523998D01*
X35344002Y-54377254D02*
X35344002Y-52193998D01*
X28164000Y-53751000D02*
X27813000Y-54102000D01*
X28164000Y-50741500D02*
X28164000Y-53751000D01*
X24765000Y-54102000D02*
X27813000Y-54102000D01*
X28814000Y-51992000D02*
X28814000Y-50741500D01*
X30861000Y-54039000D02*
X28814000Y-51992000D01*
X27887456Y-57150000D02*
X30226000Y-57150000D01*
X26937990Y-56200534D02*
X27887456Y-57150000D01*
X26937990Y-55303466D02*
X26937990Y-56200534D01*
X27289466Y-54951990D02*
X26937990Y-55303466D01*
X29948010Y-54951990D02*
X27289466Y-54951990D01*
X30861000Y-54039000D02*
X29948010Y-54951990D01*
X23889990Y-53653466D02*
X24584456Y-52959000D01*
X23889990Y-54876990D02*
X23889990Y-53653466D01*
X24765000Y-55752000D02*
X23889990Y-54876990D01*
X24584456Y-52959000D02*
X26670000Y-52959000D01*
X27514000Y-52115000D02*
X27514000Y-50741500D01*
X26670000Y-52959000D02*
X27514000Y-52115000D01*
X27514000Y-50741500D02*
X26903510Y-50741500D01*
X46315000Y-52487213D02*
X47024223Y-51777990D01*
X26903510Y-50741500D02*
X26416000Y-50253990D01*
X46315000Y-66080000D02*
X46315000Y-52487213D01*
X82957000Y-104928000D02*
X84074000Y-106045000D01*
X82957000Y-102938500D02*
X82957000Y-104928000D01*
X83607000Y-102938500D02*
X83607000Y-104221458D01*
X83607000Y-104221458D02*
X85090000Y-105704458D01*
X85090000Y-105704458D02*
X85090000Y-105791000D01*
X77378662Y-84710000D02*
X71755000Y-84710000D01*
X79538662Y-82550000D02*
X77378662Y-84710000D01*
X81514001Y-82550000D02*
X79538662Y-82550000D01*
X82296000Y-84836000D02*
X82296000Y-83331999D01*
X82296000Y-83331999D02*
X81514001Y-82550000D01*
X77470000Y-89662000D02*
X82296000Y-84836000D01*
X77470000Y-94488000D02*
X77470000Y-89662000D01*
X78867000Y-95885000D02*
X77470000Y-94488000D01*
X81773124Y-95885000D02*
X78867000Y-95885000D01*
X82307000Y-96418876D02*
X81773124Y-95885000D01*
X82307000Y-97213500D02*
X82307000Y-96418876D01*
X87730000Y-58775000D02*
X87630000Y-58675000D01*
X90805000Y-58775000D02*
X87730000Y-58775000D01*
D32*
X41315000Y-75225000D02*
X41400000Y-75310000D01*
X41315000Y-66080000D02*
X41315000Y-75225000D01*
D31*
X87630000Y-58675000D02*
X87630000Y-57404000D01*
X91948000Y-59918000D02*
X90805000Y-58775000D01*
X91948000Y-61976000D02*
X91948000Y-59918000D01*
X90678000Y-63246000D02*
X91948000Y-61976000D01*
X89648500Y-63246000D02*
X90678000Y-63246000D01*
X89580000Y-63177500D02*
X89648500Y-63246000D01*
D33*
X91377000Y-30289000D02*
X91440000Y-30226000D01*
X86995000Y-30289000D02*
X91377000Y-30289000D01*
D31*
X93091000Y-31877000D02*
X91440000Y-30226000D01*
X98971001Y-30568999D02*
X97663000Y-31877000D01*
X99825001Y-30568999D02*
X98971001Y-30568999D01*
X100950000Y-31693998D02*
X99825001Y-30568999D01*
X97663000Y-31877000D02*
X93091000Y-31877000D01*
X100950000Y-33342500D02*
X100950000Y-31693998D01*
D33*
X125344000Y-30094000D02*
X125095000Y-29845000D01*
X128905000Y-30094000D02*
X125344000Y-30094000D01*
D31*
X102250000Y-26187458D02*
X102250000Y-27617500D01*
X102748467Y-25688991D02*
X102250000Y-26187458D01*
X111959993Y-25688991D02*
X102748467Y-25688991D01*
X114905001Y-28633999D02*
X111959993Y-25688991D01*
X116587998Y-31369000D02*
X114905001Y-29686003D01*
X114905001Y-29686003D02*
X114905001Y-28633999D01*
X123571000Y-31369000D02*
X116587998Y-31369000D01*
X125095000Y-29845000D02*
X123571000Y-31369000D01*
X102900000Y-33342500D02*
X102900000Y-34510500D01*
X102900000Y-34510500D02*
X103060500Y-34671000D01*
X103060500Y-34671000D02*
X103441500Y-34671000D01*
X103550000Y-34562500D02*
X103550000Y-33342500D01*
X103441500Y-34671000D02*
X103550000Y-34562500D01*
X102362000Y-35048500D02*
X102900000Y-34510500D01*
X102362000Y-35052000D02*
X102362000Y-35048500D01*
X101981000Y-35052000D02*
X102362000Y-35052000D01*
X101219000Y-35814000D02*
X101981000Y-35052000D01*
X98256996Y-35814000D02*
X101219000Y-35814000D01*
X95208996Y-32766000D02*
X98256996Y-35814000D01*
X86995000Y-32766000D02*
X95208996Y-32766000D01*
X99650000Y-26461000D02*
X99650000Y-27617500D01*
X100203000Y-26352500D02*
X99758500Y-26352500D01*
X100300000Y-26449500D02*
X100203000Y-26352500D01*
X99758500Y-26352500D02*
X99650000Y-26461000D01*
X109093000Y-30480000D02*
X101536500Y-30480000D01*
X101536500Y-30480000D02*
X100300000Y-29243500D01*
X109601000Y-30988000D02*
X109093000Y-30480000D01*
X109601000Y-33274000D02*
X109601000Y-30988000D01*
X110362000Y-34035000D02*
X109601000Y-33274000D01*
X100300000Y-29243500D02*
X100300000Y-26449500D01*
X111125000Y-34035000D02*
X110362000Y-34035000D01*
X81657000Y-103509000D02*
X81657000Y-102938500D01*
X81153000Y-104013000D02*
X81657000Y-103509000D01*
X76327000Y-104013000D02*
X81153000Y-104013000D01*
X69850000Y-110490000D02*
X76327000Y-104013000D01*
X81441989Y-104613011D02*
X82307000Y-103748000D01*
X82307000Y-103748000D02*
X82307000Y-102938500D01*
X76996989Y-104613011D02*
X81441989Y-104613011D01*
X74930000Y-106680000D02*
X76996989Y-104613011D01*
X74930000Y-110490000D02*
X74930000Y-106680000D01*
X108685728Y-89154000D02*
X123571000Y-89154000D01*
X96937591Y-100902137D02*
X108685728Y-89154000D01*
X85557000Y-102938500D02*
X85557000Y-101945334D01*
X85557000Y-101945334D02*
X86600197Y-100902137D01*
X86600197Y-100902137D02*
X96937591Y-100902137D01*
X123571000Y-89154000D02*
X125095000Y-87630000D01*
X86233000Y-107696000D02*
X86487000Y-107950000D01*
X86233000Y-105410000D02*
X86233000Y-107696000D01*
X85557000Y-104734000D02*
X86233000Y-105410000D01*
X85557000Y-102938500D02*
X85557000Y-104734000D01*
X89432086Y-102616000D02*
X88605542Y-102616000D01*
X92161000Y-105344914D02*
X89432086Y-102616000D01*
X92161000Y-106562000D02*
X92161000Y-105344914D01*
X86207000Y-102143876D02*
X86207000Y-102938500D01*
X86549886Y-101800990D02*
X86207000Y-102143876D01*
X87814114Y-101800990D02*
X86549886Y-101800990D01*
X88107010Y-102093886D02*
X87814114Y-101800990D01*
X88107010Y-102117468D02*
X88107010Y-102093886D01*
X88605542Y-102616000D02*
X88107010Y-102117468D01*
X86857000Y-103733124D02*
X86857000Y-102938500D01*
X89195012Y-104076010D02*
X87199886Y-104076010D01*
X90861000Y-105741998D02*
X89195012Y-104076010D01*
X87199886Y-104076010D02*
X86857000Y-103733124D01*
X90861000Y-106562000D02*
X90861000Y-105741998D01*
X91511000Y-105543456D02*
X91511000Y-106562000D01*
X89345544Y-103378000D02*
X91511000Y-105543456D01*
X88079500Y-102938500D02*
X88519000Y-103378000D01*
X88519000Y-103378000D02*
X89345544Y-103378000D01*
X87507000Y-102938500D02*
X88079500Y-102938500D01*
X88519000Y-95250000D02*
X91821000Y-95250000D01*
X93573000Y-93498000D02*
X94742000Y-93498000D01*
X87503000Y-96266000D02*
X88519000Y-95250000D01*
X87503000Y-97028000D02*
X87503000Y-96266000D01*
X91821000Y-95250000D02*
X93573000Y-93498000D01*
X87507000Y-97032000D02*
X87503000Y-97028000D01*
X87507000Y-97213500D02*
X87507000Y-97032000D01*
X125095000Y-82382543D02*
X125095000Y-66040000D01*
X119147553Y-88329990D02*
X125095000Y-82382543D01*
X108520010Y-88329990D02*
X119147553Y-88329990D01*
X103352000Y-93498000D02*
X108520010Y-88329990D01*
X94742000Y-93498000D02*
X103352000Y-93498000D01*
X86857000Y-97213500D02*
X86857000Y-95642000D01*
X86857000Y-95642000D02*
X88011000Y-94488000D01*
X88011000Y-94488000D02*
X89789000Y-94488000D01*
X90805000Y-93472000D02*
X91694000Y-93472000D01*
X89789000Y-94488000D02*
X90805000Y-93472000D01*
X125095000Y-58026015D02*
X125095000Y-44450000D01*
X121024020Y-62096995D02*
X125095000Y-58026015D01*
X121024020Y-67430020D02*
X121024020Y-62096995D01*
X122682000Y-69088000D02*
X121024020Y-67430020D01*
X122682000Y-83693000D02*
X122682000Y-69088000D01*
X118745000Y-87630000D02*
X122682000Y-83693000D01*
X93684998Y-90551000D02*
X105283000Y-90551000D01*
X108204000Y-87630000D02*
X118745000Y-87630000D01*
X92887988Y-91348010D02*
X93684998Y-90551000D01*
X105283000Y-90551000D02*
X108204000Y-87630000D01*
X92887988Y-92278012D02*
X92887988Y-91348010D01*
X91694000Y-93472000D02*
X92887988Y-92278012D01*
X86207000Y-97213500D02*
X86207000Y-95022000D01*
X87757000Y-93472000D02*
X88646000Y-93472000D01*
X86207000Y-95022000D02*
X87757000Y-93472000D01*
X89281000Y-93472000D02*
X88646000Y-93472000D01*
X90170000Y-92583000D02*
X89281000Y-93472000D01*
X90170000Y-90297000D02*
X90170000Y-92583000D01*
X91059000Y-89408000D02*
X90170000Y-90297000D01*
X96647000Y-89408000D02*
X91059000Y-89408000D01*
X98425000Y-87630000D02*
X96647000Y-89408000D01*
X85557000Y-93685000D02*
X85557000Y-97213500D01*
X85344000Y-93472000D02*
X85557000Y-93685000D01*
D34*
X86663991Y-92152009D02*
X85344000Y-93472000D01*
X86663991Y-89993009D02*
X86663991Y-92152009D01*
X96801001Y-79855999D02*
X86663991Y-89993009D01*
X98985003Y-79855999D02*
X96801001Y-79855999D01*
X100345010Y-78495992D02*
X98985003Y-79855999D01*
X100345010Y-67960010D02*
X100345010Y-78495992D01*
X98425000Y-66040000D02*
X100345010Y-67960010D01*
D31*
X84907000Y-97213500D02*
X84907000Y-94940000D01*
X83439000Y-93472000D02*
X82042000Y-93472000D01*
X84907000Y-94940000D02*
X83439000Y-93472000D01*
D34*
X82967010Y-92546990D02*
X82967010Y-91911990D01*
X82042000Y-93472000D02*
X82967010Y-92546990D01*
X82967010Y-91911990D02*
X86995000Y-87884000D01*
D31*
X82804000Y-95123000D02*
X81788000Y-95123000D01*
X80137000Y-93472000D02*
X78740000Y-93472000D01*
X81788000Y-95123000D02*
X80137000Y-93472000D01*
X83607000Y-95926000D02*
X82804000Y-95123000D01*
X83607000Y-97213500D02*
X83607000Y-95926000D01*
X75438000Y-93726000D02*
X75438000Y-93472000D01*
X78925500Y-97213500D02*
X75438000Y-93726000D01*
X81657000Y-97213500D02*
X78925500Y-97213500D01*
D33*
X49530000Y-47434500D02*
X49530000Y-48642000D01*
D31*
X50292000Y-74294000D02*
X49530000Y-73532000D01*
X50292000Y-75184000D02*
X50292000Y-74294000D01*
X59054000Y-58167000D02*
X58928000Y-58293000D01*
X61976000Y-58167000D02*
X59054000Y-58167000D01*
X58859500Y-58224500D02*
X58928000Y-58293000D01*
X55925000Y-58224500D02*
X58859500Y-58224500D01*
X57964544Y-46355000D02*
X54865000Y-46355000D01*
X59803010Y-51983554D02*
X59803010Y-48193466D01*
X61706466Y-53887010D02*
X59803010Y-51983554D01*
X62753534Y-53887010D02*
X61706466Y-53887010D01*
X58928000Y-58293000D02*
X58052990Y-59168010D01*
X61100990Y-62724010D02*
X61100990Y-62543466D01*
X61100990Y-62543466D02*
X61452466Y-62191990D01*
X59803010Y-48193466D02*
X57964544Y-46355000D01*
X58052990Y-59168010D02*
X58052990Y-63440534D01*
X58052990Y-63440534D02*
X58404466Y-63792010D01*
X58404466Y-63792010D02*
X59451534Y-63792010D01*
X59451534Y-63792010D02*
X59803010Y-63440534D01*
X59803010Y-63440534D02*
X60384466Y-63440534D01*
X63451020Y-60373980D02*
X63451020Y-54584496D01*
X60384466Y-63440534D02*
X61100990Y-62724010D01*
X63451020Y-54584496D02*
X62753534Y-53887010D01*
X61452466Y-62191990D02*
X61633010Y-62191990D01*
X54865000Y-46355000D02*
X52578000Y-48642000D01*
X61633010Y-62191990D02*
X63451020Y-60373980D01*
X54000490Y-49491990D02*
X54076510Y-49568010D01*
X47282010Y-49491990D02*
X54000490Y-49491990D01*
X45339000Y-51435000D02*
X47282010Y-49491990D01*
X45339000Y-64262000D02*
X45339000Y-51435000D01*
X43815000Y-65786000D02*
X45339000Y-64262000D01*
X58001990Y-49568010D02*
X58928000Y-48642000D01*
X54076510Y-49568010D02*
X58001990Y-49568010D01*
X43815000Y-66080000D02*
X43815000Y-65786000D01*
D33*
X130175000Y-26924000D02*
X128905000Y-28194000D01*
X130175000Y-17780000D02*
X130175000Y-26924000D01*
X131064000Y-28194000D02*
X132715000Y-29845000D01*
X128905000Y-28194000D02*
X131064000Y-28194000D01*
X94615000Y-25151000D02*
X91440000Y-28326000D01*
X94615000Y-17780000D02*
X94615000Y-25151000D01*
X91562000Y-28448000D02*
X91440000Y-28326000D01*
X93980000Y-28448000D02*
X91562000Y-28448000D01*
X95758000Y-30226000D02*
X93980000Y-28448000D01*
X95885000Y-30226000D02*
X95758000Y-30226000D01*
D31*
X88900000Y-62357000D02*
X88930000Y-62387000D01*
X88930000Y-62387000D02*
X88930000Y-63177500D01*
X88900000Y-60325000D02*
X88900000Y-62357000D01*
X90805000Y-60325000D02*
X88900000Y-60325000D01*
X88900000Y-60325000D02*
X84455000Y-60325000D01*
D33*
X111125000Y-32385000D02*
X113705000Y-29805000D01*
X113705000Y-29805000D02*
X113705000Y-29210000D01*
X117093000Y-28322000D02*
X116205000Y-29210000D01*
X120904000Y-28322000D02*
X117093000Y-28322000D01*
X116205000Y-27368500D02*
X116205000Y-29210000D01*
X112395000Y-23558500D02*
X116205000Y-27368500D01*
X112395000Y-17780000D02*
X112395000Y-23558500D01*
X81240000Y-30206000D02*
X81240000Y-29210000D01*
X85450000Y-34416000D02*
X81240000Y-30206000D01*
X86995000Y-34416000D02*
X85450000Y-34416000D01*
X76835000Y-27305000D02*
X78740000Y-29210000D01*
X76580000Y-26925000D02*
X76835000Y-26670000D01*
X76835000Y-26670000D02*
X76835000Y-27305000D01*
X73025000Y-26925000D02*
X76580000Y-26925000D01*
X76835000Y-17780000D02*
X76835000Y-26670000D01*
D31*
X84555000Y-55625000D02*
X84455000Y-55525000D01*
X90805000Y-55625000D02*
X84555000Y-55625000D01*
X83312000Y-56668000D02*
X84455000Y-55525000D01*
X84074000Y-61468000D02*
X83312000Y-60706000D01*
X85415124Y-61468000D02*
X84074000Y-61468000D01*
X83312000Y-60706000D02*
X83312000Y-56668000D01*
X86330000Y-62382876D02*
X85415124Y-61468000D01*
X86330000Y-63177500D02*
X86330000Y-62382876D01*
X61950000Y-59843000D02*
X61976000Y-59817000D01*
X58928000Y-59843000D02*
X61950000Y-59843000D01*
X58928000Y-62992000D02*
X58928000Y-59843000D01*
X55617886Y-57086990D02*
X55275000Y-57429876D01*
X62219534Y-57086990D02*
X55617886Y-57086990D01*
X62851010Y-57718466D02*
X62219534Y-57086990D01*
X55275000Y-57429876D02*
X55275000Y-58224500D01*
X62851010Y-59416990D02*
X62851010Y-57718466D01*
X62451000Y-59817000D02*
X62851010Y-59416990D01*
X61976000Y-59817000D02*
X62451000Y-59817000D01*
X52579000Y-54737000D02*
X52578000Y-54736000D01*
X52675000Y-54833000D02*
X52578000Y-54736000D01*
X52675000Y-58224500D02*
X52675000Y-54833000D01*
X49531000Y-54736000D02*
X49530000Y-54737000D01*
X52578000Y-54736000D02*
X49531000Y-54736000D01*
X54229000Y-54610000D02*
X54356000Y-54737000D01*
X54356000Y-54737000D02*
X52579000Y-54737000D01*
X54229000Y-50292000D02*
X54229000Y-54610000D01*
X55880000Y-54737000D02*
X54356000Y-54737000D01*
X49530000Y-50292000D02*
X54229000Y-50292000D01*
X54229000Y-50292000D02*
X58928000Y-50292000D01*
X52675000Y-67340000D02*
X52578000Y-67437000D01*
X52675000Y-63949500D02*
X52675000Y-67340000D01*
X55880000Y-71882000D02*
X61976000Y-71882000D01*
X49530000Y-71882000D02*
X50330010Y-71081990D01*
X54102000Y-70993000D02*
X54013010Y-71081990D01*
X54102000Y-67437000D02*
X54102000Y-70993000D01*
X50330010Y-71081990D02*
X54013010Y-71081990D01*
X55880000Y-67437000D02*
X54102000Y-67437000D01*
X54102000Y-67437000D02*
X49530000Y-67437000D01*
X54604990Y-71081990D02*
X55405000Y-71882000D01*
X54013010Y-71081990D02*
X54604990Y-71081990D01*
X55405000Y-71882000D02*
X55880000Y-71882000D01*
X81923011Y-112144011D02*
X79629000Y-109850000D01*
X91178989Y-112144011D02*
X81923011Y-112144011D01*
X91511000Y-111812000D02*
X91178989Y-112144011D01*
X91511000Y-110862000D02*
X91511000Y-111812000D01*
D34*
X58421000Y-73532000D02*
X57277000Y-74676000D01*
X58928000Y-73532000D02*
X58421000Y-73532000D01*
X79629000Y-111506000D02*
X79629000Y-109850000D01*
D31*
X84879001Y-111544001D02*
X83185000Y-109850000D01*
X89832999Y-111544001D02*
X84879001Y-111544001D01*
X90211000Y-111166000D02*
X89832999Y-111544001D01*
X90211000Y-110862000D02*
X90211000Y-111166000D01*
D34*
X56195000Y-48768000D02*
X57277000Y-47686000D01*
X55880000Y-48768000D02*
X56195000Y-48768000D01*
X83185000Y-111252000D02*
X83185000Y-109850000D01*
D31*
X85680000Y-70276000D02*
X85090000Y-70866000D01*
X85680000Y-68902500D02*
X85680000Y-70276000D01*
D33*
X35053000Y-102742000D02*
X33655000Y-104140000D01*
X39243000Y-102742000D02*
X35053000Y-102742000D01*
D31*
X86330000Y-71404000D02*
X86106000Y-71628000D01*
X86330000Y-68902500D02*
X86330000Y-71404000D01*
X89580000Y-69768000D02*
X90297000Y-70485000D01*
X89580000Y-68902500D02*
X89580000Y-69768000D01*
D33*
X106298000Y-103123000D02*
X107315000Y-104140000D01*
X104648000Y-103123000D02*
X106298000Y-103123000D01*
D34*
X89211686Y-70681314D02*
X89154000Y-70623628D01*
D31*
X88930000Y-70399628D02*
X89211686Y-70681314D01*
X88930000Y-68902500D02*
X88930000Y-70399628D01*
D33*
X37084000Y-25670656D02*
X37084000Y-14351000D01*
X27822010Y-34932646D02*
X37084000Y-25670656D01*
X27822010Y-36946990D02*
X27822010Y-34932646D01*
X37084000Y-14351000D02*
X40005000Y-11430000D01*
X26797000Y-37972000D02*
X27822010Y-36946990D01*
X17399000Y-16256000D02*
X22225000Y-11430000D01*
X17399000Y-36448000D02*
X17399000Y-16256000D01*
X15367000Y-38480000D02*
X17399000Y-36448000D01*
D31*
X111181000Y-37521000D02*
X110490000Y-36830000D01*
X111181000Y-38908500D02*
X111181000Y-37521000D01*
D33*
X38735000Y-110490000D02*
X33655000Y-110490000D01*
X42799000Y-106426000D02*
X38735000Y-110490000D01*
D34*
X90551000Y-73660000D02*
X90170000Y-73279000D01*
X90551000Y-74613000D02*
X90551000Y-73660000D01*
D31*
X87016010Y-48916010D02*
X89154000Y-51054000D01*
X87016010Y-43427990D02*
X87016010Y-48916010D01*
X87066000Y-43378000D02*
X87016010Y-43427990D01*
X87066000Y-43133500D02*
X87066000Y-43378000D01*
D33*
X101219000Y-106997000D02*
X101282000Y-106997000D01*
X104775000Y-110490000D02*
X107315000Y-110490000D01*
X101282000Y-106997000D02*
X104775000Y-110490000D01*
D31*
X111831000Y-45649000D02*
X111760000Y-45720000D01*
X111831000Y-43133500D02*
X111831000Y-45649000D01*
D34*
X108648000Y-74613000D02*
X108765001Y-74495999D01*
X101473000Y-74613000D02*
X108648000Y-74613000D01*
D33*
X25567000Y-36322000D02*
X22225000Y-32980000D01*
X26797000Y-36322000D02*
X25567000Y-36322000D01*
X11557000Y-33020000D02*
X6985000Y-33020000D01*
X15367000Y-36830000D02*
X11557000Y-33020000D01*
D31*
X50508219Y-76546011D02*
X43815000Y-69852792D01*
X57558987Y-76546011D02*
X50508219Y-76546011D01*
X59154999Y-74949999D02*
X57558987Y-76546011D01*
X60558001Y-74949999D02*
X59154999Y-74949999D01*
X43815000Y-69852792D02*
X43815000Y-68580000D01*
X61976000Y-73532000D02*
X60558001Y-74949999D01*
D32*
X74170000Y-36830000D02*
X74040000Y-36830000D01*
X74040000Y-36830000D02*
X69340000Y-32130000D01*
D31*
X110580990Y-38858510D02*
X110531000Y-38908500D01*
X108800999Y-36283999D02*
X110580990Y-38063990D01*
X105879999Y-36283999D02*
X108800999Y-36283999D01*
X104648000Y-32893000D02*
X104648000Y-35052000D01*
X103886000Y-32131000D02*
X104648000Y-32893000D01*
X110580990Y-38063990D02*
X110580990Y-38858510D01*
X102743000Y-32131000D02*
X103886000Y-32131000D01*
X102250000Y-32624000D02*
X102743000Y-32131000D01*
X104648000Y-35052000D02*
X105879999Y-36283999D01*
X102250000Y-33596500D02*
X102250000Y-32624000D01*
X87870010Y-33967466D02*
X87870010Y-35151988D01*
X86471466Y-33566010D02*
X87468554Y-33566010D01*
X85598000Y-32692544D02*
X86471466Y-33566010D01*
X100900010Y-27240010D02*
X100900009Y-26200967D01*
X97282000Y-27980458D02*
X97282000Y-30480000D01*
X87468554Y-33566010D02*
X87870010Y-33967466D01*
X100950000Y-27290000D02*
X100900010Y-27240010D01*
X100900009Y-26200967D02*
X100451532Y-25752490D01*
X100950000Y-27871500D02*
X100950000Y-27290000D01*
X89637010Y-29488990D02*
X86471466Y-29488990D01*
X100451532Y-25752490D02*
X99509967Y-25752491D01*
X85725000Y-38867500D02*
X85766000Y-38908500D01*
X85725000Y-37296998D02*
X85725000Y-38867500D01*
X99509967Y-25752491D02*
X97282000Y-27980458D01*
X89800010Y-29325990D02*
X89637010Y-29488990D01*
X97282000Y-30480000D02*
X96647000Y-31115000D01*
X87870010Y-35151988D02*
X85725000Y-37296998D01*
X86471466Y-29488990D02*
X85598000Y-30362456D01*
X94234000Y-31115000D02*
X92444990Y-29325990D01*
X85598000Y-30362456D02*
X85598000Y-32692544D01*
X96647000Y-31115000D02*
X94234000Y-31115000D01*
X92444990Y-29325990D02*
X89800010Y-29325990D01*
X28829000Y-65278000D02*
X29845000Y-66294000D01*
D33*
X37591000Y-107950000D02*
X33655000Y-107950000D01*
X42799000Y-102742000D02*
X37591000Y-107950000D01*
X102489000Y-103124000D02*
X107315000Y-107950000D01*
X101219000Y-103124000D02*
X102489000Y-103124000D01*
D31*
X32184544Y-79756000D02*
X34163000Y-79756000D01*
X30495000Y-78066456D02*
X32184544Y-79756000D01*
X30495000Y-76776500D02*
X30495000Y-78066456D01*
D33*
X43815000Y-46950000D02*
X46315000Y-46950000D01*
D31*
X30495000Y-76776500D02*
X30495000Y-75981876D01*
X30837886Y-75638990D02*
X34957986Y-75638990D01*
X34957986Y-75638990D02*
X35810998Y-76492002D01*
X30495000Y-75981876D02*
X30837886Y-75638990D01*
X38519002Y-67602002D02*
X37304990Y-66387990D01*
X35810998Y-76492002D02*
X36960002Y-76492002D01*
X36960002Y-76492002D02*
X38519002Y-74933002D01*
X38519002Y-74933002D02*
X38519002Y-67602002D01*
X37304990Y-66387990D02*
X37304990Y-53460010D01*
X37304990Y-53460010D02*
X42915001Y-47849999D01*
X42915001Y-47849999D02*
X43815000Y-46950000D01*
X29845000Y-67944000D02*
X26797000Y-67944000D01*
X28545000Y-67944000D02*
X26797000Y-67944000D01*
X28545000Y-71051500D02*
X28545000Y-67944000D01*
X23749000Y-66294000D02*
X26797000Y-66294000D01*
X27597010Y-67094010D02*
X26797000Y-66294000D01*
X30318554Y-67094010D02*
X27597010Y-67094010D01*
X30720010Y-67495466D02*
X30318554Y-67094010D01*
X30720010Y-68392534D02*
X30720010Y-67495466D01*
X30544990Y-68567554D02*
X30720010Y-68392534D01*
X30544990Y-70928010D02*
X30544990Y-68567554D01*
X30495000Y-70978000D02*
X30544990Y-70928010D01*
X30495000Y-71051500D02*
X30495000Y-70978000D01*
X23750000Y-67945000D02*
X23749000Y-67944000D01*
X25146000Y-67945000D02*
X23750000Y-67945000D01*
X26273466Y-69072466D02*
X25146000Y-67945000D01*
X27109500Y-71051500D02*
X26273466Y-70215466D01*
X26273466Y-70215466D02*
X26273466Y-69072466D01*
X27895000Y-71051500D02*
X27109500Y-71051500D01*
X33977500Y-71051500D02*
X37084000Y-67945000D01*
X31795000Y-71051500D02*
X33977500Y-71051500D01*
X37083000Y-67944000D02*
X37084000Y-67945000D01*
X35941000Y-67944000D02*
X37083000Y-67944000D01*
D33*
X36131500Y-66103500D02*
X35941000Y-66294000D01*
X36131500Y-52133500D02*
X36131500Y-66103500D01*
X41315000Y-46950000D02*
X36131500Y-52133500D01*
D31*
X31145000Y-69692000D02*
X32893000Y-67944000D01*
X31145000Y-71051500D02*
X31145000Y-69692000D01*
D32*
X40045000Y-32980000D02*
X42545000Y-30480000D01*
X37545000Y-32980000D02*
X40045000Y-32980000D01*
D31*
X32893000Y-67944000D02*
X33528000Y-68579000D01*
X33528000Y-68579000D02*
X33528000Y-68834000D01*
X27813000Y-81406000D02*
X30861000Y-81406000D01*
X31145000Y-77867914D02*
X31145000Y-76776500D01*
X31795000Y-78060000D02*
X31566043Y-78288957D01*
X31795000Y-76776500D02*
X31795000Y-78060000D01*
X31566043Y-78288957D02*
X31145000Y-77867914D01*
X32133076Y-78855990D02*
X32017086Y-78740000D01*
X32017086Y-78740000D02*
X31566043Y-78288957D01*
X34907246Y-78855990D02*
X32133076Y-78855990D01*
X35288010Y-79236754D02*
X34907246Y-78855990D01*
X35288010Y-80275246D02*
X35288010Y-79236754D01*
X34807266Y-80755990D02*
X35288010Y-80275246D01*
X31511010Y-80755990D02*
X34807266Y-80755990D01*
X30861000Y-81406000D02*
X31511010Y-80755990D01*
X28545000Y-79024000D02*
X27813000Y-79756000D01*
X28545000Y-76776500D02*
X28545000Y-79024000D01*
X26606500Y-79756000D02*
X27813000Y-79756000D01*
X24956500Y-81406000D02*
X26606500Y-79756000D01*
X24765000Y-81406000D02*
X24956500Y-81406000D01*
X29195000Y-78090000D02*
X29195000Y-76776500D01*
X30861000Y-79756000D02*
X29195000Y-78090000D01*
X30861000Y-79756000D02*
X30060990Y-80556010D01*
X28941457Y-83858001D02*
X37551999Y-83858001D01*
X30060990Y-80556010D02*
X27339446Y-80556010D01*
X27339446Y-80556010D02*
X26937990Y-80957466D01*
X26937990Y-80957466D02*
X26937990Y-81854534D01*
X26937990Y-81854534D02*
X28941457Y-83858001D01*
X37551999Y-83858001D02*
X39114000Y-82296000D01*
X39114000Y-82296000D02*
X41400000Y-80010000D01*
X24765000Y-79756000D02*
X25757958Y-79756000D01*
X25757958Y-79756000D02*
X27895000Y-77618958D01*
X27895000Y-77618958D02*
X27895000Y-76776500D01*
X27895000Y-76776500D02*
X27895000Y-73615000D01*
X25400000Y-71120000D02*
X25400000Y-69469000D01*
X27895000Y-73615000D02*
X25400000Y-71120000D01*
X90805000Y-52705000D02*
X90805000Y-53975000D01*
X58928000Y-67437000D02*
X61976000Y-67437000D01*
X53325000Y-63949500D02*
X53325000Y-65390000D01*
X53325000Y-65390000D02*
X54483000Y-66548000D01*
X56314544Y-66548000D02*
X57076544Y-67310000D01*
X54483000Y-66548000D02*
X56314544Y-66548000D01*
X58801000Y-67310000D02*
X58928000Y-67437000D01*
X57076544Y-67310000D02*
X58801000Y-67310000D01*
X53467000Y-74422000D02*
X54229000Y-74422000D01*
X52578000Y-73533000D02*
X53467000Y-74422000D01*
X52578000Y-73532000D02*
X52578000Y-73533000D01*
X53468000Y-74422000D02*
X54229000Y-74422000D01*
X52578000Y-73532000D02*
X53468000Y-74422000D01*
X62851010Y-65517010D02*
X61976000Y-64642000D01*
X61175990Y-72682010D02*
X62499534Y-72682010D01*
X59508012Y-74349988D02*
X61175990Y-72682010D01*
X62851010Y-72330534D02*
X62851010Y-65517010D01*
X62499534Y-72682010D02*
X62851010Y-72330534D01*
X58906467Y-74349988D02*
X59508012Y-74349988D01*
X57691455Y-75565000D02*
X58906467Y-74349988D01*
X55372000Y-75565000D02*
X57691455Y-75565000D01*
X54229000Y-74422000D02*
X55372000Y-75565000D01*
X62229000Y-54736000D02*
X62230000Y-54737000D01*
X58928000Y-54736000D02*
X62229000Y-54736000D01*
X58800000Y-54864000D02*
X58928000Y-54736000D01*
X56060544Y-55880000D02*
X57076544Y-54864000D01*
X54229000Y-55880000D02*
X56060544Y-55880000D01*
X53325000Y-56784000D02*
X54229000Y-55880000D01*
X57076544Y-54864000D02*
X58800000Y-54864000D01*
X53325000Y-58224500D02*
X53325000Y-56784000D01*
X58928000Y-64642000D02*
X60326000Y-64642000D01*
X60326000Y-64642000D02*
X61976000Y-62992000D01*
X54230000Y-71882000D02*
X55880000Y-73532000D01*
X52578000Y-71882000D02*
X54230000Y-71882000D01*
X55275000Y-63949500D02*
X55275000Y-65054000D01*
X55275000Y-65054000D02*
X55499000Y-65278000D01*
X55499000Y-65278000D02*
X55753000Y-65278000D01*
X55925000Y-65106000D02*
X55925000Y-63949500D01*
X55753000Y-65278000D02*
X55925000Y-65106000D01*
D34*
X87376000Y-78756000D02*
X87376000Y-76263000D01*
X86042000Y-76263000D02*
X87376000Y-76263000D01*
X84201000Y-76263000D02*
X86042000Y-76263000D01*
D31*
X86042000Y-74105000D02*
X86042000Y-76263000D01*
X86980000Y-73167000D02*
X86042000Y-74105000D01*
X86980000Y-68902500D02*
X86980000Y-73167000D01*
D34*
X88326000Y-78488000D02*
X90551000Y-76263000D01*
X88326000Y-80756000D02*
X88326000Y-78488000D01*
X98425000Y-78756000D02*
X98425000Y-76263000D01*
X95377000Y-76263000D02*
X98425000Y-76263000D01*
D31*
X88280000Y-70881000D02*
X88280000Y-68902500D01*
X88900000Y-71501000D02*
X88280000Y-70881000D01*
X97663000Y-71501000D02*
X88900000Y-71501000D01*
X99695000Y-73533000D02*
X97663000Y-71501000D01*
X99695000Y-74993000D02*
X99695000Y-73533000D01*
X98425000Y-76263000D02*
X99695000Y-74993000D01*
D34*
X101473000Y-78359000D02*
X101473000Y-76263000D01*
X99375000Y-80457000D02*
X101473000Y-78359000D01*
X99375000Y-80756000D02*
X99375000Y-80457000D01*
M02*
