G04 #@! TF.GenerationSoftware,KiCad,Pcbnew,5.1.10-88a1d61d58~90~ubuntu20.04.1*
G04 #@! TF.CreationDate,2021-08-08T15:21:02-04:00*
G04 #@! TF.ProjectId,stereo_whooshy_sound_main_pcb,73746572-656f-45f7-9768-6f6f7368795f,0*
G04 #@! TF.SameCoordinates,Original*
G04 #@! TF.FileFunction,Copper,L3,Inr*
G04 #@! TF.FilePolarity,Positive*
%FSLAX46Y46*%
G04 Gerber Fmt 4.6, Leading zero omitted, Abs format (unit mm)*
G04 Created by KiCad (PCBNEW 5.1.10-88a1d61d58~90~ubuntu20.04.1) date 2021-08-08 15:21:02*
%MOMM*%
%LPD*%
G01*
G04 APERTURE LIST*
G04 #@! TA.AperFunction,ComponentPad*
%ADD10C,3.000000*%
G04 #@! TD*
G04 #@! TA.AperFunction,ComponentPad*
%ADD11C,2.000000*%
G04 #@! TD*
G04 #@! TA.AperFunction,ComponentPad*
%ADD12O,2.000000X3.500000*%
G04 #@! TD*
G04 #@! TA.AperFunction,ComponentPad*
%ADD13O,3.300000X2.000000*%
G04 #@! TD*
G04 #@! TA.AperFunction,ComponentPad*
%ADD14R,4.000000X2.000000*%
G04 #@! TD*
G04 #@! TA.AperFunction,ComponentPad*
%ADD15O,1.700000X1.700000*%
G04 #@! TD*
G04 #@! TA.AperFunction,ComponentPad*
%ADD16R,1.700000X1.700000*%
G04 #@! TD*
G04 #@! TA.AperFunction,ComponentPad*
%ADD17C,1.800000*%
G04 #@! TD*
G04 #@! TA.AperFunction,ComponentPad*
%ADD18R,1.800000X1.800000*%
G04 #@! TD*
G04 #@! TA.AperFunction,ComponentPad*
%ADD19C,1.600000*%
G04 #@! TD*
G04 #@! TA.AperFunction,ComponentPad*
%ADD20O,2.720000X3.240000*%
G04 #@! TD*
G04 #@! TA.AperFunction,ComponentPad*
%ADD21C,2.500000*%
G04 #@! TD*
G04 #@! TA.AperFunction,ViaPad*
%ADD22C,0.800000*%
G04 #@! TD*
G04 #@! TA.AperFunction,Conductor*
%ADD23C,1.000000*%
G04 #@! TD*
G04 #@! TA.AperFunction,Conductor*
%ADD24C,0.500000*%
G04 #@! TD*
G04 #@! TA.AperFunction,Conductor*
%ADD25C,0.700000*%
G04 #@! TD*
G04 #@! TA.AperFunction,Conductor*
%ADD26C,0.400000*%
G04 #@! TD*
G04 APERTURE END LIST*
D10*
X10795000Y-11430000D03*
X22225000Y-11430000D03*
X10795000Y-17780000D03*
X10795000Y-5080000D03*
X22225000Y-5080000D03*
X22225000Y-17780000D03*
X28575000Y-11430000D03*
X40005000Y-11430000D03*
X28575000Y-17780000D03*
X28575000Y-5080000D03*
X40005000Y-5080000D03*
X40005000Y-17780000D03*
X65405000Y-11430000D03*
X76835000Y-11430000D03*
X65405000Y-17780000D03*
X65405000Y-5080000D03*
X76835000Y-5080000D03*
X76835000Y-17780000D03*
X83185000Y-11430000D03*
X94615000Y-11430000D03*
X83185000Y-17780000D03*
X83185000Y-5080000D03*
X94615000Y-5080000D03*
X94615000Y-17780000D03*
X100965000Y-11430000D03*
X112395000Y-11430000D03*
X100965000Y-17780000D03*
X100965000Y-5080000D03*
X112395000Y-5080000D03*
X112395000Y-17780000D03*
X118745000Y-11430000D03*
X130175000Y-11430000D03*
X118745000Y-17780000D03*
X118745000Y-5080000D03*
X130175000Y-5080000D03*
X130175000Y-17780000D03*
D11*
X42545000Y-30480000D03*
X37545000Y-32980000D03*
X37545000Y-27980000D03*
X57785000Y-30480000D03*
X52785000Y-32980000D03*
X52785000Y-27980000D03*
X11985000Y-30520000D03*
X6985000Y-33020000D03*
X6985000Y-28020000D03*
X27225000Y-30480000D03*
X22225000Y-32980000D03*
X22225000Y-27980000D03*
D12*
X57205000Y-5175000D03*
X48205000Y-5175000D03*
D13*
X52705000Y-6175000D03*
D14*
X52705000Y-12175000D03*
D15*
X107315000Y-110490000D03*
D16*
X107315000Y-107950000D03*
D15*
X33655000Y-110490000D03*
D16*
X33655000Y-107950000D03*
D15*
X74930000Y-110490000D03*
X72390000Y-110490000D03*
X69850000Y-110490000D03*
D16*
X67310000Y-110490000D03*
D17*
X107315000Y-101600000D03*
D18*
X107315000Y-104140000D03*
D17*
X33655000Y-101600000D03*
D18*
X33655000Y-104140000D03*
D19*
X81240000Y-29210000D03*
X78740000Y-29210000D03*
X113705000Y-29210000D03*
X116205000Y-29210000D03*
D18*
X41315000Y-66080000D03*
D17*
X43815000Y-66080000D03*
X46315000Y-66080000D03*
D20*
X48565000Y-58580000D03*
X39065000Y-58580000D03*
D17*
X46315000Y-68580000D03*
X43815000Y-68580000D03*
X41315000Y-68580000D03*
D18*
X41315000Y-44450000D03*
D17*
X43815000Y-44450000D03*
X46315000Y-44450000D03*
D20*
X48565000Y-36950000D03*
X39065000Y-36950000D03*
D17*
X46315000Y-46950000D03*
X43815000Y-46950000D03*
X41315000Y-46950000D03*
D18*
X122595000Y-87630000D03*
D17*
X125095000Y-87630000D03*
X127595000Y-87630000D03*
D20*
X129895000Y-80130000D03*
X120295000Y-80130000D03*
D18*
X122595000Y-66040000D03*
D17*
X125095000Y-66040000D03*
X127595000Y-66040000D03*
D20*
X129895000Y-58540000D03*
X120295000Y-58540000D03*
D18*
X122595000Y-44450000D03*
D17*
X125095000Y-44450000D03*
X127595000Y-44450000D03*
D20*
X129895000Y-36950000D03*
X120295000Y-36950000D03*
D18*
X95925000Y-87630000D03*
D17*
X98425000Y-87630000D03*
X100925000Y-87630000D03*
D20*
X103225000Y-80130000D03*
X93625000Y-80130000D03*
D18*
X95925000Y-66040000D03*
D17*
X98425000Y-66040000D03*
X100925000Y-66040000D03*
D20*
X103225000Y-58540000D03*
X93625000Y-58540000D03*
D18*
X95925000Y-44450000D03*
D17*
X98425000Y-44450000D03*
X100925000Y-44450000D03*
D20*
X103225000Y-36950000D03*
X93625000Y-36950000D03*
D18*
X13375000Y-87630000D03*
D17*
X15875000Y-87630000D03*
X18375000Y-87630000D03*
D20*
X20675000Y-80130000D03*
X11075000Y-80130000D03*
D18*
X13375000Y-66040000D03*
D17*
X15875000Y-66040000D03*
X18375000Y-66040000D03*
D20*
X20675000Y-58540000D03*
X11075000Y-58540000D03*
D18*
X13375000Y-44450000D03*
D17*
X15875000Y-44450000D03*
X18375000Y-44450000D03*
D20*
X20675000Y-36950000D03*
X11075000Y-36950000D03*
D21*
X46230000Y-84710000D03*
X46230000Y-80010000D03*
X46230000Y-75310000D03*
X41400000Y-84710000D03*
X41400000Y-80010000D03*
X41400000Y-75310000D03*
X71755000Y-84710000D03*
X71755000Y-80010000D03*
X71755000Y-75310000D03*
X71755000Y-63120000D03*
X71755000Y-58420000D03*
X71755000Y-53720000D03*
X74170000Y-41530000D03*
X74170000Y-36830000D03*
X74170000Y-32130000D03*
X69340000Y-41530000D03*
X69340000Y-36830000D03*
X69340000Y-32130000D03*
D15*
X6985000Y-83820000D03*
X6985000Y-81280000D03*
X6985000Y-78740000D03*
X6985000Y-76200000D03*
X6985000Y-73660000D03*
X6985000Y-71120000D03*
X6985000Y-68580000D03*
D16*
X6985000Y-66040000D03*
D15*
X6985000Y-45720000D03*
X6985000Y-43180000D03*
X6985000Y-40640000D03*
D16*
X6985000Y-38100000D03*
D15*
X60325000Y-83820000D03*
X60325000Y-81280000D03*
X60325000Y-78740000D03*
D16*
X60325000Y-76200000D03*
D15*
X60325000Y-45720000D03*
X60325000Y-43180000D03*
X60325000Y-40640000D03*
D16*
X60325000Y-38100000D03*
D15*
X80645000Y-83820000D03*
X80645000Y-81280000D03*
X80645000Y-78740000D03*
X80645000Y-76200000D03*
X80645000Y-73660000D03*
X80645000Y-71120000D03*
X80645000Y-68580000D03*
D16*
X80645000Y-66040000D03*
D15*
X80645000Y-45720000D03*
X80645000Y-43180000D03*
X80645000Y-40640000D03*
D16*
X80645000Y-38100000D03*
D15*
X133985000Y-83820000D03*
X133985000Y-81280000D03*
X133985000Y-78740000D03*
D16*
X133985000Y-76200000D03*
D15*
X133985000Y-45720000D03*
X133985000Y-43180000D03*
X133985000Y-40640000D03*
D16*
X133985000Y-38100000D03*
D22*
X73660000Y-90043000D03*
X75057000Y-90043000D03*
X32893000Y-38798500D03*
X32893000Y-64770000D03*
X34163000Y-83058000D03*
X49847500Y-64135000D03*
X61976000Y-70294500D03*
X54800500Y-96266000D03*
X60325000Y-100203000D03*
X58864500Y-100266500D03*
X44196000Y-104775000D03*
X87693500Y-61468000D03*
X125095000Y-27114500D03*
X132715000Y-26924000D03*
X122364500Y-30162500D03*
X49784000Y-65151000D03*
X29466578Y-68967111D03*
X34163000Y-56934010D03*
X28829000Y-46459977D03*
X35941000Y-47498000D03*
X96139000Y-91948000D03*
X91694000Y-90678000D03*
X78867000Y-90678000D03*
X76327000Y-90932000D03*
X39243000Y-99822000D03*
X86995000Y-27305000D03*
X95631000Y-27178000D03*
X91821000Y-67945000D03*
X11176000Y-69850000D03*
X11176000Y-72390000D03*
X10160000Y-75184000D03*
X65278000Y-105029000D03*
X36449000Y-48198990D03*
X54864000Y-60452000D03*
X92837000Y-68045979D03*
X108267500Y-27747010D03*
X104267000Y-100076000D03*
X102743000Y-105410000D03*
X96901000Y-105410000D03*
X96901000Y-112522000D03*
X86487000Y-110744000D03*
X36195000Y-75437994D03*
X85813990Y-90678000D03*
X61976000Y-51181000D03*
X88265000Y-90508010D03*
X78486000Y-102616000D03*
X74803000Y-102616000D03*
X58420000Y-103886000D03*
X59690000Y-103886000D03*
X57150000Y-103886000D03*
X54610000Y-97790000D03*
X62992000Y-92710000D03*
X62992000Y-91694000D03*
X62992000Y-93726000D03*
X64770000Y-103632000D03*
X93599002Y-99822000D03*
X91694000Y-99822000D03*
X95250000Y-99822000D03*
X73025000Y-29972000D03*
X107315000Y-45466000D03*
X108458000Y-37084000D03*
X87066000Y-37140000D03*
X112095088Y-36482269D03*
X97790000Y-82423000D03*
X81334979Y-90678000D03*
X88745021Y-82296000D03*
X82295377Y-106011495D03*
X91440000Y-45593000D03*
X52832000Y-111633000D03*
X53086006Y-112776000D03*
X57658000Y-111379000D03*
X57658007Y-112775993D03*
X78613000Y-105918000D03*
X90932000Y-36957000D03*
X106172000Y-34544000D03*
X70739000Y-90678000D03*
X71945500Y-90551000D03*
X92837000Y-63881000D03*
X50800000Y-59690000D03*
X50800000Y-58674000D03*
X53467000Y-21336000D03*
X52197000Y-21336000D03*
X50927000Y-21336000D03*
X46990000Y-21717000D03*
X33401000Y-45974000D03*
X34671000Y-45720000D03*
X91821010Y-64135000D03*
X96901000Y-95250000D03*
X98171000Y-95504000D03*
X35687000Y-72136000D03*
X97155000Y-107188000D03*
X97155000Y-108712000D03*
X36019319Y-73283989D03*
X93937001Y-72305999D03*
X109220000Y-29337000D03*
X108204000Y-29337000D03*
X92710000Y-39878000D03*
X108099998Y-31645998D03*
X108099998Y-35248296D03*
X92837000Y-42418000D03*
X55880000Y-51816000D03*
X55880000Y-51816000D03*
X55880000Y-70777010D03*
X85090000Y-57150000D03*
X40259000Y-52451004D03*
X34163000Y-52324000D03*
X52451000Y-17526000D03*
X53911500Y-17526000D03*
X45339000Y-108966000D03*
X45339000Y-110363000D03*
X101219000Y-100076000D03*
X45339000Y-104267000D03*
X45339000Y-105791000D03*
X58293000Y-51602491D03*
X22479000Y-69977000D03*
X58927996Y-70358000D03*
X104724490Y-26809990D03*
X31940500Y-33401000D03*
X52197000Y-61411957D03*
X85979000Y-66675000D03*
X99441000Y-31369000D03*
X110490000Y-44958000D03*
X51435000Y-78486000D03*
X51181000Y-70104000D03*
X95631000Y-72390000D03*
X30226000Y-57150000D03*
X47024223Y-51777990D03*
X26416000Y-50253990D03*
X84074000Y-106045000D03*
X85090000Y-105791000D03*
X87630000Y-57404000D03*
X88138000Y-84328000D03*
X86995000Y-87884000D03*
X49530000Y-47434500D03*
X50292000Y-75184000D03*
X57277000Y-74676000D03*
X79629000Y-111506000D03*
X57277000Y-47686000D03*
X83185000Y-111252000D03*
X85090000Y-70866000D03*
X86995000Y-104902000D03*
X86106000Y-71628000D03*
X88645996Y-105918000D03*
X90297000Y-70485000D03*
X107188000Y-70485004D03*
X89211686Y-70681314D03*
X106172000Y-71501000D03*
X110490000Y-36830000D03*
X90170000Y-73279000D03*
X93091000Y-104521000D03*
X89154000Y-51054000D03*
X111760000Y-45720000D03*
X108765001Y-74495999D03*
X28829000Y-65278000D03*
X28828994Y-48006000D03*
X37084000Y-67945000D03*
X33528000Y-68834000D03*
X25400000Y-69469000D03*
X90805000Y-52705000D03*
X91440000Y-86614000D03*
X54229000Y-74422000D03*
D23*
X127595000Y-87630000D02*
X127595000Y-44450000D01*
X100925000Y-44450000D02*
X100925000Y-87630000D01*
X53467000Y-21336000D02*
X50927000Y-21336000D01*
X47371000Y-21336000D02*
X46990000Y-21717000D01*
X50927000Y-21336000D02*
X47371000Y-21336000D01*
X97917000Y-95250000D02*
X98171000Y-95504000D01*
X96901000Y-95250000D02*
X97917000Y-95250000D01*
X98171000Y-106172000D02*
X97155000Y-107188000D01*
X98171000Y-95504000D02*
X98171000Y-106172000D01*
X97155000Y-108712000D02*
X97155000Y-107188000D01*
X70866000Y-90551000D02*
X70739000Y-90678000D01*
X71945500Y-90551000D02*
X70866000Y-90551000D01*
X92583000Y-64135000D02*
X92837000Y-63881000D01*
X91821010Y-64135000D02*
X92583000Y-64135000D01*
X34417000Y-45974000D02*
X34671000Y-45720000D01*
X33401000Y-45974000D02*
X34417000Y-45974000D01*
X53721000Y-21590000D02*
X53467000Y-21336000D01*
X50800000Y-59690000D02*
X50800000Y-58674000D01*
X34671000Y-45720000D02*
X34671000Y-24384000D01*
D24*
X83339001Y-112356001D02*
X85471000Y-110224002D01*
X69176001Y-112356001D02*
X83339001Y-112356001D01*
X67310000Y-110490000D02*
X69176001Y-112356001D01*
X85471000Y-110224002D02*
X85471000Y-107188000D01*
D23*
X97155000Y-107188000D02*
X85471000Y-107188000D01*
X93599000Y-91948000D02*
X96901000Y-95250000D01*
X93599000Y-84836000D02*
X93599000Y-91948000D01*
X96647000Y-81788000D02*
X93599000Y-84836000D01*
X96647000Y-78740000D02*
X96647000Y-81788000D01*
X93937001Y-76030001D02*
X96647000Y-78740000D01*
X91821010Y-64135000D02*
X93937001Y-66250991D01*
X35687000Y-72951670D02*
X36019319Y-73283989D01*
X35687000Y-72136000D02*
X35687000Y-72951670D01*
X56896000Y-18415000D02*
X53721000Y-21590000D01*
X56896000Y-11430000D02*
X56896000Y-18415000D01*
X38100000Y-8890000D02*
X54356000Y-8890000D01*
X34671000Y-12319000D02*
X38100000Y-8890000D01*
X54356000Y-8890000D02*
X56896000Y-11430000D01*
X34671000Y-24384000D02*
X34671000Y-12319000D01*
X63246000Y-31115000D02*
X53721000Y-21590000D01*
X63246000Y-69850000D02*
X63246000Y-31115000D01*
X69342000Y-75946000D02*
X63246000Y-69850000D01*
X69342000Y-89281000D02*
X69342000Y-75946000D01*
X70739000Y-90678000D02*
X69342000Y-89281000D01*
X37211000Y-24384000D02*
X34671000Y-24384000D01*
X40005000Y-27178000D02*
X37211000Y-24384000D01*
X40005000Y-30607000D02*
X40005000Y-27178000D01*
X45466000Y-36068000D02*
X40005000Y-30607000D01*
X45466000Y-39116000D02*
X45466000Y-36068000D01*
X50800000Y-44450000D02*
X45466000Y-39116000D01*
X50800000Y-58674000D02*
X50800000Y-44450000D01*
X93937001Y-72305999D02*
X93937001Y-76030001D01*
X93937001Y-66250991D02*
X93937001Y-72305999D01*
X80264000Y-106045000D02*
X80264000Y-98869500D01*
X80264000Y-98869500D02*
X71945500Y-90551000D01*
X81407000Y-107188000D02*
X80264000Y-106045000D01*
X85471000Y-107188000D02*
X81407000Y-107188000D01*
X31792999Y-47582001D02*
X33401000Y-45974000D01*
X31792999Y-68876999D02*
X31792999Y-47582001D01*
X35052000Y-72136000D02*
X31792999Y-68876999D01*
X35687000Y-72136000D02*
X35052000Y-72136000D01*
X107188000Y-29337000D02*
X96647000Y-39878000D01*
X96647000Y-39878000D02*
X92710000Y-39878000D01*
X109220000Y-29337000D02*
X107188000Y-29337000D01*
X69723000Y-49276000D02*
X83312000Y-49276000D01*
X83312000Y-49276000D02*
X92710000Y-39878000D01*
X67437000Y-51562000D02*
X69723000Y-49276000D01*
X67437000Y-68072000D02*
X67437000Y-51562000D01*
X80645000Y-81280000D02*
X67437000Y-68072000D01*
X108099998Y-31645998D02*
X108099998Y-31645998D01*
X108099998Y-35248296D02*
X108099998Y-31645998D01*
X108099998Y-35248296D02*
X100930294Y-42418000D01*
X100930294Y-42418000D02*
X92837000Y-42418000D01*
X84201000Y-51054000D02*
X92837000Y-42418000D01*
X69088000Y-64643000D02*
X69088000Y-52451000D01*
X80645000Y-76200000D02*
X69088000Y-64643000D01*
X69088000Y-52451000D02*
X70485000Y-51054000D01*
X70485000Y-51054000D02*
X84201000Y-51054000D01*
X18375000Y-87630000D02*
X18375000Y-44450000D01*
D25*
X56279999Y-52215999D02*
X56279999Y-70377011D01*
X56279999Y-70377011D02*
X55880000Y-70777010D01*
X55880000Y-51816000D02*
X56279999Y-52215999D01*
D23*
X45339000Y-108966000D02*
X45339000Y-110363000D01*
X45339000Y-102743000D02*
X45339000Y-108966000D01*
X52725001Y-95356999D02*
X45339000Y-102743000D01*
X53678001Y-62018999D02*
X52725001Y-62971999D01*
X53678001Y-60177999D02*
X53678001Y-62018999D01*
X53467000Y-59966998D02*
X53678001Y-60177999D01*
X52725001Y-62971999D02*
X52725001Y-95356999D01*
X53467000Y-37338000D02*
X53467000Y-59966998D01*
X37211000Y-21082000D02*
X53467000Y-37338000D01*
X37211000Y-16129000D02*
X37211000Y-21082000D01*
X38862000Y-14478000D02*
X37211000Y-16129000D01*
X51943000Y-14478000D02*
X38862000Y-14478000D01*
X53911500Y-16446500D02*
X51943000Y-14478000D01*
X53911500Y-17526000D02*
X53911500Y-16446500D01*
D25*
X62230000Y-110363000D02*
X45339000Y-110363000D01*
X65339001Y-113472001D02*
X62230000Y-110363000D01*
X97474999Y-113472001D02*
X65339001Y-113472001D01*
X101219000Y-109728000D02*
X97474999Y-113472001D01*
X101219000Y-100076000D02*
X101219000Y-109728000D01*
D26*
X40005000Y-18127998D02*
X40005000Y-17780000D01*
D25*
X53529001Y-31429999D02*
X58293000Y-36193998D01*
X58293000Y-36193998D02*
X58293000Y-51602491D01*
X40005000Y-18127998D02*
X53307001Y-31429999D01*
X53307001Y-31429999D02*
X53529001Y-31429999D01*
X24130000Y-19685000D02*
X22225000Y-17780000D01*
X24130000Y-68326000D02*
X24130000Y-19685000D01*
X22479000Y-69977000D02*
X24130000Y-68326000D01*
X51435000Y-70358000D02*
X51181000Y-70104000D01*
X51435000Y-78486000D02*
X51435000Y-70358000D01*
X43944000Y-77724000D02*
X46230000Y-80010000D01*
X37075004Y-77724000D02*
X43944000Y-77724000D01*
X30625999Y-71274995D02*
X37075004Y-77724000D01*
X30625999Y-57549999D02*
X30625999Y-71274995D01*
X30226000Y-57150000D02*
X30625999Y-57549999D01*
X82411989Y-104382989D02*
X84074000Y-106045000D01*
X82411989Y-64377989D02*
X82411989Y-104382989D01*
X71755000Y-63120000D02*
X81154000Y-63120000D01*
X81154000Y-63120000D02*
X82411989Y-64377989D01*
X85090000Y-104645194D02*
X85090000Y-105791000D01*
X83312000Y-63509234D02*
X83312000Y-102867194D01*
X71755000Y-53720000D02*
X73522766Y-53720000D01*
X73522766Y-53720000D02*
X83312000Y-63509234D01*
X83312000Y-102867194D02*
X85090000Y-104645194D01*
X86743500Y-58290500D02*
X86743500Y-63768114D01*
X87795011Y-83985011D02*
X88138000Y-84328000D01*
X87795011Y-64819625D02*
X87795011Y-83985011D01*
X86743500Y-63768114D02*
X87795011Y-64819625D01*
X87630000Y-57404000D02*
X86743500Y-58290500D01*
D24*
X98425000Y-46482000D02*
X98425000Y-44450000D01*
X85943489Y-63789511D02*
X85943489Y-52359511D01*
X85890999Y-63842001D02*
X85943489Y-63789511D01*
X90424000Y-47879000D02*
X97028000Y-47879000D01*
X85943489Y-52359511D02*
X90424000Y-47879000D01*
X85890999Y-64046999D02*
X85890999Y-63842001D01*
X86995000Y-65151000D02*
X85890999Y-64046999D01*
X97028000Y-47879000D02*
X98425000Y-46482000D01*
X86995000Y-87884000D02*
X86995000Y-65151000D01*
D25*
X47835980Y-61563061D02*
X47835980Y-72727980D01*
X46482000Y-60209081D02*
X47835980Y-61563061D01*
X46482000Y-57150000D02*
X46482000Y-60209081D01*
X47835980Y-72727980D02*
X50292000Y-75184000D01*
X49530000Y-54102000D02*
X46482000Y-57150000D01*
X49530000Y-47434500D02*
X49530000Y-54102000D01*
D24*
X79229001Y-111106001D02*
X79629000Y-111506000D01*
X65085989Y-78450988D02*
X65085989Y-96962989D01*
X57277000Y-74676000D02*
X61311001Y-74676000D01*
X61311001Y-74676000D02*
X65085989Y-78450988D01*
X65085989Y-96962989D02*
X79229001Y-111106001D01*
X65786000Y-96266000D02*
X80772000Y-111252000D01*
X80772000Y-111252000D02*
X83185000Y-111252000D01*
X65786000Y-78161035D02*
X65786000Y-96266000D01*
X58966999Y-73825999D02*
X61450964Y-73825999D01*
X57277000Y-72136000D02*
X58966999Y-73825999D01*
X61450964Y-73825999D02*
X65786000Y-78161035D01*
X57277000Y-47686000D02*
X57277000Y-72136000D01*
D25*
X84690001Y-102597001D02*
X86995000Y-104902000D01*
X84690001Y-71265999D02*
X84690001Y-102597001D01*
X85090000Y-70866000D02*
X84690001Y-71265999D01*
X88645996Y-94360998D02*
X88645996Y-105918000D01*
X85979000Y-88274002D02*
X87230001Y-89525003D01*
X85979000Y-71755000D02*
X85979000Y-88274002D01*
X87230001Y-92945003D02*
X88645996Y-94360998D01*
X87230001Y-89525003D02*
X87230001Y-92945003D01*
X86106000Y-71628000D02*
X85979000Y-71755000D01*
X107315000Y-101600000D02*
X107315000Y-70612004D01*
X107315000Y-70612004D02*
X107188000Y-70485004D01*
X106414990Y-71743990D02*
X106172000Y-71501000D01*
X105664000Y-100838000D02*
X106414990Y-100087010D01*
X105664000Y-102489000D02*
X105664000Y-100838000D01*
X106414990Y-100087010D02*
X106414990Y-71743990D01*
X107315000Y-104140000D02*
X105664000Y-102489000D01*
X90170000Y-101600000D02*
X93091000Y-104521000D01*
X90170000Y-73279000D02*
X90170000Y-101600000D01*
X89154000Y-67947806D02*
X89154000Y-51054000D01*
X91555990Y-70349796D02*
X89154000Y-67947806D01*
X91555990Y-71893010D02*
X91555990Y-70349796D01*
X90170000Y-73279000D02*
X91555990Y-71893010D01*
X108765001Y-48714999D02*
X111760000Y-45720000D01*
X107315000Y-110490000D02*
X108765001Y-109039999D01*
X108765001Y-74495999D02*
X108765001Y-48714999D01*
X108765001Y-109039999D02*
X108765001Y-74495999D01*
X28829000Y-65278000D02*
X28829000Y-48006006D01*
X28829000Y-48006006D02*
X28828994Y-48006000D01*
X37084000Y-57023000D02*
X37084000Y-67945000D01*
X41656000Y-34544000D02*
X41656000Y-38989000D01*
X37545000Y-27980000D02*
X37545000Y-30433000D01*
X38862000Y-55245000D02*
X37084000Y-57023000D01*
X38862000Y-41783000D02*
X38862000Y-55245000D01*
X41656000Y-38989000D02*
X38862000Y-41783000D01*
X37545000Y-30433000D02*
X41656000Y-34544000D01*
X35433000Y-53594000D02*
X35433000Y-66929000D01*
X37592000Y-51435000D02*
X35433000Y-53594000D01*
X37592000Y-47037988D02*
X37592000Y-51435000D01*
X36545001Y-33979999D02*
X36545001Y-45990989D01*
X37545000Y-32980000D02*
X36545001Y-33979999D01*
X36545001Y-45990989D02*
X37592000Y-47037988D01*
X35433000Y-66929000D02*
X33528000Y-68834000D01*
X92456000Y-69977000D02*
X92456000Y-71755000D01*
X90551000Y-68072000D02*
X92456000Y-69977000D01*
X90551000Y-52959000D02*
X90551000Y-68072000D01*
X90805000Y-52705000D02*
X90551000Y-52959000D01*
D26*
X91313000Y-86221386D02*
X91313000Y-86487000D01*
X91313000Y-86487000D02*
X91440000Y-86614000D01*
D25*
X91313000Y-76706631D02*
X91313000Y-86487000D01*
X92456000Y-75563631D02*
X91313000Y-76706631D01*
X92456000Y-71628000D02*
X92456000Y-75563631D01*
M02*
