G04 #@! TF.GenerationSoftware,KiCad,Pcbnew,5.1.10-88a1d61d58~90~ubuntu20.04.1*
G04 #@! TF.CreationDate,2021-08-08T15:21:02-04:00*
G04 #@! TF.ProjectId,stereo_whooshy_sound_main_pcb,73746572-656f-45f7-9768-6f6f7368795f,0*
G04 #@! TF.SameCoordinates,Original*
G04 #@! TF.FileFunction,Legend,Top*
G04 #@! TF.FilePolarity,Positive*
%FSLAX46Y46*%
G04 Gerber Fmt 4.6, Leading zero omitted, Abs format (unit mm)*
G04 Created by KiCad (PCBNEW 5.1.10-88a1d61d58~90~ubuntu20.04.1) date 2021-08-08 15:21:02*
%MOMM*%
%LPD*%
G01*
G04 APERTURE LIST*
%ADD10C,0.150000*%
%ADD11C,0.120000*%
%ADD12C,3.000000*%
%ADD13C,2.000000*%
%ADD14C,1.600000*%
%ADD15O,2.000000X3.500000*%
%ADD16O,3.300000X2.000000*%
%ADD17R,4.000000X2.000000*%
%ADD18O,1.700000X1.700000*%
%ADD19R,1.700000X1.700000*%
%ADD20C,1.800000*%
%ADD21R,1.800000X1.800000*%
%ADD22O,2.720000X3.240000*%
%ADD23C,2.500000*%
G04 APERTURE END LIST*
D10*
X21534523Y-7405714D02*
X21534523Y-8215238D01*
X21486904Y-8310476D01*
X21439285Y-8358095D01*
X21344047Y-8405714D01*
X21201190Y-8405714D01*
X21105952Y-8358095D01*
X21534523Y-8024761D02*
X21439285Y-8072380D01*
X21248809Y-8072380D01*
X21153571Y-8024761D01*
X21105952Y-7977142D01*
X21058333Y-7881904D01*
X21058333Y-7596190D01*
X21105952Y-7500952D01*
X21153571Y-7453333D01*
X21248809Y-7405714D01*
X21439285Y-7405714D01*
X21534523Y-7453333D01*
X22010714Y-7405714D02*
X22010714Y-8072380D01*
X22010714Y-7500952D02*
X22058333Y-7453333D01*
X22153571Y-7405714D01*
X22296428Y-7405714D01*
X22391666Y-7453333D01*
X22439285Y-7548571D01*
X22439285Y-8072380D01*
X23344047Y-8072380D02*
X23344047Y-7072380D01*
X23344047Y-8024761D02*
X23248809Y-8072380D01*
X23058333Y-8072380D01*
X22963095Y-8024761D01*
X22915476Y-7977142D01*
X22867857Y-7881904D01*
X22867857Y-7596190D01*
X22915476Y-7500952D01*
X22963095Y-7453333D01*
X23058333Y-7405714D01*
X23248809Y-7405714D01*
X23344047Y-7453333D01*
X39314523Y-7405714D02*
X39314523Y-8215238D01*
X39266904Y-8310476D01*
X39219285Y-8358095D01*
X39124047Y-8405714D01*
X38981190Y-8405714D01*
X38885952Y-8358095D01*
X39314523Y-8024761D02*
X39219285Y-8072380D01*
X39028809Y-8072380D01*
X38933571Y-8024761D01*
X38885952Y-7977142D01*
X38838333Y-7881904D01*
X38838333Y-7596190D01*
X38885952Y-7500952D01*
X38933571Y-7453333D01*
X39028809Y-7405714D01*
X39219285Y-7405714D01*
X39314523Y-7453333D01*
X39790714Y-7405714D02*
X39790714Y-8072380D01*
X39790714Y-7500952D02*
X39838333Y-7453333D01*
X39933571Y-7405714D01*
X40076428Y-7405714D01*
X40171666Y-7453333D01*
X40219285Y-7548571D01*
X40219285Y-8072380D01*
X41124047Y-8072380D02*
X41124047Y-7072380D01*
X41124047Y-8024761D02*
X41028809Y-8072380D01*
X40838333Y-8072380D01*
X40743095Y-8024761D01*
X40695476Y-7977142D01*
X40647857Y-7881904D01*
X40647857Y-7596190D01*
X40695476Y-7500952D01*
X40743095Y-7453333D01*
X40838333Y-7405714D01*
X41028809Y-7405714D01*
X41124047Y-7453333D01*
X52014523Y-13755714D02*
X52014523Y-14565238D01*
X51966904Y-14660476D01*
X51919285Y-14708095D01*
X51824047Y-14755714D01*
X51681190Y-14755714D01*
X51585952Y-14708095D01*
X52014523Y-14374761D02*
X51919285Y-14422380D01*
X51728809Y-14422380D01*
X51633571Y-14374761D01*
X51585952Y-14327142D01*
X51538333Y-14231904D01*
X51538333Y-13946190D01*
X51585952Y-13850952D01*
X51633571Y-13803333D01*
X51728809Y-13755714D01*
X51919285Y-13755714D01*
X52014523Y-13803333D01*
X52490714Y-13755714D02*
X52490714Y-14422380D01*
X52490714Y-13850952D02*
X52538333Y-13803333D01*
X52633571Y-13755714D01*
X52776428Y-13755714D01*
X52871666Y-13803333D01*
X52919285Y-13898571D01*
X52919285Y-14422380D01*
X53824047Y-14422380D02*
X53824047Y-13422380D01*
X53824047Y-14374761D02*
X53728809Y-14422380D01*
X53538333Y-14422380D01*
X53443095Y-14374761D01*
X53395476Y-14327142D01*
X53347857Y-14231904D01*
X53347857Y-13946190D01*
X53395476Y-13850952D01*
X53443095Y-13803333D01*
X53538333Y-13755714D01*
X53728809Y-13755714D01*
X53824047Y-13803333D01*
X76144523Y-7405714D02*
X76144523Y-8215238D01*
X76096904Y-8310476D01*
X76049285Y-8358095D01*
X75954047Y-8405714D01*
X75811190Y-8405714D01*
X75715952Y-8358095D01*
X76144523Y-8024761D02*
X76049285Y-8072380D01*
X75858809Y-8072380D01*
X75763571Y-8024761D01*
X75715952Y-7977142D01*
X75668333Y-7881904D01*
X75668333Y-7596190D01*
X75715952Y-7500952D01*
X75763571Y-7453333D01*
X75858809Y-7405714D01*
X76049285Y-7405714D01*
X76144523Y-7453333D01*
X76620714Y-7405714D02*
X76620714Y-8072380D01*
X76620714Y-7500952D02*
X76668333Y-7453333D01*
X76763571Y-7405714D01*
X76906428Y-7405714D01*
X77001666Y-7453333D01*
X77049285Y-7548571D01*
X77049285Y-8072380D01*
X77954047Y-8072380D02*
X77954047Y-7072380D01*
X77954047Y-8024761D02*
X77858809Y-8072380D01*
X77668333Y-8072380D01*
X77573095Y-8024761D01*
X77525476Y-7977142D01*
X77477857Y-7881904D01*
X77477857Y-7596190D01*
X77525476Y-7500952D01*
X77573095Y-7453333D01*
X77668333Y-7405714D01*
X77858809Y-7405714D01*
X77954047Y-7453333D01*
X93924523Y-7405714D02*
X93924523Y-8215238D01*
X93876904Y-8310476D01*
X93829285Y-8358095D01*
X93734047Y-8405714D01*
X93591190Y-8405714D01*
X93495952Y-8358095D01*
X93924523Y-8024761D02*
X93829285Y-8072380D01*
X93638809Y-8072380D01*
X93543571Y-8024761D01*
X93495952Y-7977142D01*
X93448333Y-7881904D01*
X93448333Y-7596190D01*
X93495952Y-7500952D01*
X93543571Y-7453333D01*
X93638809Y-7405714D01*
X93829285Y-7405714D01*
X93924523Y-7453333D01*
X94400714Y-7405714D02*
X94400714Y-8072380D01*
X94400714Y-7500952D02*
X94448333Y-7453333D01*
X94543571Y-7405714D01*
X94686428Y-7405714D01*
X94781666Y-7453333D01*
X94829285Y-7548571D01*
X94829285Y-8072380D01*
X95734047Y-8072380D02*
X95734047Y-7072380D01*
X95734047Y-8024761D02*
X95638809Y-8072380D01*
X95448333Y-8072380D01*
X95353095Y-8024761D01*
X95305476Y-7977142D01*
X95257857Y-7881904D01*
X95257857Y-7596190D01*
X95305476Y-7500952D01*
X95353095Y-7453333D01*
X95448333Y-7405714D01*
X95638809Y-7405714D01*
X95734047Y-7453333D01*
X111704523Y-7405714D02*
X111704523Y-8215238D01*
X111656904Y-8310476D01*
X111609285Y-8358095D01*
X111514047Y-8405714D01*
X111371190Y-8405714D01*
X111275952Y-8358095D01*
X111704523Y-8024761D02*
X111609285Y-8072380D01*
X111418809Y-8072380D01*
X111323571Y-8024761D01*
X111275952Y-7977142D01*
X111228333Y-7881904D01*
X111228333Y-7596190D01*
X111275952Y-7500952D01*
X111323571Y-7453333D01*
X111418809Y-7405714D01*
X111609285Y-7405714D01*
X111704523Y-7453333D01*
X112180714Y-7405714D02*
X112180714Y-8072380D01*
X112180714Y-7500952D02*
X112228333Y-7453333D01*
X112323571Y-7405714D01*
X112466428Y-7405714D01*
X112561666Y-7453333D01*
X112609285Y-7548571D01*
X112609285Y-8072380D01*
X113514047Y-8072380D02*
X113514047Y-7072380D01*
X113514047Y-8024761D02*
X113418809Y-8072380D01*
X113228333Y-8072380D01*
X113133095Y-8024761D01*
X113085476Y-7977142D01*
X113037857Y-7881904D01*
X113037857Y-7596190D01*
X113085476Y-7500952D01*
X113133095Y-7453333D01*
X113228333Y-7405714D01*
X113418809Y-7405714D01*
X113514047Y-7453333D01*
X129484523Y-7405714D02*
X129484523Y-8215238D01*
X129436904Y-8310476D01*
X129389285Y-8358095D01*
X129294047Y-8405714D01*
X129151190Y-8405714D01*
X129055952Y-8358095D01*
X129484523Y-8024761D02*
X129389285Y-8072380D01*
X129198809Y-8072380D01*
X129103571Y-8024761D01*
X129055952Y-7977142D01*
X129008333Y-7881904D01*
X129008333Y-7596190D01*
X129055952Y-7500952D01*
X129103571Y-7453333D01*
X129198809Y-7405714D01*
X129389285Y-7405714D01*
X129484523Y-7453333D01*
X129960714Y-7405714D02*
X129960714Y-8072380D01*
X129960714Y-7500952D02*
X130008333Y-7453333D01*
X130103571Y-7405714D01*
X130246428Y-7405714D01*
X130341666Y-7453333D01*
X130389285Y-7548571D01*
X130389285Y-8072380D01*
X131294047Y-8072380D02*
X131294047Y-7072380D01*
X131294047Y-8024761D02*
X131198809Y-8072380D01*
X131008333Y-8072380D01*
X130913095Y-8024761D01*
X130865476Y-7977142D01*
X130817857Y-7881904D01*
X130817857Y-7596190D01*
X130865476Y-7500952D01*
X130913095Y-7453333D01*
X131008333Y-7405714D01*
X131198809Y-7405714D01*
X131294047Y-7453333D01*
X82171166Y-67095714D02*
X82171166Y-67905238D01*
X82123547Y-68000476D01*
X82075928Y-68048095D01*
X81980690Y-68095714D01*
X81837833Y-68095714D01*
X81742595Y-68048095D01*
X82171166Y-67714761D02*
X82075928Y-67762380D01*
X81885452Y-67762380D01*
X81790214Y-67714761D01*
X81742595Y-67667142D01*
X81694976Y-67571904D01*
X81694976Y-67286190D01*
X81742595Y-67190952D01*
X81790214Y-67143333D01*
X81885452Y-67095714D01*
X82075928Y-67095714D01*
X82171166Y-67143333D01*
X82647357Y-67095714D02*
X82647357Y-67762380D01*
X82647357Y-67190952D02*
X82694976Y-67143333D01*
X82790214Y-67095714D01*
X82933071Y-67095714D01*
X83028309Y-67143333D01*
X83075928Y-67238571D01*
X83075928Y-67762380D01*
X83980690Y-67762380D02*
X83980690Y-66762380D01*
X83980690Y-67714761D02*
X83885452Y-67762380D01*
X83694976Y-67762380D01*
X83599738Y-67714761D01*
X83552119Y-67667142D01*
X83504500Y-67571904D01*
X83504500Y-67286190D01*
X83552119Y-67190952D01*
X83599738Y-67143333D01*
X83694976Y-67095714D01*
X83885452Y-67095714D01*
X83980690Y-67143333D01*
X81488595Y-77541428D02*
X82250500Y-77541428D01*
X83250500Y-77922380D02*
X82679071Y-77922380D01*
X82964785Y-77922380D02*
X82964785Y-76922380D01*
X82869547Y-77065238D01*
X82774309Y-77160476D01*
X82679071Y-77208095D01*
X83631452Y-77017619D02*
X83679071Y-76970000D01*
X83774309Y-76922380D01*
X84012404Y-76922380D01*
X84107642Y-76970000D01*
X84155261Y-77017619D01*
X84202880Y-77112857D01*
X84202880Y-77208095D01*
X84155261Y-77350952D01*
X83583833Y-77922380D01*
X84202880Y-77922380D01*
X84536214Y-77255714D02*
X84774309Y-77922380D01*
X85012404Y-77255714D01*
X85821928Y-77922380D02*
X85821928Y-76922380D01*
X85821928Y-77874761D02*
X85726690Y-77922380D01*
X85536214Y-77922380D01*
X85440976Y-77874761D01*
X85393357Y-77827142D01*
X85345738Y-77731904D01*
X85345738Y-77446190D01*
X85393357Y-77350952D01*
X85440976Y-77303333D01*
X85536214Y-77255714D01*
X85726690Y-77255714D01*
X85821928Y-77303333D01*
X86726690Y-77874761D02*
X86631452Y-77922380D01*
X86440976Y-77922380D01*
X86345738Y-77874761D01*
X86298119Y-77827142D01*
X86250500Y-77731904D01*
X86250500Y-77446190D01*
X86298119Y-77350952D01*
X86345738Y-77303333D01*
X86440976Y-77255714D01*
X86631452Y-77255714D01*
X86726690Y-77303333D01*
X81488595Y-82621428D02*
X82250500Y-82621428D01*
X81869547Y-83002380D02*
X81869547Y-82240476D01*
X83250500Y-83002380D02*
X82679071Y-83002380D01*
X82964785Y-83002380D02*
X82964785Y-82002380D01*
X82869547Y-82145238D01*
X82774309Y-82240476D01*
X82679071Y-82288095D01*
X83631452Y-82097619D02*
X83679071Y-82050000D01*
X83774309Y-82002380D01*
X84012404Y-82002380D01*
X84107642Y-82050000D01*
X84155261Y-82097619D01*
X84202880Y-82192857D01*
X84202880Y-82288095D01*
X84155261Y-82430952D01*
X83583833Y-83002380D01*
X84202880Y-83002380D01*
X84536214Y-82335714D02*
X84774309Y-83002380D01*
X85012404Y-82335714D01*
X85821928Y-83002380D02*
X85821928Y-82002380D01*
X85821928Y-82954761D02*
X85726690Y-83002380D01*
X85536214Y-83002380D01*
X85440976Y-82954761D01*
X85393357Y-82907142D01*
X85345738Y-82811904D01*
X85345738Y-82526190D01*
X85393357Y-82430952D01*
X85440976Y-82383333D01*
X85536214Y-82335714D01*
X85726690Y-82335714D01*
X85821928Y-82383333D01*
X86726690Y-82954761D02*
X86631452Y-83002380D01*
X86440976Y-83002380D01*
X86345738Y-82954761D01*
X86298119Y-82907142D01*
X86250500Y-82811904D01*
X86250500Y-82526190D01*
X86298119Y-82430952D01*
X86345738Y-82383333D01*
X86440976Y-82335714D01*
X86631452Y-82335714D01*
X86726690Y-82383333D01*
X132365952Y-85320714D02*
X132746904Y-85320714D01*
X132508809Y-85987380D02*
X132508809Y-85130238D01*
X132556428Y-85035000D01*
X132651666Y-84987380D01*
X132746904Y-84987380D01*
X133080238Y-85987380D02*
X133080238Y-85320714D01*
X133080238Y-85511190D02*
X133127857Y-85415952D01*
X133175476Y-85368333D01*
X133270714Y-85320714D01*
X133365952Y-85320714D01*
X134080238Y-85939761D02*
X133985000Y-85987380D01*
X133794523Y-85987380D01*
X133699285Y-85939761D01*
X133651666Y-85844523D01*
X133651666Y-85463571D01*
X133699285Y-85368333D01*
X133794523Y-85320714D01*
X133985000Y-85320714D01*
X134080238Y-85368333D01*
X134127857Y-85463571D01*
X134127857Y-85558809D01*
X133651666Y-85654047D01*
X134985000Y-85320714D02*
X134985000Y-86320714D01*
X134985000Y-85939761D02*
X134889761Y-85987380D01*
X134699285Y-85987380D01*
X134604047Y-85939761D01*
X134556428Y-85892142D01*
X134508809Y-85796904D01*
X134508809Y-85511190D01*
X134556428Y-85415952D01*
X134604047Y-85368333D01*
X134699285Y-85320714D01*
X134889761Y-85320714D01*
X134985000Y-85368333D01*
X135461190Y-85892142D02*
X135508809Y-85939761D01*
X135461190Y-85987380D01*
X135413571Y-85939761D01*
X135461190Y-85892142D01*
X135461190Y-85987380D01*
X133056428Y-87542142D02*
X133008809Y-87589761D01*
X132865952Y-87637380D01*
X132770714Y-87637380D01*
X132627857Y-87589761D01*
X132532619Y-87494523D01*
X132485000Y-87399285D01*
X132437380Y-87208809D01*
X132437380Y-87065952D01*
X132485000Y-86875476D01*
X132532619Y-86780238D01*
X132627857Y-86685000D01*
X132770714Y-86637380D01*
X132865952Y-86637380D01*
X133008809Y-86685000D01*
X133056428Y-86732619D01*
X133342142Y-86637380D02*
X133675476Y-87637380D01*
X134008809Y-86637380D01*
X135056428Y-87351666D02*
X135532619Y-87351666D01*
X134961190Y-87637380D02*
X135294523Y-86637380D01*
X135627857Y-87637380D01*
X132699285Y-47696380D02*
X132699285Y-46696380D01*
X132699285Y-47648761D02*
X132604047Y-47696380D01*
X132413571Y-47696380D01*
X132318333Y-47648761D01*
X132270714Y-47601142D01*
X132223095Y-47505904D01*
X132223095Y-47220190D01*
X132270714Y-47124952D01*
X132318333Y-47077333D01*
X132413571Y-47029714D01*
X132604047Y-47029714D01*
X132699285Y-47077333D01*
X133175476Y-47696380D02*
X133175476Y-47029714D01*
X133175476Y-47220190D02*
X133223095Y-47124952D01*
X133270714Y-47077333D01*
X133365952Y-47029714D01*
X133461190Y-47029714D01*
X133699285Y-47029714D02*
X133937380Y-47696380D01*
X134175476Y-47029714D02*
X133937380Y-47696380D01*
X133842142Y-47934476D01*
X133794523Y-47982095D01*
X133699285Y-48029714D01*
X135270714Y-47410666D02*
X135746904Y-47410666D01*
X135175476Y-47696380D02*
X135508809Y-46696380D01*
X135842142Y-47696380D01*
X78740238Y-47283714D02*
X78930714Y-47950380D01*
X79121190Y-47474190D01*
X79311666Y-47950380D01*
X79502142Y-47283714D01*
X80264047Y-47902761D02*
X80168809Y-47950380D01*
X79978333Y-47950380D01*
X79883095Y-47902761D01*
X79835476Y-47807523D01*
X79835476Y-47426571D01*
X79883095Y-47331333D01*
X79978333Y-47283714D01*
X80168809Y-47283714D01*
X80264047Y-47331333D01*
X80311666Y-47426571D01*
X80311666Y-47521809D01*
X79835476Y-47617047D01*
X80597380Y-47283714D02*
X80978333Y-47283714D01*
X80740238Y-46950380D02*
X80740238Y-47807523D01*
X80787857Y-47902761D01*
X80883095Y-47950380D01*
X80978333Y-47950380D01*
X82025952Y-47664666D02*
X82502142Y-47664666D01*
X81930714Y-47950380D02*
X82264047Y-46950380D01*
X82597380Y-47950380D01*
X81996595Y-72017380D02*
X81996595Y-71350714D01*
X81996595Y-71541190D02*
X82044214Y-71445952D01*
X82091833Y-71398333D01*
X82187071Y-71350714D01*
X82282309Y-71350714D01*
X82996595Y-71969761D02*
X82901357Y-72017380D01*
X82710880Y-72017380D01*
X82615642Y-71969761D01*
X82568023Y-71874523D01*
X82568023Y-71493571D01*
X82615642Y-71398333D01*
X82710880Y-71350714D01*
X82901357Y-71350714D01*
X82996595Y-71398333D01*
X83044214Y-71493571D01*
X83044214Y-71588809D01*
X82568023Y-71684047D01*
X83425166Y-71969761D02*
X83520404Y-72017380D01*
X83710880Y-72017380D01*
X83806119Y-71969761D01*
X83853738Y-71874523D01*
X83853738Y-71826904D01*
X83806119Y-71731666D01*
X83710880Y-71684047D01*
X83568023Y-71684047D01*
X83472785Y-71636428D01*
X83425166Y-71541190D01*
X83425166Y-71493571D01*
X83472785Y-71398333D01*
X83568023Y-71350714D01*
X83710880Y-71350714D01*
X83806119Y-71398333D01*
X84282309Y-71922142D02*
X84329928Y-71969761D01*
X84282309Y-72017380D01*
X84234690Y-71969761D01*
X84282309Y-71922142D01*
X84282309Y-72017380D01*
X82568023Y-73572142D02*
X82520404Y-73619761D01*
X82377547Y-73667380D01*
X82282309Y-73667380D01*
X82139452Y-73619761D01*
X82044214Y-73524523D01*
X81996595Y-73429285D01*
X81948976Y-73238809D01*
X81948976Y-73095952D01*
X81996595Y-72905476D01*
X82044214Y-72810238D01*
X82139452Y-72715000D01*
X82282309Y-72667380D01*
X82377547Y-72667380D01*
X82520404Y-72715000D01*
X82568023Y-72762619D01*
X82853738Y-72667380D02*
X83187071Y-73667380D01*
X83520404Y-72667380D01*
X84568023Y-73381666D02*
X85044214Y-73381666D01*
X84472785Y-73667380D02*
X84806119Y-72667380D01*
X85139452Y-73667380D01*
X56515476Y-85383714D02*
X56896428Y-85383714D01*
X56658333Y-86050380D02*
X56658333Y-85193238D01*
X56705952Y-85098000D01*
X56801190Y-85050380D01*
X56896428Y-85050380D01*
X57229761Y-86050380D02*
X57229761Y-85383714D01*
X57229761Y-85574190D02*
X57277380Y-85478952D01*
X57325000Y-85431333D01*
X57420238Y-85383714D01*
X57515476Y-85383714D01*
X58229761Y-86002761D02*
X58134523Y-86050380D01*
X57944047Y-86050380D01*
X57848809Y-86002761D01*
X57801190Y-85907523D01*
X57801190Y-85526571D01*
X57848809Y-85431333D01*
X57944047Y-85383714D01*
X58134523Y-85383714D01*
X58229761Y-85431333D01*
X58277380Y-85526571D01*
X58277380Y-85621809D01*
X57801190Y-85717047D01*
X59134523Y-85383714D02*
X59134523Y-86383714D01*
X59134523Y-86002761D02*
X59039285Y-86050380D01*
X58848809Y-86050380D01*
X58753571Y-86002761D01*
X58705952Y-85955142D01*
X58658333Y-85859904D01*
X58658333Y-85574190D01*
X58705952Y-85478952D01*
X58753571Y-85431333D01*
X58848809Y-85383714D01*
X59039285Y-85383714D01*
X59134523Y-85431333D01*
X59610714Y-85955142D02*
X59658333Y-86002761D01*
X59610714Y-86050380D01*
X59563095Y-86002761D01*
X59610714Y-85955142D01*
X59610714Y-86050380D01*
X61420238Y-85955142D02*
X61372619Y-86002761D01*
X61229761Y-86050380D01*
X61134523Y-86050380D01*
X60991666Y-86002761D01*
X60896428Y-85907523D01*
X60848809Y-85812285D01*
X60801190Y-85621809D01*
X60801190Y-85478952D01*
X60848809Y-85288476D01*
X60896428Y-85193238D01*
X60991666Y-85098000D01*
X61134523Y-85050380D01*
X61229761Y-85050380D01*
X61372619Y-85098000D01*
X61420238Y-85145619D01*
X61705952Y-85050380D02*
X62039285Y-86050380D01*
X62372619Y-85050380D01*
X63801190Y-85526571D02*
X63944047Y-85574190D01*
X63991666Y-85621809D01*
X64039285Y-85717047D01*
X64039285Y-85859904D01*
X63991666Y-85955142D01*
X63944047Y-86002761D01*
X63848809Y-86050380D01*
X63467857Y-86050380D01*
X63467857Y-85050380D01*
X63801190Y-85050380D01*
X63896428Y-85098000D01*
X63944047Y-85145619D01*
X63991666Y-85240857D01*
X63991666Y-85336095D01*
X63944047Y-85431333D01*
X63896428Y-85478952D01*
X63801190Y-85526571D01*
X63467857Y-85526571D01*
X58967857Y-47696380D02*
X58967857Y-46696380D01*
X58967857Y-47648761D02*
X58872619Y-47696380D01*
X58682142Y-47696380D01*
X58586904Y-47648761D01*
X58539285Y-47601142D01*
X58491666Y-47505904D01*
X58491666Y-47220190D01*
X58539285Y-47124952D01*
X58586904Y-47077333D01*
X58682142Y-47029714D01*
X58872619Y-47029714D01*
X58967857Y-47077333D01*
X59444047Y-47696380D02*
X59444047Y-47029714D01*
X59444047Y-47220190D02*
X59491666Y-47124952D01*
X59539285Y-47077333D01*
X59634523Y-47029714D01*
X59729761Y-47029714D01*
X59967857Y-47029714D02*
X60205952Y-47696380D01*
X60444047Y-47029714D02*
X60205952Y-47696380D01*
X60110714Y-47934476D01*
X60063095Y-47982095D01*
X59967857Y-48029714D01*
X61920238Y-47172571D02*
X62063095Y-47220190D01*
X62110714Y-47267809D01*
X62158333Y-47363047D01*
X62158333Y-47505904D01*
X62110714Y-47601142D01*
X62063095Y-47648761D01*
X61967857Y-47696380D01*
X61586904Y-47696380D01*
X61586904Y-46696380D01*
X61920238Y-46696380D01*
X62015476Y-46744000D01*
X62063095Y-46791619D01*
X62110714Y-46886857D01*
X62110714Y-46982095D01*
X62063095Y-47077333D01*
X62015476Y-47124952D01*
X61920238Y-47172571D01*
X61586904Y-47172571D01*
X8336595Y-72017380D02*
X8336595Y-71350714D01*
X8336595Y-71541190D02*
X8384214Y-71445952D01*
X8431833Y-71398333D01*
X8527071Y-71350714D01*
X8622309Y-71350714D01*
X9336595Y-71969761D02*
X9241357Y-72017380D01*
X9050880Y-72017380D01*
X8955642Y-71969761D01*
X8908023Y-71874523D01*
X8908023Y-71493571D01*
X8955642Y-71398333D01*
X9050880Y-71350714D01*
X9241357Y-71350714D01*
X9336595Y-71398333D01*
X9384214Y-71493571D01*
X9384214Y-71588809D01*
X8908023Y-71684047D01*
X9765166Y-71969761D02*
X9860404Y-72017380D01*
X10050880Y-72017380D01*
X10146119Y-71969761D01*
X10193738Y-71874523D01*
X10193738Y-71826904D01*
X10146119Y-71731666D01*
X10050880Y-71684047D01*
X9908023Y-71684047D01*
X9812785Y-71636428D01*
X9765166Y-71541190D01*
X9765166Y-71493571D01*
X9812785Y-71398333D01*
X9908023Y-71350714D01*
X10050880Y-71350714D01*
X10146119Y-71398333D01*
X10622309Y-71922142D02*
X10669928Y-71969761D01*
X10622309Y-72017380D01*
X10574690Y-71969761D01*
X10622309Y-71922142D01*
X10622309Y-72017380D01*
X8908023Y-73572142D02*
X8860404Y-73619761D01*
X8717547Y-73667380D01*
X8622309Y-73667380D01*
X8479452Y-73619761D01*
X8384214Y-73524523D01*
X8336595Y-73429285D01*
X8288976Y-73238809D01*
X8288976Y-73095952D01*
X8336595Y-72905476D01*
X8384214Y-72810238D01*
X8479452Y-72715000D01*
X8622309Y-72667380D01*
X8717547Y-72667380D01*
X8860404Y-72715000D01*
X8908023Y-72762619D01*
X9193738Y-72667380D02*
X9527071Y-73667380D01*
X9860404Y-72667380D01*
X11288976Y-73143571D02*
X11431833Y-73191190D01*
X11479452Y-73238809D01*
X11527071Y-73334047D01*
X11527071Y-73476904D01*
X11479452Y-73572142D01*
X11431833Y-73619761D01*
X11336595Y-73667380D01*
X10955642Y-73667380D01*
X10955642Y-72667380D01*
X11288976Y-72667380D01*
X11384214Y-72715000D01*
X11431833Y-72762619D01*
X11479452Y-72857857D01*
X11479452Y-72953095D01*
X11431833Y-73048333D01*
X11384214Y-73095952D01*
X11288976Y-73143571D01*
X10955642Y-73143571D01*
X5008809Y-47283714D02*
X5199285Y-47950380D01*
X5389761Y-47474190D01*
X5580238Y-47950380D01*
X5770714Y-47283714D01*
X6532619Y-47902761D02*
X6437380Y-47950380D01*
X6246904Y-47950380D01*
X6151666Y-47902761D01*
X6104047Y-47807523D01*
X6104047Y-47426571D01*
X6151666Y-47331333D01*
X6246904Y-47283714D01*
X6437380Y-47283714D01*
X6532619Y-47331333D01*
X6580238Y-47426571D01*
X6580238Y-47521809D01*
X6104047Y-47617047D01*
X6865952Y-47283714D02*
X7246904Y-47283714D01*
X7008809Y-46950380D02*
X7008809Y-47807523D01*
X7056428Y-47902761D01*
X7151666Y-47950380D01*
X7246904Y-47950380D01*
X8675476Y-47426571D02*
X8818333Y-47474190D01*
X8865952Y-47521809D01*
X8913571Y-47617047D01*
X8913571Y-47759904D01*
X8865952Y-47855142D01*
X8818333Y-47902761D01*
X8723095Y-47950380D01*
X8342142Y-47950380D01*
X8342142Y-46950380D01*
X8675476Y-46950380D01*
X8770714Y-46998000D01*
X8818333Y-47045619D01*
X8865952Y-47140857D01*
X8865952Y-47236095D01*
X8818333Y-47331333D01*
X8770714Y-47378952D01*
X8675476Y-47426571D01*
X8342142Y-47426571D01*
X95391785Y-107735714D02*
X95772738Y-107735714D01*
X95534642Y-108402380D02*
X95534642Y-107545238D01*
X95582261Y-107450000D01*
X95677500Y-107402380D01*
X95772738Y-107402380D01*
X96248928Y-108402380D02*
X96153690Y-108354761D01*
X96106071Y-108307142D01*
X96058452Y-108211904D01*
X96058452Y-107926190D01*
X96106071Y-107830952D01*
X96153690Y-107783333D01*
X96248928Y-107735714D01*
X96391785Y-107735714D01*
X96487023Y-107783333D01*
X96534642Y-107830952D01*
X96582261Y-107926190D01*
X96582261Y-108211904D01*
X96534642Y-108307142D01*
X96487023Y-108354761D01*
X96391785Y-108402380D01*
X96248928Y-108402380D01*
X97153690Y-108402380D02*
X97058452Y-108354761D01*
X97010833Y-108307142D01*
X96963214Y-108211904D01*
X96963214Y-107926190D01*
X97010833Y-107830952D01*
X97058452Y-107783333D01*
X97153690Y-107735714D01*
X97296547Y-107735714D01*
X97391785Y-107783333D01*
X97439404Y-107830952D01*
X97487023Y-107926190D01*
X97487023Y-108211904D01*
X97439404Y-108307142D01*
X97391785Y-108354761D01*
X97296547Y-108402380D01*
X97153690Y-108402380D01*
X97772738Y-107735714D02*
X98153690Y-107735714D01*
X97915595Y-107402380D02*
X97915595Y-108259523D01*
X97963214Y-108354761D01*
X98058452Y-108402380D01*
X98153690Y-108402380D01*
X98439404Y-108354761D02*
X98534642Y-108402380D01*
X98725119Y-108402380D01*
X98820357Y-108354761D01*
X98867976Y-108259523D01*
X98867976Y-108211904D01*
X98820357Y-108116666D01*
X98725119Y-108069047D01*
X98582261Y-108069047D01*
X98487023Y-108021428D01*
X98439404Y-107926190D01*
X98439404Y-107878571D01*
X98487023Y-107783333D01*
X98582261Y-107735714D01*
X98725119Y-107735714D01*
X98820357Y-107783333D01*
X99201309Y-107735714D02*
X99391785Y-108402380D01*
X99582261Y-107926190D01*
X99772738Y-108402380D01*
X99963214Y-107735714D01*
X100344166Y-108402380D02*
X100344166Y-107735714D01*
X100344166Y-107402380D02*
X100296547Y-107450000D01*
X100344166Y-107497619D01*
X100391785Y-107450000D01*
X100344166Y-107402380D01*
X100344166Y-107497619D01*
X100677500Y-107735714D02*
X101058452Y-107735714D01*
X100820357Y-107402380D02*
X100820357Y-108259523D01*
X100867976Y-108354761D01*
X100963214Y-108402380D01*
X101058452Y-108402380D01*
X101820357Y-108354761D02*
X101725119Y-108402380D01*
X101534642Y-108402380D01*
X101439404Y-108354761D01*
X101391785Y-108307142D01*
X101344166Y-108211904D01*
X101344166Y-107926190D01*
X101391785Y-107830952D01*
X101439404Y-107783333D01*
X101534642Y-107735714D01*
X101725119Y-107735714D01*
X101820357Y-107783333D01*
X102248928Y-108402380D02*
X102248928Y-107402380D01*
X102677500Y-108402380D02*
X102677500Y-107878571D01*
X102629880Y-107783333D01*
X102534642Y-107735714D01*
X102391785Y-107735714D01*
X102296547Y-107783333D01*
X102248928Y-107830952D01*
X104248928Y-107878571D02*
X104391785Y-107926190D01*
X104439404Y-107973809D01*
X104487023Y-108069047D01*
X104487023Y-108211904D01*
X104439404Y-108307142D01*
X104391785Y-108354761D01*
X104296547Y-108402380D01*
X103915595Y-108402380D01*
X103915595Y-107402380D01*
X104248928Y-107402380D01*
X104344166Y-107450000D01*
X104391785Y-107497619D01*
X104439404Y-107592857D01*
X104439404Y-107688095D01*
X104391785Y-107783333D01*
X104344166Y-107830952D01*
X104248928Y-107878571D01*
X103915595Y-107878571D01*
X36387738Y-107735714D02*
X36768690Y-107735714D01*
X36530595Y-108402380D02*
X36530595Y-107545238D01*
X36578214Y-107450000D01*
X36673452Y-107402380D01*
X36768690Y-107402380D01*
X37244880Y-108402380D02*
X37149642Y-108354761D01*
X37102023Y-108307142D01*
X37054404Y-108211904D01*
X37054404Y-107926190D01*
X37102023Y-107830952D01*
X37149642Y-107783333D01*
X37244880Y-107735714D01*
X37387738Y-107735714D01*
X37482976Y-107783333D01*
X37530595Y-107830952D01*
X37578214Y-107926190D01*
X37578214Y-108211904D01*
X37530595Y-108307142D01*
X37482976Y-108354761D01*
X37387738Y-108402380D01*
X37244880Y-108402380D01*
X38149642Y-108402380D02*
X38054404Y-108354761D01*
X38006785Y-108307142D01*
X37959166Y-108211904D01*
X37959166Y-107926190D01*
X38006785Y-107830952D01*
X38054404Y-107783333D01*
X38149642Y-107735714D01*
X38292500Y-107735714D01*
X38387738Y-107783333D01*
X38435357Y-107830952D01*
X38482976Y-107926190D01*
X38482976Y-108211904D01*
X38435357Y-108307142D01*
X38387738Y-108354761D01*
X38292500Y-108402380D01*
X38149642Y-108402380D01*
X38768690Y-107735714D02*
X39149642Y-107735714D01*
X38911547Y-107402380D02*
X38911547Y-108259523D01*
X38959166Y-108354761D01*
X39054404Y-108402380D01*
X39149642Y-108402380D01*
X39435357Y-108354761D02*
X39530595Y-108402380D01*
X39721071Y-108402380D01*
X39816309Y-108354761D01*
X39863928Y-108259523D01*
X39863928Y-108211904D01*
X39816309Y-108116666D01*
X39721071Y-108069047D01*
X39578214Y-108069047D01*
X39482976Y-108021428D01*
X39435357Y-107926190D01*
X39435357Y-107878571D01*
X39482976Y-107783333D01*
X39578214Y-107735714D01*
X39721071Y-107735714D01*
X39816309Y-107783333D01*
X40197261Y-107735714D02*
X40387738Y-108402380D01*
X40578214Y-107926190D01*
X40768690Y-108402380D01*
X40959166Y-107735714D01*
X41340119Y-108402380D02*
X41340119Y-107735714D01*
X41340119Y-107402380D02*
X41292500Y-107450000D01*
X41340119Y-107497619D01*
X41387738Y-107450000D01*
X41340119Y-107402380D01*
X41340119Y-107497619D01*
X41673452Y-107735714D02*
X42054404Y-107735714D01*
X41816309Y-107402380D02*
X41816309Y-108259523D01*
X41863928Y-108354761D01*
X41959166Y-108402380D01*
X42054404Y-108402380D01*
X42816309Y-108354761D02*
X42721071Y-108402380D01*
X42530595Y-108402380D01*
X42435357Y-108354761D01*
X42387738Y-108307142D01*
X42340119Y-108211904D01*
X42340119Y-107926190D01*
X42387738Y-107830952D01*
X42435357Y-107783333D01*
X42530595Y-107735714D01*
X42721071Y-107735714D01*
X42816309Y-107783333D01*
X43244880Y-108402380D02*
X43244880Y-107402380D01*
X43673452Y-108402380D02*
X43673452Y-107878571D01*
X43625833Y-107783333D01*
X43530595Y-107735714D01*
X43387738Y-107735714D01*
X43292500Y-107783333D01*
X43244880Y-107830952D01*
X44863928Y-108116666D02*
X45340119Y-108116666D01*
X44768690Y-108402380D02*
X45102023Y-107402380D01*
X45435357Y-108402380D01*
X99441190Y-103322380D02*
X98965000Y-103322380D01*
X98965000Y-102322380D01*
X99774523Y-102798571D02*
X100107857Y-102798571D01*
X100250714Y-103322380D02*
X99774523Y-103322380D01*
X99774523Y-102322380D01*
X100250714Y-102322380D01*
X100679285Y-103322380D02*
X100679285Y-102322380D01*
X100917380Y-102322380D01*
X101060238Y-102370000D01*
X101155476Y-102465238D01*
X101203095Y-102560476D01*
X101250714Y-102750952D01*
X101250714Y-102893809D01*
X101203095Y-103084285D01*
X101155476Y-103179523D01*
X101060238Y-103274761D01*
X100917380Y-103322380D01*
X100679285Y-103322380D01*
X102774523Y-102798571D02*
X102917380Y-102846190D01*
X102965000Y-102893809D01*
X103012619Y-102989047D01*
X103012619Y-103131904D01*
X102965000Y-103227142D01*
X102917380Y-103274761D01*
X102822142Y-103322380D01*
X102441190Y-103322380D01*
X102441190Y-102322380D01*
X102774523Y-102322380D01*
X102869761Y-102370000D01*
X102917380Y-102417619D01*
X102965000Y-102512857D01*
X102965000Y-102608095D01*
X102917380Y-102703333D01*
X102869761Y-102750952D01*
X102774523Y-102798571D01*
X102441190Y-102798571D01*
X38552619Y-103322380D02*
X38076428Y-103322380D01*
X38076428Y-102322380D01*
X38885952Y-102798571D02*
X39219285Y-102798571D01*
X39362142Y-103322380D02*
X38885952Y-103322380D01*
X38885952Y-102322380D01*
X39362142Y-102322380D01*
X39790714Y-103322380D02*
X39790714Y-102322380D01*
X40028809Y-102322380D01*
X40171666Y-102370000D01*
X40266904Y-102465238D01*
X40314523Y-102560476D01*
X40362142Y-102750952D01*
X40362142Y-102893809D01*
X40314523Y-103084285D01*
X40266904Y-103179523D01*
X40171666Y-103274761D01*
X40028809Y-103322380D01*
X39790714Y-103322380D01*
X41505000Y-103036666D02*
X41981190Y-103036666D01*
X41409761Y-103322380D02*
X41743095Y-102322380D01*
X42076428Y-103322380D01*
X49514523Y-8326428D02*
X50276428Y-8326428D01*
X49895476Y-8707380D02*
X49895476Y-7945476D01*
X50800238Y-8707380D02*
X50990714Y-8707380D01*
X51085952Y-8659761D01*
X51133571Y-8612142D01*
X51228809Y-8469285D01*
X51276428Y-8278809D01*
X51276428Y-7897857D01*
X51228809Y-7802619D01*
X51181190Y-7755000D01*
X51085952Y-7707380D01*
X50895476Y-7707380D01*
X50800238Y-7755000D01*
X50752619Y-7802619D01*
X50705000Y-7897857D01*
X50705000Y-8135952D01*
X50752619Y-8231190D01*
X50800238Y-8278809D01*
X50895476Y-8326428D01*
X51085952Y-8326428D01*
X51181190Y-8278809D01*
X51228809Y-8231190D01*
X51276428Y-8135952D01*
X51609761Y-8040714D02*
X51847857Y-8707380D01*
X52085952Y-8040714D01*
X52895476Y-8707380D02*
X52895476Y-7707380D01*
X52895476Y-8659761D02*
X52800238Y-8707380D01*
X52609761Y-8707380D01*
X52514523Y-8659761D01*
X52466904Y-8612142D01*
X52419285Y-8516904D01*
X52419285Y-8231190D01*
X52466904Y-8135952D01*
X52514523Y-8088333D01*
X52609761Y-8040714D01*
X52800238Y-8040714D01*
X52895476Y-8088333D01*
X53800238Y-8659761D02*
X53705000Y-8707380D01*
X53514523Y-8707380D01*
X53419285Y-8659761D01*
X53371666Y-8612142D01*
X53324047Y-8516904D01*
X53324047Y-8231190D01*
X53371666Y-8135952D01*
X53419285Y-8088333D01*
X53514523Y-8040714D01*
X53705000Y-8040714D01*
X53800238Y-8088333D01*
X54990714Y-8707380D02*
X54990714Y-8040714D01*
X54990714Y-7707380D02*
X54943095Y-7755000D01*
X54990714Y-7802619D01*
X55038333Y-7755000D01*
X54990714Y-7707380D01*
X54990714Y-7802619D01*
X55466904Y-8040714D02*
X55466904Y-8707380D01*
X55466904Y-8135952D02*
X55514523Y-8088333D01*
X55609761Y-8040714D01*
X55752619Y-8040714D01*
X55847857Y-8088333D01*
X55895476Y-8183571D01*
X55895476Y-8707380D01*
X17391666Y-14374761D02*
X17296428Y-14422380D01*
X17105952Y-14422380D01*
X17010714Y-14374761D01*
X16963095Y-14279523D01*
X16963095Y-13898571D01*
X17010714Y-13803333D01*
X17105952Y-13755714D01*
X17296428Y-13755714D01*
X17391666Y-13803333D01*
X17439285Y-13898571D01*
X17439285Y-13993809D01*
X16963095Y-14089047D01*
X17772619Y-14422380D02*
X18296428Y-13755714D01*
X17772619Y-13755714D02*
X18296428Y-14422380D01*
X18677380Y-13755714D02*
X18677380Y-14755714D01*
X18677380Y-13803333D02*
X18772619Y-13755714D01*
X18963095Y-13755714D01*
X19058333Y-13803333D01*
X19105952Y-13850952D01*
X19153571Y-13946190D01*
X19153571Y-14231904D01*
X19105952Y-14327142D01*
X19058333Y-14374761D01*
X18963095Y-14422380D01*
X18772619Y-14422380D01*
X18677380Y-14374761D01*
X19582142Y-14327142D02*
X19629761Y-14374761D01*
X19582142Y-14422380D01*
X19534523Y-14374761D01*
X19582142Y-14327142D01*
X19582142Y-14422380D01*
X21248809Y-14374761D02*
X21153571Y-14422380D01*
X20963095Y-14422380D01*
X20867857Y-14374761D01*
X20820238Y-14327142D01*
X20772619Y-14231904D01*
X20772619Y-13946190D01*
X20820238Y-13850952D01*
X20867857Y-13803333D01*
X20963095Y-13755714D01*
X21153571Y-13755714D01*
X21248809Y-13803333D01*
X22105952Y-13755714D02*
X22105952Y-14422380D01*
X21677380Y-13755714D02*
X21677380Y-14279523D01*
X21725000Y-14374761D01*
X21820238Y-14422380D01*
X21963095Y-14422380D01*
X22058333Y-14374761D01*
X22105952Y-14327142D01*
X22582142Y-14422380D02*
X22582142Y-13755714D01*
X22582142Y-13946190D02*
X22629761Y-13850952D01*
X22677380Y-13803333D01*
X22772619Y-13755714D01*
X22867857Y-13755714D01*
X23201190Y-14422380D02*
X23201190Y-13755714D01*
X23201190Y-13946190D02*
X23248809Y-13850952D01*
X23296428Y-13803333D01*
X23391666Y-13755714D01*
X23486904Y-13755714D01*
X24201190Y-14374761D02*
X24105952Y-14422380D01*
X23915476Y-14422380D01*
X23820238Y-14374761D01*
X23772619Y-14279523D01*
X23772619Y-13898571D01*
X23820238Y-13803333D01*
X23915476Y-13755714D01*
X24105952Y-13755714D01*
X24201190Y-13803333D01*
X24248809Y-13898571D01*
X24248809Y-13993809D01*
X23772619Y-14089047D01*
X24677380Y-13755714D02*
X24677380Y-14422380D01*
X24677380Y-13850952D02*
X24725000Y-13803333D01*
X24820238Y-13755714D01*
X24963095Y-13755714D01*
X25058333Y-13803333D01*
X25105952Y-13898571D01*
X25105952Y-14422380D01*
X25439285Y-13755714D02*
X25820238Y-13755714D01*
X25582142Y-13422380D02*
X25582142Y-14279523D01*
X25629761Y-14374761D01*
X25725000Y-14422380D01*
X25820238Y-14422380D01*
X27248809Y-13898571D02*
X27391666Y-13946190D01*
X27439285Y-13993809D01*
X27486904Y-14089047D01*
X27486904Y-14231904D01*
X27439285Y-14327142D01*
X27391666Y-14374761D01*
X27296428Y-14422380D01*
X26915476Y-14422380D01*
X26915476Y-13422380D01*
X27248809Y-13422380D01*
X27344047Y-13470000D01*
X27391666Y-13517619D01*
X27439285Y-13612857D01*
X27439285Y-13708095D01*
X27391666Y-13803333D01*
X27344047Y-13850952D01*
X27248809Y-13898571D01*
X26915476Y-13898571D01*
X35243095Y-14374761D02*
X35147857Y-14422380D01*
X34957380Y-14422380D01*
X34862142Y-14374761D01*
X34814523Y-14279523D01*
X34814523Y-13898571D01*
X34862142Y-13803333D01*
X34957380Y-13755714D01*
X35147857Y-13755714D01*
X35243095Y-13803333D01*
X35290714Y-13898571D01*
X35290714Y-13993809D01*
X34814523Y-14089047D01*
X35624047Y-14422380D02*
X36147857Y-13755714D01*
X35624047Y-13755714D02*
X36147857Y-14422380D01*
X36528809Y-13755714D02*
X36528809Y-14755714D01*
X36528809Y-13803333D02*
X36624047Y-13755714D01*
X36814523Y-13755714D01*
X36909761Y-13803333D01*
X36957380Y-13850952D01*
X37005000Y-13946190D01*
X37005000Y-14231904D01*
X36957380Y-14327142D01*
X36909761Y-14374761D01*
X36814523Y-14422380D01*
X36624047Y-14422380D01*
X36528809Y-14374761D01*
X37433571Y-14327142D02*
X37481190Y-14374761D01*
X37433571Y-14422380D01*
X37385952Y-14374761D01*
X37433571Y-14327142D01*
X37433571Y-14422380D01*
X39100238Y-14374761D02*
X39005000Y-14422380D01*
X38814523Y-14422380D01*
X38719285Y-14374761D01*
X38671666Y-14327142D01*
X38624047Y-14231904D01*
X38624047Y-13946190D01*
X38671666Y-13850952D01*
X38719285Y-13803333D01*
X38814523Y-13755714D01*
X39005000Y-13755714D01*
X39100238Y-13803333D01*
X39957380Y-13755714D02*
X39957380Y-14422380D01*
X39528809Y-13755714D02*
X39528809Y-14279523D01*
X39576428Y-14374761D01*
X39671666Y-14422380D01*
X39814523Y-14422380D01*
X39909761Y-14374761D01*
X39957380Y-14327142D01*
X40433571Y-14422380D02*
X40433571Y-13755714D01*
X40433571Y-13946190D02*
X40481190Y-13850952D01*
X40528809Y-13803333D01*
X40624047Y-13755714D01*
X40719285Y-13755714D01*
X41052619Y-14422380D02*
X41052619Y-13755714D01*
X41052619Y-13946190D02*
X41100238Y-13850952D01*
X41147857Y-13803333D01*
X41243095Y-13755714D01*
X41338333Y-13755714D01*
X42052619Y-14374761D02*
X41957380Y-14422380D01*
X41766904Y-14422380D01*
X41671666Y-14374761D01*
X41624047Y-14279523D01*
X41624047Y-13898571D01*
X41671666Y-13803333D01*
X41766904Y-13755714D01*
X41957380Y-13755714D01*
X42052619Y-13803333D01*
X42100238Y-13898571D01*
X42100238Y-13993809D01*
X41624047Y-14089047D01*
X42528809Y-13755714D02*
X42528809Y-14422380D01*
X42528809Y-13850952D02*
X42576428Y-13803333D01*
X42671666Y-13755714D01*
X42814523Y-13755714D01*
X42909761Y-13803333D01*
X42957380Y-13898571D01*
X42957380Y-14422380D01*
X43290714Y-13755714D02*
X43671666Y-13755714D01*
X43433571Y-13422380D02*
X43433571Y-14279523D01*
X43481190Y-14374761D01*
X43576428Y-14422380D01*
X43671666Y-14422380D01*
X44719285Y-14136666D02*
X45195476Y-14136666D01*
X44624047Y-14422380D02*
X44957380Y-13422380D01*
X45290714Y-14422380D01*
X20153571Y-20677142D02*
X20105952Y-20724761D01*
X19963095Y-20772380D01*
X19867857Y-20772380D01*
X19725000Y-20724761D01*
X19629761Y-20629523D01*
X19582142Y-20534285D01*
X19534523Y-20343809D01*
X19534523Y-20200952D01*
X19582142Y-20010476D01*
X19629761Y-19915238D01*
X19725000Y-19820000D01*
X19867857Y-19772380D01*
X19963095Y-19772380D01*
X20105952Y-19820000D01*
X20153571Y-19867619D01*
X20439285Y-19772380D02*
X20772619Y-20772380D01*
X21105952Y-19772380D01*
X22201190Y-20772380D02*
X22201190Y-20105714D01*
X22201190Y-19772380D02*
X22153571Y-19820000D01*
X22201190Y-19867619D01*
X22248809Y-19820000D01*
X22201190Y-19772380D01*
X22201190Y-19867619D01*
X22677380Y-20105714D02*
X22677380Y-20772380D01*
X22677380Y-20200952D02*
X22725000Y-20153333D01*
X22820238Y-20105714D01*
X22963095Y-20105714D01*
X23058333Y-20153333D01*
X23105952Y-20248571D01*
X23105952Y-20772380D01*
X24677380Y-20248571D02*
X24820238Y-20296190D01*
X24867857Y-20343809D01*
X24915476Y-20439047D01*
X24915476Y-20581904D01*
X24867857Y-20677142D01*
X24820238Y-20724761D01*
X24725000Y-20772380D01*
X24344047Y-20772380D01*
X24344047Y-19772380D01*
X24677380Y-19772380D01*
X24772619Y-19820000D01*
X24820238Y-19867619D01*
X24867857Y-19962857D01*
X24867857Y-20058095D01*
X24820238Y-20153333D01*
X24772619Y-20200952D01*
X24677380Y-20248571D01*
X24344047Y-20248571D01*
X38005000Y-20677142D02*
X37957380Y-20724761D01*
X37814523Y-20772380D01*
X37719285Y-20772380D01*
X37576428Y-20724761D01*
X37481190Y-20629523D01*
X37433571Y-20534285D01*
X37385952Y-20343809D01*
X37385952Y-20200952D01*
X37433571Y-20010476D01*
X37481190Y-19915238D01*
X37576428Y-19820000D01*
X37719285Y-19772380D01*
X37814523Y-19772380D01*
X37957380Y-19820000D01*
X38005000Y-19867619D01*
X38290714Y-19772380D02*
X38624047Y-20772380D01*
X38957380Y-19772380D01*
X40052619Y-20772380D02*
X40052619Y-20105714D01*
X40052619Y-19772380D02*
X40005000Y-19820000D01*
X40052619Y-19867619D01*
X40100238Y-19820000D01*
X40052619Y-19772380D01*
X40052619Y-19867619D01*
X40528809Y-20105714D02*
X40528809Y-20772380D01*
X40528809Y-20200952D02*
X40576428Y-20153333D01*
X40671666Y-20105714D01*
X40814523Y-20105714D01*
X40909761Y-20153333D01*
X40957380Y-20248571D01*
X40957380Y-20772380D01*
X42147857Y-20486666D02*
X42624047Y-20486666D01*
X42052619Y-20772380D02*
X42385952Y-19772380D01*
X42719285Y-20772380D01*
X75144523Y-20772380D02*
X75049285Y-20724761D01*
X75001666Y-20677142D01*
X74954047Y-20581904D01*
X74954047Y-20296190D01*
X75001666Y-20200952D01*
X75049285Y-20153333D01*
X75144523Y-20105714D01*
X75287380Y-20105714D01*
X75382619Y-20153333D01*
X75430238Y-20200952D01*
X75477857Y-20296190D01*
X75477857Y-20581904D01*
X75430238Y-20677142D01*
X75382619Y-20724761D01*
X75287380Y-20772380D01*
X75144523Y-20772380D01*
X76335000Y-20105714D02*
X76335000Y-20772380D01*
X75906428Y-20105714D02*
X75906428Y-20629523D01*
X75954047Y-20724761D01*
X76049285Y-20772380D01*
X76192142Y-20772380D01*
X76287380Y-20724761D01*
X76335000Y-20677142D01*
X76668333Y-20105714D02*
X77049285Y-20105714D01*
X76811190Y-19772380D02*
X76811190Y-20629523D01*
X76858809Y-20724761D01*
X76954047Y-20772380D01*
X77049285Y-20772380D01*
X78477857Y-20248571D02*
X78620714Y-20296190D01*
X78668333Y-20343809D01*
X78715952Y-20439047D01*
X78715952Y-20581904D01*
X78668333Y-20677142D01*
X78620714Y-20724761D01*
X78525476Y-20772380D01*
X78144523Y-20772380D01*
X78144523Y-19772380D01*
X78477857Y-19772380D01*
X78573095Y-19820000D01*
X78620714Y-19867619D01*
X78668333Y-19962857D01*
X78668333Y-20058095D01*
X78620714Y-20153333D01*
X78573095Y-20200952D01*
X78477857Y-20248571D01*
X78144523Y-20248571D01*
X93281666Y-20772380D02*
X93281666Y-20105714D01*
X93281666Y-19772380D02*
X93234047Y-19820000D01*
X93281666Y-19867619D01*
X93329285Y-19820000D01*
X93281666Y-19772380D01*
X93281666Y-19867619D01*
X93757857Y-20105714D02*
X93757857Y-20772380D01*
X93757857Y-20200952D02*
X93805476Y-20153333D01*
X93900714Y-20105714D01*
X94043571Y-20105714D01*
X94138809Y-20153333D01*
X94186428Y-20248571D01*
X94186428Y-20772380D01*
X95757857Y-20248571D02*
X95900714Y-20296190D01*
X95948333Y-20343809D01*
X95995952Y-20439047D01*
X95995952Y-20581904D01*
X95948333Y-20677142D01*
X95900714Y-20724761D01*
X95805476Y-20772380D01*
X95424523Y-20772380D01*
X95424523Y-19772380D01*
X95757857Y-19772380D01*
X95853095Y-19820000D01*
X95900714Y-19867619D01*
X95948333Y-19962857D01*
X95948333Y-20058095D01*
X95900714Y-20153333D01*
X95853095Y-20200952D01*
X95757857Y-20248571D01*
X95424523Y-20248571D01*
X110775952Y-20772380D02*
X110680714Y-20724761D01*
X110633095Y-20677142D01*
X110585476Y-20581904D01*
X110585476Y-20296190D01*
X110633095Y-20200952D01*
X110680714Y-20153333D01*
X110775952Y-20105714D01*
X110918809Y-20105714D01*
X111014047Y-20153333D01*
X111061666Y-20200952D01*
X111109285Y-20296190D01*
X111109285Y-20581904D01*
X111061666Y-20677142D01*
X111014047Y-20724761D01*
X110918809Y-20772380D01*
X110775952Y-20772380D01*
X111966428Y-20105714D02*
X111966428Y-20772380D01*
X111537857Y-20105714D02*
X111537857Y-20629523D01*
X111585476Y-20724761D01*
X111680714Y-20772380D01*
X111823571Y-20772380D01*
X111918809Y-20724761D01*
X111966428Y-20677142D01*
X112299761Y-20105714D02*
X112680714Y-20105714D01*
X112442619Y-19772380D02*
X112442619Y-20629523D01*
X112490238Y-20724761D01*
X112585476Y-20772380D01*
X112680714Y-20772380D01*
X113728333Y-20486666D02*
X114204523Y-20486666D01*
X113633095Y-20772380D02*
X113966428Y-19772380D01*
X114299761Y-20772380D01*
X128913095Y-20772380D02*
X128913095Y-20105714D01*
X128913095Y-19772380D02*
X128865476Y-19820000D01*
X128913095Y-19867619D01*
X128960714Y-19820000D01*
X128913095Y-19772380D01*
X128913095Y-19867619D01*
X129389285Y-20105714D02*
X129389285Y-20772380D01*
X129389285Y-20200952D02*
X129436904Y-20153333D01*
X129532142Y-20105714D01*
X129675000Y-20105714D01*
X129770238Y-20153333D01*
X129817857Y-20248571D01*
X129817857Y-20772380D01*
X131008333Y-20486666D02*
X131484523Y-20486666D01*
X130913095Y-20772380D02*
X131246428Y-19772380D01*
X131579761Y-20772380D01*
X121118809Y-74112380D02*
X120642619Y-74112380D01*
X120642619Y-73112380D01*
X121785476Y-73588571D02*
X121452142Y-73588571D01*
X121452142Y-74112380D02*
X121452142Y-73112380D01*
X121928333Y-73112380D01*
X122499761Y-73112380D02*
X122690238Y-73112380D01*
X122785476Y-73160000D01*
X122880714Y-73255238D01*
X122928333Y-73445714D01*
X122928333Y-73779047D01*
X122880714Y-73969523D01*
X122785476Y-74064761D01*
X122690238Y-74112380D01*
X122499761Y-74112380D01*
X122404523Y-74064761D01*
X122309285Y-73969523D01*
X122261666Y-73779047D01*
X122261666Y-73445714D01*
X122309285Y-73255238D01*
X122404523Y-73160000D01*
X122499761Y-73112380D01*
X124452142Y-73588571D02*
X124595000Y-73636190D01*
X124642619Y-73683809D01*
X124690238Y-73779047D01*
X124690238Y-73921904D01*
X124642619Y-74017142D01*
X124595000Y-74064761D01*
X124499761Y-74112380D01*
X124118809Y-74112380D01*
X124118809Y-73112380D01*
X124452142Y-73112380D01*
X124547380Y-73160000D01*
X124595000Y-73207619D01*
X124642619Y-73302857D01*
X124642619Y-73398095D01*
X124595000Y-73493333D01*
X124547380Y-73540952D01*
X124452142Y-73588571D01*
X124118809Y-73588571D01*
X126309285Y-74112380D02*
X126309285Y-73112380D01*
X126309285Y-74064761D02*
X126214047Y-74112380D01*
X126023571Y-74112380D01*
X125928333Y-74064761D01*
X125880714Y-74017142D01*
X125833095Y-73921904D01*
X125833095Y-73636190D01*
X125880714Y-73540952D01*
X125928333Y-73493333D01*
X126023571Y-73445714D01*
X126214047Y-73445714D01*
X126309285Y-73493333D01*
X127166428Y-74064761D02*
X127071190Y-74112380D01*
X126880714Y-74112380D01*
X126785476Y-74064761D01*
X126737857Y-73969523D01*
X126737857Y-73588571D01*
X126785476Y-73493333D01*
X126880714Y-73445714D01*
X127071190Y-73445714D01*
X127166428Y-73493333D01*
X127214047Y-73588571D01*
X127214047Y-73683809D01*
X126737857Y-73779047D01*
X127642619Y-73445714D02*
X127642619Y-74445714D01*
X127642619Y-73493333D02*
X127737857Y-73445714D01*
X127928333Y-73445714D01*
X128023571Y-73493333D01*
X128071190Y-73540952D01*
X128118809Y-73636190D01*
X128118809Y-73921904D01*
X128071190Y-74017142D01*
X128023571Y-74064761D01*
X127928333Y-74112380D01*
X127737857Y-74112380D01*
X127642619Y-74064761D01*
X128404523Y-73445714D02*
X128785476Y-73445714D01*
X128547380Y-73112380D02*
X128547380Y-73969523D01*
X128595000Y-74064761D01*
X128690238Y-74112380D01*
X128785476Y-74112380D01*
X129118809Y-74112380D02*
X129118809Y-73112380D01*
X129547380Y-74112380D02*
X129547380Y-73588571D01*
X129499761Y-73493333D01*
X129404523Y-73445714D01*
X129261666Y-73445714D01*
X129166428Y-73493333D01*
X129118809Y-73540952D01*
X120999761Y-52522380D02*
X120523571Y-52522380D01*
X120523571Y-51522380D01*
X121666428Y-51998571D02*
X121333095Y-51998571D01*
X121333095Y-52522380D02*
X121333095Y-51522380D01*
X121809285Y-51522380D01*
X122380714Y-51522380D02*
X122571190Y-51522380D01*
X122666428Y-51570000D01*
X122761666Y-51665238D01*
X122809285Y-51855714D01*
X122809285Y-52189047D01*
X122761666Y-52379523D01*
X122666428Y-52474761D01*
X122571190Y-52522380D01*
X122380714Y-52522380D01*
X122285476Y-52474761D01*
X122190238Y-52379523D01*
X122142619Y-52189047D01*
X122142619Y-51855714D01*
X122190238Y-51665238D01*
X122285476Y-51570000D01*
X122380714Y-51522380D01*
X124333095Y-51998571D02*
X124475952Y-52046190D01*
X124523571Y-52093809D01*
X124571190Y-52189047D01*
X124571190Y-52331904D01*
X124523571Y-52427142D01*
X124475952Y-52474761D01*
X124380714Y-52522380D01*
X123999761Y-52522380D01*
X123999761Y-51522380D01*
X124333095Y-51522380D01*
X124428333Y-51570000D01*
X124475952Y-51617619D01*
X124523571Y-51712857D01*
X124523571Y-51808095D01*
X124475952Y-51903333D01*
X124428333Y-51950952D01*
X124333095Y-51998571D01*
X123999761Y-51998571D01*
X125714047Y-52474761D02*
X125809285Y-52522380D01*
X125999761Y-52522380D01*
X126095000Y-52474761D01*
X126142619Y-52379523D01*
X126142619Y-52331904D01*
X126095000Y-52236666D01*
X125999761Y-52189047D01*
X125856904Y-52189047D01*
X125761666Y-52141428D01*
X125714047Y-52046190D01*
X125714047Y-51998571D01*
X125761666Y-51903333D01*
X125856904Y-51855714D01*
X125999761Y-51855714D01*
X126095000Y-51903333D01*
X126571190Y-52522380D02*
X126571190Y-51522380D01*
X126999761Y-52522380D02*
X126999761Y-51998571D01*
X126952142Y-51903333D01*
X126856904Y-51855714D01*
X126714047Y-51855714D01*
X126618809Y-51903333D01*
X126571190Y-51950952D01*
X127904523Y-52522380D02*
X127904523Y-51998571D01*
X127856904Y-51903333D01*
X127761666Y-51855714D01*
X127571190Y-51855714D01*
X127475952Y-51903333D01*
X127904523Y-52474761D02*
X127809285Y-52522380D01*
X127571190Y-52522380D01*
X127475952Y-52474761D01*
X127428333Y-52379523D01*
X127428333Y-52284285D01*
X127475952Y-52189047D01*
X127571190Y-52141428D01*
X127809285Y-52141428D01*
X127904523Y-52093809D01*
X128380714Y-51855714D02*
X128380714Y-52855714D01*
X128380714Y-51903333D02*
X128475952Y-51855714D01*
X128666428Y-51855714D01*
X128761666Y-51903333D01*
X128809285Y-51950952D01*
X128856904Y-52046190D01*
X128856904Y-52331904D01*
X128809285Y-52427142D01*
X128761666Y-52474761D01*
X128666428Y-52522380D01*
X128475952Y-52522380D01*
X128380714Y-52474761D01*
X129666428Y-52474761D02*
X129571190Y-52522380D01*
X129380714Y-52522380D01*
X129285476Y-52474761D01*
X129237857Y-52379523D01*
X129237857Y-51998571D01*
X129285476Y-51903333D01*
X129380714Y-51855714D01*
X129571190Y-51855714D01*
X129666428Y-51903333D01*
X129714047Y-51998571D01*
X129714047Y-52093809D01*
X129237857Y-52189047D01*
X121714047Y-30932380D02*
X121237857Y-30932380D01*
X121237857Y-29932380D01*
X122380714Y-30408571D02*
X122047380Y-30408571D01*
X122047380Y-30932380D02*
X122047380Y-29932380D01*
X122523571Y-29932380D01*
X123095000Y-29932380D02*
X123285476Y-29932380D01*
X123380714Y-29980000D01*
X123475952Y-30075238D01*
X123523571Y-30265714D01*
X123523571Y-30599047D01*
X123475952Y-30789523D01*
X123380714Y-30884761D01*
X123285476Y-30932380D01*
X123095000Y-30932380D01*
X122999761Y-30884761D01*
X122904523Y-30789523D01*
X122856904Y-30599047D01*
X122856904Y-30265714D01*
X122904523Y-30075238D01*
X122999761Y-29980000D01*
X123095000Y-29932380D01*
X125047380Y-30408571D02*
X125190238Y-30456190D01*
X125237857Y-30503809D01*
X125285476Y-30599047D01*
X125285476Y-30741904D01*
X125237857Y-30837142D01*
X125190238Y-30884761D01*
X125095000Y-30932380D01*
X124714047Y-30932380D01*
X124714047Y-29932380D01*
X125047380Y-29932380D01*
X125142619Y-29980000D01*
X125190238Y-30027619D01*
X125237857Y-30122857D01*
X125237857Y-30218095D01*
X125190238Y-30313333D01*
X125142619Y-30360952D01*
X125047380Y-30408571D01*
X124714047Y-30408571D01*
X126475952Y-30932380D02*
X126475952Y-30265714D01*
X126475952Y-30456190D02*
X126523571Y-30360952D01*
X126571190Y-30313333D01*
X126666428Y-30265714D01*
X126761666Y-30265714D01*
X127523571Y-30932380D02*
X127523571Y-30408571D01*
X127475952Y-30313333D01*
X127380714Y-30265714D01*
X127190238Y-30265714D01*
X127095000Y-30313333D01*
X127523571Y-30884761D02*
X127428333Y-30932380D01*
X127190238Y-30932380D01*
X127095000Y-30884761D01*
X127047380Y-30789523D01*
X127047380Y-30694285D01*
X127095000Y-30599047D01*
X127190238Y-30551428D01*
X127428333Y-30551428D01*
X127523571Y-30503809D01*
X127856904Y-30265714D02*
X128237857Y-30265714D01*
X127999761Y-29932380D02*
X127999761Y-30789523D01*
X128047380Y-30884761D01*
X128142619Y-30932380D01*
X128237857Y-30932380D01*
X128952142Y-30884761D02*
X128856904Y-30932380D01*
X128666428Y-30932380D01*
X128571190Y-30884761D01*
X128523571Y-30789523D01*
X128523571Y-30408571D01*
X128571190Y-30313333D01*
X128666428Y-30265714D01*
X128856904Y-30265714D01*
X128952142Y-30313333D01*
X128999761Y-30408571D01*
X128999761Y-30503809D01*
X128523571Y-30599047D01*
X94520238Y-74112380D02*
X94044047Y-74112380D01*
X94044047Y-73112380D01*
X95186904Y-73588571D02*
X94853571Y-73588571D01*
X94853571Y-74112380D02*
X94853571Y-73112380D01*
X95329761Y-73112380D01*
X95901190Y-73112380D02*
X96091666Y-73112380D01*
X96186904Y-73160000D01*
X96282142Y-73255238D01*
X96329761Y-73445714D01*
X96329761Y-73779047D01*
X96282142Y-73969523D01*
X96186904Y-74064761D01*
X96091666Y-74112380D01*
X95901190Y-74112380D01*
X95805952Y-74064761D01*
X95710714Y-73969523D01*
X95663095Y-73779047D01*
X95663095Y-73445714D01*
X95710714Y-73255238D01*
X95805952Y-73160000D01*
X95901190Y-73112380D01*
X97472619Y-73826666D02*
X97948809Y-73826666D01*
X97377380Y-74112380D02*
X97710714Y-73112380D01*
X98044047Y-74112380D01*
X99567857Y-74112380D02*
X99567857Y-73112380D01*
X99567857Y-74064761D02*
X99472619Y-74112380D01*
X99282142Y-74112380D01*
X99186904Y-74064761D01*
X99139285Y-74017142D01*
X99091666Y-73921904D01*
X99091666Y-73636190D01*
X99139285Y-73540952D01*
X99186904Y-73493333D01*
X99282142Y-73445714D01*
X99472619Y-73445714D01*
X99567857Y-73493333D01*
X100425000Y-74064761D02*
X100329761Y-74112380D01*
X100139285Y-74112380D01*
X100044047Y-74064761D01*
X99996428Y-73969523D01*
X99996428Y-73588571D01*
X100044047Y-73493333D01*
X100139285Y-73445714D01*
X100329761Y-73445714D01*
X100425000Y-73493333D01*
X100472619Y-73588571D01*
X100472619Y-73683809D01*
X99996428Y-73779047D01*
X100901190Y-73445714D02*
X100901190Y-74445714D01*
X100901190Y-73493333D02*
X100996428Y-73445714D01*
X101186904Y-73445714D01*
X101282142Y-73493333D01*
X101329761Y-73540952D01*
X101377380Y-73636190D01*
X101377380Y-73921904D01*
X101329761Y-74017142D01*
X101282142Y-74064761D01*
X101186904Y-74112380D01*
X100996428Y-74112380D01*
X100901190Y-74064761D01*
X101663095Y-73445714D02*
X102044047Y-73445714D01*
X101805952Y-73112380D02*
X101805952Y-73969523D01*
X101853571Y-74064761D01*
X101948809Y-74112380D01*
X102044047Y-74112380D01*
X102377380Y-74112380D02*
X102377380Y-73112380D01*
X102805952Y-74112380D02*
X102805952Y-73588571D01*
X102758333Y-73493333D01*
X102663095Y-73445714D01*
X102520238Y-73445714D01*
X102425000Y-73493333D01*
X102377380Y-73540952D01*
X94401190Y-52522380D02*
X93925000Y-52522380D01*
X93925000Y-51522380D01*
X95067857Y-51998571D02*
X94734523Y-51998571D01*
X94734523Y-52522380D02*
X94734523Y-51522380D01*
X95210714Y-51522380D01*
X95782142Y-51522380D02*
X95972619Y-51522380D01*
X96067857Y-51570000D01*
X96163095Y-51665238D01*
X96210714Y-51855714D01*
X96210714Y-52189047D01*
X96163095Y-52379523D01*
X96067857Y-52474761D01*
X95972619Y-52522380D01*
X95782142Y-52522380D01*
X95686904Y-52474761D01*
X95591666Y-52379523D01*
X95544047Y-52189047D01*
X95544047Y-51855714D01*
X95591666Y-51665238D01*
X95686904Y-51570000D01*
X95782142Y-51522380D01*
X97353571Y-52236666D02*
X97829761Y-52236666D01*
X97258333Y-52522380D02*
X97591666Y-51522380D01*
X97925000Y-52522380D01*
X98972619Y-52474761D02*
X99067857Y-52522380D01*
X99258333Y-52522380D01*
X99353571Y-52474761D01*
X99401190Y-52379523D01*
X99401190Y-52331904D01*
X99353571Y-52236666D01*
X99258333Y-52189047D01*
X99115476Y-52189047D01*
X99020238Y-52141428D01*
X98972619Y-52046190D01*
X98972619Y-51998571D01*
X99020238Y-51903333D01*
X99115476Y-51855714D01*
X99258333Y-51855714D01*
X99353571Y-51903333D01*
X99829761Y-52522380D02*
X99829761Y-51522380D01*
X100258333Y-52522380D02*
X100258333Y-51998571D01*
X100210714Y-51903333D01*
X100115476Y-51855714D01*
X99972619Y-51855714D01*
X99877380Y-51903333D01*
X99829761Y-51950952D01*
X101163095Y-52522380D02*
X101163095Y-51998571D01*
X101115476Y-51903333D01*
X101020238Y-51855714D01*
X100829761Y-51855714D01*
X100734523Y-51903333D01*
X101163095Y-52474761D02*
X101067857Y-52522380D01*
X100829761Y-52522380D01*
X100734523Y-52474761D01*
X100686904Y-52379523D01*
X100686904Y-52284285D01*
X100734523Y-52189047D01*
X100829761Y-52141428D01*
X101067857Y-52141428D01*
X101163095Y-52093809D01*
X101639285Y-51855714D02*
X101639285Y-52855714D01*
X101639285Y-51903333D02*
X101734523Y-51855714D01*
X101925000Y-51855714D01*
X102020238Y-51903333D01*
X102067857Y-51950952D01*
X102115476Y-52046190D01*
X102115476Y-52331904D01*
X102067857Y-52427142D01*
X102020238Y-52474761D01*
X101925000Y-52522380D01*
X101734523Y-52522380D01*
X101639285Y-52474761D01*
X102925000Y-52474761D02*
X102829761Y-52522380D01*
X102639285Y-52522380D01*
X102544047Y-52474761D01*
X102496428Y-52379523D01*
X102496428Y-51998571D01*
X102544047Y-51903333D01*
X102639285Y-51855714D01*
X102829761Y-51855714D01*
X102925000Y-51903333D01*
X102972619Y-51998571D01*
X102972619Y-52093809D01*
X102496428Y-52189047D01*
X95115476Y-30932380D02*
X94639285Y-30932380D01*
X94639285Y-29932380D01*
X95782142Y-30408571D02*
X95448809Y-30408571D01*
X95448809Y-30932380D02*
X95448809Y-29932380D01*
X95925000Y-29932380D01*
X96496428Y-29932380D02*
X96686904Y-29932380D01*
X96782142Y-29980000D01*
X96877380Y-30075238D01*
X96925000Y-30265714D01*
X96925000Y-30599047D01*
X96877380Y-30789523D01*
X96782142Y-30884761D01*
X96686904Y-30932380D01*
X96496428Y-30932380D01*
X96401190Y-30884761D01*
X96305952Y-30789523D01*
X96258333Y-30599047D01*
X96258333Y-30265714D01*
X96305952Y-30075238D01*
X96401190Y-29980000D01*
X96496428Y-29932380D01*
X98067857Y-30646666D02*
X98544047Y-30646666D01*
X97972619Y-30932380D02*
X98305952Y-29932380D01*
X98639285Y-30932380D01*
X99734523Y-30932380D02*
X99734523Y-30265714D01*
X99734523Y-30456190D02*
X99782142Y-30360952D01*
X99829761Y-30313333D01*
X99925000Y-30265714D01*
X100020238Y-30265714D01*
X100782142Y-30932380D02*
X100782142Y-30408571D01*
X100734523Y-30313333D01*
X100639285Y-30265714D01*
X100448809Y-30265714D01*
X100353571Y-30313333D01*
X100782142Y-30884761D02*
X100686904Y-30932380D01*
X100448809Y-30932380D01*
X100353571Y-30884761D01*
X100305952Y-30789523D01*
X100305952Y-30694285D01*
X100353571Y-30599047D01*
X100448809Y-30551428D01*
X100686904Y-30551428D01*
X100782142Y-30503809D01*
X101115476Y-30265714D02*
X101496428Y-30265714D01*
X101258333Y-29932380D02*
X101258333Y-30789523D01*
X101305952Y-30884761D01*
X101401190Y-30932380D01*
X101496428Y-30932380D01*
X102210714Y-30884761D02*
X102115476Y-30932380D01*
X101925000Y-30932380D01*
X101829761Y-30884761D01*
X101782142Y-30789523D01*
X101782142Y-30408571D01*
X101829761Y-30313333D01*
X101925000Y-30265714D01*
X102115476Y-30265714D01*
X102210714Y-30313333D01*
X102258333Y-30408571D01*
X102258333Y-30503809D01*
X101782142Y-30599047D01*
X67755000Y-72842380D02*
X67278809Y-72842380D01*
X67278809Y-71842380D01*
X68421666Y-72318571D02*
X68088333Y-72318571D01*
X68088333Y-72842380D02*
X68088333Y-71842380D01*
X68564523Y-71842380D01*
X69135952Y-71842380D02*
X69326428Y-71842380D01*
X69421666Y-71890000D01*
X69516904Y-71985238D01*
X69564523Y-72175714D01*
X69564523Y-72509047D01*
X69516904Y-72699523D01*
X69421666Y-72794761D01*
X69326428Y-72842380D01*
X69135952Y-72842380D01*
X69040714Y-72794761D01*
X68945476Y-72699523D01*
X68897857Y-72509047D01*
X68897857Y-72175714D01*
X68945476Y-71985238D01*
X69040714Y-71890000D01*
X69135952Y-71842380D01*
X71088333Y-72318571D02*
X71231190Y-72366190D01*
X71278809Y-72413809D01*
X71326428Y-72509047D01*
X71326428Y-72651904D01*
X71278809Y-72747142D01*
X71231190Y-72794761D01*
X71135952Y-72842380D01*
X70755000Y-72842380D01*
X70755000Y-71842380D01*
X71088333Y-71842380D01*
X71183571Y-71890000D01*
X71231190Y-71937619D01*
X71278809Y-72032857D01*
X71278809Y-72128095D01*
X71231190Y-72223333D01*
X71183571Y-72270952D01*
X71088333Y-72318571D01*
X70755000Y-72318571D01*
X72516904Y-72842380D02*
X72516904Y-72175714D01*
X72516904Y-71842380D02*
X72469285Y-71890000D01*
X72516904Y-71937619D01*
X72564523Y-71890000D01*
X72516904Y-71842380D01*
X72516904Y-71937619D01*
X72993095Y-72175714D02*
X72993095Y-72842380D01*
X72993095Y-72270952D02*
X73040714Y-72223333D01*
X73135952Y-72175714D01*
X73278809Y-72175714D01*
X73374047Y-72223333D01*
X73421666Y-72318571D01*
X73421666Y-72842380D01*
X73802619Y-72175714D02*
X74040714Y-72842380D01*
X74278809Y-72175714D01*
X75040714Y-72794761D02*
X74945476Y-72842380D01*
X74755000Y-72842380D01*
X74659761Y-72794761D01*
X74612142Y-72699523D01*
X74612142Y-72318571D01*
X74659761Y-72223333D01*
X74755000Y-72175714D01*
X74945476Y-72175714D01*
X75040714Y-72223333D01*
X75088333Y-72318571D01*
X75088333Y-72413809D01*
X74612142Y-72509047D01*
X75516904Y-72842380D02*
X75516904Y-72175714D01*
X75516904Y-72366190D02*
X75564523Y-72270952D01*
X75612142Y-72223333D01*
X75707380Y-72175714D01*
X75802619Y-72175714D01*
X75993095Y-72175714D02*
X76374047Y-72175714D01*
X76135952Y-71842380D02*
X76135952Y-72699523D01*
X76183571Y-72794761D01*
X76278809Y-72842380D01*
X76374047Y-72842380D01*
X68731190Y-51252380D02*
X68255000Y-51252380D01*
X68255000Y-50252380D01*
X69397857Y-50728571D02*
X69064523Y-50728571D01*
X69064523Y-51252380D02*
X69064523Y-50252380D01*
X69540714Y-50252380D01*
X70112142Y-50252380D02*
X70302619Y-50252380D01*
X70397857Y-50300000D01*
X70493095Y-50395238D01*
X70540714Y-50585714D01*
X70540714Y-50919047D01*
X70493095Y-51109523D01*
X70397857Y-51204761D01*
X70302619Y-51252380D01*
X70112142Y-51252380D01*
X70016904Y-51204761D01*
X69921666Y-51109523D01*
X69874047Y-50919047D01*
X69874047Y-50585714D01*
X69921666Y-50395238D01*
X70016904Y-50300000D01*
X70112142Y-50252380D01*
X71731190Y-51252380D02*
X71731190Y-50585714D01*
X71731190Y-50680952D02*
X71778809Y-50633333D01*
X71874047Y-50585714D01*
X72016904Y-50585714D01*
X72112142Y-50633333D01*
X72159761Y-50728571D01*
X72159761Y-51252380D01*
X72159761Y-50728571D02*
X72207380Y-50633333D01*
X72302619Y-50585714D01*
X72445476Y-50585714D01*
X72540714Y-50633333D01*
X72588333Y-50728571D01*
X72588333Y-51252380D01*
X73207380Y-51252380D02*
X73112142Y-51204761D01*
X73064523Y-51157142D01*
X73016904Y-51061904D01*
X73016904Y-50776190D01*
X73064523Y-50680952D01*
X73112142Y-50633333D01*
X73207380Y-50585714D01*
X73350238Y-50585714D01*
X73445476Y-50633333D01*
X73493095Y-50680952D01*
X73540714Y-50776190D01*
X73540714Y-51061904D01*
X73493095Y-51157142D01*
X73445476Y-51204761D01*
X73350238Y-51252380D01*
X73207380Y-51252380D01*
X74397857Y-51252380D02*
X74397857Y-50252380D01*
X74397857Y-51204761D02*
X74302619Y-51252380D01*
X74112142Y-51252380D01*
X74016904Y-51204761D01*
X73969285Y-51157142D01*
X73921666Y-51061904D01*
X73921666Y-50776190D01*
X73969285Y-50680952D01*
X74016904Y-50633333D01*
X74112142Y-50585714D01*
X74302619Y-50585714D01*
X74397857Y-50633333D01*
X75255000Y-51204761D02*
X75159761Y-51252380D01*
X74969285Y-51252380D01*
X74874047Y-51204761D01*
X74826428Y-51109523D01*
X74826428Y-50728571D01*
X74874047Y-50633333D01*
X74969285Y-50585714D01*
X75159761Y-50585714D01*
X75255000Y-50633333D01*
X75302619Y-50728571D01*
X75302619Y-50823809D01*
X74826428Y-50919047D01*
X69326428Y-29138571D02*
X69469285Y-29186190D01*
X69516904Y-29233809D01*
X69564523Y-29329047D01*
X69564523Y-29471904D01*
X69516904Y-29567142D01*
X69469285Y-29614761D01*
X69374047Y-29662380D01*
X68993095Y-29662380D01*
X68993095Y-28662380D01*
X69326428Y-28662380D01*
X69421666Y-28710000D01*
X69469285Y-28757619D01*
X69516904Y-28852857D01*
X69516904Y-28948095D01*
X69469285Y-29043333D01*
X69421666Y-29090952D01*
X69326428Y-29138571D01*
X68993095Y-29138571D01*
X69993095Y-29281428D02*
X70755000Y-29281428D01*
X71231190Y-29662380D02*
X71231190Y-28995714D01*
X71231190Y-28662380D02*
X71183571Y-28710000D01*
X71231190Y-28757619D01*
X71278809Y-28710000D01*
X71231190Y-28662380D01*
X71231190Y-28757619D01*
X71707380Y-28995714D02*
X71707380Y-29662380D01*
X71707380Y-29090952D02*
X71755000Y-29043333D01*
X71850238Y-28995714D01*
X71993095Y-28995714D01*
X72088333Y-29043333D01*
X72135952Y-29138571D01*
X72135952Y-29662380D01*
X72612142Y-28995714D02*
X72612142Y-29995714D01*
X72612142Y-29043333D02*
X72707380Y-28995714D01*
X72897857Y-28995714D01*
X72993095Y-29043333D01*
X73040714Y-29090952D01*
X73088333Y-29186190D01*
X73088333Y-29471904D01*
X73040714Y-29567142D01*
X72993095Y-29614761D01*
X72897857Y-29662380D01*
X72707380Y-29662380D01*
X72612142Y-29614761D01*
X73945476Y-28995714D02*
X73945476Y-29662380D01*
X73516904Y-28995714D02*
X73516904Y-29519523D01*
X73564523Y-29614761D01*
X73659761Y-29662380D01*
X73802619Y-29662380D01*
X73897857Y-29614761D01*
X73945476Y-29567142D01*
X74278809Y-28995714D02*
X74659761Y-28995714D01*
X74421666Y-28662380D02*
X74421666Y-29519523D01*
X74469285Y-29614761D01*
X74564523Y-29662380D01*
X74659761Y-29662380D01*
X40553095Y-72794761D02*
X40457857Y-72842380D01*
X40267380Y-72842380D01*
X40172142Y-72794761D01*
X40124523Y-72699523D01*
X40124523Y-72318571D01*
X40172142Y-72223333D01*
X40267380Y-72175714D01*
X40457857Y-72175714D01*
X40553095Y-72223333D01*
X40600714Y-72318571D01*
X40600714Y-72413809D01*
X40124523Y-72509047D01*
X41029285Y-72175714D02*
X41029285Y-72842380D01*
X41029285Y-72270952D02*
X41076904Y-72223333D01*
X41172142Y-72175714D01*
X41315000Y-72175714D01*
X41410238Y-72223333D01*
X41457857Y-72318571D01*
X41457857Y-72842380D01*
X41838809Y-72175714D02*
X42076904Y-72842380D01*
X42315000Y-72175714D01*
X42695952Y-72747142D02*
X42743571Y-72794761D01*
X42695952Y-72842380D01*
X42648333Y-72794761D01*
X42695952Y-72747142D01*
X42695952Y-72842380D01*
X43934047Y-72842380D02*
X43934047Y-72175714D01*
X43934047Y-72270952D02*
X43981666Y-72223333D01*
X44076904Y-72175714D01*
X44219761Y-72175714D01*
X44315000Y-72223333D01*
X44362619Y-72318571D01*
X44362619Y-72842380D01*
X44362619Y-72318571D02*
X44410238Y-72223333D01*
X44505476Y-72175714D01*
X44648333Y-72175714D01*
X44743571Y-72223333D01*
X44791190Y-72318571D01*
X44791190Y-72842380D01*
X45410238Y-72842380D02*
X45315000Y-72794761D01*
X45267380Y-72747142D01*
X45219761Y-72651904D01*
X45219761Y-72366190D01*
X45267380Y-72270952D01*
X45315000Y-72223333D01*
X45410238Y-72175714D01*
X45553095Y-72175714D01*
X45648333Y-72223333D01*
X45695952Y-72270952D01*
X45743571Y-72366190D01*
X45743571Y-72651904D01*
X45695952Y-72747142D01*
X45648333Y-72794761D01*
X45553095Y-72842380D01*
X45410238Y-72842380D01*
X46600714Y-72842380D02*
X46600714Y-71842380D01*
X46600714Y-72794761D02*
X46505476Y-72842380D01*
X46315000Y-72842380D01*
X46219761Y-72794761D01*
X46172142Y-72747142D01*
X46124523Y-72651904D01*
X46124523Y-72366190D01*
X46172142Y-72270952D01*
X46219761Y-72223333D01*
X46315000Y-72175714D01*
X46505476Y-72175714D01*
X46600714Y-72223333D01*
X47457857Y-72794761D02*
X47362619Y-72842380D01*
X47172142Y-72842380D01*
X47076904Y-72794761D01*
X47029285Y-72699523D01*
X47029285Y-72318571D01*
X47076904Y-72223333D01*
X47172142Y-72175714D01*
X47362619Y-72175714D01*
X47457857Y-72223333D01*
X47505476Y-72318571D01*
X47505476Y-72413809D01*
X47029285Y-72509047D01*
X40791190Y-52474761D02*
X40695952Y-52522380D01*
X40505476Y-52522380D01*
X40410238Y-52474761D01*
X40362619Y-52379523D01*
X40362619Y-51998571D01*
X40410238Y-51903333D01*
X40505476Y-51855714D01*
X40695952Y-51855714D01*
X40791190Y-51903333D01*
X40838809Y-51998571D01*
X40838809Y-52093809D01*
X40362619Y-52189047D01*
X41267380Y-51855714D02*
X41267380Y-52522380D01*
X41267380Y-51950952D02*
X41315000Y-51903333D01*
X41410238Y-51855714D01*
X41553095Y-51855714D01*
X41648333Y-51903333D01*
X41695952Y-51998571D01*
X41695952Y-52522380D01*
X42076904Y-51855714D02*
X42315000Y-52522380D01*
X42553095Y-51855714D01*
X42934047Y-52427142D02*
X42981666Y-52474761D01*
X42934047Y-52522380D01*
X42886428Y-52474761D01*
X42934047Y-52427142D01*
X42934047Y-52522380D01*
X44315000Y-52522380D02*
X44219761Y-52474761D01*
X44172142Y-52379523D01*
X44172142Y-51522380D01*
X45076904Y-52474761D02*
X44981666Y-52522380D01*
X44791190Y-52522380D01*
X44695952Y-52474761D01*
X44648333Y-52379523D01*
X44648333Y-51998571D01*
X44695952Y-51903333D01*
X44791190Y-51855714D01*
X44981666Y-51855714D01*
X45076904Y-51903333D01*
X45124523Y-51998571D01*
X45124523Y-52093809D01*
X44648333Y-52189047D01*
X45457857Y-51855714D02*
X45695952Y-52522380D01*
X45934047Y-51855714D01*
X46695952Y-52474761D02*
X46600714Y-52522380D01*
X46410238Y-52522380D01*
X46315000Y-52474761D01*
X46267380Y-52379523D01*
X46267380Y-51998571D01*
X46315000Y-51903333D01*
X46410238Y-51855714D01*
X46600714Y-51855714D01*
X46695952Y-51903333D01*
X46743571Y-51998571D01*
X46743571Y-52093809D01*
X46267380Y-52189047D01*
X47315000Y-52522380D02*
X47219761Y-52474761D01*
X47172142Y-52379523D01*
X47172142Y-51522380D01*
X45323571Y-30884761D02*
X45228333Y-30932380D01*
X45037857Y-30932380D01*
X44942619Y-30884761D01*
X44895000Y-30789523D01*
X44895000Y-30408571D01*
X44942619Y-30313333D01*
X45037857Y-30265714D01*
X45228333Y-30265714D01*
X45323571Y-30313333D01*
X45371190Y-30408571D01*
X45371190Y-30503809D01*
X44895000Y-30599047D01*
X45799761Y-30265714D02*
X45799761Y-30932380D01*
X45799761Y-30360952D02*
X45847380Y-30313333D01*
X45942619Y-30265714D01*
X46085476Y-30265714D01*
X46180714Y-30313333D01*
X46228333Y-30408571D01*
X46228333Y-30932380D01*
X46609285Y-30265714D02*
X46847380Y-30932380D01*
X47085476Y-30265714D01*
X47466428Y-30837142D02*
X47514047Y-30884761D01*
X47466428Y-30932380D01*
X47418809Y-30884761D01*
X47466428Y-30837142D01*
X47466428Y-30932380D01*
X49133095Y-30932380D02*
X49133095Y-30408571D01*
X49085476Y-30313333D01*
X48990238Y-30265714D01*
X48799761Y-30265714D01*
X48704523Y-30313333D01*
X49133095Y-30884761D02*
X49037857Y-30932380D01*
X48799761Y-30932380D01*
X48704523Y-30884761D01*
X48656904Y-30789523D01*
X48656904Y-30694285D01*
X48704523Y-30599047D01*
X48799761Y-30551428D01*
X49037857Y-30551428D01*
X49133095Y-30503809D01*
X49466428Y-30265714D02*
X49847380Y-30265714D01*
X49609285Y-29932380D02*
X49609285Y-30789523D01*
X49656904Y-30884761D01*
X49752142Y-30932380D01*
X49847380Y-30932380D01*
X50037857Y-30265714D02*
X50418809Y-30265714D01*
X50180714Y-29932380D02*
X50180714Y-30789523D01*
X50228333Y-30884761D01*
X50323571Y-30932380D01*
X50418809Y-30932380D01*
X51180714Y-30932380D02*
X51180714Y-30408571D01*
X51133095Y-30313333D01*
X51037857Y-30265714D01*
X50847380Y-30265714D01*
X50752142Y-30313333D01*
X51180714Y-30884761D02*
X51085476Y-30932380D01*
X50847380Y-30932380D01*
X50752142Y-30884761D01*
X50704523Y-30789523D01*
X50704523Y-30694285D01*
X50752142Y-30599047D01*
X50847380Y-30551428D01*
X51085476Y-30551428D01*
X51180714Y-30503809D01*
X52085476Y-30884761D02*
X51990238Y-30932380D01*
X51799761Y-30932380D01*
X51704523Y-30884761D01*
X51656904Y-30837142D01*
X51609285Y-30741904D01*
X51609285Y-30456190D01*
X51656904Y-30360952D01*
X51704523Y-30313333D01*
X51799761Y-30265714D01*
X51990238Y-30265714D01*
X52085476Y-30313333D01*
X52514047Y-30932380D02*
X52514047Y-29932380D01*
X52609285Y-30551428D02*
X52894999Y-30932380D01*
X52894999Y-30265714D02*
X52514047Y-30646666D01*
X12303571Y-74112380D02*
X12303571Y-73445714D01*
X12303571Y-73636190D02*
X12351190Y-73540952D01*
X12398809Y-73493333D01*
X12494047Y-73445714D01*
X12589285Y-73445714D01*
X13303571Y-74064761D02*
X13208333Y-74112380D01*
X13017857Y-74112380D01*
X12922619Y-74064761D01*
X12875000Y-73969523D01*
X12875000Y-73588571D01*
X12922619Y-73493333D01*
X13017857Y-73445714D01*
X13208333Y-73445714D01*
X13303571Y-73493333D01*
X13351190Y-73588571D01*
X13351190Y-73683809D01*
X12875000Y-73779047D01*
X13732142Y-74064761D02*
X13827380Y-74112380D01*
X14017857Y-74112380D01*
X14113095Y-74064761D01*
X14160714Y-73969523D01*
X14160714Y-73921904D01*
X14113095Y-73826666D01*
X14017857Y-73779047D01*
X13875000Y-73779047D01*
X13779761Y-73731428D01*
X13732142Y-73636190D01*
X13732142Y-73588571D01*
X13779761Y-73493333D01*
X13875000Y-73445714D01*
X14017857Y-73445714D01*
X14113095Y-73493333D01*
X14732142Y-74112380D02*
X14636904Y-74064761D01*
X14589285Y-74017142D01*
X14541666Y-73921904D01*
X14541666Y-73636190D01*
X14589285Y-73540952D01*
X14636904Y-73493333D01*
X14732142Y-73445714D01*
X14875000Y-73445714D01*
X14970238Y-73493333D01*
X15017857Y-73540952D01*
X15065476Y-73636190D01*
X15065476Y-73921904D01*
X15017857Y-74017142D01*
X14970238Y-74064761D01*
X14875000Y-74112380D01*
X14732142Y-74112380D01*
X15494047Y-73445714D02*
X15494047Y-74112380D01*
X15494047Y-73540952D02*
X15541666Y-73493333D01*
X15636904Y-73445714D01*
X15779761Y-73445714D01*
X15875000Y-73493333D01*
X15922619Y-73588571D01*
X15922619Y-74112380D01*
X16827380Y-74112380D02*
X16827380Y-73588571D01*
X16779761Y-73493333D01*
X16684523Y-73445714D01*
X16494047Y-73445714D01*
X16398809Y-73493333D01*
X16827380Y-74064761D02*
X16732142Y-74112380D01*
X16494047Y-74112380D01*
X16398809Y-74064761D01*
X16351190Y-73969523D01*
X16351190Y-73874285D01*
X16398809Y-73779047D01*
X16494047Y-73731428D01*
X16732142Y-73731428D01*
X16827380Y-73683809D01*
X17303571Y-73445714D02*
X17303571Y-74112380D01*
X17303571Y-73540952D02*
X17351190Y-73493333D01*
X17446428Y-73445714D01*
X17589285Y-73445714D01*
X17684523Y-73493333D01*
X17732142Y-73588571D01*
X17732142Y-74112380D01*
X18636904Y-74064761D02*
X18541666Y-74112380D01*
X18351190Y-74112380D01*
X18255952Y-74064761D01*
X18208333Y-74017142D01*
X18160714Y-73921904D01*
X18160714Y-73636190D01*
X18208333Y-73540952D01*
X18255952Y-73493333D01*
X18351190Y-73445714D01*
X18541666Y-73445714D01*
X18636904Y-73493333D01*
X19446428Y-74064761D02*
X19351190Y-74112380D01*
X19160714Y-74112380D01*
X19065476Y-74064761D01*
X19017857Y-73969523D01*
X19017857Y-73588571D01*
X19065476Y-73493333D01*
X19160714Y-73445714D01*
X19351190Y-73445714D01*
X19446428Y-73493333D01*
X19494047Y-73588571D01*
X19494047Y-73683809D01*
X19017857Y-73779047D01*
X12136904Y-52474761D02*
X12232142Y-52522380D01*
X12422619Y-52522380D01*
X12517857Y-52474761D01*
X12565476Y-52379523D01*
X12565476Y-52331904D01*
X12517857Y-52236666D01*
X12422619Y-52189047D01*
X12279761Y-52189047D01*
X12184523Y-52141428D01*
X12136904Y-52046190D01*
X12136904Y-51998571D01*
X12184523Y-51903333D01*
X12279761Y-51855714D01*
X12422619Y-51855714D01*
X12517857Y-51903333D01*
X13375000Y-52474761D02*
X13279761Y-52522380D01*
X13089285Y-52522380D01*
X12994047Y-52474761D01*
X12946428Y-52379523D01*
X12946428Y-51998571D01*
X12994047Y-51903333D01*
X13089285Y-51855714D01*
X13279761Y-51855714D01*
X13375000Y-51903333D01*
X13422619Y-51998571D01*
X13422619Y-52093809D01*
X12946428Y-52189047D01*
X13851190Y-51855714D02*
X13851190Y-52855714D01*
X13851190Y-51903333D02*
X13946428Y-51855714D01*
X14136904Y-51855714D01*
X14232142Y-51903333D01*
X14279761Y-51950952D01*
X14327380Y-52046190D01*
X14327380Y-52331904D01*
X14279761Y-52427142D01*
X14232142Y-52474761D01*
X14136904Y-52522380D01*
X13946428Y-52522380D01*
X13851190Y-52474761D01*
X15184523Y-52522380D02*
X15184523Y-51998571D01*
X15136904Y-51903333D01*
X15041666Y-51855714D01*
X14851190Y-51855714D01*
X14755952Y-51903333D01*
X15184523Y-52474761D02*
X15089285Y-52522380D01*
X14851190Y-52522380D01*
X14755952Y-52474761D01*
X14708333Y-52379523D01*
X14708333Y-52284285D01*
X14755952Y-52189047D01*
X14851190Y-52141428D01*
X15089285Y-52141428D01*
X15184523Y-52093809D01*
X15660714Y-52522380D02*
X15660714Y-51855714D01*
X15660714Y-52046190D02*
X15708333Y-51950952D01*
X15755952Y-51903333D01*
X15851190Y-51855714D01*
X15946428Y-51855714D01*
X16708333Y-52522380D02*
X16708333Y-51998571D01*
X16660714Y-51903333D01*
X16565476Y-51855714D01*
X16375000Y-51855714D01*
X16279761Y-51903333D01*
X16708333Y-52474761D02*
X16613095Y-52522380D01*
X16375000Y-52522380D01*
X16279761Y-52474761D01*
X16232142Y-52379523D01*
X16232142Y-52284285D01*
X16279761Y-52189047D01*
X16375000Y-52141428D01*
X16613095Y-52141428D01*
X16708333Y-52093809D01*
X17041666Y-51855714D02*
X17422619Y-51855714D01*
X17184523Y-51522380D02*
X17184523Y-52379523D01*
X17232142Y-52474761D01*
X17327380Y-52522380D01*
X17422619Y-52522380D01*
X17755952Y-52522380D02*
X17755952Y-51855714D01*
X17755952Y-51522380D02*
X17708333Y-51570000D01*
X17755952Y-51617619D01*
X17803571Y-51570000D01*
X17755952Y-51522380D01*
X17755952Y-51617619D01*
X18375000Y-52522380D02*
X18279761Y-52474761D01*
X18232142Y-52427142D01*
X18184523Y-52331904D01*
X18184523Y-52046190D01*
X18232142Y-51950952D01*
X18279761Y-51903333D01*
X18375000Y-51855714D01*
X18517857Y-51855714D01*
X18613095Y-51903333D01*
X18660714Y-51950952D01*
X18708333Y-52046190D01*
X18708333Y-52331904D01*
X18660714Y-52427142D01*
X18613095Y-52474761D01*
X18517857Y-52522380D01*
X18375000Y-52522380D01*
X19136904Y-51855714D02*
X19136904Y-52522380D01*
X19136904Y-51950952D02*
X19184523Y-51903333D01*
X19279761Y-51855714D01*
X19422619Y-51855714D01*
X19517857Y-51903333D01*
X19565476Y-51998571D01*
X19565476Y-52522380D01*
X13819761Y-30932380D02*
X13819761Y-30265714D01*
X13819761Y-30360952D02*
X13867380Y-30313333D01*
X13962619Y-30265714D01*
X14105476Y-30265714D01*
X14200714Y-30313333D01*
X14248333Y-30408571D01*
X14248333Y-30932380D01*
X14248333Y-30408571D02*
X14295952Y-30313333D01*
X14391190Y-30265714D01*
X14534047Y-30265714D01*
X14629285Y-30313333D01*
X14676904Y-30408571D01*
X14676904Y-30932380D01*
X15581666Y-30932380D02*
X15581666Y-30408571D01*
X15534047Y-30313333D01*
X15438809Y-30265714D01*
X15248333Y-30265714D01*
X15153095Y-30313333D01*
X15581666Y-30884761D02*
X15486428Y-30932380D01*
X15248333Y-30932380D01*
X15153095Y-30884761D01*
X15105476Y-30789523D01*
X15105476Y-30694285D01*
X15153095Y-30599047D01*
X15248333Y-30551428D01*
X15486428Y-30551428D01*
X15581666Y-30503809D01*
X16057857Y-30265714D02*
X16057857Y-30932380D01*
X16057857Y-30360952D02*
X16105476Y-30313333D01*
X16200714Y-30265714D01*
X16343571Y-30265714D01*
X16438809Y-30313333D01*
X16486428Y-30408571D01*
X16486428Y-30932380D01*
X17391190Y-30265714D02*
X17391190Y-30932380D01*
X16962619Y-30265714D02*
X16962619Y-30789523D01*
X17010238Y-30884761D01*
X17105476Y-30932380D01*
X17248333Y-30932380D01*
X17343571Y-30884761D01*
X17391190Y-30837142D01*
X18295952Y-30932380D02*
X18295952Y-30408571D01*
X18248333Y-30313333D01*
X18153095Y-30265714D01*
X17962619Y-30265714D01*
X17867380Y-30313333D01*
X18295952Y-30884761D02*
X18200714Y-30932380D01*
X17962619Y-30932380D01*
X17867380Y-30884761D01*
X17819761Y-30789523D01*
X17819761Y-30694285D01*
X17867380Y-30599047D01*
X17962619Y-30551428D01*
X18200714Y-30551428D01*
X18295952Y-30503809D01*
X18915000Y-30932380D02*
X18819761Y-30884761D01*
X18772142Y-30789523D01*
X18772142Y-29932380D01*
X19915000Y-30265714D02*
X20295952Y-30265714D01*
X20057857Y-30932380D02*
X20057857Y-30075238D01*
X20105476Y-29980000D01*
X20200714Y-29932380D01*
X20295952Y-29932380D01*
X20629285Y-30932380D02*
X20629285Y-30265714D01*
X20629285Y-30456190D02*
X20676904Y-30360952D01*
X20724523Y-30313333D01*
X20819761Y-30265714D01*
X20915000Y-30265714D01*
X21629285Y-30884761D02*
X21534047Y-30932380D01*
X21343571Y-30932380D01*
X21248333Y-30884761D01*
X21200714Y-30789523D01*
X21200714Y-30408571D01*
X21248333Y-30313333D01*
X21343571Y-30265714D01*
X21534047Y-30265714D01*
X21629285Y-30313333D01*
X21676904Y-30408571D01*
X21676904Y-30503809D01*
X21200714Y-30599047D01*
X22534047Y-30265714D02*
X22534047Y-31265714D01*
X22534047Y-30884761D02*
X22438809Y-30932380D01*
X22248333Y-30932380D01*
X22153095Y-30884761D01*
X22105476Y-30837142D01*
X22057857Y-30741904D01*
X22057857Y-30456190D01*
X22105476Y-30360952D01*
X22153095Y-30313333D01*
X22248333Y-30265714D01*
X22438809Y-30265714D01*
X22534047Y-30313333D01*
X23010238Y-30837142D02*
X23057857Y-30884761D01*
X23010238Y-30932380D01*
X22962619Y-30884761D01*
X23010238Y-30837142D01*
X23010238Y-30932380D01*
D11*
X105770000Y-105430000D02*
X108860000Y-105430000D01*
X109815000Y-102870000D02*
G75*
G03*
X109815000Y-102870000I-2500000J0D01*
G01*
X107314538Y-99880000D02*
G75*
G02*
X108859830Y-105430000I462J-2990000D01*
G01*
X107315462Y-99880000D02*
G75*
G03*
X105770170Y-105430000I-462J-2990000D01*
G01*
X32110000Y-105430000D02*
X35200000Y-105430000D01*
X36155000Y-102870000D02*
G75*
G03*
X36155000Y-102870000I-2500000J0D01*
G01*
X33654538Y-99880000D02*
G75*
G02*
X35199830Y-105430000I462J-2990000D01*
G01*
X33655462Y-99880000D02*
G75*
G03*
X32110170Y-105430000I-462J-2990000D01*
G01*
X48685000Y-53610000D02*
X38945000Y-53610000D01*
X48685000Y-65200000D02*
X47195000Y-65200000D01*
X48685000Y-56670000D02*
X48685000Y-53610000D01*
X38945000Y-65200000D02*
X38945000Y-60480000D01*
X38945000Y-56670000D02*
X38945000Y-53610000D01*
X48685000Y-65200000D02*
X48685000Y-60480000D01*
X40125000Y-65200000D02*
X38945000Y-65200000D01*
X43025000Y-65200000D02*
X42495000Y-65200000D01*
X45475000Y-65200000D02*
X44645000Y-65200000D01*
X48685000Y-31980000D02*
X38945000Y-31980000D01*
X48685000Y-43570000D02*
X47195000Y-43570000D01*
X48685000Y-35040000D02*
X48685000Y-31980000D01*
X38945000Y-43570000D02*
X38945000Y-38850000D01*
X38945000Y-35040000D02*
X38945000Y-31980000D01*
X48685000Y-43570000D02*
X48685000Y-38850000D01*
X40125000Y-43570000D02*
X38945000Y-43570000D01*
X43025000Y-43570000D02*
X42495000Y-43570000D01*
X45475000Y-43570000D02*
X44645000Y-43570000D01*
X129965000Y-75160000D02*
X120225000Y-75160000D01*
X129965000Y-86750000D02*
X128475000Y-86750000D01*
X129965000Y-78220000D02*
X129965000Y-75160000D01*
X120215000Y-86750000D02*
X120215000Y-82030000D01*
X120225000Y-78220000D02*
X120225000Y-75160000D01*
X129965000Y-86750000D02*
X129965000Y-82030000D01*
X121405000Y-86750000D02*
X120225000Y-86750000D01*
X124305000Y-86750000D02*
X123775000Y-86750000D01*
X126755000Y-86750000D02*
X125925000Y-86750000D01*
X129965000Y-53570000D02*
X120225000Y-53570000D01*
X129965000Y-65160000D02*
X128475000Y-65160000D01*
X129965000Y-56630000D02*
X129965000Y-53570000D01*
X120215000Y-65160000D02*
X120215000Y-60440000D01*
X120225000Y-56630000D02*
X120225000Y-53570000D01*
X129965000Y-65160000D02*
X129965000Y-60440000D01*
X121405000Y-65160000D02*
X120225000Y-65160000D01*
X124305000Y-65160000D02*
X123775000Y-65160000D01*
X126755000Y-65160000D02*
X125925000Y-65160000D01*
X129965000Y-31980000D02*
X120225000Y-31980000D01*
X129965000Y-43570000D02*
X128475000Y-43570000D01*
X129965000Y-35040000D02*
X129965000Y-31980000D01*
X120215000Y-43570000D02*
X120215000Y-38850000D01*
X120225000Y-35040000D02*
X120225000Y-31980000D01*
X129965000Y-43570000D02*
X129965000Y-38850000D01*
X121405000Y-43570000D02*
X120225000Y-43570000D01*
X124305000Y-43570000D02*
X123775000Y-43570000D01*
X126755000Y-43570000D02*
X125925000Y-43570000D01*
X103295000Y-75160000D02*
X93555000Y-75160000D01*
X103295000Y-86750000D02*
X101805000Y-86750000D01*
X103295000Y-78220000D02*
X103295000Y-75160000D01*
X93545000Y-86750000D02*
X93545000Y-82030000D01*
X93555000Y-78220000D02*
X93555000Y-75160000D01*
X103295000Y-86750000D02*
X103295000Y-82030000D01*
X94735000Y-86750000D02*
X93555000Y-86750000D01*
X97635000Y-86750000D02*
X97105000Y-86750000D01*
X100085000Y-86750000D02*
X99255000Y-86750000D01*
X103295000Y-53570000D02*
X93555000Y-53570000D01*
X103295000Y-65160000D02*
X101805000Y-65160000D01*
X103295000Y-56630000D02*
X103295000Y-53570000D01*
X93545000Y-65160000D02*
X93545000Y-60440000D01*
X93555000Y-56630000D02*
X93555000Y-53570000D01*
X103295000Y-65160000D02*
X103295000Y-60440000D01*
X94735000Y-65160000D02*
X93555000Y-65160000D01*
X97635000Y-65160000D02*
X97105000Y-65160000D01*
X100085000Y-65160000D02*
X99255000Y-65160000D01*
X103295000Y-31980000D02*
X93555000Y-31980000D01*
X103295000Y-43570000D02*
X101805000Y-43570000D01*
X103295000Y-35040000D02*
X103295000Y-31980000D01*
X93545000Y-43570000D02*
X93545000Y-38850000D01*
X93555000Y-35040000D02*
X93555000Y-31980000D01*
X103295000Y-43570000D02*
X103295000Y-38850000D01*
X94735000Y-43570000D02*
X93555000Y-43570000D01*
X97635000Y-43570000D02*
X97105000Y-43570000D01*
X100085000Y-43570000D02*
X99255000Y-43570000D01*
X20745000Y-75160000D02*
X11005000Y-75160000D01*
X20745000Y-86750000D02*
X19255000Y-86750000D01*
X20745000Y-78220000D02*
X20745000Y-75160000D01*
X10995000Y-86750000D02*
X10995000Y-82030000D01*
X11005000Y-78220000D02*
X11005000Y-75160000D01*
X20745000Y-86750000D02*
X20745000Y-82030000D01*
X12185000Y-86750000D02*
X11005000Y-86750000D01*
X15085000Y-86750000D02*
X14555000Y-86750000D01*
X17535000Y-86750000D02*
X16705000Y-86750000D01*
X20745000Y-53570000D02*
X11005000Y-53570000D01*
X20745000Y-65160000D02*
X19255000Y-65160000D01*
X20745000Y-56630000D02*
X20745000Y-53570000D01*
X10995000Y-65160000D02*
X10995000Y-60440000D01*
X11005000Y-56630000D02*
X11005000Y-53570000D01*
X20745000Y-65160000D02*
X20745000Y-60440000D01*
X12185000Y-65160000D02*
X11005000Y-65160000D01*
X15085000Y-65160000D02*
X14555000Y-65160000D01*
X17535000Y-65160000D02*
X16705000Y-65160000D01*
X20745000Y-31980000D02*
X11005000Y-31980000D01*
X20745000Y-43570000D02*
X19255000Y-43570000D01*
X20745000Y-35040000D02*
X20745000Y-31980000D01*
X10995000Y-43570000D02*
X10995000Y-38850000D01*
X11005000Y-35040000D02*
X11005000Y-31980000D01*
X20745000Y-43570000D02*
X20745000Y-38850000D01*
X12185000Y-43570000D02*
X11005000Y-43570000D01*
X15085000Y-43570000D02*
X14555000Y-43570000D01*
X17535000Y-43570000D02*
X16705000Y-43570000D01*
X38100000Y-86360000D02*
X38100000Y-73660000D01*
X49530000Y-86360000D02*
X38100000Y-86360000D01*
X49530000Y-73660000D02*
X49530000Y-86360000D01*
X38100000Y-73660000D02*
X49530000Y-73660000D01*
X68255000Y-73660000D02*
X75255000Y-73660000D01*
X75255000Y-73660000D02*
X75255000Y-86360000D01*
X75255000Y-86360000D02*
X68255000Y-86360000D01*
X68255000Y-86360000D02*
X68255000Y-73660000D01*
X68255000Y-52070000D02*
X75255000Y-52070000D01*
X75255000Y-52070000D02*
X75255000Y-64770000D01*
X75255000Y-64770000D02*
X68255000Y-64770000D01*
X68255000Y-64770000D02*
X68255000Y-52070000D01*
X66040000Y-43180000D02*
X66040000Y-30480000D01*
X77470000Y-43180000D02*
X66040000Y-43180000D01*
X77470000Y-30480000D02*
X77470000Y-43180000D01*
X66040000Y-30480000D02*
X77470000Y-30480000D01*
D10*
X106576904Y-99512380D02*
X106576904Y-98512380D01*
X106815000Y-98512380D01*
X106957857Y-98560000D01*
X107053095Y-98655238D01*
X107100714Y-98750476D01*
X107148333Y-98940952D01*
X107148333Y-99083809D01*
X107100714Y-99274285D01*
X107053095Y-99369523D01*
X106957857Y-99464761D01*
X106815000Y-99512380D01*
X106576904Y-99512380D01*
X107481666Y-98512380D02*
X108148333Y-98512380D01*
X107719761Y-99512380D01*
X32916904Y-99512380D02*
X32916904Y-98512380D01*
X33155000Y-98512380D01*
X33297857Y-98560000D01*
X33393095Y-98655238D01*
X33440714Y-98750476D01*
X33488333Y-98940952D01*
X33488333Y-99083809D01*
X33440714Y-99274285D01*
X33393095Y-99369523D01*
X33297857Y-99464761D01*
X33155000Y-99512380D01*
X32916904Y-99512380D01*
X34345476Y-98512380D02*
X34155000Y-98512380D01*
X34059761Y-98560000D01*
X34012142Y-98607619D01*
X33916904Y-98750476D01*
X33869285Y-98940952D01*
X33869285Y-99321904D01*
X33916904Y-99417142D01*
X33964523Y-99464761D01*
X34059761Y-99512380D01*
X34250238Y-99512380D01*
X34345476Y-99464761D01*
X34393095Y-99417142D01*
X34440714Y-99321904D01*
X34440714Y-99083809D01*
X34393095Y-98988571D01*
X34345476Y-98940952D01*
X34250238Y-98893333D01*
X34059761Y-98893333D01*
X33964523Y-98940952D01*
X33916904Y-98988571D01*
X33869285Y-99083809D01*
X43219761Y-70937380D02*
X42886428Y-70461190D01*
X42648333Y-70937380D02*
X42648333Y-69937380D01*
X43029285Y-69937380D01*
X43124523Y-69985000D01*
X43172142Y-70032619D01*
X43219761Y-70127857D01*
X43219761Y-70270714D01*
X43172142Y-70365952D01*
X43124523Y-70413571D01*
X43029285Y-70461190D01*
X42648333Y-70461190D01*
X43505476Y-69937380D02*
X43838809Y-70937380D01*
X44172142Y-69937380D01*
X44981666Y-69937380D02*
X44505476Y-69937380D01*
X44457857Y-70413571D01*
X44505476Y-70365952D01*
X44600714Y-70318333D01*
X44838809Y-70318333D01*
X44934047Y-70365952D01*
X44981666Y-70413571D01*
X45029285Y-70508809D01*
X45029285Y-70746904D01*
X44981666Y-70842142D01*
X44934047Y-70889761D01*
X44838809Y-70937380D01*
X44600714Y-70937380D01*
X44505476Y-70889761D01*
X44457857Y-70842142D01*
X43219761Y-49347380D02*
X42886428Y-48871190D01*
X42648333Y-49347380D02*
X42648333Y-48347380D01*
X43029285Y-48347380D01*
X43124523Y-48395000D01*
X43172142Y-48442619D01*
X43219761Y-48537857D01*
X43219761Y-48680714D01*
X43172142Y-48775952D01*
X43124523Y-48823571D01*
X43029285Y-48871190D01*
X42648333Y-48871190D01*
X43505476Y-48347380D02*
X43838809Y-49347380D01*
X44172142Y-48347380D01*
X44934047Y-48680714D02*
X44934047Y-49347380D01*
X44695952Y-48299761D02*
X44457857Y-49014047D01*
X45076904Y-49014047D01*
X124023571Y-89987380D02*
X123690238Y-89511190D01*
X123452142Y-89987380D02*
X123452142Y-88987380D01*
X123833095Y-88987380D01*
X123928333Y-89035000D01*
X123975952Y-89082619D01*
X124023571Y-89177857D01*
X124023571Y-89320714D01*
X123975952Y-89415952D01*
X123928333Y-89463571D01*
X123833095Y-89511190D01*
X123452142Y-89511190D01*
X124309285Y-88987380D02*
X124642619Y-89987380D01*
X124975952Y-88987380D01*
X125833095Y-89987380D02*
X125261666Y-89987380D01*
X125547380Y-89987380D02*
X125547380Y-88987380D01*
X125452142Y-89130238D01*
X125356904Y-89225476D01*
X125261666Y-89273095D01*
X126785476Y-89987380D02*
X126214047Y-89987380D01*
X126499761Y-89987380D02*
X126499761Y-88987380D01*
X126404523Y-89130238D01*
X126309285Y-89225476D01*
X126214047Y-89273095D01*
X124023571Y-68397380D02*
X123690238Y-67921190D01*
X123452142Y-68397380D02*
X123452142Y-67397380D01*
X123833095Y-67397380D01*
X123928333Y-67445000D01*
X123975952Y-67492619D01*
X124023571Y-67587857D01*
X124023571Y-67730714D01*
X123975952Y-67825952D01*
X123928333Y-67873571D01*
X123833095Y-67921190D01*
X123452142Y-67921190D01*
X124309285Y-67397380D02*
X124642619Y-68397380D01*
X124975952Y-67397380D01*
X125833095Y-68397380D02*
X125261666Y-68397380D01*
X125547380Y-68397380D02*
X125547380Y-67397380D01*
X125452142Y-67540238D01*
X125356904Y-67635476D01*
X125261666Y-67683095D01*
X126452142Y-67397380D02*
X126547380Y-67397380D01*
X126642619Y-67445000D01*
X126690238Y-67492619D01*
X126737857Y-67587857D01*
X126785476Y-67778333D01*
X126785476Y-68016428D01*
X126737857Y-68206904D01*
X126690238Y-68302142D01*
X126642619Y-68349761D01*
X126547380Y-68397380D01*
X126452142Y-68397380D01*
X126356904Y-68349761D01*
X126309285Y-68302142D01*
X126261666Y-68206904D01*
X126214047Y-68016428D01*
X126214047Y-67778333D01*
X126261666Y-67587857D01*
X126309285Y-67492619D01*
X126356904Y-67445000D01*
X126452142Y-67397380D01*
X124499761Y-46807380D02*
X124166428Y-46331190D01*
X123928333Y-46807380D02*
X123928333Y-45807380D01*
X124309285Y-45807380D01*
X124404523Y-45855000D01*
X124452142Y-45902619D01*
X124499761Y-45997857D01*
X124499761Y-46140714D01*
X124452142Y-46235952D01*
X124404523Y-46283571D01*
X124309285Y-46331190D01*
X123928333Y-46331190D01*
X124785476Y-45807380D02*
X125118809Y-46807380D01*
X125452142Y-45807380D01*
X125833095Y-46807380D02*
X126023571Y-46807380D01*
X126118809Y-46759761D01*
X126166428Y-46712142D01*
X126261666Y-46569285D01*
X126309285Y-46378809D01*
X126309285Y-45997857D01*
X126261666Y-45902619D01*
X126214047Y-45855000D01*
X126118809Y-45807380D01*
X125928333Y-45807380D01*
X125833095Y-45855000D01*
X125785476Y-45902619D01*
X125737857Y-45997857D01*
X125737857Y-46235952D01*
X125785476Y-46331190D01*
X125833095Y-46378809D01*
X125928333Y-46426428D01*
X126118809Y-46426428D01*
X126214047Y-46378809D01*
X126261666Y-46331190D01*
X126309285Y-46235952D01*
X97829761Y-89987380D02*
X97496428Y-89511190D01*
X97258333Y-89987380D02*
X97258333Y-88987380D01*
X97639285Y-88987380D01*
X97734523Y-89035000D01*
X97782142Y-89082619D01*
X97829761Y-89177857D01*
X97829761Y-89320714D01*
X97782142Y-89415952D01*
X97734523Y-89463571D01*
X97639285Y-89511190D01*
X97258333Y-89511190D01*
X98115476Y-88987380D02*
X98448809Y-89987380D01*
X98782142Y-88987380D01*
X99258333Y-89415952D02*
X99163095Y-89368333D01*
X99115476Y-89320714D01*
X99067857Y-89225476D01*
X99067857Y-89177857D01*
X99115476Y-89082619D01*
X99163095Y-89035000D01*
X99258333Y-88987380D01*
X99448809Y-88987380D01*
X99544047Y-89035000D01*
X99591666Y-89082619D01*
X99639285Y-89177857D01*
X99639285Y-89225476D01*
X99591666Y-89320714D01*
X99544047Y-89368333D01*
X99448809Y-89415952D01*
X99258333Y-89415952D01*
X99163095Y-89463571D01*
X99115476Y-89511190D01*
X99067857Y-89606428D01*
X99067857Y-89796904D01*
X99115476Y-89892142D01*
X99163095Y-89939761D01*
X99258333Y-89987380D01*
X99448809Y-89987380D01*
X99544047Y-89939761D01*
X99591666Y-89892142D01*
X99639285Y-89796904D01*
X99639285Y-89606428D01*
X99591666Y-89511190D01*
X99544047Y-89463571D01*
X99448809Y-89415952D01*
X97829761Y-68397380D02*
X97496428Y-67921190D01*
X97258333Y-68397380D02*
X97258333Y-67397380D01*
X97639285Y-67397380D01*
X97734523Y-67445000D01*
X97782142Y-67492619D01*
X97829761Y-67587857D01*
X97829761Y-67730714D01*
X97782142Y-67825952D01*
X97734523Y-67873571D01*
X97639285Y-67921190D01*
X97258333Y-67921190D01*
X98115476Y-67397380D02*
X98448809Y-68397380D01*
X98782142Y-67397380D01*
X99020238Y-67397380D02*
X99686904Y-67397380D01*
X99258333Y-68397380D01*
X97829761Y-46807380D02*
X97496428Y-46331190D01*
X97258333Y-46807380D02*
X97258333Y-45807380D01*
X97639285Y-45807380D01*
X97734523Y-45855000D01*
X97782142Y-45902619D01*
X97829761Y-45997857D01*
X97829761Y-46140714D01*
X97782142Y-46235952D01*
X97734523Y-46283571D01*
X97639285Y-46331190D01*
X97258333Y-46331190D01*
X98115476Y-45807380D02*
X98448809Y-46807380D01*
X98782142Y-45807380D01*
X99544047Y-45807380D02*
X99353571Y-45807380D01*
X99258333Y-45855000D01*
X99210714Y-45902619D01*
X99115476Y-46045476D01*
X99067857Y-46235952D01*
X99067857Y-46616904D01*
X99115476Y-46712142D01*
X99163095Y-46759761D01*
X99258333Y-46807380D01*
X99448809Y-46807380D01*
X99544047Y-46759761D01*
X99591666Y-46712142D01*
X99639285Y-46616904D01*
X99639285Y-46378809D01*
X99591666Y-46283571D01*
X99544047Y-46235952D01*
X99448809Y-46188333D01*
X99258333Y-46188333D01*
X99163095Y-46235952D01*
X99115476Y-46283571D01*
X99067857Y-46378809D01*
X15279761Y-89987380D02*
X14946428Y-89511190D01*
X14708333Y-89987380D02*
X14708333Y-88987380D01*
X15089285Y-88987380D01*
X15184523Y-89035000D01*
X15232142Y-89082619D01*
X15279761Y-89177857D01*
X15279761Y-89320714D01*
X15232142Y-89415952D01*
X15184523Y-89463571D01*
X15089285Y-89511190D01*
X14708333Y-89511190D01*
X15565476Y-88987380D02*
X15898809Y-89987380D01*
X16232142Y-88987380D01*
X16470238Y-88987380D02*
X17089285Y-88987380D01*
X16755952Y-89368333D01*
X16898809Y-89368333D01*
X16994047Y-89415952D01*
X17041666Y-89463571D01*
X17089285Y-89558809D01*
X17089285Y-89796904D01*
X17041666Y-89892142D01*
X16994047Y-89939761D01*
X16898809Y-89987380D01*
X16613095Y-89987380D01*
X16517857Y-89939761D01*
X16470238Y-89892142D01*
X15279761Y-68397380D02*
X14946428Y-67921190D01*
X14708333Y-68397380D02*
X14708333Y-67397380D01*
X15089285Y-67397380D01*
X15184523Y-67445000D01*
X15232142Y-67492619D01*
X15279761Y-67587857D01*
X15279761Y-67730714D01*
X15232142Y-67825952D01*
X15184523Y-67873571D01*
X15089285Y-67921190D01*
X14708333Y-67921190D01*
X15565476Y-67397380D02*
X15898809Y-68397380D01*
X16232142Y-67397380D01*
X16517857Y-67492619D02*
X16565476Y-67445000D01*
X16660714Y-67397380D01*
X16898809Y-67397380D01*
X16994047Y-67445000D01*
X17041666Y-67492619D01*
X17089285Y-67587857D01*
X17089285Y-67683095D01*
X17041666Y-67825952D01*
X16470238Y-68397380D01*
X17089285Y-68397380D01*
X15279761Y-46807380D02*
X14946428Y-46331190D01*
X14708333Y-46807380D02*
X14708333Y-45807380D01*
X15089285Y-45807380D01*
X15184523Y-45855000D01*
X15232142Y-45902619D01*
X15279761Y-45997857D01*
X15279761Y-46140714D01*
X15232142Y-46235952D01*
X15184523Y-46283571D01*
X15089285Y-46331190D01*
X14708333Y-46331190D01*
X15565476Y-45807380D02*
X15898809Y-46807380D01*
X16232142Y-45807380D01*
X17089285Y-46807380D02*
X16517857Y-46807380D01*
X16803571Y-46807380D02*
X16803571Y-45807380D01*
X16708333Y-45950238D01*
X16613095Y-46045476D01*
X16517857Y-46093095D01*
X42481666Y-87653761D02*
X42624523Y-87701380D01*
X42862619Y-87701380D01*
X42957857Y-87653761D01*
X43005476Y-87606142D01*
X43053095Y-87510904D01*
X43053095Y-87415666D01*
X43005476Y-87320428D01*
X42957857Y-87272809D01*
X42862619Y-87225190D01*
X42672142Y-87177571D01*
X42576904Y-87129952D01*
X42529285Y-87082333D01*
X42481666Y-86987095D01*
X42481666Y-86891857D01*
X42529285Y-86796619D01*
X42576904Y-86749000D01*
X42672142Y-86701380D01*
X42910238Y-86701380D01*
X43053095Y-86749000D01*
X43386428Y-86701380D02*
X43624523Y-87701380D01*
X43815000Y-86987095D01*
X44005476Y-87701380D01*
X44243571Y-86701380D01*
X45053095Y-87034714D02*
X45053095Y-87701380D01*
X44815000Y-86653761D02*
X44576904Y-87368047D01*
X45195952Y-87368047D01*
X70421666Y-87526761D02*
X70564523Y-87574380D01*
X70802619Y-87574380D01*
X70897857Y-87526761D01*
X70945476Y-87479142D01*
X70993095Y-87383904D01*
X70993095Y-87288666D01*
X70945476Y-87193428D01*
X70897857Y-87145809D01*
X70802619Y-87098190D01*
X70612142Y-87050571D01*
X70516904Y-87002952D01*
X70469285Y-86955333D01*
X70421666Y-86860095D01*
X70421666Y-86764857D01*
X70469285Y-86669619D01*
X70516904Y-86622000D01*
X70612142Y-86574380D01*
X70850238Y-86574380D01*
X70993095Y-86622000D01*
X71326428Y-86574380D02*
X71564523Y-87574380D01*
X71755000Y-86860095D01*
X71945476Y-87574380D01*
X72183571Y-86574380D01*
X72469285Y-86574380D02*
X73088333Y-86574380D01*
X72755000Y-86955333D01*
X72897857Y-86955333D01*
X72993095Y-87002952D01*
X73040714Y-87050571D01*
X73088333Y-87145809D01*
X73088333Y-87383904D01*
X73040714Y-87479142D01*
X72993095Y-87526761D01*
X72897857Y-87574380D01*
X72612142Y-87574380D01*
X72516904Y-87526761D01*
X72469285Y-87479142D01*
X70421666Y-65936761D02*
X70564523Y-65984380D01*
X70802619Y-65984380D01*
X70897857Y-65936761D01*
X70945476Y-65889142D01*
X70993095Y-65793904D01*
X70993095Y-65698666D01*
X70945476Y-65603428D01*
X70897857Y-65555809D01*
X70802619Y-65508190D01*
X70612142Y-65460571D01*
X70516904Y-65412952D01*
X70469285Y-65365333D01*
X70421666Y-65270095D01*
X70421666Y-65174857D01*
X70469285Y-65079619D01*
X70516904Y-65032000D01*
X70612142Y-64984380D01*
X70850238Y-64984380D01*
X70993095Y-65032000D01*
X71326428Y-64984380D02*
X71564523Y-65984380D01*
X71755000Y-65270095D01*
X71945476Y-65984380D01*
X72183571Y-64984380D01*
X72516904Y-65079619D02*
X72564523Y-65032000D01*
X72659761Y-64984380D01*
X72897857Y-64984380D01*
X72993095Y-65032000D01*
X73040714Y-65079619D01*
X73088333Y-65174857D01*
X73088333Y-65270095D01*
X73040714Y-65412952D01*
X72469285Y-65984380D01*
X73088333Y-65984380D01*
X70421666Y-44346761D02*
X70564523Y-44394380D01*
X70802619Y-44394380D01*
X70897857Y-44346761D01*
X70945476Y-44299142D01*
X70993095Y-44203904D01*
X70993095Y-44108666D01*
X70945476Y-44013428D01*
X70897857Y-43965809D01*
X70802619Y-43918190D01*
X70612142Y-43870571D01*
X70516904Y-43822952D01*
X70469285Y-43775333D01*
X70421666Y-43680095D01*
X70421666Y-43584857D01*
X70469285Y-43489619D01*
X70516904Y-43442000D01*
X70612142Y-43394380D01*
X70850238Y-43394380D01*
X70993095Y-43442000D01*
X71326428Y-43394380D02*
X71564523Y-44394380D01*
X71755000Y-43680095D01*
X71945476Y-44394380D01*
X72183571Y-43394380D01*
X73088333Y-44394380D02*
X72516904Y-44394380D01*
X72802619Y-44394380D02*
X72802619Y-43394380D01*
X72707380Y-43537238D01*
X72612142Y-43632476D01*
X72516904Y-43680095D01*
%LPC*%
D12*
X10795000Y-11430000D03*
X22225000Y-11430000D03*
X10795000Y-17780000D03*
X10795000Y-5080000D03*
X22225000Y-5080000D03*
X22225000Y-17780000D03*
X28575000Y-11430000D03*
X40005000Y-11430000D03*
X28575000Y-17780000D03*
X28575000Y-5080000D03*
X40005000Y-5080000D03*
X40005000Y-17780000D03*
X65405000Y-11430000D03*
X76835000Y-11430000D03*
X65405000Y-17780000D03*
X65405000Y-5080000D03*
X76835000Y-5080000D03*
X76835000Y-17780000D03*
X83185000Y-11430000D03*
X94615000Y-11430000D03*
X83185000Y-17780000D03*
X83185000Y-5080000D03*
X94615000Y-5080000D03*
X94615000Y-17780000D03*
X100965000Y-11430000D03*
X112395000Y-11430000D03*
X100965000Y-17780000D03*
X100965000Y-5080000D03*
X112395000Y-5080000D03*
X112395000Y-17780000D03*
X118745000Y-11430000D03*
X130175000Y-11430000D03*
X118745000Y-17780000D03*
X118745000Y-5080000D03*
X130175000Y-5080000D03*
X130175000Y-17780000D03*
D13*
X42545000Y-30480000D03*
X37545000Y-32980000D03*
X37545000Y-27980000D03*
X57785000Y-30480000D03*
X52785000Y-32980000D03*
X52785000Y-27980000D03*
X11985000Y-30520000D03*
X6985000Y-33020000D03*
X6985000Y-28020000D03*
X27225000Y-30480000D03*
X22225000Y-32980000D03*
X22225000Y-27980000D03*
D14*
X52705000Y-3175000D03*
D15*
X57205000Y-5175000D03*
X48205000Y-5175000D03*
D16*
X52705000Y-6175000D03*
D17*
X52705000Y-12175000D03*
D18*
X107315000Y-110490000D03*
D19*
X107315000Y-107950000D03*
D18*
X33655000Y-110490000D03*
D19*
X33655000Y-107950000D03*
D18*
X74930000Y-110490000D03*
X72390000Y-110490000D03*
X69850000Y-110490000D03*
D19*
X67310000Y-110490000D03*
D20*
X107315000Y-101600000D03*
D21*
X107315000Y-104140000D03*
D20*
X33655000Y-101600000D03*
D21*
X33655000Y-104140000D03*
D14*
X81240000Y-29210000D03*
X78740000Y-29210000D03*
X113705000Y-29210000D03*
X116205000Y-29210000D03*
D21*
X41315000Y-66080000D03*
D20*
X43815000Y-66080000D03*
X46315000Y-66080000D03*
D22*
X48565000Y-58580000D03*
X39065000Y-58580000D03*
D20*
X46315000Y-68580000D03*
X43815000Y-68580000D03*
X41315000Y-68580000D03*
D21*
X41315000Y-44450000D03*
D20*
X43815000Y-44450000D03*
X46315000Y-44450000D03*
D22*
X48565000Y-36950000D03*
X39065000Y-36950000D03*
D20*
X46315000Y-46950000D03*
X43815000Y-46950000D03*
X41315000Y-46950000D03*
D21*
X122595000Y-87630000D03*
D20*
X125095000Y-87630000D03*
X127595000Y-87630000D03*
D22*
X129895000Y-80130000D03*
X120295000Y-80130000D03*
D21*
X122595000Y-66040000D03*
D20*
X125095000Y-66040000D03*
X127595000Y-66040000D03*
D22*
X129895000Y-58540000D03*
X120295000Y-58540000D03*
D21*
X122595000Y-44450000D03*
D20*
X125095000Y-44450000D03*
X127595000Y-44450000D03*
D22*
X129895000Y-36950000D03*
X120295000Y-36950000D03*
D21*
X95925000Y-87630000D03*
D20*
X98425000Y-87630000D03*
X100925000Y-87630000D03*
D22*
X103225000Y-80130000D03*
X93625000Y-80130000D03*
D21*
X95925000Y-66040000D03*
D20*
X98425000Y-66040000D03*
X100925000Y-66040000D03*
D22*
X103225000Y-58540000D03*
X93625000Y-58540000D03*
D21*
X95925000Y-44450000D03*
D20*
X98425000Y-44450000D03*
X100925000Y-44450000D03*
D22*
X103225000Y-36950000D03*
X93625000Y-36950000D03*
D21*
X13375000Y-87630000D03*
D20*
X15875000Y-87630000D03*
X18375000Y-87630000D03*
D22*
X20675000Y-80130000D03*
X11075000Y-80130000D03*
D21*
X13375000Y-66040000D03*
D20*
X15875000Y-66040000D03*
X18375000Y-66040000D03*
D22*
X20675000Y-58540000D03*
X11075000Y-58540000D03*
D21*
X13375000Y-44450000D03*
D20*
X15875000Y-44450000D03*
X18375000Y-44450000D03*
D22*
X20675000Y-36950000D03*
X11075000Y-36950000D03*
D23*
X46230000Y-84710000D03*
X46230000Y-80010000D03*
X46230000Y-75310000D03*
X41400000Y-84710000D03*
X41400000Y-80010000D03*
X41400000Y-75310000D03*
X71755000Y-84710000D03*
X71755000Y-80010000D03*
X71755000Y-75310000D03*
X71755000Y-63120000D03*
X71755000Y-58420000D03*
X71755000Y-53720000D03*
X74170000Y-41530000D03*
X74170000Y-36830000D03*
X74170000Y-32130000D03*
X69340000Y-41530000D03*
X69340000Y-36830000D03*
X69340000Y-32130000D03*
D18*
X6985000Y-83820000D03*
X6985000Y-81280000D03*
X6985000Y-78740000D03*
X6985000Y-76200000D03*
X6985000Y-73660000D03*
X6985000Y-71120000D03*
X6985000Y-68580000D03*
D19*
X6985000Y-66040000D03*
D18*
X6985000Y-45720000D03*
X6985000Y-43180000D03*
X6985000Y-40640000D03*
D19*
X6985000Y-38100000D03*
D18*
X60325000Y-83820000D03*
X60325000Y-81280000D03*
X60325000Y-78740000D03*
D19*
X60325000Y-76200000D03*
D18*
X60325000Y-45720000D03*
X60325000Y-43180000D03*
X60325000Y-40640000D03*
D19*
X60325000Y-38100000D03*
D18*
X80645000Y-83820000D03*
X80645000Y-81280000D03*
X80645000Y-78740000D03*
X80645000Y-76200000D03*
X80645000Y-73660000D03*
X80645000Y-71120000D03*
X80645000Y-68580000D03*
D19*
X80645000Y-66040000D03*
D18*
X80645000Y-45720000D03*
X80645000Y-43180000D03*
X80645000Y-40640000D03*
D19*
X80645000Y-38100000D03*
D18*
X133985000Y-83820000D03*
X133985000Y-81280000D03*
X133985000Y-78740000D03*
D19*
X133985000Y-76200000D03*
D18*
X133985000Y-45720000D03*
X133985000Y-43180000D03*
X133985000Y-40640000D03*
D19*
X133985000Y-38100000D03*
M02*
