M48
; DRILL file {KiCad 5.1.10-88a1d61d58~90~ubuntu20.04.1} date Sun Aug  8 15:21:26 2021
; FORMAT={-:-/ absolute / metric / decimal}
; #@! TF.CreationDate,2021-08-08T15:21:26-04:00
; #@! TF.GenerationSoftware,Kicad,Pcbnew,5.1.10-88a1d61d58~90~ubuntu20.04.1
; #@! TF.FileFunction,Plated,1,4,PTH
FMAT,2
METRIC
T1C0.400
T2C0.800
T3C0.900
T4C1.000
T5C1.100
T6C1.500
T7C1.850
%
G90
G05
T1
X10.16Y-75.184
X11.176Y-69.85
X11.176Y-72.39
X22.479Y-69.977
X25.4Y-69.469
X26.416Y-50.254
X28.829Y-48.006
X28.829Y-46.46
X28.829Y-65.278
X29.467Y-68.967
X30.226Y-57.15
X31.941Y-33.401
X32.893Y-38.798
X32.893Y-64.77
X33.401Y-45.974
X33.528Y-68.834
X34.163Y-52.324
X34.163Y-56.934
X34.163Y-83.058
X34.671Y-45.72
X35.687Y-72.136
X35.941Y-47.498
X36.019Y-73.284
X36.195Y-75.438
X36.449Y-48.199
X37.084Y-67.945
X39.243Y-99.822
X40.259Y-52.451
X44.196Y-104.775
X45.339Y-104.267
X45.339Y-105.791
X45.339Y-108.966
X45.339Y-110.363
X46.99Y-21.717
X47.024Y-51.778
X49.53Y-47.434
X49.784Y-65.151
X49.847Y-64.135
X50.292Y-75.184
X50.8Y-58.674
X50.8Y-59.69
X50.927Y-21.336
X51.181Y-70.104
X51.435Y-78.486
X52.197Y-21.336
X52.197Y-61.412
X52.451Y-17.526
X52.832Y-111.633
X53.086Y-112.776
X53.467Y-21.336
X53.911Y-17.526
X54.229Y-74.422
X54.61Y-97.79
X54.8Y-96.266
X54.864Y-60.452
X55.88Y-51.816
X55.88Y-51.816
X55.88Y-70.777
X57.15Y-103.886
X57.277Y-47.686
X57.277Y-74.676
X57.658Y-111.379
X57.658Y-112.776
X58.293Y-51.602
X58.42Y-103.886
X58.864Y-100.266
X58.928Y-70.358
X59.69Y-103.886
X60.325Y-100.203
X61.976Y-51.181
X61.976Y-70.294
X62.992Y-91.694
X62.992Y-92.71
X62.992Y-93.726
X64.77Y-103.632
X65.278Y-105.029
X70.739Y-90.678
X71.945Y-90.551
X73.025Y-29.972
X73.66Y-90.043
X74.803Y-102.616
X75.057Y-90.043
X76.327Y-90.932
X78.486Y-102.616
X78.613Y-105.918
X78.867Y-90.678
X79.629Y-111.506
X81.335Y-90.678
X82.295Y-106.011
X83.185Y-111.252
X84.074Y-106.045
X85.09Y-57.15
X85.09Y-70.866
X85.09Y-105.791
X85.814Y-90.678
X85.979Y-66.675
X86.106Y-71.628
X86.487Y-110.744
X86.995Y-27.305
X86.995Y-87.884
X86.995Y-104.902
X87.066Y-37.14
X87.63Y-57.404
X87.694Y-61.468
X88.138Y-84.328
X88.265Y-90.508
X88.646Y-105.918
X88.745Y-82.296
X89.154Y-51.054
X89.212Y-70.681
X90.17Y-73.279
X90.297Y-70.485
X90.805Y-52.705
X90.932Y-36.957
X91.44Y-45.593
X91.44Y-86.614
X91.694Y-90.678
X91.694Y-99.822
X91.821Y-67.945
X91.821Y-64.135
X92.71Y-39.878
X92.837Y-42.418
X92.837Y-63.881
X92.837Y-68.046
X93.091Y-104.521
X93.599Y-99.822
X93.937Y-72.306
X95.25Y-99.822
X95.631Y-27.178
X95.631Y-72.39
X96.139Y-91.948
X96.901Y-95.25
X96.901Y-105.41
X96.901Y-112.522
X97.155Y-107.188
X97.155Y-108.712
X97.79Y-82.423
X98.171Y-95.504
X99.441Y-31.369
X101.219Y-100.076
X102.743Y-105.41
X104.267Y-100.076
X104.724Y-26.81
X106.172Y-34.544
X106.172Y-71.501
X107.188Y-70.485
X107.315Y-45.466
X108.1Y-31.646
X108.1Y-35.248
X108.204Y-29.337
X108.267Y-27.747
X108.458Y-37.084
X108.765Y-74.496
X109.22Y-29.337
X110.49Y-36.83
X110.49Y-44.958
X111.76Y-45.72
X112.095Y-36.482
X122.364Y-30.162
X125.095Y-27.114
X132.715Y-26.924
T2
X78.74Y-29.21
X81.24Y-29.21
X113.705Y-29.21
X116.205Y-29.21
T3
X33.655Y-101.6
X33.655Y-104.14
X107.315Y-101.6
X107.315Y-104.14
T4
X6.985Y-28.02
X6.985Y-33.02
X6.985Y-38.1
X6.985Y-40.64
X6.985Y-43.18
X6.985Y-45.72
X6.985Y-66.04
X6.985Y-68.58
X6.985Y-71.12
X6.985Y-73.66
X6.985Y-76.2
X6.985Y-78.74
X6.985Y-81.28
X6.985Y-83.82
X11.985Y-30.52
X13.375Y-44.45
X13.375Y-66.04
X13.375Y-87.63
X15.875Y-44.45
X15.875Y-66.04
X15.875Y-87.63
X18.375Y-44.45
X18.375Y-66.04
X18.375Y-87.63
X22.225Y-27.98
X22.225Y-32.98
X27.225Y-30.48
X33.655Y-107.95
X33.655Y-110.49
X37.545Y-27.98
X37.545Y-32.98
X41.315Y-44.45
X41.315Y-46.95
X41.315Y-66.08
X41.315Y-68.58
X42.545Y-30.48
X43.815Y-44.45
X43.815Y-46.95
X43.815Y-66.08
X43.815Y-68.58
X46.315Y-44.45
X46.315Y-46.95
X46.315Y-66.08
X46.315Y-68.58
X52.785Y-27.98
X52.785Y-32.98
X57.785Y-30.48
X60.325Y-38.1
X60.325Y-40.64
X60.325Y-43.18
X60.325Y-45.72
X60.325Y-76.2
X60.325Y-78.74
X60.325Y-81.28
X60.325Y-83.82
X67.31Y-110.49
X69.85Y-110.49
X72.39Y-110.49
X74.93Y-110.49
X80.645Y-38.1
X80.645Y-40.64
X80.645Y-43.18
X80.645Y-45.72
X80.645Y-66.04
X80.645Y-68.58
X80.645Y-71.12
X80.645Y-73.66
X80.645Y-76.2
X80.645Y-78.74
X80.645Y-81.28
X80.645Y-83.82
X95.925Y-44.45
X95.925Y-66.04
X95.925Y-87.63
X98.425Y-44.45
X98.425Y-66.04
X98.425Y-87.63
X100.925Y-44.45
X100.925Y-66.04
X100.925Y-87.63
X107.315Y-107.95
X107.315Y-110.49
X122.595Y-44.45
X122.595Y-66.04
X122.595Y-87.63
X125.095Y-44.45
X125.095Y-66.04
X125.095Y-87.63
X127.595Y-44.45
X127.595Y-66.04
X127.595Y-87.63
X133.985Y-38.1
X133.985Y-40.64
X133.985Y-43.18
X133.985Y-45.72
X133.985Y-76.2
X133.985Y-78.74
X133.985Y-81.28
X133.985Y-83.82
T6
X10.795Y-5.08
X10.795Y-11.43
X10.795Y-17.78
X22.225Y-5.08
X22.225Y-11.43
X22.225Y-17.78
X28.575Y-5.08
X28.575Y-11.43
X28.575Y-17.78
X40.005Y-5.08
X40.005Y-11.43
X40.005Y-17.78
X65.405Y-5.08
X65.405Y-11.43
X65.405Y-17.78
X76.835Y-5.08
X76.835Y-11.43
X76.835Y-17.78
X83.185Y-5.08
X83.185Y-11.43
X83.185Y-17.78
X94.615Y-5.08
X94.615Y-11.43
X94.615Y-17.78
X100.965Y-5.08
X100.965Y-11.43
X100.965Y-17.78
X112.395Y-5.08
X112.395Y-11.43
X112.395Y-17.78
X118.745Y-5.08
X118.745Y-11.43
X118.745Y-17.78
X130.175Y-5.08
X130.175Y-11.43
X130.175Y-17.78
T7
X41.4Y-75.31
X41.4Y-80.01
X41.4Y-84.71
X46.23Y-75.31
X46.23Y-80.01
X46.23Y-84.71
X69.34Y-32.13
X69.34Y-36.83
X69.34Y-41.53
X71.755Y-53.72
X71.755Y-58.42
X71.755Y-63.12
X71.755Y-75.31
X71.755Y-80.01
X71.755Y-84.71
X74.17Y-32.13
X74.17Y-36.83
X74.17Y-41.53
T4
X48.205Y-4.425G85X48.205Y-5.925
G05
X52.055Y-6.175G85X53.355Y-6.175
G05
X51.705Y-12.175G85X53.705Y-12.175
G05
X57.205Y-4.425G85X57.205Y-5.925
G05
T5
X11.075Y-37.3G85X11.075Y-36.6
G05
X11.075Y-58.89G85X11.075Y-58.19
G05
X11.075Y-80.48G85X11.075Y-79.78
G05
X20.675Y-37.3G85X20.675Y-36.6
G05
X20.675Y-58.89G85X20.675Y-58.19
G05
X20.675Y-80.48G85X20.675Y-79.78
G05
X39.065Y-37.3G85X39.065Y-36.6
G05
X39.065Y-58.93G85X39.065Y-58.23
G05
X48.565Y-37.3G85X48.565Y-36.6
G05
X48.565Y-58.93G85X48.565Y-58.23
G05
X93.625Y-37.3G85X93.625Y-36.6
G05
X93.625Y-58.89G85X93.625Y-58.19
G05
X93.625Y-80.48G85X93.625Y-79.78
G05
X103.225Y-37.3G85X103.225Y-36.6
G05
X103.225Y-58.89G85X103.225Y-58.19
G05
X103.225Y-80.48G85X103.225Y-79.78
G05
X120.295Y-37.3G85X120.295Y-36.6
G05
X120.295Y-58.89G85X120.295Y-58.19
G05
X120.295Y-80.48G85X120.295Y-79.78
G05
X129.895Y-37.3G85X129.895Y-36.6
G05
X129.895Y-58.89G85X129.895Y-58.19
G05
X129.895Y-80.48G85X129.895Y-79.78
G05
T0
M30
