G04 #@! TF.GenerationSoftware,KiCad,Pcbnew,5.1.10-88a1d61d58~90~ubuntu20.04.1*
G04 #@! TF.CreationDate,2021-08-08T15:21:02-04:00*
G04 #@! TF.ProjectId,stereo_whooshy_sound_main_pcb,73746572-656f-45f7-9768-6f6f7368795f,0*
G04 #@! TF.SameCoordinates,Original*
G04 #@! TF.FileFunction,Soldermask,Top*
G04 #@! TF.FilePolarity,Negative*
%FSLAX46Y46*%
G04 Gerber Fmt 4.6, Leading zero omitted, Abs format (unit mm)*
G04 Created by KiCad (PCBNEW 5.1.10-88a1d61d58~90~ubuntu20.04.1) date 2021-08-08 15:21:02*
%MOMM*%
%LPD*%
G01*
G04 APERTURE LIST*
%ADD10C,3.000000*%
%ADD11C,2.000000*%
%ADD12C,1.600000*%
%ADD13O,2.000000X3.500000*%
%ADD14O,3.300000X2.000000*%
%ADD15R,4.000000X2.000000*%
%ADD16O,1.700000X1.700000*%
%ADD17R,1.700000X1.700000*%
%ADD18C,1.800000*%
%ADD19R,1.800000X1.800000*%
%ADD20O,2.720000X3.240000*%
%ADD21C,2.500000*%
G04 APERTURE END LIST*
D10*
X10795000Y-11430000D03*
X22225000Y-11430000D03*
X10795000Y-17780000D03*
X10795000Y-5080000D03*
X22225000Y-5080000D03*
X22225000Y-17780000D03*
X28575000Y-11430000D03*
X40005000Y-11430000D03*
X28575000Y-17780000D03*
X28575000Y-5080000D03*
X40005000Y-5080000D03*
X40005000Y-17780000D03*
X65405000Y-11430000D03*
X76835000Y-11430000D03*
X65405000Y-17780000D03*
X65405000Y-5080000D03*
X76835000Y-5080000D03*
X76835000Y-17780000D03*
X83185000Y-11430000D03*
X94615000Y-11430000D03*
X83185000Y-17780000D03*
X83185000Y-5080000D03*
X94615000Y-5080000D03*
X94615000Y-17780000D03*
X100965000Y-11430000D03*
X112395000Y-11430000D03*
X100965000Y-17780000D03*
X100965000Y-5080000D03*
X112395000Y-5080000D03*
X112395000Y-17780000D03*
X118745000Y-11430000D03*
X130175000Y-11430000D03*
X118745000Y-17780000D03*
X118745000Y-5080000D03*
X130175000Y-5080000D03*
X130175000Y-17780000D03*
D11*
X42545000Y-30480000D03*
X37545000Y-32980000D03*
X37545000Y-27980000D03*
X57785000Y-30480000D03*
X52785000Y-32980000D03*
X52785000Y-27980000D03*
X11985000Y-30520000D03*
X6985000Y-33020000D03*
X6985000Y-28020000D03*
X27225000Y-30480000D03*
X22225000Y-32980000D03*
X22225000Y-27980000D03*
D12*
X52705000Y-3175000D03*
D13*
X57205000Y-5175000D03*
X48205000Y-5175000D03*
D14*
X52705000Y-6175000D03*
D15*
X52705000Y-12175000D03*
D16*
X107315000Y-110490000D03*
D17*
X107315000Y-107950000D03*
D16*
X33655000Y-110490000D03*
D17*
X33655000Y-107950000D03*
D16*
X74930000Y-110490000D03*
X72390000Y-110490000D03*
X69850000Y-110490000D03*
D17*
X67310000Y-110490000D03*
D18*
X107315000Y-101600000D03*
D19*
X107315000Y-104140000D03*
D18*
X33655000Y-101600000D03*
D19*
X33655000Y-104140000D03*
D12*
X81240000Y-29210000D03*
X78740000Y-29210000D03*
X113705000Y-29210000D03*
X116205000Y-29210000D03*
D19*
X41315000Y-66080000D03*
D18*
X43815000Y-66080000D03*
X46315000Y-66080000D03*
D20*
X48565000Y-58580000D03*
X39065000Y-58580000D03*
D18*
X46315000Y-68580000D03*
X43815000Y-68580000D03*
X41315000Y-68580000D03*
D19*
X41315000Y-44450000D03*
D18*
X43815000Y-44450000D03*
X46315000Y-44450000D03*
D20*
X48565000Y-36950000D03*
X39065000Y-36950000D03*
D18*
X46315000Y-46950000D03*
X43815000Y-46950000D03*
X41315000Y-46950000D03*
D19*
X122595000Y-87630000D03*
D18*
X125095000Y-87630000D03*
X127595000Y-87630000D03*
D20*
X129895000Y-80130000D03*
X120295000Y-80130000D03*
D19*
X122595000Y-66040000D03*
D18*
X125095000Y-66040000D03*
X127595000Y-66040000D03*
D20*
X129895000Y-58540000D03*
X120295000Y-58540000D03*
D19*
X122595000Y-44450000D03*
D18*
X125095000Y-44450000D03*
X127595000Y-44450000D03*
D20*
X129895000Y-36950000D03*
X120295000Y-36950000D03*
D19*
X95925000Y-87630000D03*
D18*
X98425000Y-87630000D03*
X100925000Y-87630000D03*
D20*
X103225000Y-80130000D03*
X93625000Y-80130000D03*
D19*
X95925000Y-66040000D03*
D18*
X98425000Y-66040000D03*
X100925000Y-66040000D03*
D20*
X103225000Y-58540000D03*
X93625000Y-58540000D03*
D19*
X95925000Y-44450000D03*
D18*
X98425000Y-44450000D03*
X100925000Y-44450000D03*
D20*
X103225000Y-36950000D03*
X93625000Y-36950000D03*
D19*
X13375000Y-87630000D03*
D18*
X15875000Y-87630000D03*
X18375000Y-87630000D03*
D20*
X20675000Y-80130000D03*
X11075000Y-80130000D03*
D19*
X13375000Y-66040000D03*
D18*
X15875000Y-66040000D03*
X18375000Y-66040000D03*
D20*
X20675000Y-58540000D03*
X11075000Y-58540000D03*
D19*
X13375000Y-44450000D03*
D18*
X15875000Y-44450000D03*
X18375000Y-44450000D03*
D20*
X20675000Y-36950000D03*
X11075000Y-36950000D03*
D21*
X46230000Y-84710000D03*
X46230000Y-80010000D03*
X46230000Y-75310000D03*
X41400000Y-84710000D03*
X41400000Y-80010000D03*
X41400000Y-75310000D03*
X71755000Y-84710000D03*
X71755000Y-80010000D03*
X71755000Y-75310000D03*
X71755000Y-63120000D03*
X71755000Y-58420000D03*
X71755000Y-53720000D03*
X74170000Y-41530000D03*
X74170000Y-36830000D03*
X74170000Y-32130000D03*
X69340000Y-41530000D03*
X69340000Y-36830000D03*
X69340000Y-32130000D03*
D16*
X6985000Y-83820000D03*
X6985000Y-81280000D03*
X6985000Y-78740000D03*
X6985000Y-76200000D03*
X6985000Y-73660000D03*
X6985000Y-71120000D03*
X6985000Y-68580000D03*
D17*
X6985000Y-66040000D03*
D16*
X6985000Y-45720000D03*
X6985000Y-43180000D03*
X6985000Y-40640000D03*
D17*
X6985000Y-38100000D03*
D16*
X60325000Y-83820000D03*
X60325000Y-81280000D03*
X60325000Y-78740000D03*
D17*
X60325000Y-76200000D03*
D16*
X60325000Y-45720000D03*
X60325000Y-43180000D03*
X60325000Y-40640000D03*
D17*
X60325000Y-38100000D03*
D16*
X80645000Y-83820000D03*
X80645000Y-81280000D03*
X80645000Y-78740000D03*
X80645000Y-76200000D03*
X80645000Y-73660000D03*
X80645000Y-71120000D03*
X80645000Y-68580000D03*
D17*
X80645000Y-66040000D03*
D16*
X80645000Y-45720000D03*
X80645000Y-43180000D03*
X80645000Y-40640000D03*
D17*
X80645000Y-38100000D03*
D16*
X133985000Y-83820000D03*
X133985000Y-81280000D03*
X133985000Y-78740000D03*
D17*
X133985000Y-76200000D03*
D16*
X133985000Y-45720000D03*
X133985000Y-43180000D03*
X133985000Y-40640000D03*
D17*
X133985000Y-38100000D03*
M02*
