G04 #@! TF.GenerationSoftware,KiCad,Pcbnew,5.1.10-88a1d61d58~90~ubuntu20.04.1*
G04 #@! TF.CreationDate,2021-08-08T15:21:02-04:00*
G04 #@! TF.ProjectId,stereo_whooshy_sound_main_pcb,73746572-656f-45f7-9768-6f6f7368795f,0*
G04 #@! TF.SameCoordinates,Original*
G04 #@! TF.FileFunction,Copper,L1,Top*
G04 #@! TF.FilePolarity,Positive*
%FSLAX46Y46*%
G04 Gerber Fmt 4.6, Leading zero omitted, Abs format (unit mm)*
G04 Created by KiCad (PCBNEW 5.1.10-88a1d61d58~90~ubuntu20.04.1) date 2021-08-08 15:21:02*
%MOMM*%
%LPD*%
G01*
G04 APERTURE LIST*
G04 #@! TA.AperFunction,ComponentPad*
%ADD10C,3.000000*%
G04 #@! TD*
G04 #@! TA.AperFunction,ComponentPad*
%ADD11C,2.000000*%
G04 #@! TD*
G04 #@! TA.AperFunction,ComponentPad*
%ADD12O,2.000000X3.500000*%
G04 #@! TD*
G04 #@! TA.AperFunction,ComponentPad*
%ADD13O,3.300000X2.000000*%
G04 #@! TD*
G04 #@! TA.AperFunction,ComponentPad*
%ADD14R,4.000000X2.000000*%
G04 #@! TD*
G04 #@! TA.AperFunction,ComponentPad*
%ADD15O,1.700000X1.700000*%
G04 #@! TD*
G04 #@! TA.AperFunction,ComponentPad*
%ADD16R,1.700000X1.700000*%
G04 #@! TD*
G04 #@! TA.AperFunction,ComponentPad*
%ADD17C,1.800000*%
G04 #@! TD*
G04 #@! TA.AperFunction,ComponentPad*
%ADD18R,1.800000X1.800000*%
G04 #@! TD*
G04 #@! TA.AperFunction,ComponentPad*
%ADD19C,1.600000*%
G04 #@! TD*
G04 #@! TA.AperFunction,ComponentPad*
%ADD20O,2.720000X3.240000*%
G04 #@! TD*
G04 #@! TA.AperFunction,ComponentPad*
%ADD21C,2.500000*%
G04 #@! TD*
G04 #@! TA.AperFunction,ViaPad*
%ADD22C,0.800000*%
G04 #@! TD*
G04 #@! TA.AperFunction,Conductor*
%ADD23C,1.000000*%
G04 #@! TD*
G04 #@! TA.AperFunction,Conductor*
%ADD24C,0.400000*%
G04 #@! TD*
G04 #@! TA.AperFunction,Conductor*
%ADD25C,0.700000*%
G04 #@! TD*
G04 #@! TA.AperFunction,Conductor*
%ADD26C,0.500000*%
G04 #@! TD*
G04 APERTURE END LIST*
D10*
X10795000Y-11430000D03*
X22225000Y-11430000D03*
X10795000Y-17780000D03*
X10795000Y-5080000D03*
X22225000Y-5080000D03*
X22225000Y-17780000D03*
X28575000Y-11430000D03*
X40005000Y-11430000D03*
X28575000Y-17780000D03*
X28575000Y-5080000D03*
X40005000Y-5080000D03*
X40005000Y-17780000D03*
X65405000Y-11430000D03*
X76835000Y-11430000D03*
X65405000Y-17780000D03*
X65405000Y-5080000D03*
X76835000Y-5080000D03*
X76835000Y-17780000D03*
X83185000Y-11430000D03*
X94615000Y-11430000D03*
X83185000Y-17780000D03*
X83185000Y-5080000D03*
X94615000Y-5080000D03*
X94615000Y-17780000D03*
X100965000Y-11430000D03*
X112395000Y-11430000D03*
X100965000Y-17780000D03*
X100965000Y-5080000D03*
X112395000Y-5080000D03*
X112395000Y-17780000D03*
X118745000Y-11430000D03*
X130175000Y-11430000D03*
X118745000Y-17780000D03*
X118745000Y-5080000D03*
X130175000Y-5080000D03*
X130175000Y-17780000D03*
D11*
X42545000Y-30480000D03*
X37545000Y-32980000D03*
X37545000Y-27980000D03*
X57785000Y-30480000D03*
X52785000Y-32980000D03*
X52785000Y-27980000D03*
X11985000Y-30520000D03*
X6985000Y-33020000D03*
X6985000Y-28020000D03*
X27225000Y-30480000D03*
X22225000Y-32980000D03*
X22225000Y-27980000D03*
D12*
X57205000Y-5175000D03*
X48205000Y-5175000D03*
D13*
X52705000Y-6175000D03*
D14*
X52705000Y-12175000D03*
D15*
X107315000Y-110490000D03*
D16*
X107315000Y-107950000D03*
D15*
X33655000Y-110490000D03*
D16*
X33655000Y-107950000D03*
D15*
X74930000Y-110490000D03*
X72390000Y-110490000D03*
X69850000Y-110490000D03*
D16*
X67310000Y-110490000D03*
D17*
X107315000Y-101600000D03*
D18*
X107315000Y-104140000D03*
D17*
X33655000Y-101600000D03*
D18*
X33655000Y-104140000D03*
D19*
X81240000Y-29210000D03*
X78740000Y-29210000D03*
X113705000Y-29210000D03*
X116205000Y-29210000D03*
D18*
X41315000Y-66080000D03*
D17*
X43815000Y-66080000D03*
X46315000Y-66080000D03*
D20*
X48565000Y-58580000D03*
X39065000Y-58580000D03*
D17*
X46315000Y-68580000D03*
X43815000Y-68580000D03*
X41315000Y-68580000D03*
D18*
X41315000Y-44450000D03*
D17*
X43815000Y-44450000D03*
X46315000Y-44450000D03*
D20*
X48565000Y-36950000D03*
X39065000Y-36950000D03*
D17*
X46315000Y-46950000D03*
X43815000Y-46950000D03*
X41315000Y-46950000D03*
D18*
X122595000Y-87630000D03*
D17*
X125095000Y-87630000D03*
X127595000Y-87630000D03*
D20*
X129895000Y-80130000D03*
X120295000Y-80130000D03*
D18*
X122595000Y-66040000D03*
D17*
X125095000Y-66040000D03*
X127595000Y-66040000D03*
D20*
X129895000Y-58540000D03*
X120295000Y-58540000D03*
D18*
X122595000Y-44450000D03*
D17*
X125095000Y-44450000D03*
X127595000Y-44450000D03*
D20*
X129895000Y-36950000D03*
X120295000Y-36950000D03*
D18*
X95925000Y-87630000D03*
D17*
X98425000Y-87630000D03*
X100925000Y-87630000D03*
D20*
X103225000Y-80130000D03*
X93625000Y-80130000D03*
D18*
X95925000Y-66040000D03*
D17*
X98425000Y-66040000D03*
X100925000Y-66040000D03*
D20*
X103225000Y-58540000D03*
X93625000Y-58540000D03*
D18*
X95925000Y-44450000D03*
D17*
X98425000Y-44450000D03*
X100925000Y-44450000D03*
D20*
X103225000Y-36950000D03*
X93625000Y-36950000D03*
D18*
X13375000Y-87630000D03*
D17*
X15875000Y-87630000D03*
X18375000Y-87630000D03*
D20*
X20675000Y-80130000D03*
X11075000Y-80130000D03*
D18*
X13375000Y-66040000D03*
D17*
X15875000Y-66040000D03*
X18375000Y-66040000D03*
D20*
X20675000Y-58540000D03*
X11075000Y-58540000D03*
D18*
X13375000Y-44450000D03*
D17*
X15875000Y-44450000D03*
X18375000Y-44450000D03*
D20*
X20675000Y-36950000D03*
X11075000Y-36950000D03*
D21*
X46230000Y-84710000D03*
X46230000Y-80010000D03*
X46230000Y-75310000D03*
X41400000Y-84710000D03*
X41400000Y-80010000D03*
X41400000Y-75310000D03*
X71755000Y-84710000D03*
X71755000Y-80010000D03*
X71755000Y-75310000D03*
X71755000Y-63120000D03*
X71755000Y-58420000D03*
X71755000Y-53720000D03*
X74170000Y-41530000D03*
X74170000Y-36830000D03*
X74170000Y-32130000D03*
X69340000Y-41530000D03*
X69340000Y-36830000D03*
X69340000Y-32130000D03*
D15*
X6985000Y-83820000D03*
X6985000Y-81280000D03*
X6985000Y-78740000D03*
X6985000Y-76200000D03*
X6985000Y-73660000D03*
X6985000Y-71120000D03*
X6985000Y-68580000D03*
D16*
X6985000Y-66040000D03*
D15*
X6985000Y-45720000D03*
X6985000Y-43180000D03*
X6985000Y-40640000D03*
D16*
X6985000Y-38100000D03*
D15*
X60325000Y-83820000D03*
X60325000Y-81280000D03*
X60325000Y-78740000D03*
D16*
X60325000Y-76200000D03*
D15*
X60325000Y-45720000D03*
X60325000Y-43180000D03*
X60325000Y-40640000D03*
D16*
X60325000Y-38100000D03*
D15*
X80645000Y-83820000D03*
X80645000Y-81280000D03*
X80645000Y-78740000D03*
X80645000Y-76200000D03*
X80645000Y-73660000D03*
X80645000Y-71120000D03*
X80645000Y-68580000D03*
D16*
X80645000Y-66040000D03*
D15*
X80645000Y-45720000D03*
X80645000Y-43180000D03*
X80645000Y-40640000D03*
D16*
X80645000Y-38100000D03*
D15*
X133985000Y-83820000D03*
X133985000Y-81280000D03*
X133985000Y-78740000D03*
D16*
X133985000Y-76200000D03*
D15*
X133985000Y-45720000D03*
X133985000Y-43180000D03*
X133985000Y-40640000D03*
D16*
X133985000Y-38100000D03*
D22*
X73660000Y-90043000D03*
X75057000Y-90043000D03*
X32893000Y-38798500D03*
X32893000Y-64770000D03*
X34163000Y-83058000D03*
X49847500Y-64135000D03*
X61976000Y-70294500D03*
X54800500Y-96266000D03*
X60325000Y-100203000D03*
X58864500Y-100266500D03*
X44196000Y-104775000D03*
X87693500Y-61468000D03*
X125095000Y-27114500D03*
X132715000Y-26924000D03*
X122364500Y-30162500D03*
X49784000Y-65151000D03*
X29466578Y-68967111D03*
X34163000Y-56934010D03*
X28829000Y-46459977D03*
X35941000Y-47498000D03*
X96139000Y-91948000D03*
X91694000Y-90678000D03*
X78867000Y-90678000D03*
X76327000Y-90932000D03*
X39243000Y-99822000D03*
X86995000Y-27305000D03*
X95631000Y-27178000D03*
X91821000Y-67945000D03*
X11176000Y-69850000D03*
X11176000Y-72390000D03*
X10160000Y-75184000D03*
X65278000Y-105029000D03*
X36449000Y-48198990D03*
X54864000Y-60452000D03*
X92837000Y-68045979D03*
X108267500Y-27747010D03*
X104267000Y-100076000D03*
X102743000Y-105410000D03*
X96901000Y-105410000D03*
X96901000Y-112522000D03*
X86487000Y-110744000D03*
X36195000Y-75437994D03*
X85813990Y-90678000D03*
X61976000Y-51181000D03*
X88265000Y-90508010D03*
X78486000Y-102616000D03*
X74803000Y-102616000D03*
X58420000Y-103886000D03*
X59690000Y-103886000D03*
X57150000Y-103886000D03*
X54610000Y-97790000D03*
X62992000Y-92710000D03*
X62992000Y-91694000D03*
X62992000Y-93726000D03*
X64770000Y-103632000D03*
X93599002Y-99822000D03*
X91694000Y-99822000D03*
X95250000Y-99822000D03*
X73025000Y-29972000D03*
X107315000Y-45466000D03*
X108458000Y-37084000D03*
X87066000Y-37140000D03*
X112095088Y-36482269D03*
X97790000Y-82423000D03*
X81334979Y-90678000D03*
X88745021Y-82296000D03*
X82295377Y-106011495D03*
X91440000Y-45593000D03*
X52832000Y-111633000D03*
X53086006Y-112776000D03*
X57658000Y-111379000D03*
X57658007Y-112775993D03*
X78613000Y-105918000D03*
X90932000Y-36957000D03*
X106172000Y-34544000D03*
X70739000Y-90678000D03*
X71945500Y-90551000D03*
X92837000Y-63881000D03*
X50800000Y-59690000D03*
X50800000Y-58674000D03*
X53467000Y-21336000D03*
X52197000Y-21336000D03*
X50927000Y-21336000D03*
X46990000Y-21717000D03*
X33401000Y-45974000D03*
X34671000Y-45720000D03*
X91821010Y-64135000D03*
X96901000Y-95250000D03*
X98171000Y-95504000D03*
X35687000Y-72136000D03*
X97155000Y-107188000D03*
X97155000Y-108712000D03*
X36019319Y-73283989D03*
X93937001Y-72305999D03*
X109220000Y-29337000D03*
X108204000Y-29337000D03*
X92710000Y-39878000D03*
X108099998Y-31645998D03*
X108099998Y-35248296D03*
X92837000Y-42418000D03*
X55880000Y-51816000D03*
X55880000Y-51816000D03*
X55880000Y-70777010D03*
X85090000Y-57150000D03*
X40259000Y-52451004D03*
X34163000Y-52324000D03*
X52451000Y-17526000D03*
X53911500Y-17526000D03*
X45339000Y-108966000D03*
X45339000Y-110363000D03*
X101219000Y-100076000D03*
X45339000Y-104267000D03*
X45339000Y-105791000D03*
X58293000Y-51602491D03*
X22479000Y-69977000D03*
X58927996Y-70358000D03*
X104724490Y-26809990D03*
X31940500Y-33401000D03*
X52197000Y-61411957D03*
X85979000Y-66675000D03*
X99441000Y-31369000D03*
X110490000Y-44958000D03*
X51435000Y-78486000D03*
X51181000Y-70104000D03*
X95631000Y-72390000D03*
X30226000Y-57150000D03*
X47024223Y-51777990D03*
X26416000Y-50253990D03*
X84074000Y-106045000D03*
X85090000Y-105791000D03*
X87630000Y-57404000D03*
X88138000Y-84328000D03*
X86995000Y-87884000D03*
X49530000Y-47434500D03*
X50292000Y-75184000D03*
X57277000Y-74676000D03*
X79629000Y-111506000D03*
X57277000Y-47686000D03*
X83185000Y-111252000D03*
X85090000Y-70866000D03*
X86995000Y-104902000D03*
X86106000Y-71628000D03*
X88645996Y-105918000D03*
X90297000Y-70485000D03*
X107188000Y-70485004D03*
X89211686Y-70681314D03*
X106172000Y-71501000D03*
X110490000Y-36830000D03*
X90170000Y-73279000D03*
X93091000Y-104521000D03*
X89154000Y-51054000D03*
X111760000Y-45720000D03*
X108765001Y-74495999D03*
X28829000Y-65278000D03*
X28828994Y-48006000D03*
X37084000Y-67945000D03*
X33528000Y-68834000D03*
X25400000Y-69469000D03*
X90805000Y-52705000D03*
X91440000Y-86614000D03*
X54229000Y-74422000D03*
D23*
X75057000Y-90043000D02*
X73660000Y-90043000D01*
X125817000Y-89408000D02*
X127595000Y-87630000D01*
X102703000Y-89408000D02*
X125817000Y-89408000D01*
X100925000Y-87630000D02*
X102703000Y-89408000D01*
X75692000Y-89408000D02*
X75057000Y-90043000D01*
X99147000Y-89408000D02*
X75692000Y-89408000D01*
X100925000Y-87630000D02*
X99147000Y-89408000D01*
D24*
X49847500Y-65087500D02*
X49784000Y-65151000D01*
D25*
X6985000Y-81280000D02*
X6985000Y-83820000D01*
X80645000Y-81280000D02*
X80645000Y-83820000D01*
X6985000Y-76200000D02*
X6985000Y-78740000D01*
X80645000Y-76200000D02*
X80645000Y-78740000D01*
D26*
X54898988Y-71758022D02*
X38064988Y-71758022D01*
X55880000Y-70777010D02*
X54898988Y-71758022D01*
X34989045Y-70585988D02*
X34227045Y-71347988D01*
X18375000Y-67312792D02*
X18375000Y-66040000D01*
X34227045Y-71347988D02*
X22410196Y-71347988D01*
X38064988Y-71758022D02*
X36892955Y-70585988D01*
X36892955Y-70585988D02*
X34989045Y-70585988D01*
X22410196Y-71347988D02*
X18375000Y-67312792D01*
D25*
X57023000Y-52959000D02*
X55880000Y-51816000D01*
X60452000Y-56388000D02*
X57023000Y-52959000D01*
X84328000Y-56388000D02*
X60452000Y-56388000D01*
X85090000Y-57150000D02*
X84328000Y-56388000D01*
D24*
X34290004Y-52451004D02*
X34163000Y-52324000D01*
D25*
X40259000Y-52451004D02*
X34290004Y-52451004D01*
X19685000Y-30520000D02*
X22225000Y-27980000D01*
X11985000Y-30520000D02*
X19685000Y-30520000D01*
X43815000Y-17526000D02*
X52451000Y-17526000D01*
X41021000Y-20320000D02*
X43815000Y-17526000D01*
X33909000Y-20320000D02*
X41021000Y-20320000D01*
X27305000Y-26924000D02*
X33909000Y-20320000D01*
X27305000Y-30480000D02*
X27305000Y-26924000D01*
X27225000Y-30480000D02*
X27305000Y-30480000D01*
X80645000Y-43180000D02*
X80645000Y-45720000D01*
D26*
X23149977Y-70647977D02*
X22479000Y-69977000D01*
X44826954Y-71058011D02*
X38354942Y-71058011D01*
X33937091Y-70647977D02*
X23149977Y-70647977D01*
X34699091Y-69885977D02*
X33937091Y-70647977D01*
X52635501Y-70993000D02*
X44891965Y-70993000D01*
X53701492Y-69927009D02*
X52635501Y-70993000D01*
X38354942Y-71058011D02*
X37182909Y-69885977D01*
X37182909Y-69885977D02*
X34699091Y-69885977D01*
X58497005Y-69927009D02*
X53701492Y-69927009D01*
X44891965Y-70993000D02*
X44826954Y-71058011D01*
X58927996Y-70358000D02*
X58497005Y-69927009D01*
D25*
X133985000Y-43180000D02*
X133985000Y-45720000D01*
X34861500Y-30480000D02*
X31940500Y-33401000D01*
X40900000Y-28929999D02*
X39349999Y-30480000D01*
X48233999Y-28929999D02*
X40900000Y-28929999D01*
X49276000Y-29972000D02*
X48233999Y-28929999D01*
X56007000Y-29972000D02*
X49276000Y-29972000D01*
X68834000Y-28829000D02*
X57150000Y-28829000D01*
X39349999Y-30480000D02*
X34861500Y-30480000D01*
X71755000Y-25908000D02*
X68834000Y-28829000D01*
X57150000Y-28829000D02*
X56007000Y-29972000D01*
X104724490Y-26809990D02*
X103822500Y-25908000D01*
X84201000Y-25908000D02*
X71755000Y-25908000D01*
X103822500Y-25908000D02*
X84201000Y-25908000D01*
X71755000Y-31750000D02*
X68834000Y-28829000D01*
X71755000Y-39115000D02*
X71755000Y-31750000D01*
X69340000Y-41530000D02*
X71755000Y-39115000D01*
X132080000Y-41275000D02*
X133985000Y-43180000D01*
X132080000Y-32258000D02*
X132080000Y-41275000D01*
X129286000Y-29464000D02*
X132080000Y-32258000D01*
X124841000Y-29464000D02*
X129286000Y-29464000D01*
X122174000Y-26797000D02*
X124841000Y-29464000D01*
X104737480Y-26797000D02*
X122174000Y-26797000D01*
X104724490Y-26809990D02*
X104737480Y-26797000D01*
D26*
X133985000Y-81280000D02*
X133985000Y-83820000D01*
X92724023Y-66675000D02*
X85979000Y-66675000D01*
X93867023Y-67818000D02*
X92724023Y-66675000D01*
X134239000Y-67818000D02*
X93867023Y-67818000D01*
X136144000Y-69723000D02*
X134239000Y-67818000D01*
X136144000Y-79121000D02*
X136144000Y-69723000D01*
X133985000Y-81280000D02*
X136144000Y-79121000D01*
X77917998Y-65278000D02*
X56063043Y-65278000D01*
X79060998Y-64135000D02*
X77917998Y-65278000D01*
X83439000Y-64135000D02*
X79060998Y-64135000D01*
X56063043Y-65278000D02*
X52197000Y-61411957D01*
X85979000Y-66675000D02*
X83439000Y-64135000D01*
D25*
X6985000Y-71120000D02*
X6985000Y-73660000D01*
X80645000Y-71120000D02*
X80645000Y-73660000D01*
X80137000Y-73152000D02*
X80645000Y-73660000D01*
X60263751Y-73152000D02*
X80137000Y-73152000D01*
X37323770Y-73406000D02*
X51139998Y-73406000D01*
X53439757Y-75705759D02*
X57709992Y-75705759D01*
X36495771Y-74233999D02*
X37323770Y-73406000D01*
X51139998Y-73406000D02*
X53439757Y-75705759D01*
X35306000Y-74233999D02*
X36495771Y-74233999D01*
X34732001Y-73660000D02*
X35306000Y-74233999D01*
X57709992Y-75705759D02*
X60263751Y-73152000D01*
X6985000Y-73660000D02*
X34732001Y-73660000D01*
D24*
X74170000Y-32130000D02*
X74170000Y-31875000D01*
X74169000Y-32131000D02*
X74170000Y-32130000D01*
D25*
X74931000Y-31369000D02*
X74170000Y-32130000D01*
X99441000Y-31369000D02*
X74931000Y-31369000D01*
X109474000Y-30480000D02*
X113919000Y-34925000D01*
X100330000Y-30480000D02*
X109474000Y-30480000D01*
X113919000Y-41529000D02*
X110490000Y-44958000D01*
X113919000Y-34925000D02*
X113919000Y-41529000D01*
X99441000Y-31369000D02*
X100330000Y-30480000D01*
X60325000Y-81280000D02*
X60325000Y-83820000D01*
D24*
X63245001Y-78359999D02*
X60325000Y-81280000D01*
X71147003Y-78359999D02*
X63245001Y-78359999D01*
X74557003Y-74949999D02*
X71147003Y-78359999D01*
X93071001Y-74949999D02*
X74557003Y-74949999D01*
X95631000Y-72390000D02*
X93071001Y-74949999D01*
D25*
X46343005Y-51777990D02*
X47024223Y-51777990D01*
X45746015Y-51181000D02*
X46343005Y-51777990D01*
X26416000Y-50253990D02*
X27343010Y-51181000D01*
X27343010Y-51181000D02*
X45746015Y-51181000D01*
X87122000Y-85344000D02*
X88138000Y-84328000D01*
X72644000Y-87249000D02*
X74549000Y-85344000D01*
X48769000Y-87249000D02*
X72644000Y-87249000D01*
X74549000Y-85344000D02*
X87122000Y-85344000D01*
X46230000Y-84710000D02*
X48769000Y-87249000D01*
X41400000Y-75310000D02*
X46230000Y-75310000D01*
X48514000Y-77594000D02*
X48514000Y-82426000D01*
X48514000Y-82426000D02*
X46230000Y-84710000D01*
X46230000Y-75310000D02*
X48514000Y-77594000D01*
X49130001Y-47834499D02*
X49530000Y-47434500D01*
X46773489Y-50191011D02*
X49130001Y-47834499D01*
X28622514Y-50191011D02*
X46773489Y-50191011D01*
X26841494Y-48409991D02*
X28622514Y-50191011D01*
X19834991Y-48409991D02*
X26841494Y-48409991D01*
X15875000Y-44450000D02*
X19834991Y-48409991D01*
X33655000Y-101600000D02*
X83693000Y-101600000D01*
X83693000Y-101600000D02*
X86995000Y-104902000D01*
D24*
X33655000Y-104140000D02*
X33820001Y-103974999D01*
D25*
X33820001Y-103974999D02*
X34163000Y-103632000D01*
X86623002Y-105918000D02*
X88645996Y-105918000D01*
X67564009Y-104521009D02*
X85226011Y-104521009D01*
X85226011Y-104521009D02*
X86623002Y-105918000D01*
X35113001Y-102681999D02*
X65724999Y-102681999D01*
X33655000Y-104140000D02*
X35113001Y-102681999D01*
X65724999Y-102681999D02*
X67564009Y-104521009D01*
D26*
X90297000Y-70485000D02*
X107187996Y-70485000D01*
X107187996Y-70485000D02*
X107188000Y-70485004D01*
X106045000Y-71374000D02*
X106172000Y-71501000D01*
X89904372Y-71374000D02*
X106045000Y-71374000D01*
X89211686Y-70681314D02*
X89904372Y-71374000D01*
D25*
X6985000Y-43180000D02*
X6985000Y-45720000D01*
X6985000Y-45720000D02*
X14859000Y-53594000D01*
X14859000Y-53594000D02*
X48387000Y-53594000D01*
X48387000Y-53594000D02*
X53321001Y-48659999D01*
X53321001Y-48659999D02*
X99225686Y-48659999D01*
X99225686Y-48659999D02*
X110490000Y-37395685D01*
X110490000Y-37395685D02*
X110490000Y-36830000D01*
X34504999Y-109640001D02*
X33655000Y-110490000D01*
X37149998Y-106995002D02*
X34504999Y-109640001D01*
X90616998Y-106995002D02*
X37149998Y-106995002D01*
X93091000Y-104521000D02*
X90616998Y-106995002D01*
X62990000Y-43180000D02*
X69340000Y-36830000D01*
X60325000Y-43180000D02*
X62990000Y-43180000D01*
X60325000Y-43180000D02*
X60325000Y-45720000D01*
X60325000Y-45720000D02*
X49768497Y-45720000D01*
X29971994Y-49149000D02*
X28828994Y-48006000D01*
X49768497Y-45720000D02*
X46339497Y-49149000D01*
X46339497Y-49149000D02*
X29971994Y-49149000D01*
D26*
X25799999Y-69868999D02*
X25400000Y-69469000D01*
X33726104Y-69868999D02*
X25799999Y-69868999D01*
X34409137Y-69185966D02*
X33726104Y-69868999D01*
X37472862Y-69185966D02*
X34409137Y-69185966D01*
X38644896Y-70358000D02*
X37472862Y-69185966D01*
X46315000Y-68580000D02*
X44537000Y-70358000D01*
X44537000Y-70358000D02*
X38644896Y-70358000D01*
D25*
X74930000Y-86614000D02*
X91440000Y-86614000D01*
X72136000Y-89408000D02*
X74930000Y-86614000D01*
X17653000Y-89408000D02*
X72136000Y-89408000D01*
X15875000Y-87630000D02*
X17653000Y-89408000D01*
D26*
X15875000Y-66040000D02*
X21882999Y-72047999D01*
X36603001Y-71285999D02*
X37775034Y-72458033D01*
X21882999Y-72047999D02*
X34516999Y-72047999D01*
X52265033Y-72458033D02*
X53829001Y-74022001D01*
X34516999Y-72047999D02*
X35278999Y-71285999D01*
X53829001Y-74022001D02*
X54229000Y-74422000D01*
X37775034Y-72458033D02*
X52265033Y-72458033D01*
X35278999Y-71285999D02*
X36603001Y-71285999D01*
M02*
