G04 #@! TF.GenerationSoftware,KiCad,Pcbnew,5.1.10-88a1d61d58~90~ubuntu20.04.1*
G04 #@! TF.CreationDate,2021-08-08T15:21:02-04:00*
G04 #@! TF.ProjectId,stereo_whooshy_sound_main_pcb,73746572-656f-45f7-9768-6f6f7368795f,0*
G04 #@! TF.SameCoordinates,Original*
G04 #@! TF.FileFunction,Profile,NP*
%FSLAX46Y46*%
G04 Gerber Fmt 4.6, Leading zero omitted, Abs format (unit mm)*
G04 Created by KiCad (PCBNEW 5.1.10-88a1d61d58~90~ubuntu20.04.1) date 2021-08-08 15:21:02*
%MOMM*%
%LPD*%
G01*
G04 APERTURE LIST*
G04 #@! TA.AperFunction,Profile*
%ADD10C,0.050000*%
G04 #@! TD*
G04 APERTURE END LIST*
D10*
X7620000Y-6985000D02*
G75*
G02*
X5080000Y-9525000I-2540000J0D01*
G01*
X3175000Y-11430000D02*
G75*
G02*
X5080000Y-9525000I1905000J0D01*
G01*
X7620000Y-3810000D02*
X7620000Y-6985000D01*
X133350000Y-6985000D02*
X133350000Y-3810000D01*
X135890000Y-9525000D02*
G75*
G02*
X133350000Y-6985000I0J2540000D01*
G01*
X135890000Y-9525000D02*
G75*
G02*
X137795000Y-11430000I0J-1905000D01*
G01*
X27305000Y-90170000D02*
X5715000Y-90170000D01*
X113665000Y-90170000D02*
X135255000Y-90170000D01*
X27305000Y-90170000D02*
G75*
G02*
X29845000Y-92710000I0J-2540000D01*
G01*
X111125000Y-92710000D02*
G75*
G02*
X113665000Y-90170000I2540000J0D01*
G01*
X111125000Y-111760000D02*
G75*
G02*
X108585000Y-114300000I-2540000J0D01*
G01*
X32385000Y-114300000D02*
G75*
G02*
X29845000Y-111760000I0J2540000D01*
G01*
X111125000Y-111760000D02*
X111125000Y-92710000D01*
X32385000Y-114300000D02*
X108585000Y-114300000D01*
X29845000Y-92710000D02*
X29845000Y-111760000D01*
X137795000Y-87630000D02*
G75*
G02*
X135255000Y-90170000I-2540000J0D01*
G01*
X5715000Y-90170000D02*
G75*
G02*
X3175000Y-87630000I0J2540000D01*
G01*
X7620000Y-3810000D02*
G75*
G02*
X10160000Y-1270000I2540000J0D01*
G01*
X130810000Y-1270000D02*
G75*
G02*
X133350000Y-3810000I0J-2540000D01*
G01*
X3175000Y-87630000D02*
X3175000Y-11430000D01*
X137795000Y-11430000D02*
X137795000Y-87630000D01*
X10160000Y-1270000D02*
X130810000Y-1270000D01*
M02*
