G04 #@! TF.GenerationSoftware,KiCad,Pcbnew,5.1.10-88a1d61d58~90~ubuntu20.04.1*
G04 #@! TF.CreationDate,2021-08-08T15:21:02-04:00*
G04 #@! TF.ProjectId,stereo_whooshy_sound_main_pcb,73746572-656f-45f7-9768-6f6f7368795f,0*
G04 #@! TF.SameCoordinates,Original*
G04 #@! TF.FileFunction,Paste,Bot*
G04 #@! TF.FilePolarity,Positive*
%FSLAX46Y46*%
G04 Gerber Fmt 4.6, Leading zero omitted, Abs format (unit mm)*
G04 Created by KiCad (PCBNEW 5.1.10-88a1d61d58~90~ubuntu20.04.1) date 2021-08-08 15:21:02*
%MOMM*%
%LPD*%
G01*
G04 APERTURE LIST*
%ADD10R,0.800000X0.900000*%
%ADD11R,0.400000X1.100000*%
%ADD12R,0.650000X1.220000*%
%ADD13R,2.000000X1.500000*%
%ADD14R,2.000000X3.800000*%
%ADD15R,1.500000X4.200000*%
%ADD16R,1.100000X1.100000*%
%ADD17R,1.200000X0.900000*%
G04 APERTURE END LIST*
D10*
X87376000Y-78756000D03*
X86426000Y-80756000D03*
X88326000Y-80756000D03*
G36*
G01*
X84476000Y-75013000D02*
X83926000Y-75013000D01*
G75*
G02*
X83726000Y-74813000I0J200000D01*
G01*
X83726000Y-74413000D01*
G75*
G02*
X83926000Y-74213000I200000J0D01*
G01*
X84476000Y-74213000D01*
G75*
G02*
X84676000Y-74413000I0J-200000D01*
G01*
X84676000Y-74813000D01*
G75*
G02*
X84476000Y-75013000I-200000J0D01*
G01*
G37*
G36*
G01*
X84476000Y-76663000D02*
X83926000Y-76663000D01*
G75*
G02*
X83726000Y-76463000I0J200000D01*
G01*
X83726000Y-76063000D01*
G75*
G02*
X83926000Y-75863000I200000J0D01*
G01*
X84476000Y-75863000D01*
G75*
G02*
X84676000Y-76063000I0J-200000D01*
G01*
X84676000Y-76463000D01*
G75*
G02*
X84476000Y-76663000I-200000J0D01*
G01*
G37*
G36*
G01*
X90826000Y-75013000D02*
X90276000Y-75013000D01*
G75*
G02*
X90076000Y-74813000I0J200000D01*
G01*
X90076000Y-74413000D01*
G75*
G02*
X90276000Y-74213000I200000J0D01*
G01*
X90826000Y-74213000D01*
G75*
G02*
X91026000Y-74413000I0J-200000D01*
G01*
X91026000Y-74813000D01*
G75*
G02*
X90826000Y-75013000I-200000J0D01*
G01*
G37*
G36*
G01*
X90826000Y-76663000D02*
X90276000Y-76663000D01*
G75*
G02*
X90076000Y-76463000I0J200000D01*
G01*
X90076000Y-76063000D01*
G75*
G02*
X90276000Y-75863000I200000J0D01*
G01*
X90826000Y-75863000D01*
G75*
G02*
X91026000Y-76063000I0J-200000D01*
G01*
X91026000Y-76463000D01*
G75*
G02*
X90826000Y-76663000I-200000J0D01*
G01*
G37*
G36*
G01*
X87651000Y-75013000D02*
X87101000Y-75013000D01*
G75*
G02*
X86901000Y-74813000I0J200000D01*
G01*
X86901000Y-74413000D01*
G75*
G02*
X87101000Y-74213000I200000J0D01*
G01*
X87651000Y-74213000D01*
G75*
G02*
X87851000Y-74413000I0J-200000D01*
G01*
X87851000Y-74813000D01*
G75*
G02*
X87651000Y-75013000I-200000J0D01*
G01*
G37*
G36*
G01*
X87651000Y-76663000D02*
X87101000Y-76663000D01*
G75*
G02*
X86901000Y-76463000I0J200000D01*
G01*
X86901000Y-76063000D01*
G75*
G02*
X87101000Y-75863000I200000J0D01*
G01*
X87651000Y-75863000D01*
G75*
G02*
X87851000Y-76063000I0J-200000D01*
G01*
X87851000Y-76463000D01*
G75*
G02*
X87651000Y-76663000I-200000J0D01*
G01*
G37*
G36*
G01*
X101748000Y-75013000D02*
X101198000Y-75013000D01*
G75*
G02*
X100998000Y-74813000I0J200000D01*
G01*
X100998000Y-74413000D01*
G75*
G02*
X101198000Y-74213000I200000J0D01*
G01*
X101748000Y-74213000D01*
G75*
G02*
X101948000Y-74413000I0J-200000D01*
G01*
X101948000Y-74813000D01*
G75*
G02*
X101748000Y-75013000I-200000J0D01*
G01*
G37*
G36*
G01*
X101748000Y-76663000D02*
X101198000Y-76663000D01*
G75*
G02*
X100998000Y-76463000I0J200000D01*
G01*
X100998000Y-76063000D01*
G75*
G02*
X101198000Y-75863000I200000J0D01*
G01*
X101748000Y-75863000D01*
G75*
G02*
X101948000Y-76063000I0J-200000D01*
G01*
X101948000Y-76463000D01*
G75*
G02*
X101748000Y-76663000I-200000J0D01*
G01*
G37*
G36*
G01*
X95652000Y-75013000D02*
X95102000Y-75013000D01*
G75*
G02*
X94902000Y-74813000I0J200000D01*
G01*
X94902000Y-74413000D01*
G75*
G02*
X95102000Y-74213000I200000J0D01*
G01*
X95652000Y-74213000D01*
G75*
G02*
X95852000Y-74413000I0J-200000D01*
G01*
X95852000Y-74813000D01*
G75*
G02*
X95652000Y-75013000I-200000J0D01*
G01*
G37*
G36*
G01*
X95652000Y-76663000D02*
X95102000Y-76663000D01*
G75*
G02*
X94902000Y-76463000I0J200000D01*
G01*
X94902000Y-76063000D01*
G75*
G02*
X95102000Y-75863000I200000J0D01*
G01*
X95652000Y-75863000D01*
G75*
G02*
X95852000Y-76063000I0J-200000D01*
G01*
X95852000Y-76463000D01*
G75*
G02*
X95652000Y-76663000I-200000J0D01*
G01*
G37*
G36*
G01*
X98700000Y-75013000D02*
X98150000Y-75013000D01*
G75*
G02*
X97950000Y-74813000I0J200000D01*
G01*
X97950000Y-74413000D01*
G75*
G02*
X98150000Y-74213000I200000J0D01*
G01*
X98700000Y-74213000D01*
G75*
G02*
X98900000Y-74413000I0J-200000D01*
G01*
X98900000Y-74813000D01*
G75*
G02*
X98700000Y-75013000I-200000J0D01*
G01*
G37*
G36*
G01*
X98700000Y-76663000D02*
X98150000Y-76663000D01*
G75*
G02*
X97950000Y-76463000I0J200000D01*
G01*
X97950000Y-76063000D01*
G75*
G02*
X98150000Y-75863000I200000J0D01*
G01*
X98700000Y-75863000D01*
G75*
G02*
X98900000Y-76063000I0J-200000D01*
G01*
X98900000Y-76463000D01*
G75*
G02*
X98700000Y-76663000I-200000J0D01*
G01*
G37*
G36*
G01*
X110431000Y-42321000D02*
X110631000Y-42321000D01*
G75*
G02*
X110731000Y-42421000I0J-100000D01*
G01*
X110731000Y-43846000D01*
G75*
G02*
X110631000Y-43946000I-100000J0D01*
G01*
X110431000Y-43946000D01*
G75*
G02*
X110331000Y-43846000I0J100000D01*
G01*
X110331000Y-42421000D01*
G75*
G02*
X110431000Y-42321000I100000J0D01*
G01*
G37*
G36*
G01*
X111081000Y-42321000D02*
X111281000Y-42321000D01*
G75*
G02*
X111381000Y-42421000I0J-100000D01*
G01*
X111381000Y-43846000D01*
G75*
G02*
X111281000Y-43946000I-100000J0D01*
G01*
X111081000Y-43946000D01*
G75*
G02*
X110981000Y-43846000I0J100000D01*
G01*
X110981000Y-42421000D01*
G75*
G02*
X111081000Y-42321000I100000J0D01*
G01*
G37*
G36*
G01*
X111731000Y-42321000D02*
X111931000Y-42321000D01*
G75*
G02*
X112031000Y-42421000I0J-100000D01*
G01*
X112031000Y-43846000D01*
G75*
G02*
X111931000Y-43946000I-100000J0D01*
G01*
X111731000Y-43946000D01*
G75*
G02*
X111631000Y-43846000I0J100000D01*
G01*
X111631000Y-42421000D01*
G75*
G02*
X111731000Y-42321000I100000J0D01*
G01*
G37*
G36*
G01*
X112381000Y-42321000D02*
X112581000Y-42321000D01*
G75*
G02*
X112681000Y-42421000I0J-100000D01*
G01*
X112681000Y-43846000D01*
G75*
G02*
X112581000Y-43946000I-100000J0D01*
G01*
X112381000Y-43946000D01*
G75*
G02*
X112281000Y-43846000I0J100000D01*
G01*
X112281000Y-42421000D01*
G75*
G02*
X112381000Y-42321000I100000J0D01*
G01*
G37*
G36*
G01*
X112381000Y-38096000D02*
X112581000Y-38096000D01*
G75*
G02*
X112681000Y-38196000I0J-100000D01*
G01*
X112681000Y-39621000D01*
G75*
G02*
X112581000Y-39721000I-100000J0D01*
G01*
X112381000Y-39721000D01*
G75*
G02*
X112281000Y-39621000I0J100000D01*
G01*
X112281000Y-38196000D01*
G75*
G02*
X112381000Y-38096000I100000J0D01*
G01*
G37*
G36*
G01*
X111731000Y-38096000D02*
X111931000Y-38096000D01*
G75*
G02*
X112031000Y-38196000I0J-100000D01*
G01*
X112031000Y-39621000D01*
G75*
G02*
X111931000Y-39721000I-100000J0D01*
G01*
X111731000Y-39721000D01*
G75*
G02*
X111631000Y-39621000I0J100000D01*
G01*
X111631000Y-38196000D01*
G75*
G02*
X111731000Y-38096000I100000J0D01*
G01*
G37*
G36*
G01*
X111081000Y-38096000D02*
X111281000Y-38096000D01*
G75*
G02*
X111381000Y-38196000I0J-100000D01*
G01*
X111381000Y-39621000D01*
G75*
G02*
X111281000Y-39721000I-100000J0D01*
G01*
X111081000Y-39721000D01*
G75*
G02*
X110981000Y-39621000I0J100000D01*
G01*
X110981000Y-38196000D01*
G75*
G02*
X111081000Y-38096000I100000J0D01*
G01*
G37*
G36*
G01*
X110431000Y-38096000D02*
X110631000Y-38096000D01*
G75*
G02*
X110731000Y-38196000I0J-100000D01*
G01*
X110731000Y-39621000D01*
G75*
G02*
X110631000Y-39721000I-100000J0D01*
G01*
X110431000Y-39721000D01*
G75*
G02*
X110331000Y-39621000I0J100000D01*
G01*
X110331000Y-38196000D01*
G75*
G02*
X110431000Y-38096000I100000J0D01*
G01*
G37*
G36*
G01*
X85666000Y-38096000D02*
X85866000Y-38096000D01*
G75*
G02*
X85966000Y-38196000I0J-100000D01*
G01*
X85966000Y-39621000D01*
G75*
G02*
X85866000Y-39721000I-100000J0D01*
G01*
X85666000Y-39721000D01*
G75*
G02*
X85566000Y-39621000I0J100000D01*
G01*
X85566000Y-38196000D01*
G75*
G02*
X85666000Y-38096000I100000J0D01*
G01*
G37*
G36*
G01*
X86316000Y-38096000D02*
X86516000Y-38096000D01*
G75*
G02*
X86616000Y-38196000I0J-100000D01*
G01*
X86616000Y-39621000D01*
G75*
G02*
X86516000Y-39721000I-100000J0D01*
G01*
X86316000Y-39721000D01*
G75*
G02*
X86216000Y-39621000I0J100000D01*
G01*
X86216000Y-38196000D01*
G75*
G02*
X86316000Y-38096000I100000J0D01*
G01*
G37*
G36*
G01*
X86966000Y-38096000D02*
X87166000Y-38096000D01*
G75*
G02*
X87266000Y-38196000I0J-100000D01*
G01*
X87266000Y-39621000D01*
G75*
G02*
X87166000Y-39721000I-100000J0D01*
G01*
X86966000Y-39721000D01*
G75*
G02*
X86866000Y-39621000I0J100000D01*
G01*
X86866000Y-38196000D01*
G75*
G02*
X86966000Y-38096000I100000J0D01*
G01*
G37*
G36*
G01*
X87616000Y-38096000D02*
X87816000Y-38096000D01*
G75*
G02*
X87916000Y-38196000I0J-100000D01*
G01*
X87916000Y-39621000D01*
G75*
G02*
X87816000Y-39721000I-100000J0D01*
G01*
X87616000Y-39721000D01*
G75*
G02*
X87516000Y-39621000I0J100000D01*
G01*
X87516000Y-38196000D01*
G75*
G02*
X87616000Y-38096000I100000J0D01*
G01*
G37*
G36*
G01*
X87616000Y-42321000D02*
X87816000Y-42321000D01*
G75*
G02*
X87916000Y-42421000I0J-100000D01*
G01*
X87916000Y-43846000D01*
G75*
G02*
X87816000Y-43946000I-100000J0D01*
G01*
X87616000Y-43946000D01*
G75*
G02*
X87516000Y-43846000I0J100000D01*
G01*
X87516000Y-42421000D01*
G75*
G02*
X87616000Y-42321000I100000J0D01*
G01*
G37*
G36*
G01*
X86966000Y-42321000D02*
X87166000Y-42321000D01*
G75*
G02*
X87266000Y-42421000I0J-100000D01*
G01*
X87266000Y-43846000D01*
G75*
G02*
X87166000Y-43946000I-100000J0D01*
G01*
X86966000Y-43946000D01*
G75*
G02*
X86866000Y-43846000I0J100000D01*
G01*
X86866000Y-42421000D01*
G75*
G02*
X86966000Y-42321000I100000J0D01*
G01*
G37*
G36*
G01*
X86316000Y-42321000D02*
X86516000Y-42321000D01*
G75*
G02*
X86616000Y-42421000I0J-100000D01*
G01*
X86616000Y-43846000D01*
G75*
G02*
X86516000Y-43946000I-100000J0D01*
G01*
X86316000Y-43946000D01*
G75*
G02*
X86216000Y-43846000I0J100000D01*
G01*
X86216000Y-42421000D01*
G75*
G02*
X86316000Y-42321000I100000J0D01*
G01*
G37*
G36*
G01*
X85666000Y-42321000D02*
X85866000Y-42321000D01*
G75*
G02*
X85966000Y-42421000I0J-100000D01*
G01*
X85966000Y-43846000D01*
G75*
G02*
X85866000Y-43946000I-100000J0D01*
G01*
X85666000Y-43946000D01*
G75*
G02*
X85566000Y-43846000I0J100000D01*
G01*
X85566000Y-42421000D01*
G75*
G02*
X85666000Y-42321000I100000J0D01*
G01*
G37*
G36*
G01*
X85580000Y-68165000D02*
X85780000Y-68165000D01*
G75*
G02*
X85880000Y-68265000I0J-100000D01*
G01*
X85880000Y-69540000D01*
G75*
G02*
X85780000Y-69640000I-100000J0D01*
G01*
X85580000Y-69640000D01*
G75*
G02*
X85480000Y-69540000I0J100000D01*
G01*
X85480000Y-68265000D01*
G75*
G02*
X85580000Y-68165000I100000J0D01*
G01*
G37*
G36*
G01*
X86230000Y-68165000D02*
X86430000Y-68165000D01*
G75*
G02*
X86530000Y-68265000I0J-100000D01*
G01*
X86530000Y-69540000D01*
G75*
G02*
X86430000Y-69640000I-100000J0D01*
G01*
X86230000Y-69640000D01*
G75*
G02*
X86130000Y-69540000I0J100000D01*
G01*
X86130000Y-68265000D01*
G75*
G02*
X86230000Y-68165000I100000J0D01*
G01*
G37*
G36*
G01*
X86880000Y-68165000D02*
X87080000Y-68165000D01*
G75*
G02*
X87180000Y-68265000I0J-100000D01*
G01*
X87180000Y-69540000D01*
G75*
G02*
X87080000Y-69640000I-100000J0D01*
G01*
X86880000Y-69640000D01*
G75*
G02*
X86780000Y-69540000I0J100000D01*
G01*
X86780000Y-68265000D01*
G75*
G02*
X86880000Y-68165000I100000J0D01*
G01*
G37*
G36*
G01*
X87530000Y-68165000D02*
X87730000Y-68165000D01*
G75*
G02*
X87830000Y-68265000I0J-100000D01*
G01*
X87830000Y-69540000D01*
G75*
G02*
X87730000Y-69640000I-100000J0D01*
G01*
X87530000Y-69640000D01*
G75*
G02*
X87430000Y-69540000I0J100000D01*
G01*
X87430000Y-68265000D01*
G75*
G02*
X87530000Y-68165000I100000J0D01*
G01*
G37*
G36*
G01*
X88180000Y-68165000D02*
X88380000Y-68165000D01*
G75*
G02*
X88480000Y-68265000I0J-100000D01*
G01*
X88480000Y-69540000D01*
G75*
G02*
X88380000Y-69640000I-100000J0D01*
G01*
X88180000Y-69640000D01*
G75*
G02*
X88080000Y-69540000I0J100000D01*
G01*
X88080000Y-68265000D01*
G75*
G02*
X88180000Y-68165000I100000J0D01*
G01*
G37*
G36*
G01*
X88830000Y-68165000D02*
X89030000Y-68165000D01*
G75*
G02*
X89130000Y-68265000I0J-100000D01*
G01*
X89130000Y-69540000D01*
G75*
G02*
X89030000Y-69640000I-100000J0D01*
G01*
X88830000Y-69640000D01*
G75*
G02*
X88730000Y-69540000I0J100000D01*
G01*
X88730000Y-68265000D01*
G75*
G02*
X88830000Y-68165000I100000J0D01*
G01*
G37*
G36*
G01*
X89480000Y-68165000D02*
X89680000Y-68165000D01*
G75*
G02*
X89780000Y-68265000I0J-100000D01*
G01*
X89780000Y-69540000D01*
G75*
G02*
X89680000Y-69640000I-100000J0D01*
G01*
X89480000Y-69640000D01*
G75*
G02*
X89380000Y-69540000I0J100000D01*
G01*
X89380000Y-68265000D01*
G75*
G02*
X89480000Y-68165000I100000J0D01*
G01*
G37*
G36*
G01*
X89480000Y-62440000D02*
X89680000Y-62440000D01*
G75*
G02*
X89780000Y-62540000I0J-100000D01*
G01*
X89780000Y-63815000D01*
G75*
G02*
X89680000Y-63915000I-100000J0D01*
G01*
X89480000Y-63915000D01*
G75*
G02*
X89380000Y-63815000I0J100000D01*
G01*
X89380000Y-62540000D01*
G75*
G02*
X89480000Y-62440000I100000J0D01*
G01*
G37*
G36*
G01*
X88830000Y-62440000D02*
X89030000Y-62440000D01*
G75*
G02*
X89130000Y-62540000I0J-100000D01*
G01*
X89130000Y-63815000D01*
G75*
G02*
X89030000Y-63915000I-100000J0D01*
G01*
X88830000Y-63915000D01*
G75*
G02*
X88730000Y-63815000I0J100000D01*
G01*
X88730000Y-62540000D01*
G75*
G02*
X88830000Y-62440000I100000J0D01*
G01*
G37*
G36*
G01*
X88180000Y-62440000D02*
X88380000Y-62440000D01*
G75*
G02*
X88480000Y-62540000I0J-100000D01*
G01*
X88480000Y-63815000D01*
G75*
G02*
X88380000Y-63915000I-100000J0D01*
G01*
X88180000Y-63915000D01*
G75*
G02*
X88080000Y-63815000I0J100000D01*
G01*
X88080000Y-62540000D01*
G75*
G02*
X88180000Y-62440000I100000J0D01*
G01*
G37*
G36*
G01*
X87530000Y-62440000D02*
X87730000Y-62440000D01*
G75*
G02*
X87830000Y-62540000I0J-100000D01*
G01*
X87830000Y-63815000D01*
G75*
G02*
X87730000Y-63915000I-100000J0D01*
G01*
X87530000Y-63915000D01*
G75*
G02*
X87430000Y-63815000I0J100000D01*
G01*
X87430000Y-62540000D01*
G75*
G02*
X87530000Y-62440000I100000J0D01*
G01*
G37*
G36*
G01*
X86880000Y-62440000D02*
X87080000Y-62440000D01*
G75*
G02*
X87180000Y-62540000I0J-100000D01*
G01*
X87180000Y-63815000D01*
G75*
G02*
X87080000Y-63915000I-100000J0D01*
G01*
X86880000Y-63915000D01*
G75*
G02*
X86780000Y-63815000I0J100000D01*
G01*
X86780000Y-62540000D01*
G75*
G02*
X86880000Y-62440000I100000J0D01*
G01*
G37*
G36*
G01*
X86230000Y-62440000D02*
X86430000Y-62440000D01*
G75*
G02*
X86530000Y-62540000I0J-100000D01*
G01*
X86530000Y-63815000D01*
G75*
G02*
X86430000Y-63915000I-100000J0D01*
G01*
X86230000Y-63915000D01*
G75*
G02*
X86130000Y-63815000I0J100000D01*
G01*
X86130000Y-62540000D01*
G75*
G02*
X86230000Y-62440000I100000J0D01*
G01*
G37*
G36*
G01*
X85580000Y-62440000D02*
X85780000Y-62440000D01*
G75*
G02*
X85880000Y-62540000I0J-100000D01*
G01*
X85880000Y-63815000D01*
G75*
G02*
X85780000Y-63915000I-100000J0D01*
G01*
X85580000Y-63915000D01*
G75*
G02*
X85480000Y-63815000I0J100000D01*
G01*
X85480000Y-62540000D01*
G75*
G02*
X85580000Y-62440000I100000J0D01*
G01*
G37*
G36*
G01*
X51925000Y-63339000D02*
X52125000Y-63339000D01*
G75*
G02*
X52225000Y-63439000I0J-100000D01*
G01*
X52225000Y-64714000D01*
G75*
G02*
X52125000Y-64814000I-100000J0D01*
G01*
X51925000Y-64814000D01*
G75*
G02*
X51825000Y-64714000I0J100000D01*
G01*
X51825000Y-63439000D01*
G75*
G02*
X51925000Y-63339000I100000J0D01*
G01*
G37*
G36*
G01*
X52575000Y-63339000D02*
X52775000Y-63339000D01*
G75*
G02*
X52875000Y-63439000I0J-100000D01*
G01*
X52875000Y-64714000D01*
G75*
G02*
X52775000Y-64814000I-100000J0D01*
G01*
X52575000Y-64814000D01*
G75*
G02*
X52475000Y-64714000I0J100000D01*
G01*
X52475000Y-63439000D01*
G75*
G02*
X52575000Y-63339000I100000J0D01*
G01*
G37*
G36*
G01*
X53225000Y-63339000D02*
X53425000Y-63339000D01*
G75*
G02*
X53525000Y-63439000I0J-100000D01*
G01*
X53525000Y-64714000D01*
G75*
G02*
X53425000Y-64814000I-100000J0D01*
G01*
X53225000Y-64814000D01*
G75*
G02*
X53125000Y-64714000I0J100000D01*
G01*
X53125000Y-63439000D01*
G75*
G02*
X53225000Y-63339000I100000J0D01*
G01*
G37*
G36*
G01*
X53875000Y-63339000D02*
X54075000Y-63339000D01*
G75*
G02*
X54175000Y-63439000I0J-100000D01*
G01*
X54175000Y-64714000D01*
G75*
G02*
X54075000Y-64814000I-100000J0D01*
G01*
X53875000Y-64814000D01*
G75*
G02*
X53775000Y-64714000I0J100000D01*
G01*
X53775000Y-63439000D01*
G75*
G02*
X53875000Y-63339000I100000J0D01*
G01*
G37*
G36*
G01*
X54525000Y-63339000D02*
X54725000Y-63339000D01*
G75*
G02*
X54825000Y-63439000I0J-100000D01*
G01*
X54825000Y-64714000D01*
G75*
G02*
X54725000Y-64814000I-100000J0D01*
G01*
X54525000Y-64814000D01*
G75*
G02*
X54425000Y-64714000I0J100000D01*
G01*
X54425000Y-63439000D01*
G75*
G02*
X54525000Y-63339000I100000J0D01*
G01*
G37*
G36*
G01*
X55175000Y-63339000D02*
X55375000Y-63339000D01*
G75*
G02*
X55475000Y-63439000I0J-100000D01*
G01*
X55475000Y-64714000D01*
G75*
G02*
X55375000Y-64814000I-100000J0D01*
G01*
X55175000Y-64814000D01*
G75*
G02*
X55075000Y-64714000I0J100000D01*
G01*
X55075000Y-63439000D01*
G75*
G02*
X55175000Y-63339000I100000J0D01*
G01*
G37*
G36*
G01*
X55825000Y-63339000D02*
X56025000Y-63339000D01*
G75*
G02*
X56125000Y-63439000I0J-100000D01*
G01*
X56125000Y-64714000D01*
G75*
G02*
X56025000Y-64814000I-100000J0D01*
G01*
X55825000Y-64814000D01*
G75*
G02*
X55725000Y-64714000I0J100000D01*
G01*
X55725000Y-63439000D01*
G75*
G02*
X55825000Y-63339000I100000J0D01*
G01*
G37*
G36*
G01*
X55825000Y-57614000D02*
X56025000Y-57614000D01*
G75*
G02*
X56125000Y-57714000I0J-100000D01*
G01*
X56125000Y-58989000D01*
G75*
G02*
X56025000Y-59089000I-100000J0D01*
G01*
X55825000Y-59089000D01*
G75*
G02*
X55725000Y-58989000I0J100000D01*
G01*
X55725000Y-57714000D01*
G75*
G02*
X55825000Y-57614000I100000J0D01*
G01*
G37*
G36*
G01*
X55175000Y-57614000D02*
X55375000Y-57614000D01*
G75*
G02*
X55475000Y-57714000I0J-100000D01*
G01*
X55475000Y-58989000D01*
G75*
G02*
X55375000Y-59089000I-100000J0D01*
G01*
X55175000Y-59089000D01*
G75*
G02*
X55075000Y-58989000I0J100000D01*
G01*
X55075000Y-57714000D01*
G75*
G02*
X55175000Y-57614000I100000J0D01*
G01*
G37*
G36*
G01*
X54525000Y-57614000D02*
X54725000Y-57614000D01*
G75*
G02*
X54825000Y-57714000I0J-100000D01*
G01*
X54825000Y-58989000D01*
G75*
G02*
X54725000Y-59089000I-100000J0D01*
G01*
X54525000Y-59089000D01*
G75*
G02*
X54425000Y-58989000I0J100000D01*
G01*
X54425000Y-57714000D01*
G75*
G02*
X54525000Y-57614000I100000J0D01*
G01*
G37*
G36*
G01*
X53875000Y-57614000D02*
X54075000Y-57614000D01*
G75*
G02*
X54175000Y-57714000I0J-100000D01*
G01*
X54175000Y-58989000D01*
G75*
G02*
X54075000Y-59089000I-100000J0D01*
G01*
X53875000Y-59089000D01*
G75*
G02*
X53775000Y-58989000I0J100000D01*
G01*
X53775000Y-57714000D01*
G75*
G02*
X53875000Y-57614000I100000J0D01*
G01*
G37*
G36*
G01*
X53225000Y-57614000D02*
X53425000Y-57614000D01*
G75*
G02*
X53525000Y-57714000I0J-100000D01*
G01*
X53525000Y-58989000D01*
G75*
G02*
X53425000Y-59089000I-100000J0D01*
G01*
X53225000Y-59089000D01*
G75*
G02*
X53125000Y-58989000I0J100000D01*
G01*
X53125000Y-57714000D01*
G75*
G02*
X53225000Y-57614000I100000J0D01*
G01*
G37*
G36*
G01*
X52575000Y-57614000D02*
X52775000Y-57614000D01*
G75*
G02*
X52875000Y-57714000I0J-100000D01*
G01*
X52875000Y-58989000D01*
G75*
G02*
X52775000Y-59089000I-100000J0D01*
G01*
X52575000Y-59089000D01*
G75*
G02*
X52475000Y-58989000I0J100000D01*
G01*
X52475000Y-57714000D01*
G75*
G02*
X52575000Y-57614000I100000J0D01*
G01*
G37*
G36*
G01*
X51925000Y-57614000D02*
X52125000Y-57614000D01*
G75*
G02*
X52225000Y-57714000I0J-100000D01*
G01*
X52225000Y-58989000D01*
G75*
G02*
X52125000Y-59089000I-100000J0D01*
G01*
X51925000Y-59089000D01*
G75*
G02*
X51825000Y-58989000I0J100000D01*
G01*
X51825000Y-57714000D01*
G75*
G02*
X51925000Y-57614000I100000J0D01*
G01*
G37*
G36*
G01*
X27795000Y-76039000D02*
X27995000Y-76039000D01*
G75*
G02*
X28095000Y-76139000I0J-100000D01*
G01*
X28095000Y-77414000D01*
G75*
G02*
X27995000Y-77514000I-100000J0D01*
G01*
X27795000Y-77514000D01*
G75*
G02*
X27695000Y-77414000I0J100000D01*
G01*
X27695000Y-76139000D01*
G75*
G02*
X27795000Y-76039000I100000J0D01*
G01*
G37*
G36*
G01*
X28445000Y-76039000D02*
X28645000Y-76039000D01*
G75*
G02*
X28745000Y-76139000I0J-100000D01*
G01*
X28745000Y-77414000D01*
G75*
G02*
X28645000Y-77514000I-100000J0D01*
G01*
X28445000Y-77514000D01*
G75*
G02*
X28345000Y-77414000I0J100000D01*
G01*
X28345000Y-76139000D01*
G75*
G02*
X28445000Y-76039000I100000J0D01*
G01*
G37*
G36*
G01*
X29095000Y-76039000D02*
X29295000Y-76039000D01*
G75*
G02*
X29395000Y-76139000I0J-100000D01*
G01*
X29395000Y-77414000D01*
G75*
G02*
X29295000Y-77514000I-100000J0D01*
G01*
X29095000Y-77514000D01*
G75*
G02*
X28995000Y-77414000I0J100000D01*
G01*
X28995000Y-76139000D01*
G75*
G02*
X29095000Y-76039000I100000J0D01*
G01*
G37*
G36*
G01*
X29745000Y-76039000D02*
X29945000Y-76039000D01*
G75*
G02*
X30045000Y-76139000I0J-100000D01*
G01*
X30045000Y-77414000D01*
G75*
G02*
X29945000Y-77514000I-100000J0D01*
G01*
X29745000Y-77514000D01*
G75*
G02*
X29645000Y-77414000I0J100000D01*
G01*
X29645000Y-76139000D01*
G75*
G02*
X29745000Y-76039000I100000J0D01*
G01*
G37*
G36*
G01*
X30395000Y-76039000D02*
X30595000Y-76039000D01*
G75*
G02*
X30695000Y-76139000I0J-100000D01*
G01*
X30695000Y-77414000D01*
G75*
G02*
X30595000Y-77514000I-100000J0D01*
G01*
X30395000Y-77514000D01*
G75*
G02*
X30295000Y-77414000I0J100000D01*
G01*
X30295000Y-76139000D01*
G75*
G02*
X30395000Y-76039000I100000J0D01*
G01*
G37*
G36*
G01*
X31045000Y-76039000D02*
X31245000Y-76039000D01*
G75*
G02*
X31345000Y-76139000I0J-100000D01*
G01*
X31345000Y-77414000D01*
G75*
G02*
X31245000Y-77514000I-100000J0D01*
G01*
X31045000Y-77514000D01*
G75*
G02*
X30945000Y-77414000I0J100000D01*
G01*
X30945000Y-76139000D01*
G75*
G02*
X31045000Y-76039000I100000J0D01*
G01*
G37*
G36*
G01*
X31695000Y-76039000D02*
X31895000Y-76039000D01*
G75*
G02*
X31995000Y-76139000I0J-100000D01*
G01*
X31995000Y-77414000D01*
G75*
G02*
X31895000Y-77514000I-100000J0D01*
G01*
X31695000Y-77514000D01*
G75*
G02*
X31595000Y-77414000I0J100000D01*
G01*
X31595000Y-76139000D01*
G75*
G02*
X31695000Y-76039000I100000J0D01*
G01*
G37*
G36*
G01*
X31695000Y-70314000D02*
X31895000Y-70314000D01*
G75*
G02*
X31995000Y-70414000I0J-100000D01*
G01*
X31995000Y-71689000D01*
G75*
G02*
X31895000Y-71789000I-100000J0D01*
G01*
X31695000Y-71789000D01*
G75*
G02*
X31595000Y-71689000I0J100000D01*
G01*
X31595000Y-70414000D01*
G75*
G02*
X31695000Y-70314000I100000J0D01*
G01*
G37*
G36*
G01*
X31045000Y-70314000D02*
X31245000Y-70314000D01*
G75*
G02*
X31345000Y-70414000I0J-100000D01*
G01*
X31345000Y-71689000D01*
G75*
G02*
X31245000Y-71789000I-100000J0D01*
G01*
X31045000Y-71789000D01*
G75*
G02*
X30945000Y-71689000I0J100000D01*
G01*
X30945000Y-70414000D01*
G75*
G02*
X31045000Y-70314000I100000J0D01*
G01*
G37*
G36*
G01*
X30395000Y-70314000D02*
X30595000Y-70314000D01*
G75*
G02*
X30695000Y-70414000I0J-100000D01*
G01*
X30695000Y-71689000D01*
G75*
G02*
X30595000Y-71789000I-100000J0D01*
G01*
X30395000Y-71789000D01*
G75*
G02*
X30295000Y-71689000I0J100000D01*
G01*
X30295000Y-70414000D01*
G75*
G02*
X30395000Y-70314000I100000J0D01*
G01*
G37*
G36*
G01*
X29745000Y-70314000D02*
X29945000Y-70314000D01*
G75*
G02*
X30045000Y-70414000I0J-100000D01*
G01*
X30045000Y-71689000D01*
G75*
G02*
X29945000Y-71789000I-100000J0D01*
G01*
X29745000Y-71789000D01*
G75*
G02*
X29645000Y-71689000I0J100000D01*
G01*
X29645000Y-70414000D01*
G75*
G02*
X29745000Y-70314000I100000J0D01*
G01*
G37*
G36*
G01*
X29095000Y-70314000D02*
X29295000Y-70314000D01*
G75*
G02*
X29395000Y-70414000I0J-100000D01*
G01*
X29395000Y-71689000D01*
G75*
G02*
X29295000Y-71789000I-100000J0D01*
G01*
X29095000Y-71789000D01*
G75*
G02*
X28995000Y-71689000I0J100000D01*
G01*
X28995000Y-70414000D01*
G75*
G02*
X29095000Y-70314000I100000J0D01*
G01*
G37*
G36*
G01*
X28445000Y-70314000D02*
X28645000Y-70314000D01*
G75*
G02*
X28745000Y-70414000I0J-100000D01*
G01*
X28745000Y-71689000D01*
G75*
G02*
X28645000Y-71789000I-100000J0D01*
G01*
X28445000Y-71789000D01*
G75*
G02*
X28345000Y-71689000I0J100000D01*
G01*
X28345000Y-70414000D01*
G75*
G02*
X28445000Y-70314000I100000J0D01*
G01*
G37*
G36*
G01*
X27795000Y-70314000D02*
X27995000Y-70314000D01*
G75*
G02*
X28095000Y-70414000I0J-100000D01*
G01*
X28095000Y-71689000D01*
G75*
G02*
X27995000Y-71789000I-100000J0D01*
G01*
X27795000Y-71789000D01*
G75*
G02*
X27695000Y-71689000I0J100000D01*
G01*
X27695000Y-70414000D01*
G75*
G02*
X27795000Y-70314000I100000J0D01*
G01*
G37*
G36*
G01*
X27414000Y-49877000D02*
X27614000Y-49877000D01*
G75*
G02*
X27714000Y-49977000I0J-100000D01*
G01*
X27714000Y-51252000D01*
G75*
G02*
X27614000Y-51352000I-100000J0D01*
G01*
X27414000Y-51352000D01*
G75*
G02*
X27314000Y-51252000I0J100000D01*
G01*
X27314000Y-49977000D01*
G75*
G02*
X27414000Y-49877000I100000J0D01*
G01*
G37*
G36*
G01*
X28064000Y-49877000D02*
X28264000Y-49877000D01*
G75*
G02*
X28364000Y-49977000I0J-100000D01*
G01*
X28364000Y-51252000D01*
G75*
G02*
X28264000Y-51352000I-100000J0D01*
G01*
X28064000Y-51352000D01*
G75*
G02*
X27964000Y-51252000I0J100000D01*
G01*
X27964000Y-49977000D01*
G75*
G02*
X28064000Y-49877000I100000J0D01*
G01*
G37*
G36*
G01*
X28714000Y-49877000D02*
X28914000Y-49877000D01*
G75*
G02*
X29014000Y-49977000I0J-100000D01*
G01*
X29014000Y-51252000D01*
G75*
G02*
X28914000Y-51352000I-100000J0D01*
G01*
X28714000Y-51352000D01*
G75*
G02*
X28614000Y-51252000I0J100000D01*
G01*
X28614000Y-49977000D01*
G75*
G02*
X28714000Y-49877000I100000J0D01*
G01*
G37*
G36*
G01*
X29364000Y-49877000D02*
X29564000Y-49877000D01*
G75*
G02*
X29664000Y-49977000I0J-100000D01*
G01*
X29664000Y-51252000D01*
G75*
G02*
X29564000Y-51352000I-100000J0D01*
G01*
X29364000Y-51352000D01*
G75*
G02*
X29264000Y-51252000I0J100000D01*
G01*
X29264000Y-49977000D01*
G75*
G02*
X29364000Y-49877000I100000J0D01*
G01*
G37*
G36*
G01*
X30014000Y-49877000D02*
X30214000Y-49877000D01*
G75*
G02*
X30314000Y-49977000I0J-100000D01*
G01*
X30314000Y-51252000D01*
G75*
G02*
X30214000Y-51352000I-100000J0D01*
G01*
X30014000Y-51352000D01*
G75*
G02*
X29914000Y-51252000I0J100000D01*
G01*
X29914000Y-49977000D01*
G75*
G02*
X30014000Y-49877000I100000J0D01*
G01*
G37*
G36*
G01*
X30664000Y-49877000D02*
X30864000Y-49877000D01*
G75*
G02*
X30964000Y-49977000I0J-100000D01*
G01*
X30964000Y-51252000D01*
G75*
G02*
X30864000Y-51352000I-100000J0D01*
G01*
X30664000Y-51352000D01*
G75*
G02*
X30564000Y-51252000I0J100000D01*
G01*
X30564000Y-49977000D01*
G75*
G02*
X30664000Y-49877000I100000J0D01*
G01*
G37*
G36*
G01*
X31314000Y-49877000D02*
X31514000Y-49877000D01*
G75*
G02*
X31614000Y-49977000I0J-100000D01*
G01*
X31614000Y-51252000D01*
G75*
G02*
X31514000Y-51352000I-100000J0D01*
G01*
X31314000Y-51352000D01*
G75*
G02*
X31214000Y-51252000I0J100000D01*
G01*
X31214000Y-49977000D01*
G75*
G02*
X31314000Y-49877000I100000J0D01*
G01*
G37*
G36*
G01*
X31314000Y-44152000D02*
X31514000Y-44152000D01*
G75*
G02*
X31614000Y-44252000I0J-100000D01*
G01*
X31614000Y-45527000D01*
G75*
G02*
X31514000Y-45627000I-100000J0D01*
G01*
X31314000Y-45627000D01*
G75*
G02*
X31214000Y-45527000I0J100000D01*
G01*
X31214000Y-44252000D01*
G75*
G02*
X31314000Y-44152000I100000J0D01*
G01*
G37*
G36*
G01*
X30664000Y-44152000D02*
X30864000Y-44152000D01*
G75*
G02*
X30964000Y-44252000I0J-100000D01*
G01*
X30964000Y-45527000D01*
G75*
G02*
X30864000Y-45627000I-100000J0D01*
G01*
X30664000Y-45627000D01*
G75*
G02*
X30564000Y-45527000I0J100000D01*
G01*
X30564000Y-44252000D01*
G75*
G02*
X30664000Y-44152000I100000J0D01*
G01*
G37*
G36*
G01*
X30014000Y-44152000D02*
X30214000Y-44152000D01*
G75*
G02*
X30314000Y-44252000I0J-100000D01*
G01*
X30314000Y-45527000D01*
G75*
G02*
X30214000Y-45627000I-100000J0D01*
G01*
X30014000Y-45627000D01*
G75*
G02*
X29914000Y-45527000I0J100000D01*
G01*
X29914000Y-44252000D01*
G75*
G02*
X30014000Y-44152000I100000J0D01*
G01*
G37*
G36*
G01*
X29364000Y-44152000D02*
X29564000Y-44152000D01*
G75*
G02*
X29664000Y-44252000I0J-100000D01*
G01*
X29664000Y-45527000D01*
G75*
G02*
X29564000Y-45627000I-100000J0D01*
G01*
X29364000Y-45627000D01*
G75*
G02*
X29264000Y-45527000I0J100000D01*
G01*
X29264000Y-44252000D01*
G75*
G02*
X29364000Y-44152000I100000J0D01*
G01*
G37*
G36*
G01*
X28714000Y-44152000D02*
X28914000Y-44152000D01*
G75*
G02*
X29014000Y-44252000I0J-100000D01*
G01*
X29014000Y-45527000D01*
G75*
G02*
X28914000Y-45627000I-100000J0D01*
G01*
X28714000Y-45627000D01*
G75*
G02*
X28614000Y-45527000I0J100000D01*
G01*
X28614000Y-44252000D01*
G75*
G02*
X28714000Y-44152000I100000J0D01*
G01*
G37*
G36*
G01*
X28064000Y-44152000D02*
X28264000Y-44152000D01*
G75*
G02*
X28364000Y-44252000I0J-100000D01*
G01*
X28364000Y-45527000D01*
G75*
G02*
X28264000Y-45627000I-100000J0D01*
G01*
X28064000Y-45627000D01*
G75*
G02*
X27964000Y-45527000I0J100000D01*
G01*
X27964000Y-44252000D01*
G75*
G02*
X28064000Y-44152000I100000J0D01*
G01*
G37*
G36*
G01*
X27414000Y-44152000D02*
X27614000Y-44152000D01*
G75*
G02*
X27714000Y-44252000I0J-100000D01*
G01*
X27714000Y-45527000D01*
G75*
G02*
X27614000Y-45627000I-100000J0D01*
G01*
X27414000Y-45627000D01*
G75*
G02*
X27314000Y-45527000I0J100000D01*
G01*
X27314000Y-44252000D01*
G75*
G02*
X27414000Y-44152000I100000J0D01*
G01*
G37*
G36*
G01*
X99550000Y-32859000D02*
X99750000Y-32859000D01*
G75*
G02*
X99850000Y-32959000I0J-100000D01*
G01*
X99850000Y-34234000D01*
G75*
G02*
X99750000Y-34334000I-100000J0D01*
G01*
X99550000Y-34334000D01*
G75*
G02*
X99450000Y-34234000I0J100000D01*
G01*
X99450000Y-32959000D01*
G75*
G02*
X99550000Y-32859000I100000J0D01*
G01*
G37*
G36*
G01*
X100200000Y-32859000D02*
X100400000Y-32859000D01*
G75*
G02*
X100500000Y-32959000I0J-100000D01*
G01*
X100500000Y-34234000D01*
G75*
G02*
X100400000Y-34334000I-100000J0D01*
G01*
X100200000Y-34334000D01*
G75*
G02*
X100100000Y-34234000I0J100000D01*
G01*
X100100000Y-32959000D01*
G75*
G02*
X100200000Y-32859000I100000J0D01*
G01*
G37*
G36*
G01*
X100850000Y-32859000D02*
X101050000Y-32859000D01*
G75*
G02*
X101150000Y-32959000I0J-100000D01*
G01*
X101150000Y-34234000D01*
G75*
G02*
X101050000Y-34334000I-100000J0D01*
G01*
X100850000Y-34334000D01*
G75*
G02*
X100750000Y-34234000I0J100000D01*
G01*
X100750000Y-32959000D01*
G75*
G02*
X100850000Y-32859000I100000J0D01*
G01*
G37*
G36*
G01*
X101500000Y-32859000D02*
X101700000Y-32859000D01*
G75*
G02*
X101800000Y-32959000I0J-100000D01*
G01*
X101800000Y-34234000D01*
G75*
G02*
X101700000Y-34334000I-100000J0D01*
G01*
X101500000Y-34334000D01*
G75*
G02*
X101400000Y-34234000I0J100000D01*
G01*
X101400000Y-32959000D01*
G75*
G02*
X101500000Y-32859000I100000J0D01*
G01*
G37*
G36*
G01*
X102150000Y-32859000D02*
X102350000Y-32859000D01*
G75*
G02*
X102450000Y-32959000I0J-100000D01*
G01*
X102450000Y-34234000D01*
G75*
G02*
X102350000Y-34334000I-100000J0D01*
G01*
X102150000Y-34334000D01*
G75*
G02*
X102050000Y-34234000I0J100000D01*
G01*
X102050000Y-32959000D01*
G75*
G02*
X102150000Y-32859000I100000J0D01*
G01*
G37*
G36*
G01*
X102800000Y-32859000D02*
X103000000Y-32859000D01*
G75*
G02*
X103100000Y-32959000I0J-100000D01*
G01*
X103100000Y-34234000D01*
G75*
G02*
X103000000Y-34334000I-100000J0D01*
G01*
X102800000Y-34334000D01*
G75*
G02*
X102700000Y-34234000I0J100000D01*
G01*
X102700000Y-32959000D01*
G75*
G02*
X102800000Y-32859000I100000J0D01*
G01*
G37*
G36*
G01*
X103450000Y-32859000D02*
X103650000Y-32859000D01*
G75*
G02*
X103750000Y-32959000I0J-100000D01*
G01*
X103750000Y-34234000D01*
G75*
G02*
X103650000Y-34334000I-100000J0D01*
G01*
X103450000Y-34334000D01*
G75*
G02*
X103350000Y-34234000I0J100000D01*
G01*
X103350000Y-32959000D01*
G75*
G02*
X103450000Y-32859000I100000J0D01*
G01*
G37*
G36*
G01*
X103450000Y-27134000D02*
X103650000Y-27134000D01*
G75*
G02*
X103750000Y-27234000I0J-100000D01*
G01*
X103750000Y-28509000D01*
G75*
G02*
X103650000Y-28609000I-100000J0D01*
G01*
X103450000Y-28609000D01*
G75*
G02*
X103350000Y-28509000I0J100000D01*
G01*
X103350000Y-27234000D01*
G75*
G02*
X103450000Y-27134000I100000J0D01*
G01*
G37*
G36*
G01*
X102800000Y-27134000D02*
X103000000Y-27134000D01*
G75*
G02*
X103100000Y-27234000I0J-100000D01*
G01*
X103100000Y-28509000D01*
G75*
G02*
X103000000Y-28609000I-100000J0D01*
G01*
X102800000Y-28609000D01*
G75*
G02*
X102700000Y-28509000I0J100000D01*
G01*
X102700000Y-27234000D01*
G75*
G02*
X102800000Y-27134000I100000J0D01*
G01*
G37*
G36*
G01*
X102150000Y-27134000D02*
X102350000Y-27134000D01*
G75*
G02*
X102450000Y-27234000I0J-100000D01*
G01*
X102450000Y-28509000D01*
G75*
G02*
X102350000Y-28609000I-100000J0D01*
G01*
X102150000Y-28609000D01*
G75*
G02*
X102050000Y-28509000I0J100000D01*
G01*
X102050000Y-27234000D01*
G75*
G02*
X102150000Y-27134000I100000J0D01*
G01*
G37*
G36*
G01*
X101500000Y-27134000D02*
X101700000Y-27134000D01*
G75*
G02*
X101800000Y-27234000I0J-100000D01*
G01*
X101800000Y-28509000D01*
G75*
G02*
X101700000Y-28609000I-100000J0D01*
G01*
X101500000Y-28609000D01*
G75*
G02*
X101400000Y-28509000I0J100000D01*
G01*
X101400000Y-27234000D01*
G75*
G02*
X101500000Y-27134000I100000J0D01*
G01*
G37*
G36*
G01*
X100850000Y-27134000D02*
X101050000Y-27134000D01*
G75*
G02*
X101150000Y-27234000I0J-100000D01*
G01*
X101150000Y-28509000D01*
G75*
G02*
X101050000Y-28609000I-100000J0D01*
G01*
X100850000Y-28609000D01*
G75*
G02*
X100750000Y-28509000I0J100000D01*
G01*
X100750000Y-27234000D01*
G75*
G02*
X100850000Y-27134000I100000J0D01*
G01*
G37*
G36*
G01*
X100200000Y-27134000D02*
X100400000Y-27134000D01*
G75*
G02*
X100500000Y-27234000I0J-100000D01*
G01*
X100500000Y-28509000D01*
G75*
G02*
X100400000Y-28609000I-100000J0D01*
G01*
X100200000Y-28609000D01*
G75*
G02*
X100100000Y-28509000I0J100000D01*
G01*
X100100000Y-27234000D01*
G75*
G02*
X100200000Y-27134000I100000J0D01*
G01*
G37*
G36*
G01*
X99550000Y-27134000D02*
X99750000Y-27134000D01*
G75*
G02*
X99850000Y-27234000I0J-100000D01*
G01*
X99850000Y-28509000D01*
G75*
G02*
X99750000Y-28609000I-100000J0D01*
G01*
X99550000Y-28609000D01*
G75*
G02*
X99450000Y-28509000I0J100000D01*
G01*
X99450000Y-27234000D01*
G75*
G02*
X99550000Y-27134000I100000J0D01*
G01*
G37*
X98425000Y-78756000D03*
X97475000Y-80756000D03*
X99375000Y-80756000D03*
G36*
G01*
X55605000Y-68687000D02*
X56155000Y-68687000D01*
G75*
G02*
X56355000Y-68887000I0J-200000D01*
G01*
X56355000Y-69287000D01*
G75*
G02*
X56155000Y-69487000I-200000J0D01*
G01*
X55605000Y-69487000D01*
G75*
G02*
X55405000Y-69287000I0J200000D01*
G01*
X55405000Y-68887000D01*
G75*
G02*
X55605000Y-68687000I200000J0D01*
G01*
G37*
G36*
G01*
X55605000Y-67037000D02*
X56155000Y-67037000D01*
G75*
G02*
X56355000Y-67237000I0J-200000D01*
G01*
X56355000Y-67637000D01*
G75*
G02*
X56155000Y-67837000I-200000J0D01*
G01*
X55605000Y-67837000D01*
G75*
G02*
X55405000Y-67637000I0J200000D01*
G01*
X55405000Y-67237000D01*
G75*
G02*
X55605000Y-67037000I200000J0D01*
G01*
G37*
G36*
G01*
X55605000Y-73132000D02*
X56155000Y-73132000D01*
G75*
G02*
X56355000Y-73332000I0J-200000D01*
G01*
X56355000Y-73732000D01*
G75*
G02*
X56155000Y-73932000I-200000J0D01*
G01*
X55605000Y-73932000D01*
G75*
G02*
X55405000Y-73732000I0J200000D01*
G01*
X55405000Y-73332000D01*
G75*
G02*
X55605000Y-73132000I200000J0D01*
G01*
G37*
G36*
G01*
X55605000Y-71482000D02*
X56155000Y-71482000D01*
G75*
G02*
X56355000Y-71682000I0J-200000D01*
G01*
X56355000Y-72082000D01*
G75*
G02*
X56155000Y-72282000I-200000J0D01*
G01*
X55605000Y-72282000D01*
G75*
G02*
X55405000Y-72082000I0J200000D01*
G01*
X55405000Y-71682000D01*
G75*
G02*
X55605000Y-71482000I200000J0D01*
G01*
G37*
G36*
G01*
X58653000Y-64242000D02*
X59203000Y-64242000D01*
G75*
G02*
X59403000Y-64442000I0J-200000D01*
G01*
X59403000Y-64842000D01*
G75*
G02*
X59203000Y-65042000I-200000J0D01*
G01*
X58653000Y-65042000D01*
G75*
G02*
X58453000Y-64842000I0J200000D01*
G01*
X58453000Y-64442000D01*
G75*
G02*
X58653000Y-64242000I200000J0D01*
G01*
G37*
G36*
G01*
X58653000Y-62592000D02*
X59203000Y-62592000D01*
G75*
G02*
X59403000Y-62792000I0J-200000D01*
G01*
X59403000Y-63192000D01*
G75*
G02*
X59203000Y-63392000I-200000J0D01*
G01*
X58653000Y-63392000D01*
G75*
G02*
X58453000Y-63192000I0J200000D01*
G01*
X58453000Y-62792000D01*
G75*
G02*
X58653000Y-62592000I200000J0D01*
G01*
G37*
G36*
G01*
X62505000Y-53487000D02*
X61955000Y-53487000D01*
G75*
G02*
X61755000Y-53287000I0J200000D01*
G01*
X61755000Y-52887000D01*
G75*
G02*
X61955000Y-52687000I200000J0D01*
G01*
X62505000Y-52687000D01*
G75*
G02*
X62705000Y-52887000I0J-200000D01*
G01*
X62705000Y-53287000D01*
G75*
G02*
X62505000Y-53487000I-200000J0D01*
G01*
G37*
G36*
G01*
X62505000Y-55137000D02*
X61955000Y-55137000D01*
G75*
G02*
X61755000Y-54937000I0J200000D01*
G01*
X61755000Y-54537000D01*
G75*
G02*
X61955000Y-54337000I200000J0D01*
G01*
X62505000Y-54337000D01*
G75*
G02*
X62705000Y-54537000I0J-200000D01*
G01*
X62705000Y-54937000D01*
G75*
G02*
X62505000Y-55137000I-200000J0D01*
G01*
G37*
G36*
G01*
X61701000Y-68687000D02*
X62251000Y-68687000D01*
G75*
G02*
X62451000Y-68887000I0J-200000D01*
G01*
X62451000Y-69287000D01*
G75*
G02*
X62251000Y-69487000I-200000J0D01*
G01*
X61701000Y-69487000D01*
G75*
G02*
X61501000Y-69287000I0J200000D01*
G01*
X61501000Y-68887000D01*
G75*
G02*
X61701000Y-68687000I200000J0D01*
G01*
G37*
G36*
G01*
X61701000Y-67037000D02*
X62251000Y-67037000D01*
G75*
G02*
X62451000Y-67237000I0J-200000D01*
G01*
X62451000Y-67637000D01*
G75*
G02*
X62251000Y-67837000I-200000J0D01*
G01*
X61701000Y-67837000D01*
G75*
G02*
X61501000Y-67637000I0J200000D01*
G01*
X61501000Y-67237000D01*
G75*
G02*
X61701000Y-67037000I200000J0D01*
G01*
G37*
G36*
G01*
X58653000Y-68687000D02*
X59203000Y-68687000D01*
G75*
G02*
X59403000Y-68887000I0J-200000D01*
G01*
X59403000Y-69287000D01*
G75*
G02*
X59203000Y-69487000I-200000J0D01*
G01*
X58653000Y-69487000D01*
G75*
G02*
X58453000Y-69287000I0J200000D01*
G01*
X58453000Y-68887000D01*
G75*
G02*
X58653000Y-68687000I200000J0D01*
G01*
G37*
G36*
G01*
X58653000Y-67037000D02*
X59203000Y-67037000D01*
G75*
G02*
X59403000Y-67237000I0J-200000D01*
G01*
X59403000Y-67637000D01*
G75*
G02*
X59203000Y-67837000I-200000J0D01*
G01*
X58653000Y-67837000D01*
G75*
G02*
X58453000Y-67637000I0J200000D01*
G01*
X58453000Y-67237000D01*
G75*
G02*
X58653000Y-67037000I200000J0D01*
G01*
G37*
G36*
G01*
X101494000Y-105747000D02*
X100944000Y-105747000D01*
G75*
G02*
X100744000Y-105547000I0J200000D01*
G01*
X100744000Y-105147000D01*
G75*
G02*
X100944000Y-104947000I200000J0D01*
G01*
X101494000Y-104947000D01*
G75*
G02*
X101694000Y-105147000I0J-200000D01*
G01*
X101694000Y-105547000D01*
G75*
G02*
X101494000Y-105747000I-200000J0D01*
G01*
G37*
G36*
G01*
X101494000Y-107397000D02*
X100944000Y-107397000D01*
G75*
G02*
X100744000Y-107197000I0J200000D01*
G01*
X100744000Y-106797000D01*
G75*
G02*
X100944000Y-106597000I200000J0D01*
G01*
X101494000Y-106597000D01*
G75*
G02*
X101694000Y-106797000I0J-200000D01*
G01*
X101694000Y-107197000D01*
G75*
G02*
X101494000Y-107397000I-200000J0D01*
G01*
G37*
G36*
G01*
X43074000Y-105176000D02*
X42524000Y-105176000D01*
G75*
G02*
X42324000Y-104976000I0J200000D01*
G01*
X42324000Y-104576000D01*
G75*
G02*
X42524000Y-104376000I200000J0D01*
G01*
X43074000Y-104376000D01*
G75*
G02*
X43274000Y-104576000I0J-200000D01*
G01*
X43274000Y-104976000D01*
G75*
G02*
X43074000Y-105176000I-200000J0D01*
G01*
G37*
G36*
G01*
X43074000Y-106826000D02*
X42524000Y-106826000D01*
G75*
G02*
X42324000Y-106626000I0J200000D01*
G01*
X42324000Y-106226000D01*
G75*
G02*
X42524000Y-106026000I200000J0D01*
G01*
X43074000Y-106026000D01*
G75*
G02*
X43274000Y-106226000I0J-200000D01*
G01*
X43274000Y-106626000D01*
G75*
G02*
X43074000Y-106826000I-200000J0D01*
G01*
G37*
G36*
G01*
X91690000Y-42842000D02*
X91190000Y-42842000D01*
G75*
G02*
X90965000Y-42617000I0J225000D01*
G01*
X90965000Y-42167000D01*
G75*
G02*
X91190000Y-41942000I225000J0D01*
G01*
X91690000Y-41942000D01*
G75*
G02*
X91915000Y-42167000I0J-225000D01*
G01*
X91915000Y-42617000D01*
G75*
G02*
X91690000Y-42842000I-225000J0D01*
G01*
G37*
G36*
G01*
X91690000Y-44392000D02*
X91190000Y-44392000D01*
G75*
G02*
X90965000Y-44167000I0J225000D01*
G01*
X90965000Y-43717000D01*
G75*
G02*
X91190000Y-43492000I225000J0D01*
G01*
X91690000Y-43492000D01*
G75*
G02*
X91915000Y-43717000I0J-225000D01*
G01*
X91915000Y-44167000D01*
G75*
G02*
X91690000Y-44392000I-225000J0D01*
G01*
G37*
G36*
G01*
X91690000Y-38651000D02*
X91190000Y-38651000D01*
G75*
G02*
X90965000Y-38426000I0J225000D01*
G01*
X90965000Y-37976000D01*
G75*
G02*
X91190000Y-37751000I225000J0D01*
G01*
X91690000Y-37751000D01*
G75*
G02*
X91915000Y-37976000I0J-225000D01*
G01*
X91915000Y-38426000D01*
G75*
G02*
X91690000Y-38651000I-225000J0D01*
G01*
G37*
G36*
G01*
X91690000Y-40201000D02*
X91190000Y-40201000D01*
G75*
G02*
X90965000Y-39976000I0J225000D01*
G01*
X90965000Y-39526000D01*
G75*
G02*
X91190000Y-39301000I225000J0D01*
G01*
X91690000Y-39301000D01*
G75*
G02*
X91915000Y-39526000I0J-225000D01*
G01*
X91915000Y-39976000D01*
G75*
G02*
X91690000Y-40201000I-225000J0D01*
G01*
G37*
G36*
G01*
X107565000Y-42868000D02*
X107065000Y-42868000D01*
G75*
G02*
X106840000Y-42643000I0J225000D01*
G01*
X106840000Y-42193000D01*
G75*
G02*
X107065000Y-41968000I225000J0D01*
G01*
X107565000Y-41968000D01*
G75*
G02*
X107790000Y-42193000I0J-225000D01*
G01*
X107790000Y-42643000D01*
G75*
G02*
X107565000Y-42868000I-225000J0D01*
G01*
G37*
G36*
G01*
X107565000Y-44418000D02*
X107065000Y-44418000D01*
G75*
G02*
X106840000Y-44193000I0J225000D01*
G01*
X106840000Y-43743000D01*
G75*
G02*
X107065000Y-43518000I225000J0D01*
G01*
X107565000Y-43518000D01*
G75*
G02*
X107790000Y-43743000I0J-225000D01*
G01*
X107790000Y-44193000D01*
G75*
G02*
X107565000Y-44418000I-225000J0D01*
G01*
G37*
G36*
G01*
X107565000Y-38651000D02*
X107065000Y-38651000D01*
G75*
G02*
X106840000Y-38426000I0J225000D01*
G01*
X106840000Y-37976000D01*
G75*
G02*
X107065000Y-37751000I225000J0D01*
G01*
X107565000Y-37751000D01*
G75*
G02*
X107790000Y-37976000I0J-225000D01*
G01*
X107790000Y-38426000D01*
G75*
G02*
X107565000Y-38651000I-225000J0D01*
G01*
G37*
G36*
G01*
X107565000Y-40201000D02*
X107065000Y-40201000D01*
G75*
G02*
X106840000Y-39976000I0J225000D01*
G01*
X106840000Y-39526000D01*
G75*
G02*
X107065000Y-39301000I225000J0D01*
G01*
X107565000Y-39301000D01*
G75*
G02*
X107790000Y-39526000I0J-225000D01*
G01*
X107790000Y-39976000D01*
G75*
G02*
X107565000Y-40201000I-225000J0D01*
G01*
G37*
G36*
G01*
X92587000Y-66378000D02*
X93087000Y-66378000D01*
G75*
G02*
X93312000Y-66603000I0J-225000D01*
G01*
X93312000Y-67053000D01*
G75*
G02*
X93087000Y-67278000I-225000J0D01*
G01*
X92587000Y-67278000D01*
G75*
G02*
X92362000Y-67053000I0J225000D01*
G01*
X92362000Y-66603000D01*
G75*
G02*
X92587000Y-66378000I225000J0D01*
G01*
G37*
G36*
G01*
X92587000Y-64828000D02*
X93087000Y-64828000D01*
G75*
G02*
X93312000Y-65053000I0J-225000D01*
G01*
X93312000Y-65503000D01*
G75*
G02*
X93087000Y-65728000I-225000J0D01*
G01*
X92587000Y-65728000D01*
G75*
G02*
X92362000Y-65503000I0J225000D01*
G01*
X92362000Y-65053000D01*
G75*
G02*
X92587000Y-64828000I225000J0D01*
G01*
G37*
G36*
G01*
X48645000Y-62695000D02*
X49145000Y-62695000D01*
G75*
G02*
X49370000Y-62920000I0J-225000D01*
G01*
X49370000Y-63370000D01*
G75*
G02*
X49145000Y-63595000I-225000J0D01*
G01*
X48645000Y-63595000D01*
G75*
G02*
X48420000Y-63370000I0J225000D01*
G01*
X48420000Y-62920000D01*
G75*
G02*
X48645000Y-62695000I225000J0D01*
G01*
G37*
G36*
G01*
X48645000Y-61145000D02*
X49145000Y-61145000D01*
G75*
G02*
X49370000Y-61370000I0J-225000D01*
G01*
X49370000Y-61820000D01*
G75*
G02*
X49145000Y-62045000I-225000J0D01*
G01*
X48645000Y-62045000D01*
G75*
G02*
X48420000Y-61820000I0J225000D01*
G01*
X48420000Y-61370000D01*
G75*
G02*
X48645000Y-61145000I225000J0D01*
G01*
G37*
G36*
G01*
X24490000Y-81006000D02*
X25040000Y-81006000D01*
G75*
G02*
X25240000Y-81206000I0J-200000D01*
G01*
X25240000Y-81606000D01*
G75*
G02*
X25040000Y-81806000I-200000J0D01*
G01*
X24490000Y-81806000D01*
G75*
G02*
X24290000Y-81606000I0J200000D01*
G01*
X24290000Y-81206000D01*
G75*
G02*
X24490000Y-81006000I200000J0D01*
G01*
G37*
G36*
G01*
X24490000Y-79356000D02*
X25040000Y-79356000D01*
G75*
G02*
X25240000Y-79556000I0J-200000D01*
G01*
X25240000Y-79956000D01*
G75*
G02*
X25040000Y-80156000I-200000J0D01*
G01*
X24490000Y-80156000D01*
G75*
G02*
X24290000Y-79956000I0J200000D01*
G01*
X24290000Y-79556000D01*
G75*
G02*
X24490000Y-79356000I200000J0D01*
G01*
G37*
G36*
G01*
X30586000Y-81006000D02*
X31136000Y-81006000D01*
G75*
G02*
X31336000Y-81206000I0J-200000D01*
G01*
X31336000Y-81606000D01*
G75*
G02*
X31136000Y-81806000I-200000J0D01*
G01*
X30586000Y-81806000D01*
G75*
G02*
X30386000Y-81606000I0J200000D01*
G01*
X30386000Y-81206000D01*
G75*
G02*
X30586000Y-81006000I200000J0D01*
G01*
G37*
G36*
G01*
X30586000Y-79356000D02*
X31136000Y-79356000D01*
G75*
G02*
X31336000Y-79556000I0J-200000D01*
G01*
X31336000Y-79956000D01*
G75*
G02*
X31136000Y-80156000I-200000J0D01*
G01*
X30586000Y-80156000D01*
G75*
G02*
X30386000Y-79956000I0J200000D01*
G01*
X30386000Y-79556000D01*
G75*
G02*
X30586000Y-79356000I200000J0D01*
G01*
G37*
G36*
G01*
X27538000Y-81006000D02*
X28088000Y-81006000D01*
G75*
G02*
X28288000Y-81206000I0J-200000D01*
G01*
X28288000Y-81606000D01*
G75*
G02*
X28088000Y-81806000I-200000J0D01*
G01*
X27538000Y-81806000D01*
G75*
G02*
X27338000Y-81606000I0J200000D01*
G01*
X27338000Y-81206000D01*
G75*
G02*
X27538000Y-81006000I200000J0D01*
G01*
G37*
G36*
G01*
X27538000Y-79356000D02*
X28088000Y-79356000D01*
G75*
G02*
X28288000Y-79556000I0J-200000D01*
G01*
X28288000Y-79956000D01*
G75*
G02*
X28088000Y-80156000I-200000J0D01*
G01*
X27538000Y-80156000D01*
G75*
G02*
X27338000Y-79956000I0J200000D01*
G01*
X27338000Y-79556000D01*
G75*
G02*
X27538000Y-79356000I200000J0D01*
G01*
G37*
G36*
G01*
X32618000Y-67544000D02*
X33168000Y-67544000D01*
G75*
G02*
X33368000Y-67744000I0J-200000D01*
G01*
X33368000Y-68144000D01*
G75*
G02*
X33168000Y-68344000I-200000J0D01*
G01*
X32618000Y-68344000D01*
G75*
G02*
X32418000Y-68144000I0J200000D01*
G01*
X32418000Y-67744000D01*
G75*
G02*
X32618000Y-67544000I200000J0D01*
G01*
G37*
G36*
G01*
X32618000Y-65894000D02*
X33168000Y-65894000D01*
G75*
G02*
X33368000Y-66094000I0J-200000D01*
G01*
X33368000Y-66494000D01*
G75*
G02*
X33168000Y-66694000I-200000J0D01*
G01*
X32618000Y-66694000D01*
G75*
G02*
X32418000Y-66494000I0J200000D01*
G01*
X32418000Y-66094000D01*
G75*
G02*
X32618000Y-65894000I200000J0D01*
G01*
G37*
G36*
G01*
X35666000Y-67544000D02*
X36216000Y-67544000D01*
G75*
G02*
X36416000Y-67744000I0J-200000D01*
G01*
X36416000Y-68144000D01*
G75*
G02*
X36216000Y-68344000I-200000J0D01*
G01*
X35666000Y-68344000D01*
G75*
G02*
X35466000Y-68144000I0J200000D01*
G01*
X35466000Y-67744000D01*
G75*
G02*
X35666000Y-67544000I200000J0D01*
G01*
G37*
G36*
G01*
X35666000Y-65894000D02*
X36216000Y-65894000D01*
G75*
G02*
X36416000Y-66094000I0J-200000D01*
G01*
X36416000Y-66494000D01*
G75*
G02*
X36216000Y-66694000I-200000J0D01*
G01*
X35666000Y-66694000D01*
G75*
G02*
X35466000Y-66494000I0J200000D01*
G01*
X35466000Y-66094000D01*
G75*
G02*
X35666000Y-65894000I200000J0D01*
G01*
G37*
G36*
G01*
X23474000Y-67544000D02*
X24024000Y-67544000D01*
G75*
G02*
X24224000Y-67744000I0J-200000D01*
G01*
X24224000Y-68144000D01*
G75*
G02*
X24024000Y-68344000I-200000J0D01*
G01*
X23474000Y-68344000D01*
G75*
G02*
X23274000Y-68144000I0J200000D01*
G01*
X23274000Y-67744000D01*
G75*
G02*
X23474000Y-67544000I200000J0D01*
G01*
G37*
G36*
G01*
X23474000Y-65894000D02*
X24024000Y-65894000D01*
G75*
G02*
X24224000Y-66094000I0J-200000D01*
G01*
X24224000Y-66494000D01*
G75*
G02*
X24024000Y-66694000I-200000J0D01*
G01*
X23474000Y-66694000D01*
G75*
G02*
X23274000Y-66494000I0J200000D01*
G01*
X23274000Y-66094000D01*
G75*
G02*
X23474000Y-65894000I200000J0D01*
G01*
G37*
G36*
G01*
X26522000Y-67544000D02*
X27072000Y-67544000D01*
G75*
G02*
X27272000Y-67744000I0J-200000D01*
G01*
X27272000Y-68144000D01*
G75*
G02*
X27072000Y-68344000I-200000J0D01*
G01*
X26522000Y-68344000D01*
G75*
G02*
X26322000Y-68144000I0J200000D01*
G01*
X26322000Y-67744000D01*
G75*
G02*
X26522000Y-67544000I200000J0D01*
G01*
G37*
G36*
G01*
X26522000Y-65894000D02*
X27072000Y-65894000D01*
G75*
G02*
X27272000Y-66094000I0J-200000D01*
G01*
X27272000Y-66494000D01*
G75*
G02*
X27072000Y-66694000I-200000J0D01*
G01*
X26522000Y-66694000D01*
G75*
G02*
X26322000Y-66494000I0J200000D01*
G01*
X26322000Y-66094000D01*
G75*
G02*
X26522000Y-65894000I200000J0D01*
G01*
G37*
G36*
G01*
X30120000Y-66694000D02*
X29570000Y-66694000D01*
G75*
G02*
X29370000Y-66494000I0J200000D01*
G01*
X29370000Y-66094000D01*
G75*
G02*
X29570000Y-65894000I200000J0D01*
G01*
X30120000Y-65894000D01*
G75*
G02*
X30320000Y-66094000I0J-200000D01*
G01*
X30320000Y-66494000D01*
G75*
G02*
X30120000Y-66694000I-200000J0D01*
G01*
G37*
G36*
G01*
X30120000Y-68344000D02*
X29570000Y-68344000D01*
G75*
G02*
X29370000Y-68144000I0J200000D01*
G01*
X29370000Y-67744000D01*
G75*
G02*
X29570000Y-67544000I200000J0D01*
G01*
X30120000Y-67544000D01*
G75*
G02*
X30320000Y-67744000I0J-200000D01*
G01*
X30320000Y-68144000D01*
G75*
G02*
X30120000Y-68344000I-200000J0D01*
G01*
G37*
G36*
G01*
X33688000Y-81156000D02*
X34638000Y-81156000D01*
G75*
G02*
X34888000Y-81406000I0J-250000D01*
G01*
X34888000Y-81906000D01*
G75*
G02*
X34638000Y-82156000I-250000J0D01*
G01*
X33688000Y-82156000D01*
G75*
G02*
X33438000Y-81906000I0J250000D01*
G01*
X33438000Y-81406000D01*
G75*
G02*
X33688000Y-81156000I250000J0D01*
G01*
G37*
G36*
G01*
X33688000Y-79256000D02*
X34638000Y-79256000D01*
G75*
G02*
X34888000Y-79506000I0J-250000D01*
G01*
X34888000Y-80006000D01*
G75*
G02*
X34638000Y-80256000I-250000J0D01*
G01*
X33688000Y-80256000D01*
G75*
G02*
X33438000Y-80006000I0J250000D01*
G01*
X33438000Y-79506000D01*
G75*
G02*
X33688000Y-79256000I250000J0D01*
G01*
G37*
G36*
G01*
X100944000Y-102724000D02*
X101494000Y-102724000D01*
G75*
G02*
X101694000Y-102924000I0J-200000D01*
G01*
X101694000Y-103324000D01*
G75*
G02*
X101494000Y-103524000I-200000J0D01*
G01*
X100944000Y-103524000D01*
G75*
G02*
X100744000Y-103324000I0J200000D01*
G01*
X100744000Y-102924000D01*
G75*
G02*
X100944000Y-102724000I200000J0D01*
G01*
G37*
G36*
G01*
X100944000Y-101074000D02*
X101494000Y-101074000D01*
G75*
G02*
X101694000Y-101274000I0J-200000D01*
G01*
X101694000Y-101674000D01*
G75*
G02*
X101494000Y-101874000I-200000J0D01*
G01*
X100944000Y-101874000D01*
G75*
G02*
X100744000Y-101674000I0J200000D01*
G01*
X100744000Y-101274000D01*
G75*
G02*
X100944000Y-101074000I200000J0D01*
G01*
G37*
G36*
G01*
X42524000Y-102342000D02*
X43074000Y-102342000D01*
G75*
G02*
X43274000Y-102542000I0J-200000D01*
G01*
X43274000Y-102942000D01*
G75*
G02*
X43074000Y-103142000I-200000J0D01*
G01*
X42524000Y-103142000D01*
G75*
G02*
X42324000Y-102942000I0J200000D01*
G01*
X42324000Y-102542000D01*
G75*
G02*
X42524000Y-102342000I200000J0D01*
G01*
G37*
G36*
G01*
X42524000Y-100692000D02*
X43074000Y-100692000D01*
G75*
G02*
X43274000Y-100892000I0J-200000D01*
G01*
X43274000Y-101292000D01*
G75*
G02*
X43074000Y-101492000I-200000J0D01*
G01*
X42524000Y-101492000D01*
G75*
G02*
X42324000Y-101292000I0J200000D01*
G01*
X42324000Y-100892000D01*
G75*
G02*
X42524000Y-100692000I200000J0D01*
G01*
G37*
G36*
G01*
X91915000Y-28826000D02*
X90965000Y-28826000D01*
G75*
G02*
X90715000Y-28576000I0J250000D01*
G01*
X90715000Y-28076000D01*
G75*
G02*
X90965000Y-27826000I250000J0D01*
G01*
X91915000Y-27826000D01*
G75*
G02*
X92165000Y-28076000I0J-250000D01*
G01*
X92165000Y-28576000D01*
G75*
G02*
X91915000Y-28826000I-250000J0D01*
G01*
G37*
G36*
G01*
X91915000Y-30726000D02*
X90965000Y-30726000D01*
G75*
G02*
X90715000Y-30476000I0J250000D01*
G01*
X90715000Y-29976000D01*
G75*
G02*
X90965000Y-29726000I250000J0D01*
G01*
X91915000Y-29726000D01*
G75*
G02*
X92165000Y-29976000I0J-250000D01*
G01*
X92165000Y-30476000D01*
G75*
G02*
X91915000Y-30726000I-250000J0D01*
G01*
G37*
G36*
G01*
X129380000Y-28694000D02*
X128430000Y-28694000D01*
G75*
G02*
X128180000Y-28444000I0J250000D01*
G01*
X128180000Y-27944000D01*
G75*
G02*
X128430000Y-27694000I250000J0D01*
G01*
X129380000Y-27694000D01*
G75*
G02*
X129630000Y-27944000I0J-250000D01*
G01*
X129630000Y-28444000D01*
G75*
G02*
X129380000Y-28694000I-250000J0D01*
G01*
G37*
G36*
G01*
X129380000Y-30594000D02*
X128430000Y-30594000D01*
G75*
G02*
X128180000Y-30344000I0J250000D01*
G01*
X128180000Y-29844000D01*
G75*
G02*
X128430000Y-29594000I250000J0D01*
G01*
X129380000Y-29594000D01*
G75*
G02*
X129630000Y-29844000I0J-250000D01*
G01*
X129630000Y-30344000D01*
G75*
G02*
X129380000Y-30594000I-250000J0D01*
G01*
G37*
D11*
X90211000Y-110862000D03*
X90861000Y-110862000D03*
X91511000Y-110862000D03*
X92161000Y-110862000D03*
X92161000Y-106562000D03*
X91511000Y-106562000D03*
X90861000Y-106562000D03*
X90211000Y-106562000D03*
G36*
G01*
X81557000Y-102201000D02*
X81757000Y-102201000D01*
G75*
G02*
X81857000Y-102301000I0J-100000D01*
G01*
X81857000Y-103576000D01*
G75*
G02*
X81757000Y-103676000I-100000J0D01*
G01*
X81557000Y-103676000D01*
G75*
G02*
X81457000Y-103576000I0J100000D01*
G01*
X81457000Y-102301000D01*
G75*
G02*
X81557000Y-102201000I100000J0D01*
G01*
G37*
G36*
G01*
X82207000Y-102201000D02*
X82407000Y-102201000D01*
G75*
G02*
X82507000Y-102301000I0J-100000D01*
G01*
X82507000Y-103576000D01*
G75*
G02*
X82407000Y-103676000I-100000J0D01*
G01*
X82207000Y-103676000D01*
G75*
G02*
X82107000Y-103576000I0J100000D01*
G01*
X82107000Y-102301000D01*
G75*
G02*
X82207000Y-102201000I100000J0D01*
G01*
G37*
G36*
G01*
X82857000Y-102201000D02*
X83057000Y-102201000D01*
G75*
G02*
X83157000Y-102301000I0J-100000D01*
G01*
X83157000Y-103576000D01*
G75*
G02*
X83057000Y-103676000I-100000J0D01*
G01*
X82857000Y-103676000D01*
G75*
G02*
X82757000Y-103576000I0J100000D01*
G01*
X82757000Y-102301000D01*
G75*
G02*
X82857000Y-102201000I100000J0D01*
G01*
G37*
G36*
G01*
X83507000Y-102201000D02*
X83707000Y-102201000D01*
G75*
G02*
X83807000Y-102301000I0J-100000D01*
G01*
X83807000Y-103576000D01*
G75*
G02*
X83707000Y-103676000I-100000J0D01*
G01*
X83507000Y-103676000D01*
G75*
G02*
X83407000Y-103576000I0J100000D01*
G01*
X83407000Y-102301000D01*
G75*
G02*
X83507000Y-102201000I100000J0D01*
G01*
G37*
G36*
G01*
X84157000Y-102201000D02*
X84357000Y-102201000D01*
G75*
G02*
X84457000Y-102301000I0J-100000D01*
G01*
X84457000Y-103576000D01*
G75*
G02*
X84357000Y-103676000I-100000J0D01*
G01*
X84157000Y-103676000D01*
G75*
G02*
X84057000Y-103576000I0J100000D01*
G01*
X84057000Y-102301000D01*
G75*
G02*
X84157000Y-102201000I100000J0D01*
G01*
G37*
G36*
G01*
X84807000Y-102201000D02*
X85007000Y-102201000D01*
G75*
G02*
X85107000Y-102301000I0J-100000D01*
G01*
X85107000Y-103576000D01*
G75*
G02*
X85007000Y-103676000I-100000J0D01*
G01*
X84807000Y-103676000D01*
G75*
G02*
X84707000Y-103576000I0J100000D01*
G01*
X84707000Y-102301000D01*
G75*
G02*
X84807000Y-102201000I100000J0D01*
G01*
G37*
G36*
G01*
X85457000Y-102201000D02*
X85657000Y-102201000D01*
G75*
G02*
X85757000Y-102301000I0J-100000D01*
G01*
X85757000Y-103576000D01*
G75*
G02*
X85657000Y-103676000I-100000J0D01*
G01*
X85457000Y-103676000D01*
G75*
G02*
X85357000Y-103576000I0J100000D01*
G01*
X85357000Y-102301000D01*
G75*
G02*
X85457000Y-102201000I100000J0D01*
G01*
G37*
G36*
G01*
X86107000Y-102201000D02*
X86307000Y-102201000D01*
G75*
G02*
X86407000Y-102301000I0J-100000D01*
G01*
X86407000Y-103576000D01*
G75*
G02*
X86307000Y-103676000I-100000J0D01*
G01*
X86107000Y-103676000D01*
G75*
G02*
X86007000Y-103576000I0J100000D01*
G01*
X86007000Y-102301000D01*
G75*
G02*
X86107000Y-102201000I100000J0D01*
G01*
G37*
G36*
G01*
X86757000Y-102201000D02*
X86957000Y-102201000D01*
G75*
G02*
X87057000Y-102301000I0J-100000D01*
G01*
X87057000Y-103576000D01*
G75*
G02*
X86957000Y-103676000I-100000J0D01*
G01*
X86757000Y-103676000D01*
G75*
G02*
X86657000Y-103576000I0J100000D01*
G01*
X86657000Y-102301000D01*
G75*
G02*
X86757000Y-102201000I100000J0D01*
G01*
G37*
G36*
G01*
X87407000Y-102201000D02*
X87607000Y-102201000D01*
G75*
G02*
X87707000Y-102301000I0J-100000D01*
G01*
X87707000Y-103576000D01*
G75*
G02*
X87607000Y-103676000I-100000J0D01*
G01*
X87407000Y-103676000D01*
G75*
G02*
X87307000Y-103576000I0J100000D01*
G01*
X87307000Y-102301000D01*
G75*
G02*
X87407000Y-102201000I100000J0D01*
G01*
G37*
G36*
G01*
X87407000Y-96476000D02*
X87607000Y-96476000D01*
G75*
G02*
X87707000Y-96576000I0J-100000D01*
G01*
X87707000Y-97851000D01*
G75*
G02*
X87607000Y-97951000I-100000J0D01*
G01*
X87407000Y-97951000D01*
G75*
G02*
X87307000Y-97851000I0J100000D01*
G01*
X87307000Y-96576000D01*
G75*
G02*
X87407000Y-96476000I100000J0D01*
G01*
G37*
G36*
G01*
X86757000Y-96476000D02*
X86957000Y-96476000D01*
G75*
G02*
X87057000Y-96576000I0J-100000D01*
G01*
X87057000Y-97851000D01*
G75*
G02*
X86957000Y-97951000I-100000J0D01*
G01*
X86757000Y-97951000D01*
G75*
G02*
X86657000Y-97851000I0J100000D01*
G01*
X86657000Y-96576000D01*
G75*
G02*
X86757000Y-96476000I100000J0D01*
G01*
G37*
G36*
G01*
X86107000Y-96476000D02*
X86307000Y-96476000D01*
G75*
G02*
X86407000Y-96576000I0J-100000D01*
G01*
X86407000Y-97851000D01*
G75*
G02*
X86307000Y-97951000I-100000J0D01*
G01*
X86107000Y-97951000D01*
G75*
G02*
X86007000Y-97851000I0J100000D01*
G01*
X86007000Y-96576000D01*
G75*
G02*
X86107000Y-96476000I100000J0D01*
G01*
G37*
G36*
G01*
X85457000Y-96476000D02*
X85657000Y-96476000D01*
G75*
G02*
X85757000Y-96576000I0J-100000D01*
G01*
X85757000Y-97851000D01*
G75*
G02*
X85657000Y-97951000I-100000J0D01*
G01*
X85457000Y-97951000D01*
G75*
G02*
X85357000Y-97851000I0J100000D01*
G01*
X85357000Y-96576000D01*
G75*
G02*
X85457000Y-96476000I100000J0D01*
G01*
G37*
G36*
G01*
X84807000Y-96476000D02*
X85007000Y-96476000D01*
G75*
G02*
X85107000Y-96576000I0J-100000D01*
G01*
X85107000Y-97851000D01*
G75*
G02*
X85007000Y-97951000I-100000J0D01*
G01*
X84807000Y-97951000D01*
G75*
G02*
X84707000Y-97851000I0J100000D01*
G01*
X84707000Y-96576000D01*
G75*
G02*
X84807000Y-96476000I100000J0D01*
G01*
G37*
G36*
G01*
X84157000Y-96476000D02*
X84357000Y-96476000D01*
G75*
G02*
X84457000Y-96576000I0J-100000D01*
G01*
X84457000Y-97851000D01*
G75*
G02*
X84357000Y-97951000I-100000J0D01*
G01*
X84157000Y-97951000D01*
G75*
G02*
X84057000Y-97851000I0J100000D01*
G01*
X84057000Y-96576000D01*
G75*
G02*
X84157000Y-96476000I100000J0D01*
G01*
G37*
G36*
G01*
X83507000Y-96476000D02*
X83707000Y-96476000D01*
G75*
G02*
X83807000Y-96576000I0J-100000D01*
G01*
X83807000Y-97851000D01*
G75*
G02*
X83707000Y-97951000I-100000J0D01*
G01*
X83507000Y-97951000D01*
G75*
G02*
X83407000Y-97851000I0J100000D01*
G01*
X83407000Y-96576000D01*
G75*
G02*
X83507000Y-96476000I100000J0D01*
G01*
G37*
G36*
G01*
X82857000Y-96476000D02*
X83057000Y-96476000D01*
G75*
G02*
X83157000Y-96576000I0J-100000D01*
G01*
X83157000Y-97851000D01*
G75*
G02*
X83057000Y-97951000I-100000J0D01*
G01*
X82857000Y-97951000D01*
G75*
G02*
X82757000Y-97851000I0J100000D01*
G01*
X82757000Y-96576000D01*
G75*
G02*
X82857000Y-96476000I100000J0D01*
G01*
G37*
G36*
G01*
X82207000Y-96476000D02*
X82407000Y-96476000D01*
G75*
G02*
X82507000Y-96576000I0J-100000D01*
G01*
X82507000Y-97851000D01*
G75*
G02*
X82407000Y-97951000I-100000J0D01*
G01*
X82207000Y-97951000D01*
G75*
G02*
X82107000Y-97851000I0J100000D01*
G01*
X82107000Y-96576000D01*
G75*
G02*
X82207000Y-96476000I100000J0D01*
G01*
G37*
G36*
G01*
X81557000Y-96476000D02*
X81757000Y-96476000D01*
G75*
G02*
X81857000Y-96576000I0J-100000D01*
G01*
X81857000Y-97851000D01*
G75*
G02*
X81757000Y-97951000I-100000J0D01*
G01*
X81557000Y-97951000D01*
G75*
G02*
X81457000Y-97851000I0J100000D01*
G01*
X81457000Y-96576000D01*
G75*
G02*
X81557000Y-96476000I100000J0D01*
G01*
G37*
D10*
X13975000Y-75057000D03*
X15875000Y-75057000D03*
X14925000Y-77057000D03*
D12*
X55438000Y-108498000D03*
X56388000Y-108498000D03*
X57338000Y-108498000D03*
X57338000Y-105878000D03*
X56388000Y-105878000D03*
X55438000Y-105878000D03*
D13*
X49022000Y-23636000D03*
X49022000Y-19036000D03*
X49022000Y-21336000D03*
D14*
X55322000Y-21336000D03*
G36*
G01*
X25040000Y-54502000D02*
X24490000Y-54502000D01*
G75*
G02*
X24290000Y-54302000I0J200000D01*
G01*
X24290000Y-53902000D01*
G75*
G02*
X24490000Y-53702000I200000J0D01*
G01*
X25040000Y-53702000D01*
G75*
G02*
X25240000Y-53902000I0J-200000D01*
G01*
X25240000Y-54302000D01*
G75*
G02*
X25040000Y-54502000I-200000J0D01*
G01*
G37*
G36*
G01*
X25040000Y-56152000D02*
X24490000Y-56152000D01*
G75*
G02*
X24290000Y-55952000I0J200000D01*
G01*
X24290000Y-55552000D01*
G75*
G02*
X24490000Y-55352000I200000J0D01*
G01*
X25040000Y-55352000D01*
G75*
G02*
X25240000Y-55552000I0J-200000D01*
G01*
X25240000Y-55952000D01*
G75*
G02*
X25040000Y-56152000I-200000J0D01*
G01*
G37*
G36*
G01*
X30586000Y-55289000D02*
X31136000Y-55289000D01*
G75*
G02*
X31336000Y-55489000I0J-200000D01*
G01*
X31336000Y-55889000D01*
G75*
G02*
X31136000Y-56089000I-200000J0D01*
G01*
X30586000Y-56089000D01*
G75*
G02*
X30386000Y-55889000I0J200000D01*
G01*
X30386000Y-55489000D01*
G75*
G02*
X30586000Y-55289000I200000J0D01*
G01*
G37*
G36*
G01*
X30586000Y-53639000D02*
X31136000Y-53639000D01*
G75*
G02*
X31336000Y-53839000I0J-200000D01*
G01*
X31336000Y-54239000D01*
G75*
G02*
X31136000Y-54439000I-200000J0D01*
G01*
X30586000Y-54439000D01*
G75*
G02*
X30386000Y-54239000I0J200000D01*
G01*
X30386000Y-53839000D01*
G75*
G02*
X30586000Y-53639000I200000J0D01*
G01*
G37*
G36*
G01*
X27538000Y-55352000D02*
X28088000Y-55352000D01*
G75*
G02*
X28288000Y-55552000I0J-200000D01*
G01*
X28288000Y-55952000D01*
G75*
G02*
X28088000Y-56152000I-200000J0D01*
G01*
X27538000Y-56152000D01*
G75*
G02*
X27338000Y-55952000I0J200000D01*
G01*
X27338000Y-55552000D01*
G75*
G02*
X27538000Y-55352000I200000J0D01*
G01*
G37*
G36*
G01*
X27538000Y-53702000D02*
X28088000Y-53702000D01*
G75*
G02*
X28288000Y-53902000I0J-200000D01*
G01*
X28288000Y-54302000D01*
G75*
G02*
X28088000Y-54502000I-200000J0D01*
G01*
X27538000Y-54502000D01*
G75*
G02*
X27338000Y-54302000I0J200000D01*
G01*
X27338000Y-53902000D01*
G75*
G02*
X27538000Y-53702000I200000J0D01*
G01*
G37*
G36*
G01*
X32618000Y-41319000D02*
X33168000Y-41319000D01*
G75*
G02*
X33368000Y-41519000I0J-200000D01*
G01*
X33368000Y-41919000D01*
G75*
G02*
X33168000Y-42119000I-200000J0D01*
G01*
X32618000Y-42119000D01*
G75*
G02*
X32418000Y-41919000I0J200000D01*
G01*
X32418000Y-41519000D01*
G75*
G02*
X32618000Y-41319000I200000J0D01*
G01*
G37*
G36*
G01*
X32618000Y-39669000D02*
X33168000Y-39669000D01*
G75*
G02*
X33368000Y-39869000I0J-200000D01*
G01*
X33368000Y-40269000D01*
G75*
G02*
X33168000Y-40469000I-200000J0D01*
G01*
X32618000Y-40469000D01*
G75*
G02*
X32418000Y-40269000I0J200000D01*
G01*
X32418000Y-39869000D01*
G75*
G02*
X32618000Y-39669000I200000J0D01*
G01*
G37*
G36*
G01*
X35666000Y-41319000D02*
X36216000Y-41319000D01*
G75*
G02*
X36416000Y-41519000I0J-200000D01*
G01*
X36416000Y-41919000D01*
G75*
G02*
X36216000Y-42119000I-200000J0D01*
G01*
X35666000Y-42119000D01*
G75*
G02*
X35466000Y-41919000I0J200000D01*
G01*
X35466000Y-41519000D01*
G75*
G02*
X35666000Y-41319000I200000J0D01*
G01*
G37*
G36*
G01*
X35666000Y-39669000D02*
X36216000Y-39669000D01*
G75*
G02*
X36416000Y-39869000I0J-200000D01*
G01*
X36416000Y-40269000D01*
G75*
G02*
X36216000Y-40469000I-200000J0D01*
G01*
X35666000Y-40469000D01*
G75*
G02*
X35466000Y-40269000I0J200000D01*
G01*
X35466000Y-39869000D01*
G75*
G02*
X35666000Y-39669000I200000J0D01*
G01*
G37*
G36*
G01*
X23474000Y-41256000D02*
X24024000Y-41256000D01*
G75*
G02*
X24224000Y-41456000I0J-200000D01*
G01*
X24224000Y-41856000D01*
G75*
G02*
X24024000Y-42056000I-200000J0D01*
G01*
X23474000Y-42056000D01*
G75*
G02*
X23274000Y-41856000I0J200000D01*
G01*
X23274000Y-41456000D01*
G75*
G02*
X23474000Y-41256000I200000J0D01*
G01*
G37*
G36*
G01*
X23474000Y-39606000D02*
X24024000Y-39606000D01*
G75*
G02*
X24224000Y-39806000I0J-200000D01*
G01*
X24224000Y-40206000D01*
G75*
G02*
X24024000Y-40406000I-200000J0D01*
G01*
X23474000Y-40406000D01*
G75*
G02*
X23274000Y-40206000I0J200000D01*
G01*
X23274000Y-39806000D01*
G75*
G02*
X23474000Y-39606000I200000J0D01*
G01*
G37*
G36*
G01*
X30120000Y-40469000D02*
X29570000Y-40469000D01*
G75*
G02*
X29370000Y-40269000I0J200000D01*
G01*
X29370000Y-39869000D01*
G75*
G02*
X29570000Y-39669000I200000J0D01*
G01*
X30120000Y-39669000D01*
G75*
G02*
X30320000Y-39869000I0J-200000D01*
G01*
X30320000Y-40269000D01*
G75*
G02*
X30120000Y-40469000I-200000J0D01*
G01*
G37*
G36*
G01*
X30120000Y-42119000D02*
X29570000Y-42119000D01*
G75*
G02*
X29370000Y-41919000I0J200000D01*
G01*
X29370000Y-41519000D01*
G75*
G02*
X29570000Y-41319000I200000J0D01*
G01*
X30120000Y-41319000D01*
G75*
G02*
X30320000Y-41519000I0J-200000D01*
G01*
X30320000Y-41919000D01*
G75*
G02*
X30120000Y-42119000I-200000J0D01*
G01*
G37*
G36*
G01*
X27072000Y-40469000D02*
X26522000Y-40469000D01*
G75*
G02*
X26322000Y-40269000I0J200000D01*
G01*
X26322000Y-39869000D01*
G75*
G02*
X26522000Y-39669000I200000J0D01*
G01*
X27072000Y-39669000D01*
G75*
G02*
X27272000Y-39869000I0J-200000D01*
G01*
X27272000Y-40269000D01*
G75*
G02*
X27072000Y-40469000I-200000J0D01*
G01*
G37*
G36*
G01*
X27072000Y-42119000D02*
X26522000Y-42119000D01*
G75*
G02*
X26322000Y-41919000I0J200000D01*
G01*
X26322000Y-41519000D01*
G75*
G02*
X26522000Y-41319000I200000J0D01*
G01*
X27072000Y-41319000D01*
G75*
G02*
X27272000Y-41519000I0J-200000D01*
G01*
X27272000Y-41919000D01*
G75*
G02*
X27072000Y-42119000I-200000J0D01*
G01*
G37*
G36*
G01*
X75713000Y-92222000D02*
X75163000Y-92222000D01*
G75*
G02*
X74963000Y-92022000I0J200000D01*
G01*
X74963000Y-91622000D01*
G75*
G02*
X75163000Y-91422000I200000J0D01*
G01*
X75713000Y-91422000D01*
G75*
G02*
X75913000Y-91622000I0J-200000D01*
G01*
X75913000Y-92022000D01*
G75*
G02*
X75713000Y-92222000I-200000J0D01*
G01*
G37*
G36*
G01*
X75713000Y-93872000D02*
X75163000Y-93872000D01*
G75*
G02*
X74963000Y-93672000I0J200000D01*
G01*
X74963000Y-93272000D01*
G75*
G02*
X75163000Y-93072000I200000J0D01*
G01*
X75713000Y-93072000D01*
G75*
G02*
X75913000Y-93272000I0J-200000D01*
G01*
X75913000Y-93672000D01*
G75*
G02*
X75713000Y-93872000I-200000J0D01*
G01*
G37*
G36*
G01*
X52853000Y-67837000D02*
X52303000Y-67837000D01*
G75*
G02*
X52103000Y-67637000I0J200000D01*
G01*
X52103000Y-67237000D01*
G75*
G02*
X52303000Y-67037000I200000J0D01*
G01*
X52853000Y-67037000D01*
G75*
G02*
X53053000Y-67237000I0J-200000D01*
G01*
X53053000Y-67637000D01*
G75*
G02*
X52853000Y-67837000I-200000J0D01*
G01*
G37*
G36*
G01*
X52853000Y-69487000D02*
X52303000Y-69487000D01*
G75*
G02*
X52103000Y-69287000I0J200000D01*
G01*
X52103000Y-68887000D01*
G75*
G02*
X52303000Y-68687000I200000J0D01*
G01*
X52853000Y-68687000D01*
G75*
G02*
X53053000Y-68887000I0J-200000D01*
G01*
X53053000Y-69287000D01*
G75*
G02*
X52853000Y-69487000I-200000J0D01*
G01*
G37*
G36*
G01*
X52303000Y-54336000D02*
X52853000Y-54336000D01*
G75*
G02*
X53053000Y-54536000I0J-200000D01*
G01*
X53053000Y-54936000D01*
G75*
G02*
X52853000Y-55136000I-200000J0D01*
G01*
X52303000Y-55136000D01*
G75*
G02*
X52103000Y-54936000I0J200000D01*
G01*
X52103000Y-54536000D01*
G75*
G02*
X52303000Y-54336000I200000J0D01*
G01*
G37*
G36*
G01*
X52303000Y-52686000D02*
X52853000Y-52686000D01*
G75*
G02*
X53053000Y-52886000I0J-200000D01*
G01*
X53053000Y-53286000D01*
G75*
G02*
X52853000Y-53486000I-200000J0D01*
G01*
X52303000Y-53486000D01*
G75*
G02*
X52103000Y-53286000I0J200000D01*
G01*
X52103000Y-52886000D01*
G75*
G02*
X52303000Y-52686000I200000J0D01*
G01*
G37*
G36*
G01*
X52303000Y-73132000D02*
X52853000Y-73132000D01*
G75*
G02*
X53053000Y-73332000I0J-200000D01*
G01*
X53053000Y-73732000D01*
G75*
G02*
X52853000Y-73932000I-200000J0D01*
G01*
X52303000Y-73932000D01*
G75*
G02*
X52103000Y-73732000I0J200000D01*
G01*
X52103000Y-73332000D01*
G75*
G02*
X52303000Y-73132000I200000J0D01*
G01*
G37*
G36*
G01*
X52303000Y-71482000D02*
X52853000Y-71482000D01*
G75*
G02*
X53053000Y-71682000I0J-200000D01*
G01*
X53053000Y-72082000D01*
G75*
G02*
X52853000Y-72282000I-200000J0D01*
G01*
X52303000Y-72282000D01*
G75*
G02*
X52103000Y-72082000I0J200000D01*
G01*
X52103000Y-71682000D01*
G75*
G02*
X52303000Y-71482000I200000J0D01*
G01*
G37*
G36*
G01*
X61701000Y-73132000D02*
X62251000Y-73132000D01*
G75*
G02*
X62451000Y-73332000I0J-200000D01*
G01*
X62451000Y-73732000D01*
G75*
G02*
X62251000Y-73932000I-200000J0D01*
G01*
X61701000Y-73932000D01*
G75*
G02*
X61501000Y-73732000I0J200000D01*
G01*
X61501000Y-73332000D01*
G75*
G02*
X61701000Y-73132000I200000J0D01*
G01*
G37*
G36*
G01*
X61701000Y-71482000D02*
X62251000Y-71482000D01*
G75*
G02*
X62451000Y-71682000I0J-200000D01*
G01*
X62451000Y-72082000D01*
G75*
G02*
X62251000Y-72282000I-200000J0D01*
G01*
X61701000Y-72282000D01*
G75*
G02*
X61501000Y-72082000I0J200000D01*
G01*
X61501000Y-71682000D01*
G75*
G02*
X61701000Y-71482000I200000J0D01*
G01*
G37*
G36*
G01*
X58653000Y-73132000D02*
X59203000Y-73132000D01*
G75*
G02*
X59403000Y-73332000I0J-200000D01*
G01*
X59403000Y-73732000D01*
G75*
G02*
X59203000Y-73932000I-200000J0D01*
G01*
X58653000Y-73932000D01*
G75*
G02*
X58453000Y-73732000I0J200000D01*
G01*
X58453000Y-73332000D01*
G75*
G02*
X58653000Y-73132000I200000J0D01*
G01*
G37*
G36*
G01*
X58653000Y-71482000D02*
X59203000Y-71482000D01*
G75*
G02*
X59403000Y-71682000I0J-200000D01*
G01*
X59403000Y-72082000D01*
G75*
G02*
X59203000Y-72282000I-200000J0D01*
G01*
X58653000Y-72282000D01*
G75*
G02*
X58453000Y-72082000I0J200000D01*
G01*
X58453000Y-71682000D01*
G75*
G02*
X58653000Y-71482000I200000J0D01*
G01*
G37*
G36*
G01*
X49255000Y-73132000D02*
X49805000Y-73132000D01*
G75*
G02*
X50005000Y-73332000I0J-200000D01*
G01*
X50005000Y-73732000D01*
G75*
G02*
X49805000Y-73932000I-200000J0D01*
G01*
X49255000Y-73932000D01*
G75*
G02*
X49055000Y-73732000I0J200000D01*
G01*
X49055000Y-73332000D01*
G75*
G02*
X49255000Y-73132000I200000J0D01*
G01*
G37*
G36*
G01*
X49255000Y-71482000D02*
X49805000Y-71482000D01*
G75*
G02*
X50005000Y-71682000I0J-200000D01*
G01*
X50005000Y-72082000D01*
G75*
G02*
X49805000Y-72282000I-200000J0D01*
G01*
X49255000Y-72282000D01*
G75*
G02*
X49055000Y-72082000I0J200000D01*
G01*
X49055000Y-71682000D01*
G75*
G02*
X49255000Y-71482000I200000J0D01*
G01*
G37*
G36*
G01*
X56155000Y-53487000D02*
X55605000Y-53487000D01*
G75*
G02*
X55405000Y-53287000I0J200000D01*
G01*
X55405000Y-52887000D01*
G75*
G02*
X55605000Y-52687000I200000J0D01*
G01*
X56155000Y-52687000D01*
G75*
G02*
X56355000Y-52887000I0J-200000D01*
G01*
X56355000Y-53287000D01*
G75*
G02*
X56155000Y-53487000I-200000J0D01*
G01*
G37*
G36*
G01*
X56155000Y-55137000D02*
X55605000Y-55137000D01*
G75*
G02*
X55405000Y-54937000I0J200000D01*
G01*
X55405000Y-54537000D01*
G75*
G02*
X55605000Y-54337000I200000J0D01*
G01*
X56155000Y-54337000D01*
G75*
G02*
X56355000Y-54537000I0J-200000D01*
G01*
X56355000Y-54937000D01*
G75*
G02*
X56155000Y-55137000I-200000J0D01*
G01*
G37*
G36*
G01*
X59203000Y-53486000D02*
X58653000Y-53486000D01*
G75*
G02*
X58453000Y-53286000I0J200000D01*
G01*
X58453000Y-52886000D01*
G75*
G02*
X58653000Y-52686000I200000J0D01*
G01*
X59203000Y-52686000D01*
G75*
G02*
X59403000Y-52886000I0J-200000D01*
G01*
X59403000Y-53286000D01*
G75*
G02*
X59203000Y-53486000I-200000J0D01*
G01*
G37*
G36*
G01*
X59203000Y-55136000D02*
X58653000Y-55136000D01*
G75*
G02*
X58453000Y-54936000I0J200000D01*
G01*
X58453000Y-54536000D01*
G75*
G02*
X58653000Y-54336000I200000J0D01*
G01*
X59203000Y-54336000D01*
G75*
G02*
X59403000Y-54536000I0J-200000D01*
G01*
X59403000Y-54936000D01*
G75*
G02*
X59203000Y-55136000I-200000J0D01*
G01*
G37*
G36*
G01*
X52853000Y-49042000D02*
X52303000Y-49042000D01*
G75*
G02*
X52103000Y-48842000I0J200000D01*
G01*
X52103000Y-48442000D01*
G75*
G02*
X52303000Y-48242000I200000J0D01*
G01*
X52853000Y-48242000D01*
G75*
G02*
X53053000Y-48442000I0J-200000D01*
G01*
X53053000Y-48842000D01*
G75*
G02*
X52853000Y-49042000I-200000J0D01*
G01*
G37*
G36*
G01*
X52853000Y-50692000D02*
X52303000Y-50692000D01*
G75*
G02*
X52103000Y-50492000I0J200000D01*
G01*
X52103000Y-50092000D01*
G75*
G02*
X52303000Y-49892000I200000J0D01*
G01*
X52853000Y-49892000D01*
G75*
G02*
X53053000Y-50092000I0J-200000D01*
G01*
X53053000Y-50492000D01*
G75*
G02*
X52853000Y-50692000I-200000J0D01*
G01*
G37*
G36*
G01*
X59203000Y-49042000D02*
X58653000Y-49042000D01*
G75*
G02*
X58453000Y-48842000I0J200000D01*
G01*
X58453000Y-48442000D01*
G75*
G02*
X58653000Y-48242000I200000J0D01*
G01*
X59203000Y-48242000D01*
G75*
G02*
X59403000Y-48442000I0J-200000D01*
G01*
X59403000Y-48842000D01*
G75*
G02*
X59203000Y-49042000I-200000J0D01*
G01*
G37*
G36*
G01*
X59203000Y-50692000D02*
X58653000Y-50692000D01*
G75*
G02*
X58453000Y-50492000I0J200000D01*
G01*
X58453000Y-50092000D01*
G75*
G02*
X58653000Y-49892000I200000J0D01*
G01*
X59203000Y-49892000D01*
G75*
G02*
X59403000Y-50092000I0J-200000D01*
G01*
X59403000Y-50492000D01*
G75*
G02*
X59203000Y-50692000I-200000J0D01*
G01*
G37*
G36*
G01*
X56155000Y-49168000D02*
X55605000Y-49168000D01*
G75*
G02*
X55405000Y-48968000I0J200000D01*
G01*
X55405000Y-48568000D01*
G75*
G02*
X55605000Y-48368000I200000J0D01*
G01*
X56155000Y-48368000D01*
G75*
G02*
X56355000Y-48568000I0J-200000D01*
G01*
X56355000Y-48968000D01*
G75*
G02*
X56155000Y-49168000I-200000J0D01*
G01*
G37*
G36*
G01*
X56155000Y-50818000D02*
X55605000Y-50818000D01*
G75*
G02*
X55405000Y-50618000I0J200000D01*
G01*
X55405000Y-50218000D01*
G75*
G02*
X55605000Y-50018000I200000J0D01*
G01*
X56155000Y-50018000D01*
G75*
G02*
X56355000Y-50218000I0J-200000D01*
G01*
X56355000Y-50618000D01*
G75*
G02*
X56155000Y-50818000I-200000J0D01*
G01*
G37*
G36*
G01*
X49805000Y-49042000D02*
X49255000Y-49042000D01*
G75*
G02*
X49055000Y-48842000I0J200000D01*
G01*
X49055000Y-48442000D01*
G75*
G02*
X49255000Y-48242000I200000J0D01*
G01*
X49805000Y-48242000D01*
G75*
G02*
X50005000Y-48442000I0J-200000D01*
G01*
X50005000Y-48842000D01*
G75*
G02*
X49805000Y-49042000I-200000J0D01*
G01*
G37*
G36*
G01*
X49805000Y-50692000D02*
X49255000Y-50692000D01*
G75*
G02*
X49055000Y-50492000I0J200000D01*
G01*
X49055000Y-50092000D01*
G75*
G02*
X49255000Y-49892000I200000J0D01*
G01*
X49805000Y-49892000D01*
G75*
G02*
X50005000Y-50092000I0J-200000D01*
G01*
X50005000Y-50492000D01*
G75*
G02*
X49805000Y-50692000I-200000J0D01*
G01*
G37*
G36*
G01*
X61701000Y-59417000D02*
X62251000Y-59417000D01*
G75*
G02*
X62451000Y-59617000I0J-200000D01*
G01*
X62451000Y-60017000D01*
G75*
G02*
X62251000Y-60217000I-200000J0D01*
G01*
X61701000Y-60217000D01*
G75*
G02*
X61501000Y-60017000I0J200000D01*
G01*
X61501000Y-59617000D01*
G75*
G02*
X61701000Y-59417000I200000J0D01*
G01*
G37*
G36*
G01*
X61701000Y-57767000D02*
X62251000Y-57767000D01*
G75*
G02*
X62451000Y-57967000I0J-200000D01*
G01*
X62451000Y-58367000D01*
G75*
G02*
X62251000Y-58567000I-200000J0D01*
G01*
X61701000Y-58567000D01*
G75*
G02*
X61501000Y-58367000I0J200000D01*
G01*
X61501000Y-57967000D01*
G75*
G02*
X61701000Y-57767000I200000J0D01*
G01*
G37*
G36*
G01*
X61701000Y-64242000D02*
X62251000Y-64242000D01*
G75*
G02*
X62451000Y-64442000I0J-200000D01*
G01*
X62451000Y-64842000D01*
G75*
G02*
X62251000Y-65042000I-200000J0D01*
G01*
X61701000Y-65042000D01*
G75*
G02*
X61501000Y-64842000I0J200000D01*
G01*
X61501000Y-64442000D01*
G75*
G02*
X61701000Y-64242000I200000J0D01*
G01*
G37*
G36*
G01*
X61701000Y-62592000D02*
X62251000Y-62592000D01*
G75*
G02*
X62451000Y-62792000I0J-200000D01*
G01*
X62451000Y-63192000D01*
G75*
G02*
X62251000Y-63392000I-200000J0D01*
G01*
X61701000Y-63392000D01*
G75*
G02*
X61501000Y-63192000I0J200000D01*
G01*
X61501000Y-62792000D01*
G75*
G02*
X61701000Y-62592000I200000J0D01*
G01*
G37*
G36*
G01*
X15092000Y-38080000D02*
X15642000Y-38080000D01*
G75*
G02*
X15842000Y-38280000I0J-200000D01*
G01*
X15842000Y-38680000D01*
G75*
G02*
X15642000Y-38880000I-200000J0D01*
G01*
X15092000Y-38880000D01*
G75*
G02*
X14892000Y-38680000I0J200000D01*
G01*
X14892000Y-38280000D01*
G75*
G02*
X15092000Y-38080000I200000J0D01*
G01*
G37*
G36*
G01*
X15092000Y-36430000D02*
X15642000Y-36430000D01*
G75*
G02*
X15842000Y-36630000I0J-200000D01*
G01*
X15842000Y-37030000D01*
G75*
G02*
X15642000Y-37230000I-200000J0D01*
G01*
X15092000Y-37230000D01*
G75*
G02*
X14892000Y-37030000I0J200000D01*
G01*
X14892000Y-36630000D01*
G75*
G02*
X15092000Y-36430000I200000J0D01*
G01*
G37*
G36*
G01*
X26522000Y-37572000D02*
X27072000Y-37572000D01*
G75*
G02*
X27272000Y-37772000I0J-200000D01*
G01*
X27272000Y-38172000D01*
G75*
G02*
X27072000Y-38372000I-200000J0D01*
G01*
X26522000Y-38372000D01*
G75*
G02*
X26322000Y-38172000I0J200000D01*
G01*
X26322000Y-37772000D01*
G75*
G02*
X26522000Y-37572000I200000J0D01*
G01*
G37*
G36*
G01*
X26522000Y-35922000D02*
X27072000Y-35922000D01*
G75*
G02*
X27272000Y-36122000I0J-200000D01*
G01*
X27272000Y-36522000D01*
G75*
G02*
X27072000Y-36722000I-200000J0D01*
G01*
X26522000Y-36722000D01*
G75*
G02*
X26322000Y-36522000I0J200000D01*
G01*
X26322000Y-36122000D01*
G75*
G02*
X26522000Y-35922000I200000J0D01*
G01*
G37*
G36*
G01*
X87355000Y-55225000D02*
X87905000Y-55225000D01*
G75*
G02*
X88105000Y-55425000I0J-200000D01*
G01*
X88105000Y-55825000D01*
G75*
G02*
X87905000Y-56025000I-200000J0D01*
G01*
X87355000Y-56025000D01*
G75*
G02*
X87155000Y-55825000I0J200000D01*
G01*
X87155000Y-55425000D01*
G75*
G02*
X87355000Y-55225000I200000J0D01*
G01*
G37*
G36*
G01*
X87355000Y-53575000D02*
X87905000Y-53575000D01*
G75*
G02*
X88105000Y-53775000I0J-200000D01*
G01*
X88105000Y-54175000D01*
G75*
G02*
X87905000Y-54375000I-200000J0D01*
G01*
X87355000Y-54375000D01*
G75*
G02*
X87155000Y-54175000I0J200000D01*
G01*
X87155000Y-53775000D01*
G75*
G02*
X87355000Y-53575000I200000J0D01*
G01*
G37*
G36*
G01*
X91080000Y-56025000D02*
X90530000Y-56025000D01*
G75*
G02*
X90330000Y-55825000I0J200000D01*
G01*
X90330000Y-55425000D01*
G75*
G02*
X90530000Y-55225000I200000J0D01*
G01*
X91080000Y-55225000D01*
G75*
G02*
X91280000Y-55425000I0J-200000D01*
G01*
X91280000Y-55825000D01*
G75*
G02*
X91080000Y-56025000I-200000J0D01*
G01*
G37*
G36*
G01*
X91080000Y-54375000D02*
X90530000Y-54375000D01*
G75*
G02*
X90330000Y-54175000I0J200000D01*
G01*
X90330000Y-53775000D01*
G75*
G02*
X90530000Y-53575000I200000J0D01*
G01*
X91080000Y-53575000D01*
G75*
G02*
X91280000Y-53775000I0J-200000D01*
G01*
X91280000Y-54175000D01*
G75*
G02*
X91080000Y-54375000I-200000J0D01*
G01*
G37*
G36*
G01*
X104923000Y-101873000D02*
X104373000Y-101873000D01*
G75*
G02*
X104173000Y-101673000I0J200000D01*
G01*
X104173000Y-101273000D01*
G75*
G02*
X104373000Y-101073000I200000J0D01*
G01*
X104923000Y-101073000D01*
G75*
G02*
X105123000Y-101273000I0J-200000D01*
G01*
X105123000Y-101673000D01*
G75*
G02*
X104923000Y-101873000I-200000J0D01*
G01*
G37*
G36*
G01*
X104923000Y-103523000D02*
X104373000Y-103523000D01*
G75*
G02*
X104173000Y-103323000I0J200000D01*
G01*
X104173000Y-102923000D01*
G75*
G02*
X104373000Y-102723000I200000J0D01*
G01*
X104923000Y-102723000D01*
G75*
G02*
X105123000Y-102923000I0J-200000D01*
G01*
X105123000Y-103323000D01*
G75*
G02*
X104923000Y-103523000I-200000J0D01*
G01*
G37*
G36*
G01*
X39518000Y-101492000D02*
X38968000Y-101492000D01*
G75*
G02*
X38768000Y-101292000I0J200000D01*
G01*
X38768000Y-100892000D01*
G75*
G02*
X38968000Y-100692000I200000J0D01*
G01*
X39518000Y-100692000D01*
G75*
G02*
X39718000Y-100892000I0J-200000D01*
G01*
X39718000Y-101292000D01*
G75*
G02*
X39518000Y-101492000I-200000J0D01*
G01*
G37*
G36*
G01*
X39518000Y-103142000D02*
X38968000Y-103142000D01*
G75*
G02*
X38768000Y-102942000I0J200000D01*
G01*
X38768000Y-102542000D01*
G75*
G02*
X38968000Y-102342000I200000J0D01*
G01*
X39518000Y-102342000D01*
G75*
G02*
X39718000Y-102542000I0J-200000D01*
G01*
X39718000Y-102942000D01*
G75*
G02*
X39518000Y-103142000I-200000J0D01*
G01*
G37*
G36*
G01*
X72750000Y-28175000D02*
X73300000Y-28175000D01*
G75*
G02*
X73500000Y-28375000I0J-200000D01*
G01*
X73500000Y-28775000D01*
G75*
G02*
X73300000Y-28975000I-200000J0D01*
G01*
X72750000Y-28975000D01*
G75*
G02*
X72550000Y-28775000I0J200000D01*
G01*
X72550000Y-28375000D01*
G75*
G02*
X72750000Y-28175000I200000J0D01*
G01*
G37*
G36*
G01*
X72750000Y-26525000D02*
X73300000Y-26525000D01*
G75*
G02*
X73500000Y-26725000I0J-200000D01*
G01*
X73500000Y-27125000D01*
G75*
G02*
X73300000Y-27325000I-200000J0D01*
G01*
X72750000Y-27325000D01*
G75*
G02*
X72550000Y-27125000I0J200000D01*
G01*
X72550000Y-26725000D01*
G75*
G02*
X72750000Y-26525000I200000J0D01*
G01*
G37*
G36*
G01*
X120629000Y-29572000D02*
X121179000Y-29572000D01*
G75*
G02*
X121379000Y-29772000I0J-200000D01*
G01*
X121379000Y-30172000D01*
G75*
G02*
X121179000Y-30372000I-200000J0D01*
G01*
X120629000Y-30372000D01*
G75*
G02*
X120429000Y-30172000I0J200000D01*
G01*
X120429000Y-29772000D01*
G75*
G02*
X120629000Y-29572000I200000J0D01*
G01*
G37*
G36*
G01*
X120629000Y-27922000D02*
X121179000Y-27922000D01*
G75*
G02*
X121379000Y-28122000I0J-200000D01*
G01*
X121379000Y-28522000D01*
G75*
G02*
X121179000Y-28722000I-200000J0D01*
G01*
X120629000Y-28722000D01*
G75*
G02*
X120429000Y-28522000I0J200000D01*
G01*
X120429000Y-28122000D01*
G75*
G02*
X120629000Y-27922000I200000J0D01*
G01*
G37*
G36*
G01*
X87270000Y-33166000D02*
X86720000Y-33166000D01*
G75*
G02*
X86520000Y-32966000I0J200000D01*
G01*
X86520000Y-32566000D01*
G75*
G02*
X86720000Y-32366000I200000J0D01*
G01*
X87270000Y-32366000D01*
G75*
G02*
X87470000Y-32566000I0J-200000D01*
G01*
X87470000Y-32966000D01*
G75*
G02*
X87270000Y-33166000I-200000J0D01*
G01*
G37*
G36*
G01*
X87270000Y-34816000D02*
X86720000Y-34816000D01*
G75*
G02*
X86520000Y-34616000I0J200000D01*
G01*
X86520000Y-34216000D01*
G75*
G02*
X86720000Y-34016000I200000J0D01*
G01*
X87270000Y-34016000D01*
G75*
G02*
X87470000Y-34216000I0J-200000D01*
G01*
X87470000Y-34616000D01*
G75*
G02*
X87270000Y-34816000I-200000J0D01*
G01*
G37*
G36*
G01*
X110850000Y-33635000D02*
X111400000Y-33635000D01*
G75*
G02*
X111600000Y-33835000I0J-200000D01*
G01*
X111600000Y-34235000D01*
G75*
G02*
X111400000Y-34435000I-200000J0D01*
G01*
X110850000Y-34435000D01*
G75*
G02*
X110650000Y-34235000I0J200000D01*
G01*
X110650000Y-33835000D01*
G75*
G02*
X110850000Y-33635000I200000J0D01*
G01*
G37*
G36*
G01*
X110850000Y-31985000D02*
X111400000Y-31985000D01*
G75*
G02*
X111600000Y-32185000I0J-200000D01*
G01*
X111600000Y-32585000D01*
G75*
G02*
X111400000Y-32785000I-200000J0D01*
G01*
X110850000Y-32785000D01*
G75*
G02*
X110650000Y-32585000I0J200000D01*
G01*
X110650000Y-32185000D01*
G75*
G02*
X110850000Y-31985000I200000J0D01*
G01*
G37*
G36*
G01*
X87355000Y-59925000D02*
X87905000Y-59925000D01*
G75*
G02*
X88105000Y-60125000I0J-200000D01*
G01*
X88105000Y-60525000D01*
G75*
G02*
X87905000Y-60725000I-200000J0D01*
G01*
X87355000Y-60725000D01*
G75*
G02*
X87155000Y-60525000I0J200000D01*
G01*
X87155000Y-60125000D01*
G75*
G02*
X87355000Y-59925000I200000J0D01*
G01*
G37*
G36*
G01*
X87355000Y-58275000D02*
X87905000Y-58275000D01*
G75*
G02*
X88105000Y-58475000I0J-200000D01*
G01*
X88105000Y-58875000D01*
G75*
G02*
X87905000Y-59075000I-200000J0D01*
G01*
X87355000Y-59075000D01*
G75*
G02*
X87155000Y-58875000I0J200000D01*
G01*
X87155000Y-58475000D01*
G75*
G02*
X87355000Y-58275000I200000J0D01*
G01*
G37*
G36*
G01*
X63479000Y-106280000D02*
X64029000Y-106280000D01*
G75*
G02*
X64229000Y-106480000I0J-200000D01*
G01*
X64229000Y-106880000D01*
G75*
G02*
X64029000Y-107080000I-200000J0D01*
G01*
X63479000Y-107080000D01*
G75*
G02*
X63279000Y-106880000I0J200000D01*
G01*
X63279000Y-106480000D01*
G75*
G02*
X63479000Y-106280000I200000J0D01*
G01*
G37*
G36*
G01*
X63479000Y-104630000D02*
X64029000Y-104630000D01*
G75*
G02*
X64229000Y-104830000I0J-200000D01*
G01*
X64229000Y-105230000D01*
G75*
G02*
X64029000Y-105430000I-200000J0D01*
G01*
X63479000Y-105430000D01*
G75*
G02*
X63279000Y-105230000I0J200000D01*
G01*
X63279000Y-104830000D01*
G75*
G02*
X63479000Y-104630000I200000J0D01*
G01*
G37*
G36*
G01*
X60981000Y-105430000D02*
X60431000Y-105430000D01*
G75*
G02*
X60231000Y-105230000I0J200000D01*
G01*
X60231000Y-104830000D01*
G75*
G02*
X60431000Y-104630000I200000J0D01*
G01*
X60981000Y-104630000D01*
G75*
G02*
X61181000Y-104830000I0J-200000D01*
G01*
X61181000Y-105230000D01*
G75*
G02*
X60981000Y-105430000I-200000J0D01*
G01*
G37*
G36*
G01*
X60981000Y-107080000D02*
X60431000Y-107080000D01*
G75*
G02*
X60231000Y-106880000I0J200000D01*
G01*
X60231000Y-106480000D01*
G75*
G02*
X60431000Y-106280000I200000J0D01*
G01*
X60981000Y-106280000D01*
G75*
G02*
X61181000Y-106480000I0J-200000D01*
G01*
X61181000Y-106880000D01*
G75*
G02*
X60981000Y-107080000I-200000J0D01*
G01*
G37*
G36*
G01*
X84730000Y-59075000D02*
X84180000Y-59075000D01*
G75*
G02*
X83980000Y-58875000I0J200000D01*
G01*
X83980000Y-58475000D01*
G75*
G02*
X84180000Y-58275000I200000J0D01*
G01*
X84730000Y-58275000D01*
G75*
G02*
X84930000Y-58475000I0J-200000D01*
G01*
X84930000Y-58875000D01*
G75*
G02*
X84730000Y-59075000I-200000J0D01*
G01*
G37*
G36*
G01*
X84730000Y-60725000D02*
X84180000Y-60725000D01*
G75*
G02*
X83980000Y-60525000I0J200000D01*
G01*
X83980000Y-60125000D01*
G75*
G02*
X84180000Y-59925000I200000J0D01*
G01*
X84730000Y-59925000D01*
G75*
G02*
X84930000Y-60125000I0J-200000D01*
G01*
X84930000Y-60525000D01*
G75*
G02*
X84730000Y-60725000I-200000J0D01*
G01*
G37*
G36*
G01*
X54631000Y-100096000D02*
X54081000Y-100096000D01*
G75*
G02*
X53881000Y-99896000I0J200000D01*
G01*
X53881000Y-99496000D01*
G75*
G02*
X54081000Y-99296000I200000J0D01*
G01*
X54631000Y-99296000D01*
G75*
G02*
X54831000Y-99496000I0J-200000D01*
G01*
X54831000Y-99896000D01*
G75*
G02*
X54631000Y-100096000I-200000J0D01*
G01*
G37*
G36*
G01*
X54631000Y-101746000D02*
X54081000Y-101746000D01*
G75*
G02*
X53881000Y-101546000I0J200000D01*
G01*
X53881000Y-101146000D01*
G75*
G02*
X54081000Y-100946000I200000J0D01*
G01*
X54631000Y-100946000D01*
G75*
G02*
X54831000Y-101146000I0J-200000D01*
G01*
X54831000Y-101546000D01*
G75*
G02*
X54631000Y-101746000I-200000J0D01*
G01*
G37*
G36*
G01*
X47519000Y-95142000D02*
X46969000Y-95142000D01*
G75*
G02*
X46769000Y-94942000I0J200000D01*
G01*
X46769000Y-94542000D01*
G75*
G02*
X46969000Y-94342000I200000J0D01*
G01*
X47519000Y-94342000D01*
G75*
G02*
X47719000Y-94542000I0J-200000D01*
G01*
X47719000Y-94942000D01*
G75*
G02*
X47519000Y-95142000I-200000J0D01*
G01*
G37*
G36*
G01*
X47519000Y-96792000D02*
X46969000Y-96792000D01*
G75*
G02*
X46769000Y-96592000I0J200000D01*
G01*
X46769000Y-96192000D01*
G75*
G02*
X46969000Y-95992000I200000J0D01*
G01*
X47519000Y-95992000D01*
G75*
G02*
X47719000Y-96192000I0J-200000D01*
G01*
X47719000Y-96592000D01*
G75*
G02*
X47519000Y-96792000I-200000J0D01*
G01*
G37*
G36*
G01*
X19960000Y-75267000D02*
X19410000Y-75267000D01*
G75*
G02*
X19210000Y-75067000I0J200000D01*
G01*
X19210000Y-74667000D01*
G75*
G02*
X19410000Y-74467000I200000J0D01*
G01*
X19960000Y-74467000D01*
G75*
G02*
X20160000Y-74667000I0J-200000D01*
G01*
X20160000Y-75067000D01*
G75*
G02*
X19960000Y-75267000I-200000J0D01*
G01*
G37*
G36*
G01*
X19960000Y-76917000D02*
X19410000Y-76917000D01*
G75*
G02*
X19210000Y-76717000I0J200000D01*
G01*
X19210000Y-76317000D01*
G75*
G02*
X19410000Y-76117000I200000J0D01*
G01*
X19960000Y-76117000D01*
G75*
G02*
X20160000Y-76317000I0J-200000D01*
G01*
X20160000Y-76717000D01*
G75*
G02*
X19960000Y-76917000I-200000J0D01*
G01*
G37*
G36*
G01*
X87270000Y-29039000D02*
X86720000Y-29039000D01*
G75*
G02*
X86520000Y-28839000I0J200000D01*
G01*
X86520000Y-28439000D01*
G75*
G02*
X86720000Y-28239000I200000J0D01*
G01*
X87270000Y-28239000D01*
G75*
G02*
X87470000Y-28439000I0J-200000D01*
G01*
X87470000Y-28839000D01*
G75*
G02*
X87270000Y-29039000I-200000J0D01*
G01*
G37*
G36*
G01*
X87270000Y-30689000D02*
X86720000Y-30689000D01*
G75*
G02*
X86520000Y-30489000I0J200000D01*
G01*
X86520000Y-30089000D01*
G75*
G02*
X86720000Y-29889000I200000J0D01*
G01*
X87270000Y-29889000D01*
G75*
G02*
X87470000Y-30089000I0J-200000D01*
G01*
X87470000Y-30489000D01*
G75*
G02*
X87270000Y-30689000I-200000J0D01*
G01*
G37*
G36*
G01*
X96160000Y-28976000D02*
X95610000Y-28976000D01*
G75*
G02*
X95410000Y-28776000I0J200000D01*
G01*
X95410000Y-28376000D01*
G75*
G02*
X95610000Y-28176000I200000J0D01*
G01*
X96160000Y-28176000D01*
G75*
G02*
X96360000Y-28376000I0J-200000D01*
G01*
X96360000Y-28776000D01*
G75*
G02*
X96160000Y-28976000I-200000J0D01*
G01*
G37*
G36*
G01*
X96160000Y-30626000D02*
X95610000Y-30626000D01*
G75*
G02*
X95410000Y-30426000I0J200000D01*
G01*
X95410000Y-30026000D01*
G75*
G02*
X95610000Y-29826000I200000J0D01*
G01*
X96160000Y-29826000D01*
G75*
G02*
X96360000Y-30026000I0J-200000D01*
G01*
X96360000Y-30426000D01*
G75*
G02*
X96160000Y-30626000I-200000J0D01*
G01*
G37*
G36*
G01*
X125370000Y-28595000D02*
X124820000Y-28595000D01*
G75*
G02*
X124620000Y-28395000I0J200000D01*
G01*
X124620000Y-27995000D01*
G75*
G02*
X124820000Y-27795000I200000J0D01*
G01*
X125370000Y-27795000D01*
G75*
G02*
X125570000Y-27995000I0J-200000D01*
G01*
X125570000Y-28395000D01*
G75*
G02*
X125370000Y-28595000I-200000J0D01*
G01*
G37*
G36*
G01*
X125370000Y-30245000D02*
X124820000Y-30245000D01*
G75*
G02*
X124620000Y-30045000I0J200000D01*
G01*
X124620000Y-29645000D01*
G75*
G02*
X124820000Y-29445000I200000J0D01*
G01*
X125370000Y-29445000D01*
G75*
G02*
X125570000Y-29645000I0J-200000D01*
G01*
X125570000Y-30045000D01*
G75*
G02*
X125370000Y-30245000I-200000J0D01*
G01*
G37*
G36*
G01*
X132990000Y-28595000D02*
X132440000Y-28595000D01*
G75*
G02*
X132240000Y-28395000I0J200000D01*
G01*
X132240000Y-27995000D01*
G75*
G02*
X132440000Y-27795000I200000J0D01*
G01*
X132990000Y-27795000D01*
G75*
G02*
X133190000Y-27995000I0J-200000D01*
G01*
X133190000Y-28395000D01*
G75*
G02*
X132990000Y-28595000I-200000J0D01*
G01*
G37*
G36*
G01*
X132990000Y-30245000D02*
X132440000Y-30245000D01*
G75*
G02*
X132240000Y-30045000I0J200000D01*
G01*
X132240000Y-29645000D01*
G75*
G02*
X132440000Y-29445000I200000J0D01*
G01*
X132990000Y-29445000D01*
G75*
G02*
X133190000Y-29645000I0J-200000D01*
G01*
X133190000Y-30045000D01*
G75*
G02*
X132990000Y-30245000I-200000J0D01*
G01*
G37*
D15*
X48216000Y-105664000D03*
X51816000Y-105664000D03*
G36*
G01*
X19303750Y-71537500D02*
X20066250Y-71537500D01*
G75*
G02*
X20285000Y-71756250I0J-218750D01*
G01*
X20285000Y-72193750D01*
G75*
G02*
X20066250Y-72412500I-218750J0D01*
G01*
X19303750Y-72412500D01*
G75*
G02*
X19085000Y-72193750I0J218750D01*
G01*
X19085000Y-71756250D01*
G75*
G02*
X19303750Y-71537500I218750J0D01*
G01*
G37*
G36*
G01*
X19303750Y-69412500D02*
X20066250Y-69412500D01*
G75*
G02*
X20285000Y-69631250I0J-218750D01*
G01*
X20285000Y-70068750D01*
G75*
G02*
X20066250Y-70287500I-218750J0D01*
G01*
X19303750Y-70287500D01*
G75*
G02*
X19085000Y-70068750I0J218750D01*
G01*
X19085000Y-69631250D01*
G75*
G02*
X19303750Y-69412500I218750J0D01*
G01*
G37*
G36*
G01*
X46608750Y-112177500D02*
X47371250Y-112177500D01*
G75*
G02*
X47590000Y-112396250I0J-218750D01*
G01*
X47590000Y-112833750D01*
G75*
G02*
X47371250Y-113052500I-218750J0D01*
G01*
X46608750Y-113052500D01*
G75*
G02*
X46390000Y-112833750I0J218750D01*
G01*
X46390000Y-112396250D01*
G75*
G02*
X46608750Y-112177500I218750J0D01*
G01*
G37*
G36*
G01*
X46608750Y-110052500D02*
X47371250Y-110052500D01*
G75*
G02*
X47590000Y-110271250I0J-218750D01*
G01*
X47590000Y-110708750D01*
G75*
G02*
X47371250Y-110927500I-218750J0D01*
G01*
X46608750Y-110927500D01*
G75*
G02*
X46390000Y-110708750I0J218750D01*
G01*
X46390000Y-110271250D01*
G75*
G02*
X46608750Y-110052500I218750J0D01*
G01*
G37*
G36*
G01*
X72263250Y-92292500D02*
X71500750Y-92292500D01*
G75*
G02*
X71282000Y-92073750I0J218750D01*
G01*
X71282000Y-91636250D01*
G75*
G02*
X71500750Y-91417500I218750J0D01*
G01*
X72263250Y-91417500D01*
G75*
G02*
X72482000Y-91636250I0J-218750D01*
G01*
X72482000Y-92073750D01*
G75*
G02*
X72263250Y-92292500I-218750J0D01*
G01*
G37*
G36*
G01*
X72263250Y-94417500D02*
X71500750Y-94417500D01*
G75*
G02*
X71282000Y-94198750I0J218750D01*
G01*
X71282000Y-93761250D01*
G75*
G02*
X71500750Y-93542500I218750J0D01*
G01*
X72263250Y-93542500D01*
G75*
G02*
X72482000Y-93761250I0J-218750D01*
G01*
X72482000Y-94198750D01*
G75*
G02*
X72263250Y-94417500I-218750J0D01*
G01*
G37*
G36*
G01*
X50235500Y-16891250D02*
X50235500Y-16128750D01*
G75*
G02*
X50454250Y-15910000I218750J0D01*
G01*
X50891750Y-15910000D01*
G75*
G02*
X51110500Y-16128750I0J-218750D01*
G01*
X51110500Y-16891250D01*
G75*
G02*
X50891750Y-17110000I-218750J0D01*
G01*
X50454250Y-17110000D01*
G75*
G02*
X50235500Y-16891250I0J218750D01*
G01*
G37*
G36*
G01*
X48110500Y-16891250D02*
X48110500Y-16128750D01*
G75*
G02*
X48329250Y-15910000I218750J0D01*
G01*
X48766750Y-15910000D01*
G75*
G02*
X48985500Y-16128750I0J-218750D01*
G01*
X48985500Y-16891250D01*
G75*
G02*
X48766750Y-17110000I-218750J0D01*
G01*
X48329250Y-17110000D01*
G75*
G02*
X48110500Y-16891250I0J218750D01*
G01*
G37*
D16*
X53346000Y-92710000D03*
X50546000Y-92710000D03*
X57652000Y-98298000D03*
X60452000Y-98298000D03*
X60452000Y-101854000D03*
X57652000Y-101854000D03*
X50540000Y-96266000D03*
X53340000Y-96266000D03*
D17*
X60325000Y-14226000D03*
X60325000Y-17526000D03*
G36*
G01*
X33688000Y-55314000D02*
X34638000Y-55314000D01*
G75*
G02*
X34888000Y-55564000I0J-250000D01*
G01*
X34888000Y-56064000D01*
G75*
G02*
X34638000Y-56314000I-250000J0D01*
G01*
X33688000Y-56314000D01*
G75*
G02*
X33438000Y-56064000I0J250000D01*
G01*
X33438000Y-55564000D01*
G75*
G02*
X33688000Y-55314000I250000J0D01*
G01*
G37*
G36*
G01*
X33688000Y-53414000D02*
X34638000Y-53414000D01*
G75*
G02*
X34888000Y-53664000I0J-250000D01*
G01*
X34888000Y-54164000D01*
G75*
G02*
X34638000Y-54414000I-250000J0D01*
G01*
X33688000Y-54414000D01*
G75*
G02*
X33438000Y-54164000I0J250000D01*
G01*
X33438000Y-53664000D01*
G75*
G02*
X33688000Y-53414000I250000J0D01*
G01*
G37*
G36*
G01*
X83660000Y-108450000D02*
X82710000Y-108450000D01*
G75*
G02*
X82460000Y-108200000I0J250000D01*
G01*
X82460000Y-107700000D01*
G75*
G02*
X82710000Y-107450000I250000J0D01*
G01*
X83660000Y-107450000D01*
G75*
G02*
X83910000Y-107700000I0J-250000D01*
G01*
X83910000Y-108200000D01*
G75*
G02*
X83660000Y-108450000I-250000J0D01*
G01*
G37*
G36*
G01*
X83660000Y-110350000D02*
X82710000Y-110350000D01*
G75*
G02*
X82460000Y-110100000I0J250000D01*
G01*
X82460000Y-109600000D01*
G75*
G02*
X82710000Y-109350000I250000J0D01*
G01*
X83660000Y-109350000D01*
G75*
G02*
X83910000Y-109600000I0J-250000D01*
G01*
X83910000Y-110100000D01*
G75*
G02*
X83660000Y-110350000I-250000J0D01*
G01*
G37*
G36*
G01*
X80104000Y-108450000D02*
X79154000Y-108450000D01*
G75*
G02*
X78904000Y-108200000I0J250000D01*
G01*
X78904000Y-107700000D01*
G75*
G02*
X79154000Y-107450000I250000J0D01*
G01*
X80104000Y-107450000D01*
G75*
G02*
X80354000Y-107700000I0J-250000D01*
G01*
X80354000Y-108200000D01*
G75*
G02*
X80104000Y-108450000I-250000J0D01*
G01*
G37*
G36*
G01*
X80104000Y-110350000D02*
X79154000Y-110350000D01*
G75*
G02*
X78904000Y-110100000I0J250000D01*
G01*
X78904000Y-109600000D01*
G75*
G02*
X79154000Y-109350000I250000J0D01*
G01*
X80104000Y-109350000D01*
G75*
G02*
X80354000Y-109600000I0J-250000D01*
G01*
X80354000Y-110100000D01*
G75*
G02*
X80104000Y-110350000I-250000J0D01*
G01*
G37*
G36*
G01*
X78990000Y-92372000D02*
X78490000Y-92372000D01*
G75*
G02*
X78265000Y-92147000I0J225000D01*
G01*
X78265000Y-91697000D01*
G75*
G02*
X78490000Y-91472000I225000J0D01*
G01*
X78990000Y-91472000D01*
G75*
G02*
X79215000Y-91697000I0J-225000D01*
G01*
X79215000Y-92147000D01*
G75*
G02*
X78990000Y-92372000I-225000J0D01*
G01*
G37*
G36*
G01*
X78990000Y-93922000D02*
X78490000Y-93922000D01*
G75*
G02*
X78265000Y-93697000I0J225000D01*
G01*
X78265000Y-93247000D01*
G75*
G02*
X78490000Y-93022000I225000J0D01*
G01*
X78990000Y-93022000D01*
G75*
G02*
X79215000Y-93247000I0J-225000D01*
G01*
X79215000Y-93697000D01*
G75*
G02*
X78990000Y-93922000I-225000J0D01*
G01*
G37*
G36*
G01*
X86237000Y-109050000D02*
X86737000Y-109050000D01*
G75*
G02*
X86962000Y-109275000I0J-225000D01*
G01*
X86962000Y-109725000D01*
G75*
G02*
X86737000Y-109950000I-225000J0D01*
G01*
X86237000Y-109950000D01*
G75*
G02*
X86012000Y-109725000I0J225000D01*
G01*
X86012000Y-109275000D01*
G75*
G02*
X86237000Y-109050000I225000J0D01*
G01*
G37*
G36*
G01*
X86237000Y-107500000D02*
X86737000Y-107500000D01*
G75*
G02*
X86962000Y-107725000I0J-225000D01*
G01*
X86962000Y-108175000D01*
G75*
G02*
X86737000Y-108400000I-225000J0D01*
G01*
X86237000Y-108400000D01*
G75*
G02*
X86012000Y-108175000I0J225000D01*
G01*
X86012000Y-107725000D01*
G75*
G02*
X86237000Y-107500000I225000J0D01*
G01*
G37*
G36*
G01*
X94992000Y-92398000D02*
X94492000Y-92398000D01*
G75*
G02*
X94267000Y-92173000I0J225000D01*
G01*
X94267000Y-91723000D01*
G75*
G02*
X94492000Y-91498000I225000J0D01*
G01*
X94992000Y-91498000D01*
G75*
G02*
X95217000Y-91723000I0J-225000D01*
G01*
X95217000Y-92173000D01*
G75*
G02*
X94992000Y-92398000I-225000J0D01*
G01*
G37*
G36*
G01*
X94992000Y-93948000D02*
X94492000Y-93948000D01*
G75*
G02*
X94267000Y-93723000I0J225000D01*
G01*
X94267000Y-93273000D01*
G75*
G02*
X94492000Y-93048000I225000J0D01*
G01*
X94992000Y-93048000D01*
G75*
G02*
X95217000Y-93273000I0J-225000D01*
G01*
X95217000Y-93723000D01*
G75*
G02*
X94992000Y-93948000I-225000J0D01*
G01*
G37*
G36*
G01*
X91944000Y-92372000D02*
X91444000Y-92372000D01*
G75*
G02*
X91219000Y-92147000I0J225000D01*
G01*
X91219000Y-91697000D01*
G75*
G02*
X91444000Y-91472000I225000J0D01*
G01*
X91944000Y-91472000D01*
G75*
G02*
X92169000Y-91697000I0J-225000D01*
G01*
X92169000Y-92147000D01*
G75*
G02*
X91944000Y-92372000I-225000J0D01*
G01*
G37*
G36*
G01*
X91944000Y-93922000D02*
X91444000Y-93922000D01*
G75*
G02*
X91219000Y-93697000I0J225000D01*
G01*
X91219000Y-93247000D01*
G75*
G02*
X91444000Y-93022000I225000J0D01*
G01*
X91944000Y-93022000D01*
G75*
G02*
X92169000Y-93247000I0J-225000D01*
G01*
X92169000Y-93697000D01*
G75*
G02*
X91944000Y-93922000I-225000J0D01*
G01*
G37*
G36*
G01*
X88896000Y-92372000D02*
X88396000Y-92372000D01*
G75*
G02*
X88171000Y-92147000I0J225000D01*
G01*
X88171000Y-91697000D01*
G75*
G02*
X88396000Y-91472000I225000J0D01*
G01*
X88896000Y-91472000D01*
G75*
G02*
X89121000Y-91697000I0J-225000D01*
G01*
X89121000Y-92147000D01*
G75*
G02*
X88896000Y-92372000I-225000J0D01*
G01*
G37*
G36*
G01*
X88896000Y-93922000D02*
X88396000Y-93922000D01*
G75*
G02*
X88171000Y-93697000I0J225000D01*
G01*
X88171000Y-93247000D01*
G75*
G02*
X88396000Y-93022000I225000J0D01*
G01*
X88896000Y-93022000D01*
G75*
G02*
X89121000Y-93247000I0J-225000D01*
G01*
X89121000Y-93697000D01*
G75*
G02*
X88896000Y-93922000I-225000J0D01*
G01*
G37*
G36*
G01*
X85594000Y-92372000D02*
X85094000Y-92372000D01*
G75*
G02*
X84869000Y-92147000I0J225000D01*
G01*
X84869000Y-91697000D01*
G75*
G02*
X85094000Y-91472000I225000J0D01*
G01*
X85594000Y-91472000D01*
G75*
G02*
X85819000Y-91697000I0J-225000D01*
G01*
X85819000Y-92147000D01*
G75*
G02*
X85594000Y-92372000I-225000J0D01*
G01*
G37*
G36*
G01*
X85594000Y-93922000D02*
X85094000Y-93922000D01*
G75*
G02*
X84869000Y-93697000I0J225000D01*
G01*
X84869000Y-93247000D01*
G75*
G02*
X85094000Y-93022000I225000J0D01*
G01*
X85594000Y-93022000D01*
G75*
G02*
X85819000Y-93247000I0J-225000D01*
G01*
X85819000Y-93697000D01*
G75*
G02*
X85594000Y-93922000I-225000J0D01*
G01*
G37*
G36*
G01*
X82292000Y-92372000D02*
X81792000Y-92372000D01*
G75*
G02*
X81567000Y-92147000I0J225000D01*
G01*
X81567000Y-91697000D01*
G75*
G02*
X81792000Y-91472000I225000J0D01*
G01*
X82292000Y-91472000D01*
G75*
G02*
X82517000Y-91697000I0J-225000D01*
G01*
X82517000Y-92147000D01*
G75*
G02*
X82292000Y-92372000I-225000J0D01*
G01*
G37*
G36*
G01*
X82292000Y-93922000D02*
X81792000Y-93922000D01*
G75*
G02*
X81567000Y-93697000I0J225000D01*
G01*
X81567000Y-93247000D01*
G75*
G02*
X81792000Y-93022000I225000J0D01*
G01*
X82292000Y-93022000D01*
G75*
G02*
X82517000Y-93247000I0J-225000D01*
G01*
X82517000Y-93697000D01*
G75*
G02*
X82292000Y-93922000I-225000J0D01*
G01*
G37*
G36*
G01*
X49780000Y-67887000D02*
X49280000Y-67887000D01*
G75*
G02*
X49055000Y-67662000I0J225000D01*
G01*
X49055000Y-67212000D01*
G75*
G02*
X49280000Y-66987000I225000J0D01*
G01*
X49780000Y-66987000D01*
G75*
G02*
X50005000Y-67212000I0J-225000D01*
G01*
X50005000Y-67662000D01*
G75*
G02*
X49780000Y-67887000I-225000J0D01*
G01*
G37*
G36*
G01*
X49780000Y-69437000D02*
X49280000Y-69437000D01*
G75*
G02*
X49055000Y-69212000I0J225000D01*
G01*
X49055000Y-68762000D01*
G75*
G02*
X49280000Y-68537000I225000J0D01*
G01*
X49780000Y-68537000D01*
G75*
G02*
X50005000Y-68762000I0J-225000D01*
G01*
X50005000Y-69212000D01*
G75*
G02*
X49780000Y-69437000I-225000J0D01*
G01*
G37*
G36*
G01*
X49280000Y-54287000D02*
X49780000Y-54287000D01*
G75*
G02*
X50005000Y-54512000I0J-225000D01*
G01*
X50005000Y-54962000D01*
G75*
G02*
X49780000Y-55187000I-225000J0D01*
G01*
X49280000Y-55187000D01*
G75*
G02*
X49055000Y-54962000I0J225000D01*
G01*
X49055000Y-54512000D01*
G75*
G02*
X49280000Y-54287000I225000J0D01*
G01*
G37*
G36*
G01*
X49280000Y-52737000D02*
X49780000Y-52737000D01*
G75*
G02*
X50005000Y-52962000I0J-225000D01*
G01*
X50005000Y-53412000D01*
G75*
G02*
X49780000Y-53637000I-225000J0D01*
G01*
X49280000Y-53637000D01*
G75*
G02*
X49055000Y-53412000I0J225000D01*
G01*
X49055000Y-52962000D01*
G75*
G02*
X49280000Y-52737000I225000J0D01*
G01*
G37*
G36*
G01*
X58678000Y-59393000D02*
X59178000Y-59393000D01*
G75*
G02*
X59403000Y-59618000I0J-225000D01*
G01*
X59403000Y-60068000D01*
G75*
G02*
X59178000Y-60293000I-225000J0D01*
G01*
X58678000Y-60293000D01*
G75*
G02*
X58453000Y-60068000I0J225000D01*
G01*
X58453000Y-59618000D01*
G75*
G02*
X58678000Y-59393000I225000J0D01*
G01*
G37*
G36*
G01*
X58678000Y-57843000D02*
X59178000Y-57843000D01*
G75*
G02*
X59403000Y-58068000I0J-225000D01*
G01*
X59403000Y-58518000D01*
G75*
G02*
X59178000Y-58743000I-225000J0D01*
G01*
X58678000Y-58743000D01*
G75*
G02*
X58453000Y-58518000I0J225000D01*
G01*
X58453000Y-58068000D01*
G75*
G02*
X58678000Y-57843000I225000J0D01*
G01*
G37*
G36*
G01*
X84205000Y-55075000D02*
X84705000Y-55075000D01*
G75*
G02*
X84930000Y-55300000I0J-225000D01*
G01*
X84930000Y-55750000D01*
G75*
G02*
X84705000Y-55975000I-225000J0D01*
G01*
X84205000Y-55975000D01*
G75*
G02*
X83980000Y-55750000I0J225000D01*
G01*
X83980000Y-55300000D01*
G75*
G02*
X84205000Y-55075000I225000J0D01*
G01*
G37*
G36*
G01*
X84205000Y-53525000D02*
X84705000Y-53525000D01*
G75*
G02*
X84930000Y-53750000I0J-225000D01*
G01*
X84930000Y-54200000D01*
G75*
G02*
X84705000Y-54425000I-225000J0D01*
G01*
X84205000Y-54425000D01*
G75*
G02*
X83980000Y-54200000I0J225000D01*
G01*
X83980000Y-53750000D01*
G75*
G02*
X84205000Y-53525000I225000J0D01*
G01*
G37*
G36*
G01*
X61689000Y-94358000D02*
X60739000Y-94358000D01*
G75*
G02*
X60489000Y-94108000I0J250000D01*
G01*
X60489000Y-93608000D01*
G75*
G02*
X60739000Y-93358000I250000J0D01*
G01*
X61689000Y-93358000D01*
G75*
G02*
X61939000Y-93608000I0J-250000D01*
G01*
X61939000Y-94108000D01*
G75*
G02*
X61689000Y-94358000I-250000J0D01*
G01*
G37*
G36*
G01*
X61689000Y-96258000D02*
X60739000Y-96258000D01*
G75*
G02*
X60489000Y-96008000I0J250000D01*
G01*
X60489000Y-95508000D01*
G75*
G02*
X60739000Y-95258000I250000J0D01*
G01*
X61689000Y-95258000D01*
G75*
G02*
X61939000Y-95508000I0J-250000D01*
G01*
X61939000Y-96008000D01*
G75*
G02*
X61689000Y-96258000I-250000J0D01*
G01*
G37*
G36*
G01*
X90555000Y-59875000D02*
X91055000Y-59875000D01*
G75*
G02*
X91280000Y-60100000I0J-225000D01*
G01*
X91280000Y-60550000D01*
G75*
G02*
X91055000Y-60775000I-225000J0D01*
G01*
X90555000Y-60775000D01*
G75*
G02*
X90330000Y-60550000I0J225000D01*
G01*
X90330000Y-60100000D01*
G75*
G02*
X90555000Y-59875000I225000J0D01*
G01*
G37*
G36*
G01*
X90555000Y-58325000D02*
X91055000Y-58325000D01*
G75*
G02*
X91280000Y-58550000I0J-225000D01*
G01*
X91280000Y-59000000D01*
G75*
G02*
X91055000Y-59225000I-225000J0D01*
G01*
X90555000Y-59225000D01*
G75*
G02*
X90330000Y-59000000I0J225000D01*
G01*
X90330000Y-58550000D01*
G75*
G02*
X90555000Y-58325000I225000J0D01*
G01*
G37*
G36*
G01*
X61689000Y-90294000D02*
X60739000Y-90294000D01*
G75*
G02*
X60489000Y-90044000I0J250000D01*
G01*
X60489000Y-89544000D01*
G75*
G02*
X60739000Y-89294000I250000J0D01*
G01*
X61689000Y-89294000D01*
G75*
G02*
X61939000Y-89544000I0J-250000D01*
G01*
X61939000Y-90044000D01*
G75*
G02*
X61689000Y-90294000I-250000J0D01*
G01*
G37*
G36*
G01*
X61689000Y-92194000D02*
X60739000Y-92194000D01*
G75*
G02*
X60489000Y-91944000I0J250000D01*
G01*
X60489000Y-91444000D01*
G75*
G02*
X60739000Y-91194000I250000J0D01*
G01*
X61689000Y-91194000D01*
G75*
G02*
X61939000Y-91444000I0J-250000D01*
G01*
X61939000Y-91944000D01*
G75*
G02*
X61689000Y-92194000I-250000J0D01*
G01*
G37*
G36*
G01*
X50579000Y-100846000D02*
X51529000Y-100846000D01*
G75*
G02*
X51779000Y-101096000I0J-250000D01*
G01*
X51779000Y-101596000D01*
G75*
G02*
X51529000Y-101846000I-250000J0D01*
G01*
X50579000Y-101846000D01*
G75*
G02*
X50329000Y-101596000I0J250000D01*
G01*
X50329000Y-101096000D01*
G75*
G02*
X50579000Y-100846000I250000J0D01*
G01*
G37*
G36*
G01*
X50579000Y-98946000D02*
X51529000Y-98946000D01*
G75*
G02*
X51779000Y-99196000I0J-250000D01*
G01*
X51779000Y-99696000D01*
G75*
G02*
X51529000Y-99946000I-250000J0D01*
G01*
X50579000Y-99946000D01*
G75*
G02*
X50329000Y-99696000I0J250000D01*
G01*
X50329000Y-99196000D01*
G75*
G02*
X50579000Y-98946000I250000J0D01*
G01*
G37*
G36*
G01*
X15171000Y-72640000D02*
X15171000Y-72140000D01*
G75*
G02*
X15396000Y-71915000I225000J0D01*
G01*
X15846000Y-71915000D01*
G75*
G02*
X16071000Y-72140000I0J-225000D01*
G01*
X16071000Y-72640000D01*
G75*
G02*
X15846000Y-72865000I-225000J0D01*
G01*
X15396000Y-72865000D01*
G75*
G02*
X15171000Y-72640000I0J225000D01*
G01*
G37*
G36*
G01*
X13621000Y-72640000D02*
X13621000Y-72140000D01*
G75*
G02*
X13846000Y-71915000I225000J0D01*
G01*
X14296000Y-71915000D01*
G75*
G02*
X14521000Y-72140000I0J-225000D01*
G01*
X14521000Y-72640000D01*
G75*
G02*
X14296000Y-72865000I-225000J0D01*
G01*
X13846000Y-72865000D01*
G75*
G02*
X13621000Y-72640000I0J225000D01*
G01*
G37*
G36*
G01*
X47719000Y-99946000D02*
X46769000Y-99946000D01*
G75*
G02*
X46519000Y-99696000I0J250000D01*
G01*
X46519000Y-99196000D01*
G75*
G02*
X46769000Y-98946000I250000J0D01*
G01*
X47719000Y-98946000D01*
G75*
G02*
X47969000Y-99196000I0J-250000D01*
G01*
X47969000Y-99696000D01*
G75*
G02*
X47719000Y-99946000I-250000J0D01*
G01*
G37*
G36*
G01*
X47719000Y-101846000D02*
X46769000Y-101846000D01*
G75*
G02*
X46519000Y-101596000I0J250000D01*
G01*
X46519000Y-101096000D01*
G75*
G02*
X46769000Y-100846000I250000J0D01*
G01*
X47719000Y-100846000D01*
G75*
G02*
X47969000Y-101096000I0J-250000D01*
G01*
X47969000Y-101596000D01*
G75*
G02*
X47719000Y-101846000I-250000J0D01*
G01*
G37*
G36*
G01*
X15070000Y-69465000D02*
X15070000Y-68965000D01*
G75*
G02*
X15295000Y-68740000I225000J0D01*
G01*
X15745000Y-68740000D01*
G75*
G02*
X15970000Y-68965000I0J-225000D01*
G01*
X15970000Y-69465000D01*
G75*
G02*
X15745000Y-69690000I-225000J0D01*
G01*
X15295000Y-69690000D01*
G75*
G02*
X15070000Y-69465000I0J225000D01*
G01*
G37*
G36*
G01*
X13520000Y-69465000D02*
X13520000Y-68965000D01*
G75*
G02*
X13745000Y-68740000I225000J0D01*
G01*
X14195000Y-68740000D01*
G75*
G02*
X14420000Y-68965000I0J-225000D01*
G01*
X14420000Y-69465000D01*
G75*
G02*
X14195000Y-69690000I-225000J0D01*
G01*
X13745000Y-69690000D01*
G75*
G02*
X13520000Y-69465000I0J225000D01*
G01*
G37*
G36*
G01*
X56138000Y-111844000D02*
X56638000Y-111844000D01*
G75*
G02*
X56863000Y-112069000I0J-225000D01*
G01*
X56863000Y-112519000D01*
G75*
G02*
X56638000Y-112744000I-225000J0D01*
G01*
X56138000Y-112744000D01*
G75*
G02*
X55913000Y-112519000I0J225000D01*
G01*
X55913000Y-112069000D01*
G75*
G02*
X56138000Y-111844000I225000J0D01*
G01*
G37*
G36*
G01*
X56138000Y-110294000D02*
X56638000Y-110294000D01*
G75*
G02*
X56863000Y-110519000I0J-225000D01*
G01*
X56863000Y-110969000D01*
G75*
G02*
X56638000Y-111194000I-225000J0D01*
G01*
X56138000Y-111194000D01*
G75*
G02*
X55913000Y-110969000I0J225000D01*
G01*
X55913000Y-110519000D01*
G75*
G02*
X56138000Y-110294000I225000J0D01*
G01*
G37*
G36*
G01*
X50960000Y-111890000D02*
X51910000Y-111890000D01*
G75*
G02*
X52160000Y-112140000I0J-250000D01*
G01*
X52160000Y-112640000D01*
G75*
G02*
X51910000Y-112890000I-250000J0D01*
G01*
X50960000Y-112890000D01*
G75*
G02*
X50710000Y-112640000I0J250000D01*
G01*
X50710000Y-112140000D01*
G75*
G02*
X50960000Y-111890000I250000J0D01*
G01*
G37*
G36*
G01*
X50960000Y-109990000D02*
X51910000Y-109990000D01*
G75*
G02*
X52160000Y-110240000I0J-250000D01*
G01*
X52160000Y-110740000D01*
G75*
G02*
X51910000Y-110990000I-250000J0D01*
G01*
X50960000Y-110990000D01*
G75*
G02*
X50710000Y-110740000I0J250000D01*
G01*
X50710000Y-110240000D01*
G75*
G02*
X50960000Y-109990000I250000J0D01*
G01*
G37*
G36*
G01*
X78236000Y-100668000D02*
X78736000Y-100668000D01*
G75*
G02*
X78961000Y-100893000I0J-225000D01*
G01*
X78961000Y-101343000D01*
G75*
G02*
X78736000Y-101568000I-225000J0D01*
G01*
X78236000Y-101568000D01*
G75*
G02*
X78011000Y-101343000I0J225000D01*
G01*
X78011000Y-100893000D01*
G75*
G02*
X78236000Y-100668000I225000J0D01*
G01*
G37*
G36*
G01*
X78236000Y-99118000D02*
X78736000Y-99118000D01*
G75*
G02*
X78961000Y-99343000I0J-225000D01*
G01*
X78961000Y-99793000D01*
G75*
G02*
X78736000Y-100018000I-225000J0D01*
G01*
X78236000Y-100018000D01*
G75*
G02*
X78011000Y-99793000I0J225000D01*
G01*
X78011000Y-99343000D01*
G75*
G02*
X78236000Y-99118000I225000J0D01*
G01*
G37*
G36*
G01*
X74328000Y-100460000D02*
X75278000Y-100460000D01*
G75*
G02*
X75528000Y-100710000I0J-250000D01*
G01*
X75528000Y-101210000D01*
G75*
G02*
X75278000Y-101460000I-250000J0D01*
G01*
X74328000Y-101460000D01*
G75*
G02*
X74078000Y-101210000I0J250000D01*
G01*
X74078000Y-100710000D01*
G75*
G02*
X74328000Y-100460000I250000J0D01*
G01*
G37*
G36*
G01*
X74328000Y-98560000D02*
X75278000Y-98560000D01*
G75*
G02*
X75528000Y-98810000I0J-250000D01*
G01*
X75528000Y-99310000D01*
G75*
G02*
X75278000Y-99560000I-250000J0D01*
G01*
X74328000Y-99560000D01*
G75*
G02*
X74078000Y-99310000I0J250000D01*
G01*
X74078000Y-98810000D01*
G75*
G02*
X74328000Y-98560000I250000J0D01*
G01*
G37*
G36*
G01*
X44610000Y-23498000D02*
X45560000Y-23498000D01*
G75*
G02*
X45810000Y-23748000I0J-250000D01*
G01*
X45810000Y-24248000D01*
G75*
G02*
X45560000Y-24498000I-250000J0D01*
G01*
X44610000Y-24498000D01*
G75*
G02*
X44360000Y-24248000I0J250000D01*
G01*
X44360000Y-23748000D01*
G75*
G02*
X44610000Y-23498000I250000J0D01*
G01*
G37*
G36*
G01*
X44610000Y-21598000D02*
X45560000Y-21598000D01*
G75*
G02*
X45810000Y-21848000I0J-250000D01*
G01*
X45810000Y-22348000D01*
G75*
G02*
X45560000Y-22598000I-250000J0D01*
G01*
X44610000Y-22598000D01*
G75*
G02*
X44360000Y-22348000I0J250000D01*
G01*
X44360000Y-21848000D01*
G75*
G02*
X44610000Y-21598000I250000J0D01*
G01*
G37*
G36*
G01*
X93349000Y-98128000D02*
X93849000Y-98128000D01*
G75*
G02*
X94074000Y-98353000I0J-225000D01*
G01*
X94074000Y-98803000D01*
G75*
G02*
X93849000Y-99028000I-225000J0D01*
G01*
X93349000Y-99028000D01*
G75*
G02*
X93124000Y-98803000I0J225000D01*
G01*
X93124000Y-98353000D01*
G75*
G02*
X93349000Y-98128000I225000J0D01*
G01*
G37*
G36*
G01*
X93349000Y-96578000D02*
X93849000Y-96578000D01*
G75*
G02*
X94074000Y-96803000I0J-225000D01*
G01*
X94074000Y-97253000D01*
G75*
G02*
X93849000Y-97478000I-225000J0D01*
G01*
X93349000Y-97478000D01*
G75*
G02*
X93124000Y-97253000I0J225000D01*
G01*
X93124000Y-96803000D01*
G75*
G02*
X93349000Y-96578000I225000J0D01*
G01*
G37*
G36*
G01*
X45560000Y-17264000D02*
X44610000Y-17264000D01*
G75*
G02*
X44360000Y-17014000I0J250000D01*
G01*
X44360000Y-16514000D01*
G75*
G02*
X44610000Y-16264000I250000J0D01*
G01*
X45560000Y-16264000D01*
G75*
G02*
X45810000Y-16514000I0J-250000D01*
G01*
X45810000Y-17014000D01*
G75*
G02*
X45560000Y-17264000I-250000J0D01*
G01*
G37*
G36*
G01*
X45560000Y-19164000D02*
X44610000Y-19164000D01*
G75*
G02*
X44360000Y-18914000I0J250000D01*
G01*
X44360000Y-18414000D01*
G75*
G02*
X44610000Y-18164000I250000J0D01*
G01*
X45560000Y-18164000D01*
G75*
G02*
X45810000Y-18414000I0J-250000D01*
G01*
X45810000Y-18914000D01*
G75*
G02*
X45560000Y-19164000I-250000J0D01*
G01*
G37*
G36*
G01*
X90301000Y-98115000D02*
X90801000Y-98115000D01*
G75*
G02*
X91026000Y-98340000I0J-225000D01*
G01*
X91026000Y-98790000D01*
G75*
G02*
X90801000Y-99015000I-225000J0D01*
G01*
X90301000Y-99015000D01*
G75*
G02*
X90076000Y-98790000I0J225000D01*
G01*
X90076000Y-98340000D01*
G75*
G02*
X90301000Y-98115000I225000J0D01*
G01*
G37*
G36*
G01*
X90301000Y-96565000D02*
X90801000Y-96565000D01*
G75*
G02*
X91026000Y-96790000I0J-225000D01*
G01*
X91026000Y-97240000D01*
G75*
G02*
X90801000Y-97465000I-225000J0D01*
G01*
X90301000Y-97465000D01*
G75*
G02*
X90076000Y-97240000I0J225000D01*
G01*
X90076000Y-96790000D01*
G75*
G02*
X90301000Y-96565000I225000J0D01*
G01*
G37*
G36*
G01*
X96426000Y-98174000D02*
X97376000Y-98174000D01*
G75*
G02*
X97626000Y-98424000I0J-250000D01*
G01*
X97626000Y-98924000D01*
G75*
G02*
X97376000Y-99174000I-250000J0D01*
G01*
X96426000Y-99174000D01*
G75*
G02*
X96176000Y-98924000I0J250000D01*
G01*
X96176000Y-98424000D01*
G75*
G02*
X96426000Y-98174000I250000J0D01*
G01*
G37*
G36*
G01*
X96426000Y-96274000D02*
X97376000Y-96274000D01*
G75*
G02*
X97626000Y-96524000I0J-250000D01*
G01*
X97626000Y-97024000D01*
G75*
G02*
X97376000Y-97274000I-250000J0D01*
G01*
X96426000Y-97274000D01*
G75*
G02*
X96176000Y-97024000I0J250000D01*
G01*
X96176000Y-96524000D01*
G75*
G02*
X96426000Y-96274000I250000J0D01*
G01*
G37*
G36*
G01*
X34929000Y-74239000D02*
X35429000Y-74239000D01*
G75*
G02*
X35654000Y-74464000I0J-225000D01*
G01*
X35654000Y-74914000D01*
G75*
G02*
X35429000Y-75139000I-225000J0D01*
G01*
X34929000Y-75139000D01*
G75*
G02*
X34704000Y-74914000I0J225000D01*
G01*
X34704000Y-74464000D01*
G75*
G02*
X34929000Y-74239000I225000J0D01*
G01*
G37*
G36*
G01*
X34929000Y-72689000D02*
X35429000Y-72689000D01*
G75*
G02*
X35654000Y-72914000I0J-225000D01*
G01*
X35654000Y-73364000D01*
G75*
G02*
X35429000Y-73589000I-225000J0D01*
G01*
X34929000Y-73589000D01*
G75*
G02*
X34704000Y-73364000I0J225000D01*
G01*
X34704000Y-72914000D01*
G75*
G02*
X34929000Y-72689000I225000J0D01*
G01*
G37*
G36*
G01*
X34421000Y-48204000D02*
X34921000Y-48204000D01*
G75*
G02*
X35146000Y-48429000I0J-225000D01*
G01*
X35146000Y-48879000D01*
G75*
G02*
X34921000Y-49104000I-225000J0D01*
G01*
X34421000Y-49104000D01*
G75*
G02*
X34196000Y-48879000I0J225000D01*
G01*
X34196000Y-48429000D01*
G75*
G02*
X34421000Y-48204000I225000J0D01*
G01*
G37*
G36*
G01*
X34421000Y-46654000D02*
X34921000Y-46654000D01*
G75*
G02*
X35146000Y-46879000I0J-225000D01*
G01*
X35146000Y-47329000D01*
G75*
G02*
X34921000Y-47554000I-225000J0D01*
G01*
X34421000Y-47554000D01*
G75*
G02*
X34196000Y-47329000I0J225000D01*
G01*
X34196000Y-46879000D01*
G75*
G02*
X34421000Y-46654000I225000J0D01*
G01*
G37*
G36*
G01*
X95127000Y-112098000D02*
X95627000Y-112098000D01*
G75*
G02*
X95852000Y-112323000I0J-225000D01*
G01*
X95852000Y-112773000D01*
G75*
G02*
X95627000Y-112998000I-225000J0D01*
G01*
X95127000Y-112998000D01*
G75*
G02*
X94902000Y-112773000I0J225000D01*
G01*
X94902000Y-112323000D01*
G75*
G02*
X95127000Y-112098000I225000J0D01*
G01*
G37*
G36*
G01*
X95127000Y-110548000D02*
X95627000Y-110548000D01*
G75*
G02*
X95852000Y-110773000I0J-225000D01*
G01*
X95852000Y-111223000D01*
G75*
G02*
X95627000Y-111448000I-225000J0D01*
G01*
X95127000Y-111448000D01*
G75*
G02*
X94902000Y-111223000I0J225000D01*
G01*
X94902000Y-110773000D01*
G75*
G02*
X95127000Y-110548000I225000J0D01*
G01*
G37*
G36*
G01*
X107057000Y-32200000D02*
X106557000Y-32200000D01*
G75*
G02*
X106332000Y-31975000I0J225000D01*
G01*
X106332000Y-31525000D01*
G75*
G02*
X106557000Y-31300000I225000J0D01*
G01*
X107057000Y-31300000D01*
G75*
G02*
X107282000Y-31525000I0J-225000D01*
G01*
X107282000Y-31975000D01*
G75*
G02*
X107057000Y-32200000I-225000J0D01*
G01*
G37*
G36*
G01*
X107057000Y-33750000D02*
X106557000Y-33750000D01*
G75*
G02*
X106332000Y-33525000I0J225000D01*
G01*
X106332000Y-33075000D01*
G75*
G02*
X106557000Y-32850000I225000J0D01*
G01*
X107057000Y-32850000D01*
G75*
G02*
X107282000Y-33075000I0J-225000D01*
G01*
X107282000Y-33525000D01*
G75*
G02*
X107057000Y-33750000I-225000J0D01*
G01*
G37*
G36*
G01*
X107057000Y-28110000D02*
X106557000Y-28110000D01*
G75*
G02*
X106332000Y-27885000I0J225000D01*
G01*
X106332000Y-27435000D01*
G75*
G02*
X106557000Y-27210000I225000J0D01*
G01*
X107057000Y-27210000D01*
G75*
G02*
X107282000Y-27435000I0J-225000D01*
G01*
X107282000Y-27885000D01*
G75*
G02*
X107057000Y-28110000I-225000J0D01*
G01*
G37*
G36*
G01*
X107057000Y-29660000D02*
X106557000Y-29660000D01*
G75*
G02*
X106332000Y-29435000I0J225000D01*
G01*
X106332000Y-28985000D01*
G75*
G02*
X106557000Y-28760000I225000J0D01*
G01*
X107057000Y-28760000D01*
G75*
G02*
X107282000Y-28985000I0J-225000D01*
G01*
X107282000Y-29435000D01*
G75*
G02*
X107057000Y-29660000I-225000J0D01*
G01*
G37*
G36*
G01*
X95852000Y-105910000D02*
X94902000Y-105910000D01*
G75*
G02*
X94652000Y-105660000I0J250000D01*
G01*
X94652000Y-105160000D01*
G75*
G02*
X94902000Y-104910000I250000J0D01*
G01*
X95852000Y-104910000D01*
G75*
G02*
X96102000Y-105160000I0J-250000D01*
G01*
X96102000Y-105660000D01*
G75*
G02*
X95852000Y-105910000I-250000J0D01*
G01*
G37*
G36*
G01*
X95852000Y-107810000D02*
X94902000Y-107810000D01*
G75*
G02*
X94652000Y-107560000I0J250000D01*
G01*
X94652000Y-107060000D01*
G75*
G02*
X94902000Y-106810000I250000J0D01*
G01*
X95852000Y-106810000D01*
G75*
G02*
X96102000Y-107060000I0J-250000D01*
G01*
X96102000Y-107560000D01*
G75*
G02*
X95852000Y-107810000I-250000J0D01*
G01*
G37*
M02*
