%FSLAX45Y45*%
G04 Gerber Fmt 4.5, Leading zero omitted, Abs format (unit mm)*
G04 Created by KiCad (PCBNEW 5.1.10-88a1d61d58~90~ubuntu20.04.1) date 2021-08-08 15:21:25*
%MOMM*%
%LPD*%
G01*
G04 APERTURE LIST*
%TA.AperFunction,Profile*%
%ADD10C,0.050000*%
%TD*%
%ADD11C,0.200000*%
%ADD12C,0.300000*%
G04 APERTURE END LIST*
D10*
X762000Y-698500D02*
G75*
G02*
X508000Y-952500I-254000J0D01*
G01*
X317500Y-1143000D02*
G75*
G02*
X508000Y-952500I190500J0D01*
G01*
X762000Y-381000D02*
X762000Y-698500D01*
X13335000Y-698500D02*
X13335000Y-381000D01*
X13589000Y-952500D02*
G75*
G02*
X13335000Y-698500I0J254000D01*
G01*
X13589000Y-952500D02*
G75*
G02*
X13779500Y-1143000I0J-190500D01*
G01*
X2730500Y-9017000D02*
X571500Y-9017000D01*
X11366500Y-9017000D02*
X13525500Y-9017000D01*
X2730500Y-9017000D02*
G75*
G02*
X2984500Y-9271000I0J-254000D01*
G01*
X11112500Y-9271000D02*
G75*
G02*
X11366500Y-9017000I254000J0D01*
G01*
X11112500Y-11176000D02*
G75*
G02*
X10858500Y-11430000I-254000J0D01*
G01*
X3238500Y-11430000D02*
G75*
G02*
X2984500Y-11176000I0J254000D01*
G01*
X11112500Y-11176000D02*
X11112500Y-9271000D01*
X3238500Y-11430000D02*
X10858500Y-11430000D01*
X2984500Y-9271000D02*
X2984500Y-11176000D01*
X13779500Y-8763000D02*
G75*
G02*
X13525500Y-9017000I-254000J0D01*
G01*
X571500Y-9017000D02*
G75*
G02*
X317500Y-8763000I0J254000D01*
G01*
X762000Y-381000D02*
G75*
G02*
X1016000Y-127000I254000J0D01*
G01*
X13081000Y-127000D02*
G75*
G02*
X13335000Y-381000I0J-254000D01*
G01*
X317500Y-8763000D02*
X317500Y-1143000D01*
X13779500Y-1143000D02*
X13779500Y-8763000D01*
X1016000Y-127000D02*
X13081000Y-127000D01*
D11*
X5190500Y-237500D02*
X5350500Y-397500D01*
X5350500Y-237500D02*
X5190500Y-397500D01*
D12*
X601428Y-11898214D02*
X601428Y-11598214D01*
X672857Y-11598214D01*
X715714Y-11612500D01*
X744286Y-11641071D01*
X758571Y-11669643D01*
X772857Y-11726786D01*
X772857Y-11769643D01*
X758571Y-11826786D01*
X744286Y-11855357D01*
X715714Y-11883929D01*
X672857Y-11898214D01*
X601428Y-11898214D01*
X901428Y-11898214D02*
X901428Y-11698214D01*
X901428Y-11755357D02*
X915714Y-11726786D01*
X930000Y-11712500D01*
X958571Y-11698214D01*
X987143Y-11698214D01*
X1087143Y-11898214D02*
X1087143Y-11698214D01*
X1087143Y-11598214D02*
X1072857Y-11612500D01*
X1087143Y-11626786D01*
X1101428Y-11612500D01*
X1087143Y-11598214D01*
X1087143Y-11626786D01*
X1272857Y-11898214D02*
X1244286Y-11883929D01*
X1230000Y-11855357D01*
X1230000Y-11598214D01*
X1430000Y-11898214D02*
X1401428Y-11883929D01*
X1387143Y-11855357D01*
X1387143Y-11598214D01*
X1772857Y-11898214D02*
X1772857Y-11598214D01*
X1872857Y-11812500D01*
X1972857Y-11598214D01*
X1972857Y-11898214D01*
X2244286Y-11898214D02*
X2244286Y-11741071D01*
X2230000Y-11712500D01*
X2201428Y-11698214D01*
X2144286Y-11698214D01*
X2115714Y-11712500D01*
X2244286Y-11883929D02*
X2215714Y-11898214D01*
X2144286Y-11898214D01*
X2115714Y-11883929D01*
X2101428Y-11855357D01*
X2101428Y-11826786D01*
X2115714Y-11798214D01*
X2144286Y-11783929D01*
X2215714Y-11783929D01*
X2244286Y-11769643D01*
X2387143Y-11698214D02*
X2387143Y-11998214D01*
X2387143Y-11712500D02*
X2415714Y-11698214D01*
X2472857Y-11698214D01*
X2501428Y-11712500D01*
X2515714Y-11726786D01*
X2530000Y-11755357D01*
X2530000Y-11841071D01*
X2515714Y-11869643D01*
X2501428Y-11883929D01*
X2472857Y-11898214D01*
X2415714Y-11898214D01*
X2387143Y-11883929D01*
X2658571Y-11869643D02*
X2672857Y-11883929D01*
X2658571Y-11898214D01*
X2644286Y-11883929D01*
X2658571Y-11869643D01*
X2658571Y-11898214D01*
X2658571Y-11712500D02*
X2672857Y-11726786D01*
X2658571Y-11741071D01*
X2644286Y-11726786D01*
X2658571Y-11712500D01*
X2658571Y-11741071D01*
X155000Y-12312500D02*
X315000Y-12472500D01*
X315000Y-12312500D02*
X155000Y-12472500D01*
X758571Y-12528214D02*
X587143Y-12528214D01*
X672857Y-12528214D02*
X672857Y-12228214D01*
X644286Y-12271071D01*
X615714Y-12299643D01*
X587143Y-12313929D01*
X887143Y-12499643D02*
X901428Y-12513929D01*
X887143Y-12528214D01*
X872857Y-12513929D01*
X887143Y-12499643D01*
X887143Y-12528214D01*
X1158571Y-12228214D02*
X1101428Y-12228214D01*
X1072857Y-12242500D01*
X1058571Y-12256786D01*
X1030000Y-12299643D01*
X1015714Y-12356786D01*
X1015714Y-12471071D01*
X1030000Y-12499643D01*
X1044286Y-12513929D01*
X1072857Y-12528214D01*
X1130000Y-12528214D01*
X1158571Y-12513929D01*
X1172857Y-12499643D01*
X1187143Y-12471071D01*
X1187143Y-12399643D01*
X1172857Y-12371071D01*
X1158571Y-12356786D01*
X1130000Y-12342500D01*
X1072857Y-12342500D01*
X1044286Y-12356786D01*
X1030000Y-12371071D01*
X1015714Y-12399643D01*
X1372857Y-12228214D02*
X1401428Y-12228214D01*
X1430000Y-12242500D01*
X1444286Y-12256786D01*
X1458571Y-12285357D01*
X1472857Y-12342500D01*
X1472857Y-12413929D01*
X1458571Y-12471071D01*
X1444286Y-12499643D01*
X1430000Y-12513929D01*
X1401428Y-12528214D01*
X1372857Y-12528214D01*
X1344286Y-12513929D01*
X1330000Y-12499643D01*
X1315714Y-12471071D01*
X1301428Y-12413929D01*
X1301428Y-12342500D01*
X1315714Y-12285357D01*
X1330000Y-12256786D01*
X1344286Y-12242500D01*
X1372857Y-12228214D01*
X1658571Y-12228214D02*
X1687143Y-12228214D01*
X1715714Y-12242500D01*
X1730000Y-12256786D01*
X1744286Y-12285357D01*
X1758571Y-12342500D01*
X1758571Y-12413929D01*
X1744286Y-12471071D01*
X1730000Y-12499643D01*
X1715714Y-12513929D01*
X1687143Y-12528214D01*
X1658571Y-12528214D01*
X1630000Y-12513929D01*
X1615714Y-12499643D01*
X1601428Y-12471071D01*
X1587143Y-12413929D01*
X1587143Y-12342500D01*
X1601428Y-12285357D01*
X1615714Y-12256786D01*
X1630000Y-12242500D01*
X1658571Y-12228214D01*
X1887143Y-12528214D02*
X1887143Y-12328214D01*
X1887143Y-12356786D02*
X1901428Y-12342500D01*
X1930000Y-12328214D01*
X1972857Y-12328214D01*
X2001428Y-12342500D01*
X2015714Y-12371071D01*
X2015714Y-12528214D01*
X2015714Y-12371071D02*
X2030000Y-12342500D01*
X2058571Y-12328214D01*
X2101428Y-12328214D01*
X2130000Y-12342500D01*
X2144286Y-12371071D01*
X2144286Y-12528214D01*
X2287143Y-12528214D02*
X2287143Y-12328214D01*
X2287143Y-12356786D02*
X2301428Y-12342500D01*
X2330000Y-12328214D01*
X2372857Y-12328214D01*
X2401428Y-12342500D01*
X2415714Y-12371071D01*
X2415714Y-12528214D01*
X2415714Y-12371071D02*
X2430000Y-12342500D01*
X2458571Y-12328214D01*
X2501428Y-12328214D01*
X2530000Y-12342500D01*
X2544286Y-12371071D01*
X2544286Y-12528214D01*
X3130000Y-12213929D02*
X2872857Y-12599643D01*
X3515714Y-12228214D02*
X3544286Y-12228214D01*
X3572857Y-12242500D01*
X3587143Y-12256786D01*
X3601428Y-12285357D01*
X3615714Y-12342500D01*
X3615714Y-12413929D01*
X3601428Y-12471071D01*
X3587143Y-12499643D01*
X3572857Y-12513929D01*
X3544286Y-12528214D01*
X3515714Y-12528214D01*
X3487143Y-12513929D01*
X3472857Y-12499643D01*
X3458571Y-12471071D01*
X3444286Y-12413929D01*
X3444286Y-12342500D01*
X3458571Y-12285357D01*
X3472857Y-12256786D01*
X3487143Y-12242500D01*
X3515714Y-12228214D01*
X3744286Y-12499643D02*
X3758571Y-12513929D01*
X3744286Y-12528214D01*
X3730000Y-12513929D01*
X3744286Y-12499643D01*
X3744286Y-12528214D01*
X3944286Y-12228214D02*
X3972857Y-12228214D01*
X4001428Y-12242500D01*
X4015714Y-12256786D01*
X4030000Y-12285357D01*
X4044286Y-12342500D01*
X4044286Y-12413929D01*
X4030000Y-12471071D01*
X4015714Y-12499643D01*
X4001428Y-12513929D01*
X3972857Y-12528214D01*
X3944286Y-12528214D01*
X3915714Y-12513929D01*
X3901428Y-12499643D01*
X3887143Y-12471071D01*
X3872857Y-12413929D01*
X3872857Y-12342500D01*
X3887143Y-12285357D01*
X3901428Y-12256786D01*
X3915714Y-12242500D01*
X3944286Y-12228214D01*
X4301428Y-12228214D02*
X4244286Y-12228214D01*
X4215714Y-12242500D01*
X4201428Y-12256786D01*
X4172857Y-12299643D01*
X4158571Y-12356786D01*
X4158571Y-12471071D01*
X4172857Y-12499643D01*
X4187143Y-12513929D01*
X4215714Y-12528214D01*
X4272857Y-12528214D01*
X4301428Y-12513929D01*
X4315714Y-12499643D01*
X4330000Y-12471071D01*
X4330000Y-12399643D01*
X4315714Y-12371071D01*
X4301428Y-12356786D01*
X4272857Y-12342500D01*
X4215714Y-12342500D01*
X4187143Y-12356786D01*
X4172857Y-12371071D01*
X4158571Y-12399643D01*
X4430000Y-12228214D02*
X4615714Y-12228214D01*
X4515714Y-12342500D01*
X4558571Y-12342500D01*
X4587143Y-12356786D01*
X4601428Y-12371071D01*
X4615714Y-12399643D01*
X4615714Y-12471071D01*
X4601428Y-12499643D01*
X4587143Y-12513929D01*
X4558571Y-12528214D01*
X4472857Y-12528214D01*
X4444286Y-12513929D01*
X4430000Y-12499643D01*
X4801428Y-12228214D02*
X4830000Y-12228214D01*
X4858571Y-12242500D01*
X4872857Y-12256786D01*
X4887143Y-12285357D01*
X4901428Y-12342500D01*
X4901428Y-12413929D01*
X4887143Y-12471071D01*
X4872857Y-12499643D01*
X4858571Y-12513929D01*
X4830000Y-12528214D01*
X4801428Y-12528214D01*
X4772857Y-12513929D01*
X4758571Y-12499643D01*
X4744286Y-12471071D01*
X4730000Y-12413929D01*
X4730000Y-12342500D01*
X4744286Y-12285357D01*
X4758571Y-12256786D01*
X4772857Y-12242500D01*
X4801428Y-12228214D01*
X5015714Y-12228214D02*
X5015714Y-12285357D01*
X5130000Y-12228214D02*
X5130000Y-12285357D01*
X5572857Y-12642500D02*
X5558571Y-12628214D01*
X5530000Y-12585357D01*
X5515714Y-12556786D01*
X5501428Y-12513929D01*
X5487143Y-12442500D01*
X5487143Y-12385357D01*
X5501428Y-12313929D01*
X5515714Y-12271071D01*
X5530000Y-12242500D01*
X5558571Y-12199643D01*
X5572857Y-12185357D01*
X5844286Y-12528214D02*
X5672857Y-12528214D01*
X5758571Y-12528214D02*
X5758571Y-12228214D01*
X5730000Y-12271071D01*
X5701428Y-12299643D01*
X5672857Y-12313929D01*
X6201428Y-12528214D02*
X6201428Y-12228214D01*
X6330000Y-12528214D02*
X6330000Y-12371071D01*
X6315714Y-12342500D01*
X6287143Y-12328214D01*
X6244286Y-12328214D01*
X6215714Y-12342500D01*
X6201428Y-12356786D01*
X6515714Y-12528214D02*
X6487143Y-12513929D01*
X6472857Y-12499643D01*
X6458571Y-12471071D01*
X6458571Y-12385357D01*
X6472857Y-12356786D01*
X6487143Y-12342500D01*
X6515714Y-12328214D01*
X6558571Y-12328214D01*
X6587143Y-12342500D01*
X6601428Y-12356786D01*
X6615714Y-12385357D01*
X6615714Y-12471071D01*
X6601428Y-12499643D01*
X6587143Y-12513929D01*
X6558571Y-12528214D01*
X6515714Y-12528214D01*
X6787143Y-12528214D02*
X6758571Y-12513929D01*
X6744286Y-12485357D01*
X6744286Y-12228214D01*
X7015714Y-12513929D02*
X6987143Y-12528214D01*
X6930000Y-12528214D01*
X6901428Y-12513929D01*
X6887143Y-12485357D01*
X6887143Y-12371071D01*
X6901428Y-12342500D01*
X6930000Y-12328214D01*
X6987143Y-12328214D01*
X7015714Y-12342500D01*
X7030000Y-12371071D01*
X7030000Y-12399643D01*
X6887143Y-12428214D01*
X7130000Y-12642500D02*
X7144286Y-12628214D01*
X7172857Y-12585357D01*
X7187143Y-12556786D01*
X7201428Y-12513929D01*
X7215714Y-12442500D01*
X7215714Y-12385357D01*
X7201428Y-12313929D01*
X7187143Y-12271071D01*
X7172857Y-12242500D01*
X7144286Y-12199643D01*
X7130000Y-12185357D01*
X7672857Y-12642500D02*
X7658571Y-12628214D01*
X7630000Y-12585357D01*
X7615714Y-12556786D01*
X7601428Y-12513929D01*
X7587143Y-12442500D01*
X7587143Y-12385357D01*
X7601428Y-12313929D01*
X7615714Y-12271071D01*
X7630000Y-12242500D01*
X7658571Y-12199643D01*
X7672857Y-12185357D01*
X7787143Y-12328214D02*
X7787143Y-12528214D01*
X7787143Y-12356786D02*
X7801428Y-12342500D01*
X7830000Y-12328214D01*
X7872857Y-12328214D01*
X7901428Y-12342500D01*
X7915714Y-12371071D01*
X7915714Y-12528214D01*
X8101428Y-12528214D02*
X8072857Y-12513929D01*
X8058571Y-12499643D01*
X8044286Y-12471071D01*
X8044286Y-12385357D01*
X8058571Y-12356786D01*
X8072857Y-12342500D01*
X8101428Y-12328214D01*
X8144286Y-12328214D01*
X8172857Y-12342500D01*
X8187143Y-12356786D01*
X8201428Y-12385357D01*
X8201428Y-12471071D01*
X8187143Y-12499643D01*
X8172857Y-12513929D01*
X8144286Y-12528214D01*
X8101428Y-12528214D01*
X8287143Y-12328214D02*
X8401428Y-12328214D01*
X8330000Y-12228214D02*
X8330000Y-12485357D01*
X8344286Y-12513929D01*
X8372857Y-12528214D01*
X8401428Y-12528214D01*
X8730000Y-12328214D02*
X8730000Y-12628214D01*
X8730000Y-12342500D02*
X8758571Y-12328214D01*
X8815714Y-12328214D01*
X8844286Y-12342500D01*
X8858571Y-12356786D01*
X8872857Y-12385357D01*
X8872857Y-12471071D01*
X8858571Y-12499643D01*
X8844286Y-12513929D01*
X8815714Y-12528214D01*
X8758571Y-12528214D01*
X8730000Y-12513929D01*
X9044286Y-12528214D02*
X9015714Y-12513929D01*
X9001428Y-12485357D01*
X9001428Y-12228214D01*
X9287143Y-12528214D02*
X9287143Y-12371071D01*
X9272857Y-12342500D01*
X9244286Y-12328214D01*
X9187143Y-12328214D01*
X9158571Y-12342500D01*
X9287143Y-12513929D02*
X9258571Y-12528214D01*
X9187143Y-12528214D01*
X9158571Y-12513929D01*
X9144286Y-12485357D01*
X9144286Y-12456786D01*
X9158571Y-12428214D01*
X9187143Y-12413929D01*
X9258571Y-12413929D01*
X9287143Y-12399643D01*
X9387143Y-12328214D02*
X9501428Y-12328214D01*
X9430000Y-12228214D02*
X9430000Y-12485357D01*
X9444286Y-12513929D01*
X9472857Y-12528214D01*
X9501428Y-12528214D01*
X9715714Y-12513929D02*
X9687143Y-12528214D01*
X9630000Y-12528214D01*
X9601428Y-12513929D01*
X9587143Y-12485357D01*
X9587143Y-12371071D01*
X9601428Y-12342500D01*
X9630000Y-12328214D01*
X9687143Y-12328214D01*
X9715714Y-12342500D01*
X9730000Y-12371071D01*
X9730000Y-12399643D01*
X9587143Y-12428214D01*
X9987143Y-12528214D02*
X9987143Y-12228214D01*
X9987143Y-12513929D02*
X9958571Y-12528214D01*
X9901428Y-12528214D01*
X9872857Y-12513929D01*
X9858571Y-12499643D01*
X9844286Y-12471071D01*
X9844286Y-12385357D01*
X9858571Y-12356786D01*
X9872857Y-12342500D01*
X9901428Y-12328214D01*
X9958571Y-12328214D01*
X9987143Y-12342500D01*
X10101428Y-12642500D02*
X10115714Y-12628214D01*
X10144286Y-12585357D01*
X10158571Y-12556786D01*
X10172857Y-12513929D01*
X10187143Y-12442500D01*
X10187143Y-12385357D01*
X10172857Y-12313929D01*
X10158571Y-12271071D01*
X10144286Y-12242500D01*
X10115714Y-12199643D01*
X10101428Y-12185357D01*
M02*
