%FSLAX45Y45*%
G04 Gerber Fmt 4.5, Leading zero omitted, Abs format (unit mm)*
G04 Created by KiCad (PCBNEW 5.1.10-88a1d61d58~90~ubuntu20.04.1) date 2021-08-08 15:21:25*
%MOMM*%
%LPD*%
G01*
G04 APERTURE LIST*
%TA.AperFunction,Profile*%
%ADD10C,0.050000*%
%TD*%
%ADD11C,0.200000*%
%ADD12C,0.300000*%
G04 APERTURE END LIST*
D10*
X762000Y-698500D02*
G75*
G02*
X508000Y-952500I-254000J0D01*
G01*
X317500Y-1143000D02*
G75*
G02*
X508000Y-952500I190500J0D01*
G01*
X762000Y-381000D02*
X762000Y-698500D01*
X13335000Y-698500D02*
X13335000Y-381000D01*
X13589000Y-952500D02*
G75*
G02*
X13335000Y-698500I0J254000D01*
G01*
X13589000Y-952500D02*
G75*
G02*
X13779500Y-1143000I0J-190500D01*
G01*
X2730500Y-9017000D02*
X571500Y-9017000D01*
X11366500Y-9017000D02*
X13525500Y-9017000D01*
X2730500Y-9017000D02*
G75*
G02*
X2984500Y-9271000I0J-254000D01*
G01*
X11112500Y-9271000D02*
G75*
G02*
X11366500Y-9017000I254000J0D01*
G01*
X11112500Y-11176000D02*
G75*
G02*
X10858500Y-11430000I-254000J0D01*
G01*
X3238500Y-11430000D02*
G75*
G02*
X2984500Y-11176000I0J254000D01*
G01*
X11112500Y-11176000D02*
X11112500Y-9271000D01*
X3238500Y-11430000D02*
X10858500Y-11430000D01*
X2984500Y-9271000D02*
X2984500Y-11176000D01*
X13779500Y-8763000D02*
G75*
G02*
X13525500Y-9017000I-254000J0D01*
G01*
X571500Y-9017000D02*
G75*
G02*
X317500Y-8763000I0J254000D01*
G01*
X762000Y-381000D02*
G75*
G02*
X1016000Y-127000I254000J0D01*
G01*
X13081000Y-127000D02*
G75*
G02*
X13335000Y-381000I0J-254000D01*
G01*
X317500Y-8763000D02*
X317500Y-1143000D01*
X13779500Y-1143000D02*
X13779500Y-8763000D01*
X1016000Y-127000D02*
X13081000Y-127000D01*
D11*
X996000Y-7498400D02*
X1036000Y-7538400D01*
X1036000Y-7498400D02*
X996000Y-7538400D01*
X1097600Y-6965000D02*
X1137600Y-7005000D01*
X1137600Y-6965000D02*
X1097600Y-7005000D01*
X1097600Y-7219000D02*
X1137600Y-7259000D01*
X1137600Y-7219000D02*
X1097600Y-7259000D01*
X2227900Y-6977700D02*
X2267900Y-7017700D01*
X2267900Y-6977700D02*
X2227900Y-7017700D01*
X2520000Y-6926900D02*
X2560000Y-6966900D01*
X2560000Y-6926900D02*
X2520000Y-6966900D01*
X2621600Y-5005399D02*
X2661600Y-5045399D01*
X2661600Y-5005399D02*
X2621600Y-5045399D01*
X2862899Y-4780600D02*
X2902899Y-4820600D01*
X2902899Y-4780600D02*
X2862899Y-4820600D01*
X2862900Y-4625998D02*
X2902900Y-4665998D01*
X2902900Y-4625998D02*
X2862900Y-4665998D01*
X2862900Y-6507800D02*
X2902900Y-6547800D01*
X2902900Y-6507800D02*
X2862900Y-6547800D01*
X2926658Y-6876711D02*
X2966658Y-6916711D01*
X2966658Y-6876711D02*
X2926658Y-6916711D01*
X3002600Y-5695000D02*
X3042600Y-5735000D01*
X3042600Y-5695000D02*
X3002600Y-5735000D01*
X3174050Y-3320100D02*
X3214050Y-3360100D01*
X3214050Y-3320100D02*
X3174050Y-3360100D01*
X3269300Y-3859850D02*
X3309300Y-3899850D01*
X3309300Y-3859850D02*
X3269300Y-3899850D01*
X3269300Y-6457000D02*
X3309300Y-6497000D01*
X3309300Y-6457000D02*
X3269300Y-6497000D01*
X3320100Y-4577400D02*
X3360100Y-4617400D01*
X3360100Y-4577400D02*
X3320100Y-4617400D01*
X3332800Y-6863400D02*
X3372800Y-6903400D01*
X3372800Y-6863400D02*
X3332800Y-6903400D01*
X3396300Y-5212400D02*
X3436300Y-5252400D01*
X3436300Y-5212400D02*
X3396300Y-5252400D01*
X3396300Y-5673401D02*
X3436300Y-5713401D01*
X3436300Y-5673401D02*
X3396300Y-5713401D01*
X3396300Y-8285800D02*
X3436300Y-8325800D01*
X3436300Y-8285800D02*
X3396300Y-8325800D01*
X3447100Y-4552000D02*
X3487100Y-4592000D01*
X3487100Y-4552000D02*
X3447100Y-4592000D01*
X3548700Y-7193600D02*
X3588700Y-7233600D01*
X3588700Y-7193600D02*
X3548700Y-7233600D01*
X3574100Y-4729800D02*
X3614100Y-4769800D01*
X3614100Y-4729800D02*
X3574100Y-4769800D01*
X3581932Y-7308399D02*
X3621932Y-7348399D01*
X3621932Y-7308399D02*
X3581932Y-7348399D01*
X3599500Y-7523799D02*
X3639500Y-7563799D01*
X3639500Y-7523799D02*
X3599500Y-7563799D01*
X3624900Y-4799899D02*
X3664900Y-4839899D01*
X3664900Y-4799899D02*
X3624900Y-4839899D01*
X3688400Y-6774500D02*
X3728400Y-6814500D01*
X3728400Y-6774500D02*
X3688400Y-6814500D01*
X3904300Y-9962200D02*
X3944300Y-10002200D01*
X3944300Y-9962200D02*
X3904300Y-10002200D01*
X4005900Y-5225100D02*
X4045900Y-5265100D01*
X4045900Y-5225100D02*
X4005900Y-5265100D01*
X4399600Y-10457500D02*
X4439600Y-10497500D01*
X4439600Y-10457500D02*
X4399600Y-10497500D01*
X4513900Y-10406700D02*
X4553900Y-10446700D01*
X4553900Y-10406700D02*
X4513900Y-10446700D01*
X4513900Y-10559100D02*
X4553900Y-10599100D01*
X4553900Y-10559100D02*
X4513900Y-10599100D01*
X4513900Y-10876600D02*
X4553900Y-10916600D01*
X4553900Y-10876600D02*
X4513900Y-10916600D01*
X4513900Y-11016300D02*
X4553900Y-11056300D01*
X4553900Y-11016300D02*
X4513900Y-11056300D01*
X4679000Y-2151700D02*
X4719000Y-2191700D01*
X4719000Y-2151700D02*
X4679000Y-2191700D01*
X4682422Y-5157799D02*
X4722422Y-5197799D01*
X4722422Y-5157799D02*
X4682422Y-5197799D01*
X4933000Y-4723450D02*
X4973000Y-4763450D01*
X4973000Y-4723450D02*
X4933000Y-4763450D01*
X4958400Y-6495100D02*
X4998400Y-6535100D01*
X4998400Y-6495100D02*
X4958400Y-6535100D01*
X4964750Y-6393500D02*
X5004750Y-6433500D01*
X5004750Y-6393500D02*
X4964750Y-6433500D01*
X5009200Y-7498400D02*
X5049200Y-7538400D01*
X5049200Y-7498400D02*
X5009200Y-7538400D01*
X5060000Y-5847400D02*
X5100000Y-5887400D01*
X5100000Y-5847400D02*
X5060000Y-5887400D01*
X5060000Y-5949000D02*
X5100000Y-5989000D01*
X5100000Y-5949000D02*
X5060000Y-5989000D01*
X5072700Y-2113600D02*
X5112700Y-2153600D01*
X5112700Y-2113600D02*
X5072700Y-2153600D01*
X5098100Y-6990400D02*
X5138100Y-7030400D01*
X5138100Y-6990400D02*
X5098100Y-7030400D01*
X5123500Y-7828600D02*
X5163500Y-7868600D01*
X5163500Y-7828600D02*
X5123500Y-7868600D01*
X5199700Y-2113600D02*
X5239700Y-2153600D01*
X5239700Y-2113600D02*
X5199700Y-2153600D01*
X5199700Y-6121196D02*
X5239700Y-6161196D01*
X5239700Y-6121196D02*
X5199700Y-6161196D01*
X5225100Y-1732600D02*
X5265100Y-1772600D01*
X5265100Y-1732600D02*
X5225100Y-1772600D01*
X5263200Y-11143300D02*
X5303200Y-11183300D01*
X5303200Y-11143300D02*
X5263200Y-11183300D01*
X5288601Y-11257600D02*
X5328601Y-11297600D01*
X5328601Y-11257600D02*
X5288601Y-11297600D01*
X5326700Y-2113600D02*
X5366700Y-2153600D01*
X5366700Y-2113600D02*
X5326700Y-2153600D01*
X5371150Y-1732600D02*
X5411150Y-1772600D01*
X5411150Y-1732600D02*
X5371150Y-1772600D01*
X5402900Y-7422200D02*
X5442900Y-7462200D01*
X5442900Y-7422200D02*
X5402900Y-7462200D01*
X5441000Y-9759000D02*
X5481000Y-9799000D01*
X5481000Y-9759000D02*
X5441000Y-9799000D01*
X5460050Y-9606600D02*
X5500050Y-9646600D01*
X5500050Y-9606600D02*
X5460050Y-9646600D01*
X5466400Y-6025200D02*
X5506400Y-6065200D01*
X5506400Y-6025200D02*
X5466400Y-6065200D01*
X5568000Y-5161600D02*
X5608000Y-5201600D01*
X5608000Y-5161600D02*
X5568000Y-5201600D01*
X5568000Y-5161600D02*
X5608000Y-5201600D01*
X5608000Y-5161600D02*
X5568000Y-5201600D01*
X5568000Y-7057701D02*
X5608000Y-7097701D01*
X5608000Y-7057701D02*
X5568000Y-7097701D01*
X5695000Y-10368600D02*
X5735000Y-10408600D01*
X5735000Y-10368600D02*
X5695000Y-10408600D01*
X5707700Y-4748600D02*
X5747700Y-4788600D01*
X5747700Y-4748600D02*
X5707700Y-4788600D01*
X5707700Y-7447600D02*
X5747700Y-7487600D01*
X5747700Y-7447600D02*
X5707700Y-7487600D01*
X5745800Y-11117900D02*
X5785800Y-11157900D01*
X5785800Y-11117900D02*
X5745800Y-11157900D01*
X5745801Y-11257599D02*
X5785801Y-11297599D01*
X5785801Y-11257599D02*
X5745801Y-11297599D01*
X5809300Y-5140249D02*
X5849300Y-5180249D01*
X5849300Y-5140249D02*
X5809300Y-5180249D01*
X5822000Y-10368600D02*
X5862000Y-10408600D01*
X5862000Y-10368600D02*
X5822000Y-10408600D01*
X5866450Y-10006650D02*
X5906450Y-10046650D01*
X5906450Y-10006650D02*
X5866450Y-10046650D01*
X5872800Y-7015800D02*
X5912800Y-7055800D01*
X5912800Y-7015800D02*
X5872800Y-7055800D01*
X5949000Y-10368600D02*
X5989000Y-10408600D01*
X5989000Y-10368600D02*
X5949000Y-10408600D01*
X6012500Y-10000300D02*
X6052500Y-10040300D01*
X6052500Y-10000300D02*
X6012500Y-10040300D01*
X6177600Y-5098100D02*
X6217600Y-5138100D01*
X6217600Y-5098100D02*
X6177600Y-5138100D01*
X6177600Y-7009450D02*
X6217600Y-7049450D01*
X6217600Y-7009450D02*
X6177600Y-7049450D01*
X6279200Y-9149400D02*
X6319200Y-9189400D01*
X6319200Y-9149400D02*
X6279200Y-9189400D01*
X6279200Y-9251000D02*
X6319200Y-9291000D01*
X6319200Y-9251000D02*
X6279200Y-9291000D01*
X6279200Y-9352600D02*
X6319200Y-9392600D01*
X6319200Y-9352600D02*
X6279200Y-9392600D01*
X6457000Y-10343200D02*
X6497000Y-10383200D01*
X6497000Y-10343200D02*
X6457000Y-10383200D01*
X6507800Y-10482900D02*
X6547800Y-10522900D01*
X6547800Y-10482900D02*
X6507800Y-10522900D01*
X7053900Y-9047800D02*
X7093900Y-9087800D01*
X7093900Y-9047800D02*
X7053900Y-9087800D01*
X7174550Y-9035100D02*
X7214550Y-9075100D01*
X7214550Y-9035100D02*
X7174550Y-9075100D01*
X7282500Y-2977200D02*
X7322500Y-3017200D01*
X7322500Y-2977200D02*
X7282500Y-3017200D01*
X7346000Y-8984300D02*
X7386000Y-9024300D01*
X7386000Y-8984300D02*
X7346000Y-9024300D01*
X7460300Y-10241600D02*
X7500300Y-10281600D01*
X7500300Y-10241600D02*
X7460300Y-10281600D01*
X7485700Y-8984300D02*
X7525700Y-9024300D01*
X7525700Y-8984300D02*
X7485700Y-9024300D01*
X7612700Y-9073200D02*
X7652700Y-9113200D01*
X7652700Y-9073200D02*
X7612700Y-9113200D01*
X7828600Y-10241600D02*
X7868600Y-10281600D01*
X7868600Y-10241600D02*
X7828600Y-10281600D01*
X7841300Y-10571800D02*
X7881300Y-10611800D01*
X7881300Y-10571800D02*
X7841300Y-10611800D01*
X7866700Y-9047800D02*
X7906700Y-9087800D01*
X7906700Y-9047800D02*
X7866700Y-9087800D01*
X7942900Y-11130600D02*
X7982900Y-11170600D01*
X7982900Y-11130600D02*
X7942900Y-11170600D01*
X8113498Y-9047800D02*
X8153498Y-9087800D01*
X8153498Y-9047800D02*
X8113498Y-9087800D01*
X8209538Y-10581150D02*
X8249538Y-10621150D01*
X8249538Y-10581150D02*
X8209538Y-10621150D01*
X8298500Y-11105200D02*
X8338500Y-11145200D01*
X8338500Y-11105200D02*
X8298500Y-11145200D01*
X8387400Y-10584500D02*
X8427400Y-10624500D01*
X8427400Y-10584500D02*
X8387400Y-10624500D01*
X8489000Y-5695000D02*
X8529000Y-5735000D01*
X8529000Y-5695000D02*
X8489000Y-5735000D01*
X8489000Y-7066600D02*
X8529000Y-7106600D01*
X8529000Y-7066600D02*
X8489000Y-7106600D01*
X8489000Y-10559100D02*
X8529000Y-10599100D01*
X8529000Y-10559100D02*
X8489000Y-10599100D01*
X8561399Y-9047800D02*
X8601399Y-9087800D01*
X8601399Y-9047800D02*
X8561399Y-9087800D01*
X8577900Y-6647500D02*
X8617900Y-6687500D01*
X8617900Y-6647500D02*
X8577900Y-6687500D01*
X8590600Y-7142800D02*
X8630600Y-7182800D01*
X8630600Y-7142800D02*
X8590600Y-7182800D01*
X8628700Y-11054400D02*
X8668700Y-11094400D01*
X8668700Y-11054400D02*
X8628700Y-11094400D01*
X8679500Y-2710500D02*
X8719500Y-2750500D01*
X8719500Y-2710500D02*
X8679500Y-2750500D01*
X8679500Y-8768400D02*
X8719500Y-8808400D01*
X8719500Y-8768400D02*
X8679500Y-8808400D01*
X8679500Y-10470200D02*
X8719500Y-10510200D01*
X8719500Y-10470200D02*
X8679500Y-10510200D01*
X8686600Y-3694000D02*
X8726600Y-3734000D01*
X8726600Y-3694000D02*
X8686600Y-3734000D01*
X8743000Y-5720400D02*
X8783000Y-5760400D01*
X8783000Y-5720400D02*
X8743000Y-5760400D01*
X8749350Y-6126800D02*
X8789350Y-6166800D01*
X8789350Y-6126800D02*
X8749350Y-6166800D01*
X8793800Y-8412800D02*
X8833800Y-8452800D01*
X8833800Y-8412800D02*
X8793800Y-8452800D01*
X8806500Y-9030801D02*
X8846500Y-9070801D01*
X8846500Y-9030801D02*
X8806500Y-9070801D01*
X8844600Y-10571800D02*
X8884600Y-10611800D01*
X8884600Y-10571800D02*
X8844600Y-10611800D01*
X8854502Y-8209600D02*
X8894502Y-8249600D01*
X8894502Y-8209600D02*
X8854502Y-8249600D01*
X8895400Y-5085400D02*
X8935400Y-5125400D01*
X8935400Y-5085400D02*
X8895400Y-5125400D01*
X8901169Y-7048131D02*
X8941169Y-7088131D01*
X8941169Y-7048131D02*
X8901169Y-7088131D01*
X8997000Y-7307900D02*
X9037000Y-7347900D01*
X9037000Y-7307900D02*
X8997000Y-7347900D01*
X9009700Y-7028500D02*
X9049700Y-7068500D01*
X9049700Y-7028500D02*
X9009700Y-7068500D01*
X9060500Y-5250500D02*
X9100500Y-5290500D01*
X9100500Y-5250500D02*
X9060500Y-5290500D01*
X9073200Y-3675700D02*
X9113200Y-3715700D01*
X9113200Y-3675700D02*
X9073200Y-3715700D01*
X9124000Y-4539300D02*
X9164000Y-4579300D01*
X9164000Y-4539300D02*
X9124000Y-4579300D01*
X9124000Y-8641400D02*
X9164000Y-8681400D01*
X9164000Y-8641400D02*
X9124000Y-8681400D01*
X9149400Y-9047800D02*
X9189400Y-9087800D01*
X9189400Y-9047800D02*
X9149400Y-9087800D01*
X9149400Y-9962200D02*
X9189400Y-10002200D01*
X9189400Y-9962200D02*
X9149400Y-10002200D01*
X9162100Y-6774500D02*
X9202100Y-6814500D01*
X9202100Y-6774500D02*
X9162100Y-6814500D01*
X9162101Y-6393500D02*
X9202101Y-6433500D01*
X9202101Y-6393500D02*
X9162101Y-6433500D01*
X9251000Y-3967800D02*
X9291000Y-4007800D01*
X9291000Y-3967800D02*
X9251000Y-4007800D01*
X9263700Y-4221800D02*
X9303700Y-4261800D01*
X9303700Y-4221800D02*
X9263700Y-4261800D01*
X9263700Y-6368100D02*
X9303700Y-6408100D01*
X9303700Y-6368100D02*
X9263700Y-6408100D01*
X9263700Y-6784598D02*
X9303700Y-6824598D01*
X9303700Y-6784598D02*
X9263700Y-6824598D01*
X9289100Y-10432100D02*
X9329100Y-10472100D01*
X9329100Y-10432100D02*
X9289100Y-10472100D01*
X9339900Y-9962200D02*
X9379900Y-10002200D01*
X9379900Y-9962200D02*
X9339900Y-10002200D01*
X9373700Y-7210600D02*
X9413700Y-7250600D01*
X9413700Y-7210600D02*
X9373700Y-7250600D01*
X9505000Y-9962200D02*
X9545000Y-10002200D01*
X9545000Y-9962200D02*
X9505000Y-10002200D01*
X9543100Y-2697800D02*
X9583100Y-2737800D01*
X9583100Y-2697800D02*
X9543100Y-2737800D01*
X9543100Y-7219000D02*
X9583100Y-7259000D01*
X9583100Y-7219000D02*
X9543100Y-7259000D01*
X9593900Y-9174800D02*
X9633900Y-9214800D01*
X9633900Y-9174800D02*
X9593900Y-9214800D01*
X9670100Y-9505000D02*
X9710100Y-9545000D01*
X9710100Y-9505000D02*
X9670100Y-9545000D01*
X9670100Y-10521000D02*
X9710100Y-10561000D01*
X9710100Y-10521000D02*
X9670100Y-10561000D01*
X9670100Y-11232200D02*
X9710100Y-11272200D01*
X9710100Y-11232200D02*
X9670100Y-11272200D01*
X9695500Y-10698800D02*
X9735500Y-10738800D01*
X9735500Y-10698800D02*
X9695500Y-10738800D01*
X9695500Y-10851200D02*
X9735500Y-10891200D01*
X9735500Y-10851200D02*
X9695500Y-10891200D01*
X9759000Y-8222300D02*
X9799000Y-8262300D01*
X9799000Y-8222300D02*
X9759000Y-8262300D01*
X9797100Y-9530400D02*
X9837100Y-9570400D01*
X9837100Y-9530400D02*
X9797100Y-9570400D01*
X9924100Y-3116900D02*
X9964100Y-3156900D01*
X9964100Y-3116900D02*
X9924100Y-3156900D01*
X10101900Y-9987600D02*
X10141900Y-10027600D01*
X10141900Y-9987600D02*
X10101900Y-10027600D01*
X10254300Y-10521000D02*
X10294300Y-10561000D01*
X10294300Y-10521000D02*
X10254300Y-10561000D01*
X10406700Y-9987600D02*
X10446700Y-10027600D01*
X10446700Y-9987600D02*
X10406700Y-10027600D01*
X10452449Y-2660999D02*
X10492449Y-2700999D01*
X10492449Y-2660999D02*
X10452449Y-2700999D01*
X10597200Y-3434400D02*
X10637200Y-3474400D01*
X10637200Y-3434400D02*
X10597200Y-3474400D01*
X10597200Y-7130100D02*
X10637200Y-7170100D01*
X10637200Y-7130100D02*
X10597200Y-7170100D01*
X10698800Y-7028500D02*
X10738800Y-7068500D01*
X10738800Y-7028500D02*
X10698800Y-7068500D01*
X10711500Y-4526600D02*
X10751500Y-4566600D01*
X10751500Y-4526600D02*
X10711500Y-4566600D01*
X10790000Y-3144600D02*
X10830000Y-3184600D01*
X10830000Y-3144600D02*
X10790000Y-3184600D01*
X10790000Y-3504830D02*
X10830000Y-3544830D01*
X10830000Y-3504830D02*
X10790000Y-3544830D01*
X10800400Y-2913700D02*
X10840400Y-2953700D01*
X10840400Y-2913700D02*
X10800400Y-2953700D01*
X10806750Y-2754701D02*
X10846750Y-2794701D01*
X10846750Y-2754701D02*
X10806750Y-2794701D01*
X10825800Y-3688400D02*
X10865800Y-3728400D01*
X10865800Y-3688400D02*
X10825800Y-3728400D01*
X10856500Y-7429600D02*
X10896500Y-7469600D01*
X10896500Y-7429600D02*
X10856500Y-7469600D01*
X10902000Y-2913700D02*
X10942000Y-2953700D01*
X10942000Y-2913700D02*
X10902000Y-2953700D01*
X11029000Y-3663000D02*
X11069000Y-3703000D01*
X11069000Y-3663000D02*
X11029000Y-3703000D01*
X11029000Y-4475800D02*
X11069000Y-4515800D01*
X11069000Y-4475800D02*
X11029000Y-4515800D01*
X11156000Y-4552000D02*
X11196000Y-4592000D01*
X11196000Y-4552000D02*
X11156000Y-4592000D01*
X11189509Y-3628227D02*
X11229509Y-3668227D01*
X11229509Y-3628227D02*
X11189509Y-3668227D01*
X12216450Y-2996250D02*
X12256450Y-3036250D01*
X12256450Y-2996250D02*
X12216450Y-3036250D01*
X12489500Y-2691450D02*
X12529500Y-2731450D01*
X12529500Y-2691450D02*
X12489500Y-2731450D01*
X13251500Y-2672400D02*
X13291500Y-2712400D01*
X13291500Y-2672400D02*
X13251500Y-2712400D01*
X7914000Y-2921000D02*
G75*
G03*
X7914000Y-2921000I-40000J0D01*
G01*
X8164000Y-2921000D02*
G75*
G03*
X8164000Y-2921000I-40000J0D01*
G01*
X11410500Y-2921000D02*
G75*
G03*
X11410500Y-2921000I-40000J0D01*
G01*
X11660500Y-2921000D02*
G75*
G03*
X11660500Y-2921000I-40000J0D01*
G01*
X3365500Y-10115000D02*
X3365500Y-10205000D01*
X3320500Y-10160000D02*
X3410500Y-10160000D01*
X3365500Y-10369000D02*
X3365500Y-10459000D01*
X3320500Y-10414000D02*
X3410500Y-10414000D01*
X10731500Y-10115000D02*
X10731500Y-10205000D01*
X10686500Y-10160000D02*
X10776500Y-10160000D01*
X10731500Y-10369000D02*
X10731500Y-10459000D01*
X10686500Y-10414000D02*
X10776500Y-10414000D01*
X733856Y-2837356D02*
X733856Y-2766644D01*
X663144Y-2766644D01*
X663144Y-2837356D01*
X733856Y-2837356D01*
X733856Y-3337356D02*
X733856Y-3266644D01*
X663144Y-3266644D01*
X663144Y-3337356D01*
X733856Y-3337356D01*
X733856Y-3845356D02*
X733856Y-3774644D01*
X663144Y-3774644D01*
X663144Y-3845356D01*
X733856Y-3845356D01*
X733856Y-4099356D02*
X733856Y-4028644D01*
X663144Y-4028644D01*
X663144Y-4099356D01*
X733856Y-4099356D01*
X733856Y-4353356D02*
X733856Y-4282644D01*
X663144Y-4282644D01*
X663144Y-4353356D01*
X733856Y-4353356D01*
X733856Y-4607356D02*
X733856Y-4536644D01*
X663144Y-4536644D01*
X663144Y-4607356D01*
X733856Y-4607356D01*
X733856Y-6639356D02*
X733856Y-6568644D01*
X663144Y-6568644D01*
X663144Y-6639356D01*
X733856Y-6639356D01*
X733856Y-6893356D02*
X733856Y-6822644D01*
X663144Y-6822644D01*
X663144Y-6893356D01*
X733856Y-6893356D01*
X733856Y-7147356D02*
X733856Y-7076644D01*
X663144Y-7076644D01*
X663144Y-7147356D01*
X733856Y-7147356D01*
X733856Y-7401356D02*
X733856Y-7330644D01*
X663144Y-7330644D01*
X663144Y-7401356D01*
X733856Y-7401356D01*
X733856Y-7655356D02*
X733856Y-7584644D01*
X663144Y-7584644D01*
X663144Y-7655356D01*
X733856Y-7655356D01*
X733856Y-7909356D02*
X733856Y-7838644D01*
X663144Y-7838644D01*
X663144Y-7909356D01*
X733856Y-7909356D01*
X733856Y-8163356D02*
X733856Y-8092644D01*
X663144Y-8092644D01*
X663144Y-8163356D01*
X733856Y-8163356D01*
X733856Y-8417356D02*
X733856Y-8346644D01*
X663144Y-8346644D01*
X663144Y-8417356D01*
X733856Y-8417356D01*
X1233856Y-3087356D02*
X1233856Y-3016644D01*
X1163144Y-3016644D01*
X1163144Y-3087356D01*
X1233856Y-3087356D01*
X1372856Y-4480356D02*
X1372856Y-4409644D01*
X1302144Y-4409644D01*
X1302144Y-4480356D01*
X1372856Y-4480356D01*
X1372856Y-6639356D02*
X1372856Y-6568644D01*
X1302144Y-6568644D01*
X1302144Y-6639356D01*
X1372856Y-6639356D01*
X1372856Y-8798356D02*
X1372856Y-8727644D01*
X1302144Y-8727644D01*
X1302144Y-8798356D01*
X1372856Y-8798356D01*
X1622856Y-4480356D02*
X1622856Y-4409644D01*
X1552144Y-4409644D01*
X1552144Y-4480356D01*
X1622856Y-4480356D01*
X1622856Y-6639356D02*
X1622856Y-6568644D01*
X1552144Y-6568644D01*
X1552144Y-6639356D01*
X1622856Y-6639356D01*
X1622856Y-8798356D02*
X1622856Y-8727644D01*
X1552144Y-8727644D01*
X1552144Y-8798356D01*
X1622856Y-8798356D01*
X1872856Y-4480356D02*
X1872856Y-4409644D01*
X1802144Y-4409644D01*
X1802144Y-4480356D01*
X1872856Y-4480356D01*
X1872856Y-6639356D02*
X1872856Y-6568644D01*
X1802144Y-6568644D01*
X1802144Y-6639356D01*
X1872856Y-6639356D01*
X1872856Y-8798356D02*
X1872856Y-8727644D01*
X1802144Y-8727644D01*
X1802144Y-8798356D01*
X1872856Y-8798356D01*
X2257856Y-2833356D02*
X2257856Y-2762644D01*
X2187144Y-2762644D01*
X2187144Y-2833356D01*
X2257856Y-2833356D01*
X2257856Y-3333356D02*
X2257856Y-3262644D01*
X2187144Y-3262644D01*
X2187144Y-3333356D01*
X2257856Y-3333356D01*
X2757856Y-3083356D02*
X2757856Y-3012644D01*
X2687144Y-3012644D01*
X2687144Y-3083356D01*
X2757856Y-3083356D01*
X3400856Y-10830356D02*
X3400856Y-10759644D01*
X3330144Y-10759644D01*
X3330144Y-10830356D01*
X3400856Y-10830356D01*
X3400856Y-11084356D02*
X3400856Y-11013644D01*
X3330144Y-11013644D01*
X3330144Y-11084356D01*
X3400856Y-11084356D01*
X3789856Y-2833356D02*
X3789856Y-2762644D01*
X3719144Y-2762644D01*
X3719144Y-2833356D01*
X3789856Y-2833356D01*
X3789856Y-3333356D02*
X3789856Y-3262644D01*
X3719144Y-3262644D01*
X3719144Y-3333356D01*
X3789856Y-3333356D01*
X4166856Y-4480356D02*
X4166856Y-4409644D01*
X4096144Y-4409644D01*
X4096144Y-4480356D01*
X4166856Y-4480356D01*
X4166856Y-4730356D02*
X4166856Y-4659644D01*
X4096144Y-4659644D01*
X4096144Y-4730356D01*
X4166856Y-4730356D01*
X4166856Y-6643356D02*
X4166856Y-6572644D01*
X4096144Y-6572644D01*
X4096144Y-6643356D01*
X4166856Y-6643356D01*
X4166856Y-6893356D02*
X4166856Y-6822644D01*
X4096144Y-6822644D01*
X4096144Y-6893356D01*
X4166856Y-6893356D01*
X4289856Y-3083356D02*
X4289856Y-3012644D01*
X4219144Y-3012644D01*
X4219144Y-3083356D01*
X4289856Y-3083356D01*
X4416856Y-4480356D02*
X4416856Y-4409644D01*
X4346144Y-4409644D01*
X4346144Y-4480356D01*
X4416856Y-4480356D01*
X4416856Y-4730356D02*
X4416856Y-4659644D01*
X4346144Y-4659644D01*
X4346144Y-4730356D01*
X4416856Y-4730356D01*
X4416856Y-6643356D02*
X4416856Y-6572644D01*
X4346144Y-6572644D01*
X4346144Y-6643356D01*
X4416856Y-6643356D01*
X4416856Y-6893356D02*
X4416856Y-6822644D01*
X4346144Y-6822644D01*
X4346144Y-6893356D01*
X4416856Y-6893356D01*
X4666856Y-4480356D02*
X4666856Y-4409644D01*
X4596144Y-4409644D01*
X4596144Y-4480356D01*
X4666856Y-4480356D01*
X4666856Y-4730356D02*
X4666856Y-4659644D01*
X4596144Y-4659644D01*
X4596144Y-4730356D01*
X4666856Y-4730356D01*
X4666856Y-6643356D02*
X4666856Y-6572644D01*
X4596144Y-6572644D01*
X4596144Y-6643356D01*
X4666856Y-6643356D01*
X4666856Y-6893356D02*
X4666856Y-6822644D01*
X4596144Y-6822644D01*
X4596144Y-6893356D01*
X4666856Y-6893356D01*
X4855856Y-552856D02*
X4855856Y-482144D01*
X4785144Y-482144D01*
X4785144Y-552856D01*
X4855856Y-552856D01*
X4780500Y-442500D02*
X4780500Y-592500D01*
X4860500Y-442500D02*
X4860500Y-592500D01*
X4780500Y-592500D02*
G75*
G03*
X4860500Y-592500I40000J0D01*
G01*
X4860500Y-442500D02*
G75*
G03*
X4780500Y-442500I-40000J0D01*
G01*
X5305856Y-652856D02*
X5305856Y-582144D01*
X5235144Y-582144D01*
X5235144Y-652856D01*
X5305856Y-652856D01*
X5205500Y-657500D02*
X5335500Y-657500D01*
X5205500Y-577500D02*
X5335500Y-577500D01*
X5335500Y-657500D02*
G75*
G03*
X5335500Y-577500I0J40000D01*
G01*
X5205500Y-577500D02*
G75*
G03*
X5205500Y-657500I0J-40000D01*
G01*
X5305856Y-1252856D02*
X5305856Y-1182144D01*
X5235144Y-1182144D01*
X5235144Y-1252856D01*
X5305856Y-1252856D01*
X5170500Y-1257500D02*
X5370500Y-1257500D01*
X5170500Y-1177500D02*
X5370500Y-1177500D01*
X5370500Y-1257500D02*
G75*
G03*
X5370500Y-1177500I0J40000D01*
G01*
X5170500Y-1177500D02*
G75*
G03*
X5170500Y-1257500I0J-40000D01*
G01*
X5313856Y-2833356D02*
X5313856Y-2762644D01*
X5243144Y-2762644D01*
X5243144Y-2833356D01*
X5313856Y-2833356D01*
X5313856Y-3333356D02*
X5313856Y-3262644D01*
X5243144Y-3262644D01*
X5243144Y-3333356D01*
X5313856Y-3333356D01*
X5755856Y-552856D02*
X5755856Y-482144D01*
X5685144Y-482144D01*
X5685144Y-552856D01*
X5755856Y-552856D01*
X5680500Y-442500D02*
X5680500Y-592500D01*
X5760500Y-442500D02*
X5760500Y-592500D01*
X5680500Y-592500D02*
G75*
G03*
X5760500Y-592500I40000J0D01*
G01*
X5760500Y-442500D02*
G75*
G03*
X5680500Y-442500I-40000J0D01*
G01*
X5813856Y-3083356D02*
X5813856Y-3012644D01*
X5743144Y-3012644D01*
X5743144Y-3083356D01*
X5813856Y-3083356D01*
X6067856Y-3845356D02*
X6067856Y-3774644D01*
X5997144Y-3774644D01*
X5997144Y-3845356D01*
X6067856Y-3845356D01*
X6067856Y-4099356D02*
X6067856Y-4028644D01*
X5997144Y-4028644D01*
X5997144Y-4099356D01*
X6067856Y-4099356D01*
X6067856Y-4353356D02*
X6067856Y-4282644D01*
X5997144Y-4282644D01*
X5997144Y-4353356D01*
X6067856Y-4353356D01*
X6067856Y-4607356D02*
X6067856Y-4536644D01*
X5997144Y-4536644D01*
X5997144Y-4607356D01*
X6067856Y-4607356D01*
X6067856Y-7655356D02*
X6067856Y-7584644D01*
X5997144Y-7584644D01*
X5997144Y-7655356D01*
X6067856Y-7655356D01*
X6067856Y-7909356D02*
X6067856Y-7838644D01*
X5997144Y-7838644D01*
X5997144Y-7909356D01*
X6067856Y-7909356D01*
X6067856Y-8163356D02*
X6067856Y-8092644D01*
X5997144Y-8092644D01*
X5997144Y-8163356D01*
X6067856Y-8163356D01*
X6067856Y-8417356D02*
X6067856Y-8346644D01*
X5997144Y-8346644D01*
X5997144Y-8417356D01*
X6067856Y-8417356D01*
X6766356Y-11084356D02*
X6766356Y-11013644D01*
X6695644Y-11013644D01*
X6695644Y-11084356D01*
X6766356Y-11084356D01*
X7020356Y-11084356D02*
X7020356Y-11013644D01*
X6949644Y-11013644D01*
X6949644Y-11084356D01*
X7020356Y-11084356D01*
X7274356Y-11084356D02*
X7274356Y-11013644D01*
X7203644Y-11013644D01*
X7203644Y-11084356D01*
X7274356Y-11084356D01*
X7528356Y-11084356D02*
X7528356Y-11013644D01*
X7457644Y-11013644D01*
X7457644Y-11084356D01*
X7528356Y-11084356D01*
X8099856Y-3845356D02*
X8099856Y-3774644D01*
X8029144Y-3774644D01*
X8029144Y-3845356D01*
X8099856Y-3845356D01*
X8099856Y-4099356D02*
X8099856Y-4028644D01*
X8029144Y-4028644D01*
X8029144Y-4099356D01*
X8099856Y-4099356D01*
X8099856Y-4353356D02*
X8099856Y-4282644D01*
X8029144Y-4282644D01*
X8029144Y-4353356D01*
X8099856Y-4353356D01*
X8099856Y-4607356D02*
X8099856Y-4536644D01*
X8029144Y-4536644D01*
X8029144Y-4607356D01*
X8099856Y-4607356D01*
X8099856Y-6639356D02*
X8099856Y-6568644D01*
X8029144Y-6568644D01*
X8029144Y-6639356D01*
X8099856Y-6639356D01*
X8099856Y-6893356D02*
X8099856Y-6822644D01*
X8029144Y-6822644D01*
X8029144Y-6893356D01*
X8099856Y-6893356D01*
X8099856Y-7147356D02*
X8099856Y-7076644D01*
X8029144Y-7076644D01*
X8029144Y-7147356D01*
X8099856Y-7147356D01*
X8099856Y-7401356D02*
X8099856Y-7330644D01*
X8029144Y-7330644D01*
X8029144Y-7401356D01*
X8099856Y-7401356D01*
X8099856Y-7655356D02*
X8099856Y-7584644D01*
X8029144Y-7584644D01*
X8029144Y-7655356D01*
X8099856Y-7655356D01*
X8099856Y-7909356D02*
X8099856Y-7838644D01*
X8029144Y-7838644D01*
X8029144Y-7909356D01*
X8099856Y-7909356D01*
X8099856Y-8163356D02*
X8099856Y-8092644D01*
X8029144Y-8092644D01*
X8029144Y-8163356D01*
X8099856Y-8163356D01*
X8099856Y-8417356D02*
X8099856Y-8346644D01*
X8029144Y-8346644D01*
X8029144Y-8417356D01*
X8099856Y-8417356D01*
X9627856Y-4480356D02*
X9627856Y-4409644D01*
X9557144Y-4409644D01*
X9557144Y-4480356D01*
X9627856Y-4480356D01*
X9627856Y-6639356D02*
X9627856Y-6568644D01*
X9557144Y-6568644D01*
X9557144Y-6639356D01*
X9627856Y-6639356D01*
X9627856Y-8798356D02*
X9627856Y-8727644D01*
X9557144Y-8727644D01*
X9557144Y-8798356D01*
X9627856Y-8798356D01*
X9877856Y-4480356D02*
X9877856Y-4409644D01*
X9807144Y-4409644D01*
X9807144Y-4480356D01*
X9877856Y-4480356D01*
X9877856Y-6639356D02*
X9877856Y-6568644D01*
X9807144Y-6568644D01*
X9807144Y-6639356D01*
X9877856Y-6639356D01*
X9877856Y-8798356D02*
X9877856Y-8727644D01*
X9807144Y-8727644D01*
X9807144Y-8798356D01*
X9877856Y-8798356D01*
X10127856Y-4480356D02*
X10127856Y-4409644D01*
X10057144Y-4409644D01*
X10057144Y-4480356D01*
X10127856Y-4480356D01*
X10127856Y-6639356D02*
X10127856Y-6568644D01*
X10057144Y-6568644D01*
X10057144Y-6639356D01*
X10127856Y-6639356D01*
X10127856Y-8798356D02*
X10127856Y-8727644D01*
X10057144Y-8727644D01*
X10057144Y-8798356D01*
X10127856Y-8798356D01*
X10766856Y-10830356D02*
X10766856Y-10759644D01*
X10696144Y-10759644D01*
X10696144Y-10830356D01*
X10766856Y-10830356D01*
X10766856Y-11084356D02*
X10766856Y-11013644D01*
X10696144Y-11013644D01*
X10696144Y-11084356D01*
X10766856Y-11084356D01*
X12294856Y-4480356D02*
X12294856Y-4409644D01*
X12224144Y-4409644D01*
X12224144Y-4480356D01*
X12294856Y-4480356D01*
X12294856Y-6639356D02*
X12294856Y-6568644D01*
X12224144Y-6568644D01*
X12224144Y-6639356D01*
X12294856Y-6639356D01*
X12294856Y-8798356D02*
X12294856Y-8727644D01*
X12224144Y-8727644D01*
X12224144Y-8798356D01*
X12294856Y-8798356D01*
X12544856Y-4480356D02*
X12544856Y-4409644D01*
X12474144Y-4409644D01*
X12474144Y-4480356D01*
X12544856Y-4480356D01*
X12544856Y-6639356D02*
X12544856Y-6568644D01*
X12474144Y-6568644D01*
X12474144Y-6639356D01*
X12544856Y-6639356D01*
X12544856Y-8798356D02*
X12544856Y-8727644D01*
X12474144Y-8727644D01*
X12474144Y-8798356D01*
X12544856Y-8798356D01*
X12794856Y-4480356D02*
X12794856Y-4409644D01*
X12724144Y-4409644D01*
X12724144Y-4480356D01*
X12794856Y-4480356D01*
X12794856Y-6639356D02*
X12794856Y-6568644D01*
X12724144Y-6568644D01*
X12724144Y-6639356D01*
X12794856Y-6639356D01*
X12794856Y-8798356D02*
X12794856Y-8727644D01*
X12724144Y-8727644D01*
X12724144Y-8798356D01*
X12794856Y-8798356D01*
X13433856Y-3845356D02*
X13433856Y-3774644D01*
X13363144Y-3774644D01*
X13363144Y-3845356D01*
X13433856Y-3845356D01*
X13433856Y-4099356D02*
X13433856Y-4028644D01*
X13363144Y-4028644D01*
X13363144Y-4099356D01*
X13433856Y-4099356D01*
X13433856Y-4353356D02*
X13433856Y-4282644D01*
X13363144Y-4282644D01*
X13363144Y-4353356D01*
X13433856Y-4353356D01*
X13433856Y-4607356D02*
X13433856Y-4536644D01*
X13363144Y-4536644D01*
X13363144Y-4607356D01*
X13433856Y-4607356D01*
X13433856Y-7655356D02*
X13433856Y-7584644D01*
X13363144Y-7584644D01*
X13363144Y-7655356D01*
X13433856Y-7655356D01*
X13433856Y-7909356D02*
X13433856Y-7838644D01*
X13363144Y-7838644D01*
X13363144Y-7909356D01*
X13433856Y-7909356D01*
X13433856Y-8163356D02*
X13433856Y-8092644D01*
X13363144Y-8092644D01*
X13363144Y-8163356D01*
X13433856Y-8163356D01*
X13433856Y-8417356D02*
X13433856Y-8346644D01*
X13363144Y-8346644D01*
X13363144Y-8417356D01*
X13433856Y-8417356D01*
X1107500Y-3750000D02*
X1162500Y-3695000D01*
X1107500Y-3640000D01*
X1052500Y-3695000D01*
X1107500Y-3750000D01*
X1152500Y-3730000D02*
X1152500Y-3660000D01*
X1062500Y-3730000D02*
X1062500Y-3660000D01*
X1152500Y-3660000D02*
G75*
G03*
X1062500Y-3660000I-45000J0D01*
G01*
X1062500Y-3730000D02*
G75*
G03*
X1152500Y-3730000I45000J0D01*
G01*
X1107500Y-5909000D02*
X1162500Y-5854000D01*
X1107500Y-5799000D01*
X1052500Y-5854000D01*
X1107500Y-5909000D01*
X1152500Y-5889000D02*
X1152500Y-5819000D01*
X1062500Y-5889000D02*
X1062500Y-5819000D01*
X1152500Y-5819000D02*
G75*
G03*
X1062500Y-5819000I-45000J0D01*
G01*
X1062500Y-5889000D02*
G75*
G03*
X1152500Y-5889000I45000J0D01*
G01*
X1107500Y-8068000D02*
X1162500Y-8013000D01*
X1107500Y-7958000D01*
X1052500Y-8013000D01*
X1107500Y-8068000D01*
X1152500Y-8048000D02*
X1152500Y-7978000D01*
X1062500Y-8048000D02*
X1062500Y-7978000D01*
X1152500Y-7978000D02*
G75*
G03*
X1062500Y-7978000I-45000J0D01*
G01*
X1062500Y-8048000D02*
G75*
G03*
X1152500Y-8048000I45000J0D01*
G01*
X2067500Y-3750000D02*
X2122500Y-3695000D01*
X2067500Y-3640000D01*
X2012500Y-3695000D01*
X2067500Y-3750000D01*
X2112500Y-3730000D02*
X2112500Y-3660000D01*
X2022500Y-3730000D02*
X2022500Y-3660000D01*
X2112500Y-3660000D02*
G75*
G03*
X2022500Y-3660000I-45000J0D01*
G01*
X2022500Y-3730000D02*
G75*
G03*
X2112500Y-3730000I45000J0D01*
G01*
X2067500Y-5909000D02*
X2122500Y-5854000D01*
X2067500Y-5799000D01*
X2012500Y-5854000D01*
X2067500Y-5909000D01*
X2112500Y-5889000D02*
X2112500Y-5819000D01*
X2022500Y-5889000D02*
X2022500Y-5819000D01*
X2112500Y-5819000D02*
G75*
G03*
X2022500Y-5819000I-45000J0D01*
G01*
X2022500Y-5889000D02*
G75*
G03*
X2112500Y-5889000I45000J0D01*
G01*
X2067500Y-8068000D02*
X2122500Y-8013000D01*
X2067500Y-7958000D01*
X2012500Y-8013000D01*
X2067500Y-8068000D01*
X2112500Y-8048000D02*
X2112500Y-7978000D01*
X2022500Y-8048000D02*
X2022500Y-7978000D01*
X2112500Y-7978000D02*
G75*
G03*
X2022500Y-7978000I-45000J0D01*
G01*
X2022500Y-8048000D02*
G75*
G03*
X2112500Y-8048000I45000J0D01*
G01*
X3906500Y-3750000D02*
X3961500Y-3695000D01*
X3906500Y-3640000D01*
X3851500Y-3695000D01*
X3906500Y-3750000D01*
X3951500Y-3730000D02*
X3951500Y-3660000D01*
X3861500Y-3730000D02*
X3861500Y-3660000D01*
X3951500Y-3660000D02*
G75*
G03*
X3861500Y-3660000I-45000J0D01*
G01*
X3861500Y-3730000D02*
G75*
G03*
X3951500Y-3730000I45000J0D01*
G01*
X3906500Y-5913000D02*
X3961500Y-5858000D01*
X3906500Y-5803000D01*
X3851500Y-5858000D01*
X3906500Y-5913000D01*
X3951500Y-5893000D02*
X3951500Y-5823000D01*
X3861500Y-5893000D02*
X3861500Y-5823000D01*
X3951500Y-5823000D02*
G75*
G03*
X3861500Y-5823000I-45000J0D01*
G01*
X3861500Y-5893000D02*
G75*
G03*
X3951500Y-5893000I45000J0D01*
G01*
X4856500Y-3750000D02*
X4911500Y-3695000D01*
X4856500Y-3640000D01*
X4801500Y-3695000D01*
X4856500Y-3750000D01*
X4901500Y-3730000D02*
X4901500Y-3660000D01*
X4811500Y-3730000D02*
X4811500Y-3660000D01*
X4901500Y-3660000D02*
G75*
G03*
X4811500Y-3660000I-45000J0D01*
G01*
X4811500Y-3730000D02*
G75*
G03*
X4901500Y-3730000I45000J0D01*
G01*
X4856500Y-5913000D02*
X4911500Y-5858000D01*
X4856500Y-5803000D01*
X4801500Y-5858000D01*
X4856500Y-5913000D01*
X4901500Y-5893000D02*
X4901500Y-5823000D01*
X4811500Y-5893000D02*
X4811500Y-5823000D01*
X4901500Y-5823000D02*
G75*
G03*
X4811500Y-5823000I-45000J0D01*
G01*
X4811500Y-5893000D02*
G75*
G03*
X4901500Y-5893000I45000J0D01*
G01*
X9362500Y-3750000D02*
X9417500Y-3695000D01*
X9362500Y-3640000D01*
X9307500Y-3695000D01*
X9362500Y-3750000D01*
X9407500Y-3730000D02*
X9407500Y-3660000D01*
X9317500Y-3730000D02*
X9317500Y-3660000D01*
X9407500Y-3660000D02*
G75*
G03*
X9317500Y-3660000I-45000J0D01*
G01*
X9317500Y-3730000D02*
G75*
G03*
X9407500Y-3730000I45000J0D01*
G01*
X9362500Y-5909000D02*
X9417500Y-5854000D01*
X9362500Y-5799000D01*
X9307500Y-5854000D01*
X9362500Y-5909000D01*
X9407500Y-5889000D02*
X9407500Y-5819000D01*
X9317500Y-5889000D02*
X9317500Y-5819000D01*
X9407500Y-5819000D02*
G75*
G03*
X9317500Y-5819000I-45000J0D01*
G01*
X9317500Y-5889000D02*
G75*
G03*
X9407500Y-5889000I45000J0D01*
G01*
X9362500Y-8068000D02*
X9417500Y-8013000D01*
X9362500Y-7958000D01*
X9307500Y-8013000D01*
X9362500Y-8068000D01*
X9407500Y-8048000D02*
X9407500Y-7978000D01*
X9317500Y-8048000D02*
X9317500Y-7978000D01*
X9407500Y-7978000D02*
G75*
G03*
X9317500Y-7978000I-45000J0D01*
G01*
X9317500Y-8048000D02*
G75*
G03*
X9407500Y-8048000I45000J0D01*
G01*
X10322500Y-3750000D02*
X10377500Y-3695000D01*
X10322500Y-3640000D01*
X10267500Y-3695000D01*
X10322500Y-3750000D01*
X10367500Y-3730000D02*
X10367500Y-3660000D01*
X10277500Y-3730000D02*
X10277500Y-3660000D01*
X10367500Y-3660000D02*
G75*
G03*
X10277500Y-3660000I-45000J0D01*
G01*
X10277500Y-3730000D02*
G75*
G03*
X10367500Y-3730000I45000J0D01*
G01*
X10322500Y-5909000D02*
X10377500Y-5854000D01*
X10322500Y-5799000D01*
X10267500Y-5854000D01*
X10322500Y-5909000D01*
X10367500Y-5889000D02*
X10367500Y-5819000D01*
X10277500Y-5889000D02*
X10277500Y-5819000D01*
X10367500Y-5819000D02*
G75*
G03*
X10277500Y-5819000I-45000J0D01*
G01*
X10277500Y-5889000D02*
G75*
G03*
X10367500Y-5889000I45000J0D01*
G01*
X10322500Y-8068000D02*
X10377500Y-8013000D01*
X10322500Y-7958000D01*
X10267500Y-8013000D01*
X10322500Y-8068000D01*
X10367500Y-8048000D02*
X10367500Y-7978000D01*
X10277500Y-8048000D02*
X10277500Y-7978000D01*
X10367500Y-7978000D02*
G75*
G03*
X10277500Y-7978000I-45000J0D01*
G01*
X10277500Y-8048000D02*
G75*
G03*
X10367500Y-8048000I45000J0D01*
G01*
X12029500Y-3750000D02*
X12084500Y-3695000D01*
X12029500Y-3640000D01*
X11974500Y-3695000D01*
X12029500Y-3750000D01*
X12074500Y-3730000D02*
X12074500Y-3660000D01*
X11984500Y-3730000D02*
X11984500Y-3660000D01*
X12074500Y-3660000D02*
G75*
G03*
X11984500Y-3660000I-45000J0D01*
G01*
X11984500Y-3730000D02*
G75*
G03*
X12074500Y-3730000I45000J0D01*
G01*
X12029500Y-5909000D02*
X12084500Y-5854000D01*
X12029500Y-5799000D01*
X11974500Y-5854000D01*
X12029500Y-5909000D01*
X12074500Y-5889000D02*
X12074500Y-5819000D01*
X11984500Y-5889000D02*
X11984500Y-5819000D01*
X12074500Y-5819000D02*
G75*
G03*
X11984500Y-5819000I-45000J0D01*
G01*
X11984500Y-5889000D02*
G75*
G03*
X12074500Y-5889000I45000J0D01*
G01*
X12029500Y-8068000D02*
X12084500Y-8013000D01*
X12029500Y-7958000D01*
X11974500Y-8013000D01*
X12029500Y-8068000D01*
X12074500Y-8048000D02*
X12074500Y-7978000D01*
X11984500Y-8048000D02*
X11984500Y-7978000D01*
X12074500Y-7978000D02*
G75*
G03*
X11984500Y-7978000I-45000J0D01*
G01*
X11984500Y-8048000D02*
G75*
G03*
X12074500Y-8048000I45000J0D01*
G01*
X12989500Y-3750000D02*
X13044500Y-3695000D01*
X12989500Y-3640000D01*
X12934500Y-3695000D01*
X12989500Y-3750000D01*
X13034500Y-3730000D02*
X13034500Y-3660000D01*
X12944500Y-3730000D02*
X12944500Y-3660000D01*
X13034500Y-3660000D02*
G75*
G03*
X12944500Y-3660000I-45000J0D01*
G01*
X12944500Y-3730000D02*
G75*
G03*
X13034500Y-3730000I45000J0D01*
G01*
X12989500Y-5909000D02*
X13044500Y-5854000D01*
X12989500Y-5799000D01*
X12934500Y-5854000D01*
X12989500Y-5909000D01*
X13034500Y-5889000D02*
X13034500Y-5819000D01*
X12944500Y-5889000D02*
X12944500Y-5819000D01*
X13034500Y-5819000D02*
G75*
G03*
X12944500Y-5819000I-45000J0D01*
G01*
X12944500Y-5889000D02*
G75*
G03*
X13034500Y-5889000I45000J0D01*
G01*
X12989500Y-8068000D02*
X13044500Y-8013000D01*
X12989500Y-7958000D01*
X12934500Y-8013000D01*
X12989500Y-8068000D01*
X13034500Y-8048000D02*
X13034500Y-7978000D01*
X12944500Y-8048000D02*
X12944500Y-7978000D01*
X13034500Y-7978000D02*
G75*
G03*
X12944500Y-7978000I-45000J0D01*
G01*
X12944500Y-8048000D02*
G75*
G03*
X13034500Y-8048000I45000J0D01*
G01*
X1004500Y-433000D02*
X1154500Y-583000D01*
X1154500Y-433000D02*
X1004500Y-583000D01*
X1154500Y-508000D02*
G75*
G03*
X1154500Y-508000I-75000J0D01*
G01*
X1004500Y-1068000D02*
X1154500Y-1218000D01*
X1154500Y-1068000D02*
X1004500Y-1218000D01*
X1154500Y-1143000D02*
G75*
G03*
X1154500Y-1143000I-75000J0D01*
G01*
X1004500Y-1703000D02*
X1154500Y-1853000D01*
X1154500Y-1703000D02*
X1004500Y-1853000D01*
X1154500Y-1778000D02*
G75*
G03*
X1154500Y-1778000I-75000J0D01*
G01*
X2147500Y-433000D02*
X2297500Y-583000D01*
X2297500Y-433000D02*
X2147500Y-583000D01*
X2297500Y-508000D02*
G75*
G03*
X2297500Y-508000I-75000J0D01*
G01*
X2147500Y-1068000D02*
X2297500Y-1218000D01*
X2297500Y-1068000D02*
X2147500Y-1218000D01*
X2297500Y-1143000D02*
G75*
G03*
X2297500Y-1143000I-75000J0D01*
G01*
X2147500Y-1703000D02*
X2297500Y-1853000D01*
X2297500Y-1703000D02*
X2147500Y-1853000D01*
X2297500Y-1778000D02*
G75*
G03*
X2297500Y-1778000I-75000J0D01*
G01*
X2782500Y-433000D02*
X2932500Y-583000D01*
X2932500Y-433000D02*
X2782500Y-583000D01*
X2932500Y-508000D02*
G75*
G03*
X2932500Y-508000I-75000J0D01*
G01*
X2782500Y-1068000D02*
X2932500Y-1218000D01*
X2932500Y-1068000D02*
X2782500Y-1218000D01*
X2932500Y-1143000D02*
G75*
G03*
X2932500Y-1143000I-75000J0D01*
G01*
X2782500Y-1703000D02*
X2932500Y-1853000D01*
X2932500Y-1703000D02*
X2782500Y-1853000D01*
X2932500Y-1778000D02*
G75*
G03*
X2932500Y-1778000I-75000J0D01*
G01*
X3925500Y-433000D02*
X4075500Y-583000D01*
X4075500Y-433000D02*
X3925500Y-583000D01*
X4075500Y-508000D02*
G75*
G03*
X4075500Y-508000I-75000J0D01*
G01*
X3925500Y-1068000D02*
X4075500Y-1218000D01*
X4075500Y-1068000D02*
X3925500Y-1218000D01*
X4075500Y-1143000D02*
G75*
G03*
X4075500Y-1143000I-75000J0D01*
G01*
X3925500Y-1703000D02*
X4075500Y-1853000D01*
X4075500Y-1703000D02*
X3925500Y-1853000D01*
X4075500Y-1778000D02*
G75*
G03*
X4075500Y-1778000I-75000J0D01*
G01*
X6465500Y-433000D02*
X6615500Y-583000D01*
X6615500Y-433000D02*
X6465500Y-583000D01*
X6615500Y-508000D02*
G75*
G03*
X6615500Y-508000I-75000J0D01*
G01*
X6465500Y-1068000D02*
X6615500Y-1218000D01*
X6615500Y-1068000D02*
X6465500Y-1218000D01*
X6615500Y-1143000D02*
G75*
G03*
X6615500Y-1143000I-75000J0D01*
G01*
X6465500Y-1703000D02*
X6615500Y-1853000D01*
X6615500Y-1703000D02*
X6465500Y-1853000D01*
X6615500Y-1778000D02*
G75*
G03*
X6615500Y-1778000I-75000J0D01*
G01*
X7608500Y-433000D02*
X7758500Y-583000D01*
X7758500Y-433000D02*
X7608500Y-583000D01*
X7758500Y-508000D02*
G75*
G03*
X7758500Y-508000I-75000J0D01*
G01*
X7608500Y-1068000D02*
X7758500Y-1218000D01*
X7758500Y-1068000D02*
X7608500Y-1218000D01*
X7758500Y-1143000D02*
G75*
G03*
X7758500Y-1143000I-75000J0D01*
G01*
X7608500Y-1703000D02*
X7758500Y-1853000D01*
X7758500Y-1703000D02*
X7608500Y-1853000D01*
X7758500Y-1778000D02*
G75*
G03*
X7758500Y-1778000I-75000J0D01*
G01*
X8243500Y-433000D02*
X8393500Y-583000D01*
X8393500Y-433000D02*
X8243500Y-583000D01*
X8393500Y-508000D02*
G75*
G03*
X8393500Y-508000I-75000J0D01*
G01*
X8243500Y-1068000D02*
X8393500Y-1218000D01*
X8393500Y-1068000D02*
X8243500Y-1218000D01*
X8393500Y-1143000D02*
G75*
G03*
X8393500Y-1143000I-75000J0D01*
G01*
X8243500Y-1703000D02*
X8393500Y-1853000D01*
X8393500Y-1703000D02*
X8243500Y-1853000D01*
X8393500Y-1778000D02*
G75*
G03*
X8393500Y-1778000I-75000J0D01*
G01*
X9386500Y-433000D02*
X9536500Y-583000D01*
X9536500Y-433000D02*
X9386500Y-583000D01*
X9536500Y-508000D02*
G75*
G03*
X9536500Y-508000I-75000J0D01*
G01*
X9386500Y-1068000D02*
X9536500Y-1218000D01*
X9536500Y-1068000D02*
X9386500Y-1218000D01*
X9536500Y-1143000D02*
G75*
G03*
X9536500Y-1143000I-75000J0D01*
G01*
X9386500Y-1703000D02*
X9536500Y-1853000D01*
X9536500Y-1703000D02*
X9386500Y-1853000D01*
X9536500Y-1778000D02*
G75*
G03*
X9536500Y-1778000I-75000J0D01*
G01*
X10021500Y-433000D02*
X10171500Y-583000D01*
X10171500Y-433000D02*
X10021500Y-583000D01*
X10171500Y-508000D02*
G75*
G03*
X10171500Y-508000I-75000J0D01*
G01*
X10021500Y-1068000D02*
X10171500Y-1218000D01*
X10171500Y-1068000D02*
X10021500Y-1218000D01*
X10171500Y-1143000D02*
G75*
G03*
X10171500Y-1143000I-75000J0D01*
G01*
X10021500Y-1703000D02*
X10171500Y-1853000D01*
X10171500Y-1703000D02*
X10021500Y-1853000D01*
X10171500Y-1778000D02*
G75*
G03*
X10171500Y-1778000I-75000J0D01*
G01*
X11164500Y-433000D02*
X11314500Y-583000D01*
X11314500Y-433000D02*
X11164500Y-583000D01*
X11314500Y-508000D02*
G75*
G03*
X11314500Y-508000I-75000J0D01*
G01*
X11164500Y-1068000D02*
X11314500Y-1218000D01*
X11314500Y-1068000D02*
X11164500Y-1218000D01*
X11314500Y-1143000D02*
G75*
G03*
X11314500Y-1143000I-75000J0D01*
G01*
X11164500Y-1703000D02*
X11314500Y-1853000D01*
X11314500Y-1703000D02*
X11164500Y-1853000D01*
X11314500Y-1778000D02*
G75*
G03*
X11314500Y-1778000I-75000J0D01*
G01*
X11799500Y-433000D02*
X11949500Y-583000D01*
X11949500Y-433000D02*
X11799500Y-583000D01*
X11949500Y-508000D02*
G75*
G03*
X11949500Y-508000I-75000J0D01*
G01*
X11799500Y-1068000D02*
X11949500Y-1218000D01*
X11949500Y-1068000D02*
X11799500Y-1218000D01*
X11949500Y-1143000D02*
G75*
G03*
X11949500Y-1143000I-75000J0D01*
G01*
X11799500Y-1703000D02*
X11949500Y-1853000D01*
X11949500Y-1703000D02*
X11799500Y-1853000D01*
X11949500Y-1778000D02*
G75*
G03*
X11949500Y-1778000I-75000J0D01*
G01*
X12942500Y-433000D02*
X13092500Y-583000D01*
X13092500Y-433000D02*
X12942500Y-583000D01*
X13092500Y-508000D02*
G75*
G03*
X13092500Y-508000I-75000J0D01*
G01*
X12942500Y-1068000D02*
X13092500Y-1218000D01*
X13092500Y-1068000D02*
X12942500Y-1218000D01*
X13092500Y-1143000D02*
G75*
G03*
X13092500Y-1143000I-75000J0D01*
G01*
X12942500Y-1703000D02*
X13092500Y-1853000D01*
X13092500Y-1703000D02*
X12942500Y-1853000D01*
X13092500Y-1778000D02*
G75*
G03*
X13092500Y-1778000I-75000J0D01*
G01*
X4047500Y-7438500D02*
X4232500Y-7623500D01*
X4232500Y-7438500D02*
X4047500Y-7623500D01*
X4140000Y-7438500D02*
X4140000Y-7623500D01*
X4047500Y-7531000D02*
X4232500Y-7531000D01*
X4047500Y-7908500D02*
X4232500Y-8093500D01*
X4232500Y-7908500D02*
X4047500Y-8093500D01*
X4140000Y-7908500D02*
X4140000Y-8093500D01*
X4047500Y-8001000D02*
X4232500Y-8001000D01*
X4047500Y-8378500D02*
X4232500Y-8563500D01*
X4232500Y-8378500D02*
X4047500Y-8563500D01*
X4140000Y-8378500D02*
X4140000Y-8563500D01*
X4047500Y-8471000D02*
X4232500Y-8471000D01*
X4530500Y-7438500D02*
X4715500Y-7623500D01*
X4715500Y-7438500D02*
X4530500Y-7623500D01*
X4623000Y-7438500D02*
X4623000Y-7623500D01*
X4530500Y-7531000D02*
X4715500Y-7531000D01*
X4530500Y-7908500D02*
X4715500Y-8093500D01*
X4715500Y-7908500D02*
X4530500Y-8093500D01*
X4623000Y-7908500D02*
X4623000Y-8093500D01*
X4530500Y-8001000D02*
X4715500Y-8001000D01*
X4530500Y-8378500D02*
X4715500Y-8563500D01*
X4715500Y-8378500D02*
X4530500Y-8563500D01*
X4623000Y-8378500D02*
X4623000Y-8563500D01*
X4530500Y-8471000D02*
X4715500Y-8471000D01*
X6841500Y-3120500D02*
X7026500Y-3305500D01*
X7026500Y-3120500D02*
X6841500Y-3305500D01*
X6934000Y-3120500D02*
X6934000Y-3305500D01*
X6841500Y-3213000D02*
X7026500Y-3213000D01*
X6841500Y-3590500D02*
X7026500Y-3775500D01*
X7026500Y-3590500D02*
X6841500Y-3775500D01*
X6934000Y-3590500D02*
X6934000Y-3775500D01*
X6841500Y-3683000D02*
X7026500Y-3683000D01*
X6841500Y-4060500D02*
X7026500Y-4245500D01*
X7026500Y-4060500D02*
X6841500Y-4245500D01*
X6934000Y-4060500D02*
X6934000Y-4245500D01*
X6841500Y-4153000D02*
X7026500Y-4153000D01*
X7083000Y-5279500D02*
X7268000Y-5464500D01*
X7268000Y-5279500D02*
X7083000Y-5464500D01*
X7175500Y-5279500D02*
X7175500Y-5464500D01*
X7083000Y-5372000D02*
X7268000Y-5372000D01*
X7083000Y-5749500D02*
X7268000Y-5934500D01*
X7268000Y-5749500D02*
X7083000Y-5934500D01*
X7175500Y-5749500D02*
X7175500Y-5934500D01*
X7083000Y-5842000D02*
X7268000Y-5842000D01*
X7083000Y-6219500D02*
X7268000Y-6404500D01*
X7268000Y-6219500D02*
X7083000Y-6404500D01*
X7175500Y-6219500D02*
X7175500Y-6404500D01*
X7083000Y-6312000D02*
X7268000Y-6312000D01*
X7083000Y-7438500D02*
X7268000Y-7623500D01*
X7268000Y-7438500D02*
X7083000Y-7623500D01*
X7175500Y-7438500D02*
X7175500Y-7623500D01*
X7083000Y-7531000D02*
X7268000Y-7531000D01*
X7083000Y-7908500D02*
X7268000Y-8093500D01*
X7268000Y-7908500D02*
X7083000Y-8093500D01*
X7175500Y-7908500D02*
X7175500Y-8093500D01*
X7083000Y-8001000D02*
X7268000Y-8001000D01*
X7083000Y-8378500D02*
X7268000Y-8563500D01*
X7268000Y-8378500D02*
X7083000Y-8563500D01*
X7175500Y-8378500D02*
X7175500Y-8563500D01*
X7083000Y-8471000D02*
X7268000Y-8471000D01*
X7324500Y-3120500D02*
X7509500Y-3305500D01*
X7509500Y-3120500D02*
X7324500Y-3305500D01*
X7417000Y-3120500D02*
X7417000Y-3305500D01*
X7324500Y-3213000D02*
X7509500Y-3213000D01*
X7324500Y-3590500D02*
X7509500Y-3775500D01*
X7509500Y-3590500D02*
X7324500Y-3775500D01*
X7417000Y-3590500D02*
X7417000Y-3775500D01*
X7324500Y-3683000D02*
X7509500Y-3683000D01*
X7324500Y-4060500D02*
X7509500Y-4245500D01*
X7509500Y-4060500D02*
X7324500Y-4245500D01*
X7417000Y-4060500D02*
X7417000Y-4245500D01*
X7324500Y-4153000D02*
X7509500Y-4153000D01*
D12*
X601428Y-11898214D02*
X601428Y-11598214D01*
X672857Y-11598214D01*
X715714Y-11612500D01*
X744286Y-11641071D01*
X758571Y-11669643D01*
X772857Y-11726786D01*
X772857Y-11769643D01*
X758571Y-11826786D01*
X744286Y-11855357D01*
X715714Y-11883929D01*
X672857Y-11898214D01*
X601428Y-11898214D01*
X901428Y-11898214D02*
X901428Y-11698214D01*
X901428Y-11755357D02*
X915714Y-11726786D01*
X930000Y-11712500D01*
X958571Y-11698214D01*
X987143Y-11698214D01*
X1087143Y-11898214D02*
X1087143Y-11698214D01*
X1087143Y-11598214D02*
X1072857Y-11612500D01*
X1087143Y-11626786D01*
X1101428Y-11612500D01*
X1087143Y-11598214D01*
X1087143Y-11626786D01*
X1272857Y-11898214D02*
X1244286Y-11883929D01*
X1230000Y-11855357D01*
X1230000Y-11598214D01*
X1430000Y-11898214D02*
X1401428Y-11883929D01*
X1387143Y-11855357D01*
X1387143Y-11598214D01*
X1772857Y-11898214D02*
X1772857Y-11598214D01*
X1872857Y-11812500D01*
X1972857Y-11598214D01*
X1972857Y-11898214D01*
X2244286Y-11898214D02*
X2244286Y-11741071D01*
X2230000Y-11712500D01*
X2201428Y-11698214D01*
X2144286Y-11698214D01*
X2115714Y-11712500D01*
X2244286Y-11883929D02*
X2215714Y-11898214D01*
X2144286Y-11898214D01*
X2115714Y-11883929D01*
X2101428Y-11855357D01*
X2101428Y-11826786D01*
X2115714Y-11798214D01*
X2144286Y-11783929D01*
X2215714Y-11783929D01*
X2244286Y-11769643D01*
X2387143Y-11698214D02*
X2387143Y-11998214D01*
X2387143Y-11712500D02*
X2415714Y-11698214D01*
X2472857Y-11698214D01*
X2501428Y-11712500D01*
X2515714Y-11726786D01*
X2530000Y-11755357D01*
X2530000Y-11841071D01*
X2515714Y-11869643D01*
X2501428Y-11883929D01*
X2472857Y-11898214D01*
X2415714Y-11898214D01*
X2387143Y-11883929D01*
X2658571Y-11869643D02*
X2672857Y-11883929D01*
X2658571Y-11898214D01*
X2644286Y-11883929D01*
X2658571Y-11869643D01*
X2658571Y-11898214D01*
X2658571Y-11712500D02*
X2672857Y-11726786D01*
X2658571Y-11741071D01*
X2644286Y-11726786D01*
X2658571Y-11712500D01*
X2658571Y-11741071D01*
X275000Y-12372500D02*
X315000Y-12412500D01*
X315000Y-12372500D02*
X275000Y-12412500D01*
X658571Y-12228214D02*
X687143Y-12228214D01*
X715714Y-12242500D01*
X730000Y-12256786D01*
X744286Y-12285357D01*
X758571Y-12342500D01*
X758571Y-12413929D01*
X744286Y-12471071D01*
X730000Y-12499643D01*
X715714Y-12513929D01*
X687143Y-12528214D01*
X658571Y-12528214D01*
X630000Y-12513929D01*
X615714Y-12499643D01*
X601428Y-12471071D01*
X587143Y-12413929D01*
X587143Y-12342500D01*
X601428Y-12285357D01*
X615714Y-12256786D01*
X630000Y-12242500D01*
X658571Y-12228214D01*
X887143Y-12499643D02*
X901428Y-12513929D01*
X887143Y-12528214D01*
X872857Y-12513929D01*
X887143Y-12499643D01*
X887143Y-12528214D01*
X1158571Y-12328214D02*
X1158571Y-12528214D01*
X1087143Y-12213929D02*
X1015714Y-12428214D01*
X1201428Y-12428214D01*
X1372857Y-12228214D02*
X1401428Y-12228214D01*
X1430000Y-12242500D01*
X1444286Y-12256786D01*
X1458571Y-12285357D01*
X1472857Y-12342500D01*
X1472857Y-12413929D01*
X1458571Y-12471071D01*
X1444286Y-12499643D01*
X1430000Y-12513929D01*
X1401428Y-12528214D01*
X1372857Y-12528214D01*
X1344286Y-12513929D01*
X1330000Y-12499643D01*
X1315714Y-12471071D01*
X1301428Y-12413929D01*
X1301428Y-12342500D01*
X1315714Y-12285357D01*
X1330000Y-12256786D01*
X1344286Y-12242500D01*
X1372857Y-12228214D01*
X1658571Y-12228214D02*
X1687143Y-12228214D01*
X1715714Y-12242500D01*
X1730000Y-12256786D01*
X1744286Y-12285357D01*
X1758571Y-12342500D01*
X1758571Y-12413929D01*
X1744286Y-12471071D01*
X1730000Y-12499643D01*
X1715714Y-12513929D01*
X1687143Y-12528214D01*
X1658571Y-12528214D01*
X1630000Y-12513929D01*
X1615714Y-12499643D01*
X1601428Y-12471071D01*
X1587143Y-12413929D01*
X1587143Y-12342500D01*
X1601428Y-12285357D01*
X1615714Y-12256786D01*
X1630000Y-12242500D01*
X1658571Y-12228214D01*
X1887143Y-12528214D02*
X1887143Y-12328214D01*
X1887143Y-12356786D02*
X1901428Y-12342500D01*
X1930000Y-12328214D01*
X1972857Y-12328214D01*
X2001428Y-12342500D01*
X2015714Y-12371071D01*
X2015714Y-12528214D01*
X2015714Y-12371071D02*
X2030000Y-12342500D01*
X2058571Y-12328214D01*
X2101428Y-12328214D01*
X2130000Y-12342500D01*
X2144286Y-12371071D01*
X2144286Y-12528214D01*
X2287143Y-12528214D02*
X2287143Y-12328214D01*
X2287143Y-12356786D02*
X2301428Y-12342500D01*
X2330000Y-12328214D01*
X2372857Y-12328214D01*
X2401428Y-12342500D01*
X2415714Y-12371071D01*
X2415714Y-12528214D01*
X2415714Y-12371071D02*
X2430000Y-12342500D01*
X2458571Y-12328214D01*
X2501428Y-12328214D01*
X2530000Y-12342500D01*
X2544286Y-12371071D01*
X2544286Y-12528214D01*
X3130000Y-12213929D02*
X2872857Y-12599643D01*
X3515714Y-12228214D02*
X3544286Y-12228214D01*
X3572857Y-12242500D01*
X3587143Y-12256786D01*
X3601428Y-12285357D01*
X3615714Y-12342500D01*
X3615714Y-12413929D01*
X3601428Y-12471071D01*
X3587143Y-12499643D01*
X3572857Y-12513929D01*
X3544286Y-12528214D01*
X3515714Y-12528214D01*
X3487143Y-12513929D01*
X3472857Y-12499643D01*
X3458571Y-12471071D01*
X3444286Y-12413929D01*
X3444286Y-12342500D01*
X3458571Y-12285357D01*
X3472857Y-12256786D01*
X3487143Y-12242500D01*
X3515714Y-12228214D01*
X3744286Y-12499643D02*
X3758571Y-12513929D01*
X3744286Y-12528214D01*
X3730000Y-12513929D01*
X3744286Y-12499643D01*
X3744286Y-12528214D01*
X3944286Y-12228214D02*
X3972857Y-12228214D01*
X4001428Y-12242500D01*
X4015714Y-12256786D01*
X4030000Y-12285357D01*
X4044286Y-12342500D01*
X4044286Y-12413929D01*
X4030000Y-12471071D01*
X4015714Y-12499643D01*
X4001428Y-12513929D01*
X3972857Y-12528214D01*
X3944286Y-12528214D01*
X3915714Y-12513929D01*
X3901428Y-12499643D01*
X3887143Y-12471071D01*
X3872857Y-12413929D01*
X3872857Y-12342500D01*
X3887143Y-12285357D01*
X3901428Y-12256786D01*
X3915714Y-12242500D01*
X3944286Y-12228214D01*
X4330000Y-12528214D02*
X4158571Y-12528214D01*
X4244286Y-12528214D02*
X4244286Y-12228214D01*
X4215714Y-12271071D01*
X4187143Y-12299643D01*
X4158571Y-12313929D01*
X4601428Y-12228214D02*
X4458571Y-12228214D01*
X4444286Y-12371071D01*
X4458571Y-12356786D01*
X4487143Y-12342500D01*
X4558571Y-12342500D01*
X4587143Y-12356786D01*
X4601428Y-12371071D01*
X4615714Y-12399643D01*
X4615714Y-12471071D01*
X4601428Y-12499643D01*
X4587143Y-12513929D01*
X4558571Y-12528214D01*
X4487143Y-12528214D01*
X4458571Y-12513929D01*
X4444286Y-12499643D01*
X4715714Y-12228214D02*
X4915714Y-12228214D01*
X4787143Y-12528214D01*
X5015714Y-12228214D02*
X5015714Y-12285357D01*
X5130000Y-12228214D02*
X5130000Y-12285357D01*
X5572857Y-12642500D02*
X5558571Y-12628214D01*
X5530000Y-12585357D01*
X5515714Y-12556786D01*
X5501428Y-12513929D01*
X5487143Y-12442500D01*
X5487143Y-12385357D01*
X5501428Y-12313929D01*
X5515714Y-12271071D01*
X5530000Y-12242500D01*
X5558571Y-12199643D01*
X5572857Y-12185357D01*
X5844286Y-12528214D02*
X5672857Y-12528214D01*
X5758571Y-12528214D02*
X5758571Y-12228214D01*
X5730000Y-12271071D01*
X5701428Y-12299643D01*
X5672857Y-12313929D01*
X6101428Y-12228214D02*
X6044286Y-12228214D01*
X6015714Y-12242500D01*
X6001428Y-12256786D01*
X5972857Y-12299643D01*
X5958571Y-12356786D01*
X5958571Y-12471071D01*
X5972857Y-12499643D01*
X5987143Y-12513929D01*
X6015714Y-12528214D01*
X6072857Y-12528214D01*
X6101428Y-12513929D01*
X6115714Y-12499643D01*
X6130000Y-12471071D01*
X6130000Y-12399643D01*
X6115714Y-12371071D01*
X6101428Y-12356786D01*
X6072857Y-12342500D01*
X6015714Y-12342500D01*
X5987143Y-12356786D01*
X5972857Y-12371071D01*
X5958571Y-12399643D01*
X6415714Y-12528214D02*
X6244286Y-12528214D01*
X6330000Y-12528214D02*
X6330000Y-12228214D01*
X6301428Y-12271071D01*
X6272857Y-12299643D01*
X6244286Y-12313929D01*
X6772857Y-12528214D02*
X6772857Y-12228214D01*
X6901428Y-12528214D02*
X6901428Y-12371071D01*
X6887143Y-12342500D01*
X6858571Y-12328214D01*
X6815714Y-12328214D01*
X6787143Y-12342500D01*
X6772857Y-12356786D01*
X7087143Y-12528214D02*
X7058571Y-12513929D01*
X7044286Y-12499643D01*
X7030000Y-12471071D01*
X7030000Y-12385357D01*
X7044286Y-12356786D01*
X7058571Y-12342500D01*
X7087143Y-12328214D01*
X7130000Y-12328214D01*
X7158571Y-12342500D01*
X7172857Y-12356786D01*
X7187143Y-12385357D01*
X7187143Y-12471071D01*
X7172857Y-12499643D01*
X7158571Y-12513929D01*
X7130000Y-12528214D01*
X7087143Y-12528214D01*
X7358571Y-12528214D02*
X7330000Y-12513929D01*
X7315714Y-12485357D01*
X7315714Y-12228214D01*
X7587143Y-12513929D02*
X7558571Y-12528214D01*
X7501428Y-12528214D01*
X7472857Y-12513929D01*
X7458571Y-12485357D01*
X7458571Y-12371071D01*
X7472857Y-12342500D01*
X7501428Y-12328214D01*
X7558571Y-12328214D01*
X7587143Y-12342500D01*
X7601428Y-12371071D01*
X7601428Y-12399643D01*
X7458571Y-12428214D01*
X7715714Y-12513929D02*
X7744286Y-12528214D01*
X7801428Y-12528214D01*
X7830000Y-12513929D01*
X7844286Y-12485357D01*
X7844286Y-12471071D01*
X7830000Y-12442500D01*
X7801428Y-12428214D01*
X7758571Y-12428214D01*
X7730000Y-12413929D01*
X7715714Y-12385357D01*
X7715714Y-12371071D01*
X7730000Y-12342500D01*
X7758571Y-12328214D01*
X7801428Y-12328214D01*
X7830000Y-12342500D01*
X7944286Y-12642500D02*
X7958571Y-12628214D01*
X7987143Y-12585357D01*
X8001428Y-12556786D01*
X8015714Y-12513929D01*
X8030000Y-12442500D01*
X8030000Y-12385357D01*
X8015714Y-12313929D01*
X8001428Y-12271071D01*
X7987143Y-12242500D01*
X7958571Y-12199643D01*
X7944286Y-12185357D01*
X315000Y-12788500D02*
G75*
G03*
X315000Y-12788500I-40000J0D01*
G01*
X658571Y-12624214D02*
X687143Y-12624214D01*
X715714Y-12638500D01*
X730000Y-12652786D01*
X744286Y-12681357D01*
X758571Y-12738500D01*
X758571Y-12809929D01*
X744286Y-12867071D01*
X730000Y-12895643D01*
X715714Y-12909929D01*
X687143Y-12924214D01*
X658571Y-12924214D01*
X630000Y-12909929D01*
X615714Y-12895643D01*
X601428Y-12867071D01*
X587143Y-12809929D01*
X587143Y-12738500D01*
X601428Y-12681357D01*
X615714Y-12652786D01*
X630000Y-12638500D01*
X658571Y-12624214D01*
X887143Y-12895643D02*
X901428Y-12909929D01*
X887143Y-12924214D01*
X872857Y-12909929D01*
X887143Y-12895643D01*
X887143Y-12924214D01*
X1072857Y-12752786D02*
X1044286Y-12738500D01*
X1030000Y-12724214D01*
X1015714Y-12695643D01*
X1015714Y-12681357D01*
X1030000Y-12652786D01*
X1044286Y-12638500D01*
X1072857Y-12624214D01*
X1130000Y-12624214D01*
X1158571Y-12638500D01*
X1172857Y-12652786D01*
X1187143Y-12681357D01*
X1187143Y-12695643D01*
X1172857Y-12724214D01*
X1158571Y-12738500D01*
X1130000Y-12752786D01*
X1072857Y-12752786D01*
X1044286Y-12767071D01*
X1030000Y-12781357D01*
X1015714Y-12809929D01*
X1015714Y-12867071D01*
X1030000Y-12895643D01*
X1044286Y-12909929D01*
X1072857Y-12924214D01*
X1130000Y-12924214D01*
X1158571Y-12909929D01*
X1172857Y-12895643D01*
X1187143Y-12867071D01*
X1187143Y-12809929D01*
X1172857Y-12781357D01*
X1158571Y-12767071D01*
X1130000Y-12752786D01*
X1372857Y-12624214D02*
X1401428Y-12624214D01*
X1430000Y-12638500D01*
X1444286Y-12652786D01*
X1458571Y-12681357D01*
X1472857Y-12738500D01*
X1472857Y-12809929D01*
X1458571Y-12867071D01*
X1444286Y-12895643D01*
X1430000Y-12909929D01*
X1401428Y-12924214D01*
X1372857Y-12924214D01*
X1344286Y-12909929D01*
X1330000Y-12895643D01*
X1315714Y-12867071D01*
X1301428Y-12809929D01*
X1301428Y-12738500D01*
X1315714Y-12681357D01*
X1330000Y-12652786D01*
X1344286Y-12638500D01*
X1372857Y-12624214D01*
X1658571Y-12624214D02*
X1687143Y-12624214D01*
X1715714Y-12638500D01*
X1730000Y-12652786D01*
X1744286Y-12681357D01*
X1758571Y-12738500D01*
X1758571Y-12809929D01*
X1744286Y-12867071D01*
X1730000Y-12895643D01*
X1715714Y-12909929D01*
X1687143Y-12924214D01*
X1658571Y-12924214D01*
X1630000Y-12909929D01*
X1615714Y-12895643D01*
X1601428Y-12867071D01*
X1587143Y-12809929D01*
X1587143Y-12738500D01*
X1601428Y-12681357D01*
X1615714Y-12652786D01*
X1630000Y-12638500D01*
X1658571Y-12624214D01*
X1887143Y-12924214D02*
X1887143Y-12724214D01*
X1887143Y-12752786D02*
X1901428Y-12738500D01*
X1930000Y-12724214D01*
X1972857Y-12724214D01*
X2001428Y-12738500D01*
X2015714Y-12767071D01*
X2015714Y-12924214D01*
X2015714Y-12767071D02*
X2030000Y-12738500D01*
X2058571Y-12724214D01*
X2101428Y-12724214D01*
X2130000Y-12738500D01*
X2144286Y-12767071D01*
X2144286Y-12924214D01*
X2287143Y-12924214D02*
X2287143Y-12724214D01*
X2287143Y-12752786D02*
X2301428Y-12738500D01*
X2330000Y-12724214D01*
X2372857Y-12724214D01*
X2401428Y-12738500D01*
X2415714Y-12767071D01*
X2415714Y-12924214D01*
X2415714Y-12767071D02*
X2430000Y-12738500D01*
X2458571Y-12724214D01*
X2501428Y-12724214D01*
X2530000Y-12738500D01*
X2544286Y-12767071D01*
X2544286Y-12924214D01*
X3130000Y-12609929D02*
X2872857Y-12995643D01*
X3515714Y-12624214D02*
X3544286Y-12624214D01*
X3572857Y-12638500D01*
X3587143Y-12652786D01*
X3601428Y-12681357D01*
X3615714Y-12738500D01*
X3615714Y-12809929D01*
X3601428Y-12867071D01*
X3587143Y-12895643D01*
X3572857Y-12909929D01*
X3544286Y-12924214D01*
X3515714Y-12924214D01*
X3487143Y-12909929D01*
X3472857Y-12895643D01*
X3458571Y-12867071D01*
X3444286Y-12809929D01*
X3444286Y-12738500D01*
X3458571Y-12681357D01*
X3472857Y-12652786D01*
X3487143Y-12638500D01*
X3515714Y-12624214D01*
X3744286Y-12895643D02*
X3758571Y-12909929D01*
X3744286Y-12924214D01*
X3730000Y-12909929D01*
X3744286Y-12895643D01*
X3744286Y-12924214D01*
X3944286Y-12624214D02*
X3972857Y-12624214D01*
X4001428Y-12638500D01*
X4015714Y-12652786D01*
X4030000Y-12681357D01*
X4044286Y-12738500D01*
X4044286Y-12809929D01*
X4030000Y-12867071D01*
X4015714Y-12895643D01*
X4001428Y-12909929D01*
X3972857Y-12924214D01*
X3944286Y-12924214D01*
X3915714Y-12909929D01*
X3901428Y-12895643D01*
X3887143Y-12867071D01*
X3872857Y-12809929D01*
X3872857Y-12738500D01*
X3887143Y-12681357D01*
X3901428Y-12652786D01*
X3915714Y-12638500D01*
X3944286Y-12624214D01*
X4144286Y-12624214D02*
X4330000Y-12624214D01*
X4230000Y-12738500D01*
X4272857Y-12738500D01*
X4301428Y-12752786D01*
X4315714Y-12767071D01*
X4330000Y-12795643D01*
X4330000Y-12867071D01*
X4315714Y-12895643D01*
X4301428Y-12909929D01*
X4272857Y-12924214D01*
X4187143Y-12924214D01*
X4158571Y-12909929D01*
X4144286Y-12895643D01*
X4615714Y-12924214D02*
X4444286Y-12924214D01*
X4530000Y-12924214D02*
X4530000Y-12624214D01*
X4501428Y-12667071D01*
X4472857Y-12695643D01*
X4444286Y-12709929D01*
X4887143Y-12624214D02*
X4744286Y-12624214D01*
X4730000Y-12767071D01*
X4744286Y-12752786D01*
X4772857Y-12738500D01*
X4844286Y-12738500D01*
X4872857Y-12752786D01*
X4887143Y-12767071D01*
X4901428Y-12795643D01*
X4901428Y-12867071D01*
X4887143Y-12895643D01*
X4872857Y-12909929D01*
X4844286Y-12924214D01*
X4772857Y-12924214D01*
X4744286Y-12909929D01*
X4730000Y-12895643D01*
X5015714Y-12624214D02*
X5015714Y-12681357D01*
X5130000Y-12624214D02*
X5130000Y-12681357D01*
X5572857Y-13038500D02*
X5558571Y-13024214D01*
X5530000Y-12981357D01*
X5515714Y-12952786D01*
X5501428Y-12909929D01*
X5487143Y-12838500D01*
X5487143Y-12781357D01*
X5501428Y-12709929D01*
X5515714Y-12667071D01*
X5530000Y-12638500D01*
X5558571Y-12595643D01*
X5572857Y-12581357D01*
X5815714Y-12724214D02*
X5815714Y-12924214D01*
X5744286Y-12609929D02*
X5672857Y-12824214D01*
X5858571Y-12824214D01*
X6201428Y-12924214D02*
X6201428Y-12624214D01*
X6330000Y-12924214D02*
X6330000Y-12767071D01*
X6315714Y-12738500D01*
X6287143Y-12724214D01*
X6244286Y-12724214D01*
X6215714Y-12738500D01*
X6201428Y-12752786D01*
X6515714Y-12924214D02*
X6487143Y-12909929D01*
X6472857Y-12895643D01*
X6458571Y-12867071D01*
X6458571Y-12781357D01*
X6472857Y-12752786D01*
X6487143Y-12738500D01*
X6515714Y-12724214D01*
X6558571Y-12724214D01*
X6587143Y-12738500D01*
X6601428Y-12752786D01*
X6615714Y-12781357D01*
X6615714Y-12867071D01*
X6601428Y-12895643D01*
X6587143Y-12909929D01*
X6558571Y-12924214D01*
X6515714Y-12924214D01*
X6787143Y-12924214D02*
X6758571Y-12909929D01*
X6744286Y-12881357D01*
X6744286Y-12624214D01*
X7015714Y-12909929D02*
X6987143Y-12924214D01*
X6930000Y-12924214D01*
X6901428Y-12909929D01*
X6887143Y-12881357D01*
X6887143Y-12767071D01*
X6901428Y-12738500D01*
X6930000Y-12724214D01*
X6987143Y-12724214D01*
X7015714Y-12738500D01*
X7030000Y-12767071D01*
X7030000Y-12795643D01*
X6887143Y-12824214D01*
X7144286Y-12909929D02*
X7172857Y-12924214D01*
X7230000Y-12924214D01*
X7258571Y-12909929D01*
X7272857Y-12881357D01*
X7272857Y-12867071D01*
X7258571Y-12838500D01*
X7230000Y-12824214D01*
X7187143Y-12824214D01*
X7158571Y-12809929D01*
X7144286Y-12781357D01*
X7144286Y-12767071D01*
X7158571Y-12738500D01*
X7187143Y-12724214D01*
X7230000Y-12724214D01*
X7258571Y-12738500D01*
X7372857Y-13038500D02*
X7387143Y-13024214D01*
X7415714Y-12981357D01*
X7430000Y-12952786D01*
X7444286Y-12909929D01*
X7458571Y-12838500D01*
X7458571Y-12781357D01*
X7444286Y-12709929D01*
X7430000Y-12667071D01*
X7415714Y-12638500D01*
X7387143Y-12595643D01*
X7372857Y-12581357D01*
X270000Y-13139500D02*
X270000Y-13229500D01*
X225000Y-13184500D02*
X315000Y-13184500D01*
X658571Y-13020214D02*
X687143Y-13020214D01*
X715714Y-13034500D01*
X730000Y-13048786D01*
X744286Y-13077357D01*
X758571Y-13134500D01*
X758571Y-13205929D01*
X744286Y-13263071D01*
X730000Y-13291643D01*
X715714Y-13305929D01*
X687143Y-13320214D01*
X658571Y-13320214D01*
X630000Y-13305929D01*
X615714Y-13291643D01*
X601428Y-13263071D01*
X587143Y-13205929D01*
X587143Y-13134500D01*
X601428Y-13077357D01*
X615714Y-13048786D01*
X630000Y-13034500D01*
X658571Y-13020214D01*
X887143Y-13291643D02*
X901428Y-13305929D01*
X887143Y-13320214D01*
X872857Y-13305929D01*
X887143Y-13291643D01*
X887143Y-13320214D01*
X1044286Y-13320214D02*
X1101428Y-13320214D01*
X1130000Y-13305929D01*
X1144286Y-13291643D01*
X1172857Y-13248786D01*
X1187143Y-13191643D01*
X1187143Y-13077357D01*
X1172857Y-13048786D01*
X1158571Y-13034500D01*
X1130000Y-13020214D01*
X1072857Y-13020214D01*
X1044286Y-13034500D01*
X1030000Y-13048786D01*
X1015714Y-13077357D01*
X1015714Y-13148786D01*
X1030000Y-13177357D01*
X1044286Y-13191643D01*
X1072857Y-13205929D01*
X1130000Y-13205929D01*
X1158571Y-13191643D01*
X1172857Y-13177357D01*
X1187143Y-13148786D01*
X1372857Y-13020214D02*
X1401428Y-13020214D01*
X1430000Y-13034500D01*
X1444286Y-13048786D01*
X1458571Y-13077357D01*
X1472857Y-13134500D01*
X1472857Y-13205929D01*
X1458571Y-13263071D01*
X1444286Y-13291643D01*
X1430000Y-13305929D01*
X1401428Y-13320214D01*
X1372857Y-13320214D01*
X1344286Y-13305929D01*
X1330000Y-13291643D01*
X1315714Y-13263071D01*
X1301428Y-13205929D01*
X1301428Y-13134500D01*
X1315714Y-13077357D01*
X1330000Y-13048786D01*
X1344286Y-13034500D01*
X1372857Y-13020214D01*
X1658571Y-13020214D02*
X1687143Y-13020214D01*
X1715714Y-13034500D01*
X1730000Y-13048786D01*
X1744286Y-13077357D01*
X1758571Y-13134500D01*
X1758571Y-13205929D01*
X1744286Y-13263071D01*
X1730000Y-13291643D01*
X1715714Y-13305929D01*
X1687143Y-13320214D01*
X1658571Y-13320214D01*
X1630000Y-13305929D01*
X1615714Y-13291643D01*
X1601428Y-13263071D01*
X1587143Y-13205929D01*
X1587143Y-13134500D01*
X1601428Y-13077357D01*
X1615714Y-13048786D01*
X1630000Y-13034500D01*
X1658571Y-13020214D01*
X1887143Y-13320214D02*
X1887143Y-13120214D01*
X1887143Y-13148786D02*
X1901428Y-13134500D01*
X1930000Y-13120214D01*
X1972857Y-13120214D01*
X2001428Y-13134500D01*
X2015714Y-13163071D01*
X2015714Y-13320214D01*
X2015714Y-13163071D02*
X2030000Y-13134500D01*
X2058571Y-13120214D01*
X2101428Y-13120214D01*
X2130000Y-13134500D01*
X2144286Y-13163071D01*
X2144286Y-13320214D01*
X2287143Y-13320214D02*
X2287143Y-13120214D01*
X2287143Y-13148786D02*
X2301428Y-13134500D01*
X2330000Y-13120214D01*
X2372857Y-13120214D01*
X2401428Y-13134500D01*
X2415714Y-13163071D01*
X2415714Y-13320214D01*
X2415714Y-13163071D02*
X2430000Y-13134500D01*
X2458571Y-13120214D01*
X2501428Y-13120214D01*
X2530000Y-13134500D01*
X2544286Y-13163071D01*
X2544286Y-13320214D01*
X3130000Y-13005929D02*
X2872857Y-13391643D01*
X3515714Y-13020214D02*
X3544286Y-13020214D01*
X3572857Y-13034500D01*
X3587143Y-13048786D01*
X3601428Y-13077357D01*
X3615714Y-13134500D01*
X3615714Y-13205929D01*
X3601428Y-13263071D01*
X3587143Y-13291643D01*
X3572857Y-13305929D01*
X3544286Y-13320214D01*
X3515714Y-13320214D01*
X3487143Y-13305929D01*
X3472857Y-13291643D01*
X3458571Y-13263071D01*
X3444286Y-13205929D01*
X3444286Y-13134500D01*
X3458571Y-13077357D01*
X3472857Y-13048786D01*
X3487143Y-13034500D01*
X3515714Y-13020214D01*
X3744286Y-13291643D02*
X3758571Y-13305929D01*
X3744286Y-13320214D01*
X3730000Y-13305929D01*
X3744286Y-13291643D01*
X3744286Y-13320214D01*
X3944286Y-13020214D02*
X3972857Y-13020214D01*
X4001428Y-13034500D01*
X4015714Y-13048786D01*
X4030000Y-13077357D01*
X4044286Y-13134500D01*
X4044286Y-13205929D01*
X4030000Y-13263071D01*
X4015714Y-13291643D01*
X4001428Y-13305929D01*
X3972857Y-13320214D01*
X3944286Y-13320214D01*
X3915714Y-13305929D01*
X3901428Y-13291643D01*
X3887143Y-13263071D01*
X3872857Y-13205929D01*
X3872857Y-13134500D01*
X3887143Y-13077357D01*
X3901428Y-13048786D01*
X3915714Y-13034500D01*
X3944286Y-13020214D01*
X4144286Y-13020214D02*
X4330000Y-13020214D01*
X4230000Y-13134500D01*
X4272857Y-13134500D01*
X4301428Y-13148786D01*
X4315714Y-13163071D01*
X4330000Y-13191643D01*
X4330000Y-13263071D01*
X4315714Y-13291643D01*
X4301428Y-13305929D01*
X4272857Y-13320214D01*
X4187143Y-13320214D01*
X4158571Y-13305929D01*
X4144286Y-13291643D01*
X4601428Y-13020214D02*
X4458571Y-13020214D01*
X4444286Y-13163071D01*
X4458571Y-13148786D01*
X4487143Y-13134500D01*
X4558571Y-13134500D01*
X4587143Y-13148786D01*
X4601428Y-13163071D01*
X4615714Y-13191643D01*
X4615714Y-13263071D01*
X4601428Y-13291643D01*
X4587143Y-13305929D01*
X4558571Y-13320214D01*
X4487143Y-13320214D01*
X4458571Y-13305929D01*
X4444286Y-13291643D01*
X4872857Y-13120214D02*
X4872857Y-13320214D01*
X4801428Y-13005929D02*
X4730000Y-13220214D01*
X4915714Y-13220214D01*
X5015714Y-13020214D02*
X5015714Y-13077357D01*
X5130000Y-13020214D02*
X5130000Y-13077357D01*
X5572857Y-13434500D02*
X5558571Y-13420214D01*
X5530000Y-13377357D01*
X5515714Y-13348786D01*
X5501428Y-13305929D01*
X5487143Y-13234500D01*
X5487143Y-13177357D01*
X5501428Y-13105929D01*
X5515714Y-13063071D01*
X5530000Y-13034500D01*
X5558571Y-12991643D01*
X5572857Y-12977357D01*
X5815714Y-13120214D02*
X5815714Y-13320214D01*
X5744286Y-13005929D02*
X5672857Y-13220214D01*
X5858571Y-13220214D01*
X6201428Y-13320214D02*
X6201428Y-13020214D01*
X6330000Y-13320214D02*
X6330000Y-13163071D01*
X6315714Y-13134500D01*
X6287143Y-13120214D01*
X6244286Y-13120214D01*
X6215714Y-13134500D01*
X6201428Y-13148786D01*
X6515714Y-13320214D02*
X6487143Y-13305929D01*
X6472857Y-13291643D01*
X6458571Y-13263071D01*
X6458571Y-13177357D01*
X6472857Y-13148786D01*
X6487143Y-13134500D01*
X6515714Y-13120214D01*
X6558571Y-13120214D01*
X6587143Y-13134500D01*
X6601428Y-13148786D01*
X6615714Y-13177357D01*
X6615714Y-13263071D01*
X6601428Y-13291643D01*
X6587143Y-13305929D01*
X6558571Y-13320214D01*
X6515714Y-13320214D01*
X6787143Y-13320214D02*
X6758571Y-13305929D01*
X6744286Y-13277357D01*
X6744286Y-13020214D01*
X7015714Y-13305929D02*
X6987143Y-13320214D01*
X6930000Y-13320214D01*
X6901428Y-13305929D01*
X6887143Y-13277357D01*
X6887143Y-13163071D01*
X6901428Y-13134500D01*
X6930000Y-13120214D01*
X6987143Y-13120214D01*
X7015714Y-13134500D01*
X7030000Y-13163071D01*
X7030000Y-13191643D01*
X6887143Y-13220214D01*
X7144286Y-13305929D02*
X7172857Y-13320214D01*
X7230000Y-13320214D01*
X7258571Y-13305929D01*
X7272857Y-13277357D01*
X7272857Y-13263071D01*
X7258571Y-13234500D01*
X7230000Y-13220214D01*
X7187143Y-13220214D01*
X7158571Y-13205929D01*
X7144286Y-13177357D01*
X7144286Y-13163071D01*
X7158571Y-13134500D01*
X7187143Y-13120214D01*
X7230000Y-13120214D01*
X7258571Y-13134500D01*
X7372857Y-13434500D02*
X7387143Y-13420214D01*
X7415714Y-13377357D01*
X7430000Y-13348786D01*
X7444286Y-13305929D01*
X7458571Y-13234500D01*
X7458571Y-13177357D01*
X7444286Y-13105929D01*
X7430000Y-13063071D01*
X7415714Y-13034500D01*
X7387143Y-12991643D01*
X7372857Y-12977357D01*
X300356Y-13615856D02*
X300356Y-13545144D01*
X229644Y-13545144D01*
X229644Y-13615856D01*
X300356Y-13615856D01*
X758571Y-13716214D02*
X587143Y-13716214D01*
X672857Y-13716214D02*
X672857Y-13416214D01*
X644286Y-13459071D01*
X615714Y-13487643D01*
X587143Y-13501929D01*
X887143Y-13687643D02*
X901428Y-13701929D01*
X887143Y-13716214D01*
X872857Y-13701929D01*
X887143Y-13687643D01*
X887143Y-13716214D01*
X1087143Y-13416214D02*
X1115714Y-13416214D01*
X1144286Y-13430500D01*
X1158571Y-13444786D01*
X1172857Y-13473357D01*
X1187143Y-13530500D01*
X1187143Y-13601929D01*
X1172857Y-13659071D01*
X1158571Y-13687643D01*
X1144286Y-13701929D01*
X1115714Y-13716214D01*
X1087143Y-13716214D01*
X1058571Y-13701929D01*
X1044286Y-13687643D01*
X1030000Y-13659071D01*
X1015714Y-13601929D01*
X1015714Y-13530500D01*
X1030000Y-13473357D01*
X1044286Y-13444786D01*
X1058571Y-13430500D01*
X1087143Y-13416214D01*
X1372857Y-13416214D02*
X1401428Y-13416214D01*
X1430000Y-13430500D01*
X1444286Y-13444786D01*
X1458571Y-13473357D01*
X1472857Y-13530500D01*
X1472857Y-13601929D01*
X1458571Y-13659071D01*
X1444286Y-13687643D01*
X1430000Y-13701929D01*
X1401428Y-13716214D01*
X1372857Y-13716214D01*
X1344286Y-13701929D01*
X1330000Y-13687643D01*
X1315714Y-13659071D01*
X1301428Y-13601929D01*
X1301428Y-13530500D01*
X1315714Y-13473357D01*
X1330000Y-13444786D01*
X1344286Y-13430500D01*
X1372857Y-13416214D01*
X1658571Y-13416214D02*
X1687143Y-13416214D01*
X1715714Y-13430500D01*
X1730000Y-13444786D01*
X1744286Y-13473357D01*
X1758571Y-13530500D01*
X1758571Y-13601929D01*
X1744286Y-13659071D01*
X1730000Y-13687643D01*
X1715714Y-13701929D01*
X1687143Y-13716214D01*
X1658571Y-13716214D01*
X1630000Y-13701929D01*
X1615714Y-13687643D01*
X1601428Y-13659071D01*
X1587143Y-13601929D01*
X1587143Y-13530500D01*
X1601428Y-13473357D01*
X1615714Y-13444786D01*
X1630000Y-13430500D01*
X1658571Y-13416214D01*
X1887143Y-13716214D02*
X1887143Y-13516214D01*
X1887143Y-13544786D02*
X1901428Y-13530500D01*
X1930000Y-13516214D01*
X1972857Y-13516214D01*
X2001428Y-13530500D01*
X2015714Y-13559071D01*
X2015714Y-13716214D01*
X2015714Y-13559071D02*
X2030000Y-13530500D01*
X2058571Y-13516214D01*
X2101428Y-13516214D01*
X2130000Y-13530500D01*
X2144286Y-13559071D01*
X2144286Y-13716214D01*
X2287143Y-13716214D02*
X2287143Y-13516214D01*
X2287143Y-13544786D02*
X2301428Y-13530500D01*
X2330000Y-13516214D01*
X2372857Y-13516214D01*
X2401428Y-13530500D01*
X2415714Y-13559071D01*
X2415714Y-13716214D01*
X2415714Y-13559071D02*
X2430000Y-13530500D01*
X2458571Y-13516214D01*
X2501428Y-13516214D01*
X2530000Y-13530500D01*
X2544286Y-13559071D01*
X2544286Y-13716214D01*
X3130000Y-13401929D02*
X2872857Y-13787643D01*
X3515714Y-13416214D02*
X3544286Y-13416214D01*
X3572857Y-13430500D01*
X3587143Y-13444786D01*
X3601428Y-13473357D01*
X3615714Y-13530500D01*
X3615714Y-13601929D01*
X3601428Y-13659071D01*
X3587143Y-13687643D01*
X3572857Y-13701929D01*
X3544286Y-13716214D01*
X3515714Y-13716214D01*
X3487143Y-13701929D01*
X3472857Y-13687643D01*
X3458571Y-13659071D01*
X3444286Y-13601929D01*
X3444286Y-13530500D01*
X3458571Y-13473357D01*
X3472857Y-13444786D01*
X3487143Y-13430500D01*
X3515714Y-13416214D01*
X3744286Y-13687643D02*
X3758571Y-13701929D01*
X3744286Y-13716214D01*
X3730000Y-13701929D01*
X3744286Y-13687643D01*
X3744286Y-13716214D01*
X3944286Y-13416214D02*
X3972857Y-13416214D01*
X4001428Y-13430500D01*
X4015714Y-13444786D01*
X4030000Y-13473357D01*
X4044286Y-13530500D01*
X4044286Y-13601929D01*
X4030000Y-13659071D01*
X4015714Y-13687643D01*
X4001428Y-13701929D01*
X3972857Y-13716214D01*
X3944286Y-13716214D01*
X3915714Y-13701929D01*
X3901428Y-13687643D01*
X3887143Y-13659071D01*
X3872857Y-13601929D01*
X3872857Y-13530500D01*
X3887143Y-13473357D01*
X3901428Y-13444786D01*
X3915714Y-13430500D01*
X3944286Y-13416214D01*
X4144286Y-13416214D02*
X4330000Y-13416214D01*
X4230000Y-13530500D01*
X4272857Y-13530500D01*
X4301428Y-13544786D01*
X4315714Y-13559071D01*
X4330000Y-13587643D01*
X4330000Y-13659071D01*
X4315714Y-13687643D01*
X4301428Y-13701929D01*
X4272857Y-13716214D01*
X4187143Y-13716214D01*
X4158571Y-13701929D01*
X4144286Y-13687643D01*
X4472857Y-13716214D02*
X4530000Y-13716214D01*
X4558571Y-13701929D01*
X4572857Y-13687643D01*
X4601428Y-13644786D01*
X4615714Y-13587643D01*
X4615714Y-13473357D01*
X4601428Y-13444786D01*
X4587143Y-13430500D01*
X4558571Y-13416214D01*
X4501428Y-13416214D01*
X4472857Y-13430500D01*
X4458571Y-13444786D01*
X4444286Y-13473357D01*
X4444286Y-13544786D01*
X4458571Y-13573357D01*
X4472857Y-13587643D01*
X4501428Y-13601929D01*
X4558571Y-13601929D01*
X4587143Y-13587643D01*
X4601428Y-13573357D01*
X4615714Y-13544786D01*
X4872857Y-13516214D02*
X4872857Y-13716214D01*
X4801428Y-13401929D02*
X4730000Y-13616214D01*
X4915714Y-13616214D01*
X5015714Y-13416214D02*
X5015714Y-13473357D01*
X5130000Y-13416214D02*
X5130000Y-13473357D01*
X5572857Y-13830500D02*
X5558571Y-13816214D01*
X5530000Y-13773357D01*
X5515714Y-13744786D01*
X5501428Y-13701929D01*
X5487143Y-13630500D01*
X5487143Y-13573357D01*
X5501428Y-13501929D01*
X5515714Y-13459071D01*
X5530000Y-13430500D01*
X5558571Y-13387643D01*
X5572857Y-13373357D01*
X5701428Y-13716214D02*
X5758571Y-13716214D01*
X5787143Y-13701929D01*
X5801428Y-13687643D01*
X5830000Y-13644786D01*
X5844286Y-13587643D01*
X5844286Y-13473357D01*
X5830000Y-13444786D01*
X5815714Y-13430500D01*
X5787143Y-13416214D01*
X5730000Y-13416214D01*
X5701428Y-13430500D01*
X5687143Y-13444786D01*
X5672857Y-13473357D01*
X5672857Y-13544786D01*
X5687143Y-13573357D01*
X5701428Y-13587643D01*
X5730000Y-13601929D01*
X5787143Y-13601929D01*
X5815714Y-13587643D01*
X5830000Y-13573357D01*
X5844286Y-13544786D01*
X5987143Y-13716214D02*
X6044286Y-13716214D01*
X6072857Y-13701929D01*
X6087143Y-13687643D01*
X6115714Y-13644786D01*
X6130000Y-13587643D01*
X6130000Y-13473357D01*
X6115714Y-13444786D01*
X6101428Y-13430500D01*
X6072857Y-13416214D01*
X6015714Y-13416214D01*
X5987143Y-13430500D01*
X5972857Y-13444786D01*
X5958571Y-13473357D01*
X5958571Y-13544786D01*
X5972857Y-13573357D01*
X5987143Y-13587643D01*
X6015714Y-13601929D01*
X6072857Y-13601929D01*
X6101428Y-13587643D01*
X6115714Y-13573357D01*
X6130000Y-13544786D01*
X6487143Y-13716214D02*
X6487143Y-13416214D01*
X6615714Y-13716214D02*
X6615714Y-13559071D01*
X6601428Y-13530500D01*
X6572857Y-13516214D01*
X6530000Y-13516214D01*
X6501428Y-13530500D01*
X6487143Y-13544786D01*
X6801428Y-13716214D02*
X6772857Y-13701929D01*
X6758571Y-13687643D01*
X6744286Y-13659071D01*
X6744286Y-13573357D01*
X6758571Y-13544786D01*
X6772857Y-13530500D01*
X6801428Y-13516214D01*
X6844286Y-13516214D01*
X6872857Y-13530500D01*
X6887143Y-13544786D01*
X6901428Y-13573357D01*
X6901428Y-13659071D01*
X6887143Y-13687643D01*
X6872857Y-13701929D01*
X6844286Y-13716214D01*
X6801428Y-13716214D01*
X7072857Y-13716214D02*
X7044286Y-13701929D01*
X7030000Y-13673357D01*
X7030000Y-13416214D01*
X7301428Y-13701929D02*
X7272857Y-13716214D01*
X7215714Y-13716214D01*
X7187143Y-13701929D01*
X7172857Y-13673357D01*
X7172857Y-13559071D01*
X7187143Y-13530500D01*
X7215714Y-13516214D01*
X7272857Y-13516214D01*
X7301428Y-13530500D01*
X7315714Y-13559071D01*
X7315714Y-13587643D01*
X7172857Y-13616214D01*
X7430000Y-13701929D02*
X7458571Y-13716214D01*
X7515714Y-13716214D01*
X7544286Y-13701929D01*
X7558571Y-13673357D01*
X7558571Y-13659071D01*
X7544286Y-13630500D01*
X7515714Y-13616214D01*
X7472857Y-13616214D01*
X7444286Y-13601929D01*
X7430000Y-13573357D01*
X7430000Y-13559071D01*
X7444286Y-13530500D01*
X7472857Y-13516214D01*
X7515714Y-13516214D01*
X7544286Y-13530500D01*
X7915714Y-13601929D02*
X8144286Y-13601929D01*
X8030000Y-13716214D02*
X8030000Y-13487643D01*
X8644286Y-13516214D02*
X8644286Y-13716214D01*
X8572857Y-13401929D02*
X8501428Y-13616214D01*
X8687143Y-13616214D01*
X9015714Y-13701929D02*
X9044286Y-13716214D01*
X9101428Y-13716214D01*
X9130000Y-13701929D01*
X9144286Y-13673357D01*
X9144286Y-13659071D01*
X9130000Y-13630500D01*
X9101428Y-13616214D01*
X9058571Y-13616214D01*
X9030000Y-13601929D01*
X9015714Y-13573357D01*
X9015714Y-13559071D01*
X9030000Y-13530500D01*
X9058571Y-13516214D01*
X9101428Y-13516214D01*
X9130000Y-13530500D01*
X9315714Y-13716214D02*
X9287143Y-13701929D01*
X9272857Y-13673357D01*
X9272857Y-13416214D01*
X9472857Y-13716214D02*
X9444286Y-13701929D01*
X9430000Y-13687643D01*
X9415714Y-13659071D01*
X9415714Y-13573357D01*
X9430000Y-13544786D01*
X9444286Y-13530500D01*
X9472857Y-13516214D01*
X9515714Y-13516214D01*
X9544286Y-13530500D01*
X9558571Y-13544786D01*
X9572857Y-13573357D01*
X9572857Y-13659071D01*
X9558571Y-13687643D01*
X9544286Y-13701929D01*
X9515714Y-13716214D01*
X9472857Y-13716214D01*
X9658571Y-13516214D02*
X9772857Y-13516214D01*
X9701428Y-13416214D02*
X9701428Y-13673357D01*
X9715714Y-13701929D01*
X9744286Y-13716214D01*
X9772857Y-13716214D01*
X9858571Y-13701929D02*
X9887143Y-13716214D01*
X9944286Y-13716214D01*
X9972857Y-13701929D01*
X9987143Y-13673357D01*
X9987143Y-13659071D01*
X9972857Y-13630500D01*
X9944286Y-13616214D01*
X9901428Y-13616214D01*
X9872857Y-13601929D01*
X9858571Y-13573357D01*
X9858571Y-13559071D01*
X9872857Y-13530500D01*
X9901428Y-13516214D01*
X9944286Y-13516214D01*
X9972857Y-13530500D01*
X10087143Y-13830500D02*
X10101428Y-13816214D01*
X10130000Y-13773357D01*
X10144286Y-13744786D01*
X10158571Y-13701929D01*
X10172857Y-13630500D01*
X10172857Y-13573357D01*
X10158571Y-13501929D01*
X10144286Y-13459071D01*
X10130000Y-13430500D01*
X10101428Y-13387643D01*
X10087143Y-13373357D01*
X260000Y-14031500D02*
X315000Y-13976500D01*
X260000Y-13921500D01*
X205000Y-13976500D01*
X260000Y-14031500D01*
X758571Y-14112214D02*
X587143Y-14112214D01*
X672857Y-14112214D02*
X672857Y-13812214D01*
X644286Y-13855071D01*
X615714Y-13883643D01*
X587143Y-13897929D01*
X887143Y-14083643D02*
X901428Y-14097929D01*
X887143Y-14112214D01*
X872857Y-14097929D01*
X887143Y-14083643D01*
X887143Y-14112214D01*
X1187143Y-14112214D02*
X1015714Y-14112214D01*
X1101428Y-14112214D02*
X1101428Y-13812214D01*
X1072857Y-13855071D01*
X1044286Y-13883643D01*
X1015714Y-13897929D01*
X1372857Y-13812214D02*
X1401428Y-13812214D01*
X1430000Y-13826500D01*
X1444286Y-13840786D01*
X1458571Y-13869357D01*
X1472857Y-13926500D01*
X1472857Y-13997929D01*
X1458571Y-14055071D01*
X1444286Y-14083643D01*
X1430000Y-14097929D01*
X1401428Y-14112214D01*
X1372857Y-14112214D01*
X1344286Y-14097929D01*
X1330000Y-14083643D01*
X1315714Y-14055071D01*
X1301428Y-13997929D01*
X1301428Y-13926500D01*
X1315714Y-13869357D01*
X1330000Y-13840786D01*
X1344286Y-13826500D01*
X1372857Y-13812214D01*
X1658571Y-13812214D02*
X1687143Y-13812214D01*
X1715714Y-13826500D01*
X1730000Y-13840786D01*
X1744286Y-13869357D01*
X1758571Y-13926500D01*
X1758571Y-13997929D01*
X1744286Y-14055071D01*
X1730000Y-14083643D01*
X1715714Y-14097929D01*
X1687143Y-14112214D01*
X1658571Y-14112214D01*
X1630000Y-14097929D01*
X1615714Y-14083643D01*
X1601428Y-14055071D01*
X1587143Y-13997929D01*
X1587143Y-13926500D01*
X1601428Y-13869357D01*
X1615714Y-13840786D01*
X1630000Y-13826500D01*
X1658571Y-13812214D01*
X1887143Y-14112214D02*
X1887143Y-13912214D01*
X1887143Y-13940786D02*
X1901428Y-13926500D01*
X1930000Y-13912214D01*
X1972857Y-13912214D01*
X2001428Y-13926500D01*
X2015714Y-13955071D01*
X2015714Y-14112214D01*
X2015714Y-13955071D02*
X2030000Y-13926500D01*
X2058571Y-13912214D01*
X2101428Y-13912214D01*
X2130000Y-13926500D01*
X2144286Y-13955071D01*
X2144286Y-14112214D01*
X2287143Y-14112214D02*
X2287143Y-13912214D01*
X2287143Y-13940786D02*
X2301428Y-13926500D01*
X2330000Y-13912214D01*
X2372857Y-13912214D01*
X2401428Y-13926500D01*
X2415714Y-13955071D01*
X2415714Y-14112214D01*
X2415714Y-13955071D02*
X2430000Y-13926500D01*
X2458571Y-13912214D01*
X2501428Y-13912214D01*
X2530000Y-13926500D01*
X2544286Y-13955071D01*
X2544286Y-14112214D01*
X3130000Y-13797929D02*
X2872857Y-14183643D01*
X3515714Y-13812214D02*
X3544286Y-13812214D01*
X3572857Y-13826500D01*
X3587143Y-13840786D01*
X3601428Y-13869357D01*
X3615714Y-13926500D01*
X3615714Y-13997929D01*
X3601428Y-14055071D01*
X3587143Y-14083643D01*
X3572857Y-14097929D01*
X3544286Y-14112214D01*
X3515714Y-14112214D01*
X3487143Y-14097929D01*
X3472857Y-14083643D01*
X3458571Y-14055071D01*
X3444286Y-13997929D01*
X3444286Y-13926500D01*
X3458571Y-13869357D01*
X3472857Y-13840786D01*
X3487143Y-13826500D01*
X3515714Y-13812214D01*
X3744286Y-14083643D02*
X3758571Y-14097929D01*
X3744286Y-14112214D01*
X3730000Y-14097929D01*
X3744286Y-14083643D01*
X3744286Y-14112214D01*
X3944286Y-13812214D02*
X3972857Y-13812214D01*
X4001428Y-13826500D01*
X4015714Y-13840786D01*
X4030000Y-13869357D01*
X4044286Y-13926500D01*
X4044286Y-13997929D01*
X4030000Y-14055071D01*
X4015714Y-14083643D01*
X4001428Y-14097929D01*
X3972857Y-14112214D01*
X3944286Y-14112214D01*
X3915714Y-14097929D01*
X3901428Y-14083643D01*
X3887143Y-14055071D01*
X3872857Y-13997929D01*
X3872857Y-13926500D01*
X3887143Y-13869357D01*
X3901428Y-13840786D01*
X3915714Y-13826500D01*
X3944286Y-13812214D01*
X4301428Y-13912214D02*
X4301428Y-14112214D01*
X4230000Y-13797929D02*
X4158571Y-14012214D01*
X4344286Y-14012214D01*
X4430000Y-13812214D02*
X4615714Y-13812214D01*
X4515714Y-13926500D01*
X4558571Y-13926500D01*
X4587143Y-13940786D01*
X4601428Y-13955071D01*
X4615714Y-13983643D01*
X4615714Y-14055071D01*
X4601428Y-14083643D01*
X4587143Y-14097929D01*
X4558571Y-14112214D01*
X4472857Y-14112214D01*
X4444286Y-14097929D01*
X4430000Y-14083643D01*
X4715714Y-13812214D02*
X4901428Y-13812214D01*
X4801428Y-13926500D01*
X4844286Y-13926500D01*
X4872857Y-13940786D01*
X4887143Y-13955071D01*
X4901428Y-13983643D01*
X4901428Y-14055071D01*
X4887143Y-14083643D01*
X4872857Y-14097929D01*
X4844286Y-14112214D01*
X4758571Y-14112214D01*
X4730000Y-14097929D01*
X4715714Y-14083643D01*
X5015714Y-13812214D02*
X5015714Y-13869357D01*
X5130000Y-13812214D02*
X5130000Y-13869357D01*
X5572857Y-14226500D02*
X5558571Y-14212214D01*
X5530000Y-14169357D01*
X5515714Y-14140786D01*
X5501428Y-14097929D01*
X5487143Y-14026500D01*
X5487143Y-13969357D01*
X5501428Y-13897929D01*
X5515714Y-13855071D01*
X5530000Y-13826500D01*
X5558571Y-13783643D01*
X5572857Y-13769357D01*
X5744286Y-13812214D02*
X5772857Y-13812214D01*
X5801428Y-13826500D01*
X5815714Y-13840786D01*
X5830000Y-13869357D01*
X5844286Y-13926500D01*
X5844286Y-13997929D01*
X5830000Y-14055071D01*
X5815714Y-14083643D01*
X5801428Y-14097929D01*
X5772857Y-14112214D01*
X5744286Y-14112214D01*
X5715714Y-14097929D01*
X5701428Y-14083643D01*
X5687143Y-14055071D01*
X5672857Y-13997929D01*
X5672857Y-13926500D01*
X5687143Y-13869357D01*
X5701428Y-13840786D01*
X5715714Y-13826500D01*
X5744286Y-13812214D01*
X6201428Y-14112214D02*
X6201428Y-13812214D01*
X6330000Y-14112214D02*
X6330000Y-13955071D01*
X6315714Y-13926500D01*
X6287143Y-13912214D01*
X6244286Y-13912214D01*
X6215714Y-13926500D01*
X6201428Y-13940786D01*
X6515714Y-14112214D02*
X6487143Y-14097929D01*
X6472857Y-14083643D01*
X6458571Y-14055071D01*
X6458571Y-13969357D01*
X6472857Y-13940786D01*
X6487143Y-13926500D01*
X6515714Y-13912214D01*
X6558571Y-13912214D01*
X6587143Y-13926500D01*
X6601428Y-13940786D01*
X6615714Y-13969357D01*
X6615714Y-14055071D01*
X6601428Y-14083643D01*
X6587143Y-14097929D01*
X6558571Y-14112214D01*
X6515714Y-14112214D01*
X6787143Y-14112214D02*
X6758571Y-14097929D01*
X6744286Y-14069357D01*
X6744286Y-13812214D01*
X7015714Y-14097929D02*
X6987143Y-14112214D01*
X6930000Y-14112214D01*
X6901428Y-14097929D01*
X6887143Y-14069357D01*
X6887143Y-13955071D01*
X6901428Y-13926500D01*
X6930000Y-13912214D01*
X6987143Y-13912214D01*
X7015714Y-13926500D01*
X7030000Y-13955071D01*
X7030000Y-13983643D01*
X6887143Y-14012214D01*
X7144286Y-14097929D02*
X7172857Y-14112214D01*
X7230000Y-14112214D01*
X7258571Y-14097929D01*
X7272857Y-14069357D01*
X7272857Y-14055071D01*
X7258571Y-14026500D01*
X7230000Y-14012214D01*
X7187143Y-14012214D01*
X7158571Y-13997929D01*
X7144286Y-13969357D01*
X7144286Y-13955071D01*
X7158571Y-13926500D01*
X7187143Y-13912214D01*
X7230000Y-13912214D01*
X7258571Y-13926500D01*
X7630000Y-13997929D02*
X7858571Y-13997929D01*
X7744286Y-14112214D02*
X7744286Y-13883643D01*
X8215714Y-13840786D02*
X8230000Y-13826500D01*
X8258571Y-13812214D01*
X8330000Y-13812214D01*
X8358571Y-13826500D01*
X8372857Y-13840786D01*
X8387143Y-13869357D01*
X8387143Y-13897929D01*
X8372857Y-13940786D01*
X8201428Y-14112214D01*
X8387143Y-14112214D01*
X8501428Y-13840786D02*
X8515714Y-13826500D01*
X8544286Y-13812214D01*
X8615714Y-13812214D01*
X8644286Y-13826500D01*
X8658571Y-13840786D01*
X8672857Y-13869357D01*
X8672857Y-13897929D01*
X8658571Y-13940786D01*
X8487143Y-14112214D01*
X8672857Y-14112214D01*
X9015714Y-14097929D02*
X9044286Y-14112214D01*
X9101428Y-14112214D01*
X9130000Y-14097929D01*
X9144286Y-14069357D01*
X9144286Y-14055071D01*
X9130000Y-14026500D01*
X9101428Y-14012214D01*
X9058571Y-14012214D01*
X9030000Y-13997929D01*
X9015714Y-13969357D01*
X9015714Y-13955071D01*
X9030000Y-13926500D01*
X9058571Y-13912214D01*
X9101428Y-13912214D01*
X9130000Y-13926500D01*
X9315714Y-14112214D02*
X9287143Y-14097929D01*
X9272857Y-14069357D01*
X9272857Y-13812214D01*
X9472857Y-14112214D02*
X9444286Y-14097929D01*
X9430000Y-14083643D01*
X9415714Y-14055071D01*
X9415714Y-13969357D01*
X9430000Y-13940786D01*
X9444286Y-13926500D01*
X9472857Y-13912214D01*
X9515714Y-13912214D01*
X9544286Y-13926500D01*
X9558571Y-13940786D01*
X9572857Y-13969357D01*
X9572857Y-14055071D01*
X9558571Y-14083643D01*
X9544286Y-14097929D01*
X9515714Y-14112214D01*
X9472857Y-14112214D01*
X9658571Y-13912214D02*
X9772857Y-13912214D01*
X9701428Y-13812214D02*
X9701428Y-14069357D01*
X9715714Y-14097929D01*
X9744286Y-14112214D01*
X9772857Y-14112214D01*
X9858571Y-14097929D02*
X9887143Y-14112214D01*
X9944286Y-14112214D01*
X9972857Y-14097929D01*
X9987143Y-14069357D01*
X9987143Y-14055071D01*
X9972857Y-14026500D01*
X9944286Y-14012214D01*
X9901428Y-14012214D01*
X9872857Y-13997929D01*
X9858571Y-13969357D01*
X9858571Y-13955071D01*
X9872857Y-13926500D01*
X9901428Y-13912214D01*
X9944286Y-13912214D01*
X9972857Y-13926500D01*
X10087143Y-14226500D02*
X10101428Y-14212214D01*
X10130000Y-14169357D01*
X10144286Y-14140786D01*
X10158571Y-14097929D01*
X10172857Y-14026500D01*
X10172857Y-13969357D01*
X10158571Y-13897929D01*
X10144286Y-13855071D01*
X10130000Y-13826500D01*
X10101428Y-13783643D01*
X10087143Y-13769357D01*
X165000Y-14297500D02*
X315000Y-14447500D01*
X315000Y-14297500D02*
X165000Y-14447500D01*
X315000Y-14372500D02*
G75*
G03*
X315000Y-14372500I-75000J0D01*
G01*
X758571Y-14508214D02*
X587143Y-14508214D01*
X672857Y-14508214D02*
X672857Y-14208214D01*
X644286Y-14251071D01*
X615714Y-14279643D01*
X587143Y-14293929D01*
X887143Y-14479643D02*
X901428Y-14493929D01*
X887143Y-14508214D01*
X872857Y-14493929D01*
X887143Y-14479643D01*
X887143Y-14508214D01*
X1172857Y-14208214D02*
X1030000Y-14208214D01*
X1015714Y-14351071D01*
X1030000Y-14336786D01*
X1058571Y-14322500D01*
X1130000Y-14322500D01*
X1158571Y-14336786D01*
X1172857Y-14351071D01*
X1187143Y-14379643D01*
X1187143Y-14451071D01*
X1172857Y-14479643D01*
X1158571Y-14493929D01*
X1130000Y-14508214D01*
X1058571Y-14508214D01*
X1030000Y-14493929D01*
X1015714Y-14479643D01*
X1372857Y-14208214D02*
X1401428Y-14208214D01*
X1430000Y-14222500D01*
X1444286Y-14236786D01*
X1458571Y-14265357D01*
X1472857Y-14322500D01*
X1472857Y-14393929D01*
X1458571Y-14451071D01*
X1444286Y-14479643D01*
X1430000Y-14493929D01*
X1401428Y-14508214D01*
X1372857Y-14508214D01*
X1344286Y-14493929D01*
X1330000Y-14479643D01*
X1315714Y-14451071D01*
X1301428Y-14393929D01*
X1301428Y-14322500D01*
X1315714Y-14265357D01*
X1330000Y-14236786D01*
X1344286Y-14222500D01*
X1372857Y-14208214D01*
X1658571Y-14208214D02*
X1687143Y-14208214D01*
X1715714Y-14222500D01*
X1730000Y-14236786D01*
X1744286Y-14265357D01*
X1758571Y-14322500D01*
X1758571Y-14393929D01*
X1744286Y-14451071D01*
X1730000Y-14479643D01*
X1715714Y-14493929D01*
X1687143Y-14508214D01*
X1658571Y-14508214D01*
X1630000Y-14493929D01*
X1615714Y-14479643D01*
X1601428Y-14451071D01*
X1587143Y-14393929D01*
X1587143Y-14322500D01*
X1601428Y-14265357D01*
X1615714Y-14236786D01*
X1630000Y-14222500D01*
X1658571Y-14208214D01*
X1887143Y-14508214D02*
X1887143Y-14308214D01*
X1887143Y-14336786D02*
X1901428Y-14322500D01*
X1930000Y-14308214D01*
X1972857Y-14308214D01*
X2001428Y-14322500D01*
X2015714Y-14351071D01*
X2015714Y-14508214D01*
X2015714Y-14351071D02*
X2030000Y-14322500D01*
X2058571Y-14308214D01*
X2101428Y-14308214D01*
X2130000Y-14322500D01*
X2144286Y-14351071D01*
X2144286Y-14508214D01*
X2287143Y-14508214D02*
X2287143Y-14308214D01*
X2287143Y-14336786D02*
X2301428Y-14322500D01*
X2330000Y-14308214D01*
X2372857Y-14308214D01*
X2401428Y-14322500D01*
X2415714Y-14351071D01*
X2415714Y-14508214D01*
X2415714Y-14351071D02*
X2430000Y-14322500D01*
X2458571Y-14308214D01*
X2501428Y-14308214D01*
X2530000Y-14322500D01*
X2544286Y-14351071D01*
X2544286Y-14508214D01*
X3130000Y-14193929D02*
X2872857Y-14579643D01*
X3515714Y-14208214D02*
X3544286Y-14208214D01*
X3572857Y-14222500D01*
X3587143Y-14236786D01*
X3601428Y-14265357D01*
X3615714Y-14322500D01*
X3615714Y-14393929D01*
X3601428Y-14451071D01*
X3587143Y-14479643D01*
X3572857Y-14493929D01*
X3544286Y-14508214D01*
X3515714Y-14508214D01*
X3487143Y-14493929D01*
X3472857Y-14479643D01*
X3458571Y-14451071D01*
X3444286Y-14393929D01*
X3444286Y-14322500D01*
X3458571Y-14265357D01*
X3472857Y-14236786D01*
X3487143Y-14222500D01*
X3515714Y-14208214D01*
X3744286Y-14479643D02*
X3758571Y-14493929D01*
X3744286Y-14508214D01*
X3730000Y-14493929D01*
X3744286Y-14479643D01*
X3744286Y-14508214D01*
X3944286Y-14208214D02*
X3972857Y-14208214D01*
X4001428Y-14222500D01*
X4015714Y-14236786D01*
X4030000Y-14265357D01*
X4044286Y-14322500D01*
X4044286Y-14393929D01*
X4030000Y-14451071D01*
X4015714Y-14479643D01*
X4001428Y-14493929D01*
X3972857Y-14508214D01*
X3944286Y-14508214D01*
X3915714Y-14493929D01*
X3901428Y-14479643D01*
X3887143Y-14451071D01*
X3872857Y-14393929D01*
X3872857Y-14322500D01*
X3887143Y-14265357D01*
X3901428Y-14236786D01*
X3915714Y-14222500D01*
X3944286Y-14208214D01*
X4315714Y-14208214D02*
X4172857Y-14208214D01*
X4158571Y-14351071D01*
X4172857Y-14336786D01*
X4201428Y-14322500D01*
X4272857Y-14322500D01*
X4301428Y-14336786D01*
X4315714Y-14351071D01*
X4330000Y-14379643D01*
X4330000Y-14451071D01*
X4315714Y-14479643D01*
X4301428Y-14493929D01*
X4272857Y-14508214D01*
X4201428Y-14508214D01*
X4172857Y-14493929D01*
X4158571Y-14479643D01*
X4472857Y-14508214D02*
X4530000Y-14508214D01*
X4558571Y-14493929D01*
X4572857Y-14479643D01*
X4601428Y-14436786D01*
X4615714Y-14379643D01*
X4615714Y-14265357D01*
X4601428Y-14236786D01*
X4587143Y-14222500D01*
X4558571Y-14208214D01*
X4501428Y-14208214D01*
X4472857Y-14222500D01*
X4458571Y-14236786D01*
X4444286Y-14265357D01*
X4444286Y-14336786D01*
X4458571Y-14365357D01*
X4472857Y-14379643D01*
X4501428Y-14393929D01*
X4558571Y-14393929D01*
X4587143Y-14379643D01*
X4601428Y-14365357D01*
X4615714Y-14336786D01*
X4901428Y-14508214D02*
X4730000Y-14508214D01*
X4815714Y-14508214D02*
X4815714Y-14208214D01*
X4787143Y-14251071D01*
X4758571Y-14279643D01*
X4730000Y-14293929D01*
X5015714Y-14208214D02*
X5015714Y-14265357D01*
X5130000Y-14208214D02*
X5130000Y-14265357D01*
X5572857Y-14622500D02*
X5558571Y-14608214D01*
X5530000Y-14565357D01*
X5515714Y-14536786D01*
X5501428Y-14493929D01*
X5487143Y-14422500D01*
X5487143Y-14365357D01*
X5501428Y-14293929D01*
X5515714Y-14251071D01*
X5530000Y-14222500D01*
X5558571Y-14179643D01*
X5572857Y-14165357D01*
X5658571Y-14208214D02*
X5844286Y-14208214D01*
X5744286Y-14322500D01*
X5787143Y-14322500D01*
X5815714Y-14336786D01*
X5830000Y-14351071D01*
X5844286Y-14379643D01*
X5844286Y-14451071D01*
X5830000Y-14479643D01*
X5815714Y-14493929D01*
X5787143Y-14508214D01*
X5701428Y-14508214D01*
X5672857Y-14493929D01*
X5658571Y-14479643D01*
X6101428Y-14208214D02*
X6044286Y-14208214D01*
X6015714Y-14222500D01*
X6001428Y-14236786D01*
X5972857Y-14279643D01*
X5958571Y-14336786D01*
X5958571Y-14451071D01*
X5972857Y-14479643D01*
X5987143Y-14493929D01*
X6015714Y-14508214D01*
X6072857Y-14508214D01*
X6101428Y-14493929D01*
X6115714Y-14479643D01*
X6130000Y-14451071D01*
X6130000Y-14379643D01*
X6115714Y-14351071D01*
X6101428Y-14336786D01*
X6072857Y-14322500D01*
X6015714Y-14322500D01*
X5987143Y-14336786D01*
X5972857Y-14351071D01*
X5958571Y-14379643D01*
X6487143Y-14508214D02*
X6487143Y-14208214D01*
X6615714Y-14508214D02*
X6615714Y-14351071D01*
X6601428Y-14322500D01*
X6572857Y-14308214D01*
X6530000Y-14308214D01*
X6501428Y-14322500D01*
X6487143Y-14336786D01*
X6801428Y-14508214D02*
X6772857Y-14493929D01*
X6758571Y-14479643D01*
X6744286Y-14451071D01*
X6744286Y-14365357D01*
X6758571Y-14336786D01*
X6772857Y-14322500D01*
X6801428Y-14308214D01*
X6844286Y-14308214D01*
X6872857Y-14322500D01*
X6887143Y-14336786D01*
X6901428Y-14365357D01*
X6901428Y-14451071D01*
X6887143Y-14479643D01*
X6872857Y-14493929D01*
X6844286Y-14508214D01*
X6801428Y-14508214D01*
X7072857Y-14508214D02*
X7044286Y-14493929D01*
X7030000Y-14465357D01*
X7030000Y-14208214D01*
X7301428Y-14493929D02*
X7272857Y-14508214D01*
X7215714Y-14508214D01*
X7187143Y-14493929D01*
X7172857Y-14465357D01*
X7172857Y-14351071D01*
X7187143Y-14322500D01*
X7215714Y-14308214D01*
X7272857Y-14308214D01*
X7301428Y-14322500D01*
X7315714Y-14351071D01*
X7315714Y-14379643D01*
X7172857Y-14408214D01*
X7430000Y-14493929D02*
X7458571Y-14508214D01*
X7515714Y-14508214D01*
X7544286Y-14493929D01*
X7558571Y-14465357D01*
X7558571Y-14451071D01*
X7544286Y-14422500D01*
X7515714Y-14408214D01*
X7472857Y-14408214D01*
X7444286Y-14393929D01*
X7430000Y-14365357D01*
X7430000Y-14351071D01*
X7444286Y-14322500D01*
X7472857Y-14308214D01*
X7515714Y-14308214D01*
X7544286Y-14322500D01*
X7658571Y-14622500D02*
X7672857Y-14608214D01*
X7701428Y-14565357D01*
X7715714Y-14536786D01*
X7730000Y-14493929D01*
X7744286Y-14422500D01*
X7744286Y-14365357D01*
X7730000Y-14293929D01*
X7715714Y-14251071D01*
X7701428Y-14222500D01*
X7672857Y-14179643D01*
X7658571Y-14165357D01*
X130000Y-14676000D02*
X315000Y-14861000D01*
X315000Y-14676000D02*
X130000Y-14861000D01*
X222500Y-14676000D02*
X222500Y-14861000D01*
X130000Y-14768500D02*
X315000Y-14768500D01*
X758571Y-14904214D02*
X587143Y-14904214D01*
X672857Y-14904214D02*
X672857Y-14604214D01*
X644286Y-14647071D01*
X615714Y-14675643D01*
X587143Y-14689929D01*
X887143Y-14875643D02*
X901428Y-14889929D01*
X887143Y-14904214D01*
X872857Y-14889929D01*
X887143Y-14875643D01*
X887143Y-14904214D01*
X1072857Y-14732786D02*
X1044286Y-14718500D01*
X1030000Y-14704214D01*
X1015714Y-14675643D01*
X1015714Y-14661357D01*
X1030000Y-14632786D01*
X1044286Y-14618500D01*
X1072857Y-14604214D01*
X1130000Y-14604214D01*
X1158571Y-14618500D01*
X1172857Y-14632786D01*
X1187143Y-14661357D01*
X1187143Y-14675643D01*
X1172857Y-14704214D01*
X1158571Y-14718500D01*
X1130000Y-14732786D01*
X1072857Y-14732786D01*
X1044286Y-14747071D01*
X1030000Y-14761357D01*
X1015714Y-14789929D01*
X1015714Y-14847071D01*
X1030000Y-14875643D01*
X1044286Y-14889929D01*
X1072857Y-14904214D01*
X1130000Y-14904214D01*
X1158571Y-14889929D01*
X1172857Y-14875643D01*
X1187143Y-14847071D01*
X1187143Y-14789929D01*
X1172857Y-14761357D01*
X1158571Y-14747071D01*
X1130000Y-14732786D01*
X1458571Y-14604214D02*
X1315714Y-14604214D01*
X1301428Y-14747071D01*
X1315714Y-14732786D01*
X1344286Y-14718500D01*
X1415714Y-14718500D01*
X1444286Y-14732786D01*
X1458571Y-14747071D01*
X1472857Y-14775643D01*
X1472857Y-14847071D01*
X1458571Y-14875643D01*
X1444286Y-14889929D01*
X1415714Y-14904214D01*
X1344286Y-14904214D01*
X1315714Y-14889929D01*
X1301428Y-14875643D01*
X1658571Y-14604214D02*
X1687143Y-14604214D01*
X1715714Y-14618500D01*
X1730000Y-14632786D01*
X1744286Y-14661357D01*
X1758571Y-14718500D01*
X1758571Y-14789929D01*
X1744286Y-14847071D01*
X1730000Y-14875643D01*
X1715714Y-14889929D01*
X1687143Y-14904214D01*
X1658571Y-14904214D01*
X1630000Y-14889929D01*
X1615714Y-14875643D01*
X1601428Y-14847071D01*
X1587143Y-14789929D01*
X1587143Y-14718500D01*
X1601428Y-14661357D01*
X1615714Y-14632786D01*
X1630000Y-14618500D01*
X1658571Y-14604214D01*
X1887143Y-14904214D02*
X1887143Y-14704214D01*
X1887143Y-14732786D02*
X1901428Y-14718500D01*
X1930000Y-14704214D01*
X1972857Y-14704214D01*
X2001428Y-14718500D01*
X2015714Y-14747071D01*
X2015714Y-14904214D01*
X2015714Y-14747071D02*
X2030000Y-14718500D01*
X2058571Y-14704214D01*
X2101428Y-14704214D01*
X2130000Y-14718500D01*
X2144286Y-14747071D01*
X2144286Y-14904214D01*
X2287143Y-14904214D02*
X2287143Y-14704214D01*
X2287143Y-14732786D02*
X2301428Y-14718500D01*
X2330000Y-14704214D01*
X2372857Y-14704214D01*
X2401428Y-14718500D01*
X2415714Y-14747071D01*
X2415714Y-14904214D01*
X2415714Y-14747071D02*
X2430000Y-14718500D01*
X2458571Y-14704214D01*
X2501428Y-14704214D01*
X2530000Y-14718500D01*
X2544286Y-14747071D01*
X2544286Y-14904214D01*
X3130000Y-14589929D02*
X2872857Y-14975643D01*
X3515714Y-14604214D02*
X3544286Y-14604214D01*
X3572857Y-14618500D01*
X3587143Y-14632786D01*
X3601428Y-14661357D01*
X3615714Y-14718500D01*
X3615714Y-14789929D01*
X3601428Y-14847071D01*
X3587143Y-14875643D01*
X3572857Y-14889929D01*
X3544286Y-14904214D01*
X3515714Y-14904214D01*
X3487143Y-14889929D01*
X3472857Y-14875643D01*
X3458571Y-14847071D01*
X3444286Y-14789929D01*
X3444286Y-14718500D01*
X3458571Y-14661357D01*
X3472857Y-14632786D01*
X3487143Y-14618500D01*
X3515714Y-14604214D01*
X3744286Y-14875643D02*
X3758571Y-14889929D01*
X3744286Y-14904214D01*
X3730000Y-14889929D01*
X3744286Y-14875643D01*
X3744286Y-14904214D01*
X3944286Y-14604214D02*
X3972857Y-14604214D01*
X4001428Y-14618500D01*
X4015714Y-14632786D01*
X4030000Y-14661357D01*
X4044286Y-14718500D01*
X4044286Y-14789929D01*
X4030000Y-14847071D01*
X4015714Y-14875643D01*
X4001428Y-14889929D01*
X3972857Y-14904214D01*
X3944286Y-14904214D01*
X3915714Y-14889929D01*
X3901428Y-14875643D01*
X3887143Y-14847071D01*
X3872857Y-14789929D01*
X3872857Y-14718500D01*
X3887143Y-14661357D01*
X3901428Y-14632786D01*
X3915714Y-14618500D01*
X3944286Y-14604214D01*
X4144286Y-14604214D02*
X4344286Y-14604214D01*
X4215714Y-14904214D01*
X4444286Y-14632786D02*
X4458571Y-14618500D01*
X4487143Y-14604214D01*
X4558571Y-14604214D01*
X4587143Y-14618500D01*
X4601428Y-14632786D01*
X4615714Y-14661357D01*
X4615714Y-14689929D01*
X4601428Y-14732786D01*
X4430000Y-14904214D01*
X4615714Y-14904214D01*
X4787143Y-14732786D02*
X4758571Y-14718500D01*
X4744286Y-14704214D01*
X4730000Y-14675643D01*
X4730000Y-14661357D01*
X4744286Y-14632786D01*
X4758571Y-14618500D01*
X4787143Y-14604214D01*
X4844286Y-14604214D01*
X4872857Y-14618500D01*
X4887143Y-14632786D01*
X4901428Y-14661357D01*
X4901428Y-14675643D01*
X4887143Y-14704214D01*
X4872857Y-14718500D01*
X4844286Y-14732786D01*
X4787143Y-14732786D01*
X4758571Y-14747071D01*
X4744286Y-14761357D01*
X4730000Y-14789929D01*
X4730000Y-14847071D01*
X4744286Y-14875643D01*
X4758571Y-14889929D01*
X4787143Y-14904214D01*
X4844286Y-14904214D01*
X4872857Y-14889929D01*
X4887143Y-14875643D01*
X4901428Y-14847071D01*
X4901428Y-14789929D01*
X4887143Y-14761357D01*
X4872857Y-14747071D01*
X4844286Y-14732786D01*
X5015714Y-14604214D02*
X5015714Y-14661357D01*
X5130000Y-14604214D02*
X5130000Y-14661357D01*
X5572857Y-15018500D02*
X5558571Y-15004214D01*
X5530000Y-14961357D01*
X5515714Y-14932786D01*
X5501428Y-14889929D01*
X5487143Y-14818500D01*
X5487143Y-14761357D01*
X5501428Y-14689929D01*
X5515714Y-14647071D01*
X5530000Y-14618500D01*
X5558571Y-14575643D01*
X5572857Y-14561357D01*
X5844286Y-14904214D02*
X5672857Y-14904214D01*
X5758571Y-14904214D02*
X5758571Y-14604214D01*
X5730000Y-14647071D01*
X5701428Y-14675643D01*
X5672857Y-14689929D01*
X6015714Y-14732786D02*
X5987143Y-14718500D01*
X5972857Y-14704214D01*
X5958571Y-14675643D01*
X5958571Y-14661357D01*
X5972857Y-14632786D01*
X5987143Y-14618500D01*
X6015714Y-14604214D01*
X6072857Y-14604214D01*
X6101428Y-14618500D01*
X6115714Y-14632786D01*
X6130000Y-14661357D01*
X6130000Y-14675643D01*
X6115714Y-14704214D01*
X6101428Y-14718500D01*
X6072857Y-14732786D01*
X6015714Y-14732786D01*
X5987143Y-14747071D01*
X5972857Y-14761357D01*
X5958571Y-14789929D01*
X5958571Y-14847071D01*
X5972857Y-14875643D01*
X5987143Y-14889929D01*
X6015714Y-14904214D01*
X6072857Y-14904214D01*
X6101428Y-14889929D01*
X6115714Y-14875643D01*
X6130000Y-14847071D01*
X6130000Y-14789929D01*
X6115714Y-14761357D01*
X6101428Y-14747071D01*
X6072857Y-14732786D01*
X6487143Y-14904214D02*
X6487143Y-14604214D01*
X6615714Y-14904214D02*
X6615714Y-14747071D01*
X6601428Y-14718500D01*
X6572857Y-14704214D01*
X6530000Y-14704214D01*
X6501428Y-14718500D01*
X6487143Y-14732786D01*
X6801428Y-14904214D02*
X6772857Y-14889929D01*
X6758571Y-14875643D01*
X6744286Y-14847071D01*
X6744286Y-14761357D01*
X6758571Y-14732786D01*
X6772857Y-14718500D01*
X6801428Y-14704214D01*
X6844286Y-14704214D01*
X6872857Y-14718500D01*
X6887143Y-14732786D01*
X6901428Y-14761357D01*
X6901428Y-14847071D01*
X6887143Y-14875643D01*
X6872857Y-14889929D01*
X6844286Y-14904214D01*
X6801428Y-14904214D01*
X7072857Y-14904214D02*
X7044286Y-14889929D01*
X7030000Y-14861357D01*
X7030000Y-14604214D01*
X7301428Y-14889929D02*
X7272857Y-14904214D01*
X7215714Y-14904214D01*
X7187143Y-14889929D01*
X7172857Y-14861357D01*
X7172857Y-14747071D01*
X7187143Y-14718500D01*
X7215714Y-14704214D01*
X7272857Y-14704214D01*
X7301428Y-14718500D01*
X7315714Y-14747071D01*
X7315714Y-14775643D01*
X7172857Y-14804214D01*
X7430000Y-14889929D02*
X7458571Y-14904214D01*
X7515714Y-14904214D01*
X7544286Y-14889929D01*
X7558571Y-14861357D01*
X7558571Y-14847071D01*
X7544286Y-14818500D01*
X7515714Y-14804214D01*
X7472857Y-14804214D01*
X7444286Y-14789929D01*
X7430000Y-14761357D01*
X7430000Y-14747071D01*
X7444286Y-14718500D01*
X7472857Y-14704214D01*
X7515714Y-14704214D01*
X7544286Y-14718500D01*
X7658571Y-15018500D02*
X7672857Y-15004214D01*
X7701428Y-14961357D01*
X7715714Y-14932786D01*
X7730000Y-14889929D01*
X7744286Y-14818500D01*
X7744286Y-14761357D01*
X7730000Y-14689929D01*
X7715714Y-14647071D01*
X7701428Y-14618500D01*
X7672857Y-14575643D01*
X7658571Y-14561357D01*
M02*
