  0
SECTION
  2
HEADER
  9
$ANGBASE
  50
0.0
  9
$ANGDIR
  70
1
  9
$MEASUREMENT
  70
1
  0
ENDSEC
  0
SECTION
  2
TABLES
  0
TABLE
  2
LTYPE
  70
4
  0
LTYPE
  5
40F
  2
CONTINUOUS
  70
0
  3
Solid line
  72
65
  73
0
  40
0.0
  0
LTYPE
  5
410
  2
DASHDOT
 70
0
  3
Dash Dot ____ _ ____ _
 72
65
 73
4
 40
2.0
 49
1.25
 49
-0.25
 49
0.25
 49
-0.25
  0
LTYPE
  5
411
  2
DASHED
 70
0
  3
Dashed __ __ __ __ __
 72
65
 73
2
 40
0.75
 49
0.5
 49
-0.25
  0
LTYPE
  5
43B
  2
DOTTED
 70
0
  3
Dotted .  .  .  .
 72
65
 73
2
 40
0.2
 49
0.0
 49
-0.2
  0
ENDTAB
  0
TABLE
  2
STYLE
  70
4
  0
STYLE
  2
KICAD
  70
0
  40
0
  41
1
  42
1
  50
0
  71
0
  3
isocp.shx
  0
STYLE
  2
KICADB
  70
0
  40
0
  41
1
  42
1
  50
0
  71
0
  3
isocp.shx
  0
STYLE
  2
KICADI
  70
0
  40
0
  41
1
  42
1
  50
15
  71
0
  3
isocp.shx
  0
STYLE
  2
KICADBI
  70
0
  40
0
  41
1
  42
1
  50
15
  71
0
  3
isocp.shx
  0
ENDTAB
  0
TABLE
  2
LAYER
  70
1
  0
LAYER
  2
BLACK
  70
0
  62
7
  6
CONTINUOUS
  0
ENDTAB
  0
ENDSEC
  0
SECTION
  2
ENTITIES
0
LINE
8
BLACK
6
CONTINUOUS
10
209.294
20
-48.8925
11
209.646
21
-48.9545
0
LINE
8
BLACK
6
CONTINUOUS
10
209.646
20
-48.9545
11
209.988
21
-49.0554
0
LINE
8
BLACK
6
CONTINUOUS
10
209.988
20
-49.0554
11
210.318
21
-49.1939
0
LINE
8
BLACK
6
CONTINUOUS
10
210.318
20
-49.1939
11
210.63
21
-49.3682
0
LINE
8
BLACK
6
CONTINUOUS
10
210.63
20
-49.3682
11
210.92
21
-49.5761
0
LINE
8
BLACK
6
CONTINUOUS
10
210.92
20
-49.5761
11
211.186
21
-49.8152
0
LINE
8
BLACK
6
CONTINUOUS
10
211.186
20
-49.8152
11
211.423
21
-50.0823
0
LINE
8
BLACK
6
CONTINUOUS
10
211.423
20
-50.0823
11
211.629
21
-50.3743
0
LINE
8
BLACK
6
CONTINUOUS
10
211.629
20
-50.3743
11
211.801
21
-50.6873
0
LINE
8
BLACK
6
CONTINUOUS
10
211.801
20
-50.6873
11
211.937
21
-51.0176
0
LINE
8
BLACK
6
CONTINUOUS
10
211.937
20
-51.0176
11
212.035
21
-51.361
0
LINE
8
BLACK
6
CONTINUOUS
10
212.035
20
-51.361
11
212.095
21
-51.7133
0
LINE
8
BLACK
6
CONTINUOUS
10
212.095
20
-51.7133
11
212.115
21
-52.07
0
LINE
8
BLACK
6
CONTINUOUS
10
212.115
20
-52.07
11
212.114
21
-52.1593
0
LINE
8
BLACK
6
CONTINUOUS
10
212.114
20
-52.1593
11
212.084
21
-52.5154
0
LINE
8
BLACK
6
CONTINUOUS
10
212.084
20
-52.5154
11
212.014
21
-52.8658
0
LINE
8
BLACK
6
CONTINUOUS
10
212.014
20
-52.8658
11
211.906
21
-53.2063
0
LINE
8
BLACK
6
CONTINUOUS
10
211.906
20
-53.2063
11
211.761
21
-53.5327
0
LINE
8
BLACK
6
CONTINUOUS
10
211.761
20
-53.5327
11
211.58
21
-53.8409
0
LINE
8
BLACK
6
CONTINUOUS
10
211.58
20
-53.8409
11
211.366
21
-54.1269
0
LINE
8
BLACK
6
CONTINUOUS
10
211.366
20
-54.1269
11
211.122
21
-54.3873
0
LINE
8
BLACK
6
CONTINUOUS
10
211.122
20
-54.3873
11
210.85
21
-54.6189
0
LINE
8
BLACK
6
CONTINUOUS
10
210.85
20
-54.6189
11
210.554
21
-54.8187
0
LINE
8
BLACK
6
CONTINUOUS
10
210.554
20
-54.8187
11
210.237
21
-54.9842
0
LINE
8
BLACK
6
CONTINUOUS
10
210.237
20
-54.9842
11
209.904
21
-55.1134
0
LINE
8
BLACK
6
CONTINUOUS
10
209.904
20
-55.1134
11
209.558
21
-55.2046
0
LINE
8
BLACK
6
CONTINUOUS
10
209.558
20
-55.2046
11
209.205
21
-55.2568
0
LINE
8
BLACK
6
CONTINUOUS
10
209.205
20
-55.2568
11
208.848
21
-55.2693
0
LINE
8
BLACK
6
CONTINUOUS
10
208.848
20
-55.2693
11
208.492
21
-55.2419
0
LINE
8
BLACK
6
CONTINUOUS
10
208.492
20
-55.2419
11
208.141
21
-55.1749
0
LINE
8
BLACK
6
CONTINUOUS
10
208.141
20
-55.1749
11
207.8
21
-55.0693
0
LINE
8
BLACK
6
CONTINUOUS
10
207.8
20
-55.0693
11
207.472
21
-54.9263
0
LINE
8
BLACK
6
CONTINUOUS
10
207.472
20
-54.9263
11
207.163
21
-54.7476
0
LINE
8
BLACK
6
CONTINUOUS
10
207.163
20
-54.7476
11
206.875
21
-54.5356
0
LINE
8
BLACK
6
CONTINUOUS
10
206.875
20
-54.5356
11
206.613
21
-54.2929
0
LINE
8
BLACK
6
CONTINUOUS
10
206.613
20
-54.2929
11
206.38
21
-54.0225
0
LINE
8
BLACK
6
CONTINUOUS
10
206.38
20
-54.0225
11
206.178
21
-53.7277
0
LINE
8
BLACK
6
CONTINUOUS
10
206.178
20
-53.7277
11
206.01
21
-53.4122
0
LINE
8
BLACK
6
CONTINUOUS
10
206.01
20
-53.4122
11
205.879
21
-53.0801
0
LINE
8
BLACK
6
CONTINUOUS
10
205.879
20
-53.0801
11
205.785
21
-52.7353
0
LINE
8
BLACK
6
CONTINUOUS
10
205.785
20
-52.7353
11
205.73
21
-52.3823
0
LINE
8
BLACK
6
CONTINUOUS
10
205.73
20
-52.3823
11
205.715
21
-52.0253
0
LINE
8
BLACK
6
CONTINUOUS
10
205.715
20
-52.0253
11
205.74
21
-51.6689
0
LINE
8
BLACK
6
CONTINUOUS
10
205.74
20
-51.6689
11
205.805
21
-51.3175
0
LINE
8
BLACK
6
CONTINUOUS
10
205.805
20
-51.3175
11
205.908
21
-50.9755
0
LINE
8
BLACK
6
CONTINUOUS
10
205.908
20
-50.9755
11
206.049
21
-50.6472
0
LINE
8
BLACK
6
CONTINUOUS
10
206.049
20
-50.6472
11
206.225
21
-50.3365
0
LINE
8
BLACK
6
CONTINUOUS
10
206.225
20
-50.3365
11
206.435
21
-50.0475
0
LINE
8
BLACK
6
CONTINUOUS
10
206.435
20
-50.0475
11
206.676
21
-49.7837
0
LINE
8
BLACK
6
CONTINUOUS
10
206.676
20
-49.7837
11
206.945
21
-49.5484
0
LINE
8
BLACK
6
CONTINUOUS
10
206.945
20
-49.5484
11
207.238
21
-49.3445
0
LINE
8
BLACK
6
CONTINUOUS
10
207.238
20
-49.3445
11
207.553
21
-49.1746
0
LINE
8
BLACK
6
CONTINUOUS
10
207.553
20
-49.1746
11
207.884
21
-49.0407
0
LINE
8
BLACK
6
CONTINUOUS
10
207.884
20
-49.0407
11
208.228
21
-48.9446
0
LINE
8
BLACK
6
CONTINUOUS
10
208.228
20
-48.9446
11
208.581
21
-48.8875
0
LINE
8
BLACK
6
CONTINUOUS
10
208.581
20
-48.8875
11
208.937
21
-48.8701
0
LINE
8
BLACK
6
CONTINUOUS
10
208.937
20
-48.8701
11
209.294
21
-48.8925
0
LINE
8
BLACK
6
CONTINUOUS
10
82.2939
20
-48.8925
11
82.6457
21
-48.9545
0
LINE
8
BLACK
6
CONTINUOUS
10
82.6457
20
-48.9545
11
82.9884
21
-49.0554
0
LINE
8
BLACK
6
CONTINUOUS
10
82.9884
20
-49.0554
11
83.3178
21
-49.1939
0
LINE
8
BLACK
6
CONTINUOUS
10
83.3178
20
-49.1939
11
83.6296
21
-49.3682
0
LINE
8
BLACK
6
CONTINUOUS
10
83.6296
20
-49.3682
11
83.9201
21
-49.5761
0
LINE
8
BLACK
6
CONTINUOUS
10
83.9201
20
-49.5761
11
84.1856
21
-49.8152
0
LINE
8
BLACK
6
CONTINUOUS
10
84.1856
20
-49.8152
11
84.4228
21
-50.0823
0
LINE
8
BLACK
6
CONTINUOUS
10
84.4228
20
-50.0823
11
84.6288
21
-50.3743
0
LINE
8
BLACK
6
CONTINUOUS
10
84.6288
20
-50.3743
11
84.8009
21
-50.6873
0
LINE
8
BLACK
6
CONTINUOUS
10
84.8009
20
-50.6873
11
84.937
21
-51.0176
0
LINE
8
BLACK
6
CONTINUOUS
10
84.937
20
-51.0176
11
85.0355
21
-51.361
0
LINE
8
BLACK
6
CONTINUOUS
10
85.0355
20
-51.361
11
85.0951
21
-51.7133
0
LINE
8
BLACK
6
CONTINUOUS
10
85.0951
20
-51.7133
11
85.115
21
-52.07
0
LINE
8
BLACK
6
CONTINUOUS
10
85.115
20
-52.07
11
85.1138
21
-52.1593
0
LINE
8
BLACK
6
CONTINUOUS
10
85.1138
20
-52.1593
11
85.0839
21
-52.5154
0
LINE
8
BLACK
6
CONTINUOUS
10
85.0839
20
-52.5154
11
85.0145
21
-52.8658
0
LINE
8
BLACK
6
CONTINUOUS
10
85.0145
20
-52.8658
11
84.9064
21
-53.2063
0
LINE
8
BLACK
6
CONTINUOUS
10
84.9064
20
-53.2063
11
84.7611
21
-53.5327
0
LINE
8
BLACK
6
CONTINUOUS
10
84.7611
20
-53.5327
11
84.5803
21
-53.8409
0
LINE
8
BLACK
6
CONTINUOUS
10
84.5803
20
-53.8409
11
84.3663
21
-54.1269
0
LINE
8
BLACK
6
CONTINUOUS
10
84.3663
20
-54.1269
11
84.1218
21
-54.3873
0
LINE
8
BLACK
6
CONTINUOUS
10
84.1218
20
-54.3873
11
83.8497
21
-54.6189
0
LINE
8
BLACK
6
CONTINUOUS
10
83.8497
20
-54.6189
11
83.5535
21
-54.8187
0
LINE
8
BLACK
6
CONTINUOUS
10
83.5535
20
-54.8187
11
83.2369
21
-54.9842
0
LINE
8
BLACK
6
CONTINUOUS
10
83.2369
20
-54.9842
11
82.9039
21
-55.1134
0
LINE
8
BLACK
6
CONTINUOUS
10
82.9039
20
-55.1134
11
82.5584
21
-55.2046
0
LINE
8
BLACK
6
CONTINUOUS
10
82.5584
20
-55.2046
11
82.205
21
-55.2568
0
LINE
8
BLACK
6
CONTINUOUS
10
82.205
20
-55.2568
11
81.848
21
-55.2693
0
LINE
8
BLACK
6
CONTINUOUS
10
81.848
20
-55.2693
11
81.4918
21
-55.2419
0
LINE
8
BLACK
6
CONTINUOUS
10
81.4918
20
-55.2419
11
81.1409
21
-55.1749
0
LINE
8
BLACK
6
CONTINUOUS
10
81.1409
20
-55.1749
11
80.7996
21
-55.0693
0
LINE
8
BLACK
6
CONTINUOUS
10
80.7996
20
-55.0693
11
80.4722
21
-54.9263
0
LINE
8
BLACK
6
CONTINUOUS
10
80.4722
20
-54.9263
11
80.1628
21
-54.7476
0
LINE
8
BLACK
6
CONTINUOUS
10
80.1628
20
-54.7476
11
79.8752
21
-54.5356
0
LINE
8
BLACK
6
CONTINUOUS
10
79.8752
20
-54.5356
11
79.6131
21
-54.2929
0
LINE
8
BLACK
6
CONTINUOUS
10
79.6131
20
-54.2929
11
79.3797
21
-54.0225
0
LINE
8
BLACK
6
CONTINUOUS
10
79.3797
20
-54.0225
11
79.1778
21
-53.7277
0
LINE
8
BLACK
6
CONTINUOUS
10
79.1778
20
-53.7277
11
79.0101
21
-53.4122
0
LINE
8
BLACK
6
CONTINUOUS
10
79.0101
20
-53.4122
11
78.8786
21
-53.0801
0
LINE
8
BLACK
6
CONTINUOUS
10
78.8786
20
-53.0801
11
78.7849
21
-52.7353
0
LINE
8
BLACK
6
CONTINUOUS
10
78.7849
20
-52.7353
11
78.7303
21
-52.3823
0
LINE
8
BLACK
6
CONTINUOUS
10
78.7303
20
-52.3823
11
78.7153
21
-52.0253
0
LINE
8
BLACK
6
CONTINUOUS
10
78.7153
20
-52.0253
11
78.7402
21
-51.6689
0
LINE
8
BLACK
6
CONTINUOUS
10
78.7402
20
-51.6689
11
78.8047
21
-51.3175
0
LINE
8
BLACK
6
CONTINUOUS
10
78.8047
20
-51.3175
11
78.908
21
-50.9755
0
LINE
8
BLACK
6
CONTINUOUS
10
78.908
20
-50.9755
11
79.0487
21
-50.6472
0
LINE
8
BLACK
6
CONTINUOUS
10
79.0487
20
-50.6472
11
79.2252
21
-50.3365
0
LINE
8
BLACK
6
CONTINUOUS
10
79.2252
20
-50.3365
11
79.4352
21
-50.0475
0
LINE
8
BLACK
6
CONTINUOUS
10
79.4352
20
-50.0475
11
79.6761
21
-49.7837
0
LINE
8
BLACK
6
CONTINUOUS
10
79.6761
20
-49.7837
11
79.9449
21
-49.5484
0
LINE
8
BLACK
6
CONTINUOUS
10
79.9449
20
-49.5484
11
80.2382
21
-49.3445
0
LINE
8
BLACK
6
CONTINUOUS
10
80.2382
20
-49.3445
11
80.5525
21
-49.1746
0
LINE
8
BLACK
6
CONTINUOUS
10
80.5525
20
-49.1746
11
80.8837
21
-49.0407
0
LINE
8
BLACK
6
CONTINUOUS
10
80.8837
20
-49.0407
11
81.2278
21
-48.9446
0
LINE
8
BLACK
6
CONTINUOUS
10
81.2278
20
-48.9446
11
81.5805
21
-48.8875
0
LINE
8
BLACK
6
CONTINUOUS
10
81.5805
20
-48.8875
11
81.9373
21
-48.8701
0
LINE
8
BLACK
6
CONTINUOUS
10
81.9373
20
-48.8701
11
82.2939
21
-48.8925
  0
ENDSEC
  0
EOF
