  0
SECTION
  2
HEADER
  9
$ANGBASE
  50
0.0
  9
$ANGDIR
  70
1
  9
$MEASUREMENT
  70
1
  0
ENDSEC
  0
SECTION
  2
TABLES
  0
TABLE
  2
LTYPE
  70
4
  0
LTYPE
  5
40F
  2
CONTINUOUS
  70
0
  3
Solid line
  72
65
  73
0
  40
0.0
  0
LTYPE
  5
410
  2
DASHDOT
 70
0
  3
Dash Dot ____ _ ____ _
 72
65
 73
4
 40
2.0
 49
1.25
 49
-0.25
 49
0.25
 49
-0.25
  0
LTYPE
  5
411
  2
DASHED
 70
0
  3
Dashed __ __ __ __ __
 72
65
 73
2
 40
0.75
 49
0.5
 49
-0.25
  0
LTYPE
  5
43B
  2
DOTTED
 70
0
  3
Dotted .  .  .  .
 72
65
 73
2
 40
0.2
 49
0.0
 49
-0.2
  0
ENDTAB
  0
TABLE
  2
STYLE
  70
4
  0
STYLE
  2
KICAD
  70
0
  40
0
  41
1
  42
1
  50
0
  71
0
  3
isocp.shx
  0
STYLE
  2
KICADB
  70
0
  40
0
  41
1
  42
1
  50
0
  71
0
  3
isocp.shx
  0
STYLE
  2
KICADI
  70
0
  40
0
  41
1
  42
1
  50
15
  71
0
  3
isocp.shx
  0
STYLE
  2
KICADBI
  70
0
  40
0
  41
1
  42
1
  50
15
  71
0
  3
isocp.shx
  0
ENDTAB
  0
TABLE
  2
LAYER
  70
1
  0
LAYER
  2
BLACK
  70
0
  62
7
  6
CONTINUOUS
  0
ENDTAB
  0
ENDSEC
  0
SECTION
  2
ENTITIES
0
LINE
8
BLACK
6
CONTINUOUS
10
81.4934
20
-151.138
11
81.0747
21
-151.085
0
LINE
8
BLACK
6
CONTINUOUS
10
81.0747
20
-151.085
11
80.6618
21
-150.999
0
LINE
8
BLACK
6
CONTINUOUS
10
80.6618
20
-150.999
11
80.2574
21
-150.878
0
LINE
8
BLACK
6
CONTINUOUS
10
80.2574
20
-150.878
11
79.8643
21
-150.725
0
LINE
8
BLACK
6
CONTINUOUS
10
79.8643
20
-150.725
11
79.4853
21
-150.54
0
LINE
8
BLACK
6
CONTINUOUS
10
79.4853
20
-150.54
11
79.1228
21
-150.324
0
LINE
8
BLACK
6
CONTINUOUS
10
79.1228
20
-150.324
11
78.7794
21
-150.079
0
LINE
8
BLACK
6
CONTINUOUS
10
78.7794
20
-150.079
11
78.4575
21
-149.806
0
LINE
8
BLACK
6
CONTINUOUS
10
78.4575
20
-149.806
11
78.1591
21
-149.508
0
LINE
8
BLACK
6
CONTINUOUS
10
78.1591
20
-149.508
11
77.8864
21
-149.186
0
LINE
8
BLACK
6
CONTINUOUS
10
77.8864
20
-149.186
11
77.6413
21
-148.842
0
LINE
8
BLACK
6
CONTINUOUS
10
77.6413
20
-148.842
11
77.4253
21
-148.48
0
LINE
8
BLACK
6
CONTINUOUS
10
77.4253
20
-148.48
11
77.24
21
-148.101
0
LINE
8
BLACK
6
CONTINUOUS
10
77.24
20
-148.101
11
77.0866
21
-147.708
0
LINE
8
BLACK
6
CONTINUOUS
10
77.0866
20
-147.708
11
76.9662
21
-147.303
0
LINE
8
BLACK
6
CONTINUOUS
10
76.9662
20
-147.303
11
76.8796
21
-146.89
0
LINE
8
BLACK
6
CONTINUOUS
10
76.8796
20
-146.89
11
76.8274
21
-146.472
0
LINE
8
BLACK
6
CONTINUOUS
10
76.8274
20
-146.472
11
76.81
21
-146.05
0
LINE
8
BLACK
6
CONTINUOUS
10
76.81
20
-146.05
11
76.81
21
-52.07
0
LINE
8
BLACK
6
CONTINUOUS
10
76.81
20
-52.07
11
76.8274
21
-51.6484
0
LINE
8
BLACK
6
CONTINUOUS
10
76.8274
20
-51.6484
11
76.8796
21
-51.2297
0
LINE
8
BLACK
6
CONTINUOUS
10
76.8796
20
-51.2297
11
76.9662
21
-50.8168
0
LINE
8
BLACK
6
CONTINUOUS
10
76.9662
20
-50.8168
11
77.0866
21
-50.4124
0
LINE
8
BLACK
6
CONTINUOUS
10
77.0866
20
-50.4124
11
77.24
21
-50.0193
0
LINE
8
BLACK
6
CONTINUOUS
10
77.24
20
-50.0193
11
77.4253
21
-49.6403
0
LINE
8
BLACK
6
CONTINUOUS
10
77.4253
20
-49.6403
11
77.6413
21
-49.2778
0
LINE
8
BLACK
6
CONTINUOUS
10
77.6413
20
-49.2778
11
77.8864
21
-48.9344
0
LINE
8
BLACK
6
CONTINUOUS
10
77.8864
20
-48.9344
11
78.1591
21
-48.6125
0
LINE
8
BLACK
6
CONTINUOUS
10
78.1591
20
-48.6125
11
78.4575
21
-48.3141
0
LINE
8
BLACK
6
CONTINUOUS
10
78.4575
20
-48.3141
11
78.7794
21
-48.0414
0
LINE
8
BLACK
6
CONTINUOUS
10
78.7794
20
-48.0414
11
79.1228
21
-47.7963
0
LINE
8
BLACK
6
CONTINUOUS
10
79.1228
20
-47.7963
11
79.4853
21
-47.5803
0
LINE
8
BLACK
6
CONTINUOUS
10
79.4853
20
-47.5803
11
79.8643
21
-47.395
0
LINE
8
BLACK
6
CONTINUOUS
10
79.8643
20
-47.395
11
80.2574
21
-47.2416
0
LINE
8
BLACK
6
CONTINUOUS
10
80.2574
20
-47.2416
11
80.6618
21
-47.1212
0
LINE
8
BLACK
6
CONTINUOUS
10
80.6618
20
-47.1212
11
81.0747
21
-47.0346
0
LINE
8
BLACK
6
CONTINUOUS
10
81.0747
20
-47.0346
11
81.4934
21
-46.9824
0
LINE
8
BLACK
6
CONTINUOUS
10
81.4934
20
-46.9824
11
81.915
21
-46.965
0
LINE
8
BLACK
6
CONTINUOUS
10
81.915
20
-46.965
11
208.915
21
-46.965
0
LINE
8
BLACK
6
CONTINUOUS
10
208.915
20
-46.965
11
209.337
21
-46.9824
0
LINE
8
BLACK
6
CONTINUOUS
10
209.337
20
-46.9824
11
209.755
21
-47.0346
0
LINE
8
BLACK
6
CONTINUOUS
10
209.755
20
-47.0346
11
210.168
21
-47.1212
0
LINE
8
BLACK
6
CONTINUOUS
10
210.168
20
-47.1212
11
210.573
21
-47.2416
0
LINE
8
BLACK
6
CONTINUOUS
10
210.573
20
-47.2416
11
210.966
21
-47.395
0
LINE
8
BLACK
6
CONTINUOUS
10
210.966
20
-47.395
11
211.345
21
-47.5803
0
LINE
8
BLACK
6
CONTINUOUS
10
211.345
20
-47.5803
11
211.707
21
-47.7963
0
LINE
8
BLACK
6
CONTINUOUS
10
211.707
20
-47.7963
11
212.051
21
-48.0414
0
LINE
8
BLACK
6
CONTINUOUS
10
212.051
20
-48.0414
11
212.373
21
-48.3141
0
LINE
8
BLACK
6
CONTINUOUS
10
212.373
20
-48.3141
11
212.671
21
-48.6125
0
LINE
8
BLACK
6
CONTINUOUS
10
212.671
20
-48.6125
11
212.944
21
-48.9344
0
LINE
8
BLACK
6
CONTINUOUS
10
212.944
20
-48.9344
11
213.189
21
-49.2778
0
LINE
8
BLACK
6
CONTINUOUS
10
213.189
20
-49.2778
11
213.405
21
-49.6403
0
LINE
8
BLACK
6
CONTINUOUS
10
213.405
20
-49.6403
11
213.59
21
-50.0193
0
LINE
8
BLACK
6
CONTINUOUS
10
213.59
20
-50.0193
11
213.743
21
-50.4124
0
LINE
8
BLACK
6
CONTINUOUS
10
213.743
20
-50.4124
11
213.864
21
-50.8168
0
LINE
8
BLACK
6
CONTINUOUS
10
213.864
20
-50.8168
11
213.95
21
-51.2297
0
LINE
8
BLACK
6
CONTINUOUS
10
213.95
20
-51.2297
11
214.003
21
-51.6484
0
LINE
8
BLACK
6
CONTINUOUS
10
214.003
20
-51.6484
11
214.02
21
-52.07
0
LINE
8
BLACK
6
CONTINUOUS
10
214.02
20
-52.07
11
214.02
21
-146.05
0
LINE
8
BLACK
6
CONTINUOUS
10
214.02
20
-146.05
11
214.003
21
-146.472
0
LINE
8
BLACK
6
CONTINUOUS
10
214.003
20
-146.472
11
213.95
21
-146.89
0
LINE
8
BLACK
6
CONTINUOUS
10
213.95
20
-146.89
11
213.864
21
-147.303
0
LINE
8
BLACK
6
CONTINUOUS
10
213.864
20
-147.303
11
213.743
21
-147.708
0
LINE
8
BLACK
6
CONTINUOUS
10
213.743
20
-147.708
11
213.59
21
-148.101
0
LINE
8
BLACK
6
CONTINUOUS
10
213.59
20
-148.101
11
213.405
21
-148.48
0
LINE
8
BLACK
6
CONTINUOUS
10
213.405
20
-148.48
11
213.189
21
-148.842
0
LINE
8
BLACK
6
CONTINUOUS
10
213.189
20
-148.842
11
212.944
21
-149.186
0
LINE
8
BLACK
6
CONTINUOUS
10
212.944
20
-149.186
11
212.671
21
-149.508
0
LINE
8
BLACK
6
CONTINUOUS
10
212.671
20
-149.508
11
212.373
21
-149.806
0
LINE
8
BLACK
6
CONTINUOUS
10
212.373
20
-149.806
11
212.051
21
-150.079
0
LINE
8
BLACK
6
CONTINUOUS
10
212.051
20
-150.079
11
211.707
21
-150.324
0
LINE
8
BLACK
6
CONTINUOUS
10
211.707
20
-150.324
11
211.345
21
-150.54
0
LINE
8
BLACK
6
CONTINUOUS
10
211.345
20
-150.54
11
210.966
21
-150.725
0
LINE
8
BLACK
6
CONTINUOUS
10
210.966
20
-150.725
11
210.573
21
-150.878
0
LINE
8
BLACK
6
CONTINUOUS
10
210.573
20
-150.878
11
210.168
21
-150.999
0
LINE
8
BLACK
6
CONTINUOUS
10
210.168
20
-150.999
11
209.755
21
-151.085
0
LINE
8
BLACK
6
CONTINUOUS
10
209.755
20
-151.085
11
209.337
21
-151.138
0
LINE
8
BLACK
6
CONTINUOUS
10
209.337
20
-151.138
11
208.915
21
-151.155
0
LINE
8
BLACK
6
CONTINUOUS
10
208.915
20
-151.155
11
81.915
21
-151.155
0
LINE
8
BLACK
6
CONTINUOUS
10
81.915
20
-151.155
11
81.4934
21
-151.138
0
LINE
8
BLACK
6
CONTINUOUS
10
81.9055
20
-47.0111
11
81.4972
21
-47.028
0
LINE
8
BLACK
6
CONTINUOUS
10
81.4972
20
-47.028
11
81.0823
21
-47.0797
0
LINE
8
BLACK
6
CONTINUOUS
10
81.0823
20
-47.0797
11
80.673
21
-47.1655
0
LINE
8
BLACK
6
CONTINUOUS
10
80.673
20
-47.1655
11
80.2722
21
-47.2848
0
LINE
8
BLACK
6
CONTINUOUS
10
80.2722
20
-47.2848
11
79.8827
21
-47.4368
0
LINE
8
BLACK
6
CONTINUOUS
10
79.8827
20
-47.4368
11
79.507
21
-47.6205
0
LINE
8
BLACK
6
CONTINUOUS
10
79.507
20
-47.6205
11
79.1478
21
-47.8345
0
LINE
8
BLACK
6
CONTINUOUS
10
79.1478
20
-47.8345
11
78.8075
21
-48.0775
0
LINE
8
BLACK
6
CONTINUOUS
10
78.8075
20
-48.0775
11
78.4884
21
-48.3477
0
LINE
8
BLACK
6
CONTINUOUS
10
78.4884
20
-48.3477
11
78.1927
21
-48.6434
0
LINE
8
BLACK
6
CONTINUOUS
10
78.1927
20
-48.6434
11
77.9225
21
-48.9625
0
LINE
8
BLACK
6
CONTINUOUS
10
77.9225
20
-48.9625
11
77.6795
21
-49.3028
0
LINE
8
BLACK
6
CONTINUOUS
10
77.6795
20
-49.3028
11
77.4655
21
-49.662
0
LINE
8
BLACK
6
CONTINUOUS
10
77.4655
20
-49.662
11
77.2818
21
-50.0377
0
LINE
8
BLACK
6
CONTINUOUS
10
77.2818
20
-50.0377
11
77.1298
21
-50.4272
0
LINE
8
BLACK
6
CONTINUOUS
10
77.1298
20
-50.4272
11
77.0105
21
-50.828
0
LINE
8
BLACK
6
CONTINUOUS
10
77.0105
20
-50.828
11
76.9247
21
-51.2373
0
LINE
8
BLACK
6
CONTINUOUS
10
76.9247
20
-51.2373
11
76.873
21
-51.6522
0
LINE
8
BLACK
6
CONTINUOUS
10
76.873
20
-51.6522
11
76.8561
21
-52.0605
0
LINE
8
BLACK
6
CONTINUOUS
10
76.8561
20
-52.0605
11
76.86
21
-52.07
0
LINE
8
BLACK
6
CONTINUOUS
10
76.86
20
-52.07
11
76.86
21
-146.05
0
LINE
8
BLACK
6
CONTINUOUS
10
76.86
20
-146.05
11
76.8561
21
-146.059
0
LINE
8
BLACK
6
CONTINUOUS
10
76.8561
20
-146.059
11
76.873
21
-146.468
0
LINE
8
BLACK
6
CONTINUOUS
10
76.873
20
-146.468
11
76.9247
21
-146.883
0
LINE
8
BLACK
6
CONTINUOUS
10
76.9247
20
-146.883
11
77.0105
21
-147.292
0
LINE
8
BLACK
6
CONTINUOUS
10
77.0105
20
-147.292
11
77.1298
21
-147.693
0
LINE
8
BLACK
6
CONTINUOUS
10
77.1298
20
-147.693
11
77.2818
21
-148.082
0
LINE
8
BLACK
6
CONTINUOUS
10
77.2818
20
-148.082
11
77.4655
21
-148.458
0
LINE
8
BLACK
6
CONTINUOUS
10
77.4655
20
-148.458
11
77.6795
21
-148.817
0
LINE
8
BLACK
6
CONTINUOUS
10
77.6795
20
-148.817
11
77.9225
21
-149.157
0
LINE
8
BLACK
6
CONTINUOUS
10
77.9225
20
-149.157
11
78.1927
21
-149.477
0
LINE
8
BLACK
6
CONTINUOUS
10
78.1927
20
-149.477
11
78.4884
21
-149.772
0
LINE
8
BLACK
6
CONTINUOUS
10
78.4884
20
-149.772
11
78.8075
21
-150.043
0
LINE
8
BLACK
6
CONTINUOUS
10
78.8075
20
-150.043
11
79.1478
21
-150.285
0
LINE
8
BLACK
6
CONTINUOUS
10
79.1478
20
-150.285
11
79.507
21
-150.5
0
LINE
8
BLACK
6
CONTINUOUS
10
79.507
20
-150.5
11
79.8827
21
-150.683
0
LINE
8
BLACK
6
CONTINUOUS
10
79.8827
20
-150.683
11
80.2722
21
-150.835
0
LINE
8
BLACK
6
CONTINUOUS
10
80.2722
20
-150.835
11
80.673
21
-150.955
0
LINE
8
BLACK
6
CONTINUOUS
10
80.673
20
-150.955
11
81.0823
21
-151.04
0
LINE
8
BLACK
6
CONTINUOUS
10
81.0823
20
-151.04
11
81.4972
21
-151.092
0
LINE
8
BLACK
6
CONTINUOUS
10
81.4972
20
-151.092
11
81.9055
21
-151.109
0
LINE
8
BLACK
6
CONTINUOUS
10
81.9055
20
-151.109
11
81.915
21
-151.105
0
LINE
8
BLACK
6
CONTINUOUS
10
81.915
20
-151.105
11
208.915
21
-151.105
0
LINE
8
BLACK
6
CONTINUOUS
10
208.915
20
-151.105
11
208.924
21
-151.109
0
LINE
8
BLACK
6
CONTINUOUS
10
208.924
20
-151.109
11
209.333
21
-151.092
0
LINE
8
BLACK
6
CONTINUOUS
10
209.333
20
-151.092
11
209.748
21
-151.04
0
LINE
8
BLACK
6
CONTINUOUS
10
209.748
20
-151.04
11
210.157
21
-150.955
0
LINE
8
BLACK
6
CONTINUOUS
10
210.157
20
-150.955
11
210.558
21
-150.835
0
LINE
8
BLACK
6
CONTINUOUS
10
210.558
20
-150.835
11
210.947
21
-150.683
0
LINE
8
BLACK
6
CONTINUOUS
10
210.947
20
-150.683
11
211.323
21
-150.5
0
LINE
8
BLACK
6
CONTINUOUS
10
211.323
20
-150.5
11
211.682
21
-150.285
0
LINE
8
BLACK
6
CONTINUOUS
10
211.682
20
-150.285
11
212.022
21
-150.043
0
LINE
8
BLACK
6
CONTINUOUS
10
212.022
20
-150.043
11
212.342
21
-149.772
0
LINE
8
BLACK
6
CONTINUOUS
10
212.342
20
-149.772
11
212.637
21
-149.477
0
LINE
8
BLACK
6
CONTINUOUS
10
212.637
20
-149.477
11
212.908
21
-149.157
0
LINE
8
BLACK
6
CONTINUOUS
10
212.908
20
-149.157
11
213.15
21
-148.817
0
LINE
8
BLACK
6
CONTINUOUS
10
213.15
20
-148.817
11
213.365
21
-148.458
0
LINE
8
BLACK
6
CONTINUOUS
10
213.365
20
-148.458
11
213.548
21
-148.082
0
LINE
8
BLACK
6
CONTINUOUS
10
213.548
20
-148.082
11
213.7
21
-147.693
0
LINE
8
BLACK
6
CONTINUOUS
10
213.7
20
-147.693
11
213.82
21
-147.292
0
LINE
8
BLACK
6
CONTINUOUS
10
213.82
20
-147.292
11
213.905
21
-146.883
0
LINE
8
BLACK
6
CONTINUOUS
10
213.905
20
-146.883
11
213.957
21
-146.468
0
LINE
8
BLACK
6
CONTINUOUS
10
213.957
20
-146.468
11
213.974
21
-146.059
0
LINE
8
BLACK
6
CONTINUOUS
10
213.974
20
-146.059
11
213.97
21
-146.05
0
LINE
8
BLACK
6
CONTINUOUS
10
213.97
20
-146.05
11
213.97
21
-52.07
0
LINE
8
BLACK
6
CONTINUOUS
10
213.97
20
-52.07
11
213.974
21
-52.0605
0
LINE
8
BLACK
6
CONTINUOUS
10
213.974
20
-52.0605
11
213.957
21
-51.6522
0
LINE
8
BLACK
6
CONTINUOUS
10
213.957
20
-51.6522
11
213.905
21
-51.2373
0
LINE
8
BLACK
6
CONTINUOUS
10
213.905
20
-51.2373
11
213.82
21
-50.828
0
LINE
8
BLACK
6
CONTINUOUS
10
213.82
20
-50.828
11
213.7
21
-50.4272
0
LINE
8
BLACK
6
CONTINUOUS
10
213.7
20
-50.4272
11
213.548
21
-50.0377
0
LINE
8
BLACK
6
CONTINUOUS
10
213.548
20
-50.0377
11
213.365
21
-49.662
0
LINE
8
BLACK
6
CONTINUOUS
10
213.365
20
-49.662
11
213.15
21
-49.3028
0
LINE
8
BLACK
6
CONTINUOUS
10
213.15
20
-49.3028
11
212.908
21
-48.9625
0
LINE
8
BLACK
6
CONTINUOUS
10
212.908
20
-48.9625
11
212.637
21
-48.6434
0
LINE
8
BLACK
6
CONTINUOUS
10
212.637
20
-48.6434
11
212.342
21
-48.3477
0
LINE
8
BLACK
6
CONTINUOUS
10
212.342
20
-48.3477
11
212.022
21
-48.0775
0
LINE
8
BLACK
6
CONTINUOUS
10
212.022
20
-48.0775
11
211.682
21
-47.8345
0
LINE
8
BLACK
6
CONTINUOUS
10
211.682
20
-47.8345
11
211.323
21
-47.6205
0
LINE
8
BLACK
6
CONTINUOUS
10
211.323
20
-47.6205
11
210.947
21
-47.4368
0
LINE
8
BLACK
6
CONTINUOUS
10
210.947
20
-47.4368
11
210.558
21
-47.2848
0
LINE
8
BLACK
6
CONTINUOUS
10
210.558
20
-47.2848
11
210.157
21
-47.1655
0
LINE
8
BLACK
6
CONTINUOUS
10
210.157
20
-47.1655
11
209.748
21
-47.0797
0
LINE
8
BLACK
6
CONTINUOUS
10
209.748
20
-47.0797
11
209.333
21
-47.028
0
LINE
8
BLACK
6
CONTINUOUS
10
209.333
20
-47.028
11
208.924
21
-47.0111
0
LINE
8
BLACK
6
CONTINUOUS
10
208.924
20
-47.0111
11
208.915
21
-47.015
0
LINE
8
BLACK
6
CONTINUOUS
10
208.915
20
-47.015
11
81.915
21
-47.015
0
LINE
8
BLACK
6
CONTINUOUS
10
81.915
20
-47.015
11
81.9055
21
-47.0111
0
LINE
8
BLACK
6
CONTINUOUS
10
179.751
20
-139.06
11
179.851
21
-138.752
0
LINE
8
BLACK
6
CONTINUOUS
10
179.851
20
-138.752
11
179.989
21
-138.459
0
LINE
8
BLACK
6
CONTINUOUS
10
179.989
20
-138.459
11
180.162
21
-138.186
0
LINE
8
BLACK
6
CONTINUOUS
10
180.162
20
-138.186
11
180.368
21
-137.937
0
LINE
8
BLACK
6
CONTINUOUS
10
180.368
20
-137.937
11
180.604
21
-137.716
0
LINE
8
BLACK
6
CONTINUOUS
10
180.604
20
-137.716
11
180.865
21
-137.526
0
LINE
8
BLACK
6
CONTINUOUS
10
180.865
20
-137.526
11
181.149
21
-137.37
0
LINE
8
BLACK
6
CONTINUOUS
10
181.149
20
-137.37
11
181.449
21
-137.251
0
LINE
8
BLACK
6
CONTINUOUS
10
181.449
20
-137.251
11
181.762
21
-137.171
0
LINE
8
BLACK
6
CONTINUOUS
10
181.762
20
-137.171
11
182.083
21
-137.13
0
LINE
8
BLACK
6
CONTINUOUS
10
182.083
20
-137.13
11
182.407
21
-137.13
0
LINE
8
BLACK
6
CONTINUOUS
10
182.407
20
-137.13
11
182.728
21
-137.171
0
LINE
8
BLACK
6
CONTINUOUS
10
182.728
20
-137.171
11
183.041
21
-137.251
0
LINE
8
BLACK
6
CONTINUOUS
10
183.041
20
-137.251
11
183.341
21
-137.37
0
LINE
8
BLACK
6
CONTINUOUS
10
183.341
20
-137.37
11
183.625
21
-137.526
0
LINE
8
BLACK
6
CONTINUOUS
10
183.625
20
-137.526
11
183.886
21
-137.716
0
LINE
8
BLACK
6
CONTINUOUS
10
183.886
20
-137.716
11
184.122
21
-137.937
0
LINE
8
BLACK
6
CONTINUOUS
10
184.122
20
-137.937
11
184.328
21
-138.186
0
LINE
8
BLACK
6
CONTINUOUS
10
184.328
20
-138.186
11
184.501
21
-138.459
0
LINE
8
BLACK
6
CONTINUOUS
10
184.501
20
-138.459
11
184.639
21
-138.752
0
LINE
8
BLACK
6
CONTINUOUS
10
184.639
20
-138.752
11
184.739
21
-139.06
0
LINE
8
BLACK
6
CONTINUOUS
10
184.739
20
-139.06
11
184.8
21
-139.377
0
LINE
8
BLACK
6
CONTINUOUS
10
184.8
20
-139.377
11
184.82
21
-139.7
0
LINE
8
BLACK
6
CONTINUOUS
10
184.82
20
-139.7
11
184.8
21
-140.023
0
LINE
8
BLACK
6
CONTINUOUS
10
184.8
20
-140.023
11
184.739
21
-140.34
0
LINE
8
BLACK
6
CONTINUOUS
10
184.739
20
-140.34
11
184.639
21
-140.648
0
LINE
8
BLACK
6
CONTINUOUS
10
184.639
20
-140.648
11
184.501
21
-140.941
0
LINE
8
BLACK
6
CONTINUOUS
10
184.501
20
-140.941
11
184.328
21
-141.214
0
LINE
8
BLACK
6
CONTINUOUS
10
184.328
20
-141.214
11
184.122
21
-141.463
0
LINE
8
BLACK
6
CONTINUOUS
10
184.122
20
-141.463
11
183.886
21
-141.684
0
LINE
8
BLACK
6
CONTINUOUS
10
183.886
20
-141.684
11
183.625
21
-141.874
0
LINE
8
BLACK
6
CONTINUOUS
10
183.625
20
-141.874
11
183.341
21
-142.03
0
LINE
8
BLACK
6
CONTINUOUS
10
183.341
20
-142.03
11
183.041
21
-142.149
0
LINE
8
BLACK
6
CONTINUOUS
10
183.041
20
-142.149
11
182.728
21
-142.229
0
LINE
8
BLACK
6
CONTINUOUS
10
182.728
20
-142.229
11
182.407
21
-142.27
0
LINE
8
BLACK
6
CONTINUOUS
10
182.407
20
-142.27
11
182.083
21
-142.27
0
LINE
8
BLACK
6
CONTINUOUS
10
182.083
20
-142.27
11
181.762
21
-142.229
0
LINE
8
BLACK
6
CONTINUOUS
10
181.762
20
-142.229
11
181.449
21
-142.149
0
LINE
8
BLACK
6
CONTINUOUS
10
181.449
20
-142.149
11
181.149
21
-142.03
0
LINE
8
BLACK
6
CONTINUOUS
10
181.149
20
-142.03
11
180.865
21
-141.874
0
LINE
8
BLACK
6
CONTINUOUS
10
180.865
20
-141.874
11
180.604
21
-141.684
0
LINE
8
BLACK
6
CONTINUOUS
10
180.604
20
-141.684
11
180.368
21
-141.463
0
LINE
8
BLACK
6
CONTINUOUS
10
180.368
20
-141.463
11
180.162
21
-141.214
0
LINE
8
BLACK
6
CONTINUOUS
10
180.162
20
-141.214
11
179.989
21
-140.941
0
LINE
8
BLACK
6
CONTINUOUS
10
179.989
20
-140.941
11
179.851
21
-140.648
0
LINE
8
BLACK
6
CONTINUOUS
10
179.851
20
-140.648
11
179.751
21
-140.34
0
LINE
8
BLACK
6
CONTINUOUS
10
179.751
20
-140.34
11
179.69
21
-140.023
0
LINE
8
BLACK
6
CONTINUOUS
10
179.69
20
-140.023
11
179.67
21
-139.7
0
LINE
8
BLACK
6
CONTINUOUS
10
179.67
20
-139.7
11
179.69
21
-139.377
0
LINE
8
BLACK
6
CONTINUOUS
10
179.69
20
-139.377
11
179.751
21
-139.06
0
LINE
8
BLACK
6
CONTINUOUS
10
179.794
20
-140.329
11
179.893
21
-140.631
0
LINE
8
BLACK
6
CONTINUOUS
10
179.893
20
-140.631
11
180.028
21
-140.919
0
LINE
8
BLACK
6
CONTINUOUS
10
180.028
20
-140.919
11
180.198
21
-141.187
0
LINE
8
BLACK
6
CONTINUOUS
10
180.198
20
-141.187
11
180.401
21
-141.432
0
LINE
8
BLACK
6
CONTINUOUS
10
180.401
20
-141.432
11
180.632
21
-141.649
0
LINE
8
BLACK
6
CONTINUOUS
10
180.632
20
-141.649
11
180.889
21
-141.836
0
LINE
8
BLACK
6
CONTINUOUS
10
180.889
20
-141.836
11
181.168
21
-141.989
0
LINE
8
BLACK
6
CONTINUOUS
10
181.168
20
-141.989
11
181.463
21
-142.106
0
LINE
8
BLACK
6
CONTINUOUS
10
181.463
20
-142.106
11
181.771
21
-142.185
0
LINE
8
BLACK
6
CONTINUOUS
10
181.771
20
-142.185
11
182.086
21
-142.225
0
LINE
8
BLACK
6
CONTINUOUS
10
182.086
20
-142.225
11
182.404
21
-142.225
0
LINE
8
BLACK
6
CONTINUOUS
10
182.404
20
-142.225
11
182.719
21
-142.185
0
LINE
8
BLACK
6
CONTINUOUS
10
182.719
20
-142.185
11
183.027
21
-142.106
0
LINE
8
BLACK
6
CONTINUOUS
10
183.027
20
-142.106
11
183.322
21
-141.989
0
LINE
8
BLACK
6
CONTINUOUS
10
183.322
20
-141.989
11
183.601
21
-141.836
0
LINE
8
BLACK
6
CONTINUOUS
10
183.601
20
-141.836
11
183.858
21
-141.649
0
LINE
8
BLACK
6
CONTINUOUS
10
183.858
20
-141.649
11
184.089
21
-141.432
0
LINE
8
BLACK
6
CONTINUOUS
10
184.089
20
-141.432
11
184.292
21
-141.187
0
LINE
8
BLACK
6
CONTINUOUS
10
184.292
20
-141.187
11
184.462
21
-140.919
0
LINE
8
BLACK
6
CONTINUOUS
10
184.462
20
-140.919
11
184.597
21
-140.631
0
LINE
8
BLACK
6
CONTINUOUS
10
184.597
20
-140.631
11
184.696
21
-140.329
0
LINE
8
BLACK
6
CONTINUOUS
10
184.696
20
-140.329
11
184.755
21
-140.017
0
LINE
8
BLACK
6
CONTINUOUS
10
184.755
20
-140.017
11
184.775
21
-139.7
0
LINE
8
BLACK
6
CONTINUOUS
10
184.775
20
-139.7
11
184.755
21
-139.383
0
LINE
8
BLACK
6
CONTINUOUS
10
184.755
20
-139.383
11
184.696
21
-139.071
0
LINE
8
BLACK
6
CONTINUOUS
10
184.696
20
-139.071
11
184.597
21
-138.769
0
LINE
8
BLACK
6
CONTINUOUS
10
184.597
20
-138.769
11
184.462
21
-138.481
0
LINE
8
BLACK
6
CONTINUOUS
10
184.462
20
-138.481
11
184.292
21
-138.213
0
LINE
8
BLACK
6
CONTINUOUS
10
184.292
20
-138.213
11
184.089
21
-137.968
0
LINE
8
BLACK
6
CONTINUOUS
10
184.089
20
-137.968
11
183.858
21
-137.751
0
LINE
8
BLACK
6
CONTINUOUS
10
183.858
20
-137.751
11
183.601
21
-137.564
0
LINE
8
BLACK
6
CONTINUOUS
10
183.601
20
-137.564
11
183.322
21
-137.411
0
LINE
8
BLACK
6
CONTINUOUS
10
183.322
20
-137.411
11
183.027
21
-137.294
0
LINE
8
BLACK
6
CONTINUOUS
10
183.027
20
-137.294
11
182.719
21
-137.215
0
LINE
8
BLACK
6
CONTINUOUS
10
182.719
20
-137.215
11
182.404
21
-137.175
0
LINE
8
BLACK
6
CONTINUOUS
10
182.404
20
-137.175
11
182.086
21
-137.175
0
LINE
8
BLACK
6
CONTINUOUS
10
182.086
20
-137.175
11
181.771
21
-137.215
0
LINE
8
BLACK
6
CONTINUOUS
10
181.771
20
-137.215
11
181.463
21
-137.294
0
LINE
8
BLACK
6
CONTINUOUS
10
181.463
20
-137.294
11
181.168
21
-137.411
0
LINE
8
BLACK
6
CONTINUOUS
10
181.168
20
-137.411
11
180.889
21
-137.564
0
LINE
8
BLACK
6
CONTINUOUS
10
180.889
20
-137.564
11
180.632
21
-137.751
0
LINE
8
BLACK
6
CONTINUOUS
10
180.632
20
-137.751
11
180.401
21
-137.968
0
LINE
8
BLACK
6
CONTINUOUS
10
180.401
20
-137.968
11
180.198
21
-138.213
0
LINE
8
BLACK
6
CONTINUOUS
10
180.198
20
-138.213
11
180.028
21
-138.481
0
LINE
8
BLACK
6
CONTINUOUS
10
180.028
20
-138.481
11
179.893
21
-138.769
0
LINE
8
BLACK
6
CONTINUOUS
10
179.893
20
-138.769
11
179.794
21
-139.071
0
LINE
8
BLACK
6
CONTINUOUS
10
179.794
20
-139.071
11
179.735
21
-139.383
0
LINE
8
BLACK
6
CONTINUOUS
10
179.735
20
-139.383
11
179.715
21
-139.7
0
LINE
8
BLACK
6
CONTINUOUS
10
179.715
20
-139.7
11
179.735
21
-140.017
0
LINE
8
BLACK
6
CONTINUOUS
10
179.735
20
-140.017
11
179.794
21
-140.329
0
LINE
8
BLACK
6
CONTINUOUS
10
106.091
20
-139.06
11
106.191
21
-138.752
0
LINE
8
BLACK
6
CONTINUOUS
10
106.191
20
-138.752
11
106.329
21
-138.459
0
LINE
8
BLACK
6
CONTINUOUS
10
106.329
20
-138.459
11
106.502
21
-138.186
0
LINE
8
BLACK
6
CONTINUOUS
10
106.502
20
-138.186
11
106.708
21
-137.937
0
LINE
8
BLACK
6
CONTINUOUS
10
106.708
20
-137.937
11
106.944
21
-137.716
0
LINE
8
BLACK
6
CONTINUOUS
10
106.944
20
-137.716
11
107.205
21
-137.526
0
LINE
8
BLACK
6
CONTINUOUS
10
107.205
20
-137.526
11
107.489
21
-137.37
0
LINE
8
BLACK
6
CONTINUOUS
10
107.489
20
-137.37
11
107.789
21
-137.251
0
LINE
8
BLACK
6
CONTINUOUS
10
107.789
20
-137.251
11
108.102
21
-137.171
0
LINE
8
BLACK
6
CONTINUOUS
10
108.102
20
-137.171
11
108.423
21
-137.13
0
LINE
8
BLACK
6
CONTINUOUS
10
108.423
20
-137.13
11
108.747
21
-137.13
0
LINE
8
BLACK
6
CONTINUOUS
10
108.747
20
-137.13
11
109.068
21
-137.171
0
LINE
8
BLACK
6
CONTINUOUS
10
109.068
20
-137.171
11
109.381
21
-137.251
0
LINE
8
BLACK
6
CONTINUOUS
10
109.381
20
-137.251
11
109.681
21
-137.37
0
LINE
8
BLACK
6
CONTINUOUS
10
109.681
20
-137.37
11
109.965
21
-137.526
0
LINE
8
BLACK
6
CONTINUOUS
10
109.965
20
-137.526
11
110.226
21
-137.716
0
LINE
8
BLACK
6
CONTINUOUS
10
110.226
20
-137.716
11
110.462
21
-137.937
0
LINE
8
BLACK
6
CONTINUOUS
10
110.462
20
-137.937
11
110.668
21
-138.186
0
LINE
8
BLACK
6
CONTINUOUS
10
110.668
20
-138.186
11
110.841
21
-138.459
0
LINE
8
BLACK
6
CONTINUOUS
10
110.841
20
-138.459
11
110.979
21
-138.752
0
LINE
8
BLACK
6
CONTINUOUS
10
110.979
20
-138.752
11
111.079
21
-139.06
0
LINE
8
BLACK
6
CONTINUOUS
10
111.079
20
-139.06
11
111.14
21
-139.377
0
LINE
8
BLACK
6
CONTINUOUS
10
111.14
20
-139.377
11
111.16
21
-139.7
0
LINE
8
BLACK
6
CONTINUOUS
10
111.16
20
-139.7
11
111.14
21
-140.023
0
LINE
8
BLACK
6
CONTINUOUS
10
111.14
20
-140.023
11
111.079
21
-140.34
0
LINE
8
BLACK
6
CONTINUOUS
10
111.079
20
-140.34
11
110.979
21
-140.648
0
LINE
8
BLACK
6
CONTINUOUS
10
110.979
20
-140.648
11
110.841
21
-140.941
0
LINE
8
BLACK
6
CONTINUOUS
10
110.841
20
-140.941
11
110.668
21
-141.214
0
LINE
8
BLACK
6
CONTINUOUS
10
110.668
20
-141.214
11
110.462
21
-141.463
0
LINE
8
BLACK
6
CONTINUOUS
10
110.462
20
-141.463
11
110.226
21
-141.684
0
LINE
8
BLACK
6
CONTINUOUS
10
110.226
20
-141.684
11
109.965
21
-141.874
0
LINE
8
BLACK
6
CONTINUOUS
10
109.965
20
-141.874
11
109.681
21
-142.03
0
LINE
8
BLACK
6
CONTINUOUS
10
109.681
20
-142.03
11
109.381
21
-142.149
0
LINE
8
BLACK
6
CONTINUOUS
10
109.381
20
-142.149
11
109.068
21
-142.229
0
LINE
8
BLACK
6
CONTINUOUS
10
109.068
20
-142.229
11
108.747
21
-142.27
0
LINE
8
BLACK
6
CONTINUOUS
10
108.747
20
-142.27
11
108.423
21
-142.27
0
LINE
8
BLACK
6
CONTINUOUS
10
108.423
20
-142.27
11
108.102
21
-142.229
0
LINE
8
BLACK
6
CONTINUOUS
10
108.102
20
-142.229
11
107.789
21
-142.149
0
LINE
8
BLACK
6
CONTINUOUS
10
107.789
20
-142.149
11
107.489
21
-142.03
0
LINE
8
BLACK
6
CONTINUOUS
10
107.489
20
-142.03
11
107.205
21
-141.874
0
LINE
8
BLACK
6
CONTINUOUS
10
107.205
20
-141.874
11
106.944
21
-141.684
0
LINE
8
BLACK
6
CONTINUOUS
10
106.944
20
-141.684
11
106.708
21
-141.463
0
LINE
8
BLACK
6
CONTINUOUS
10
106.708
20
-141.463
11
106.502
21
-141.214
0
LINE
8
BLACK
6
CONTINUOUS
10
106.502
20
-141.214
11
106.329
21
-140.941
0
LINE
8
BLACK
6
CONTINUOUS
10
106.329
20
-140.941
11
106.191
21
-140.648
0
LINE
8
BLACK
6
CONTINUOUS
10
106.191
20
-140.648
11
106.091
21
-140.34
0
LINE
8
BLACK
6
CONTINUOUS
10
106.091
20
-140.34
11
106.03
21
-140.023
0
LINE
8
BLACK
6
CONTINUOUS
10
106.03
20
-140.023
11
106.01
21
-139.7
0
LINE
8
BLACK
6
CONTINUOUS
10
106.01
20
-139.7
11
106.03
21
-139.377
0
LINE
8
BLACK
6
CONTINUOUS
10
106.03
20
-139.377
11
106.091
21
-139.06
0
LINE
8
BLACK
6
CONTINUOUS
10
106.134
20
-140.329
11
106.233
21
-140.631
0
LINE
8
BLACK
6
CONTINUOUS
10
106.233
20
-140.631
11
106.368
21
-140.919
0
LINE
8
BLACK
6
CONTINUOUS
10
106.368
20
-140.919
11
106.538
21
-141.187
0
LINE
8
BLACK
6
CONTINUOUS
10
106.538
20
-141.187
11
106.741
21
-141.432
0
LINE
8
BLACK
6
CONTINUOUS
10
106.741
20
-141.432
11
106.972
21
-141.649
0
LINE
8
BLACK
6
CONTINUOUS
10
106.972
20
-141.649
11
107.229
21
-141.836
0
LINE
8
BLACK
6
CONTINUOUS
10
107.229
20
-141.836
11
107.508
21
-141.989
0
LINE
8
BLACK
6
CONTINUOUS
10
107.508
20
-141.989
11
107.803
21
-142.106
0
LINE
8
BLACK
6
CONTINUOUS
10
107.803
20
-142.106
11
108.111
21
-142.185
0
LINE
8
BLACK
6
CONTINUOUS
10
108.111
20
-142.185
11
108.426
21
-142.225
0
LINE
8
BLACK
6
CONTINUOUS
10
108.426
20
-142.225
11
108.744
21
-142.225
0
LINE
8
BLACK
6
CONTINUOUS
10
108.744
20
-142.225
11
109.059
21
-142.185
0
LINE
8
BLACK
6
CONTINUOUS
10
109.059
20
-142.185
11
109.367
21
-142.106
0
LINE
8
BLACK
6
CONTINUOUS
10
109.367
20
-142.106
11
109.662
21
-141.989
0
LINE
8
BLACK
6
CONTINUOUS
10
109.662
20
-141.989
11
109.941
21
-141.836
0
LINE
8
BLACK
6
CONTINUOUS
10
109.941
20
-141.836
11
110.198
21
-141.649
0
LINE
8
BLACK
6
CONTINUOUS
10
110.198
20
-141.649
11
110.429
21
-141.432
0
LINE
8
BLACK
6
CONTINUOUS
10
110.429
20
-141.432
11
110.632
21
-141.187
0
LINE
8
BLACK
6
CONTINUOUS
10
110.632
20
-141.187
11
110.802
21
-140.919
0
LINE
8
BLACK
6
CONTINUOUS
10
110.802
20
-140.919
11
110.937
21
-140.631
0
LINE
8
BLACK
6
CONTINUOUS
10
110.937
20
-140.631
11
111.036
21
-140.329
0
LINE
8
BLACK
6
CONTINUOUS
10
111.036
20
-140.329
11
111.095
21
-140.017
0
LINE
8
BLACK
6
CONTINUOUS
10
111.095
20
-140.017
11
111.115
21
-139.7
0
LINE
8
BLACK
6
CONTINUOUS
10
111.115
20
-139.7
11
111.095
21
-139.383
0
LINE
8
BLACK
6
CONTINUOUS
10
111.095
20
-139.383
11
111.036
21
-139.071
0
LINE
8
BLACK
6
CONTINUOUS
10
111.036
20
-139.071
11
110.937
21
-138.769
0
LINE
8
BLACK
6
CONTINUOUS
10
110.937
20
-138.769
11
110.802
21
-138.481
0
LINE
8
BLACK
6
CONTINUOUS
10
110.802
20
-138.481
11
110.632
21
-138.213
0
LINE
8
BLACK
6
CONTINUOUS
10
110.632
20
-138.213
11
110.429
21
-137.968
0
LINE
8
BLACK
6
CONTINUOUS
10
110.429
20
-137.968
11
110.198
21
-137.751
0
LINE
8
BLACK
6
CONTINUOUS
10
110.198
20
-137.751
11
109.941
21
-137.564
0
LINE
8
BLACK
6
CONTINUOUS
10
109.941
20
-137.564
11
109.662
21
-137.411
0
LINE
8
BLACK
6
CONTINUOUS
10
109.662
20
-137.411
11
109.367
21
-137.294
0
LINE
8
BLACK
6
CONTINUOUS
10
109.367
20
-137.294
11
109.059
21
-137.215
0
LINE
8
BLACK
6
CONTINUOUS
10
109.059
20
-137.215
11
108.744
21
-137.175
0
LINE
8
BLACK
6
CONTINUOUS
10
108.744
20
-137.175
11
108.426
21
-137.175
0
LINE
8
BLACK
6
CONTINUOUS
10
108.426
20
-137.175
11
108.111
21
-137.215
0
LINE
8
BLACK
6
CONTINUOUS
10
108.111
20
-137.215
11
107.803
21
-137.294
0
LINE
8
BLACK
6
CONTINUOUS
10
107.803
20
-137.294
11
107.508
21
-137.411
0
LINE
8
BLACK
6
CONTINUOUS
10
107.508
20
-137.411
11
107.229
21
-137.564
0
LINE
8
BLACK
6
CONTINUOUS
10
107.229
20
-137.564
11
106.972
21
-137.751
0
LINE
8
BLACK
6
CONTINUOUS
10
106.972
20
-137.751
11
106.741
21
-137.968
0
LINE
8
BLACK
6
CONTINUOUS
10
106.741
20
-137.968
11
106.538
21
-138.213
0
LINE
8
BLACK
6
CONTINUOUS
10
106.538
20
-138.213
11
106.368
21
-138.481
0
LINE
8
BLACK
6
CONTINUOUS
10
106.368
20
-138.481
11
106.233
21
-138.769
0
LINE
8
BLACK
6
CONTINUOUS
10
106.233
20
-138.769
11
106.134
21
-139.071
0
LINE
8
BLACK
6
CONTINUOUS
10
106.134
20
-139.071
11
106.075
21
-139.383
0
LINE
8
BLACK
6
CONTINUOUS
10
106.075
20
-139.383
11
106.055
21
-139.7
0
LINE
8
BLACK
6
CONTINUOUS
10
106.055
20
-139.7
11
106.075
21
-140.017
0
LINE
8
BLACK
6
CONTINUOUS
10
106.075
20
-140.017
11
106.134
21
-140.329
0
LINE
8
BLACK
6
CONTINUOUS
10
191.485
20
-139.154
11
191.548
21
-138.674
0
LINE
8
BLACK
6
CONTINUOUS
10
191.548
20
-138.674
11
191.649
21
-138.202
0
LINE
8
BLACK
6
CONTINUOUS
10
191.649
20
-138.202
11
191.788
21
-137.738
0
LINE
8
BLACK
6
CONTINUOUS
10
191.788
20
-137.738
11
191.964
21
-137.288
0
LINE
8
BLACK
6
CONTINUOUS
10
191.964
20
-137.288
11
192.175
21
-136.853
0
LINE
8
BLACK
6
CONTINUOUS
10
192.175
20
-136.853
11
192.421
21
-136.436
0
LINE
8
BLACK
6
CONTINUOUS
10
192.421
20
-136.436
11
192.699
21
-136.041
0
LINE
8
BLACK
6
CONTINUOUS
10
192.699
20
-136.041
11
193.008
21
-135.668
0
LINE
8
BLACK
6
CONTINUOUS
10
193.008
20
-135.668
11
193.345
21
-135.322
0
LINE
8
BLACK
6
CONTINUOUS
10
193.345
20
-135.322
11
193.71
21
-135.004
0
LINE
8
BLACK
6
CONTINUOUS
10
193.71
20
-135.004
11
194.098
21
-134.717
0
LINE
8
BLACK
6
CONTINUOUS
10
194.098
20
-134.717
11
194.509
21
-134.461
0
LINE
8
BLACK
6
CONTINUOUS
10
194.509
20
-134.461
11
194.939
21
-134.239
0
LINE
8
BLACK
6
CONTINUOUS
10
194.939
20
-134.239
11
195.385
21
-134.053
0
LINE
8
BLACK
6
CONTINUOUS
10
195.385
20
-134.053
11
195.845
21
-133.903
0
LINE
8
BLACK
6
CONTINUOUS
10
195.845
20
-133.903
11
196.315
21
-133.79
0
LINE
8
BLACK
6
CONTINUOUS
10
196.315
20
-133.79
11
196.793
21
-133.715
0
LINE
8
BLACK
6
CONTINUOUS
10
196.793
20
-133.715
11
197.275
21
-133.679
0
LINE
8
BLACK
6
CONTINUOUS
10
197.275
20
-133.679
11
197.758
21
-133.681
0
LINE
8
BLACK
6
CONTINUOUS
10
197.758
20
-133.681
11
198.24
21
-133.723
0
LINE
8
BLACK
6
CONTINUOUS
10
198.24
20
-133.723
11
198.717
21
-133.802
0
LINE
8
BLACK
6
CONTINUOUS
10
198.717
20
-133.802
11
199.186
21
-133.92
0
LINE
8
BLACK
6
CONTINUOUS
10
199.186
20
-133.92
11
199.644
21
-134.075
0
LINE
8
BLACK
6
CONTINUOUS
10
199.644
20
-134.075
11
200.088
21
-134.266
0
LINE
8
BLACK
6
CONTINUOUS
10
200.088
20
-134.266
11
200.516
21
-134.493
0
LINE
8
BLACK
6
CONTINUOUS
10
200.516
20
-134.493
11
200.924
21
-134.753
0
LINE
8
BLACK
6
CONTINUOUS
10
200.924
20
-134.753
11
201.309
21
-135.044
0
LINE
8
BLACK
6
CONTINUOUS
10
201.309
20
-135.044
11
201.67
21
-135.366
0
LINE
8
BLACK
6
CONTINUOUS
10
201.67
20
-135.366
11
202.004
21
-135.716
0
LINE
8
BLACK
6
CONTINUOUS
10
202.004
20
-135.716
11
202.309
21
-136.091
0
LINE
8
BLACK
6
CONTINUOUS
10
202.309
20
-136.091
11
202.583
21
-136.489
0
LINE
8
BLACK
6
CONTINUOUS
10
202.583
20
-136.489
11
202.824
21
-136.909
0
LINE
8
BLACK
6
CONTINUOUS
10
202.824
20
-136.909
11
203.031
21
-137.346
0
LINE
8
BLACK
6
CONTINUOUS
10
203.031
20
-137.346
11
203.202
21
-137.798
0
LINE
8
BLACK
6
CONTINUOUS
10
203.202
20
-137.798
11
203.336
21
-138.263
0
LINE
8
BLACK
6
CONTINUOUS
10
203.336
20
-138.263
11
203.432
21
-138.737
0
LINE
8
BLACK
6
CONTINUOUS
10
203.432
20
-138.737
11
203.491
21
-139.217
0
LINE
8
BLACK
6
CONTINUOUS
10
203.491
20
-139.217
11
203.51
21
-139.7
0
LINE
8
BLACK
6
CONTINUOUS
10
203.51
20
-139.7
11
203.509
21
-139.826
0
LINE
8
BLACK
6
CONTINUOUS
10
203.509
20
-139.826
11
203.479
21
-140.309
0
LINE
8
BLACK
6
CONTINUOUS
10
203.479
20
-140.309
11
203.411
21
-140.788
0
LINE
8
BLACK
6
CONTINUOUS
10
203.411
20
-140.788
11
203.305
21
-141.259
0
LINE
8
BLACK
6
CONTINUOUS
10
203.305
20
-141.259
11
203.161
21
-141.721
0
LINE
8
BLACK
6
CONTINUOUS
10
203.161
20
-141.721
11
202.981
21
-142.17
0
LINE
8
BLACK
6
CONTINUOUS
10
202.981
20
-142.17
11
202.765
21
-142.603
0
LINE
8
BLACK
6
CONTINUOUS
10
202.765
20
-142.603
11
202.515
21
-143.017
0
LINE
8
BLACK
6
CONTINUOUS
10
202.515
20
-143.017
11
202.233
21
-143.409
0
LINE
8
BLACK
6
CONTINUOUS
10
202.233
20
-143.409
11
201.92
21
-143.778
0
LINE
8
BLACK
6
CONTINUOUS
10
201.92
20
-143.778
11
201.579
21
-144.121
0
LINE
8
BLACK
6
CONTINUOUS
10
201.579
20
-144.121
11
201.211
21
-144.435
0
LINE
8
BLACK
6
CONTINUOUS
10
201.211
20
-144.435
11
200.819
21
-144.718
0
LINE
8
BLACK
6
CONTINUOUS
10
200.819
20
-144.718
11
200.406
21
-144.97
0
LINE
8
BLACK
6
CONTINUOUS
10
200.406
20
-144.97
11
199.974
21
-145.187
0
LINE
8
BLACK
6
CONTINUOUS
10
199.974
20
-145.187
11
199.526
21
-145.369
0
LINE
8
BLACK
6
CONTINUOUS
10
199.526
20
-145.369
11
199.065
21
-145.514
0
LINE
8
BLACK
6
CONTINUOUS
10
199.065
20
-145.514
11
198.593
21
-145.622
0
LINE
8
BLACK
6
CONTINUOUS
10
198.593
20
-145.622
11
198.115
21
-145.692
0
LINE
8
BLACK
6
CONTINUOUS
10
198.115
20
-145.692
11
197.632
21
-145.723
0
LINE
8
BLACK
6
CONTINUOUS
10
197.632
20
-145.723
11
197.149
21
-145.716
0
LINE
8
BLACK
6
CONTINUOUS
10
197.149
20
-145.716
11
196.667
21
-145.669
0
LINE
8
BLACK
6
CONTINUOUS
10
196.667
20
-145.669
11
196.191
21
-145.584
0
LINE
8
BLACK
6
CONTINUOUS
10
196.191
20
-145.584
11
195.723
21
-145.462
0
LINE
8
BLACK
6
CONTINUOUS
10
195.723
20
-145.462
11
195.267
21
-145.302
0
LINE
8
BLACK
6
CONTINUOUS
10
195.267
20
-145.302
11
194.825
21
-145.106
0
LINE
8
BLACK
6
CONTINUOUS
10
194.825
20
-145.106
11
194.4
21
-144.875
0
LINE
8
BLACK
6
CONTINUOUS
10
194.4
20
-144.875
11
193.995
21
-144.611
0
LINE
8
BLACK
6
CONTINUOUS
10
193.995
20
-144.611
11
193.612
21
-144.315
0
LINE
8
BLACK
6
CONTINUOUS
10
193.612
20
-144.315
11
193.255
21
-143.99
0
LINE
8
BLACK
6
CONTINUOUS
10
193.255
20
-143.99
11
192.924
21
-143.637
0
LINE
8
BLACK
6
CONTINUOUS
10
192.924
20
-143.637
11
192.623
21
-143.258
0
LINE
8
BLACK
6
CONTINUOUS
10
192.623
20
-143.258
11
192.353
21
-142.857
0
LINE
8
BLACK
6
CONTINUOUS
10
192.353
20
-142.857
11
192.117
21
-142.435
0
LINE
8
BLACK
6
CONTINUOUS
10
192.117
20
-142.435
11
191.915
21
-141.996
0
LINE
8
BLACK
6
CONTINUOUS
10
191.915
20
-141.996
11
191.748
21
-141.542
0
LINE
8
BLACK
6
CONTINUOUS
10
191.748
20
-141.542
11
191.619
21
-141.076
0
LINE
8
BLACK
6
CONTINUOUS
10
191.619
20
-141.076
11
191.528
21
-140.601
0
LINE
8
BLACK
6
CONTINUOUS
10
191.528
20
-140.601
11
191.475
21
-140.12
0
LINE
8
BLACK
6
CONTINUOUS
10
191.475
20
-140.12
11
191.46
21
-139.637
0
LINE
8
BLACK
6
CONTINUOUS
10
191.46
20
-139.637
11
191.46
21
-139.637
0
LINE
8
BLACK
6
CONTINUOUS
10
191.46
20
-139.637
11
191.485
21
-139.154
0
LINE
8
BLACK
6
CONTINUOUS
10
191.572
20
-140.594
11
191.663
21
-141.066
0
LINE
8
BLACK
6
CONTINUOUS
10
191.663
20
-141.066
11
191.791
21
-141.528
0
LINE
8
BLACK
6
CONTINUOUS
10
191.791
20
-141.528
11
191.956
21
-141.979
0
LINE
8
BLACK
6
CONTINUOUS
10
191.956
20
-141.979
11
192.157
21
-142.415
0
LINE
8
BLACK
6
CONTINUOUS
10
192.157
20
-142.415
11
192.392
21
-142.833
0
LINE
8
BLACK
6
CONTINUOUS
10
192.392
20
-142.833
11
192.659
21
-143.232
0
LINE
8
BLACK
6
CONTINUOUS
10
192.659
20
-143.232
11
192.958
21
-143.607
0
LINE
8
BLACK
6
CONTINUOUS
10
192.958
20
-143.607
11
193.286
21
-143.958
0
LINE
8
BLACK
6
CONTINUOUS
10
193.286
20
-143.958
11
193.641
21
-144.281
0
LINE
8
BLACK
6
CONTINUOUS
10
193.641
20
-144.281
11
194.021
21
-144.574
0
LINE
8
BLACK
6
CONTINUOUS
10
194.021
20
-144.574
11
194.423
21
-144.836
0
LINE
8
BLACK
6
CONTINUOUS
10
194.423
20
-144.836
11
194.845
21
-145.065
0
LINE
8
BLACK
6
CONTINUOUS
10
194.845
20
-145.065
11
195.284
21
-145.26
0
LINE
8
BLACK
6
CONTINUOUS
10
195.284
20
-145.26
11
195.737
21
-145.419
0
LINE
8
BLACK
6
CONTINUOUS
10
195.737
20
-145.419
11
196.201
21
-145.54
0
LINE
8
BLACK
6
CONTINUOUS
10
196.201
20
-145.54
11
196.673
21
-145.625
0
LINE
8
BLACK
6
CONTINUOUS
10
196.673
20
-145.625
11
197.151
21
-145.671
0
LINE
8
BLACK
6
CONTINUOUS
10
197.151
20
-145.671
11
197.631
21
-145.678
0
LINE
8
BLACK
6
CONTINUOUS
10
197.631
20
-145.678
11
198.11
21
-145.647
0
LINE
8
BLACK
6
CONTINUOUS
10
198.11
20
-145.647
11
198.585
21
-145.578
0
LINE
8
BLACK
6
CONTINUOUS
10
198.585
20
-145.578
11
199.053
21
-145.471
0
LINE
8
BLACK
6
CONTINUOUS
10
199.053
20
-145.471
11
199.511
21
-145.326
0
LINE
8
BLACK
6
CONTINUOUS
10
199.511
20
-145.326
11
199.955
21
-145.146
0
LINE
8
BLACK
6
CONTINUOUS
10
199.955
20
-145.146
11
200.384
21
-144.93
0
LINE
8
BLACK
6
CONTINUOUS
10
200.384
20
-144.93
11
200.794
21
-144.681
0
LINE
8
BLACK
6
CONTINUOUS
10
200.794
20
-144.681
11
201.183
21
-144.399
0
LINE
8
BLACK
6
CONTINUOUS
10
201.183
20
-144.399
11
201.548
21
-144.088
0
LINE
8
BLACK
6
CONTINUOUS
10
201.548
20
-144.088
11
201.887
21
-143.748
0
LINE
8
BLACK
6
CONTINUOUS
10
201.887
20
-143.748
11
202.197
21
-143.382
0
LINE
8
BLACK
6
CONTINUOUS
10
202.197
20
-143.382
11
202.477
21
-142.992
0
LINE
8
BLACK
6
CONTINUOUS
10
202.477
20
-142.992
11
202.725
21
-142.581
0
LINE
8
BLACK
6
CONTINUOUS
10
202.725
20
-142.581
11
202.939
21
-142.151
0
LINE
8
BLACK
6
CONTINUOUS
10
202.939
20
-142.151
11
203.118
21
-141.706
0
LINE
8
BLACK
6
CONTINUOUS
10
203.118
20
-141.706
11
203.261
21
-141.248
0
LINE
8
BLACK
6
CONTINUOUS
10
203.261
20
-141.248
11
203.367
21
-140.779
0
LINE
8
BLACK
6
CONTINUOUS
10
203.367
20
-140.779
11
203.434
21
-140.304
0
LINE
8
BLACK
6
CONTINUOUS
10
203.434
20
-140.304
11
203.464
21
-139.825
0
LINE
8
BLACK
6
CONTINUOUS
10
203.464
20
-139.825
11
203.465
21
-139.7
0
LINE
8
BLACK
6
CONTINUOUS
10
203.465
20
-139.7
11
203.446
21
-139.22
0
LINE
8
BLACK
6
CONTINUOUS
10
203.446
20
-139.22
11
203.388
21
-138.744
0
LINE
8
BLACK
6
CONTINUOUS
10
203.388
20
-138.744
11
203.292
21
-138.274
0
LINE
8
BLACK
6
CONTINUOUS
10
203.292
20
-138.274
11
203.159
21
-137.812
0
LINE
8
BLACK
6
CONTINUOUS
10
203.159
20
-137.812
11
202.989
21
-137.363
0
LINE
8
BLACK
6
CONTINUOUS
10
202.989
20
-137.363
11
202.784
21
-136.93
0
LINE
8
BLACK
6
CONTINUOUS
10
202.784
20
-136.93
11
202.545
21
-136.513
0
LINE
8
BLACK
6
CONTINUOUS
10
202.545
20
-136.513
11
202.273
21
-136.118
0
LINE
8
BLACK
6
CONTINUOUS
10
202.273
20
-136.118
11
201.971
21
-135.745
0
LINE
8
BLACK
6
CONTINUOUS
10
201.971
20
-135.745
11
201.639
21
-135.398
0
LINE
8
BLACK
6
CONTINUOUS
10
201.639
20
-135.398
11
201.281
21
-135.079
0
LINE
8
BLACK
6
CONTINUOUS
10
201.281
20
-135.079
11
200.898
21
-134.79
0
LINE
8
BLACK
6
CONTINUOUS
10
200.898
20
-134.79
11
200.493
21
-134.532
0
LINE
8
BLACK
6
CONTINUOUS
10
200.493
20
-134.532
11
200.069
21
-134.307
0
LINE
8
BLACK
6
CONTINUOUS
10
200.069
20
-134.307
11
199.628
21
-134.117
0
LINE
8
BLACK
6
CONTINUOUS
10
199.628
20
-134.117
11
199.173
21
-133.963
0
LINE
8
BLACK
6
CONTINUOUS
10
199.173
20
-133.963
11
198.708
21
-133.847
0
LINE
8
BLACK
6
CONTINUOUS
10
198.708
20
-133.847
11
198.234
21
-133.767
0
LINE
8
BLACK
6
CONTINUOUS
10
198.234
20
-133.767
11
197.756
21
-133.726
0
LINE
8
BLACK
6
CONTINUOUS
10
197.756
20
-133.726
11
197.276
21
-133.724
0
LINE
8
BLACK
6
CONTINUOUS
10
197.276
20
-133.724
11
196.798
21
-133.76
0
LINE
8
BLACK
6
CONTINUOUS
10
196.798
20
-133.76
11
196.324
21
-133.834
0
LINE
8
BLACK
6
CONTINUOUS
10
196.324
20
-133.834
11
195.857
21
-133.946
0
LINE
8
BLACK
6
CONTINUOUS
10
195.857
20
-133.946
11
195.401
21
-134.095
0
LINE
8
BLACK
6
CONTINUOUS
10
195.401
20
-134.095
11
194.958
21
-134.28
0
LINE
8
BLACK
6
CONTINUOUS
10
194.958
20
-134.28
11
194.531
21
-134.501
0
LINE
8
BLACK
6
CONTINUOUS
10
194.531
20
-134.501
11
194.124
21
-134.754
0
LINE
8
BLACK
6
CONTINUOUS
10
194.124
20
-134.754
11
193.738
21
-135.04
0
LINE
8
BLACK
6
CONTINUOUS
10
193.738
20
-135.04
11
193.376
21
-135.355
0
LINE
8
BLACK
6
CONTINUOUS
10
193.376
20
-135.355
11
193.041
21
-135.699
0
LINE
8
BLACK
6
CONTINUOUS
10
193.041
20
-135.699
11
192.735
21
-136.068
0
LINE
8
BLACK
6
CONTINUOUS
10
192.735
20
-136.068
11
192.459
21
-136.461
0
LINE
8
BLACK
6
CONTINUOUS
10
192.459
20
-136.461
11
192.215
21
-136.874
0
LINE
8
BLACK
6
CONTINUOUS
10
192.215
20
-136.874
11
192.005
21
-137.306
0
LINE
8
BLACK
6
CONTINUOUS
10
192.005
20
-137.306
11
191.831
21
-137.753
0
LINE
8
BLACK
6
CONTINUOUS
10
191.831
20
-137.753
11
191.693
21
-138.213
0
LINE
8
BLACK
6
CONTINUOUS
10
191.693
20
-138.213
11
191.592
21
-138.682
0
LINE
8
BLACK
6
CONTINUOUS
10
191.592
20
-138.682
11
191.53
21
-139.158
0
LINE
8
BLACK
6
CONTINUOUS
10
191.53
20
-139.158
11
191.505
21
-139.637
0
LINE
8
BLACK
6
CONTINUOUS
10
191.505
20
-139.637
11
191.52
21
-140.117
0
LINE
8
BLACK
6
CONTINUOUS
10
191.52
20
-140.117
11
191.572
21
-140.594
0
LINE
8
BLACK
6
CONTINUOUS
10
87.3448
20
-139.154
11
87.4079
21
-138.674
0
LINE
8
BLACK
6
CONTINUOUS
10
87.4079
20
-138.674
11
87.5093
21
-138.202
0
LINE
8
BLACK
6
CONTINUOUS
10
87.5093
20
-138.202
11
87.6483
21
-137.738
0
LINE
8
BLACK
6
CONTINUOUS
10
87.6483
20
-137.738
11
87.8239
21
-137.288
0
LINE
8
BLACK
6
CONTINUOUS
10
87.8239
20
-137.288
11
88.0351
21
-136.853
0
LINE
8
BLACK
6
CONTINUOUS
10
88.0351
20
-136.853
11
88.2806
21
-136.436
0
LINE
8
BLACK
6
CONTINUOUS
10
88.2806
20
-136.436
11
88.5587
21
-136.041
0
LINE
8
BLACK
6
CONTINUOUS
10
88.5587
20
-136.041
11
88.8676
21
-135.668
0
LINE
8
BLACK
6
CONTINUOUS
10
88.8676
20
-135.668
11
89.2053
21
-135.322
0
LINE
8
BLACK
6
CONTINUOUS
10
89.2053
20
-135.322
11
89.5697
21
-135.004
0
LINE
8
BLACK
6
CONTINUOUS
10
89.5697
20
-135.004
11
89.9584
21
-134.717
0
LINE
8
BLACK
6
CONTINUOUS
10
89.9584
20
-134.717
11
90.369
21
-134.461
0
LINE
8
BLACK
6
CONTINUOUS
10
90.369
20
-134.461
11
90.7987
21
-134.239
0
LINE
8
BLACK
6
CONTINUOUS
10
90.7987
20
-134.239
11
91.2449
21
-134.053
0
LINE
8
BLACK
6
CONTINUOUS
10
91.2449
20
-134.053
11
91.7045
21
-133.903
0
LINE
8
BLACK
6
CONTINUOUS
10
91.7045
20
-133.903
11
92.1747
21
-133.79
0
LINE
8
BLACK
6
CONTINUOUS
10
92.1747
20
-133.79
11
92.6525
21
-133.715
0
LINE
8
BLACK
6
CONTINUOUS
10
92.6525
20
-133.715
11
93.1347
21
-133.679
0
LINE
8
BLACK
6
CONTINUOUS
10
93.1347
20
-133.679
11
93.6183
21
-133.681
0
LINE
8
BLACK
6
CONTINUOUS
10
93.6183
20
-133.681
11
94.1001
21
-133.723
0
LINE
8
BLACK
6
CONTINUOUS
10
94.1001
20
-133.723
11
94.5771
21
-133.802
0
LINE
8
BLACK
6
CONTINUOUS
10
94.5771
20
-133.802
11
95.0461
21
-133.92
0
LINE
8
BLACK
6
CONTINUOUS
10
95.0461
20
-133.92
11
95.5042
21
-134.075
0
LINE
8
BLACK
6
CONTINUOUS
10
95.5042
20
-134.075
11
95.9483
21
-134.266
0
LINE
8
BLACK
6
CONTINUOUS
10
95.9483
20
-134.266
11
96.3757
21
-134.493
0
LINE
8
BLACK
6
CONTINUOUS
10
96.3757
20
-134.493
11
96.7835
21
-134.753
0
LINE
8
BLACK
6
CONTINUOUS
10
96.7835
20
-134.753
11
97.1693
21
-135.044
0
LINE
8
BLACK
6
CONTINUOUS
10
97.1693
20
-135.044
11
97.5303
21
-135.366
0
LINE
8
BLACK
6
CONTINUOUS
10
97.5303
20
-135.366
11
97.8644
21
-135.716
0
LINE
8
BLACK
6
CONTINUOUS
10
97.8644
20
-135.716
11
98.1694
21
-136.091
0
LINE
8
BLACK
6
CONTINUOUS
10
98.1694
20
-136.091
11
98.4433
21
-136.489
0
LINE
8
BLACK
6
CONTINUOUS
10
98.4433
20
-136.489
11
98.6844
21
-136.909
0
LINE
8
BLACK
6
CONTINUOUS
10
98.6844
20
-136.909
11
98.891
21
-137.346
0
LINE
8
BLACK
6
CONTINUOUS
10
98.891
20
-137.346
11
99.062
21
-137.798
0
LINE
8
BLACK
6
CONTINUOUS
10
99.062
20
-137.798
11
99.1961
21
-138.263
0
LINE
8
BLACK
6
CONTINUOUS
10
99.1961
20
-138.263
11
99.2925
21
-138.737
0
LINE
8
BLACK
6
CONTINUOUS
10
99.2925
20
-138.737
11
99.3506
21
-139.217
0
LINE
8
BLACK
6
CONTINUOUS
10
99.3506
20
-139.217
11
99.37
21
-139.7
0
LINE
8
BLACK
6
CONTINUOUS
10
99.37
20
-139.7
11
99.3687
21
-139.826
0
LINE
8
BLACK
6
CONTINUOUS
10
99.3687
20
-139.826
11
99.3392
21
-140.309
0
LINE
8
BLACK
6
CONTINUOUS
10
99.3392
20
-140.309
11
99.271
21
-140.788
0
LINE
8
BLACK
6
CONTINUOUS
10
99.271
20
-140.788
11
99.1647
21
-141.259
0
LINE
8
BLACK
6
CONTINUOUS
10
99.1647
20
-141.259
11
99.0209
21
-141.721
0
LINE
8
BLACK
6
CONTINUOUS
10
99.0209
20
-141.721
11
98.8405
21
-142.17
0
LINE
8
BLACK
6
CONTINUOUS
10
98.8405
20
-142.17
11
98.6247
21
-142.603
0
LINE
8
BLACK
6
CONTINUOUS
10
98.6247
20
-142.603
11
98.375
21
-143.017
0
LINE
8
BLACK
6
CONTINUOUS
10
98.375
20
-143.017
11
98.0928
21
-143.409
0
LINE
8
BLACK
6
CONTINUOUS
10
98.0928
20
-143.409
11
97.78
21
-143.778
0
LINE
8
BLACK
6
CONTINUOUS
10
97.78
20
-143.778
11
97.4386
21
-144.121
0
LINE
8
BLACK
6
CONTINUOUS
10
97.4386
20
-144.121
11
97.0709
21
-144.435
0
LINE
8
BLACK
6
CONTINUOUS
10
97.0709
20
-144.435
11
96.6792
21
-144.718
0
LINE
8
BLACK
6
CONTINUOUS
10
96.6792
20
-144.718
11
96.266
21
-144.97
0
LINE
8
BLACK
6
CONTINUOUS
10
96.266
20
-144.97
11
95.834
21
-145.187
0
LINE
8
BLACK
6
CONTINUOUS
10
95.834
20
-145.187
11
95.3859
21
-145.369
0
LINE
8
BLACK
6
CONTINUOUS
10
95.3859
20
-145.369
11
94.9247
21
-145.514
0
LINE
8
BLACK
6
CONTINUOUS
10
94.9247
20
-145.514
11
94.4533
21
-145.622
0
LINE
8
BLACK
6
CONTINUOUS
10
94.4533
20
-145.622
11
93.9748
21
-145.692
0
LINE
8
BLACK
6
CONTINUOUS
10
93.9748
20
-145.692
11
93.4922
21
-145.723
0
LINE
8
BLACK
6
CONTINUOUS
10
93.4922
20
-145.723
11
93.0087
21
-145.716
0
LINE
8
BLACK
6
CONTINUOUS
10
93.0087
20
-145.716
11
92.5273
21
-145.669
0
LINE
8
BLACK
6
CONTINUOUS
10
92.5273
20
-145.669
11
92.0512
21
-145.584
0
LINE
8
BLACK
6
CONTINUOUS
10
92.0512
20
-145.584
11
91.5835
21
-145.462
0
LINE
8
BLACK
6
CONTINUOUS
10
91.5835
20
-145.462
11
91.127
21
-145.302
0
LINE
8
BLACK
6
CONTINUOUS
10
91.127
20
-145.302
11
90.6849
21
-145.106
0
LINE
8
BLACK
6
CONTINUOUS
10
90.6849
20
-145.106
11
90.2599
21
-144.875
0
LINE
8
BLACK
6
CONTINUOUS
10
90.2599
20
-144.875
11
89.8548
21
-144.611
0
LINE
8
BLACK
6
CONTINUOUS
10
89.8548
20
-144.611
11
89.4722
21
-144.315
0
LINE
8
BLACK
6
CONTINUOUS
10
89.4722
20
-144.315
11
89.1145
21
-143.99
0
LINE
8
BLACK
6
CONTINUOUS
10
89.1145
20
-143.99
11
88.7841
21
-143.637
0
LINE
8
BLACK
6
CONTINUOUS
10
88.7841
20
-143.637
11
88.4831
21
-143.258
0
LINE
8
BLACK
6
CONTINUOUS
10
88.4831
20
-143.258
11
88.2133
21
-142.857
0
LINE
8
BLACK
6
CONTINUOUS
10
88.2133
20
-142.857
11
87.9767
21
-142.435
0
LINE
8
BLACK
6
CONTINUOUS
10
87.9767
20
-142.435
11
87.7746
21
-141.996
0
LINE
8
BLACK
6
CONTINUOUS
10
87.7746
20
-141.996
11
87.6084
21
-141.542
0
LINE
8
BLACK
6
CONTINUOUS
10
87.6084
20
-141.542
11
87.4792
21
-141.076
0
LINE
8
BLACK
6
CONTINUOUS
10
87.4792
20
-141.076
11
87.3877
21
-140.601
0
LINE
8
BLACK
6
CONTINUOUS
10
87.3877
20
-140.601
11
87.3347
21
-140.12
0
LINE
8
BLACK
6
CONTINUOUS
10
87.3347
20
-140.12
11
87.3203
21
-139.637
0
LINE
8
BLACK
6
CONTINUOUS
10
87.3203
20
-139.637
11
87.3203
21
-139.637
0
LINE
8
BLACK
6
CONTINUOUS
10
87.3203
20
-139.637
11
87.3448
21
-139.154
0
LINE
8
BLACK
6
CONTINUOUS
10
87.4324
20
-140.594
11
87.5231
21
-141.066
0
LINE
8
BLACK
6
CONTINUOUS
10
87.5231
20
-141.066
11
87.6514
21
-141.528
0
LINE
8
BLACK
6
CONTINUOUS
10
87.6514
20
-141.528
11
87.8164
21
-141.979
0
LINE
8
BLACK
6
CONTINUOUS
10
87.8164
20
-141.979
11
88.0169
21
-142.415
0
LINE
8
BLACK
6
CONTINUOUS
10
88.0169
20
-142.415
11
88.2518
21
-142.833
0
LINE
8
BLACK
6
CONTINUOUS
10
88.2518
20
-142.833
11
88.5195
21
-143.232
0
LINE
8
BLACK
6
CONTINUOUS
10
88.5195
20
-143.232
11
88.8183
21
-143.607
0
LINE
8
BLACK
6
CONTINUOUS
10
88.8183
20
-143.607
11
89.1462
21
-143.958
0
LINE
8
BLACK
6
CONTINUOUS
10
89.1462
20
-143.958
11
89.5012
21
-144.281
0
LINE
8
BLACK
6
CONTINUOUS
10
89.5012
20
-144.281
11
89.881
21
-144.574
0
LINE
8
BLACK
6
CONTINUOUS
10
89.881
20
-144.574
11
90.2831
21
-144.836
0
LINE
8
BLACK
6
CONTINUOUS
10
90.2831
20
-144.836
11
90.7049
21
-145.065
0
LINE
8
BLACK
6
CONTINUOUS
10
90.7049
20
-145.065
11
91.1437
21
-145.26
0
LINE
8
BLACK
6
CONTINUOUS
10
91.1437
20
-145.26
11
91.5967
21
-145.419
0
LINE
8
BLACK
6
CONTINUOUS
10
91.5967
20
-145.419
11
92.0609
21
-145.54
0
LINE
8
BLACK
6
CONTINUOUS
10
92.0609
20
-145.54
11
92.5334
21
-145.625
0
LINE
8
BLACK
6
CONTINUOUS
10
92.5334
20
-145.625
11
93.0112
21
-145.671
0
LINE
8
BLACK
6
CONTINUOUS
10
93.0112
20
-145.671
11
93.4911
21
-145.678
0
LINE
8
BLACK
6
CONTINUOUS
10
93.4911
20
-145.678
11
93.9701
21
-145.647
0
LINE
8
BLACK
6
CONTINUOUS
10
93.9701
20
-145.647
11
94.445
21
-145.578
0
LINE
8
BLACK
6
CONTINUOUS
10
94.445
20
-145.578
11
94.9129
21
-145.471
0
LINE
8
BLACK
6
CONTINUOUS
10
94.9129
20
-145.471
11
95.3706
21
-145.326
0
LINE
8
BLACK
6
CONTINUOUS
10
95.3706
20
-145.326
11
95.8153
21
-145.146
0
LINE
8
BLACK
6
CONTINUOUS
10
95.8153
20
-145.146
11
96.2441
21
-144.93
0
LINE
8
BLACK
6
CONTINUOUS
10
96.2441
20
-144.93
11
96.6542
21
-144.681
0
LINE
8
BLACK
6
CONTINUOUS
10
96.6542
20
-144.681
11
97.043
21
-144.399
0
LINE
8
BLACK
6
CONTINUOUS
10
97.043
20
-144.399
11
97.408
21
-144.088
0
LINE
8
BLACK
6
CONTINUOUS
10
97.408
20
-144.088
11
97.7467
21
-143.748
0
LINE
8
BLACK
6
CONTINUOUS
10
97.7467
20
-143.748
11
98.0572
21
-143.382
0
LINE
8
BLACK
6
CONTINUOUS
10
98.0572
20
-143.382
11
98.3373
21
-142.992
0
LINE
8
BLACK
6
CONTINUOUS
10
98.3373
20
-142.992
11
98.5852
21
-142.581
0
LINE
8
BLACK
6
CONTINUOUS
10
98.5852
20
-142.581
11
98.7993
21
-142.151
0
LINE
8
BLACK
6
CONTINUOUS
10
98.7993
20
-142.151
11
98.9784
21
-141.706
0
LINE
8
BLACK
6
CONTINUOUS
10
98.9784
20
-141.706
11
99.1211
21
-141.248
0
LINE
8
BLACK
6
CONTINUOUS
10
99.1211
20
-141.248
11
99.2266
21
-140.779
0
LINE
8
BLACK
6
CONTINUOUS
10
99.2266
20
-140.779
11
99.2942
21
-140.304
0
LINE
8
BLACK
6
CONTINUOUS
10
99.2942
20
-140.304
11
99.3235
21
-139.825
0
LINE
8
BLACK
6
CONTINUOUS
10
99.3235
20
-139.825
11
99.3248
21
-139.7
0
LINE
8
BLACK
6
CONTINUOUS
10
99.3248
20
-139.7
11
99.3056
21
-139.22
0
LINE
8
BLACK
6
CONTINUOUS
10
99.3056
20
-139.22
11
99.2479
21
-138.744
0
LINE
8
BLACK
6
CONTINUOUS
10
99.2479
20
-138.744
11
99.1522
21
-138.274
0
LINE
8
BLACK
6
CONTINUOUS
10
99.1522
20
-138.274
11
99.0191
21
-137.812
0
LINE
8
BLACK
6
CONTINUOUS
10
99.0191
20
-137.812
11
98.8495
21
-137.363
0
LINE
8
BLACK
6
CONTINUOUS
10
98.8495
20
-137.363
11
98.6444
21
-136.93
0
LINE
8
BLACK
6
CONTINUOUS
10
98.6444
20
-136.93
11
98.4051
21
-136.513
0
LINE
8
BLACK
6
CONTINUOUS
10
98.4051
20
-136.513
11
98.1333
21
-136.118
0
LINE
8
BLACK
6
CONTINUOUS
10
98.1333
20
-136.118
11
97.8306
21
-135.745
0
LINE
8
BLACK
6
CONTINUOUS
10
97.8306
20
-135.745
11
97.499
21
-135.398
0
LINE
8
BLACK
6
CONTINUOUS
10
97.499
20
-135.398
11
97.1406
21
-135.079
0
LINE
8
BLACK
6
CONTINUOUS
10
97.1406
20
-135.079
11
96.7578
21
-134.79
0
LINE
8
BLACK
6
CONTINUOUS
10
96.7578
20
-134.79
11
96.353
21
-134.532
0
LINE
8
BLACK
6
CONTINUOUS
10
96.353
20
-134.532
11
95.9288
21
-134.307
0
LINE
8
BLACK
6
CONTINUOUS
10
95.9288
20
-134.307
11
95.488
21
-134.117
0
LINE
8
BLACK
6
CONTINUOUS
10
95.488
20
-134.117
11
95.0334
21
-133.963
0
LINE
8
BLACK
6
CONTINUOUS
10
95.0334
20
-133.963
11
94.5679
21
-133.847
0
LINE
8
BLACK
6
CONTINUOUS
10
94.5679
20
-133.847
11
94.0945
21
-133.767
0
LINE
8
BLACK
6
CONTINUOUS
10
94.0945
20
-133.767
11
93.6163
21
-133.726
0
LINE
8
BLACK
6
CONTINUOUS
10
93.6163
20
-133.726
11
93.1363
21
-133.724
0
LINE
8
BLACK
6
CONTINUOUS
10
93.1363
20
-133.724
11
92.6577
21
-133.76
0
LINE
8
BLACK
6
CONTINUOUS
10
92.6577
20
-133.76
11
92.1835
21
-133.834
0
LINE
8
BLACK
6
CONTINUOUS
10
92.1835
20
-133.834
11
91.7168
21
-133.946
0
LINE
8
BLACK
6
CONTINUOUS
10
91.7168
20
-133.946
11
91.2606
21
-134.095
0
LINE
8
BLACK
6
CONTINUOUS
10
91.2606
20
-134.095
11
90.8178
21
-134.28
0
LINE
8
BLACK
6
CONTINUOUS
10
90.8178
20
-134.28
11
90.3913
21
-134.501
0
LINE
8
BLACK
6
CONTINUOUS
10
90.3913
20
-134.501
11
89.9838
21
-134.754
0
LINE
8
BLACK
6
CONTINUOUS
10
89.9838
20
-134.754
11
89.598
21
-135.04
0
LINE
8
BLACK
6
CONTINUOUS
10
89.598
20
-135.04
11
89.2363
21
-135.355
0
LINE
8
BLACK
6
CONTINUOUS
10
89.2363
20
-135.355
11
88.9011
21
-135.699
0
LINE
8
BLACK
6
CONTINUOUS
10
88.9011
20
-135.699
11
88.5945
21
-136.068
0
LINE
8
BLACK
6
CONTINUOUS
10
88.5945
20
-136.068
11
88.3185
21
-136.461
0
LINE
8
BLACK
6
CONTINUOUS
10
88.3185
20
-136.461
11
88.0749
21
-136.874
0
LINE
8
BLACK
6
CONTINUOUS
10
88.0749
20
-136.874
11
87.8653
21
-137.306
0
LINE
8
BLACK
6
CONTINUOUS
10
87.8653
20
-137.306
11
87.6909
21
-137.753
0
LINE
8
BLACK
6
CONTINUOUS
10
87.6909
20
-137.753
11
87.553
21
-138.213
0
LINE
8
BLACK
6
CONTINUOUS
10
87.553
20
-138.213
11
87.4524
21
-138.682
0
LINE
8
BLACK
6
CONTINUOUS
10
87.4524
20
-138.682
11
87.3898
21
-139.158
0
LINE
8
BLACK
6
CONTINUOUS
10
87.3898
20
-139.158
11
87.3655
21
-139.637
0
LINE
8
BLACK
6
CONTINUOUS
10
87.3655
20
-139.637
11
87.3797
21
-140.117
0
LINE
8
BLACK
6
CONTINUOUS
10
87.3797
20
-140.117
11
87.4324
21
-140.594
0
LINE
8
BLACK
6
CONTINUOUS
10
87.3081
20
-116.097
11
87.405
21
-115.735
0
LINE
8
BLACK
6
CONTINUOUS
10
87.405
20
-115.735
11
87.5391
21
-115.386
0
LINE
8
BLACK
6
CONTINUOUS
10
87.5391
20
-115.386
11
87.709
21
-115.052
0
LINE
8
BLACK
6
CONTINUOUS
10
87.709
20
-115.052
11
87.9128
21
-114.739
0
LINE
8
BLACK
6
CONTINUOUS
10
87.9128
20
-114.739
11
88.1483
21
-114.448
0
LINE
8
BLACK
6
CONTINUOUS
10
88.1483
20
-114.448
11
88.4129
21
-114.183
0
LINE
8
BLACK
6
CONTINUOUS
10
88.4129
20
-114.183
11
88.7037
21
-113.948
0
LINE
8
BLACK
6
CONTINUOUS
10
88.7037
20
-113.948
11
89.0175
21
-113.744
0
LINE
8
BLACK
6
CONTINUOUS
10
89.0175
20
-113.744
11
89.3509
21
-113.574
0
LINE
8
BLACK
6
CONTINUOUS
10
89.3509
20
-113.574
11
89.7003
21
-113.44
0
LINE
8
BLACK
6
CONTINUOUS
10
89.7003
20
-113.44
11
90.0617
21
-113.343
0
LINE
8
BLACK
6
CONTINUOUS
10
90.0617
20
-113.343
11
90.4313
21
-113.285
0
LINE
8
BLACK
6
CONTINUOUS
10
90.4313
20
-113.285
11
90.805
21
-113.265
0
LINE
8
BLACK
6
CONTINUOUS
10
90.805
20
-113.265
11
91.1787
21
-113.285
0
LINE
8
BLACK
6
CONTINUOUS
10
91.1787
20
-113.285
11
91.5483
21
-113.343
0
LINE
8
BLACK
6
CONTINUOUS
10
91.5483
20
-113.343
11
91.9097
21
-113.44
0
LINE
8
BLACK
6
CONTINUOUS
10
91.9097
20
-113.44
11
92.2591
21
-113.574
0
LINE
8
BLACK
6
CONTINUOUS
10
92.2591
20
-113.574
11
92.5925
21
-113.744
0
LINE
8
BLACK
6
CONTINUOUS
10
92.5925
20
-113.744
11
92.9063
21
-113.948
0
LINE
8
BLACK
6
CONTINUOUS
10
92.9063
20
-113.948
11
93.1971
21
-114.183
0
LINE
8
BLACK
6
CONTINUOUS
10
93.1971
20
-114.183
11
93.4617
21
-114.448
0
LINE
8
BLACK
6
CONTINUOUS
10
93.4617
20
-114.448
11
93.6972
21
-114.739
0
LINE
8
BLACK
6
CONTINUOUS
10
93.6972
20
-114.739
11
93.901
21
-115.052
0
LINE
8
BLACK
6
CONTINUOUS
10
93.901
20
-115.052
11
94.0709
21
-115.386
0
LINE
8
BLACK
6
CONTINUOUS
10
94.0709
20
-115.386
11
94.205
21
-115.735
0
LINE
8
BLACK
6
CONTINUOUS
10
94.205
20
-115.735
11
94.3019
21
-116.097
0
LINE
8
BLACK
6
CONTINUOUS
10
94.3019
20
-116.097
11
94.3604
21
-116.466
0
LINE
8
BLACK
6
CONTINUOUS
10
94.3604
20
-116.466
11
94.38
21
-116.84
0
LINE
8
BLACK
6
CONTINUOUS
10
94.38
20
-116.84
11
94.3604
21
-117.214
0
LINE
8
BLACK
6
CONTINUOUS
10
94.3604
20
-117.214
11
94.3019
21
-117.583
0
LINE
8
BLACK
6
CONTINUOUS
10
94.3019
20
-117.583
11
94.205
21
-117.945
0
LINE
8
BLACK
6
CONTINUOUS
10
94.205
20
-117.945
11
94.0709
21
-118.294
0
LINE
8
BLACK
6
CONTINUOUS
10
94.0709
20
-118.294
11
93.901
21
-118.627
0
LINE
8
BLACK
6
CONTINUOUS
10
93.901
20
-118.627
11
93.6972
21
-118.941
0
LINE
8
BLACK
6
CONTINUOUS
10
93.6972
20
-118.941
11
93.4617
21
-119.232
0
LINE
8
BLACK
6
CONTINUOUS
10
93.4617
20
-119.232
11
93.1971
21
-119.497
0
LINE
8
BLACK
6
CONTINUOUS
10
93.1971
20
-119.497
11
92.9063
21
-119.732
0
LINE
8
BLACK
6
CONTINUOUS
10
92.9063
20
-119.732
11
92.5925
21
-119.936
0
LINE
8
BLACK
6
CONTINUOUS
10
92.5925
20
-119.936
11
92.2591
21
-120.106
0
LINE
8
BLACK
6
CONTINUOUS
10
92.2591
20
-120.106
11
91.9097
21
-120.24
0
LINE
8
BLACK
6
CONTINUOUS
10
91.9097
20
-120.24
11
91.5483
21
-120.337
0
LINE
8
BLACK
6
CONTINUOUS
10
91.5483
20
-120.337
11
91.1787
21
-120.395
0
LINE
8
BLACK
6
CONTINUOUS
10
91.1787
20
-120.395
11
90.805
21
-120.415
0
LINE
8
BLACK
6
CONTINUOUS
10
90.805
20
-120.415
11
90.4313
21
-120.395
0
LINE
8
BLACK
6
CONTINUOUS
10
90.4313
20
-120.395
11
90.0617
21
-120.337
0
LINE
8
BLACK
6
CONTINUOUS
10
90.0617
20
-120.337
11
89.7003
21
-120.24
0
LINE
8
BLACK
6
CONTINUOUS
10
89.7003
20
-120.24
11
89.3509
21
-120.106
0
LINE
8
BLACK
6
CONTINUOUS
10
89.3509
20
-120.106
11
89.0175
21
-119.936
0
LINE
8
BLACK
6
CONTINUOUS
10
89.0175
20
-119.936
11
88.7037
21
-119.732
0
LINE
8
BLACK
6
CONTINUOUS
10
88.7037
20
-119.732
11
88.4129
21
-119.497
0
LINE
8
BLACK
6
CONTINUOUS
10
88.4129
20
-119.497
11
88.1483
21
-119.232
0
LINE
8
BLACK
6
CONTINUOUS
10
88.1483
20
-119.232
11
87.9128
21
-118.941
0
LINE
8
BLACK
6
CONTINUOUS
10
87.9128
20
-118.941
11
87.709
21
-118.627
0
LINE
8
BLACK
6
CONTINUOUS
10
87.709
20
-118.627
11
87.5391
21
-118.294
0
LINE
8
BLACK
6
CONTINUOUS
10
87.5391
20
-118.294
11
87.405
21
-117.945
0
LINE
8
BLACK
6
CONTINUOUS
10
87.405
20
-117.945
11
87.3081
21
-117.583
0
LINE
8
BLACK
6
CONTINUOUS
10
87.3081
20
-117.583
11
87.2496
21
-117.214
0
LINE
8
BLACK
6
CONTINUOUS
10
87.2496
20
-117.214
11
87.23
21
-116.84
0
LINE
8
BLACK
6
CONTINUOUS
10
87.23
20
-116.84
11
87.2496
21
-116.466
0
LINE
8
BLACK
6
CONTINUOUS
10
87.2496
20
-116.466
11
87.3081
21
-116.097
0
LINE
8
BLACK
6
CONTINUOUS
10
87.3523
20
-117.574
11
87.4479
21
-117.931
0
LINE
8
BLACK
6
CONTINUOUS
10
87.4479
20
-117.931
11
87.5803
21
-118.276
0
LINE
8
BLACK
6
CONTINUOUS
10
87.5803
20
-118.276
11
87.7481
21
-118.605
0
LINE
8
BLACK
6
CONTINUOUS
10
87.7481
20
-118.605
11
87.9493
21
-118.915
0
LINE
8
BLACK
6
CONTINUOUS
10
87.9493
20
-118.915
11
88.1818
21
-119.202
0
LINE
8
BLACK
6
CONTINUOUS
10
88.1818
20
-119.202
11
88.4431
21
-119.463
0
LINE
8
BLACK
6
CONTINUOUS
10
88.4431
20
-119.463
11
88.7302
21
-119.696
0
LINE
8
BLACK
6
CONTINUOUS
10
88.7302
20
-119.696
11
89.0401
21
-119.897
0
LINE
8
BLACK
6
CONTINUOUS
10
89.0401
20
-119.897
11
89.3693
21
-120.065
0
LINE
8
BLACK
6
CONTINUOUS
10
89.3693
20
-120.065
11
89.7142
21
-120.197
0
LINE
8
BLACK
6
CONTINUOUS
10
89.7142
20
-120.197
11
90.0711
21
-120.293
0
LINE
8
BLACK
6
CONTINUOUS
10
90.0711
20
-120.293
11
90.436
21
-120.351
0
LINE
8
BLACK
6
CONTINUOUS
10
90.436
20
-120.351
11
90.805
21
-120.37
0
LINE
8
BLACK
6
CONTINUOUS
10
90.805
20
-120.37
11
91.174
21
-120.351
0
LINE
8
BLACK
6
CONTINUOUS
10
91.174
20
-120.351
11
91.5389
21
-120.293
0
LINE
8
BLACK
6
CONTINUOUS
10
91.5389
20
-120.293
11
91.8958
21
-120.197
0
LINE
8
BLACK
6
CONTINUOUS
10
91.8958
20
-120.197
11
92.2407
21
-120.065
0
LINE
8
BLACK
6
CONTINUOUS
10
92.2407
20
-120.065
11
92.5699
21
-119.897
0
LINE
8
BLACK
6
CONTINUOUS
10
92.5699
20
-119.897
11
92.8798
21
-119.696
0
LINE
8
BLACK
6
CONTINUOUS
10
92.8798
20
-119.696
11
93.1669
21
-119.463
0
LINE
8
BLACK
6
CONTINUOUS
10
93.1669
20
-119.463
11
93.4282
21
-119.202
0
LINE
8
BLACK
6
CONTINUOUS
10
93.4282
20
-119.202
11
93.6607
21
-118.915
0
LINE
8
BLACK
6
CONTINUOUS
10
93.6607
20
-118.915
11
93.8619
21
-118.605
0
LINE
8
BLACK
6
CONTINUOUS
10
93.8619
20
-118.605
11
94.0297
21
-118.276
0
LINE
8
BLACK
6
CONTINUOUS
10
94.0297
20
-118.276
11
94.1621
21
-117.931
0
LINE
8
BLACK
6
CONTINUOUS
10
94.1621
20
-117.931
11
94.2577
21
-117.574
0
LINE
8
BLACK
6
CONTINUOUS
10
94.2577
20
-117.574
11
94.3155
21
-117.209
0
LINE
8
BLACK
6
CONTINUOUS
10
94.3155
20
-117.209
11
94.3348
21
-116.84
0
LINE
8
BLACK
6
CONTINUOUS
10
94.3348
20
-116.84
11
94.3155
21
-116.471
0
LINE
8
BLACK
6
CONTINUOUS
10
94.3155
20
-116.471
11
94.2577
21
-116.106
0
LINE
8
BLACK
6
CONTINUOUS
10
94.2577
20
-116.106
11
94.1621
21
-115.749
0
LINE
8
BLACK
6
CONTINUOUS
10
94.1621
20
-115.749
11
94.0297
21
-115.404
0
LINE
8
BLACK
6
CONTINUOUS
10
94.0297
20
-115.404
11
93.8619
21
-115.075
0
LINE
8
BLACK
6
CONTINUOUS
10
93.8619
20
-115.075
11
93.6607
21
-114.765
0
LINE
8
BLACK
6
CONTINUOUS
10
93.6607
20
-114.765
11
93.4282
21
-114.478
0
LINE
8
BLACK
6
CONTINUOUS
10
93.4282
20
-114.478
11
93.1669
21
-114.217
0
LINE
8
BLACK
6
CONTINUOUS
10
93.1669
20
-114.217
11
92.8798
21
-113.984
0
LINE
8
BLACK
6
CONTINUOUS
10
92.8798
20
-113.984
11
92.5699
21
-113.783
0
LINE
8
BLACK
6
CONTINUOUS
10
92.5699
20
-113.783
11
92.2407
21
-113.615
0
LINE
8
BLACK
6
CONTINUOUS
10
92.2407
20
-113.615
11
91.8958
21
-113.483
0
LINE
8
BLACK
6
CONTINUOUS
10
91.8958
20
-113.483
11
91.5389
21
-113.387
0
LINE
8
BLACK
6
CONTINUOUS
10
91.5389
20
-113.387
11
91.174
21
-113.329
0
LINE
8
BLACK
6
CONTINUOUS
10
91.174
20
-113.329
11
90.805
21
-113.31
0
LINE
8
BLACK
6
CONTINUOUS
10
90.805
20
-113.31
11
90.436
21
-113.329
0
LINE
8
BLACK
6
CONTINUOUS
10
90.436
20
-113.329
11
90.0711
21
-113.387
0
LINE
8
BLACK
6
CONTINUOUS
10
90.0711
20
-113.387
11
89.7142
21
-113.483
0
LINE
8
BLACK
6
CONTINUOUS
10
89.7142
20
-113.483
11
89.3693
21
-113.615
0
LINE
8
BLACK
6
CONTINUOUS
10
89.3693
20
-113.615
11
89.0401
21
-113.783
0
LINE
8
BLACK
6
CONTINUOUS
10
89.0401
20
-113.783
11
88.7302
21
-113.984
0
LINE
8
BLACK
6
CONTINUOUS
10
88.7302
20
-113.984
11
88.4431
21
-114.217
0
LINE
8
BLACK
6
CONTINUOUS
10
88.4431
20
-114.217
11
88.1818
21
-114.478
0
LINE
8
BLACK
6
CONTINUOUS
10
88.1818
20
-114.478
11
87.9493
21
-114.765
0
LINE
8
BLACK
6
CONTINUOUS
10
87.9493
20
-114.765
11
87.7481
21
-115.075
0
LINE
8
BLACK
6
CONTINUOUS
10
87.7481
20
-115.075
11
87.5803
21
-115.404
0
LINE
8
BLACK
6
CONTINUOUS
10
87.5803
20
-115.404
11
87.4479
21
-115.749
0
LINE
8
BLACK
6
CONTINUOUS
10
87.4479
20
-115.749
11
87.3523
21
-116.106
0
LINE
8
BLACK
6
CONTINUOUS
10
87.3523
20
-116.106
11
87.2945
21
-116.471
0
LINE
8
BLACK
6
CONTINUOUS
10
87.2945
20
-116.471
11
87.2752
21
-116.84
0
LINE
8
BLACK
6
CONTINUOUS
10
87.2752
20
-116.84
11
87.2945
21
-117.209
0
LINE
8
BLACK
6
CONTINUOUS
10
87.2945
20
-117.209
11
87.3523
21
-117.574
0
LINE
8
BLACK
6
CONTINUOUS
10
196.528
20
-116.097
11
196.625
21
-115.735
0
LINE
8
BLACK
6
CONTINUOUS
10
196.625
20
-115.735
11
196.759
21
-115.386
0
LINE
8
BLACK
6
CONTINUOUS
10
196.759
20
-115.386
11
196.929
21
-115.052
0
LINE
8
BLACK
6
CONTINUOUS
10
196.929
20
-115.052
11
197.133
21
-114.739
0
LINE
8
BLACK
6
CONTINUOUS
10
197.133
20
-114.739
11
197.368
21
-114.448
0
LINE
8
BLACK
6
CONTINUOUS
10
197.368
20
-114.448
11
197.633
21
-114.183
0
LINE
8
BLACK
6
CONTINUOUS
10
197.633
20
-114.183
11
197.924
21
-113.948
0
LINE
8
BLACK
6
CONTINUOUS
10
197.924
20
-113.948
11
198.237
21
-113.744
0
LINE
8
BLACK
6
CONTINUOUS
10
198.237
20
-113.744
11
198.571
21
-113.574
0
LINE
8
BLACK
6
CONTINUOUS
10
198.571
20
-113.574
11
198.92
21
-113.44
0
LINE
8
BLACK
6
CONTINUOUS
10
198.92
20
-113.44
11
199.282
21
-113.343
0
LINE
8
BLACK
6
CONTINUOUS
10
199.282
20
-113.343
11
199.651
21
-113.285
0
LINE
8
BLACK
6
CONTINUOUS
10
199.651
20
-113.285
11
200.025
21
-113.265
0
LINE
8
BLACK
6
CONTINUOUS
10
200.025
20
-113.265
11
200.399
21
-113.285
0
LINE
8
BLACK
6
CONTINUOUS
10
200.399
20
-113.285
11
200.768
21
-113.343
0
LINE
8
BLACK
6
CONTINUOUS
10
200.768
20
-113.343
11
201.13
21
-113.44
0
LINE
8
BLACK
6
CONTINUOUS
10
201.13
20
-113.44
11
201.479
21
-113.574
0
LINE
8
BLACK
6
CONTINUOUS
10
201.479
20
-113.574
11
201.812
21
-113.744
0
LINE
8
BLACK
6
CONTINUOUS
10
201.812
20
-113.744
11
202.126
21
-113.948
0
LINE
8
BLACK
6
CONTINUOUS
10
202.126
20
-113.948
11
202.417
21
-114.183
0
LINE
8
BLACK
6
CONTINUOUS
10
202.417
20
-114.183
11
202.682
21
-114.448
0
LINE
8
BLACK
6
CONTINUOUS
10
202.682
20
-114.448
11
202.917
21
-114.739
0
LINE
8
BLACK
6
CONTINUOUS
10
202.917
20
-114.739
11
203.121
21
-115.052
0
LINE
8
BLACK
6
CONTINUOUS
10
203.121
20
-115.052
11
203.291
21
-115.386
0
LINE
8
BLACK
6
CONTINUOUS
10
203.291
20
-115.386
11
203.425
21
-115.735
0
LINE
8
BLACK
6
CONTINUOUS
10
203.425
20
-115.735
11
203.522
21
-116.097
0
LINE
8
BLACK
6
CONTINUOUS
10
203.522
20
-116.097
11
203.58
21
-116.466
0
LINE
8
BLACK
6
CONTINUOUS
10
203.58
20
-116.466
11
203.6
21
-116.84
0
LINE
8
BLACK
6
CONTINUOUS
10
203.6
20
-116.84
11
203.58
21
-117.214
0
LINE
8
BLACK
6
CONTINUOUS
10
203.58
20
-117.214
11
203.522
21
-117.583
0
LINE
8
BLACK
6
CONTINUOUS
10
203.522
20
-117.583
11
203.425
21
-117.945
0
LINE
8
BLACK
6
CONTINUOUS
10
203.425
20
-117.945
11
203.291
21
-118.294
0
LINE
8
BLACK
6
CONTINUOUS
10
203.291
20
-118.294
11
203.121
21
-118.627
0
LINE
8
BLACK
6
CONTINUOUS
10
203.121
20
-118.627
11
202.917
21
-118.941
0
LINE
8
BLACK
6
CONTINUOUS
10
202.917
20
-118.941
11
202.682
21
-119.232
0
LINE
8
BLACK
6
CONTINUOUS
10
202.682
20
-119.232
11
202.417
21
-119.497
0
LINE
8
BLACK
6
CONTINUOUS
10
202.417
20
-119.497
11
202.126
21
-119.732
0
LINE
8
BLACK
6
CONTINUOUS
10
202.126
20
-119.732
11
201.812
21
-119.936
0
LINE
8
BLACK
6
CONTINUOUS
10
201.812
20
-119.936
11
201.479
21
-120.106
0
LINE
8
BLACK
6
CONTINUOUS
10
201.479
20
-120.106
11
201.13
21
-120.24
0
LINE
8
BLACK
6
CONTINUOUS
10
201.13
20
-120.24
11
200.768
21
-120.337
0
LINE
8
BLACK
6
CONTINUOUS
10
200.768
20
-120.337
11
200.399
21
-120.395
0
LINE
8
BLACK
6
CONTINUOUS
10
200.399
20
-120.395
11
200.025
21
-120.415
0
LINE
8
BLACK
6
CONTINUOUS
10
200.025
20
-120.415
11
199.651
21
-120.395
0
LINE
8
BLACK
6
CONTINUOUS
10
199.651
20
-120.395
11
199.282
21
-120.337
0
LINE
8
BLACK
6
CONTINUOUS
10
199.282
20
-120.337
11
198.92
21
-120.24
0
LINE
8
BLACK
6
CONTINUOUS
10
198.92
20
-120.24
11
198.571
21
-120.106
0
LINE
8
BLACK
6
CONTINUOUS
10
198.571
20
-120.106
11
198.237
21
-119.936
0
LINE
8
BLACK
6
CONTINUOUS
10
198.237
20
-119.936
11
197.924
21
-119.732
0
LINE
8
BLACK
6
CONTINUOUS
10
197.924
20
-119.732
11
197.633
21
-119.497
0
LINE
8
BLACK
6
CONTINUOUS
10
197.633
20
-119.497
11
197.368
21
-119.232
0
LINE
8
BLACK
6
CONTINUOUS
10
197.368
20
-119.232
11
197.133
21
-118.941
0
LINE
8
BLACK
6
CONTINUOUS
10
197.133
20
-118.941
11
196.929
21
-118.627
0
LINE
8
BLACK
6
CONTINUOUS
10
196.929
20
-118.627
11
196.759
21
-118.294
0
LINE
8
BLACK
6
CONTINUOUS
10
196.759
20
-118.294
11
196.625
21
-117.945
0
LINE
8
BLACK
6
CONTINUOUS
10
196.625
20
-117.945
11
196.528
21
-117.583
0
LINE
8
BLACK
6
CONTINUOUS
10
196.528
20
-117.583
11
196.47
21
-117.214
0
LINE
8
BLACK
6
CONTINUOUS
10
196.47
20
-117.214
11
196.45
21
-116.84
0
LINE
8
BLACK
6
CONTINUOUS
10
196.45
20
-116.84
11
196.47
21
-116.466
0
LINE
8
BLACK
6
CONTINUOUS
10
196.47
20
-116.466
11
196.528
21
-116.097
0
LINE
8
BLACK
6
CONTINUOUS
10
196.572
20
-117.574
11
196.668
21
-117.931
0
LINE
8
BLACK
6
CONTINUOUS
10
196.668
20
-117.931
11
196.8
21
-118.276
0
LINE
8
BLACK
6
CONTINUOUS
10
196.8
20
-118.276
11
196.968
21
-118.605
0
LINE
8
BLACK
6
CONTINUOUS
10
196.968
20
-118.605
11
197.169
21
-118.915
0
LINE
8
BLACK
6
CONTINUOUS
10
197.169
20
-118.915
11
197.402
21
-119.202
0
LINE
8
BLACK
6
CONTINUOUS
10
197.402
20
-119.202
11
197.663
21
-119.463
0
LINE
8
BLACK
6
CONTINUOUS
10
197.663
20
-119.463
11
197.95
21
-119.696
0
LINE
8
BLACK
6
CONTINUOUS
10
197.95
20
-119.696
11
198.26
21
-119.897
0
LINE
8
BLACK
6
CONTINUOUS
10
198.26
20
-119.897
11
198.589
21
-120.065
0
LINE
8
BLACK
6
CONTINUOUS
10
198.589
20
-120.065
11
198.934
21
-120.197
0
LINE
8
BLACK
6
CONTINUOUS
10
198.934
20
-120.197
11
199.291
21
-120.293
0
LINE
8
BLACK
6
CONTINUOUS
10
199.291
20
-120.293
11
199.656
21
-120.351
0
LINE
8
BLACK
6
CONTINUOUS
10
199.656
20
-120.351
11
200.025
21
-120.37
0
LINE
8
BLACK
6
CONTINUOUS
10
200.025
20
-120.37
11
200.394
21
-120.351
0
LINE
8
BLACK
6
CONTINUOUS
10
200.394
20
-120.351
11
200.759
21
-120.293
0
LINE
8
BLACK
6
CONTINUOUS
10
200.759
20
-120.293
11
201.116
21
-120.197
0
LINE
8
BLACK
6
CONTINUOUS
10
201.116
20
-120.197
11
201.461
21
-120.065
0
LINE
8
BLACK
6
CONTINUOUS
10
201.461
20
-120.065
11
201.79
21
-119.897
0
LINE
8
BLACK
6
CONTINUOUS
10
201.79
20
-119.897
11
202.1
21
-119.696
0
LINE
8
BLACK
6
CONTINUOUS
10
202.1
20
-119.696
11
202.387
21
-119.463
0
LINE
8
BLACK
6
CONTINUOUS
10
202.387
20
-119.463
11
202.648
21
-119.202
0
LINE
8
BLACK
6
CONTINUOUS
10
202.648
20
-119.202
11
202.881
21
-118.915
0
LINE
8
BLACK
6
CONTINUOUS
10
202.881
20
-118.915
11
203.082
21
-118.605
0
LINE
8
BLACK
6
CONTINUOUS
10
203.082
20
-118.605
11
203.25
21
-118.276
0
LINE
8
BLACK
6
CONTINUOUS
10
203.25
20
-118.276
11
203.382
21
-117.931
0
LINE
8
BLACK
6
CONTINUOUS
10
203.382
20
-117.931
11
203.478
21
-117.574
0
LINE
8
BLACK
6
CONTINUOUS
10
203.478
20
-117.574
11
203.536
21
-117.209
0
LINE
8
BLACK
6
CONTINUOUS
10
203.536
20
-117.209
11
203.555
21
-116.84
0
LINE
8
BLACK
6
CONTINUOUS
10
203.555
20
-116.84
11
203.536
21
-116.471
0
LINE
8
BLACK
6
CONTINUOUS
10
203.536
20
-116.471
11
203.478
21
-116.106
0
LINE
8
BLACK
6
CONTINUOUS
10
203.478
20
-116.106
11
203.382
21
-115.749
0
LINE
8
BLACK
6
CONTINUOUS
10
203.382
20
-115.749
11
203.25
21
-115.404
0
LINE
8
BLACK
6
CONTINUOUS
10
203.25
20
-115.404
11
203.082
21
-115.075
0
LINE
8
BLACK
6
CONTINUOUS
10
203.082
20
-115.075
11
202.881
21
-114.765
0
LINE
8
BLACK
6
CONTINUOUS
10
202.881
20
-114.765
11
202.648
21
-114.478
0
LINE
8
BLACK
6
CONTINUOUS
10
202.648
20
-114.478
11
202.387
21
-114.217
0
LINE
8
BLACK
6
CONTINUOUS
10
202.387
20
-114.217
11
202.1
21
-113.984
0
LINE
8
BLACK
6
CONTINUOUS
10
202.1
20
-113.984
11
201.79
21
-113.783
0
LINE
8
BLACK
6
CONTINUOUS
10
201.79
20
-113.783
11
201.461
21
-113.615
0
LINE
8
BLACK
6
CONTINUOUS
10
201.461
20
-113.615
11
201.116
21
-113.483
0
LINE
8
BLACK
6
CONTINUOUS
10
201.116
20
-113.483
11
200.759
21
-113.387
0
LINE
8
BLACK
6
CONTINUOUS
10
200.759
20
-113.387
11
200.394
21
-113.329
0
LINE
8
BLACK
6
CONTINUOUS
10
200.394
20
-113.329
11
200.025
21
-113.31
0
LINE
8
BLACK
6
CONTINUOUS
10
200.025
20
-113.31
11
199.656
21
-113.329
0
LINE
8
BLACK
6
CONTINUOUS
10
199.656
20
-113.329
11
199.291
21
-113.387
0
LINE
8
BLACK
6
CONTINUOUS
10
199.291
20
-113.387
11
198.934
21
-113.483
0
LINE
8
BLACK
6
CONTINUOUS
10
198.934
20
-113.483
11
198.589
21
-113.615
0
LINE
8
BLACK
6
CONTINUOUS
10
198.589
20
-113.615
11
198.26
21
-113.783
0
LINE
8
BLACK
6
CONTINUOUS
10
198.26
20
-113.783
11
197.95
21
-113.984
0
LINE
8
BLACK
6
CONTINUOUS
10
197.95
20
-113.984
11
197.663
21
-114.217
0
LINE
8
BLACK
6
CONTINUOUS
10
197.663
20
-114.217
11
197.402
21
-114.478
0
LINE
8
BLACK
6
CONTINUOUS
10
197.402
20
-114.478
11
197.169
21
-114.765
0
LINE
8
BLACK
6
CONTINUOUS
10
197.169
20
-114.765
11
196.968
21
-115.075
0
LINE
8
BLACK
6
CONTINUOUS
10
196.968
20
-115.075
11
196.8
21
-115.404
0
LINE
8
BLACK
6
CONTINUOUS
10
196.8
20
-115.404
11
196.668
21
-115.749
0
LINE
8
BLACK
6
CONTINUOUS
10
196.668
20
-115.749
11
196.572
21
-116.106
0
LINE
8
BLACK
6
CONTINUOUS
10
196.572
20
-116.106
11
196.514
21
-116.471
0
LINE
8
BLACK
6
CONTINUOUS
10
196.514
20
-116.471
11
196.495
21
-116.84
0
LINE
8
BLACK
6
CONTINUOUS
10
196.495
20
-116.84
11
196.514
21
-117.209
0
LINE
8
BLACK
6
CONTINUOUS
10
196.514
20
-117.209
11
196.572
21
-117.574
0
LINE
8
BLACK
6
CONTINUOUS
10
169.858
20
-116.097
11
169.955
21
-115.735
0
LINE
8
BLACK
6
CONTINUOUS
10
169.955
20
-115.735
11
170.089
21
-115.386
0
LINE
8
BLACK
6
CONTINUOUS
10
170.089
20
-115.386
11
170.259
21
-115.052
0
LINE
8
BLACK
6
CONTINUOUS
10
170.259
20
-115.052
11
170.463
21
-114.739
0
LINE
8
BLACK
6
CONTINUOUS
10
170.463
20
-114.739
11
170.698
21
-114.448
0
LINE
8
BLACK
6
CONTINUOUS
10
170.698
20
-114.448
11
170.963
21
-114.183
0
LINE
8
BLACK
6
CONTINUOUS
10
170.963
20
-114.183
11
171.254
21
-113.948
0
LINE
8
BLACK
6
CONTINUOUS
10
171.254
20
-113.948
11
171.567
21
-113.744
0
LINE
8
BLACK
6
CONTINUOUS
10
171.567
20
-113.744
11
171.901
21
-113.574
0
LINE
8
BLACK
6
CONTINUOUS
10
171.901
20
-113.574
11
172.25
21
-113.44
0
LINE
8
BLACK
6
CONTINUOUS
10
172.25
20
-113.44
11
172.612
21
-113.343
0
LINE
8
BLACK
6
CONTINUOUS
10
172.612
20
-113.343
11
172.981
21
-113.285
0
LINE
8
BLACK
6
CONTINUOUS
10
172.981
20
-113.285
11
173.355
21
-113.265
0
LINE
8
BLACK
6
CONTINUOUS
10
173.355
20
-113.265
11
173.729
21
-113.285
0
LINE
8
BLACK
6
CONTINUOUS
10
173.729
20
-113.285
11
174.098
21
-113.343
0
LINE
8
BLACK
6
CONTINUOUS
10
174.098
20
-113.343
11
174.46
21
-113.44
0
LINE
8
BLACK
6
CONTINUOUS
10
174.46
20
-113.44
11
174.809
21
-113.574
0
LINE
8
BLACK
6
CONTINUOUS
10
174.809
20
-113.574
11
175.142
21
-113.744
0
LINE
8
BLACK
6
CONTINUOUS
10
175.142
20
-113.744
11
175.456
21
-113.948
0
LINE
8
BLACK
6
CONTINUOUS
10
175.456
20
-113.948
11
175.747
21
-114.183
0
LINE
8
BLACK
6
CONTINUOUS
10
175.747
20
-114.183
11
176.012
21
-114.448
0
LINE
8
BLACK
6
CONTINUOUS
10
176.012
20
-114.448
11
176.247
21
-114.739
0
LINE
8
BLACK
6
CONTINUOUS
10
176.247
20
-114.739
11
176.451
21
-115.052
0
LINE
8
BLACK
6
CONTINUOUS
10
176.451
20
-115.052
11
176.621
21
-115.386
0
LINE
8
BLACK
6
CONTINUOUS
10
176.621
20
-115.386
11
176.755
21
-115.735
0
LINE
8
BLACK
6
CONTINUOUS
10
176.755
20
-115.735
11
176.852
21
-116.097
0
LINE
8
BLACK
6
CONTINUOUS
10
176.852
20
-116.097
11
176.91
21
-116.466
0
LINE
8
BLACK
6
CONTINUOUS
10
176.91
20
-116.466
11
176.93
21
-116.84
0
LINE
8
BLACK
6
CONTINUOUS
10
176.93
20
-116.84
11
176.91
21
-117.214
0
LINE
8
BLACK
6
CONTINUOUS
10
176.91
20
-117.214
11
176.852
21
-117.583
0
LINE
8
BLACK
6
CONTINUOUS
10
176.852
20
-117.583
11
176.755
21
-117.945
0
LINE
8
BLACK
6
CONTINUOUS
10
176.755
20
-117.945
11
176.621
21
-118.294
0
LINE
8
BLACK
6
CONTINUOUS
10
176.621
20
-118.294
11
176.451
21
-118.627
0
LINE
8
BLACK
6
CONTINUOUS
10
176.451
20
-118.627
11
176.247
21
-118.941
0
LINE
8
BLACK
6
CONTINUOUS
10
176.247
20
-118.941
11
176.012
21
-119.232
0
LINE
8
BLACK
6
CONTINUOUS
10
176.012
20
-119.232
11
175.747
21
-119.497
0
LINE
8
BLACK
6
CONTINUOUS
10
175.747
20
-119.497
11
175.456
21
-119.732
0
LINE
8
BLACK
6
CONTINUOUS
10
175.456
20
-119.732
11
175.142
21
-119.936
0
LINE
8
BLACK
6
CONTINUOUS
10
175.142
20
-119.936
11
174.809
21
-120.106
0
LINE
8
BLACK
6
CONTINUOUS
10
174.809
20
-120.106
11
174.46
21
-120.24
0
LINE
8
BLACK
6
CONTINUOUS
10
174.46
20
-120.24
11
174.098
21
-120.337
0
LINE
8
BLACK
6
CONTINUOUS
10
174.098
20
-120.337
11
173.729
21
-120.395
0
LINE
8
BLACK
6
CONTINUOUS
10
173.729
20
-120.395
11
173.355
21
-120.415
0
LINE
8
BLACK
6
CONTINUOUS
10
173.355
20
-120.415
11
172.981
21
-120.395
0
LINE
8
BLACK
6
CONTINUOUS
10
172.981
20
-120.395
11
172.612
21
-120.337
0
LINE
8
BLACK
6
CONTINUOUS
10
172.612
20
-120.337
11
172.25
21
-120.24
0
LINE
8
BLACK
6
CONTINUOUS
10
172.25
20
-120.24
11
171.901
21
-120.106
0
LINE
8
BLACK
6
CONTINUOUS
10
171.901
20
-120.106
11
171.567
21
-119.936
0
LINE
8
BLACK
6
CONTINUOUS
10
171.567
20
-119.936
11
171.254
21
-119.732
0
LINE
8
BLACK
6
CONTINUOUS
10
171.254
20
-119.732
11
170.963
21
-119.497
0
LINE
8
BLACK
6
CONTINUOUS
10
170.963
20
-119.497
11
170.698
21
-119.232
0
LINE
8
BLACK
6
CONTINUOUS
10
170.698
20
-119.232
11
170.463
21
-118.941
0
LINE
8
BLACK
6
CONTINUOUS
10
170.463
20
-118.941
11
170.259
21
-118.627
0
LINE
8
BLACK
6
CONTINUOUS
10
170.259
20
-118.627
11
170.089
21
-118.294
0
LINE
8
BLACK
6
CONTINUOUS
10
170.089
20
-118.294
11
169.955
21
-117.945
0
LINE
8
BLACK
6
CONTINUOUS
10
169.955
20
-117.945
11
169.858
21
-117.583
0
LINE
8
BLACK
6
CONTINUOUS
10
169.858
20
-117.583
11
169.8
21
-117.214
0
LINE
8
BLACK
6
CONTINUOUS
10
169.8
20
-117.214
11
169.78
21
-116.84
0
LINE
8
BLACK
6
CONTINUOUS
10
169.78
20
-116.84
11
169.8
21
-116.466
0
LINE
8
BLACK
6
CONTINUOUS
10
169.8
20
-116.466
11
169.858
21
-116.097
0
LINE
8
BLACK
6
CONTINUOUS
10
169.902
20
-117.574
11
169.998
21
-117.931
0
LINE
8
BLACK
6
CONTINUOUS
10
169.998
20
-117.931
11
170.13
21
-118.276
0
LINE
8
BLACK
6
CONTINUOUS
10
170.13
20
-118.276
11
170.298
21
-118.605
0
LINE
8
BLACK
6
CONTINUOUS
10
170.298
20
-118.605
11
170.499
21
-118.915
0
LINE
8
BLACK
6
CONTINUOUS
10
170.499
20
-118.915
11
170.732
21
-119.202
0
LINE
8
BLACK
6
CONTINUOUS
10
170.732
20
-119.202
11
170.993
21
-119.463
0
LINE
8
BLACK
6
CONTINUOUS
10
170.993
20
-119.463
11
171.28
21
-119.696
0
LINE
8
BLACK
6
CONTINUOUS
10
171.28
20
-119.696
11
171.59
21
-119.897
0
LINE
8
BLACK
6
CONTINUOUS
10
171.59
20
-119.897
11
171.919
21
-120.065
0
LINE
8
BLACK
6
CONTINUOUS
10
171.919
20
-120.065
11
172.264
21
-120.197
0
LINE
8
BLACK
6
CONTINUOUS
10
172.264
20
-120.197
11
172.621
21
-120.293
0
LINE
8
BLACK
6
CONTINUOUS
10
172.621
20
-120.293
11
172.986
21
-120.351
0
LINE
8
BLACK
6
CONTINUOUS
10
172.986
20
-120.351
11
173.355
21
-120.37
0
LINE
8
BLACK
6
CONTINUOUS
10
173.355
20
-120.37
11
173.724
21
-120.351
0
LINE
8
BLACK
6
CONTINUOUS
10
173.724
20
-120.351
11
174.089
21
-120.293
0
LINE
8
BLACK
6
CONTINUOUS
10
174.089
20
-120.293
11
174.446
21
-120.197
0
LINE
8
BLACK
6
CONTINUOUS
10
174.446
20
-120.197
11
174.791
21
-120.065
0
LINE
8
BLACK
6
CONTINUOUS
10
174.791
20
-120.065
11
175.12
21
-119.897
0
LINE
8
BLACK
6
CONTINUOUS
10
175.12
20
-119.897
11
175.43
21
-119.696
0
LINE
8
BLACK
6
CONTINUOUS
10
175.43
20
-119.696
11
175.717
21
-119.463
0
LINE
8
BLACK
6
CONTINUOUS
10
175.717
20
-119.463
11
175.978
21
-119.202
0
LINE
8
BLACK
6
CONTINUOUS
10
175.978
20
-119.202
11
176.211
21
-118.915
0
LINE
8
BLACK
6
CONTINUOUS
10
176.211
20
-118.915
11
176.412
21
-118.605
0
LINE
8
BLACK
6
CONTINUOUS
10
176.412
20
-118.605
11
176.58
21
-118.276
0
LINE
8
BLACK
6
CONTINUOUS
10
176.58
20
-118.276
11
176.712
21
-117.931
0
LINE
8
BLACK
6
CONTINUOUS
10
176.712
20
-117.931
11
176.808
21
-117.574
0
LINE
8
BLACK
6
CONTINUOUS
10
176.808
20
-117.574
11
176.866
21
-117.209
0
LINE
8
BLACK
6
CONTINUOUS
10
176.866
20
-117.209
11
176.885
21
-116.84
0
LINE
8
BLACK
6
CONTINUOUS
10
176.885
20
-116.84
11
176.866
21
-116.471
0
LINE
8
BLACK
6
CONTINUOUS
10
176.866
20
-116.471
11
176.808
21
-116.106
0
LINE
8
BLACK
6
CONTINUOUS
10
176.808
20
-116.106
11
176.712
21
-115.749
0
LINE
8
BLACK
6
CONTINUOUS
10
176.712
20
-115.749
11
176.58
21
-115.404
0
LINE
8
BLACK
6
CONTINUOUS
10
176.58
20
-115.404
11
176.412
21
-115.075
0
LINE
8
BLACK
6
CONTINUOUS
10
176.412
20
-115.075
11
176.211
21
-114.765
0
LINE
8
BLACK
6
CONTINUOUS
10
176.211
20
-114.765
11
175.978
21
-114.478
0
LINE
8
BLACK
6
CONTINUOUS
10
175.978
20
-114.478
11
175.717
21
-114.217
0
LINE
8
BLACK
6
CONTINUOUS
10
175.717
20
-114.217
11
175.43
21
-113.984
0
LINE
8
BLACK
6
CONTINUOUS
10
175.43
20
-113.984
11
175.12
21
-113.783
0
LINE
8
BLACK
6
CONTINUOUS
10
175.12
20
-113.783
11
174.791
21
-113.615
0
LINE
8
BLACK
6
CONTINUOUS
10
174.791
20
-113.615
11
174.446
21
-113.483
0
LINE
8
BLACK
6
CONTINUOUS
10
174.446
20
-113.483
11
174.089
21
-113.387
0
LINE
8
BLACK
6
CONTINUOUS
10
174.089
20
-113.387
11
173.724
21
-113.329
0
LINE
8
BLACK
6
CONTINUOUS
10
173.724
20
-113.329
11
173.355
21
-113.31
0
LINE
8
BLACK
6
CONTINUOUS
10
173.355
20
-113.31
11
172.986
21
-113.329
0
LINE
8
BLACK
6
CONTINUOUS
10
172.986
20
-113.329
11
172.621
21
-113.387
0
LINE
8
BLACK
6
CONTINUOUS
10
172.621
20
-113.387
11
172.264
21
-113.483
0
LINE
8
BLACK
6
CONTINUOUS
10
172.264
20
-113.483
11
171.919
21
-113.615
0
LINE
8
BLACK
6
CONTINUOUS
10
171.919
20
-113.615
11
171.59
21
-113.783
0
LINE
8
BLACK
6
CONTINUOUS
10
171.59
20
-113.783
11
171.28
21
-113.984
0
LINE
8
BLACK
6
CONTINUOUS
10
171.28
20
-113.984
11
170.993
21
-114.217
0
LINE
8
BLACK
6
CONTINUOUS
10
170.993
20
-114.217
11
170.732
21
-114.478
0
LINE
8
BLACK
6
CONTINUOUS
10
170.732
20
-114.478
11
170.499
21
-114.765
0
LINE
8
BLACK
6
CONTINUOUS
10
170.499
20
-114.765
11
170.298
21
-115.075
0
LINE
8
BLACK
6
CONTINUOUS
10
170.298
20
-115.075
11
170.13
21
-115.404
0
LINE
8
BLACK
6
CONTINUOUS
10
170.13
20
-115.404
11
169.998
21
-115.749
0
LINE
8
BLACK
6
CONTINUOUS
10
169.998
20
-115.749
11
169.902
21
-116.106
0
LINE
8
BLACK
6
CONTINUOUS
10
169.902
20
-116.106
11
169.844
21
-116.471
0
LINE
8
BLACK
6
CONTINUOUS
10
169.844
20
-116.471
11
169.825
21
-116.84
0
LINE
8
BLACK
6
CONTINUOUS
10
169.825
20
-116.84
11
169.844
21
-117.209
0
LINE
8
BLACK
6
CONTINUOUS
10
169.844
20
-117.209
11
169.902
21
-117.574
0
LINE
8
BLACK
6
CONTINUOUS
10
115.694
20
-116.455
11
115.756
21
-116.117
0
LINE
8
BLACK
6
CONTINUOUS
10
115.756
20
-116.117
11
115.855
21
-115.788
0
LINE
8
BLACK
6
CONTINUOUS
10
115.855
20
-115.788
11
115.991
21
-115.473
0
LINE
8
BLACK
6
CONTINUOUS
10
115.991
20
-115.473
11
116.16
21
-115.174
0
LINE
8
BLACK
6
CONTINUOUS
10
116.16
20
-115.174
11
116.362
21
-114.897
0
LINE
8
BLACK
6
CONTINUOUS
10
116.362
20
-114.897
11
116.594
21
-114.643
0
LINE
8
BLACK
6
CONTINUOUS
10
116.594
20
-114.643
11
116.852
21
-114.417
0
LINE
8
BLACK
6
CONTINUOUS
10
116.852
20
-114.417
11
117.134
21
-114.221
0
LINE
8
BLACK
6
CONTINUOUS
10
117.134
20
-114.221
11
117.436
21
-114.058
0
LINE
8
BLACK
6
CONTINUOUS
10
117.436
20
-114.058
11
117.754
21
-113.929
0
LINE
8
BLACK
6
CONTINUOUS
10
117.754
20
-113.929
11
118.085
21
-113.837
0
LINE
8
BLACK
6
CONTINUOUS
10
118.085
20
-113.837
11
118.424
21
-113.782
0
LINE
8
BLACK
6
CONTINUOUS
10
118.424
20
-113.782
11
118.766
21
-113.765
0
LINE
8
BLACK
6
CONTINUOUS
10
118.766
20
-113.765
11
119.109
21
-113.787
0
LINE
8
BLACK
6
CONTINUOUS
10
119.109
20
-113.787
11
119.447
21
-113.846
0
LINE
8
BLACK
6
CONTINUOUS
10
119.447
20
-113.846
11
119.777
21
-113.943
0
LINE
8
BLACK
6
CONTINUOUS
10
119.777
20
-113.943
11
120.093
21
-114.076
0
LINE
8
BLACK
6
CONTINUOUS
10
120.093
20
-114.076
11
120.393
21
-114.244
0
LINE
8
BLACK
6
CONTINUOUS
10
120.393
20
-114.244
11
120.672
21
-114.444
0
LINE
8
BLACK
6
CONTINUOUS
10
120.672
20
-114.444
11
120.927
21
-114.673
0
LINE
8
BLACK
6
CONTINUOUS
10
120.927
20
-114.673
11
121.155
21
-114.93
0
LINE
8
BLACK
6
CONTINUOUS
10
121.155
20
-114.93
11
121.353
21
-115.21
0
LINE
8
BLACK
6
CONTINUOUS
10
121.353
20
-115.21
11
121.518
21
-115.511
0
LINE
8
BLACK
6
CONTINUOUS
10
121.518
20
-115.511
11
121.649
21
-115.829
0
LINE
8
BLACK
6
CONTINUOUS
10
121.649
20
-115.829
11
121.744
21
-116.159
0
LINE
8
BLACK
6
CONTINUOUS
10
121.744
20
-116.159
11
121.801
21
-116.497
0
LINE
8
BLACK
6
CONTINUOUS
10
121.801
20
-116.497
11
121.82
21
-116.84
0
LINE
8
BLACK
6
CONTINUOUS
10
121.82
20
-116.84
11
121.819
21
-116.926
0
LINE
8
BLACK
6
CONTINUOUS
10
121.819
20
-116.926
11
121.79
21
-117.268
0
LINE
8
BLACK
6
CONTINUOUS
10
121.79
20
-117.268
11
121.723
21
-117.605
0
LINE
8
BLACK
6
CONTINUOUS
10
121.723
20
-117.605
11
121.62
21
-117.932
0
LINE
8
BLACK
6
CONTINUOUS
10
121.62
20
-117.932
11
121.48
21
-118.246
0
LINE
8
BLACK
6
CONTINUOUS
10
121.48
20
-118.246
11
121.306
21
-118.542
0
LINE
8
BLACK
6
CONTINUOUS
10
121.306
20
-118.542
11
121.101
21
-118.817
0
LINE
8
BLACK
6
CONTINUOUS
10
121.101
20
-118.817
11
120.866
21
-119.067
0
LINE
8
BLACK
6
CONTINUOUS
10
120.866
20
-119.067
11
120.604
21
-119.289
0
LINE
8
BLACK
6
CONTINUOUS
10
120.604
20
-119.289
11
120.32
21
-119.481
0
LINE
8
BLACK
6
CONTINUOUS
10
120.32
20
-119.481
11
120.015
21
-119.64
0
LINE
8
BLACK
6
CONTINUOUS
10
120.015
20
-119.64
11
119.695
21
-119.764
0
LINE
8
BLACK
6
CONTINUOUS
10
119.695
20
-119.764
11
119.363
21
-119.852
0
LINE
8
BLACK
6
CONTINUOUS
10
119.363
20
-119.852
11
119.024
21
-119.902
0
LINE
8
BLACK
6
CONTINUOUS
10
119.024
20
-119.902
11
118.681
21
-119.914
0
LINE
8
BLACK
6
CONTINUOUS
10
118.681
20
-119.914
11
118.338
21
-119.888
0
LINE
8
BLACK
6
CONTINUOUS
10
118.338
20
-119.888
11
118.001
21
-119.824
0
LINE
8
BLACK
6
CONTINUOUS
10
118.001
20
-119.824
11
117.673
21
-119.722
0
LINE
8
BLACK
6
CONTINUOUS
10
117.673
20
-119.722
11
117.359
21
-119.585
0
LINE
8
BLACK
6
CONTINUOUS
10
117.359
20
-119.585
11
117.061
21
-119.413
0
LINE
8
BLACK
6
CONTINUOUS
10
117.061
20
-119.413
11
116.785
21
-119.209
0
LINE
8
BLACK
6
CONTINUOUS
10
116.785
20
-119.209
11
116.533
21
-118.976
0
LINE
8
BLACK
6
CONTINUOUS
10
116.533
20
-118.976
11
116.309
21
-118.716
0
LINE
8
BLACK
6
CONTINUOUS
10
116.309
20
-118.716
11
116.115
21
-118.433
0
LINE
8
BLACK
6
CONTINUOUS
10
116.115
20
-118.433
11
115.954
21
-118.13
0
LINE
8
BLACK
6
CONTINUOUS
10
115.954
20
-118.13
11
115.827
21
-117.811
0
LINE
8
BLACK
6
CONTINUOUS
10
115.827
20
-117.811
11
115.737
21
-117.479
0
LINE
8
BLACK
6
CONTINUOUS
10
115.737
20
-117.479
11
115.685
21
-117.14
0
LINE
8
BLACK
6
CONTINUOUS
10
115.685
20
-117.14
11
115.67
21
-116.798
0
LINE
8
BLACK
6
CONTINUOUS
10
115.67
20
-116.798
11
115.67
21
-116.797
0
LINE
8
BLACK
6
CONTINUOUS
10
115.67
20
-116.797
11
115.694
21
-116.455
0
LINE
8
BLACK
6
CONTINUOUS
10
115.781
20
-117.47
11
115.87
21
-117.796
0
LINE
8
BLACK
6
CONTINUOUS
10
115.87
20
-117.796
11
115.995
21
-118.111
0
LINE
8
BLACK
6
CONTINUOUS
10
115.995
20
-118.111
11
116.153
21
-118.41
0
LINE
8
BLACK
6
CONTINUOUS
10
116.153
20
-118.41
11
116.345
21
-118.689
0
LINE
8
BLACK
6
CONTINUOUS
10
116.345
20
-118.689
11
116.566
21
-118.945
0
LINE
8
BLACK
6
CONTINUOUS
10
116.566
20
-118.945
11
116.814
21
-119.174
0
LINE
8
BLACK
6
CONTINUOUS
10
116.814
20
-119.174
11
117.086
21
-119.375
0
LINE
8
BLACK
6
CONTINUOUS
10
117.086
20
-119.375
11
117.379
21
-119.544
0
LINE
8
BLACK
6
CONTINUOUS
10
117.379
20
-119.544
11
117.689
21
-119.68
0
LINE
8
BLACK
6
CONTINUOUS
10
117.689
20
-119.68
11
118.012
21
-119.78
0
LINE
8
BLACK
6
CONTINUOUS
10
118.012
20
-119.78
11
118.344
21
-119.843
0
LINE
8
BLACK
6
CONTINUOUS
10
118.344
20
-119.843
11
118.682
21
-119.869
0
LINE
8
BLACK
6
CONTINUOUS
10
118.682
20
-119.869
11
119.02
21
-119.857
0
LINE
8
BLACK
6
CONTINUOUS
10
119.02
20
-119.857
11
119.354
21
-119.808
0
LINE
8
BLACK
6
CONTINUOUS
10
119.354
20
-119.808
11
119.681
21
-119.721
0
LINE
8
BLACK
6
CONTINUOUS
10
119.681
20
-119.721
11
119.997
21
-119.599
0
LINE
8
BLACK
6
CONTINUOUS
10
119.997
20
-119.599
11
120.296
21
-119.442
0
LINE
8
BLACK
6
CONTINUOUS
10
120.296
20
-119.442
11
120.577
21
-119.253
0
LINE
8
BLACK
6
CONTINUOUS
10
120.577
20
-119.253
11
120.834
21
-119.034
0
LINE
8
BLACK
6
CONTINUOUS
10
120.834
20
-119.034
11
121.066
21
-118.787
0
LINE
8
BLACK
6
CONTINUOUS
10
121.066
20
-118.787
11
121.269
21
-118.517
0
LINE
8
BLACK
6
CONTINUOUS
10
121.269
20
-118.517
11
121.44
21
-118.225
0
LINE
8
BLACK
6
CONTINUOUS
10
121.44
20
-118.225
11
121.577
21
-117.916
0
LINE
8
BLACK
6
CONTINUOUS
10
121.577
20
-117.916
11
121.68
21
-117.593
0
LINE
8
BLACK
6
CONTINUOUS
10
121.68
20
-117.593
11
121.745
21
-117.262
0
LINE
8
BLACK
6
CONTINUOUS
10
121.745
20
-117.262
11
121.774
21
-116.925
0
LINE
8
BLACK
6
CONTINUOUS
10
121.774
20
-116.925
11
121.775
21
-116.84
0
LINE
8
BLACK
6
CONTINUOUS
10
121.775
20
-116.84
11
121.756
21
-116.502
0
LINE
8
BLACK
6
CONTINUOUS
10
121.756
20
-116.502
11
121.699
21
-116.169
0
LINE
8
BLACK
6
CONTINUOUS
10
121.699
20
-116.169
11
121.606
21
-115.844
0
LINE
8
BLACK
6
CONTINUOUS
10
121.606
20
-115.844
11
121.477
21
-115.531
0
LINE
8
BLACK
6
CONTINUOUS
10
121.477
20
-115.531
11
121.314
21
-115.234
0
LINE
8
BLACK
6
CONTINUOUS
10
121.314
20
-115.234
11
121.119
21
-114.958
0
LINE
8
BLACK
6
CONTINUOUS
10
121.119
20
-114.958
11
120.895
21
-114.705
0
LINE
8
BLACK
6
CONTINUOUS
10
120.895
20
-114.705
11
120.643
21
-114.479
0
LINE
8
BLACK
6
CONTINUOUS
10
120.643
20
-114.479
11
120.368
21
-114.282
0
LINE
8
BLACK
6
CONTINUOUS
10
120.368
20
-114.282
11
120.073
21
-114.117
0
LINE
8
BLACK
6
CONTINUOUS
10
120.073
20
-114.117
11
119.761
21
-113.986
0
LINE
8
BLACK
6
CONTINUOUS
10
119.761
20
-113.986
11
119.437
21
-113.89
0
LINE
8
BLACK
6
CONTINUOUS
10
119.437
20
-113.89
11
119.104
21
-113.832
0
LINE
8
BLACK
6
CONTINUOUS
10
119.104
20
-113.832
11
118.766
21
-113.81
0
LINE
8
BLACK
6
CONTINUOUS
10
118.766
20
-113.81
11
118.428
21
-113.827
0
LINE
8
BLACK
6
CONTINUOUS
10
118.428
20
-113.827
11
118.094
21
-113.881
0
LINE
8
BLACK
6
CONTINUOUS
10
118.094
20
-113.881
11
117.769
21
-113.972
0
LINE
8
BLACK
6
CONTINUOUS
10
117.769
20
-113.972
11
117.455
21
-114.099
0
LINE
8
BLACK
6
CONTINUOUS
10
117.455
20
-114.099
11
117.157
21
-114.259
0
LINE
8
BLACK
6
CONTINUOUS
10
117.157
20
-114.259
11
116.88
21
-114.453
0
LINE
8
BLACK
6
CONTINUOUS
10
116.88
20
-114.453
11
116.625
21
-114.675
0
LINE
8
BLACK
6
CONTINUOUS
10
116.625
20
-114.675
11
116.397
21
-114.925
0
LINE
8
BLACK
6
CONTINUOUS
10
116.397
20
-114.925
11
116.198
21
-115.199
0
LINE
8
BLACK
6
CONTINUOUS
10
116.198
20
-115.199
11
116.031
21
-115.493
0
LINE
8
BLACK
6
CONTINUOUS
10
116.031
20
-115.493
11
115.898
21
-115.804
0
LINE
8
BLACK
6
CONTINUOUS
10
115.898
20
-115.804
11
115.8
21
-116.128
0
LINE
8
BLACK
6
CONTINUOUS
10
115.8
20
-116.128
11
115.739
21
-116.46
0
LINE
8
BLACK
6
CONTINUOUS
10
115.739
20
-116.46
11
115.716
21
-116.798
0
LINE
8
BLACK
6
CONTINUOUS
10
115.716
20
-116.798
11
115.73
21
-117.136
0
LINE
8
BLACK
6
CONTINUOUS
10
115.73
20
-117.136
11
115.781
21
-117.47
0
LINE
8
BLACK
6
CONTINUOUS
10
143.634
20
-116.455
11
143.696
21
-116.117
0
LINE
8
BLACK
6
CONTINUOUS
10
143.696
20
-116.117
11
143.795
21
-115.788
0
LINE
8
BLACK
6
CONTINUOUS
10
143.795
20
-115.788
11
143.931
21
-115.473
0
LINE
8
BLACK
6
CONTINUOUS
10
143.931
20
-115.473
11
144.1
21
-115.174
0
LINE
8
BLACK
6
CONTINUOUS
10
144.1
20
-115.174
11
144.302
21
-114.897
0
LINE
8
BLACK
6
CONTINUOUS
10
144.302
20
-114.897
11
144.534
21
-114.643
0
LINE
8
BLACK
6
CONTINUOUS
10
144.534
20
-114.643
11
144.792
21
-114.417
0
LINE
8
BLACK
6
CONTINUOUS
10
144.792
20
-114.417
11
145.074
21
-114.221
0
LINE
8
BLACK
6
CONTINUOUS
10
145.074
20
-114.221
11
145.376
21
-114.058
0
LINE
8
BLACK
6
CONTINUOUS
10
145.376
20
-114.058
11
145.694
21
-113.929
0
LINE
8
BLACK
6
CONTINUOUS
10
145.694
20
-113.929
11
146.025
21
-113.837
0
LINE
8
BLACK
6
CONTINUOUS
10
146.025
20
-113.837
11
146.364
21
-113.782
0
LINE
8
BLACK
6
CONTINUOUS
10
146.364
20
-113.782
11
146.706
21
-113.765
0
LINE
8
BLACK
6
CONTINUOUS
10
146.706
20
-113.765
11
147.049
21
-113.787
0
LINE
8
BLACK
6
CONTINUOUS
10
147.049
20
-113.787
11
147.387
21
-113.846
0
LINE
8
BLACK
6
CONTINUOUS
10
147.387
20
-113.846
11
147.717
21
-113.943
0
LINE
8
BLACK
6
CONTINUOUS
10
147.717
20
-113.943
11
148.033
21
-114.076
0
LINE
8
BLACK
6
CONTINUOUS
10
148.033
20
-114.076
11
148.333
21
-114.244
0
LINE
8
BLACK
6
CONTINUOUS
10
148.333
20
-114.244
11
148.612
21
-114.444
0
LINE
8
BLACK
6
CONTINUOUS
10
148.612
20
-114.444
11
148.867
21
-114.673
0
LINE
8
BLACK
6
CONTINUOUS
10
148.867
20
-114.673
11
149.095
21
-114.93
0
LINE
8
BLACK
6
CONTINUOUS
10
149.095
20
-114.93
11
149.293
21
-115.21
0
LINE
8
BLACK
6
CONTINUOUS
10
149.293
20
-115.21
11
149.458
21
-115.511
0
LINE
8
BLACK
6
CONTINUOUS
10
149.458
20
-115.511
11
149.589
21
-115.829
0
LINE
8
BLACK
6
CONTINUOUS
10
149.589
20
-115.829
11
149.684
21
-116.159
0
LINE
8
BLACK
6
CONTINUOUS
10
149.684
20
-116.159
11
149.741
21
-116.497
0
LINE
8
BLACK
6
CONTINUOUS
10
149.741
20
-116.497
11
149.76
21
-116.84
0
LINE
8
BLACK
6
CONTINUOUS
10
149.76
20
-116.84
11
149.759
21
-116.926
0
LINE
8
BLACK
6
CONTINUOUS
10
149.759
20
-116.926
11
149.73
21
-117.268
0
LINE
8
BLACK
6
CONTINUOUS
10
149.73
20
-117.268
11
149.663
21
-117.605
0
LINE
8
BLACK
6
CONTINUOUS
10
149.663
20
-117.605
11
149.56
21
-117.932
0
LINE
8
BLACK
6
CONTINUOUS
10
149.56
20
-117.932
11
149.42
21
-118.246
0
LINE
8
BLACK
6
CONTINUOUS
10
149.42
20
-118.246
11
149.246
21
-118.542
0
LINE
8
BLACK
6
CONTINUOUS
10
149.246
20
-118.542
11
149.041
21
-118.817
0
LINE
8
BLACK
6
CONTINUOUS
10
149.041
20
-118.817
11
148.806
21
-119.067
0
LINE
8
BLACK
6
CONTINUOUS
10
148.806
20
-119.067
11
148.544
21
-119.289
0
LINE
8
BLACK
6
CONTINUOUS
10
148.544
20
-119.289
11
148.26
21
-119.481
0
LINE
8
BLACK
6
CONTINUOUS
10
148.26
20
-119.481
11
147.955
21
-119.64
0
LINE
8
BLACK
6
CONTINUOUS
10
147.955
20
-119.64
11
147.635
21
-119.764
0
LINE
8
BLACK
6
CONTINUOUS
10
147.635
20
-119.764
11
147.303
21
-119.852
0
LINE
8
BLACK
6
CONTINUOUS
10
147.303
20
-119.852
11
146.964
21
-119.902
0
LINE
8
BLACK
6
CONTINUOUS
10
146.964
20
-119.902
11
146.621
21
-119.914
0
LINE
8
BLACK
6
CONTINUOUS
10
146.621
20
-119.914
11
146.278
21
-119.888
0
LINE
8
BLACK
6
CONTINUOUS
10
146.278
20
-119.888
11
145.941
21
-119.824
0
LINE
8
BLACK
6
CONTINUOUS
10
145.941
20
-119.824
11
145.613
21
-119.722
0
LINE
8
BLACK
6
CONTINUOUS
10
145.613
20
-119.722
11
145.299
21
-119.585
0
LINE
8
BLACK
6
CONTINUOUS
10
145.299
20
-119.585
11
145.001
21
-119.413
0
LINE
8
BLACK
6
CONTINUOUS
10
145.001
20
-119.413
11
144.725
21
-119.209
0
LINE
8
BLACK
6
CONTINUOUS
10
144.725
20
-119.209
11
144.473
21
-118.976
0
LINE
8
BLACK
6
CONTINUOUS
10
144.473
20
-118.976
11
144.249
21
-118.716
0
LINE
8
BLACK
6
CONTINUOUS
10
144.249
20
-118.716
11
144.055
21
-118.433
0
LINE
8
BLACK
6
CONTINUOUS
10
144.055
20
-118.433
11
143.894
21
-118.13
0
LINE
8
BLACK
6
CONTINUOUS
10
143.894
20
-118.13
11
143.767
21
-117.811
0
LINE
8
BLACK
6
CONTINUOUS
10
143.767
20
-117.811
11
143.677
21
-117.479
0
LINE
8
BLACK
6
CONTINUOUS
10
143.677
20
-117.479
11
143.625
21
-117.14
0
LINE
8
BLACK
6
CONTINUOUS
10
143.625
20
-117.14
11
143.61
21
-116.798
0
LINE
8
BLACK
6
CONTINUOUS
10
143.61
20
-116.798
11
143.61
21
-116.797
0
LINE
8
BLACK
6
CONTINUOUS
10
143.61
20
-116.797
11
143.634
21
-116.455
0
LINE
8
BLACK
6
CONTINUOUS
10
143.721
20
-117.47
11
143.81
21
-117.796
0
LINE
8
BLACK
6
CONTINUOUS
10
143.81
20
-117.796
11
143.935
21
-118.111
0
LINE
8
BLACK
6
CONTINUOUS
10
143.935
20
-118.111
11
144.093
21
-118.41
0
LINE
8
BLACK
6
CONTINUOUS
10
144.093
20
-118.41
11
144.285
21
-118.689
0
LINE
8
BLACK
6
CONTINUOUS
10
144.285
20
-118.689
11
144.506
21
-118.945
0
LINE
8
BLACK
6
CONTINUOUS
10
144.506
20
-118.945
11
144.754
21
-119.174
0
LINE
8
BLACK
6
CONTINUOUS
10
144.754
20
-119.174
11
145.026
21
-119.375
0
LINE
8
BLACK
6
CONTINUOUS
10
145.026
20
-119.375
11
145.319
21
-119.544
0
LINE
8
BLACK
6
CONTINUOUS
10
145.319
20
-119.544
11
145.629
21
-119.68
0
LINE
8
BLACK
6
CONTINUOUS
10
145.629
20
-119.68
11
145.952
21
-119.78
0
LINE
8
BLACK
6
CONTINUOUS
10
145.952
20
-119.78
11
146.284
21
-119.843
0
LINE
8
BLACK
6
CONTINUOUS
10
146.284
20
-119.843
11
146.622
21
-119.869
0
LINE
8
BLACK
6
CONTINUOUS
10
146.622
20
-119.869
11
146.96
21
-119.857
0
LINE
8
BLACK
6
CONTINUOUS
10
146.96
20
-119.857
11
147.294
21
-119.808
0
LINE
8
BLACK
6
CONTINUOUS
10
147.294
20
-119.808
11
147.621
21
-119.721
0
LINE
8
BLACK
6
CONTINUOUS
10
147.621
20
-119.721
11
147.937
21
-119.599
0
LINE
8
BLACK
6
CONTINUOUS
10
147.937
20
-119.599
11
148.236
21
-119.442
0
LINE
8
BLACK
6
CONTINUOUS
10
148.236
20
-119.442
11
148.517
21
-119.253
0
LINE
8
BLACK
6
CONTINUOUS
10
148.517
20
-119.253
11
148.774
21
-119.034
0
LINE
8
BLACK
6
CONTINUOUS
10
148.774
20
-119.034
11
149.006
21
-118.787
0
LINE
8
BLACK
6
CONTINUOUS
10
149.006
20
-118.787
11
149.209
21
-118.517
0
LINE
8
BLACK
6
CONTINUOUS
10
149.209
20
-118.517
11
149.38
21
-118.225
0
LINE
8
BLACK
6
CONTINUOUS
10
149.38
20
-118.225
11
149.517
21
-117.916
0
LINE
8
BLACK
6
CONTINUOUS
10
149.517
20
-117.916
11
149.62
21
-117.593
0
LINE
8
BLACK
6
CONTINUOUS
10
149.62
20
-117.593
11
149.685
21
-117.262
0
LINE
8
BLACK
6
CONTINUOUS
10
149.685
20
-117.262
11
149.714
21
-116.925
0
LINE
8
BLACK
6
CONTINUOUS
10
149.714
20
-116.925
11
149.715
21
-116.84
0
LINE
8
BLACK
6
CONTINUOUS
10
149.715
20
-116.84
11
149.696
21
-116.502
0
LINE
8
BLACK
6
CONTINUOUS
10
149.696
20
-116.502
11
149.639
21
-116.169
0
LINE
8
BLACK
6
CONTINUOUS
10
149.639
20
-116.169
11
149.546
21
-115.844
0
LINE
8
BLACK
6
CONTINUOUS
10
149.546
20
-115.844
11
149.417
21
-115.531
0
LINE
8
BLACK
6
CONTINUOUS
10
149.417
20
-115.531
11
149.254
21
-115.234
0
LINE
8
BLACK
6
CONTINUOUS
10
149.254
20
-115.234
11
149.059
21
-114.958
0
LINE
8
BLACK
6
CONTINUOUS
10
149.059
20
-114.958
11
148.835
21
-114.705
0
LINE
8
BLACK
6
CONTINUOUS
10
148.835
20
-114.705
11
148.583
21
-114.479
0
LINE
8
BLACK
6
CONTINUOUS
10
148.583
20
-114.479
11
148.308
21
-114.282
0
LINE
8
BLACK
6
CONTINUOUS
10
148.308
20
-114.282
11
148.013
21
-114.117
0
LINE
8
BLACK
6
CONTINUOUS
10
148.013
20
-114.117
11
147.701
21
-113.986
0
LINE
8
BLACK
6
CONTINUOUS
10
147.701
20
-113.986
11
147.377
21
-113.89
0
LINE
8
BLACK
6
CONTINUOUS
10
147.377
20
-113.89
11
147.044
21
-113.832
0
LINE
8
BLACK
6
CONTINUOUS
10
147.044
20
-113.832
11
146.706
21
-113.81
0
LINE
8
BLACK
6
CONTINUOUS
10
146.706
20
-113.81
11
146.368
21
-113.827
0
LINE
8
BLACK
6
CONTINUOUS
10
146.368
20
-113.827
11
146.034
21
-113.881
0
LINE
8
BLACK
6
CONTINUOUS
10
146.034
20
-113.881
11
145.709
21
-113.972
0
LINE
8
BLACK
6
CONTINUOUS
10
145.709
20
-113.972
11
145.395
21
-114.099
0
LINE
8
BLACK
6
CONTINUOUS
10
145.395
20
-114.099
11
145.097
21
-114.259
0
LINE
8
BLACK
6
CONTINUOUS
10
145.097
20
-114.259
11
144.82
21
-114.453
0
LINE
8
BLACK
6
CONTINUOUS
10
144.82
20
-114.453
11
144.565
21
-114.675
0
LINE
8
BLACK
6
CONTINUOUS
10
144.565
20
-114.675
11
144.337
21
-114.925
0
LINE
8
BLACK
6
CONTINUOUS
10
144.337
20
-114.925
11
144.138
21
-115.199
0
LINE
8
BLACK
6
CONTINUOUS
10
144.138
20
-115.199
11
143.971
21
-115.493
0
LINE
8
BLACK
6
CONTINUOUS
10
143.971
20
-115.493
11
143.838
21
-115.804
0
LINE
8
BLACK
6
CONTINUOUS
10
143.838
20
-115.804
11
143.74
21
-116.128
0
LINE
8
BLACK
6
CONTINUOUS
10
143.74
20
-116.128
11
143.679
21
-116.46
0
LINE
8
BLACK
6
CONTINUOUS
10
143.679
20
-116.46
11
143.656
21
-116.798
0
LINE
8
BLACK
6
CONTINUOUS
10
143.656
20
-116.798
11
143.67
21
-117.136
0
LINE
8
BLACK
6
CONTINUOUS
10
143.67
20
-117.136
11
143.721
21
-117.47
0
LINE
8
BLACK
6
CONTINUOUS
10
87.3081
20
-94.5067
11
87.405
21
-94.1453
0
LINE
8
BLACK
6
CONTINUOUS
10
87.405
20
-94.1453
11
87.5391
21
-93.7959
0
LINE
8
BLACK
6
CONTINUOUS
10
87.5391
20
-93.7959
11
87.709
21
-93.4625
0
LINE
8
BLACK
6
CONTINUOUS
10
87.709
20
-93.4625
11
87.9128
21
-93.1487
0
LINE
8
BLACK
6
CONTINUOUS
10
87.9128
20
-93.1487
11
88.1483
21
-92.8579
0
LINE
8
BLACK
6
CONTINUOUS
10
88.1483
20
-92.8579
11
88.4129
21
-92.5933
0
LINE
8
BLACK
6
CONTINUOUS
10
88.4129
20
-92.5933
11
88.7037
21
-92.3578
0
LINE
8
BLACK
6
CONTINUOUS
10
88.7037
20
-92.3578
11
89.0175
21
-92.154
0
LINE
8
BLACK
6
CONTINUOUS
10
89.0175
20
-92.154
11
89.3509
21
-91.9841
0
LINE
8
BLACK
6
CONTINUOUS
10
89.3509
20
-91.9841
11
89.7003
21
-91.85
0
LINE
8
BLACK
6
CONTINUOUS
10
89.7003
20
-91.85
11
90.0617
21
-91.7531
0
LINE
8
BLACK
6
CONTINUOUS
10
90.0617
20
-91.7531
11
90.4313
21
-91.6946
0
LINE
8
BLACK
6
CONTINUOUS
10
90.4313
20
-91.6946
11
90.805
21
-91.675
0
LINE
8
BLACK
6
CONTINUOUS
10
90.805
20
-91.675
11
91.1787
21
-91.6946
0
LINE
8
BLACK
6
CONTINUOUS
10
91.1787
20
-91.6946
11
91.5483
21
-91.7531
0
LINE
8
BLACK
6
CONTINUOUS
10
91.5483
20
-91.7531
11
91.9097
21
-91.85
0
LINE
8
BLACK
6
CONTINUOUS
10
91.9097
20
-91.85
11
92.2591
21
-91.9841
0
LINE
8
BLACK
6
CONTINUOUS
10
92.2591
20
-91.9841
11
92.5925
21
-92.154
0
LINE
8
BLACK
6
CONTINUOUS
10
92.5925
20
-92.154
11
92.9063
21
-92.3578
0
LINE
8
BLACK
6
CONTINUOUS
10
92.9063
20
-92.3578
11
93.1971
21
-92.5933
0
LINE
8
BLACK
6
CONTINUOUS
10
93.1971
20
-92.5933
11
93.4617
21
-92.8579
0
LINE
8
BLACK
6
CONTINUOUS
10
93.4617
20
-92.8579
11
93.6972
21
-93.1487
0
LINE
8
BLACK
6
CONTINUOUS
10
93.6972
20
-93.1487
11
93.901
21
-93.4625
0
LINE
8
BLACK
6
CONTINUOUS
10
93.901
20
-93.4625
11
94.0709
21
-93.7959
0
LINE
8
BLACK
6
CONTINUOUS
10
94.0709
20
-93.7959
11
94.205
21
-94.1453
0
LINE
8
BLACK
6
CONTINUOUS
10
94.205
20
-94.1453
11
94.3019
21
-94.5067
0
LINE
8
BLACK
6
CONTINUOUS
10
94.3019
20
-94.5067
11
94.3604
21
-94.8763
0
LINE
8
BLACK
6
CONTINUOUS
10
94.3604
20
-94.8763
11
94.38
21
-95.25
0
LINE
8
BLACK
6
CONTINUOUS
10
94.38
20
-95.25
11
94.3604
21
-95.6237
0
LINE
8
BLACK
6
CONTINUOUS
10
94.3604
20
-95.6237
11
94.3019
21
-95.9933
0
LINE
8
BLACK
6
CONTINUOUS
10
94.3019
20
-95.9933
11
94.205
21
-96.3547
0
LINE
8
BLACK
6
CONTINUOUS
10
94.205
20
-96.3547
11
94.0709
21
-96.7041
0
LINE
8
BLACK
6
CONTINUOUS
10
94.0709
20
-96.7041
11
93.901
21
-97.0375
0
LINE
8
BLACK
6
CONTINUOUS
10
93.901
20
-97.0375
11
93.6972
21
-97.3513
0
LINE
8
BLACK
6
CONTINUOUS
10
93.6972
20
-97.3513
11
93.4617
21
-97.6421
0
LINE
8
BLACK
6
CONTINUOUS
10
93.4617
20
-97.6421
11
93.1971
21
-97.9067
0
LINE
8
BLACK
6
CONTINUOUS
10
93.1971
20
-97.9067
11
92.9063
21
-98.1422
0
LINE
8
BLACK
6
CONTINUOUS
10
92.9063
20
-98.1422
11
92.5925
21
-98.346
0
LINE
8
BLACK
6
CONTINUOUS
10
92.5925
20
-98.346
11
92.2591
21
-98.5159
0
LINE
8
BLACK
6
CONTINUOUS
10
92.2591
20
-98.5159
11
91.9097
21
-98.65
0
LINE
8
BLACK
6
CONTINUOUS
10
91.9097
20
-98.65
11
91.5483
21
-98.7469
0
LINE
8
BLACK
6
CONTINUOUS
10
91.5483
20
-98.7469
11
91.1787
21
-98.8054
0
LINE
8
BLACK
6
CONTINUOUS
10
91.1787
20
-98.8054
11
90.805
21
-98.825
0
LINE
8
BLACK
6
CONTINUOUS
10
90.805
20
-98.825
11
90.4313
21
-98.8054
0
LINE
8
BLACK
6
CONTINUOUS
10
90.4313
20
-98.8054
11
90.0617
21
-98.7469
0
LINE
8
BLACK
6
CONTINUOUS
10
90.0617
20
-98.7469
11
89.7003
21
-98.65
0
LINE
8
BLACK
6
CONTINUOUS
10
89.7003
20
-98.65
11
89.3509
21
-98.5159
0
LINE
8
BLACK
6
CONTINUOUS
10
89.3509
20
-98.5159
11
89.0175
21
-98.346
0
LINE
8
BLACK
6
CONTINUOUS
10
89.0175
20
-98.346
11
88.7037
21
-98.1422
0
LINE
8
BLACK
6
CONTINUOUS
10
88.7037
20
-98.1422
11
88.4129
21
-97.9067
0
LINE
8
BLACK
6
CONTINUOUS
10
88.4129
20
-97.9067
11
88.1483
21
-97.6421
0
LINE
8
BLACK
6
CONTINUOUS
10
88.1483
20
-97.6421
11
87.9128
21
-97.3513
0
LINE
8
BLACK
6
CONTINUOUS
10
87.9128
20
-97.3513
11
87.709
21
-97.0375
0
LINE
8
BLACK
6
CONTINUOUS
10
87.709
20
-97.0375
11
87.5391
21
-96.7041
0
LINE
8
BLACK
6
CONTINUOUS
10
87.5391
20
-96.7041
11
87.405
21
-96.3547
0
LINE
8
BLACK
6
CONTINUOUS
10
87.405
20
-96.3547
11
87.3081
21
-95.9933
0
LINE
8
BLACK
6
CONTINUOUS
10
87.3081
20
-95.9933
11
87.2496
21
-95.6237
0
LINE
8
BLACK
6
CONTINUOUS
10
87.2496
20
-95.6237
11
87.23
21
-95.25
0
LINE
8
BLACK
6
CONTINUOUS
10
87.23
20
-95.25
11
87.2496
21
-94.8763
0
LINE
8
BLACK
6
CONTINUOUS
10
87.2496
20
-94.8763
11
87.3081
21
-94.5067
0
LINE
8
BLACK
6
CONTINUOUS
10
87.3523
20
-95.9839
11
87.4479
21
-96.3408
0
LINE
8
BLACK
6
CONTINUOUS
10
87.4479
20
-96.3408
11
87.5803
21
-96.6857
0
LINE
8
BLACK
6
CONTINUOUS
10
87.5803
20
-96.6857
11
87.7481
21
-97.0149
0
LINE
8
BLACK
6
CONTINUOUS
10
87.7481
20
-97.0149
11
87.9493
21
-97.3248
0
LINE
8
BLACK
6
CONTINUOUS
10
87.9493
20
-97.3248
11
88.1818
21
-97.6119
0
LINE
8
BLACK
6
CONTINUOUS
10
88.1818
20
-97.6119
11
88.4431
21
-97.8732
0
LINE
8
BLACK
6
CONTINUOUS
10
88.4431
20
-97.8732
11
88.7302
21
-98.1057
0
LINE
8
BLACK
6
CONTINUOUS
10
88.7302
20
-98.1057
11
89.0401
21
-98.3069
0
LINE
8
BLACK
6
CONTINUOUS
10
89.0401
20
-98.3069
11
89.3693
21
-98.4747
0
LINE
8
BLACK
6
CONTINUOUS
10
89.3693
20
-98.4747
11
89.7142
21
-98.6071
0
LINE
8
BLACK
6
CONTINUOUS
10
89.7142
20
-98.6071
11
90.0711
21
-98.7027
0
LINE
8
BLACK
6
CONTINUOUS
10
90.0711
20
-98.7027
11
90.436
21
-98.7605
0
LINE
8
BLACK
6
CONTINUOUS
10
90.436
20
-98.7605
11
90.805
21
-98.7798
0
LINE
8
BLACK
6
CONTINUOUS
10
90.805
20
-98.7798
11
91.174
21
-98.7605
0
LINE
8
BLACK
6
CONTINUOUS
10
91.174
20
-98.7605
11
91.5389
21
-98.7027
0
LINE
8
BLACK
6
CONTINUOUS
10
91.5389
20
-98.7027
11
91.8958
21
-98.6071
0
LINE
8
BLACK
6
CONTINUOUS
10
91.8958
20
-98.6071
11
92.2407
21
-98.4747
0
LINE
8
BLACK
6
CONTINUOUS
10
92.2407
20
-98.4747
11
92.5699
21
-98.3069
0
LINE
8
BLACK
6
CONTINUOUS
10
92.5699
20
-98.3069
11
92.8798
21
-98.1057
0
LINE
8
BLACK
6
CONTINUOUS
10
92.8798
20
-98.1057
11
93.1669
21
-97.8732
0
LINE
8
BLACK
6
CONTINUOUS
10
93.1669
20
-97.8732
11
93.4282
21
-97.6119
0
LINE
8
BLACK
6
CONTINUOUS
10
93.4282
20
-97.6119
11
93.6607
21
-97.3248
0
LINE
8
BLACK
6
CONTINUOUS
10
93.6607
20
-97.3248
11
93.8619
21
-97.0149
0
LINE
8
BLACK
6
CONTINUOUS
10
93.8619
20
-97.0149
11
94.0297
21
-96.6857
0
LINE
8
BLACK
6
CONTINUOUS
10
94.0297
20
-96.6857
11
94.1621
21
-96.3408
0
LINE
8
BLACK
6
CONTINUOUS
10
94.1621
20
-96.3408
11
94.2577
21
-95.9839
0
LINE
8
BLACK
6
CONTINUOUS
10
94.2577
20
-95.9839
11
94.3155
21
-95.619
0
LINE
8
BLACK
6
CONTINUOUS
10
94.3155
20
-95.619
11
94.3348
21
-95.25
0
LINE
8
BLACK
6
CONTINUOUS
10
94.3348
20
-95.25
11
94.3155
21
-94.881
0
LINE
8
BLACK
6
CONTINUOUS
10
94.3155
20
-94.881
11
94.2577
21
-94.5161
0
LINE
8
BLACK
6
CONTINUOUS
10
94.2577
20
-94.5161
11
94.1621
21
-94.1592
0
LINE
8
BLACK
6
CONTINUOUS
10
94.1621
20
-94.1592
11
94.0297
21
-93.8143
0
LINE
8
BLACK
6
CONTINUOUS
10
94.0297
20
-93.8143
11
93.8619
21
-93.4851
0
LINE
8
BLACK
6
CONTINUOUS
10
93.8619
20
-93.4851
11
93.6607
21
-93.1752
0
LINE
8
BLACK
6
CONTINUOUS
10
93.6607
20
-93.1752
11
93.4282
21
-92.8881
0
LINE
8
BLACK
6
CONTINUOUS
10
93.4282
20
-92.8881
11
93.1669
21
-92.6268
0
LINE
8
BLACK
6
CONTINUOUS
10
93.1669
20
-92.6268
11
92.8798
21
-92.3943
0
LINE
8
BLACK
6
CONTINUOUS
10
92.8798
20
-92.3943
11
92.5699
21
-92.1931
0
LINE
8
BLACK
6
CONTINUOUS
10
92.5699
20
-92.1931
11
92.2407
21
-92.0253
0
LINE
8
BLACK
6
CONTINUOUS
10
92.2407
20
-92.0253
11
91.8958
21
-91.8929
0
LINE
8
BLACK
6
CONTINUOUS
10
91.8958
20
-91.8929
11
91.5389
21
-91.7973
0
LINE
8
BLACK
6
CONTINUOUS
10
91.5389
20
-91.7973
11
91.174
21
-91.7395
0
LINE
8
BLACK
6
CONTINUOUS
10
91.174
20
-91.7395
11
90.805
21
-91.7202
0
LINE
8
BLACK
6
CONTINUOUS
10
90.805
20
-91.7202
11
90.436
21
-91.7395
0
LINE
8
BLACK
6
CONTINUOUS
10
90.436
20
-91.7395
11
90.0711
21
-91.7973
0
LINE
8
BLACK
6
CONTINUOUS
10
90.0711
20
-91.7973
11
89.7142
21
-91.8929
0
LINE
8
BLACK
6
CONTINUOUS
10
89.7142
20
-91.8929
11
89.3693
21
-92.0253
0
LINE
8
BLACK
6
CONTINUOUS
10
89.3693
20
-92.0253
11
89.0401
21
-92.1931
0
LINE
8
BLACK
6
CONTINUOUS
10
89.0401
20
-92.1931
11
88.7302
21
-92.3943
0
LINE
8
BLACK
6
CONTINUOUS
10
88.7302
20
-92.3943
11
88.4431
21
-92.6268
0
LINE
8
BLACK
6
CONTINUOUS
10
88.4431
20
-92.6268
11
88.1818
21
-92.8881
0
LINE
8
BLACK
6
CONTINUOUS
10
88.1818
20
-92.8881
11
87.9493
21
-93.1752
0
LINE
8
BLACK
6
CONTINUOUS
10
87.9493
20
-93.1752
11
87.7481
21
-93.4851
0
LINE
8
BLACK
6
CONTINUOUS
10
87.7481
20
-93.4851
11
87.5803
21
-93.8143
0
LINE
8
BLACK
6
CONTINUOUS
10
87.5803
20
-93.8143
11
87.4479
21
-94.1592
0
LINE
8
BLACK
6
CONTINUOUS
10
87.4479
20
-94.1592
11
87.3523
21
-94.5161
0
LINE
8
BLACK
6
CONTINUOUS
10
87.3523
20
-94.5161
11
87.2945
21
-94.881
0
LINE
8
BLACK
6
CONTINUOUS
10
87.2945
20
-94.881
11
87.2752
21
-95.25
0
LINE
8
BLACK
6
CONTINUOUS
10
87.2752
20
-95.25
11
87.2945
21
-95.619
0
LINE
8
BLACK
6
CONTINUOUS
10
87.2945
20
-95.619
11
87.3523
21
-95.9839
0
LINE
8
BLACK
6
CONTINUOUS
10
196.528
20
-94.5067
11
196.625
21
-94.1453
0
LINE
8
BLACK
6
CONTINUOUS
10
196.625
20
-94.1453
11
196.759
21
-93.7959
0
LINE
8
BLACK
6
CONTINUOUS
10
196.759
20
-93.7959
11
196.929
21
-93.4625
0
LINE
8
BLACK
6
CONTINUOUS
10
196.929
20
-93.4625
11
197.133
21
-93.1487
0
LINE
8
BLACK
6
CONTINUOUS
10
197.133
20
-93.1487
11
197.368
21
-92.8579
0
LINE
8
BLACK
6
CONTINUOUS
10
197.368
20
-92.8579
11
197.633
21
-92.5933
0
LINE
8
BLACK
6
CONTINUOUS
10
197.633
20
-92.5933
11
197.924
21
-92.3578
0
LINE
8
BLACK
6
CONTINUOUS
10
197.924
20
-92.3578
11
198.237
21
-92.154
0
LINE
8
BLACK
6
CONTINUOUS
10
198.237
20
-92.154
11
198.571
21
-91.9841
0
LINE
8
BLACK
6
CONTINUOUS
10
198.571
20
-91.9841
11
198.92
21
-91.85
0
LINE
8
BLACK
6
CONTINUOUS
10
198.92
20
-91.85
11
199.282
21
-91.7531
0
LINE
8
BLACK
6
CONTINUOUS
10
199.282
20
-91.7531
11
199.651
21
-91.6946
0
LINE
8
BLACK
6
CONTINUOUS
10
199.651
20
-91.6946
11
200.025
21
-91.675
0
LINE
8
BLACK
6
CONTINUOUS
10
200.025
20
-91.675
11
200.399
21
-91.6946
0
LINE
8
BLACK
6
CONTINUOUS
10
200.399
20
-91.6946
11
200.768
21
-91.7531
0
LINE
8
BLACK
6
CONTINUOUS
10
200.768
20
-91.7531
11
201.13
21
-91.85
0
LINE
8
BLACK
6
CONTINUOUS
10
201.13
20
-91.85
11
201.479
21
-91.9841
0
LINE
8
BLACK
6
CONTINUOUS
10
201.479
20
-91.9841
11
201.812
21
-92.154
0
LINE
8
BLACK
6
CONTINUOUS
10
201.812
20
-92.154
11
202.126
21
-92.3578
0
LINE
8
BLACK
6
CONTINUOUS
10
202.126
20
-92.3578
11
202.417
21
-92.5933
0
LINE
8
BLACK
6
CONTINUOUS
10
202.417
20
-92.5933
11
202.682
21
-92.8579
0
LINE
8
BLACK
6
CONTINUOUS
10
202.682
20
-92.8579
11
202.917
21
-93.1487
0
LINE
8
BLACK
6
CONTINUOUS
10
202.917
20
-93.1487
11
203.121
21
-93.4625
0
LINE
8
BLACK
6
CONTINUOUS
10
203.121
20
-93.4625
11
203.291
21
-93.7959
0
LINE
8
BLACK
6
CONTINUOUS
10
203.291
20
-93.7959
11
203.425
21
-94.1453
0
LINE
8
BLACK
6
CONTINUOUS
10
203.425
20
-94.1453
11
203.522
21
-94.5067
0
LINE
8
BLACK
6
CONTINUOUS
10
203.522
20
-94.5067
11
203.58
21
-94.8763
0
LINE
8
BLACK
6
CONTINUOUS
10
203.58
20
-94.8763
11
203.6
21
-95.25
0
LINE
8
BLACK
6
CONTINUOUS
10
203.6
20
-95.25
11
203.58
21
-95.6237
0
LINE
8
BLACK
6
CONTINUOUS
10
203.58
20
-95.6237
11
203.522
21
-95.9933
0
LINE
8
BLACK
6
CONTINUOUS
10
203.522
20
-95.9933
11
203.425
21
-96.3547
0
LINE
8
BLACK
6
CONTINUOUS
10
203.425
20
-96.3547
11
203.291
21
-96.7041
0
LINE
8
BLACK
6
CONTINUOUS
10
203.291
20
-96.7041
11
203.121
21
-97.0375
0
LINE
8
BLACK
6
CONTINUOUS
10
203.121
20
-97.0375
11
202.917
21
-97.3513
0
LINE
8
BLACK
6
CONTINUOUS
10
202.917
20
-97.3513
11
202.682
21
-97.6421
0
LINE
8
BLACK
6
CONTINUOUS
10
202.682
20
-97.6421
11
202.417
21
-97.9067
0
LINE
8
BLACK
6
CONTINUOUS
10
202.417
20
-97.9067
11
202.126
21
-98.1422
0
LINE
8
BLACK
6
CONTINUOUS
10
202.126
20
-98.1422
11
201.812
21
-98.346
0
LINE
8
BLACK
6
CONTINUOUS
10
201.812
20
-98.346
11
201.479
21
-98.5159
0
LINE
8
BLACK
6
CONTINUOUS
10
201.479
20
-98.5159
11
201.13
21
-98.65
0
LINE
8
BLACK
6
CONTINUOUS
10
201.13
20
-98.65
11
200.768
21
-98.7469
0
LINE
8
BLACK
6
CONTINUOUS
10
200.768
20
-98.7469
11
200.399
21
-98.8054
0
LINE
8
BLACK
6
CONTINUOUS
10
200.399
20
-98.8054
11
200.025
21
-98.825
0
LINE
8
BLACK
6
CONTINUOUS
10
200.025
20
-98.825
11
199.651
21
-98.8054
0
LINE
8
BLACK
6
CONTINUOUS
10
199.651
20
-98.8054
11
199.282
21
-98.7469
0
LINE
8
BLACK
6
CONTINUOUS
10
199.282
20
-98.7469
11
198.92
21
-98.65
0
LINE
8
BLACK
6
CONTINUOUS
10
198.92
20
-98.65
11
198.571
21
-98.5159
0
LINE
8
BLACK
6
CONTINUOUS
10
198.571
20
-98.5159
11
198.237
21
-98.346
0
LINE
8
BLACK
6
CONTINUOUS
10
198.237
20
-98.346
11
197.924
21
-98.1422
0
LINE
8
BLACK
6
CONTINUOUS
10
197.924
20
-98.1422
11
197.633
21
-97.9067
0
LINE
8
BLACK
6
CONTINUOUS
10
197.633
20
-97.9067
11
197.368
21
-97.6421
0
LINE
8
BLACK
6
CONTINUOUS
10
197.368
20
-97.6421
11
197.133
21
-97.3513
0
LINE
8
BLACK
6
CONTINUOUS
10
197.133
20
-97.3513
11
196.929
21
-97.0375
0
LINE
8
BLACK
6
CONTINUOUS
10
196.929
20
-97.0375
11
196.759
21
-96.7041
0
LINE
8
BLACK
6
CONTINUOUS
10
196.759
20
-96.7041
11
196.625
21
-96.3547
0
LINE
8
BLACK
6
CONTINUOUS
10
196.625
20
-96.3547
11
196.528
21
-95.9933
0
LINE
8
BLACK
6
CONTINUOUS
10
196.528
20
-95.9933
11
196.47
21
-95.6237
0
LINE
8
BLACK
6
CONTINUOUS
10
196.47
20
-95.6237
11
196.45
21
-95.25
0
LINE
8
BLACK
6
CONTINUOUS
10
196.45
20
-95.25
11
196.47
21
-94.8763
0
LINE
8
BLACK
6
CONTINUOUS
10
196.47
20
-94.8763
11
196.528
21
-94.5067
0
LINE
8
BLACK
6
CONTINUOUS
10
196.572
20
-95.9839
11
196.668
21
-96.3408
0
LINE
8
BLACK
6
CONTINUOUS
10
196.668
20
-96.3408
11
196.8
21
-96.6857
0
LINE
8
BLACK
6
CONTINUOUS
10
196.8
20
-96.6857
11
196.968
21
-97.0149
0
LINE
8
BLACK
6
CONTINUOUS
10
196.968
20
-97.0149
11
197.169
21
-97.3248
0
LINE
8
BLACK
6
CONTINUOUS
10
197.169
20
-97.3248
11
197.402
21
-97.6119
0
LINE
8
BLACK
6
CONTINUOUS
10
197.402
20
-97.6119
11
197.663
21
-97.8732
0
LINE
8
BLACK
6
CONTINUOUS
10
197.663
20
-97.8732
11
197.95
21
-98.1057
0
LINE
8
BLACK
6
CONTINUOUS
10
197.95
20
-98.1057
11
198.26
21
-98.3069
0
LINE
8
BLACK
6
CONTINUOUS
10
198.26
20
-98.3069
11
198.589
21
-98.4747
0
LINE
8
BLACK
6
CONTINUOUS
10
198.589
20
-98.4747
11
198.934
21
-98.6071
0
LINE
8
BLACK
6
CONTINUOUS
10
198.934
20
-98.6071
11
199.291
21
-98.7027
0
LINE
8
BLACK
6
CONTINUOUS
10
199.291
20
-98.7027
11
199.656
21
-98.7605
0
LINE
8
BLACK
6
CONTINUOUS
10
199.656
20
-98.7605
11
200.025
21
-98.7798
0
LINE
8
BLACK
6
CONTINUOUS
10
200.025
20
-98.7798
11
200.394
21
-98.7605
0
LINE
8
BLACK
6
CONTINUOUS
10
200.394
20
-98.7605
11
200.759
21
-98.7027
0
LINE
8
BLACK
6
CONTINUOUS
10
200.759
20
-98.7027
11
201.116
21
-98.6071
0
LINE
8
BLACK
6
CONTINUOUS
10
201.116
20
-98.6071
11
201.461
21
-98.4747
0
LINE
8
BLACK
6
CONTINUOUS
10
201.461
20
-98.4747
11
201.79
21
-98.3069
0
LINE
8
BLACK
6
CONTINUOUS
10
201.79
20
-98.3069
11
202.1
21
-98.1057
0
LINE
8
BLACK
6
CONTINUOUS
10
202.1
20
-98.1057
11
202.387
21
-97.8732
0
LINE
8
BLACK
6
CONTINUOUS
10
202.387
20
-97.8732
11
202.648
21
-97.6119
0
LINE
8
BLACK
6
CONTINUOUS
10
202.648
20
-97.6119
11
202.881
21
-97.3248
0
LINE
8
BLACK
6
CONTINUOUS
10
202.881
20
-97.3248
11
203.082
21
-97.0149
0
LINE
8
BLACK
6
CONTINUOUS
10
203.082
20
-97.0149
11
203.25
21
-96.6857
0
LINE
8
BLACK
6
CONTINUOUS
10
203.25
20
-96.6857
11
203.382
21
-96.3408
0
LINE
8
BLACK
6
CONTINUOUS
10
203.382
20
-96.3408
11
203.478
21
-95.9839
0
LINE
8
BLACK
6
CONTINUOUS
10
203.478
20
-95.9839
11
203.536
21
-95.619
0
LINE
8
BLACK
6
CONTINUOUS
10
203.536
20
-95.619
11
203.555
21
-95.25
0
LINE
8
BLACK
6
CONTINUOUS
10
203.555
20
-95.25
11
203.536
21
-94.881
0
LINE
8
BLACK
6
CONTINUOUS
10
203.536
20
-94.881
11
203.478
21
-94.5161
0
LINE
8
BLACK
6
CONTINUOUS
10
203.478
20
-94.5161
11
203.382
21
-94.1592
0
LINE
8
BLACK
6
CONTINUOUS
10
203.382
20
-94.1592
11
203.25
21
-93.8143
0
LINE
8
BLACK
6
CONTINUOUS
10
203.25
20
-93.8143
11
203.082
21
-93.4851
0
LINE
8
BLACK
6
CONTINUOUS
10
203.082
20
-93.4851
11
202.881
21
-93.1752
0
LINE
8
BLACK
6
CONTINUOUS
10
202.881
20
-93.1752
11
202.648
21
-92.8881
0
LINE
8
BLACK
6
CONTINUOUS
10
202.648
20
-92.8881
11
202.387
21
-92.6268
0
LINE
8
BLACK
6
CONTINUOUS
10
202.387
20
-92.6268
11
202.1
21
-92.3943
0
LINE
8
BLACK
6
CONTINUOUS
10
202.1
20
-92.3943
11
201.79
21
-92.1931
0
LINE
8
BLACK
6
CONTINUOUS
10
201.79
20
-92.1931
11
201.461
21
-92.0253
0
LINE
8
BLACK
6
CONTINUOUS
10
201.461
20
-92.0253
11
201.116
21
-91.8929
0
LINE
8
BLACK
6
CONTINUOUS
10
201.116
20
-91.8929
11
200.759
21
-91.7973
0
LINE
8
BLACK
6
CONTINUOUS
10
200.759
20
-91.7973
11
200.394
21
-91.7395
0
LINE
8
BLACK
6
CONTINUOUS
10
200.394
20
-91.7395
11
200.025
21
-91.7202
0
LINE
8
BLACK
6
CONTINUOUS
10
200.025
20
-91.7202
11
199.656
21
-91.7395
0
LINE
8
BLACK
6
CONTINUOUS
10
199.656
20
-91.7395
11
199.291
21
-91.7973
0
LINE
8
BLACK
6
CONTINUOUS
10
199.291
20
-91.7973
11
198.934
21
-91.8929
0
LINE
8
BLACK
6
CONTINUOUS
10
198.934
20
-91.8929
11
198.589
21
-92.0253
0
LINE
8
BLACK
6
CONTINUOUS
10
198.589
20
-92.0253
11
198.26
21
-92.1931
0
LINE
8
BLACK
6
CONTINUOUS
10
198.26
20
-92.1931
11
197.95
21
-92.3943
0
LINE
8
BLACK
6
CONTINUOUS
10
197.95
20
-92.3943
11
197.663
21
-92.6268
0
LINE
8
BLACK
6
CONTINUOUS
10
197.663
20
-92.6268
11
197.402
21
-92.8881
0
LINE
8
BLACK
6
CONTINUOUS
10
197.402
20
-92.8881
11
197.169
21
-93.1752
0
LINE
8
BLACK
6
CONTINUOUS
10
197.169
20
-93.1752
11
196.968
21
-93.4851
0
LINE
8
BLACK
6
CONTINUOUS
10
196.968
20
-93.4851
11
196.8
21
-93.8143
0
LINE
8
BLACK
6
CONTINUOUS
10
196.8
20
-93.8143
11
196.668
21
-94.1592
0
LINE
8
BLACK
6
CONTINUOUS
10
196.668
20
-94.1592
11
196.572
21
-94.5161
0
LINE
8
BLACK
6
CONTINUOUS
10
196.572
20
-94.5161
11
196.514
21
-94.881
0
LINE
8
BLACK
6
CONTINUOUS
10
196.514
20
-94.881
11
196.495
21
-95.25
0
LINE
8
BLACK
6
CONTINUOUS
10
196.495
20
-95.25
11
196.514
21
-95.619
0
LINE
8
BLACK
6
CONTINUOUS
10
196.514
20
-95.619
11
196.572
21
-95.9839
0
LINE
8
BLACK
6
CONTINUOUS
10
169.858
20
-94.5067
11
169.955
21
-94.1453
0
LINE
8
BLACK
6
CONTINUOUS
10
169.955
20
-94.1453
11
170.089
21
-93.7959
0
LINE
8
BLACK
6
CONTINUOUS
10
170.089
20
-93.7959
11
170.259
21
-93.4625
0
LINE
8
BLACK
6
CONTINUOUS
10
170.259
20
-93.4625
11
170.463
21
-93.1487
0
LINE
8
BLACK
6
CONTINUOUS
10
170.463
20
-93.1487
11
170.698
21
-92.8579
0
LINE
8
BLACK
6
CONTINUOUS
10
170.698
20
-92.8579
11
170.963
21
-92.5933
0
LINE
8
BLACK
6
CONTINUOUS
10
170.963
20
-92.5933
11
171.254
21
-92.3578
0
LINE
8
BLACK
6
CONTINUOUS
10
171.254
20
-92.3578
11
171.567
21
-92.154
0
LINE
8
BLACK
6
CONTINUOUS
10
171.567
20
-92.154
11
171.901
21
-91.9841
0
LINE
8
BLACK
6
CONTINUOUS
10
171.901
20
-91.9841
11
172.25
21
-91.85
0
LINE
8
BLACK
6
CONTINUOUS
10
172.25
20
-91.85
11
172.612
21
-91.7531
0
LINE
8
BLACK
6
CONTINUOUS
10
172.612
20
-91.7531
11
172.981
21
-91.6946
0
LINE
8
BLACK
6
CONTINUOUS
10
172.981
20
-91.6946
11
173.355
21
-91.675
0
LINE
8
BLACK
6
CONTINUOUS
10
173.355
20
-91.675
11
173.729
21
-91.6946
0
LINE
8
BLACK
6
CONTINUOUS
10
173.729
20
-91.6946
11
174.098
21
-91.7531
0
LINE
8
BLACK
6
CONTINUOUS
10
174.098
20
-91.7531
11
174.46
21
-91.85
0
LINE
8
BLACK
6
CONTINUOUS
10
174.46
20
-91.85
11
174.809
21
-91.9841
0
LINE
8
BLACK
6
CONTINUOUS
10
174.809
20
-91.9841
11
175.142
21
-92.154
0
LINE
8
BLACK
6
CONTINUOUS
10
175.142
20
-92.154
11
175.456
21
-92.3578
0
LINE
8
BLACK
6
CONTINUOUS
10
175.456
20
-92.3578
11
175.747
21
-92.5933
0
LINE
8
BLACK
6
CONTINUOUS
10
175.747
20
-92.5933
11
176.012
21
-92.8579
0
LINE
8
BLACK
6
CONTINUOUS
10
176.012
20
-92.8579
11
176.247
21
-93.1487
0
LINE
8
BLACK
6
CONTINUOUS
10
176.247
20
-93.1487
11
176.451
21
-93.4625
0
LINE
8
BLACK
6
CONTINUOUS
10
176.451
20
-93.4625
11
176.621
21
-93.7959
0
LINE
8
BLACK
6
CONTINUOUS
10
176.621
20
-93.7959
11
176.755
21
-94.1453
0
LINE
8
BLACK
6
CONTINUOUS
10
176.755
20
-94.1453
11
176.852
21
-94.5067
0
LINE
8
BLACK
6
CONTINUOUS
10
176.852
20
-94.5067
11
176.91
21
-94.8763
0
LINE
8
BLACK
6
CONTINUOUS
10
176.91
20
-94.8763
11
176.93
21
-95.25
0
LINE
8
BLACK
6
CONTINUOUS
10
176.93
20
-95.25
11
176.91
21
-95.6237
0
LINE
8
BLACK
6
CONTINUOUS
10
176.91
20
-95.6237
11
176.852
21
-95.9933
0
LINE
8
BLACK
6
CONTINUOUS
10
176.852
20
-95.9933
11
176.755
21
-96.3547
0
LINE
8
BLACK
6
CONTINUOUS
10
176.755
20
-96.3547
11
176.621
21
-96.7041
0
LINE
8
BLACK
6
CONTINUOUS
10
176.621
20
-96.7041
11
176.451
21
-97.0375
0
LINE
8
BLACK
6
CONTINUOUS
10
176.451
20
-97.0375
11
176.247
21
-97.3513
0
LINE
8
BLACK
6
CONTINUOUS
10
176.247
20
-97.3513
11
176.012
21
-97.6421
0
LINE
8
BLACK
6
CONTINUOUS
10
176.012
20
-97.6421
11
175.747
21
-97.9067
0
LINE
8
BLACK
6
CONTINUOUS
10
175.747
20
-97.9067
11
175.456
21
-98.1422
0
LINE
8
BLACK
6
CONTINUOUS
10
175.456
20
-98.1422
11
175.142
21
-98.346
0
LINE
8
BLACK
6
CONTINUOUS
10
175.142
20
-98.346
11
174.809
21
-98.5159
0
LINE
8
BLACK
6
CONTINUOUS
10
174.809
20
-98.5159
11
174.46
21
-98.65
0
LINE
8
BLACK
6
CONTINUOUS
10
174.46
20
-98.65
11
174.098
21
-98.7469
0
LINE
8
BLACK
6
CONTINUOUS
10
174.098
20
-98.7469
11
173.729
21
-98.8054
0
LINE
8
BLACK
6
CONTINUOUS
10
173.729
20
-98.8054
11
173.355
21
-98.825
0
LINE
8
BLACK
6
CONTINUOUS
10
173.355
20
-98.825
11
172.981
21
-98.8054
0
LINE
8
BLACK
6
CONTINUOUS
10
172.981
20
-98.8054
11
172.612
21
-98.7469
0
LINE
8
BLACK
6
CONTINUOUS
10
172.612
20
-98.7469
11
172.25
21
-98.65
0
LINE
8
BLACK
6
CONTINUOUS
10
172.25
20
-98.65
11
171.901
21
-98.5159
0
LINE
8
BLACK
6
CONTINUOUS
10
171.901
20
-98.5159
11
171.567
21
-98.346
0
LINE
8
BLACK
6
CONTINUOUS
10
171.567
20
-98.346
11
171.254
21
-98.1422
0
LINE
8
BLACK
6
CONTINUOUS
10
171.254
20
-98.1422
11
170.963
21
-97.9067
0
LINE
8
BLACK
6
CONTINUOUS
10
170.963
20
-97.9067
11
170.698
21
-97.6421
0
LINE
8
BLACK
6
CONTINUOUS
10
170.698
20
-97.6421
11
170.463
21
-97.3513
0
LINE
8
BLACK
6
CONTINUOUS
10
170.463
20
-97.3513
11
170.259
21
-97.0375
0
LINE
8
BLACK
6
CONTINUOUS
10
170.259
20
-97.0375
11
170.089
21
-96.7041
0
LINE
8
BLACK
6
CONTINUOUS
10
170.089
20
-96.7041
11
169.955
21
-96.3547
0
LINE
8
BLACK
6
CONTINUOUS
10
169.955
20
-96.3547
11
169.858
21
-95.9933
0
LINE
8
BLACK
6
CONTINUOUS
10
169.858
20
-95.9933
11
169.8
21
-95.6237
0
LINE
8
BLACK
6
CONTINUOUS
10
169.8
20
-95.6237
11
169.78
21
-95.25
0
LINE
8
BLACK
6
CONTINUOUS
10
169.78
20
-95.25
11
169.8
21
-94.8763
0
LINE
8
BLACK
6
CONTINUOUS
10
169.8
20
-94.8763
11
169.858
21
-94.5067
0
LINE
8
BLACK
6
CONTINUOUS
10
169.902
20
-95.9839
11
169.998
21
-96.3408
0
LINE
8
BLACK
6
CONTINUOUS
10
169.998
20
-96.3408
11
170.13
21
-96.6857
0
LINE
8
BLACK
6
CONTINUOUS
10
170.13
20
-96.6857
11
170.298
21
-97.0149
0
LINE
8
BLACK
6
CONTINUOUS
10
170.298
20
-97.0149
11
170.499
21
-97.3248
0
LINE
8
BLACK
6
CONTINUOUS
10
170.499
20
-97.3248
11
170.732
21
-97.6119
0
LINE
8
BLACK
6
CONTINUOUS
10
170.732
20
-97.6119
11
170.993
21
-97.8732
0
LINE
8
BLACK
6
CONTINUOUS
10
170.993
20
-97.8732
11
171.28
21
-98.1057
0
LINE
8
BLACK
6
CONTINUOUS
10
171.28
20
-98.1057
11
171.59
21
-98.3069
0
LINE
8
BLACK
6
CONTINUOUS
10
171.59
20
-98.3069
11
171.919
21
-98.4747
0
LINE
8
BLACK
6
CONTINUOUS
10
171.919
20
-98.4747
11
172.264
21
-98.6071
0
LINE
8
BLACK
6
CONTINUOUS
10
172.264
20
-98.6071
11
172.621
21
-98.7027
0
LINE
8
BLACK
6
CONTINUOUS
10
172.621
20
-98.7027
11
172.986
21
-98.7605
0
LINE
8
BLACK
6
CONTINUOUS
10
172.986
20
-98.7605
11
173.355
21
-98.7798
0
LINE
8
BLACK
6
CONTINUOUS
10
173.355
20
-98.7798
11
173.724
21
-98.7605
0
LINE
8
BLACK
6
CONTINUOUS
10
173.724
20
-98.7605
11
174.089
21
-98.7027
0
LINE
8
BLACK
6
CONTINUOUS
10
174.089
20
-98.7027
11
174.446
21
-98.6071
0
LINE
8
BLACK
6
CONTINUOUS
10
174.446
20
-98.6071
11
174.791
21
-98.4747
0
LINE
8
BLACK
6
CONTINUOUS
10
174.791
20
-98.4747
11
175.12
21
-98.3069
0
LINE
8
BLACK
6
CONTINUOUS
10
175.12
20
-98.3069
11
175.43
21
-98.1057
0
LINE
8
BLACK
6
CONTINUOUS
10
175.43
20
-98.1057
11
175.717
21
-97.8732
0
LINE
8
BLACK
6
CONTINUOUS
10
175.717
20
-97.8732
11
175.978
21
-97.6119
0
LINE
8
BLACK
6
CONTINUOUS
10
175.978
20
-97.6119
11
176.211
21
-97.3248
0
LINE
8
BLACK
6
CONTINUOUS
10
176.211
20
-97.3248
11
176.412
21
-97.0149
0
LINE
8
BLACK
6
CONTINUOUS
10
176.412
20
-97.0149
11
176.58
21
-96.6857
0
LINE
8
BLACK
6
CONTINUOUS
10
176.58
20
-96.6857
11
176.712
21
-96.3408
0
LINE
8
BLACK
6
CONTINUOUS
10
176.712
20
-96.3408
11
176.808
21
-95.9839
0
LINE
8
BLACK
6
CONTINUOUS
10
176.808
20
-95.9839
11
176.866
21
-95.619
0
LINE
8
BLACK
6
CONTINUOUS
10
176.866
20
-95.619
11
176.885
21
-95.25
0
LINE
8
BLACK
6
CONTINUOUS
10
176.885
20
-95.25
11
176.866
21
-94.881
0
LINE
8
BLACK
6
CONTINUOUS
10
176.866
20
-94.881
11
176.808
21
-94.5161
0
LINE
8
BLACK
6
CONTINUOUS
10
176.808
20
-94.5161
11
176.712
21
-94.1592
0
LINE
8
BLACK
6
CONTINUOUS
10
176.712
20
-94.1592
11
176.58
21
-93.8143
0
LINE
8
BLACK
6
CONTINUOUS
10
176.58
20
-93.8143
11
176.412
21
-93.4851
0
LINE
8
BLACK
6
CONTINUOUS
10
176.412
20
-93.4851
11
176.211
21
-93.1752
0
LINE
8
BLACK
6
CONTINUOUS
10
176.211
20
-93.1752
11
175.978
21
-92.8881
0
LINE
8
BLACK
6
CONTINUOUS
10
175.978
20
-92.8881
11
175.717
21
-92.6268
0
LINE
8
BLACK
6
CONTINUOUS
10
175.717
20
-92.6268
11
175.43
21
-92.3943
0
LINE
8
BLACK
6
CONTINUOUS
10
175.43
20
-92.3943
11
175.12
21
-92.1931
0
LINE
8
BLACK
6
CONTINUOUS
10
175.12
20
-92.1931
11
174.791
21
-92.0253
0
LINE
8
BLACK
6
CONTINUOUS
10
174.791
20
-92.0253
11
174.446
21
-91.8929
0
LINE
8
BLACK
6
CONTINUOUS
10
174.446
20
-91.8929
11
174.089
21
-91.7973
0
LINE
8
BLACK
6
CONTINUOUS
10
174.089
20
-91.7973
11
173.724
21
-91.7395
0
LINE
8
BLACK
6
CONTINUOUS
10
173.724
20
-91.7395
11
173.355
21
-91.7202
0
LINE
8
BLACK
6
CONTINUOUS
10
173.355
20
-91.7202
11
172.986
21
-91.7395
0
LINE
8
BLACK
6
CONTINUOUS
10
172.986
20
-91.7395
11
172.621
21
-91.7973
0
LINE
8
BLACK
6
CONTINUOUS
10
172.621
20
-91.7973
11
172.264
21
-91.8929
0
LINE
8
BLACK
6
CONTINUOUS
10
172.264
20
-91.8929
11
171.919
21
-92.0253
0
LINE
8
BLACK
6
CONTINUOUS
10
171.919
20
-92.0253
11
171.59
21
-92.1931
0
LINE
8
BLACK
6
CONTINUOUS
10
171.59
20
-92.1931
11
171.28
21
-92.3943
0
LINE
8
BLACK
6
CONTINUOUS
10
171.28
20
-92.3943
11
170.993
21
-92.6268
0
LINE
8
BLACK
6
CONTINUOUS
10
170.993
20
-92.6268
11
170.732
21
-92.8881
0
LINE
8
BLACK
6
CONTINUOUS
10
170.732
20
-92.8881
11
170.499
21
-93.1752
0
LINE
8
BLACK
6
CONTINUOUS
10
170.499
20
-93.1752
11
170.298
21
-93.4851
0
LINE
8
BLACK
6
CONTINUOUS
10
170.298
20
-93.4851
11
170.13
21
-93.8143
0
LINE
8
BLACK
6
CONTINUOUS
10
170.13
20
-93.8143
11
169.998
21
-94.1592
0
LINE
8
BLACK
6
CONTINUOUS
10
169.998
20
-94.1592
11
169.902
21
-94.5161
0
LINE
8
BLACK
6
CONTINUOUS
10
169.902
20
-94.5161
11
169.844
21
-94.881
0
LINE
8
BLACK
6
CONTINUOUS
10
169.844
20
-94.881
11
169.825
21
-95.25
0
LINE
8
BLACK
6
CONTINUOUS
10
169.825
20
-95.25
11
169.844
21
-95.619
0
LINE
8
BLACK
6
CONTINUOUS
10
169.844
20
-95.619
11
169.902
21
-95.9839
0
LINE
8
BLACK
6
CONTINUOUS
10
115.248
20
-94.5067
11
115.345
21
-94.1453
0
LINE
8
BLACK
6
CONTINUOUS
10
115.345
20
-94.1453
11
115.479
21
-93.7959
0
LINE
8
BLACK
6
CONTINUOUS
10
115.479
20
-93.7959
11
115.649
21
-93.4625
0
LINE
8
BLACK
6
CONTINUOUS
10
115.649
20
-93.4625
11
115.853
21
-93.1487
0
LINE
8
BLACK
6
CONTINUOUS
10
115.853
20
-93.1487
11
116.088
21
-92.8579
0
LINE
8
BLACK
6
CONTINUOUS
10
116.088
20
-92.8579
11
116.353
21
-92.5933
0
LINE
8
BLACK
6
CONTINUOUS
10
116.353
20
-92.5933
11
116.644
21
-92.3578
0
LINE
8
BLACK
6
CONTINUOUS
10
116.644
20
-92.3578
11
116.957
21
-92.154
0
LINE
8
BLACK
6
CONTINUOUS
10
116.957
20
-92.154
11
117.291
21
-91.9841
0
LINE
8
BLACK
6
CONTINUOUS
10
117.291
20
-91.9841
11
117.64
21
-91.85
0
LINE
8
BLACK
6
CONTINUOUS
10
117.64
20
-91.85
11
118.002
21
-91.7531
0
LINE
8
BLACK
6
CONTINUOUS
10
118.002
20
-91.7531
11
118.371
21
-91.6946
0
LINE
8
BLACK
6
CONTINUOUS
10
118.371
20
-91.6946
11
118.745
21
-91.675
0
LINE
8
BLACK
6
CONTINUOUS
10
118.745
20
-91.675
11
119.119
21
-91.6946
0
LINE
8
BLACK
6
CONTINUOUS
10
119.119
20
-91.6946
11
119.488
21
-91.7531
0
LINE
8
BLACK
6
CONTINUOUS
10
119.488
20
-91.7531
11
119.85
21
-91.85
0
LINE
8
BLACK
6
CONTINUOUS
10
119.85
20
-91.85
11
120.199
21
-91.9841
0
LINE
8
BLACK
6
CONTINUOUS
10
120.199
20
-91.9841
11
120.532
21
-92.154
0
LINE
8
BLACK
6
CONTINUOUS
10
120.532
20
-92.154
11
120.846
21
-92.3578
0
LINE
8
BLACK
6
CONTINUOUS
10
120.846
20
-92.3578
11
121.137
21
-92.5933
0
LINE
8
BLACK
6
CONTINUOUS
10
121.137
20
-92.5933
11
121.402
21
-92.8579
0
LINE
8
BLACK
6
CONTINUOUS
10
121.402
20
-92.8579
11
121.637
21
-93.1487
0
LINE
8
BLACK
6
CONTINUOUS
10
121.637
20
-93.1487
11
121.841
21
-93.4625
0
LINE
8
BLACK
6
CONTINUOUS
10
121.841
20
-93.4625
11
122.011
21
-93.7959
0
LINE
8
BLACK
6
CONTINUOUS
10
122.011
20
-93.7959
11
122.145
21
-94.1453
0
LINE
8
BLACK
6
CONTINUOUS
10
122.145
20
-94.1453
11
122.242
21
-94.5067
0
LINE
8
BLACK
6
CONTINUOUS
10
122.242
20
-94.5067
11
122.3
21
-94.8763
0
LINE
8
BLACK
6
CONTINUOUS
10
122.3
20
-94.8763
11
122.32
21
-95.25
0
LINE
8
BLACK
6
CONTINUOUS
10
122.32
20
-95.25
11
122.3
21
-95.6237
0
LINE
8
BLACK
6
CONTINUOUS
10
122.3
20
-95.6237
11
122.242
21
-95.9933
0
LINE
8
BLACK
6
CONTINUOUS
10
122.242
20
-95.9933
11
122.145
21
-96.3547
0
LINE
8
BLACK
6
CONTINUOUS
10
122.145
20
-96.3547
11
122.011
21
-96.7041
0
LINE
8
BLACK
6
CONTINUOUS
10
122.011
20
-96.7041
11
121.841
21
-97.0375
0
LINE
8
BLACK
6
CONTINUOUS
10
121.841
20
-97.0375
11
121.637
21
-97.3513
0
LINE
8
BLACK
6
CONTINUOUS
10
121.637
20
-97.3513
11
121.402
21
-97.6421
0
LINE
8
BLACK
6
CONTINUOUS
10
121.402
20
-97.6421
11
121.137
21
-97.9067
0
LINE
8
BLACK
6
CONTINUOUS
10
121.137
20
-97.9067
11
120.846
21
-98.1422
0
LINE
8
BLACK
6
CONTINUOUS
10
120.846
20
-98.1422
11
120.532
21
-98.346
0
LINE
8
BLACK
6
CONTINUOUS
10
120.532
20
-98.346
11
120.199
21
-98.5159
0
LINE
8
BLACK
6
CONTINUOUS
10
120.199
20
-98.5159
11
119.85
21
-98.65
0
LINE
8
BLACK
6
CONTINUOUS
10
119.85
20
-98.65
11
119.488
21
-98.7469
0
LINE
8
BLACK
6
CONTINUOUS
10
119.488
20
-98.7469
11
119.119
21
-98.8054
0
LINE
8
BLACK
6
CONTINUOUS
10
119.119
20
-98.8054
11
118.745
21
-98.825
0
LINE
8
BLACK
6
CONTINUOUS
10
118.745
20
-98.825
11
118.371
21
-98.8054
0
LINE
8
BLACK
6
CONTINUOUS
10
118.371
20
-98.8054
11
118.002
21
-98.7469
0
LINE
8
BLACK
6
CONTINUOUS
10
118.002
20
-98.7469
11
117.64
21
-98.65
0
LINE
8
BLACK
6
CONTINUOUS
10
117.64
20
-98.65
11
117.291
21
-98.5159
0
LINE
8
BLACK
6
CONTINUOUS
10
117.291
20
-98.5159
11
116.957
21
-98.346
0
LINE
8
BLACK
6
CONTINUOUS
10
116.957
20
-98.346
11
116.644
21
-98.1422
0
LINE
8
BLACK
6
CONTINUOUS
10
116.644
20
-98.1422
11
116.353
21
-97.9067
0
LINE
8
BLACK
6
CONTINUOUS
10
116.353
20
-97.9067
11
116.088
21
-97.6421
0
LINE
8
BLACK
6
CONTINUOUS
10
116.088
20
-97.6421
11
115.853
21
-97.3513
0
LINE
8
BLACK
6
CONTINUOUS
10
115.853
20
-97.3513
11
115.649
21
-97.0375
0
LINE
8
BLACK
6
CONTINUOUS
10
115.649
20
-97.0375
11
115.479
21
-96.7041
0
LINE
8
BLACK
6
CONTINUOUS
10
115.479
20
-96.7041
11
115.345
21
-96.3547
0
LINE
8
BLACK
6
CONTINUOUS
10
115.345
20
-96.3547
11
115.248
21
-95.9933
0
LINE
8
BLACK
6
CONTINUOUS
10
115.248
20
-95.9933
11
115.19
21
-95.6237
0
LINE
8
BLACK
6
CONTINUOUS
10
115.19
20
-95.6237
11
115.17
21
-95.25
0
LINE
8
BLACK
6
CONTINUOUS
10
115.17
20
-95.25
11
115.19
21
-94.8763
0
LINE
8
BLACK
6
CONTINUOUS
10
115.19
20
-94.8763
11
115.248
21
-94.5067
0
LINE
8
BLACK
6
CONTINUOUS
10
115.292
20
-95.9839
11
115.388
21
-96.3408
0
LINE
8
BLACK
6
CONTINUOUS
10
115.388
20
-96.3408
11
115.52
21
-96.6857
0
LINE
8
BLACK
6
CONTINUOUS
10
115.52
20
-96.6857
11
115.688
21
-97.0149
0
LINE
8
BLACK
6
CONTINUOUS
10
115.688
20
-97.0149
11
115.889
21
-97.3248
0
LINE
8
BLACK
6
CONTINUOUS
10
115.889
20
-97.3248
11
116.122
21
-97.6119
0
LINE
8
BLACK
6
CONTINUOUS
10
116.122
20
-97.6119
11
116.383
21
-97.8732
0
LINE
8
BLACK
6
CONTINUOUS
10
116.383
20
-97.8732
11
116.67
21
-98.1057
0
LINE
8
BLACK
6
CONTINUOUS
10
116.67
20
-98.1057
11
116.98
21
-98.3069
0
LINE
8
BLACK
6
CONTINUOUS
10
116.98
20
-98.3069
11
117.309
21
-98.4747
0
LINE
8
BLACK
6
CONTINUOUS
10
117.309
20
-98.4747
11
117.654
21
-98.6071
0
LINE
8
BLACK
6
CONTINUOUS
10
117.654
20
-98.6071
11
118.011
21
-98.7027
0
LINE
8
BLACK
6
CONTINUOUS
10
118.011
20
-98.7027
11
118.376
21
-98.7605
0
LINE
8
BLACK
6
CONTINUOUS
10
118.376
20
-98.7605
11
118.745
21
-98.7798
0
LINE
8
BLACK
6
CONTINUOUS
10
118.745
20
-98.7798
11
119.114
21
-98.7605
0
LINE
8
BLACK
6
CONTINUOUS
10
119.114
20
-98.7605
11
119.479
21
-98.7027
0
LINE
8
BLACK
6
CONTINUOUS
10
119.479
20
-98.7027
11
119.836
21
-98.6071
0
LINE
8
BLACK
6
CONTINUOUS
10
119.836
20
-98.6071
11
120.181
21
-98.4747
0
LINE
8
BLACK
6
CONTINUOUS
10
120.181
20
-98.4747
11
120.51
21
-98.3069
0
LINE
8
BLACK
6
CONTINUOUS
10
120.51
20
-98.3069
11
120.82
21
-98.1057
0
LINE
8
BLACK
6
CONTINUOUS
10
120.82
20
-98.1057
11
121.107
21
-97.8732
0
LINE
8
BLACK
6
CONTINUOUS
10
121.107
20
-97.8732
11
121.368
21
-97.6119
0
LINE
8
BLACK
6
CONTINUOUS
10
121.368
20
-97.6119
11
121.601
21
-97.3248
0
LINE
8
BLACK
6
CONTINUOUS
10
121.601
20
-97.3248
11
121.802
21
-97.0149
0
LINE
8
BLACK
6
CONTINUOUS
10
121.802
20
-97.0149
11
121.97
21
-96.6857
0
LINE
8
BLACK
6
CONTINUOUS
10
121.97
20
-96.6857
11
122.102
21
-96.3408
0
LINE
8
BLACK
6
CONTINUOUS
10
122.102
20
-96.3408
11
122.198
21
-95.9839
0
LINE
8
BLACK
6
CONTINUOUS
10
122.198
20
-95.9839
11
122.256
21
-95.619
0
LINE
8
BLACK
6
CONTINUOUS
10
122.256
20
-95.619
11
122.275
21
-95.25
0
LINE
8
BLACK
6
CONTINUOUS
10
122.275
20
-95.25
11
122.256
21
-94.881
0
LINE
8
BLACK
6
CONTINUOUS
10
122.256
20
-94.881
11
122.198
21
-94.5161
0
LINE
8
BLACK
6
CONTINUOUS
10
122.198
20
-94.5161
11
122.102
21
-94.1592
0
LINE
8
BLACK
6
CONTINUOUS
10
122.102
20
-94.1592
11
121.97
21
-93.8143
0
LINE
8
BLACK
6
CONTINUOUS
10
121.97
20
-93.8143
11
121.802
21
-93.4851
0
LINE
8
BLACK
6
CONTINUOUS
10
121.802
20
-93.4851
11
121.601
21
-93.1752
0
LINE
8
BLACK
6
CONTINUOUS
10
121.601
20
-93.1752
11
121.368
21
-92.8881
0
LINE
8
BLACK
6
CONTINUOUS
10
121.368
20
-92.8881
11
121.107
21
-92.6268
0
LINE
8
BLACK
6
CONTINUOUS
10
121.107
20
-92.6268
11
120.82
21
-92.3943
0
LINE
8
BLACK
6
CONTINUOUS
10
120.82
20
-92.3943
11
120.51
21
-92.1931
0
LINE
8
BLACK
6
CONTINUOUS
10
120.51
20
-92.1931
11
120.181
21
-92.0253
0
LINE
8
BLACK
6
CONTINUOUS
10
120.181
20
-92.0253
11
119.836
21
-91.8929
0
LINE
8
BLACK
6
CONTINUOUS
10
119.836
20
-91.8929
11
119.479
21
-91.7973
0
LINE
8
BLACK
6
CONTINUOUS
10
119.479
20
-91.7973
11
119.114
21
-91.7395
0
LINE
8
BLACK
6
CONTINUOUS
10
119.114
20
-91.7395
11
118.745
21
-91.7202
0
LINE
8
BLACK
6
CONTINUOUS
10
118.745
20
-91.7202
11
118.376
21
-91.7395
0
LINE
8
BLACK
6
CONTINUOUS
10
118.376
20
-91.7395
11
118.011
21
-91.7973
0
LINE
8
BLACK
6
CONTINUOUS
10
118.011
20
-91.7973
11
117.654
21
-91.8929
0
LINE
8
BLACK
6
CONTINUOUS
10
117.654
20
-91.8929
11
117.309
21
-92.0253
0
LINE
8
BLACK
6
CONTINUOUS
10
117.309
20
-92.0253
11
116.98
21
-92.1931
0
LINE
8
BLACK
6
CONTINUOUS
10
116.98
20
-92.1931
11
116.67
21
-92.3943
0
LINE
8
BLACK
6
CONTINUOUS
10
116.67
20
-92.3943
11
116.383
21
-92.6268
0
LINE
8
BLACK
6
CONTINUOUS
10
116.383
20
-92.6268
11
116.122
21
-92.8881
0
LINE
8
BLACK
6
CONTINUOUS
10
116.122
20
-92.8881
11
115.889
21
-93.1752
0
LINE
8
BLACK
6
CONTINUOUS
10
115.889
20
-93.1752
11
115.688
21
-93.4851
0
LINE
8
BLACK
6
CONTINUOUS
10
115.688
20
-93.4851
11
115.52
21
-93.8143
0
LINE
8
BLACK
6
CONTINUOUS
10
115.52
20
-93.8143
11
115.388
21
-94.1592
0
LINE
8
BLACK
6
CONTINUOUS
10
115.388
20
-94.1592
11
115.292
21
-94.5161
0
LINE
8
BLACK
6
CONTINUOUS
10
115.292
20
-94.5161
11
115.234
21
-94.881
0
LINE
8
BLACK
6
CONTINUOUS
10
115.234
20
-94.881
11
115.215
21
-95.25
0
LINE
8
BLACK
6
CONTINUOUS
10
115.215
20
-95.25
11
115.234
21
-95.619
0
LINE
8
BLACK
6
CONTINUOUS
10
115.234
20
-95.619
11
115.292
21
-95.9839
0
LINE
8
BLACK
6
CONTINUOUS
10
143.634
20
-94.8646
11
143.696
21
-94.5269
0
LINE
8
BLACK
6
CONTINUOUS
10
143.696
20
-94.5269
11
143.795
21
-94.1983
0
LINE
8
BLACK
6
CONTINUOUS
10
143.795
20
-94.1983
11
143.931
21
-93.8827
0
LINE
8
BLACK
6
CONTINUOUS
10
143.931
20
-93.8827
11
144.1
21
-93.5842
0
LINE
8
BLACK
6
CONTINUOUS
10
144.1
20
-93.5842
11
144.302
21
-93.3065
0
LINE
8
BLACK
6
CONTINUOUS
10
144.302
20
-93.3065
11
144.534
21
-93.053
0
LINE
8
BLACK
6
CONTINUOUS
10
144.534
20
-93.053
11
144.792
21
-92.8269
0
LINE
8
BLACK
6
CONTINUOUS
10
144.792
20
-92.8269
11
145.074
21
-92.6309
0
LINE
8
BLACK
6
CONTINUOUS
10
145.074
20
-92.6309
11
145.376
21
-92.4677
0
LINE
8
BLACK
6
CONTINUOUS
10
145.376
20
-92.4677
11
145.694
21
-92.3391
0
LINE
8
BLACK
6
CONTINUOUS
10
145.694
20
-92.3391
11
146.025
21
-92.2467
0
LINE
8
BLACK
6
CONTINUOUS
10
146.025
20
-92.2467
11
146.364
21
-92.1918
0
LINE
8
BLACK
6
CONTINUOUS
10
146.364
20
-92.1918
11
146.706
21
-92.1751
0
LINE
8
BLACK
6
CONTINUOUS
10
146.706
20
-92.1751
11
147.049
21
-92.1966
0
LINE
8
BLACK
6
CONTINUOUS
10
147.049
20
-92.1966
11
147.387
21
-92.2562
0
LINE
8
BLACK
6
CONTINUOUS
10
147.387
20
-92.2562
11
147.717
21
-92.3532
0
LINE
8
BLACK
6
CONTINUOUS
10
147.717
20
-92.3532
11
148.033
21
-92.4862
0
LINE
8
BLACK
6
CONTINUOUS
10
148.033
20
-92.4862
11
148.333
21
-92.6537
0
LINE
8
BLACK
6
CONTINUOUS
10
148.333
20
-92.6537
11
148.612
21
-92.8535
0
LINE
8
BLACK
6
CONTINUOUS
10
148.612
20
-92.8535
11
148.867
21
-93.0832
0
LINE
8
BLACK
6
CONTINUOUS
10
148.867
20
-93.0832
11
149.095
21
-93.34
0
LINE
8
BLACK
6
CONTINUOUS
10
149.095
20
-93.34
11
149.293
21
-93.6205
0
LINE
8
BLACK
6
CONTINUOUS
10
149.293
20
-93.6205
11
149.458
21
-93.9213
0
LINE
8
BLACK
6
CONTINUOUS
10
149.458
20
-93.9213
11
149.589
21
-94.2387
0
LINE
8
BLACK
6
CONTINUOUS
10
149.589
20
-94.2387
11
149.684
21
-94.5687
0
LINE
8
BLACK
6
CONTINUOUS
10
149.684
20
-94.5687
11
149.741
21
-94.9072
0
LINE
8
BLACK
6
CONTINUOUS
10
149.741
20
-94.9072
11
149.76
21
-95.25
0
LINE
8
BLACK
6
CONTINUOUS
10
149.76
20
-95.25
11
149.759
21
-95.3359
0
LINE
8
BLACK
6
CONTINUOUS
10
149.759
20
-95.3359
11
149.73
21
-95.678
0
LINE
8
BLACK
6
CONTINUOUS
10
149.73
20
-95.678
11
149.663
21
-96.0147
0
LINE
8
BLACK
6
CONTINUOUS
10
149.663
20
-96.0147
11
149.56
21
-96.342
0
LINE
8
BLACK
6
CONTINUOUS
10
149.56
20
-96.342
11
149.42
21
-96.6556
0
LINE
8
BLACK
6
CONTINUOUS
10
149.42
20
-96.6556
11
149.246
21
-96.9517
0
LINE
8
BLACK
6
CONTINUOUS
10
149.246
20
-96.9517
11
149.041
21
-97.2266
0
LINE
8
BLACK
6
CONTINUOUS
10
149.041
20
-97.2266
11
148.806
21
-97.4768
0
LINE
8
BLACK
6
CONTINUOUS
10
148.806
20
-97.4768
11
148.544
21
-97.6993
0
LINE
8
BLACK
6
CONTINUOUS
10
148.544
20
-97.6993
11
148.26
21
-97.8913
0
LINE
8
BLACK
6
CONTINUOUS
10
148.26
20
-97.8913
11
147.955
21
-98.0504
0
LINE
8
BLACK
6
CONTINUOUS
10
147.955
20
-98.0504
11
147.635
21
-98.1745
0
LINE
8
BLACK
6
CONTINUOUS
10
147.635
20
-98.1745
11
147.303
21
-98.2622
0
LINE
8
BLACK
6
CONTINUOUS
10
147.303
20
-98.2622
11
146.964
21
-98.3123
0
LINE
8
BLACK
6
CONTINUOUS
10
146.964
20
-98.3123
11
146.621
21
-98.3243
0
LINE
8
BLACK
6
CONTINUOUS
10
146.621
20
-98.3243
11
146.278
21
-98.298
0
LINE
8
BLACK
6
CONTINUOUS
10
146.278
20
-98.298
11
145.941
21
-98.2337
0
LINE
8
BLACK
6
CONTINUOUS
10
145.941
20
-98.2337
11
145.613
21
-98.1321
0
LINE
8
BLACK
6
CONTINUOUS
10
145.613
20
-98.1321
11
145.299
21
-97.9947
0
LINE
8
BLACK
6
CONTINUOUS
10
145.299
20
-97.9947
11
145.001
21
-97.823
0
LINE
8
BLACK
6
CONTINUOUS
10
145.001
20
-97.823
11
144.725
21
-97.6193
0
LINE
8
BLACK
6
CONTINUOUS
10
144.725
20
-97.6193
11
144.473
21
-97.3861
0
LINE
8
BLACK
6
CONTINUOUS
10
144.473
20
-97.3861
11
144.249
21
-97.1262
0
LINE
8
BLACK
6
CONTINUOUS
10
144.249
20
-97.1262
11
144.055
21
-96.8429
0
LINE
8
BLACK
6
CONTINUOUS
10
144.055
20
-96.8429
11
143.894
21
-96.5398
0
LINE
8
BLACK
6
CONTINUOUS
10
143.894
20
-96.5398
11
143.767
21
-96.2206
0
LINE
8
BLACK
6
CONTINUOUS
10
143.767
20
-96.2206
11
143.677
21
-95.8893
0
LINE
8
BLACK
6
CONTINUOUS
10
143.677
20
-95.8893
11
143.625
21
-95.5501
0
LINE
8
BLACK
6
CONTINUOUS
10
143.625
20
-95.5501
11
143.61
21
-95.2077
0
LINE
8
BLACK
6
CONTINUOUS
10
143.61
20
-95.2077
11
143.61
21
-95.2071
0
LINE
8
BLACK
6
CONTINUOUS
10
143.61
20
-95.2071
11
143.634
21
-94.8646
0
LINE
8
BLACK
6
CONTINUOUS
10
143.721
20
-95.8799
11
143.81
21
-96.2063
0
LINE
8
BLACK
6
CONTINUOUS
10
143.81
20
-96.2063
11
143.935
21
-96.5208
0
LINE
8
BLACK
6
CONTINUOUS
10
143.935
20
-96.5208
11
144.093
21
-96.8195
0
LINE
8
BLACK
6
CONTINUOUS
10
144.093
20
-96.8195
11
144.285
21
-97.0986
0
LINE
8
BLACK
6
CONTINUOUS
10
144.285
20
-97.0986
11
144.506
21
-97.3547
0
LINE
8
BLACK
6
CONTINUOUS
10
144.506
20
-97.3547
11
144.754
21
-97.5845
0
LINE
8
BLACK
6
CONTINUOUS
10
144.754
20
-97.5845
11
145.026
21
-97.7852
0
LINE
8
BLACK
6
CONTINUOUS
10
145.026
20
-97.7852
11
145.319
21
-97.9543
0
LINE
8
BLACK
6
CONTINUOUS
10
145.319
20
-97.9543
11
145.629
21
-98.0897
0
LINE
8
BLACK
6
CONTINUOUS
10
145.629
20
-98.0897
11
145.952
21
-98.1898
0
LINE
8
BLACK
6
CONTINUOUS
10
145.952
20
-98.1898
11
146.284
21
-98.2532
0
LINE
8
BLACK
6
CONTINUOUS
10
146.284
20
-98.2532
11
146.622
21
-98.2791
0
LINE
8
BLACK
6
CONTINUOUS
10
146.622
20
-98.2791
11
146.96
21
-98.2673
0
LINE
8
BLACK
6
CONTINUOUS
10
146.96
20
-98.2673
11
147.294
21
-98.2179
0
LINE
8
BLACK
6
CONTINUOUS
10
147.294
20
-98.2179
11
147.621
21
-98.1315
0
LINE
8
BLACK
6
CONTINUOUS
10
147.621
20
-98.1315
11
147.937
21
-98.0092
0
LINE
8
BLACK
6
CONTINUOUS
10
147.937
20
-98.0092
11
148.236
21
-97.8524
0
LINE
8
BLACK
6
CONTINUOUS
10
148.236
20
-97.8524
11
148.517
21
-97.6633
0
LINE
8
BLACK
6
CONTINUOUS
10
148.517
20
-97.6633
11
148.774
21
-97.4441
0
LINE
8
BLACK
6
CONTINUOUS
10
148.774
20
-97.4441
11
149.006
21
-97.1975
0
LINE
8
BLACK
6
CONTINUOUS
10
149.006
20
-97.1975
11
149.209
21
-96.9266
0
LINE
8
BLACK
6
CONTINUOUS
10
149.209
20
-96.9266
11
149.38
21
-96.6349
0
LINE
8
BLACK
6
CONTINUOUS
10
149.38
20
-96.6349
11
149.517
21
-96.3259
0
LINE
8
BLACK
6
CONTINUOUS
10
149.517
20
-96.3259
11
149.62
21
-96.0035
0
LINE
8
BLACK
6
CONTINUOUS
10
149.62
20
-96.0035
11
149.685
21
-95.6717
0
LINE
8
BLACK
6
CONTINUOUS
10
149.685
20
-95.6717
11
149.714
21
-95.3346
0
LINE
8
BLACK
6
CONTINUOUS
10
149.714
20
-95.3346
11
149.715
21
-95.25
0
LINE
8
BLACK
6
CONTINUOUS
10
149.715
20
-95.25
11
149.696
21
-94.9123
0
LINE
8
BLACK
6
CONTINUOUS
10
149.696
20
-94.9123
11
149.639
21
-94.5788
0
LINE
8
BLACK
6
CONTINUOUS
10
149.639
20
-94.5788
11
149.546
21
-94.2536
0
LINE
8
BLACK
6
CONTINUOUS
10
149.546
20
-94.2536
11
149.417
21
-93.9409
0
LINE
8
BLACK
6
CONTINUOUS
10
149.417
20
-93.9409
11
149.254
21
-93.6445
0
LINE
8
BLACK
6
CONTINUOUS
10
149.254
20
-93.6445
11
149.059
21
-93.3681
0
LINE
8
BLACK
6
CONTINUOUS
10
149.059
20
-93.3681
11
148.835
21
-93.1151
0
LINE
8
BLACK
6
CONTINUOUS
10
148.835
20
-93.1151
11
148.583
21
-92.8888
0
LINE
8
BLACK
6
CONTINUOUS
10
148.583
20
-92.8888
11
148.308
21
-92.6919
0
LINE
8
BLACK
6
CONTINUOUS
10
148.308
20
-92.6919
11
148.013
21
-92.5269
0
LINE
8
BLACK
6
CONTINUOUS
10
148.013
20
-92.5269
11
147.701
21
-92.3958
0
LINE
8
BLACK
6
CONTINUOUS
10
147.701
20
-92.3958
11
147.377
21
-92.3003
0
LINE
8
BLACK
6
CONTINUOUS
10
147.377
20
-92.3003
11
147.044
21
-92.2415
0
LINE
8
BLACK
6
CONTINUOUS
10
147.044
20
-92.2415
11
146.706
21
-92.2203
0
LINE
8
BLACK
6
CONTINUOUS
10
146.706
20
-92.2203
11
146.368
21
-92.2368
0
LINE
8
BLACK
6
CONTINUOUS
10
146.368
20
-92.2368
11
146.034
21
-92.2909
0
LINE
8
BLACK
6
CONTINUOUS
10
146.034
20
-92.2909
11
145.709
21
-92.3819
0
LINE
8
BLACK
6
CONTINUOUS
10
145.709
20
-92.3819
11
145.395
21
-92.5086
0
LINE
8
BLACK
6
CONTINUOUS
10
145.395
20
-92.5086
11
145.097
21
-92.6695
0
LINE
8
BLACK
6
CONTINUOUS
10
145.097
20
-92.6695
11
144.82
21
-92.8625
0
LINE
8
BLACK
6
CONTINUOUS
10
144.82
20
-92.8625
11
144.565
21
-93.0853
0
LINE
8
BLACK
6
CONTINUOUS
10
144.565
20
-93.0853
11
144.337
21
-93.3351
0
LINE
8
BLACK
6
CONTINUOUS
10
144.337
20
-93.3351
11
144.138
21
-93.6088
0
LINE
8
BLACK
6
CONTINUOUS
10
144.138
20
-93.6088
11
143.971
21
-93.9029
0
LINE
8
BLACK
6
CONTINUOUS
10
143.971
20
-93.9029
11
143.838
21
-94.2138
0
LINE
8
BLACK
6
CONTINUOUS
10
143.838
20
-94.2138
11
143.74
21
-94.5376
0
LINE
8
BLACK
6
CONTINUOUS
10
143.74
20
-94.5376
11
143.679
21
-94.8703
0
LINE
8
BLACK
6
CONTINUOUS
10
143.679
20
-94.8703
11
143.656
21
-95.2077
0
LINE
8
BLACK
6
CONTINUOUS
10
143.656
20
-95.2077
11
143.67
21
-95.5457
0
LINE
8
BLACK
6
CONTINUOUS
10
143.67
20
-95.5457
11
143.721
21
-95.8799
0
LINE
8
BLACK
6
CONTINUOUS
10
87.3081
20
-72.9167
11
87.405
21
-72.5553
0
LINE
8
BLACK
6
CONTINUOUS
10
87.405
20
-72.5553
11
87.5391
21
-72.2059
0
LINE
8
BLACK
6
CONTINUOUS
10
87.5391
20
-72.2059
11
87.709
21
-71.8725
0
LINE
8
BLACK
6
CONTINUOUS
10
87.709
20
-71.8725
11
87.9128
21
-71.5587
0
LINE
8
BLACK
6
CONTINUOUS
10
87.9128
20
-71.5587
11
88.1483
21
-71.2679
0
LINE
8
BLACK
6
CONTINUOUS
10
88.1483
20
-71.2679
11
88.4129
21
-71.0033
0
LINE
8
BLACK
6
CONTINUOUS
10
88.4129
20
-71.0033
11
88.7037
21
-70.7678
0
LINE
8
BLACK
6
CONTINUOUS
10
88.7037
20
-70.7678
11
89.0175
21
-70.564
0
LINE
8
BLACK
6
CONTINUOUS
10
89.0175
20
-70.564
11
89.3509
21
-70.3941
0
LINE
8
BLACK
6
CONTINUOUS
10
89.3509
20
-70.3941
11
89.7003
21
-70.26
0
LINE
8
BLACK
6
CONTINUOUS
10
89.7003
20
-70.26
11
90.0617
21
-70.1631
0
LINE
8
BLACK
6
CONTINUOUS
10
90.0617
20
-70.1631
11
90.4313
21
-70.1046
0
LINE
8
BLACK
6
CONTINUOUS
10
90.4313
20
-70.1046
11
90.805
21
-70.085
0
LINE
8
BLACK
6
CONTINUOUS
10
90.805
20
-70.085
11
91.1787
21
-70.1046
0
LINE
8
BLACK
6
CONTINUOUS
10
91.1787
20
-70.1046
11
91.5483
21
-70.1631
0
LINE
8
BLACK
6
CONTINUOUS
10
91.5483
20
-70.1631
11
91.9097
21
-70.26
0
LINE
8
BLACK
6
CONTINUOUS
10
91.9097
20
-70.26
11
92.2591
21
-70.3941
0
LINE
8
BLACK
6
CONTINUOUS
10
92.2591
20
-70.3941
11
92.5925
21
-70.564
0
LINE
8
BLACK
6
CONTINUOUS
10
92.5925
20
-70.564
11
92.9063
21
-70.7678
0
LINE
8
BLACK
6
CONTINUOUS
10
92.9063
20
-70.7678
11
93.1971
21
-71.0033
0
LINE
8
BLACK
6
CONTINUOUS
10
93.1971
20
-71.0033
11
93.4617
21
-71.2679
0
LINE
8
BLACK
6
CONTINUOUS
10
93.4617
20
-71.2679
11
93.6972
21
-71.5587
0
LINE
8
BLACK
6
CONTINUOUS
10
93.6972
20
-71.5587
11
93.901
21
-71.8725
0
LINE
8
BLACK
6
CONTINUOUS
10
93.901
20
-71.8725
11
94.0709
21
-72.2059
0
LINE
8
BLACK
6
CONTINUOUS
10
94.0709
20
-72.2059
11
94.205
21
-72.5553
0
LINE
8
BLACK
6
CONTINUOUS
10
94.205
20
-72.5553
11
94.3019
21
-72.9167
0
LINE
8
BLACK
6
CONTINUOUS
10
94.3019
20
-72.9167
11
94.3604
21
-73.2863
0
LINE
8
BLACK
6
CONTINUOUS
10
94.3604
20
-73.2863
11
94.38
21
-73.66
0
LINE
8
BLACK
6
CONTINUOUS
10
94.38
20
-73.66
11
94.3604
21
-74.0337
0
LINE
8
BLACK
6
CONTINUOUS
10
94.3604
20
-74.0337
11
94.3019
21
-74.4033
0
LINE
8
BLACK
6
CONTINUOUS
10
94.3019
20
-74.4033
11
94.205
21
-74.7647
0
LINE
8
BLACK
6
CONTINUOUS
10
94.205
20
-74.7647
11
94.0709
21
-75.1141
0
LINE
8
BLACK
6
CONTINUOUS
10
94.0709
20
-75.1141
11
93.901
21
-75.4475
0
LINE
8
BLACK
6
CONTINUOUS
10
93.901
20
-75.4475
11
93.6972
21
-75.7613
0
LINE
8
BLACK
6
CONTINUOUS
10
93.6972
20
-75.7613
11
93.4617
21
-76.0521
0
LINE
8
BLACK
6
CONTINUOUS
10
93.4617
20
-76.0521
11
93.1971
21
-76.3167
0
LINE
8
BLACK
6
CONTINUOUS
10
93.1971
20
-76.3167
11
92.9063
21
-76.5522
0
LINE
8
BLACK
6
CONTINUOUS
10
92.9063
20
-76.5522
11
92.5925
21
-76.756
0
LINE
8
BLACK
6
CONTINUOUS
10
92.5925
20
-76.756
11
92.2591
21
-76.9259
0
LINE
8
BLACK
6
CONTINUOUS
10
92.2591
20
-76.9259
11
91.9097
21
-77.06
0
LINE
8
BLACK
6
CONTINUOUS
10
91.9097
20
-77.06
11
91.5483
21
-77.1569
0
LINE
8
BLACK
6
CONTINUOUS
10
91.5483
20
-77.1569
11
91.1787
21
-77.2154
0
LINE
8
BLACK
6
CONTINUOUS
10
91.1787
20
-77.2154
11
90.805
21
-77.235
0
LINE
8
BLACK
6
CONTINUOUS
10
90.805
20
-77.235
11
90.4313
21
-77.2154
0
LINE
8
BLACK
6
CONTINUOUS
10
90.4313
20
-77.2154
11
90.0617
21
-77.1569
0
LINE
8
BLACK
6
CONTINUOUS
10
90.0617
20
-77.1569
11
89.7003
21
-77.06
0
LINE
8
BLACK
6
CONTINUOUS
10
89.7003
20
-77.06
11
89.3509
21
-76.9259
0
LINE
8
BLACK
6
CONTINUOUS
10
89.3509
20
-76.9259
11
89.0175
21
-76.756
0
LINE
8
BLACK
6
CONTINUOUS
10
89.0175
20
-76.756
11
88.7037
21
-76.5522
0
LINE
8
BLACK
6
CONTINUOUS
10
88.7037
20
-76.5522
11
88.4129
21
-76.3167
0
LINE
8
BLACK
6
CONTINUOUS
10
88.4129
20
-76.3167
11
88.1483
21
-76.0521
0
LINE
8
BLACK
6
CONTINUOUS
10
88.1483
20
-76.0521
11
87.9128
21
-75.7613
0
LINE
8
BLACK
6
CONTINUOUS
10
87.9128
20
-75.7613
11
87.709
21
-75.4475
0
LINE
8
BLACK
6
CONTINUOUS
10
87.709
20
-75.4475
11
87.5391
21
-75.1141
0
LINE
8
BLACK
6
CONTINUOUS
10
87.5391
20
-75.1141
11
87.405
21
-74.7647
0
LINE
8
BLACK
6
CONTINUOUS
10
87.405
20
-74.7647
11
87.3081
21
-74.4033
0
LINE
8
BLACK
6
CONTINUOUS
10
87.3081
20
-74.4033
11
87.2496
21
-74.0337
0
LINE
8
BLACK
6
CONTINUOUS
10
87.2496
20
-74.0337
11
87.23
21
-73.66
0
LINE
8
BLACK
6
CONTINUOUS
10
87.23
20
-73.66
11
87.2496
21
-73.2863
0
LINE
8
BLACK
6
CONTINUOUS
10
87.2496
20
-73.2863
11
87.3081
21
-72.9167
0
LINE
8
BLACK
6
CONTINUOUS
10
87.3523
20
-74.3939
11
87.4479
21
-74.7508
0
LINE
8
BLACK
6
CONTINUOUS
10
87.4479
20
-74.7508
11
87.5803
21
-75.0957
0
LINE
8
BLACK
6
CONTINUOUS
10
87.5803
20
-75.0957
11
87.7481
21
-75.4249
0
LINE
8
BLACK
6
CONTINUOUS
10
87.7481
20
-75.4249
11
87.9493
21
-75.7348
0
LINE
8
BLACK
6
CONTINUOUS
10
87.9493
20
-75.7348
11
88.1818
21
-76.0219
0
LINE
8
BLACK
6
CONTINUOUS
10
88.1818
20
-76.0219
11
88.4431
21
-76.2832
0
LINE
8
BLACK
6
CONTINUOUS
10
88.4431
20
-76.2832
11
88.7302
21
-76.5157
0
LINE
8
BLACK
6
CONTINUOUS
10
88.7302
20
-76.5157
11
89.0401
21
-76.7169
0
LINE
8
BLACK
6
CONTINUOUS
10
89.0401
20
-76.7169
11
89.3693
21
-76.8847
0
LINE
8
BLACK
6
CONTINUOUS
10
89.3693
20
-76.8847
11
89.7142
21
-77.0171
0
LINE
8
BLACK
6
CONTINUOUS
10
89.7142
20
-77.0171
11
90.0711
21
-77.1127
0
LINE
8
BLACK
6
CONTINUOUS
10
90.0711
20
-77.1127
11
90.436
21
-77.1705
0
LINE
8
BLACK
6
CONTINUOUS
10
90.436
20
-77.1705
11
90.805
21
-77.1898
0
LINE
8
BLACK
6
CONTINUOUS
10
90.805
20
-77.1898
11
91.174
21
-77.1705
0
LINE
8
BLACK
6
CONTINUOUS
10
91.174
20
-77.1705
11
91.5389
21
-77.1127
0
LINE
8
BLACK
6
CONTINUOUS
10
91.5389
20
-77.1127
11
91.8958
21
-77.0171
0
LINE
8
BLACK
6
CONTINUOUS
10
91.8958
20
-77.0171
11
92.2407
21
-76.8847
0
LINE
8
BLACK
6
CONTINUOUS
10
92.2407
20
-76.8847
11
92.5699
21
-76.7169
0
LINE
8
BLACK
6
CONTINUOUS
10
92.5699
20
-76.7169
11
92.8798
21
-76.5157
0
LINE
8
BLACK
6
CONTINUOUS
10
92.8798
20
-76.5157
11
93.1669
21
-76.2832
0
LINE
8
BLACK
6
CONTINUOUS
10
93.1669
20
-76.2832
11
93.4282
21
-76.0219
0
LINE
8
BLACK
6
CONTINUOUS
10
93.4282
20
-76.0219
11
93.6607
21
-75.7348
0
LINE
8
BLACK
6
CONTINUOUS
10
93.6607
20
-75.7348
11
93.8619
21
-75.4249
0
LINE
8
BLACK
6
CONTINUOUS
10
93.8619
20
-75.4249
11
94.0297
21
-75.0957
0
LINE
8
BLACK
6
CONTINUOUS
10
94.0297
20
-75.0957
11
94.1621
21
-74.7508
0
LINE
8
BLACK
6
CONTINUOUS
10
94.1621
20
-74.7508
11
94.2577
21
-74.3939
0
LINE
8
BLACK
6
CONTINUOUS
10
94.2577
20
-74.3939
11
94.3155
21
-74.029
0
LINE
8
BLACK
6
CONTINUOUS
10
94.3155
20
-74.029
11
94.3348
21
-73.66
0
LINE
8
BLACK
6
CONTINUOUS
10
94.3348
20
-73.66
11
94.3155
21
-73.291
0
LINE
8
BLACK
6
CONTINUOUS
10
94.3155
20
-73.291
11
94.2577
21
-72.9261
0
LINE
8
BLACK
6
CONTINUOUS
10
94.2577
20
-72.9261
11
94.1621
21
-72.5692
0
LINE
8
BLACK
6
CONTINUOUS
10
94.1621
20
-72.5692
11
94.0297
21
-72.2243
0
LINE
8
BLACK
6
CONTINUOUS
10
94.0297
20
-72.2243
11
93.8619
21
-71.8951
0
LINE
8
BLACK
6
CONTINUOUS
10
93.8619
20
-71.8951
11
93.6607
21
-71.5852
0
LINE
8
BLACK
6
CONTINUOUS
10
93.6607
20
-71.5852
11
93.4282
21
-71.2981
0
LINE
8
BLACK
6
CONTINUOUS
10
93.4282
20
-71.2981
11
93.1669
21
-71.0368
0
LINE
8
BLACK
6
CONTINUOUS
10
93.1669
20
-71.0368
11
92.8798
21
-70.8043
0
LINE
8
BLACK
6
CONTINUOUS
10
92.8798
20
-70.8043
11
92.5699
21
-70.6031
0
LINE
8
BLACK
6
CONTINUOUS
10
92.5699
20
-70.6031
11
92.2407
21
-70.4353
0
LINE
8
BLACK
6
CONTINUOUS
10
92.2407
20
-70.4353
11
91.8958
21
-70.3029
0
LINE
8
BLACK
6
CONTINUOUS
10
91.8958
20
-70.3029
11
91.5389
21
-70.2073
0
LINE
8
BLACK
6
CONTINUOUS
10
91.5389
20
-70.2073
11
91.174
21
-70.1495
0
LINE
8
BLACK
6
CONTINUOUS
10
91.174
20
-70.1495
11
90.805
21
-70.1302
0
LINE
8
BLACK
6
CONTINUOUS
10
90.805
20
-70.1302
11
90.436
21
-70.1495
0
LINE
8
BLACK
6
CONTINUOUS
10
90.436
20
-70.1495
11
90.0711
21
-70.2073
0
LINE
8
BLACK
6
CONTINUOUS
10
90.0711
20
-70.2073
11
89.7142
21
-70.3029
0
LINE
8
BLACK
6
CONTINUOUS
10
89.7142
20
-70.3029
11
89.3693
21
-70.4353
0
LINE
8
BLACK
6
CONTINUOUS
10
89.3693
20
-70.4353
11
89.0401
21
-70.6031
0
LINE
8
BLACK
6
CONTINUOUS
10
89.0401
20
-70.6031
11
88.7302
21
-70.8043
0
LINE
8
BLACK
6
CONTINUOUS
10
88.7302
20
-70.8043
11
88.4431
21
-71.0368
0
LINE
8
BLACK
6
CONTINUOUS
10
88.4431
20
-71.0368
11
88.1818
21
-71.2981
0
LINE
8
BLACK
6
CONTINUOUS
10
88.1818
20
-71.2981
11
87.9493
21
-71.5852
0
LINE
8
BLACK
6
CONTINUOUS
10
87.9493
20
-71.5852
11
87.7481
21
-71.8951
0
LINE
8
BLACK
6
CONTINUOUS
10
87.7481
20
-71.8951
11
87.5803
21
-72.2243
0
LINE
8
BLACK
6
CONTINUOUS
10
87.5803
20
-72.2243
11
87.4479
21
-72.5692
0
LINE
8
BLACK
6
CONTINUOUS
10
87.4479
20
-72.5692
11
87.3523
21
-72.9261
0
LINE
8
BLACK
6
CONTINUOUS
10
87.3523
20
-72.9261
11
87.2945
21
-73.291
0
LINE
8
BLACK
6
CONTINUOUS
10
87.2945
20
-73.291
11
87.2752
21
-73.66
0
LINE
8
BLACK
6
CONTINUOUS
10
87.2752
20
-73.66
11
87.2945
21
-74.029
0
LINE
8
BLACK
6
CONTINUOUS
10
87.2945
20
-74.029
11
87.3523
21
-74.3939
0
LINE
8
BLACK
6
CONTINUOUS
10
169.858
20
-72.9167
11
169.955
21
-72.5553
0
LINE
8
BLACK
6
CONTINUOUS
10
169.955
20
-72.5553
11
170.089
21
-72.2059
0
LINE
8
BLACK
6
CONTINUOUS
10
170.089
20
-72.2059
11
170.259
21
-71.8725
0
LINE
8
BLACK
6
CONTINUOUS
10
170.259
20
-71.8725
11
170.463
21
-71.5587
0
LINE
8
BLACK
6
CONTINUOUS
10
170.463
20
-71.5587
11
170.698
21
-71.2679
0
LINE
8
BLACK
6
CONTINUOUS
10
170.698
20
-71.2679
11
170.963
21
-71.0033
0
LINE
8
BLACK
6
CONTINUOUS
10
170.963
20
-71.0033
11
171.254
21
-70.7678
0
LINE
8
BLACK
6
CONTINUOUS
10
171.254
20
-70.7678
11
171.567
21
-70.564
0
LINE
8
BLACK
6
CONTINUOUS
10
171.567
20
-70.564
11
171.901
21
-70.3941
0
LINE
8
BLACK
6
CONTINUOUS
10
171.901
20
-70.3941
11
172.25
21
-70.26
0
LINE
8
BLACK
6
CONTINUOUS
10
172.25
20
-70.26
11
172.612
21
-70.1631
0
LINE
8
BLACK
6
CONTINUOUS
10
172.612
20
-70.1631
11
172.981
21
-70.1046
0
LINE
8
BLACK
6
CONTINUOUS
10
172.981
20
-70.1046
11
173.355
21
-70.085
0
LINE
8
BLACK
6
CONTINUOUS
10
173.355
20
-70.085
11
173.729
21
-70.1046
0
LINE
8
BLACK
6
CONTINUOUS
10
173.729
20
-70.1046
11
174.098
21
-70.1631
0
LINE
8
BLACK
6
CONTINUOUS
10
174.098
20
-70.1631
11
174.46
21
-70.26
0
LINE
8
BLACK
6
CONTINUOUS
10
174.46
20
-70.26
11
174.809
21
-70.3941
0
LINE
8
BLACK
6
CONTINUOUS
10
174.809
20
-70.3941
11
175.142
21
-70.564
0
LINE
8
BLACK
6
CONTINUOUS
10
175.142
20
-70.564
11
175.456
21
-70.7678
0
LINE
8
BLACK
6
CONTINUOUS
10
175.456
20
-70.7678
11
175.747
21
-71.0033
0
LINE
8
BLACK
6
CONTINUOUS
10
175.747
20
-71.0033
11
176.012
21
-71.2679
0
LINE
8
BLACK
6
CONTINUOUS
10
176.012
20
-71.2679
11
176.247
21
-71.5587
0
LINE
8
BLACK
6
CONTINUOUS
10
176.247
20
-71.5587
11
176.451
21
-71.8725
0
LINE
8
BLACK
6
CONTINUOUS
10
176.451
20
-71.8725
11
176.621
21
-72.2059
0
LINE
8
BLACK
6
CONTINUOUS
10
176.621
20
-72.2059
11
176.755
21
-72.5553
0
LINE
8
BLACK
6
CONTINUOUS
10
176.755
20
-72.5553
11
176.852
21
-72.9167
0
LINE
8
BLACK
6
CONTINUOUS
10
176.852
20
-72.9167
11
176.91
21
-73.2863
0
LINE
8
BLACK
6
CONTINUOUS
10
176.91
20
-73.2863
11
176.93
21
-73.66
0
LINE
8
BLACK
6
CONTINUOUS
10
176.93
20
-73.66
11
176.91
21
-74.0337
0
LINE
8
BLACK
6
CONTINUOUS
10
176.91
20
-74.0337
11
176.852
21
-74.4033
0
LINE
8
BLACK
6
CONTINUOUS
10
176.852
20
-74.4033
11
176.755
21
-74.7647
0
LINE
8
BLACK
6
CONTINUOUS
10
176.755
20
-74.7647
11
176.621
21
-75.1141
0
LINE
8
BLACK
6
CONTINUOUS
10
176.621
20
-75.1141
11
176.451
21
-75.4475
0
LINE
8
BLACK
6
CONTINUOUS
10
176.451
20
-75.4475
11
176.247
21
-75.7613
0
LINE
8
BLACK
6
CONTINUOUS
10
176.247
20
-75.7613
11
176.012
21
-76.0521
0
LINE
8
BLACK
6
CONTINUOUS
10
176.012
20
-76.0521
11
175.747
21
-76.3167
0
LINE
8
BLACK
6
CONTINUOUS
10
175.747
20
-76.3167
11
175.456
21
-76.5522
0
LINE
8
BLACK
6
CONTINUOUS
10
175.456
20
-76.5522
11
175.142
21
-76.756
0
LINE
8
BLACK
6
CONTINUOUS
10
175.142
20
-76.756
11
174.809
21
-76.9259
0
LINE
8
BLACK
6
CONTINUOUS
10
174.809
20
-76.9259
11
174.46
21
-77.06
0
LINE
8
BLACK
6
CONTINUOUS
10
174.46
20
-77.06
11
174.098
21
-77.1569
0
LINE
8
BLACK
6
CONTINUOUS
10
174.098
20
-77.1569
11
173.729
21
-77.2154
0
LINE
8
BLACK
6
CONTINUOUS
10
173.729
20
-77.2154
11
173.355
21
-77.235
0
LINE
8
BLACK
6
CONTINUOUS
10
173.355
20
-77.235
11
172.981
21
-77.2154
0
LINE
8
BLACK
6
CONTINUOUS
10
172.981
20
-77.2154
11
172.612
21
-77.1569
0
LINE
8
BLACK
6
CONTINUOUS
10
172.612
20
-77.1569
11
172.25
21
-77.06
0
LINE
8
BLACK
6
CONTINUOUS
10
172.25
20
-77.06
11
171.901
21
-76.9259
0
LINE
8
BLACK
6
CONTINUOUS
10
171.901
20
-76.9259
11
171.567
21
-76.756
0
LINE
8
BLACK
6
CONTINUOUS
10
171.567
20
-76.756
11
171.254
21
-76.5522
0
LINE
8
BLACK
6
CONTINUOUS
10
171.254
20
-76.5522
11
170.963
21
-76.3167
0
LINE
8
BLACK
6
CONTINUOUS
10
170.963
20
-76.3167
11
170.698
21
-76.0521
0
LINE
8
BLACK
6
CONTINUOUS
10
170.698
20
-76.0521
11
170.463
21
-75.7613
0
LINE
8
BLACK
6
CONTINUOUS
10
170.463
20
-75.7613
11
170.259
21
-75.4475
0
LINE
8
BLACK
6
CONTINUOUS
10
170.259
20
-75.4475
11
170.089
21
-75.1141
0
LINE
8
BLACK
6
CONTINUOUS
10
170.089
20
-75.1141
11
169.955
21
-74.7647
0
LINE
8
BLACK
6
CONTINUOUS
10
169.955
20
-74.7647
11
169.858
21
-74.4033
0
LINE
8
BLACK
6
CONTINUOUS
10
169.858
20
-74.4033
11
169.8
21
-74.0337
0
LINE
8
BLACK
6
CONTINUOUS
10
169.8
20
-74.0337
11
169.78
21
-73.66
0
LINE
8
BLACK
6
CONTINUOUS
10
169.78
20
-73.66
11
169.8
21
-73.2863
0
LINE
8
BLACK
6
CONTINUOUS
10
169.8
20
-73.2863
11
169.858
21
-72.9167
0
LINE
8
BLACK
6
CONTINUOUS
10
169.902
20
-74.3939
11
169.998
21
-74.7508
0
LINE
8
BLACK
6
CONTINUOUS
10
169.998
20
-74.7508
11
170.13
21
-75.0957
0
LINE
8
BLACK
6
CONTINUOUS
10
170.13
20
-75.0957
11
170.298
21
-75.4249
0
LINE
8
BLACK
6
CONTINUOUS
10
170.298
20
-75.4249
11
170.499
21
-75.7348
0
LINE
8
BLACK
6
CONTINUOUS
10
170.499
20
-75.7348
11
170.732
21
-76.0219
0
LINE
8
BLACK
6
CONTINUOUS
10
170.732
20
-76.0219
11
170.993
21
-76.2832
0
LINE
8
BLACK
6
CONTINUOUS
10
170.993
20
-76.2832
11
171.28
21
-76.5157
0
LINE
8
BLACK
6
CONTINUOUS
10
171.28
20
-76.5157
11
171.59
21
-76.7169
0
LINE
8
BLACK
6
CONTINUOUS
10
171.59
20
-76.7169
11
171.919
21
-76.8847
0
LINE
8
BLACK
6
CONTINUOUS
10
171.919
20
-76.8847
11
172.264
21
-77.0171
0
LINE
8
BLACK
6
CONTINUOUS
10
172.264
20
-77.0171
11
172.621
21
-77.1127
0
LINE
8
BLACK
6
CONTINUOUS
10
172.621
20
-77.1127
11
172.986
21
-77.1705
0
LINE
8
BLACK
6
CONTINUOUS
10
172.986
20
-77.1705
11
173.355
21
-77.1898
0
LINE
8
BLACK
6
CONTINUOUS
10
173.355
20
-77.1898
11
173.724
21
-77.1705
0
LINE
8
BLACK
6
CONTINUOUS
10
173.724
20
-77.1705
11
174.089
21
-77.1127
0
LINE
8
BLACK
6
CONTINUOUS
10
174.089
20
-77.1127
11
174.446
21
-77.0171
0
LINE
8
BLACK
6
CONTINUOUS
10
174.446
20
-77.0171
11
174.791
21
-76.8847
0
LINE
8
BLACK
6
CONTINUOUS
10
174.791
20
-76.8847
11
175.12
21
-76.7169
0
LINE
8
BLACK
6
CONTINUOUS
10
175.12
20
-76.7169
11
175.43
21
-76.5157
0
LINE
8
BLACK
6
CONTINUOUS
10
175.43
20
-76.5157
11
175.717
21
-76.2832
0
LINE
8
BLACK
6
CONTINUOUS
10
175.717
20
-76.2832
11
175.978
21
-76.0219
0
LINE
8
BLACK
6
CONTINUOUS
10
175.978
20
-76.0219
11
176.211
21
-75.7348
0
LINE
8
BLACK
6
CONTINUOUS
10
176.211
20
-75.7348
11
176.412
21
-75.4249
0
LINE
8
BLACK
6
CONTINUOUS
10
176.412
20
-75.4249
11
176.58
21
-75.0957
0
LINE
8
BLACK
6
CONTINUOUS
10
176.58
20
-75.0957
11
176.712
21
-74.7508
0
LINE
8
BLACK
6
CONTINUOUS
10
176.712
20
-74.7508
11
176.808
21
-74.3939
0
LINE
8
BLACK
6
CONTINUOUS
10
176.808
20
-74.3939
11
176.866
21
-74.029
0
LINE
8
BLACK
6
CONTINUOUS
10
176.866
20
-74.029
11
176.885
21
-73.66
0
LINE
8
BLACK
6
CONTINUOUS
10
176.885
20
-73.66
11
176.866
21
-73.291
0
LINE
8
BLACK
6
CONTINUOUS
10
176.866
20
-73.291
11
176.808
21
-72.9261
0
LINE
8
BLACK
6
CONTINUOUS
10
176.808
20
-72.9261
11
176.712
21
-72.5692
0
LINE
8
BLACK
6
CONTINUOUS
10
176.712
20
-72.5692
11
176.58
21
-72.2243
0
LINE
8
BLACK
6
CONTINUOUS
10
176.58
20
-72.2243
11
176.412
21
-71.8951
0
LINE
8
BLACK
6
CONTINUOUS
10
176.412
20
-71.8951
11
176.211
21
-71.5852
0
LINE
8
BLACK
6
CONTINUOUS
10
176.211
20
-71.5852
11
175.978
21
-71.2981
0
LINE
8
BLACK
6
CONTINUOUS
10
175.978
20
-71.2981
11
175.717
21
-71.0368
0
LINE
8
BLACK
6
CONTINUOUS
10
175.717
20
-71.0368
11
175.43
21
-70.8043
0
LINE
8
BLACK
6
CONTINUOUS
10
175.43
20
-70.8043
11
175.12
21
-70.6031
0
LINE
8
BLACK
6
CONTINUOUS
10
175.12
20
-70.6031
11
174.791
21
-70.4353
0
LINE
8
BLACK
6
CONTINUOUS
10
174.791
20
-70.4353
11
174.446
21
-70.3029
0
LINE
8
BLACK
6
CONTINUOUS
10
174.446
20
-70.3029
11
174.089
21
-70.2073
0
LINE
8
BLACK
6
CONTINUOUS
10
174.089
20
-70.2073
11
173.724
21
-70.1495
0
LINE
8
BLACK
6
CONTINUOUS
10
173.724
20
-70.1495
11
173.355
21
-70.1302
0
LINE
8
BLACK
6
CONTINUOUS
10
173.355
20
-70.1302
11
172.986
21
-70.1495
0
LINE
8
BLACK
6
CONTINUOUS
10
172.986
20
-70.1495
11
172.621
21
-70.2073
0
LINE
8
BLACK
6
CONTINUOUS
10
172.621
20
-70.2073
11
172.264
21
-70.3029
0
LINE
8
BLACK
6
CONTINUOUS
10
172.264
20
-70.3029
11
171.919
21
-70.4353
0
LINE
8
BLACK
6
CONTINUOUS
10
171.919
20
-70.4353
11
171.59
21
-70.6031
0
LINE
8
BLACK
6
CONTINUOUS
10
171.59
20
-70.6031
11
171.28
21
-70.8043
0
LINE
8
BLACK
6
CONTINUOUS
10
171.28
20
-70.8043
11
170.993
21
-71.0368
0
LINE
8
BLACK
6
CONTINUOUS
10
170.993
20
-71.0368
11
170.732
21
-71.2981
0
LINE
8
BLACK
6
CONTINUOUS
10
170.732
20
-71.2981
11
170.499
21
-71.5852
0
LINE
8
BLACK
6
CONTINUOUS
10
170.499
20
-71.5852
11
170.298
21
-71.8951
0
LINE
8
BLACK
6
CONTINUOUS
10
170.298
20
-71.8951
11
170.13
21
-72.2243
0
LINE
8
BLACK
6
CONTINUOUS
10
170.13
20
-72.2243
11
169.998
21
-72.5692
0
LINE
8
BLACK
6
CONTINUOUS
10
169.998
20
-72.5692
11
169.902
21
-72.9261
0
LINE
8
BLACK
6
CONTINUOUS
10
169.902
20
-72.9261
11
169.844
21
-73.291
0
LINE
8
BLACK
6
CONTINUOUS
10
169.844
20
-73.291
11
169.825
21
-73.66
0
LINE
8
BLACK
6
CONTINUOUS
10
169.825
20
-73.66
11
169.844
21
-74.029
0
LINE
8
BLACK
6
CONTINUOUS
10
169.844
20
-74.029
11
169.902
21
-74.3939
0
LINE
8
BLACK
6
CONTINUOUS
10
115.248
20
-72.9167
11
115.345
21
-72.5553
0
LINE
8
BLACK
6
CONTINUOUS
10
115.345
20
-72.5553
11
115.479
21
-72.2059
0
LINE
8
BLACK
6
CONTINUOUS
10
115.479
20
-72.2059
11
115.649
21
-71.8725
0
LINE
8
BLACK
6
CONTINUOUS
10
115.649
20
-71.8725
11
115.853
21
-71.5587
0
LINE
8
BLACK
6
CONTINUOUS
10
115.853
20
-71.5587
11
116.088
21
-71.2679
0
LINE
8
BLACK
6
CONTINUOUS
10
116.088
20
-71.2679
11
116.353
21
-71.0033
0
LINE
8
BLACK
6
CONTINUOUS
10
116.353
20
-71.0033
11
116.644
21
-70.7678
0
LINE
8
BLACK
6
CONTINUOUS
10
116.644
20
-70.7678
11
116.957
21
-70.564
0
LINE
8
BLACK
6
CONTINUOUS
10
116.957
20
-70.564
11
117.291
21
-70.3941
0
LINE
8
BLACK
6
CONTINUOUS
10
117.291
20
-70.3941
11
117.64
21
-70.26
0
LINE
8
BLACK
6
CONTINUOUS
10
117.64
20
-70.26
11
118.002
21
-70.1631
0
LINE
8
BLACK
6
CONTINUOUS
10
118.002
20
-70.1631
11
118.371
21
-70.1046
0
LINE
8
BLACK
6
CONTINUOUS
10
118.371
20
-70.1046
11
118.745
21
-70.085
0
LINE
8
BLACK
6
CONTINUOUS
10
118.745
20
-70.085
11
119.119
21
-70.1046
0
LINE
8
BLACK
6
CONTINUOUS
10
119.119
20
-70.1046
11
119.488
21
-70.1631
0
LINE
8
BLACK
6
CONTINUOUS
10
119.488
20
-70.1631
11
119.85
21
-70.26
0
LINE
8
BLACK
6
CONTINUOUS
10
119.85
20
-70.26
11
120.199
21
-70.3941
0
LINE
8
BLACK
6
CONTINUOUS
10
120.199
20
-70.3941
11
120.532
21
-70.564
0
LINE
8
BLACK
6
CONTINUOUS
10
120.532
20
-70.564
11
120.846
21
-70.7678
0
LINE
8
BLACK
6
CONTINUOUS
10
120.846
20
-70.7678
11
121.137
21
-71.0033
0
LINE
8
BLACK
6
CONTINUOUS
10
121.137
20
-71.0033
11
121.402
21
-71.2679
0
LINE
8
BLACK
6
CONTINUOUS
10
121.402
20
-71.2679
11
121.637
21
-71.5587
0
LINE
8
BLACK
6
CONTINUOUS
10
121.637
20
-71.5587
11
121.841
21
-71.8725
0
LINE
8
BLACK
6
CONTINUOUS
10
121.841
20
-71.8725
11
122.011
21
-72.2059
0
LINE
8
BLACK
6
CONTINUOUS
10
122.011
20
-72.2059
11
122.145
21
-72.5553
0
LINE
8
BLACK
6
CONTINUOUS
10
122.145
20
-72.5553
11
122.242
21
-72.9167
0
LINE
8
BLACK
6
CONTINUOUS
10
122.242
20
-72.9167
11
122.3
21
-73.2863
0
LINE
8
BLACK
6
CONTINUOUS
10
122.3
20
-73.2863
11
122.32
21
-73.66
0
LINE
8
BLACK
6
CONTINUOUS
10
122.32
20
-73.66
11
122.3
21
-74.0337
0
LINE
8
BLACK
6
CONTINUOUS
10
122.3
20
-74.0337
11
122.242
21
-74.4033
0
LINE
8
BLACK
6
CONTINUOUS
10
122.242
20
-74.4033
11
122.145
21
-74.7647
0
LINE
8
BLACK
6
CONTINUOUS
10
122.145
20
-74.7647
11
122.011
21
-75.1141
0
LINE
8
BLACK
6
CONTINUOUS
10
122.011
20
-75.1141
11
121.841
21
-75.4475
0
LINE
8
BLACK
6
CONTINUOUS
10
121.841
20
-75.4475
11
121.637
21
-75.7613
0
LINE
8
BLACK
6
CONTINUOUS
10
121.637
20
-75.7613
11
121.402
21
-76.0521
0
LINE
8
BLACK
6
CONTINUOUS
10
121.402
20
-76.0521
11
121.137
21
-76.3167
0
LINE
8
BLACK
6
CONTINUOUS
10
121.137
20
-76.3167
11
120.846
21
-76.5522
0
LINE
8
BLACK
6
CONTINUOUS
10
120.846
20
-76.5522
11
120.532
21
-76.756
0
LINE
8
BLACK
6
CONTINUOUS
10
120.532
20
-76.756
11
120.199
21
-76.9259
0
LINE
8
BLACK
6
CONTINUOUS
10
120.199
20
-76.9259
11
119.85
21
-77.06
0
LINE
8
BLACK
6
CONTINUOUS
10
119.85
20
-77.06
11
119.488
21
-77.1569
0
LINE
8
BLACK
6
CONTINUOUS
10
119.488
20
-77.1569
11
119.119
21
-77.2154
0
LINE
8
BLACK
6
CONTINUOUS
10
119.119
20
-77.2154
11
118.745
21
-77.235
0
LINE
8
BLACK
6
CONTINUOUS
10
118.745
20
-77.235
11
118.371
21
-77.2154
0
LINE
8
BLACK
6
CONTINUOUS
10
118.371
20
-77.2154
11
118.002
21
-77.1569
0
LINE
8
BLACK
6
CONTINUOUS
10
118.002
20
-77.1569
11
117.64
21
-77.06
0
LINE
8
BLACK
6
CONTINUOUS
10
117.64
20
-77.06
11
117.291
21
-76.9259
0
LINE
8
BLACK
6
CONTINUOUS
10
117.291
20
-76.9259
11
116.957
21
-76.756
0
LINE
8
BLACK
6
CONTINUOUS
10
116.957
20
-76.756
11
116.644
21
-76.5522
0
LINE
8
BLACK
6
CONTINUOUS
10
116.644
20
-76.5522
11
116.353
21
-76.3167
0
LINE
8
BLACK
6
CONTINUOUS
10
116.353
20
-76.3167
11
116.088
21
-76.0521
0
LINE
8
BLACK
6
CONTINUOUS
10
116.088
20
-76.0521
11
115.853
21
-75.7613
0
LINE
8
BLACK
6
CONTINUOUS
10
115.853
20
-75.7613
11
115.649
21
-75.4475
0
LINE
8
BLACK
6
CONTINUOUS
10
115.649
20
-75.4475
11
115.479
21
-75.1141
0
LINE
8
BLACK
6
CONTINUOUS
10
115.479
20
-75.1141
11
115.345
21
-74.7647
0
LINE
8
BLACK
6
CONTINUOUS
10
115.345
20
-74.7647
11
115.248
21
-74.4033
0
LINE
8
BLACK
6
CONTINUOUS
10
115.248
20
-74.4033
11
115.19
21
-74.0337
0
LINE
8
BLACK
6
CONTINUOUS
10
115.19
20
-74.0337
11
115.17
21
-73.66
0
LINE
8
BLACK
6
CONTINUOUS
10
115.17
20
-73.66
11
115.19
21
-73.2863
0
LINE
8
BLACK
6
CONTINUOUS
10
115.19
20
-73.2863
11
115.248
21
-72.9167
0
LINE
8
BLACK
6
CONTINUOUS
10
115.292
20
-74.3939
11
115.388
21
-74.7508
0
LINE
8
BLACK
6
CONTINUOUS
10
115.388
20
-74.7508
11
115.52
21
-75.0957
0
LINE
8
BLACK
6
CONTINUOUS
10
115.52
20
-75.0957
11
115.688
21
-75.4249
0
LINE
8
BLACK
6
CONTINUOUS
10
115.688
20
-75.4249
11
115.889
21
-75.7348
0
LINE
8
BLACK
6
CONTINUOUS
10
115.889
20
-75.7348
11
116.122
21
-76.0219
0
LINE
8
BLACK
6
CONTINUOUS
10
116.122
20
-76.0219
11
116.383
21
-76.2832
0
LINE
8
BLACK
6
CONTINUOUS
10
116.383
20
-76.2832
11
116.67
21
-76.5157
0
LINE
8
BLACK
6
CONTINUOUS
10
116.67
20
-76.5157
11
116.98
21
-76.7169
0
LINE
8
BLACK
6
CONTINUOUS
10
116.98
20
-76.7169
11
117.309
21
-76.8847
0
LINE
8
BLACK
6
CONTINUOUS
10
117.309
20
-76.8847
11
117.654
21
-77.0171
0
LINE
8
BLACK
6
CONTINUOUS
10
117.654
20
-77.0171
11
118.011
21
-77.1127
0
LINE
8
BLACK
6
CONTINUOUS
10
118.011
20
-77.1127
11
118.376
21
-77.1705
0
LINE
8
BLACK
6
CONTINUOUS
10
118.376
20
-77.1705
11
118.745
21
-77.1898
0
LINE
8
BLACK
6
CONTINUOUS
10
118.745
20
-77.1898
11
119.114
21
-77.1705
0
LINE
8
BLACK
6
CONTINUOUS
10
119.114
20
-77.1705
11
119.479
21
-77.1127
0
LINE
8
BLACK
6
CONTINUOUS
10
119.479
20
-77.1127
11
119.836
21
-77.0171
0
LINE
8
BLACK
6
CONTINUOUS
10
119.836
20
-77.0171
11
120.181
21
-76.8847
0
LINE
8
BLACK
6
CONTINUOUS
10
120.181
20
-76.8847
11
120.51
21
-76.7169
0
LINE
8
BLACK
6
CONTINUOUS
10
120.51
20
-76.7169
11
120.82
21
-76.5157
0
LINE
8
BLACK
6
CONTINUOUS
10
120.82
20
-76.5157
11
121.107
21
-76.2832
0
LINE
8
BLACK
6
CONTINUOUS
10
121.107
20
-76.2832
11
121.368
21
-76.0219
0
LINE
8
BLACK
6
CONTINUOUS
10
121.368
20
-76.0219
11
121.601
21
-75.7348
0
LINE
8
BLACK
6
CONTINUOUS
10
121.601
20
-75.7348
11
121.802
21
-75.4249
0
LINE
8
BLACK
6
CONTINUOUS
10
121.802
20
-75.4249
11
121.97
21
-75.0957
0
LINE
8
BLACK
6
CONTINUOUS
10
121.97
20
-75.0957
11
122.102
21
-74.7508
0
LINE
8
BLACK
6
CONTINUOUS
10
122.102
20
-74.7508
11
122.198
21
-74.3939
0
LINE
8
BLACK
6
CONTINUOUS
10
122.198
20
-74.3939
11
122.256
21
-74.029
0
LINE
8
BLACK
6
CONTINUOUS
10
122.256
20
-74.029
11
122.275
21
-73.66
0
LINE
8
BLACK
6
CONTINUOUS
10
122.275
20
-73.66
11
122.256
21
-73.291
0
LINE
8
BLACK
6
CONTINUOUS
10
122.256
20
-73.291
11
122.198
21
-72.9261
0
LINE
8
BLACK
6
CONTINUOUS
10
122.198
20
-72.9261
11
122.102
21
-72.5692
0
LINE
8
BLACK
6
CONTINUOUS
10
122.102
20
-72.5692
11
121.97
21
-72.2243
0
LINE
8
BLACK
6
CONTINUOUS
10
121.97
20
-72.2243
11
121.802
21
-71.8951
0
LINE
8
BLACK
6
CONTINUOUS
10
121.802
20
-71.8951
11
121.601
21
-71.5852
0
LINE
8
BLACK
6
CONTINUOUS
10
121.601
20
-71.5852
11
121.368
21
-71.2981
0
LINE
8
BLACK
6
CONTINUOUS
10
121.368
20
-71.2981
11
121.107
21
-71.0368
0
LINE
8
BLACK
6
CONTINUOUS
10
121.107
20
-71.0368
11
120.82
21
-70.8043
0
LINE
8
BLACK
6
CONTINUOUS
10
120.82
20
-70.8043
11
120.51
21
-70.6031
0
LINE
8
BLACK
6
CONTINUOUS
10
120.51
20
-70.6031
11
120.181
21
-70.4353
0
LINE
8
BLACK
6
CONTINUOUS
10
120.181
20
-70.4353
11
119.836
21
-70.3029
0
LINE
8
BLACK
6
CONTINUOUS
10
119.836
20
-70.3029
11
119.479
21
-70.2073
0
LINE
8
BLACK
6
CONTINUOUS
10
119.479
20
-70.2073
11
119.114
21
-70.1495
0
LINE
8
BLACK
6
CONTINUOUS
10
119.114
20
-70.1495
11
118.745
21
-70.1302
0
LINE
8
BLACK
6
CONTINUOUS
10
118.745
20
-70.1302
11
118.376
21
-70.1495
0
LINE
8
BLACK
6
CONTINUOUS
10
118.376
20
-70.1495
11
118.011
21
-70.2073
0
LINE
8
BLACK
6
CONTINUOUS
10
118.011
20
-70.2073
11
117.654
21
-70.3029
0
LINE
8
BLACK
6
CONTINUOUS
10
117.654
20
-70.3029
11
117.309
21
-70.4353
0
LINE
8
BLACK
6
CONTINUOUS
10
117.309
20
-70.4353
11
116.98
21
-70.6031
0
LINE
8
BLACK
6
CONTINUOUS
10
116.98
20
-70.6031
11
116.67
21
-70.8043
0
LINE
8
BLACK
6
CONTINUOUS
10
116.67
20
-70.8043
11
116.383
21
-71.0368
0
LINE
8
BLACK
6
CONTINUOUS
10
116.383
20
-71.0368
11
116.122
21
-71.2981
0
LINE
8
BLACK
6
CONTINUOUS
10
116.122
20
-71.2981
11
115.889
21
-71.5852
0
LINE
8
BLACK
6
CONTINUOUS
10
115.889
20
-71.5852
11
115.688
21
-71.8951
0
LINE
8
BLACK
6
CONTINUOUS
10
115.688
20
-71.8951
11
115.52
21
-72.2243
0
LINE
8
BLACK
6
CONTINUOUS
10
115.52
20
-72.2243
11
115.388
21
-72.5692
0
LINE
8
BLACK
6
CONTINUOUS
10
115.388
20
-72.5692
11
115.292
21
-72.9261
0
LINE
8
BLACK
6
CONTINUOUS
10
115.292
20
-72.9261
11
115.234
21
-73.291
0
LINE
8
BLACK
6
CONTINUOUS
10
115.234
20
-73.291
11
115.215
21
-73.66
0
LINE
8
BLACK
6
CONTINUOUS
10
115.215
20
-73.66
11
115.234
21
-74.029
0
LINE
8
BLACK
6
CONTINUOUS
10
115.234
20
-74.029
11
115.292
21
-74.3939
0
LINE
8
BLACK
6
CONTINUOUS
10
196.528
20
-72.9167
11
196.625
21
-72.5553
0
LINE
8
BLACK
6
CONTINUOUS
10
196.625
20
-72.5553
11
196.759
21
-72.2059
0
LINE
8
BLACK
6
CONTINUOUS
10
196.759
20
-72.2059
11
196.929
21
-71.8725
0
LINE
8
BLACK
6
CONTINUOUS
10
196.929
20
-71.8725
11
197.133
21
-71.5587
0
LINE
8
BLACK
6
CONTINUOUS
10
197.133
20
-71.5587
11
197.368
21
-71.2679
0
LINE
8
BLACK
6
CONTINUOUS
10
197.368
20
-71.2679
11
197.633
21
-71.0033
0
LINE
8
BLACK
6
CONTINUOUS
10
197.633
20
-71.0033
11
197.924
21
-70.7678
0
LINE
8
BLACK
6
CONTINUOUS
10
197.924
20
-70.7678
11
198.237
21
-70.564
0
LINE
8
BLACK
6
CONTINUOUS
10
198.237
20
-70.564
11
198.571
21
-70.3941
0
LINE
8
BLACK
6
CONTINUOUS
10
198.571
20
-70.3941
11
198.92
21
-70.26
0
LINE
8
BLACK
6
CONTINUOUS
10
198.92
20
-70.26
11
199.282
21
-70.1631
0
LINE
8
BLACK
6
CONTINUOUS
10
199.282
20
-70.1631
11
199.651
21
-70.1046
0
LINE
8
BLACK
6
CONTINUOUS
10
199.651
20
-70.1046
11
200.025
21
-70.085
0
LINE
8
BLACK
6
CONTINUOUS
10
200.025
20
-70.085
11
200.399
21
-70.1046
0
LINE
8
BLACK
6
CONTINUOUS
10
200.399
20
-70.1046
11
200.768
21
-70.1631
0
LINE
8
BLACK
6
CONTINUOUS
10
200.768
20
-70.1631
11
201.13
21
-70.26
0
LINE
8
BLACK
6
CONTINUOUS
10
201.13
20
-70.26
11
201.479
21
-70.3941
0
LINE
8
BLACK
6
CONTINUOUS
10
201.479
20
-70.3941
11
201.812
21
-70.564
0
LINE
8
BLACK
6
CONTINUOUS
10
201.812
20
-70.564
11
202.126
21
-70.7678
0
LINE
8
BLACK
6
CONTINUOUS
10
202.126
20
-70.7678
11
202.417
21
-71.0033
0
LINE
8
BLACK
6
CONTINUOUS
10
202.417
20
-71.0033
11
202.682
21
-71.2679
0
LINE
8
BLACK
6
CONTINUOUS
10
202.682
20
-71.2679
11
202.917
21
-71.5587
0
LINE
8
BLACK
6
CONTINUOUS
10
202.917
20
-71.5587
11
203.121
21
-71.8725
0
LINE
8
BLACK
6
CONTINUOUS
10
203.121
20
-71.8725
11
203.291
21
-72.2059
0
LINE
8
BLACK
6
CONTINUOUS
10
203.291
20
-72.2059
11
203.425
21
-72.5553
0
LINE
8
BLACK
6
CONTINUOUS
10
203.425
20
-72.5553
11
203.522
21
-72.9167
0
LINE
8
BLACK
6
CONTINUOUS
10
203.522
20
-72.9167
11
203.58
21
-73.2863
0
LINE
8
BLACK
6
CONTINUOUS
10
203.58
20
-73.2863
11
203.6
21
-73.66
0
LINE
8
BLACK
6
CONTINUOUS
10
203.6
20
-73.66
11
203.58
21
-74.0337
0
LINE
8
BLACK
6
CONTINUOUS
10
203.58
20
-74.0337
11
203.522
21
-74.4033
0
LINE
8
BLACK
6
CONTINUOUS
10
203.522
20
-74.4033
11
203.425
21
-74.7647
0
LINE
8
BLACK
6
CONTINUOUS
10
203.425
20
-74.7647
11
203.291
21
-75.1141
0
LINE
8
BLACK
6
CONTINUOUS
10
203.291
20
-75.1141
11
203.121
21
-75.4475
0
LINE
8
BLACK
6
CONTINUOUS
10
203.121
20
-75.4475
11
202.917
21
-75.7613
0
LINE
8
BLACK
6
CONTINUOUS
10
202.917
20
-75.7613
11
202.682
21
-76.0521
0
LINE
8
BLACK
6
CONTINUOUS
10
202.682
20
-76.0521
11
202.417
21
-76.3167
0
LINE
8
BLACK
6
CONTINUOUS
10
202.417
20
-76.3167
11
202.126
21
-76.5522
0
LINE
8
BLACK
6
CONTINUOUS
10
202.126
20
-76.5522
11
201.812
21
-76.756
0
LINE
8
BLACK
6
CONTINUOUS
10
201.812
20
-76.756
11
201.479
21
-76.9259
0
LINE
8
BLACK
6
CONTINUOUS
10
201.479
20
-76.9259
11
201.13
21
-77.06
0
LINE
8
BLACK
6
CONTINUOUS
10
201.13
20
-77.06
11
200.768
21
-77.1569
0
LINE
8
BLACK
6
CONTINUOUS
10
200.768
20
-77.1569
11
200.399
21
-77.2154
0
LINE
8
BLACK
6
CONTINUOUS
10
200.399
20
-77.2154
11
200.025
21
-77.235
0
LINE
8
BLACK
6
CONTINUOUS
10
200.025
20
-77.235
11
199.651
21
-77.2154
0
LINE
8
BLACK
6
CONTINUOUS
10
199.651
20
-77.2154
11
199.282
21
-77.1569
0
LINE
8
BLACK
6
CONTINUOUS
10
199.282
20
-77.1569
11
198.92
21
-77.06
0
LINE
8
BLACK
6
CONTINUOUS
10
198.92
20
-77.06
11
198.571
21
-76.9259
0
LINE
8
BLACK
6
CONTINUOUS
10
198.571
20
-76.9259
11
198.237
21
-76.756
0
LINE
8
BLACK
6
CONTINUOUS
10
198.237
20
-76.756
11
197.924
21
-76.5522
0
LINE
8
BLACK
6
CONTINUOUS
10
197.924
20
-76.5522
11
197.633
21
-76.3167
0
LINE
8
BLACK
6
CONTINUOUS
10
197.633
20
-76.3167
11
197.368
21
-76.0521
0
LINE
8
BLACK
6
CONTINUOUS
10
197.368
20
-76.0521
11
197.133
21
-75.7613
0
LINE
8
BLACK
6
CONTINUOUS
10
197.133
20
-75.7613
11
196.929
21
-75.4475
0
LINE
8
BLACK
6
CONTINUOUS
10
196.929
20
-75.4475
11
196.759
21
-75.1141
0
LINE
8
BLACK
6
CONTINUOUS
10
196.759
20
-75.1141
11
196.625
21
-74.7647
0
LINE
8
BLACK
6
CONTINUOUS
10
196.625
20
-74.7647
11
196.528
21
-74.4033
0
LINE
8
BLACK
6
CONTINUOUS
10
196.528
20
-74.4033
11
196.47
21
-74.0337
0
LINE
8
BLACK
6
CONTINUOUS
10
196.47
20
-74.0337
11
196.45
21
-73.66
0
LINE
8
BLACK
6
CONTINUOUS
10
196.45
20
-73.66
11
196.47
21
-73.2863
0
LINE
8
BLACK
6
CONTINUOUS
10
196.47
20
-73.2863
11
196.528
21
-72.9167
0
LINE
8
BLACK
6
CONTINUOUS
10
196.572
20
-74.3939
11
196.668
21
-74.7508
0
LINE
8
BLACK
6
CONTINUOUS
10
196.668
20
-74.7508
11
196.8
21
-75.0957
0
LINE
8
BLACK
6
CONTINUOUS
10
196.8
20
-75.0957
11
196.968
21
-75.4249
0
LINE
8
BLACK
6
CONTINUOUS
10
196.968
20
-75.4249
11
197.169
21
-75.7348
0
LINE
8
BLACK
6
CONTINUOUS
10
197.169
20
-75.7348
11
197.402
21
-76.0219
0
LINE
8
BLACK
6
CONTINUOUS
10
197.402
20
-76.0219
11
197.663
21
-76.2832
0
LINE
8
BLACK
6
CONTINUOUS
10
197.663
20
-76.2832
11
197.95
21
-76.5157
0
LINE
8
BLACK
6
CONTINUOUS
10
197.95
20
-76.5157
11
198.26
21
-76.7169
0
LINE
8
BLACK
6
CONTINUOUS
10
198.26
20
-76.7169
11
198.589
21
-76.8847
0
LINE
8
BLACK
6
CONTINUOUS
10
198.589
20
-76.8847
11
198.934
21
-77.0171
0
LINE
8
BLACK
6
CONTINUOUS
10
198.934
20
-77.0171
11
199.291
21
-77.1127
0
LINE
8
BLACK
6
CONTINUOUS
10
199.291
20
-77.1127
11
199.656
21
-77.1705
0
LINE
8
BLACK
6
CONTINUOUS
10
199.656
20
-77.1705
11
200.025
21
-77.1898
0
LINE
8
BLACK
6
CONTINUOUS
10
200.025
20
-77.1898
11
200.394
21
-77.1705
0
LINE
8
BLACK
6
CONTINUOUS
10
200.394
20
-77.1705
11
200.759
21
-77.1127
0
LINE
8
BLACK
6
CONTINUOUS
10
200.759
20
-77.1127
11
201.116
21
-77.0171
0
LINE
8
BLACK
6
CONTINUOUS
10
201.116
20
-77.0171
11
201.461
21
-76.8847
0
LINE
8
BLACK
6
CONTINUOUS
10
201.461
20
-76.8847
11
201.79
21
-76.7169
0
LINE
8
BLACK
6
CONTINUOUS
10
201.79
20
-76.7169
11
202.1
21
-76.5157
0
LINE
8
BLACK
6
CONTINUOUS
10
202.1
20
-76.5157
11
202.387
21
-76.2832
0
LINE
8
BLACK
6
CONTINUOUS
10
202.387
20
-76.2832
11
202.648
21
-76.0219
0
LINE
8
BLACK
6
CONTINUOUS
10
202.648
20
-76.0219
11
202.881
21
-75.7348
0
LINE
8
BLACK
6
CONTINUOUS
10
202.881
20
-75.7348
11
203.082
21
-75.4249
0
LINE
8
BLACK
6
CONTINUOUS
10
203.082
20
-75.4249
11
203.25
21
-75.0957
0
LINE
8
BLACK
6
CONTINUOUS
10
203.25
20
-75.0957
11
203.382
21
-74.7508
0
LINE
8
BLACK
6
CONTINUOUS
10
203.382
20
-74.7508
11
203.478
21
-74.3939
0
LINE
8
BLACK
6
CONTINUOUS
10
203.478
20
-74.3939
11
203.536
21
-74.029
0
LINE
8
BLACK
6
CONTINUOUS
10
203.536
20
-74.029
11
203.555
21
-73.66
0
LINE
8
BLACK
6
CONTINUOUS
10
203.555
20
-73.66
11
203.536
21
-73.291
0
LINE
8
BLACK
6
CONTINUOUS
10
203.536
20
-73.291
11
203.478
21
-72.9261
0
LINE
8
BLACK
6
CONTINUOUS
10
203.478
20
-72.9261
11
203.382
21
-72.5692
0
LINE
8
BLACK
6
CONTINUOUS
10
203.382
20
-72.5692
11
203.25
21
-72.2243
0
LINE
8
BLACK
6
CONTINUOUS
10
203.25
20
-72.2243
11
203.082
21
-71.8951
0
LINE
8
BLACK
6
CONTINUOUS
10
203.082
20
-71.8951
11
202.881
21
-71.5852
0
LINE
8
BLACK
6
CONTINUOUS
10
202.881
20
-71.5852
11
202.648
21
-71.2981
0
LINE
8
BLACK
6
CONTINUOUS
10
202.648
20
-71.2981
11
202.387
21
-71.0368
0
LINE
8
BLACK
6
CONTINUOUS
10
202.387
20
-71.0368
11
202.1
21
-70.8043
0
LINE
8
BLACK
6
CONTINUOUS
10
202.1
20
-70.8043
11
201.79
21
-70.6031
0
LINE
8
BLACK
6
CONTINUOUS
10
201.79
20
-70.6031
11
201.461
21
-70.4353
0
LINE
8
BLACK
6
CONTINUOUS
10
201.461
20
-70.4353
11
201.116
21
-70.3029
0
LINE
8
BLACK
6
CONTINUOUS
10
201.116
20
-70.3029
11
200.759
21
-70.2073
0
LINE
8
BLACK
6
CONTINUOUS
10
200.759
20
-70.2073
11
200.394
21
-70.1495
0
LINE
8
BLACK
6
CONTINUOUS
10
200.394
20
-70.1495
11
200.025
21
-70.1302
0
LINE
8
BLACK
6
CONTINUOUS
10
200.025
20
-70.1302
11
199.656
21
-70.1495
0
LINE
8
BLACK
6
CONTINUOUS
10
199.656
20
-70.1495
11
199.291
21
-70.2073
0
LINE
8
BLACK
6
CONTINUOUS
10
199.291
20
-70.2073
11
198.934
21
-70.3029
0
LINE
8
BLACK
6
CONTINUOUS
10
198.934
20
-70.3029
11
198.589
21
-70.4353
0
LINE
8
BLACK
6
CONTINUOUS
10
198.589
20
-70.4353
11
198.26
21
-70.6031
0
LINE
8
BLACK
6
CONTINUOUS
10
198.26
20
-70.6031
11
197.95
21
-70.8043
0
LINE
8
BLACK
6
CONTINUOUS
10
197.95
20
-70.8043
11
197.663
21
-71.0368
0
LINE
8
BLACK
6
CONTINUOUS
10
197.663
20
-71.0368
11
197.402
21
-71.2981
0
LINE
8
BLACK
6
CONTINUOUS
10
197.402
20
-71.2981
11
197.169
21
-71.5852
0
LINE
8
BLACK
6
CONTINUOUS
10
197.169
20
-71.5852
11
196.968
21
-71.8951
0
LINE
8
BLACK
6
CONTINUOUS
10
196.968
20
-71.8951
11
196.8
21
-72.2243
0
LINE
8
BLACK
6
CONTINUOUS
10
196.8
20
-72.2243
11
196.668
21
-72.5692
0
LINE
8
BLACK
6
CONTINUOUS
10
196.668
20
-72.5692
11
196.572
21
-72.9261
0
LINE
8
BLACK
6
CONTINUOUS
10
196.572
20
-72.9261
11
196.514
21
-73.291
0
LINE
8
BLACK
6
CONTINUOUS
10
196.514
20
-73.291
11
196.495
21
-73.66
0
LINE
8
BLACK
6
CONTINUOUS
10
196.495
20
-73.66
11
196.514
21
-74.029
0
LINE
8
BLACK
6
CONTINUOUS
10
196.514
20
-74.029
11
196.572
21
-74.3939
0
LINE
8
BLACK
6
CONTINUOUS
10
143.634
20
-73.2746
11
143.696
21
-72.9369
0
LINE
8
BLACK
6
CONTINUOUS
10
143.696
20
-72.9369
11
143.795
21
-72.6083
0
LINE
8
BLACK
6
CONTINUOUS
10
143.795
20
-72.6083
11
143.931
21
-72.2927
0
LINE
8
BLACK
6
CONTINUOUS
10
143.931
20
-72.2927
11
144.1
21
-71.9942
0
LINE
8
BLACK
6
CONTINUOUS
10
144.1
20
-71.9942
11
144.302
21
-71.7165
0
LINE
8
BLACK
6
CONTINUOUS
10
144.302
20
-71.7165
11
144.534
21
-71.463
0
LINE
8
BLACK
6
CONTINUOUS
10
144.534
20
-71.463
11
144.792
21
-71.2369
0
LINE
8
BLACK
6
CONTINUOUS
10
144.792
20
-71.2369
11
145.074
21
-71.0409
0
LINE
8
BLACK
6
CONTINUOUS
10
145.074
20
-71.0409
11
145.376
21
-70.8777
0
LINE
8
BLACK
6
CONTINUOUS
10
145.376
20
-70.8777
11
145.694
21
-70.7491
0
LINE
8
BLACK
6
CONTINUOUS
10
145.694
20
-70.7491
11
146.025
21
-70.6567
0
LINE
8
BLACK
6
CONTINUOUS
10
146.025
20
-70.6567
11
146.364
21
-70.6018
0
LINE
8
BLACK
6
CONTINUOUS
10
146.364
20
-70.6018
11
146.706
21
-70.5851
0
LINE
8
BLACK
6
CONTINUOUS
10
146.706
20
-70.5851
11
147.049
21
-70.6066
0
LINE
8
BLACK
6
CONTINUOUS
10
147.049
20
-70.6066
11
147.387
21
-70.6662
0
LINE
8
BLACK
6
CONTINUOUS
10
147.387
20
-70.6662
11
147.717
21
-70.7632
0
LINE
8
BLACK
6
CONTINUOUS
10
147.717
20
-70.7632
11
148.033
21
-70.8962
0
LINE
8
BLACK
6
CONTINUOUS
10
148.033
20
-70.8962
11
148.333
21
-71.0637
0
LINE
8
BLACK
6
CONTINUOUS
10
148.333
20
-71.0637
11
148.612
21
-71.2635
0
LINE
8
BLACK
6
CONTINUOUS
10
148.612
20
-71.2635
11
148.867
21
-71.4933
0
LINE
8
BLACK
6
CONTINUOUS
10
148.867
20
-71.4933
11
149.095
21
-71.75
0
LINE
8
BLACK
6
CONTINUOUS
10
149.095
20
-71.75
11
149.293
21
-72.0305
0
LINE
8
BLACK
6
CONTINUOUS
10
149.293
20
-72.0305
11
149.458
21
-72.3313
0
LINE
8
BLACK
6
CONTINUOUS
10
149.458
20
-72.3313
11
149.589
21
-72.6487
0
LINE
8
BLACK
6
CONTINUOUS
10
149.589
20
-72.6487
11
149.684
21
-72.9787
0
LINE
8
BLACK
6
CONTINUOUS
10
149.684
20
-72.9787
11
149.741
21
-73.3172
0
LINE
8
BLACK
6
CONTINUOUS
10
149.741
20
-73.3172
11
149.76
21
-73.66
0
LINE
8
BLACK
6
CONTINUOUS
10
149.76
20
-73.66
11
149.759
21
-73.7459
0
LINE
8
BLACK
6
CONTINUOUS
10
149.759
20
-73.7459
11
149.73
21
-74.088
0
LINE
8
BLACK
6
CONTINUOUS
10
149.73
20
-74.088
11
149.663
21
-74.4247
0
LINE
8
BLACK
6
CONTINUOUS
10
149.663
20
-74.4247
11
149.56
21
-74.752
0
LINE
8
BLACK
6
CONTINUOUS
10
149.56
20
-74.752
11
149.42
21
-75.0656
0
LINE
8
BLACK
6
CONTINUOUS
10
149.42
20
-75.0656
11
149.246
21
-75.3617
0
LINE
8
BLACK
6
CONTINUOUS
10
149.246
20
-75.3617
11
149.041
21
-75.6366
0
LINE
8
BLACK
6
CONTINUOUS
10
149.041
20
-75.6366
11
148.806
21
-75.8868
0
LINE
8
BLACK
6
CONTINUOUS
10
148.806
20
-75.8868
11
148.544
21
-76.1093
0
LINE
8
BLACK
6
CONTINUOUS
10
148.544
20
-76.1093
11
148.26
21
-76.3013
0
LINE
8
BLACK
6
CONTINUOUS
10
148.26
20
-76.3013
11
147.955
21
-76.4604
0
LINE
8
BLACK
6
CONTINUOUS
10
147.955
20
-76.4604
11
147.635
21
-76.5845
0
LINE
8
BLACK
6
CONTINUOUS
10
147.635
20
-76.5845
11
147.303
21
-76.6722
0
LINE
8
BLACK
6
CONTINUOUS
10
147.303
20
-76.6722
11
146.964
21
-76.7223
0
LINE
8
BLACK
6
CONTINUOUS
10
146.964
20
-76.7223
11
146.621
21
-76.7343
0
LINE
8
BLACK
6
CONTINUOUS
10
146.621
20
-76.7343
11
146.278
21
-76.708
0
LINE
8
BLACK
6
CONTINUOUS
10
146.278
20
-76.708
11
145.941
21
-76.6437
0
LINE
8
BLACK
6
CONTINUOUS
10
145.941
20
-76.6437
11
145.613
21
-76.5421
0
LINE
8
BLACK
6
CONTINUOUS
10
145.613
20
-76.5421
11
145.299
21
-76.4047
0
LINE
8
BLACK
6
CONTINUOUS
10
145.299
20
-76.4047
11
145.001
21
-76.233
0
LINE
8
BLACK
6
CONTINUOUS
10
145.001
20
-76.233
11
144.725
21
-76.0293
0
LINE
8
BLACK
6
CONTINUOUS
10
144.725
20
-76.0293
11
144.473
21
-75.7961
0
LINE
8
BLACK
6
CONTINUOUS
10
144.473
20
-75.7961
11
144.249
21
-75.5362
0
LINE
8
BLACK
6
CONTINUOUS
10
144.249
20
-75.5362
11
144.055
21
-75.2529
0
LINE
8
BLACK
6
CONTINUOUS
10
144.055
20
-75.2529
11
143.894
21
-74.9498
0
LINE
8
BLACK
6
CONTINUOUS
10
143.894
20
-74.9498
11
143.767
21
-74.6306
0
LINE
8
BLACK
6
CONTINUOUS
10
143.767
20
-74.6306
11
143.677
21
-74.2993
0
LINE
8
BLACK
6
CONTINUOUS
10
143.677
20
-74.2993
11
143.625
21
-73.9601
0
LINE
8
BLACK
6
CONTINUOUS
10
143.625
20
-73.9601
11
143.61
21
-73.6177
0
LINE
8
BLACK
6
CONTINUOUS
10
143.61
20
-73.6177
11
143.61
21
-73.6171
0
LINE
8
BLACK
6
CONTINUOUS
10
143.61
20
-73.6171
11
143.634
21
-73.2746
0
LINE
8
BLACK
6
CONTINUOUS
10
143.721
20
-74.2899
11
143.81
21
-74.6163
0
LINE
8
BLACK
6
CONTINUOUS
10
143.81
20
-74.6163
11
143.935
21
-74.9308
0
LINE
8
BLACK
6
CONTINUOUS
10
143.935
20
-74.9308
11
144.093
21
-75.2295
0
LINE
8
BLACK
6
CONTINUOUS
10
144.093
20
-75.2295
11
144.285
21
-75.5086
0
LINE
8
BLACK
6
CONTINUOUS
10
144.285
20
-75.5086
11
144.506
21
-75.7647
0
LINE
8
BLACK
6
CONTINUOUS
10
144.506
20
-75.7647
11
144.754
21
-75.9945
0
LINE
8
BLACK
6
CONTINUOUS
10
144.754
20
-75.9945
11
145.026
21
-76.1952
0
LINE
8
BLACK
6
CONTINUOUS
10
145.026
20
-76.1952
11
145.319
21
-76.3643
0
LINE
8
BLACK
6
CONTINUOUS
10
145.319
20
-76.3643
11
145.629
21
-76.4997
0
LINE
8
BLACK
6
CONTINUOUS
10
145.629
20
-76.4997
11
145.952
21
-76.5998
0
LINE
8
BLACK
6
CONTINUOUS
10
145.952
20
-76.5998
11
146.284
21
-76.6632
0
LINE
8
BLACK
6
CONTINUOUS
10
146.284
20
-76.6632
11
146.622
21
-76.6891
0
LINE
8
BLACK
6
CONTINUOUS
10
146.622
20
-76.6891
11
146.96
21
-76.6773
0
LINE
8
BLACK
6
CONTINUOUS
10
146.96
20
-76.6773
11
147.294
21
-76.6279
0
LINE
8
BLACK
6
CONTINUOUS
10
147.294
20
-76.6279
11
147.621
21
-76.5415
0
LINE
8
BLACK
6
CONTINUOUS
10
147.621
20
-76.5415
11
147.937
21
-76.4192
0
LINE
8
BLACK
6
CONTINUOUS
10
147.937
20
-76.4192
11
148.236
21
-76.2624
0
LINE
8
BLACK
6
CONTINUOUS
10
148.236
20
-76.2624
11
148.517
21
-76.0733
0
LINE
8
BLACK
6
CONTINUOUS
10
148.517
20
-76.0733
11
148.774
21
-75.8541
0
LINE
8
BLACK
6
CONTINUOUS
10
148.774
20
-75.8541
11
149.006
21
-75.6075
0
LINE
8
BLACK
6
CONTINUOUS
10
149.006
20
-75.6075
11
149.209
21
-75.3366
0
LINE
8
BLACK
6
CONTINUOUS
10
149.209
20
-75.3366
11
149.38
21
-75.0449
0
LINE
8
BLACK
6
CONTINUOUS
10
149.38
20
-75.0449
11
149.517
21
-74.7359
0
LINE
8
BLACK
6
CONTINUOUS
10
149.517
20
-74.7359
11
149.62
21
-74.4135
0
LINE
8
BLACK
6
CONTINUOUS
10
149.62
20
-74.4135
11
149.685
21
-74.0817
0
LINE
8
BLACK
6
CONTINUOUS
10
149.685
20
-74.0817
11
149.714
21
-73.7446
0
LINE
8
BLACK
6
CONTINUOUS
10
149.714
20
-73.7446
11
149.715
21
-73.66
0
LINE
8
BLACK
6
CONTINUOUS
10
149.715
20
-73.66
11
149.696
21
-73.3223
0
LINE
8
BLACK
6
CONTINUOUS
10
149.696
20
-73.3223
11
149.639
21
-72.9888
0
LINE
8
BLACK
6
CONTINUOUS
10
149.639
20
-72.9888
11
149.546
21
-72.6636
0
LINE
8
BLACK
6
CONTINUOUS
10
149.546
20
-72.6636
11
149.417
21
-72.3509
0
LINE
8
BLACK
6
CONTINUOUS
10
149.417
20
-72.3509
11
149.254
21
-72.0545
0
LINE
8
BLACK
6
CONTINUOUS
10
149.254
20
-72.0545
11
149.059
21
-71.7781
0
LINE
8
BLACK
6
CONTINUOUS
10
149.059
20
-71.7781
11
148.835
21
-71.5251
0
LINE
8
BLACK
6
CONTINUOUS
10
148.835
20
-71.5251
11
148.583
21
-71.2988
0
LINE
8
BLACK
6
CONTINUOUS
10
148.583
20
-71.2988
11
148.308
21
-71.1019
0
LINE
8
BLACK
6
CONTINUOUS
10
148.308
20
-71.1019
11
148.013
21
-70.9369
0
LINE
8
BLACK
6
CONTINUOUS
10
148.013
20
-70.9369
11
147.701
21
-70.8058
0
LINE
8
BLACK
6
CONTINUOUS
10
147.701
20
-70.8058
11
147.377
21
-70.7103
0
LINE
8
BLACK
6
CONTINUOUS
10
147.377
20
-70.7103
11
147.044
21
-70.6515
0
LINE
8
BLACK
6
CONTINUOUS
10
147.044
20
-70.6515
11
146.706
21
-70.6303
0
LINE
8
BLACK
6
CONTINUOUS
10
146.706
20
-70.6303
11
146.368
21
-70.6468
0
LINE
8
BLACK
6
CONTINUOUS
10
146.368
20
-70.6468
11
146.034
21
-70.7009
0
LINE
8
BLACK
6
CONTINUOUS
10
146.034
20
-70.7009
11
145.709
21
-70.7919
0
LINE
8
BLACK
6
CONTINUOUS
10
145.709
20
-70.7919
11
145.395
21
-70.9186
0
LINE
8
BLACK
6
CONTINUOUS
10
145.395
20
-70.9186
11
145.097
21
-71.0795
0
LINE
8
BLACK
6
CONTINUOUS
10
145.097
20
-71.0795
11
144.82
21
-71.2725
0
LINE
8
BLACK
6
CONTINUOUS
10
144.82
20
-71.2725
11
144.565
21
-71.4953
0
LINE
8
BLACK
6
CONTINUOUS
10
144.565
20
-71.4953
11
144.337
21
-71.7451
0
LINE
8
BLACK
6
CONTINUOUS
10
144.337
20
-71.7451
11
144.138
21
-72.0188
0
LINE
8
BLACK
6
CONTINUOUS
10
144.138
20
-72.0188
11
143.971
21
-72.3129
0
LINE
8
BLACK
6
CONTINUOUS
10
143.971
20
-72.3129
11
143.838
21
-72.6238
0
LINE
8
BLACK
6
CONTINUOUS
10
143.838
20
-72.6238
11
143.74
21
-72.9476
0
LINE
8
BLACK
6
CONTINUOUS
10
143.74
20
-72.9476
11
143.679
21
-73.2803
0
LINE
8
BLACK
6
CONTINUOUS
10
143.679
20
-73.2803
11
143.656
21
-73.6177
0
LINE
8
BLACK
6
CONTINUOUS
10
143.656
20
-73.6177
11
143.67
21
-73.9557
0
LINE
8
BLACK
6
CONTINUOUS
10
143.67
20
-73.9557
11
143.721
21
-74.2899
  0
ENDSEC
  0
EOF
