  0
SECTION
  2
HEADER
  9
$ANGBASE
  50
0.0
  9
$ANGDIR
  70
1
  9
$MEASUREMENT
  70
1
  0
ENDSEC
  0
SECTION
  2
TABLES
  0
TABLE
  2
LTYPE
  70
4
  0
LTYPE
  5
40F
  2
CONTINUOUS
  70
0
  3
Solid line
  72
65
  73
0
  40
0.0
  0
LTYPE
  5
410
  2
DASHDOT
 70
0
  3
Dash Dot ____ _ ____ _
 72
65
 73
4
 40
2.0
 49
1.25
 49
-0.25
 49
0.25
 49
-0.25
  0
LTYPE
  5
411
  2
DASHED
 70
0
  3
Dashed __ __ __ __ __
 72
65
 73
2
 40
0.75
 49
0.5
 49
-0.25
  0
LTYPE
  5
43B
  2
DOTTED
 70
0
  3
Dotted .  .  .  .
 72
65
 73
2
 40
0.2
 49
0.0
 49
-0.2
  0
ENDTAB
  0
TABLE
  2
STYLE
  70
4
  0
STYLE
  2
KICAD
  70
0
  40
0
  41
1
  42
1
  50
0
  71
0
  3
isocp.shx
  0
STYLE
  2
KICADB
  70
0
  40
0
  41
1
  42
1
  50
0
  71
0
  3
isocp.shx
  0
STYLE
  2
KICADI
  70
0
  40
0
  41
1
  42
1
  50
15
  71
0
  3
isocp.shx
  0
STYLE
  2
KICADBI
  70
0
  40
0
  41
1
  42
1
  50
15
  71
0
  3
isocp.shx
  0
ENDTAB
  0
TABLE
  2
LAYER
  70
1
  0
LAYER
  2
BLACK
  70
0
  62
7
  6
CONTINUOUS
  0
ENDTAB
  0
ENDSEC
  0
SECTION
  2
ENTITIES
0
LINE
8
BLACK
6
CONTINUOUS
10
143.623
20
-50.916
11
143.642
21
-50.9748
0
LINE
8
BLACK
6
CONTINUOUS
10
143.642
20
-50.9748
11
143.642
21
-52.8748
0
LINE
8
BLACK
6
CONTINUOUS
10
143.642
20
-52.8748
11
144.495
21
-52.8748
0
LINE
8
BLACK
6
CONTINUOUS
10
144.495
20
-52.8748
11
144.553
21
-52.8939
0
LINE
8
BLACK
6
CONTINUOUS
10
144.553
20
-52.8939
11
144.59
21
-52.9439
0
LINE
8
BLACK
6
CONTINUOUS
10
144.59
20
-52.9439
11
144.59
21
-53.0057
0
LINE
8
BLACK
6
CONTINUOUS
10
144.59
20
-53.0057
11
144.553
21
-53.0557
0
LINE
8
BLACK
6
CONTINUOUS
10
144.553
20
-53.0557
11
144.495
21
-53.0748
0
LINE
8
BLACK
6
CONTINUOUS
10
144.495
20
-53.0748
11
143.542
21
-53.0748
0
LINE
8
BLACK
6
CONTINUOUS
10
143.542
20
-53.0748
11
143.527
21
-53.0699
0
LINE
8
BLACK
6
CONTINUOUS
10
143.527
20
-53.0699
11
143.511
21
-53.0699
0
LINE
8
BLACK
6
CONTINUOUS
10
143.511
20
-53.0699
11
143.498
21
-53.0606
0
LINE
8
BLACK
6
CONTINUOUS
10
143.498
20
-53.0606
11
143.483
21
-53.0557
0
LINE
8
BLACK
6
CONTINUOUS
10
143.483
20
-53.0557
11
143.474
21
-53.0428
0
LINE
8
BLACK
6
CONTINUOUS
10
143.474
20
-53.0428
11
143.461
21
-53.0335
0
LINE
8
BLACK
6
CONTINUOUS
10
143.461
20
-53.0335
11
143.456
21
-53.0185
0
LINE
8
BLACK
6
CONTINUOUS
10
143.456
20
-53.0185
11
143.447
21
-53.0057
0
LINE
8
BLACK
6
CONTINUOUS
10
143.447
20
-53.0057
11
143.447
21
-52.9898
0
LINE
8
BLACK
6
CONTINUOUS
10
143.447
20
-52.9898
11
143.442
21
-52.9748
0
LINE
8
BLACK
6
CONTINUOUS
10
143.442
20
-52.9748
11
143.442
21
-50.9748
0
LINE
8
BLACK
6
CONTINUOUS
10
143.442
20
-50.9748
11
143.461
21
-50.916
0
LINE
8
BLACK
6
CONTINUOUS
10
143.461
20
-50.916
11
143.511
21
-50.8797
0
LINE
8
BLACK
6
CONTINUOUS
10
143.511
20
-50.8797
11
143.573
21
-50.8797
0
LINE
8
BLACK
6
CONTINUOUS
10
143.573
20
-50.8797
11
143.623
21
-50.916
0
LINE
8
BLACK
6
CONTINUOUS
10
151.081
20
-50.8798
11
151.098
21
-50.8799
0
LINE
8
BLACK
6
CONTINUOUS
10
151.098
20
-50.8799
11
151.383
21
-50.9751
0
LINE
8
BLACK
6
CONTINUOUS
10
151.383
20
-50.9751
11
151.402
21
-50.9888
0
LINE
8
BLACK
6
CONTINUOUS
10
151.402
20
-50.9888
11
151.422
21
-50.9993
0
LINE
8
BLACK
6
CONTINUOUS
10
151.422
20
-50.9993
11
151.518
21
-51.0945
0
LINE
8
BLACK
6
CONTINUOUS
10
151.518
20
-51.0945
11
151.546
21
-51.1496
0
LINE
8
BLACK
6
CONTINUOUS
10
151.546
20
-51.1496
11
151.536
21
-51.2106
0
LINE
8
BLACK
6
CONTINUOUS
10
151.536
20
-51.2106
11
151.492
21
-51.2543
0
LINE
8
BLACK
6
CONTINUOUS
10
151.492
20
-51.2543
11
151.431
21
-51.264
0
LINE
8
BLACK
6
CONTINUOUS
10
151.431
20
-51.264
11
151.376
21
-51.2359
0
LINE
8
BLACK
6
CONTINUOUS
10
151.376
20
-51.2359
11
151.298
21
-51.1574
0
LINE
8
BLACK
6
CONTINUOUS
10
151.298
20
-51.1574
11
151.05
21
-51.0748
0
LINE
8
BLACK
6
CONTINUOUS
10
151.05
20
-51.0748
11
150.892
21
-51.0748
0
LINE
8
BLACK
6
CONTINUOUS
10
150.892
20
-51.0748
11
150.644
21
-51.1574
0
LINE
8
BLACK
6
CONTINUOUS
10
150.644
20
-51.1574
11
150.481
21
-51.3197
0
LINE
8
BLACK
6
CONTINUOUS
10
150.481
20
-51.3197
11
150.398
21
-51.4859
0
LINE
8
BLACK
6
CONTINUOUS
10
150.398
20
-51.4859
11
150.309
21
-51.8442
0
LINE
8
BLACK
6
CONTINUOUS
10
150.309
20
-51.8442
11
150.309
21
-52.1053
0
LINE
8
BLACK
6
CONTINUOUS
10
150.309
20
-52.1053
11
150.398
21
-52.4637
0
LINE
8
BLACK
6
CONTINUOUS
10
150.398
20
-52.4637
11
150.481
21
-52.6298
0
LINE
8
BLACK
6
CONTINUOUS
10
150.481
20
-52.6298
11
150.644
21
-52.7921
0
LINE
8
BLACK
6
CONTINUOUS
10
150.644
20
-52.7921
11
150.892
21
-52.8748
0
LINE
8
BLACK
6
CONTINUOUS
10
150.892
20
-52.8748
11
151.05
21
-52.8748
0
LINE
8
BLACK
6
CONTINUOUS
10
151.05
20
-52.8748
11
151.298
21
-52.7921
0
LINE
8
BLACK
6
CONTINUOUS
10
151.298
20
-52.7921
11
151.376
21
-52.7136
0
LINE
8
BLACK
6
CONTINUOUS
10
151.376
20
-52.7136
11
151.431
21
-52.6855
0
LINE
8
BLACK
6
CONTINUOUS
10
151.431
20
-52.6855
11
151.492
21
-52.6952
0
LINE
8
BLACK
6
CONTINUOUS
10
151.492
20
-52.6952
11
151.536
21
-52.7389
0
LINE
8
BLACK
6
CONTINUOUS
10
151.536
20
-52.7389
11
151.546
21
-52.7999
0
LINE
8
BLACK
6
CONTINUOUS
10
151.546
20
-52.7999
11
151.518
21
-52.855
0
LINE
8
BLACK
6
CONTINUOUS
10
151.518
20
-52.855
11
151.422
21
-52.9502
0
LINE
8
BLACK
6
CONTINUOUS
10
151.422
20
-52.9502
11
151.402
21
-52.9607
0
LINE
8
BLACK
6
CONTINUOUS
10
151.402
20
-52.9607
11
151.383
21
-52.9744
0
LINE
8
BLACK
6
CONTINUOUS
10
151.383
20
-52.9744
11
151.098
21
-53.0696
0
LINE
8
BLACK
6
CONTINUOUS
10
151.098
20
-53.0696
11
151.081
21
-53.0698
0
LINE
8
BLACK
6
CONTINUOUS
10
151.081
20
-53.0698
11
151.066
21
-53.0748
0
LINE
8
BLACK
6
CONTINUOUS
10
151.066
20
-53.0748
11
150.875
21
-53.0748
0
LINE
8
BLACK
6
CONTINUOUS
10
150.875
20
-53.0748
11
150.86
21
-53.0698
0
LINE
8
BLACK
6
CONTINUOUS
10
150.86
20
-53.0698
11
150.844
21
-53.0696
0
LINE
8
BLACK
6
CONTINUOUS
10
150.844
20
-53.0696
11
150.558
21
-52.9744
0
LINE
8
BLACK
6
CONTINUOUS
10
150.558
20
-52.9744
11
150.54
21
-52.9607
0
LINE
8
BLACK
6
CONTINUOUS
10
150.54
20
-52.9607
11
150.519
21
-52.9502
0
LINE
8
BLACK
6
CONTINUOUS
10
150.519
20
-52.9502
11
150.329
21
-52.7598
0
LINE
8
BLACK
6
CONTINUOUS
10
150.329
20
-52.7598
11
150.321
21
-52.7453
0
LINE
8
BLACK
6
CONTINUOUS
10
150.321
20
-52.7453
11
150.31
21
-52.7338
0
LINE
8
BLACK
6
CONTINUOUS
10
150.31
20
-52.7338
11
150.215
21
-52.5433
0
LINE
8
BLACK
6
CONTINUOUS
10
150.215
20
-52.5433
11
150.213
21
-52.5323
0
LINE
8
BLACK
6
CONTINUOUS
10
150.213
20
-52.5323
11
150.207
21
-52.5228
0
LINE
8
BLACK
6
CONTINUOUS
10
150.207
20
-52.5228
11
150.112
21
-52.1419
0
LINE
8
BLACK
6
CONTINUOUS
10
150.112
20
-52.1419
11
150.113
21
-52.1295
0
LINE
8
BLACK
6
CONTINUOUS
10
150.113
20
-52.1295
11
150.109
21
-52.1176
0
LINE
8
BLACK
6
CONTINUOUS
10
150.109
20
-52.1176
11
150.109
21
-51.8319
0
LINE
8
BLACK
6
CONTINUOUS
10
150.109
20
-51.8319
11
150.113
21
-51.8201
0
LINE
8
BLACK
6
CONTINUOUS
10
150.113
20
-51.8201
11
150.112
21
-51.8076
0
LINE
8
BLACK
6
CONTINUOUS
10
150.112
20
-51.8076
11
150.207
21
-51.4267
0
LINE
8
BLACK
6
CONTINUOUS
10
150.207
20
-51.4267
11
150.213
21
-51.4173
0
LINE
8
BLACK
6
CONTINUOUS
10
150.213
20
-51.4173
11
150.215
21
-51.4062
0
LINE
8
BLACK
6
CONTINUOUS
10
150.215
20
-51.4062
11
150.31
21
-51.2158
0
LINE
8
BLACK
6
CONTINUOUS
10
150.31
20
-51.2158
11
150.321
21
-51.2042
0
LINE
8
BLACK
6
CONTINUOUS
10
150.321
20
-51.2042
11
150.329
21
-51.1898
0
LINE
8
BLACK
6
CONTINUOUS
10
150.329
20
-51.1898
11
150.519
21
-50.9993
0
LINE
8
BLACK
6
CONTINUOUS
10
150.519
20
-50.9993
11
150.54
21
-50.9888
0
LINE
8
BLACK
6
CONTINUOUS
10
150.54
20
-50.9888
11
150.558
21
-50.9751
0
LINE
8
BLACK
6
CONTINUOUS
10
150.558
20
-50.9751
11
150.844
21
-50.8799
0
LINE
8
BLACK
6
CONTINUOUS
10
150.844
20
-50.8799
11
150.86
21
-50.8798
0
LINE
8
BLACK
6
CONTINUOUS
10
150.86
20
-50.8798
11
150.875
21
-50.8748
0
LINE
8
BLACK
6
CONTINUOUS
10
150.875
20
-50.8748
11
151.066
21
-50.8748
0
LINE
8
BLACK
6
CONTINUOUS
10
151.066
20
-50.8748
11
151.081
21
-50.8798
0
LINE
8
BLACK
6
CONTINUOUS
10
148.766
20
-50.916
11
148.785
21
-50.9748
0
LINE
8
BLACK
6
CONTINUOUS
10
148.785
20
-50.9748
11
148.785
21
-52.8748
0
LINE
8
BLACK
6
CONTINUOUS
10
148.785
20
-52.8748
11
149.637
21
-52.8748
0
LINE
8
BLACK
6
CONTINUOUS
10
149.637
20
-52.8748
11
149.696
21
-52.8939
0
LINE
8
BLACK
6
CONTINUOUS
10
149.696
20
-52.8939
11
149.732
21
-52.9439
0
LINE
8
BLACK
6
CONTINUOUS
10
149.732
20
-52.9439
11
149.732
21
-53.0057
0
LINE
8
BLACK
6
CONTINUOUS
10
149.732
20
-53.0057
11
149.696
21
-53.0557
0
LINE
8
BLACK
6
CONTINUOUS
10
149.696
20
-53.0557
11
149.637
21
-53.0748
0
LINE
8
BLACK
6
CONTINUOUS
10
149.637
20
-53.0748
11
148.685
21
-53.0748
0
LINE
8
BLACK
6
CONTINUOUS
10
148.685
20
-53.0748
11
148.67
21
-53.0699
0
LINE
8
BLACK
6
CONTINUOUS
10
148.67
20
-53.0699
11
148.654
21
-53.0699
0
LINE
8
BLACK
6
CONTINUOUS
10
148.654
20
-53.0699
11
148.641
21
-53.0606
0
LINE
8
BLACK
6
CONTINUOUS
10
148.641
20
-53.0606
11
148.626
21
-53.0557
0
LINE
8
BLACK
6
CONTINUOUS
10
148.626
20
-53.0557
11
148.617
21
-53.0428
0
LINE
8
BLACK
6
CONTINUOUS
10
148.617
20
-53.0428
11
148.604
21
-53.0335
0
LINE
8
BLACK
6
CONTINUOUS
10
148.604
20
-53.0335
11
148.599
21
-53.0185
0
LINE
8
BLACK
6
CONTINUOUS
10
148.599
20
-53.0185
11
148.59
21
-53.0057
0
LINE
8
BLACK
6
CONTINUOUS
10
148.59
20
-53.0057
11
148.59
21
-52.9898
0
LINE
8
BLACK
6
CONTINUOUS
10
148.59
20
-52.9898
11
148.585
21
-52.9748
0
LINE
8
BLACK
6
CONTINUOUS
10
148.585
20
-52.9748
11
148.585
21
-50.9748
0
LINE
8
BLACK
6
CONTINUOUS
10
148.585
20
-50.9748
11
148.604
21
-50.916
0
LINE
8
BLACK
6
CONTINUOUS
10
148.604
20
-50.916
11
148.654
21
-50.8797
0
LINE
8
BLACK
6
CONTINUOUS
10
148.654
20
-50.8797
11
148.716
21
-50.8797
0
LINE
8
BLACK
6
CONTINUOUS
10
148.716
20
-50.8797
11
148.766
21
-50.916
0
LINE
8
BLACK
6
CONTINUOUS
10
147.814
20
-50.916
11
147.833
21
-50.9748
0
LINE
8
BLACK
6
CONTINUOUS
10
147.833
20
-50.9748
11
147.833
21
-52.4033
0
LINE
8
BLACK
6
CONTINUOUS
10
147.833
20
-52.4033
11
147.828
21
-52.4187
0
LINE
8
BLACK
6
CONTINUOUS
10
147.828
20
-52.4187
11
147.827
21
-52.435
0
LINE
8
BLACK
6
CONTINUOUS
10
147.827
20
-52.435
11
147.732
21
-52.7207
0
LINE
8
BLACK
6
CONTINUOUS
10
147.732
20
-52.7207
11
147.719
21
-52.7392
0
LINE
8
BLACK
6
CONTINUOUS
10
147.719
20
-52.7392
11
147.708
21
-52.7598
0
LINE
8
BLACK
6
CONTINUOUS
10
147.708
20
-52.7598
11
147.518
21
-52.9502
0
LINE
8
BLACK
6
CONTINUOUS
10
147.518
20
-52.9502
11
147.497
21
-52.9607
0
LINE
8
BLACK
6
CONTINUOUS
10
147.497
20
-52.9607
11
147.479
21
-52.9744
0
LINE
8
BLACK
6
CONTINUOUS
10
147.479
20
-52.9744
11
147.193
21
-53.0696
0
LINE
8
BLACK
6
CONTINUOUS
10
147.193
20
-53.0696
11
147.177
21
-53.0698
0
LINE
8
BLACK
6
CONTINUOUS
10
147.177
20
-53.0698
11
147.161
21
-53.0748
0
LINE
8
BLACK
6
CONTINUOUS
10
147.161
20
-53.0748
11
146.971
21
-53.0748
0
LINE
8
BLACK
6
CONTINUOUS
10
146.971
20
-53.0748
11
146.912
21
-53.0557
0
LINE
8
BLACK
6
CONTINUOUS
10
146.912
20
-53.0557
11
146.876
21
-53.0057
0
LINE
8
BLACK
6
CONTINUOUS
10
146.876
20
-53.0057
11
146.876
21
-52.9439
0
LINE
8
BLACK
6
CONTINUOUS
10
146.876
20
-52.9439
11
146.912
21
-52.8939
0
LINE
8
BLACK
6
CONTINUOUS
10
146.912
20
-52.8939
11
146.971
21
-52.8748
0
LINE
8
BLACK
6
CONTINUOUS
10
146.971
20
-52.8748
11
147.145
21
-52.8748
0
LINE
8
BLACK
6
CONTINUOUS
10
147.145
20
-52.8748
11
147.393
21
-52.7921
0
LINE
8
BLACK
6
CONTINUOUS
10
147.393
20
-52.7921
11
147.55
21
-52.635
0
LINE
8
BLACK
6
CONTINUOUS
10
147.55
20
-52.635
11
147.633
21
-52.3871
0
LINE
8
BLACK
6
CONTINUOUS
10
147.633
20
-52.3871
11
147.633
21
-50.9748
0
LINE
8
BLACK
6
CONTINUOUS
10
147.633
20
-50.9748
11
147.652
21
-50.916
0
LINE
8
BLACK
6
CONTINUOUS
10
147.652
20
-50.916
11
147.702
21
-50.8797
0
LINE
8
BLACK
6
CONTINUOUS
10
147.702
20
-50.8797
11
147.764
21
-50.8797
0
LINE
8
BLACK
6
CONTINUOUS
10
147.764
20
-50.8797
11
147.814
21
-50.916
0
LINE
8
BLACK
6
CONTINUOUS
10
152.956
20
-50.916
11
152.975
21
-50.9748
0
LINE
8
BLACK
6
CONTINUOUS
10
152.975
20
-50.9748
11
152.975
21
-52.4033
0
LINE
8
BLACK
6
CONTINUOUS
10
152.975
20
-52.4033
11
152.97
21
-52.4187
0
LINE
8
BLACK
6
CONTINUOUS
10
152.97
20
-52.4187
11
152.97
21
-52.435
0
LINE
8
BLACK
6
CONTINUOUS
10
152.97
20
-52.435
11
152.875
21
-52.7207
0
LINE
8
BLACK
6
CONTINUOUS
10
152.875
20
-52.7207
11
152.861
21
-52.7392
0
LINE
8
BLACK
6
CONTINUOUS
10
152.861
20
-52.7392
11
152.851
21
-52.7598
0
LINE
8
BLACK
6
CONTINUOUS
10
152.851
20
-52.7598
11
152.66
21
-52.9502
0
LINE
8
BLACK
6
CONTINUOUS
10
152.66
20
-52.9502
11
152.64
21
-52.9607
0
LINE
8
BLACK
6
CONTINUOUS
10
152.64
20
-52.9607
11
152.621
21
-52.9744
0
LINE
8
BLACK
6
CONTINUOUS
10
152.621
20
-52.9744
11
152.336
21
-53.0696
0
LINE
8
BLACK
6
CONTINUOUS
10
152.336
20
-53.0696
11
152.319
21
-53.0698
0
LINE
8
BLACK
6
CONTINUOUS
10
152.319
20
-53.0698
11
152.304
21
-53.0748
0
LINE
8
BLACK
6
CONTINUOUS
10
152.304
20
-53.0748
11
152.114
21
-53.0748
0
LINE
8
BLACK
6
CONTINUOUS
10
152.114
20
-53.0748
11
152.055
21
-53.0557
0
LINE
8
BLACK
6
CONTINUOUS
10
152.055
20
-53.0557
11
152.018
21
-53.0057
0
LINE
8
BLACK
6
CONTINUOUS
10
152.018
20
-53.0057
11
152.018
21
-52.9439
0
LINE
8
BLACK
6
CONTINUOUS
10
152.018
20
-52.9439
11
152.055
21
-52.8939
0
LINE
8
BLACK
6
CONTINUOUS
10
152.055
20
-52.8939
11
152.114
21
-52.8748
0
LINE
8
BLACK
6
CONTINUOUS
10
152.114
20
-52.8748
11
152.288
21
-52.8748
0
LINE
8
BLACK
6
CONTINUOUS
10
152.288
20
-52.8748
11
152.536
21
-52.7921
0
LINE
8
BLACK
6
CONTINUOUS
10
152.536
20
-52.7921
11
152.693
21
-52.635
0
LINE
8
BLACK
6
CONTINUOUS
10
152.693
20
-52.635
11
152.775
21
-52.3871
0
LINE
8
BLACK
6
CONTINUOUS
10
152.775
20
-52.3871
11
152.775
21
-50.9748
0
LINE
8
BLACK
6
CONTINUOUS
10
152.775
20
-50.9748
11
152.795
21
-50.916
0
LINE
8
BLACK
6
CONTINUOUS
10
152.795
20
-50.916
11
152.845
21
-50.8797
0
LINE
8
BLACK
6
CONTINUOUS
10
152.845
20
-50.8797
11
152.906
21
-50.8797
0
LINE
8
BLACK
6
CONTINUOUS
10
152.906
20
-50.8797
11
152.956
21
-50.916
0
LINE
8
BLACK
6
CONTINUOUS
10
145.939
20
-50.8798
11
145.955
21
-50.8799
0
LINE
8
BLACK
6
CONTINUOUS
10
145.955
20
-50.8799
11
146.24
21
-50.9751
0
LINE
8
BLACK
6
CONTINUOUS
10
146.24
20
-50.9751
11
146.259
21
-50.9888
0
LINE
8
BLACK
6
CONTINUOUS
10
146.259
20
-50.9888
11
146.28
21
-50.9993
0
LINE
8
BLACK
6
CONTINUOUS
10
146.28
20
-50.9993
11
146.375
21
-51.0945
0
LINE
8
BLACK
6
CONTINUOUS
10
146.375
20
-51.0945
11
146.403
21
-51.1496
0
LINE
8
BLACK
6
CONTINUOUS
10
146.403
20
-51.1496
11
146.393
21
-51.2106
0
LINE
8
BLACK
6
CONTINUOUS
10
146.393
20
-51.2106
11
146.349
21
-51.2543
0
LINE
8
BLACK
6
CONTINUOUS
10
146.349
20
-51.2543
11
146.288
21
-51.264
0
LINE
8
BLACK
6
CONTINUOUS
10
146.288
20
-51.264
11
146.233
21
-51.2359
0
LINE
8
BLACK
6
CONTINUOUS
10
146.233
20
-51.2359
11
146.155
21
-51.1574
0
LINE
8
BLACK
6
CONTINUOUS
10
146.155
20
-51.1574
11
145.907
21
-51.0748
0
LINE
8
BLACK
6
CONTINUOUS
10
145.907
20
-51.0748
11
145.749
21
-51.0748
0
LINE
8
BLACK
6
CONTINUOUS
10
145.749
20
-51.0748
11
145.501
21
-51.1574
0
LINE
8
BLACK
6
CONTINUOUS
10
145.501
20
-51.1574
11
145.339
21
-51.3197
0
LINE
8
BLACK
6
CONTINUOUS
10
145.339
20
-51.3197
11
145.256
21
-51.4859
0
LINE
8
BLACK
6
CONTINUOUS
10
145.256
20
-51.4859
11
145.166
21
-51.8442
0
LINE
8
BLACK
6
CONTINUOUS
10
145.166
20
-51.8442
11
145.166
21
-52.1053
0
LINE
8
BLACK
6
CONTINUOUS
10
145.166
20
-52.1053
11
145.256
21
-52.4637
0
LINE
8
BLACK
6
CONTINUOUS
10
145.256
20
-52.4637
11
145.339
21
-52.6298
0
LINE
8
BLACK
6
CONTINUOUS
10
145.339
20
-52.6298
11
145.501
21
-52.7921
0
LINE
8
BLACK
6
CONTINUOUS
10
145.501
20
-52.7921
11
145.749
21
-52.8748
0
LINE
8
BLACK
6
CONTINUOUS
10
145.749
20
-52.8748
11
145.907
21
-52.8748
0
LINE
8
BLACK
6
CONTINUOUS
10
145.907
20
-52.8748
11
146.155
21
-52.7921
0
LINE
8
BLACK
6
CONTINUOUS
10
146.155
20
-52.7921
11
146.233
21
-52.7136
0
LINE
8
BLACK
6
CONTINUOUS
10
146.233
20
-52.7136
11
146.288
21
-52.6855
0
LINE
8
BLACK
6
CONTINUOUS
10
146.288
20
-52.6855
11
146.349
21
-52.6952
0
LINE
8
BLACK
6
CONTINUOUS
10
146.349
20
-52.6952
11
146.393
21
-52.7389
0
LINE
8
BLACK
6
CONTINUOUS
10
146.393
20
-52.7389
11
146.403
21
-52.7999
0
LINE
8
BLACK
6
CONTINUOUS
10
146.403
20
-52.7999
11
146.375
21
-52.855
0
LINE
8
BLACK
6
CONTINUOUS
10
146.375
20
-52.855
11
146.28
21
-52.9502
0
LINE
8
BLACK
6
CONTINUOUS
10
146.28
20
-52.9502
11
146.259
21
-52.9607
0
LINE
8
BLACK
6
CONTINUOUS
10
146.259
20
-52.9607
11
146.24
21
-52.9744
0
LINE
8
BLACK
6
CONTINUOUS
10
146.24
20
-52.9744
11
145.955
21
-53.0696
0
LINE
8
BLACK
6
CONTINUOUS
10
145.955
20
-53.0696
11
145.939
21
-53.0698
0
LINE
8
BLACK
6
CONTINUOUS
10
145.939
20
-53.0698
11
145.923
21
-53.0748
0
LINE
8
BLACK
6
CONTINUOUS
10
145.923
20
-53.0748
11
145.733
21
-53.0748
0
LINE
8
BLACK
6
CONTINUOUS
10
145.733
20
-53.0748
11
145.717
21
-53.0698
0
LINE
8
BLACK
6
CONTINUOUS
10
145.717
20
-53.0698
11
145.701
21
-53.0696
0
LINE
8
BLACK
6
CONTINUOUS
10
145.701
20
-53.0696
11
145.415
21
-52.9744
0
LINE
8
BLACK
6
CONTINUOUS
10
145.415
20
-52.9744
11
145.397
21
-52.9607
0
LINE
8
BLACK
6
CONTINUOUS
10
145.397
20
-52.9607
11
145.376
21
-52.9502
0
LINE
8
BLACK
6
CONTINUOUS
10
145.376
20
-52.9502
11
145.186
21
-52.7598
0
LINE
8
BLACK
6
CONTINUOUS
10
145.186
20
-52.7598
11
145.178
21
-52.7453
0
LINE
8
BLACK
6
CONTINUOUS
10
145.178
20
-52.7453
11
145.167
21
-52.7338
0
LINE
8
BLACK
6
CONTINUOUS
10
145.167
20
-52.7338
11
145.072
21
-52.5433
0
LINE
8
BLACK
6
CONTINUOUS
10
145.072
20
-52.5433
11
145.07
21
-52.5323
0
LINE
8
BLACK
6
CONTINUOUS
10
145.07
20
-52.5323
11
145.064
21
-52.5228
0
LINE
8
BLACK
6
CONTINUOUS
10
145.064
20
-52.5228
11
144.969
21
-52.1419
0
LINE
8
BLACK
6
CONTINUOUS
10
144.969
20
-52.1419
11
144.97
21
-52.1295
0
LINE
8
BLACK
6
CONTINUOUS
10
144.97
20
-52.1295
11
144.966
21
-52.1176
0
LINE
8
BLACK
6
CONTINUOUS
10
144.966
20
-52.1176
11
144.966
21
-51.8319
0
LINE
8
BLACK
6
CONTINUOUS
10
144.966
20
-51.8319
11
144.97
21
-51.8201
0
LINE
8
BLACK
6
CONTINUOUS
10
144.97
20
-51.8201
11
144.969
21
-51.8076
0
LINE
8
BLACK
6
CONTINUOUS
10
144.969
20
-51.8076
11
145.064
21
-51.4267
0
LINE
8
BLACK
6
CONTINUOUS
10
145.064
20
-51.4267
11
145.07
21
-51.4173
0
LINE
8
BLACK
6
CONTINUOUS
10
145.07
20
-51.4173
11
145.072
21
-51.4062
0
LINE
8
BLACK
6
CONTINUOUS
10
145.072
20
-51.4062
11
145.167
21
-51.2158
0
LINE
8
BLACK
6
CONTINUOUS
10
145.167
20
-51.2158
11
145.178
21
-51.2042
0
LINE
8
BLACK
6
CONTINUOUS
10
145.178
20
-51.2042
11
145.186
21
-51.1898
0
LINE
8
BLACK
6
CONTINUOUS
10
145.186
20
-51.1898
11
145.376
21
-50.9993
0
LINE
8
BLACK
6
CONTINUOUS
10
145.376
20
-50.9993
11
145.397
21
-50.9888
0
LINE
8
BLACK
6
CONTINUOUS
10
145.397
20
-50.9888
11
145.415
21
-50.9751
0
LINE
8
BLACK
6
CONTINUOUS
10
145.415
20
-50.9751
11
145.701
21
-50.8799
0
LINE
8
BLACK
6
CONTINUOUS
10
145.701
20
-50.8799
11
145.717
21
-50.8798
0
LINE
8
BLACK
6
CONTINUOUS
10
145.717
20
-50.8798
11
145.733
21
-50.8748
0
LINE
8
BLACK
6
CONTINUOUS
10
145.733
20
-50.8748
11
145.923
21
-50.8748
0
LINE
8
BLACK
6
CONTINUOUS
10
145.923
20
-50.8748
11
145.939
21
-50.8798
0
LINE
8
BLACK
6
CONTINUOUS
10
142.671
20
-50.916
11
142.69
21
-50.9748
0
LINE
8
BLACK
6
CONTINUOUS
10
142.69
20
-50.9748
11
142.69
21
-52.4033
0
LINE
8
BLACK
6
CONTINUOUS
10
142.69
20
-52.4033
11
142.685
21
-52.4187
0
LINE
8
BLACK
6
CONTINUOUS
10
142.685
20
-52.4187
11
142.685
21
-52.435
0
LINE
8
BLACK
6
CONTINUOUS
10
142.685
20
-52.435
11
142.589
21
-52.7207
0
LINE
8
BLACK
6
CONTINUOUS
10
142.589
20
-52.7207
11
142.576
21
-52.7392
0
LINE
8
BLACK
6
CONTINUOUS
10
142.576
20
-52.7392
11
142.565
21
-52.7598
0
LINE
8
BLACK
6
CONTINUOUS
10
142.565
20
-52.7598
11
142.375
21
-52.9502
0
LINE
8
BLACK
6
CONTINUOUS
10
142.375
20
-52.9502
11
142.354
21
-52.9607
0
LINE
8
BLACK
6
CONTINUOUS
10
142.354
20
-52.9607
11
142.336
21
-52.9744
0
LINE
8
BLACK
6
CONTINUOUS
10
142.336
20
-52.9744
11
142.05
21
-53.0696
0
LINE
8
BLACK
6
CONTINUOUS
10
142.05
20
-53.0696
11
142.034
21
-53.0698
0
LINE
8
BLACK
6
CONTINUOUS
10
142.034
20
-53.0698
11
142.018
21
-53.0748
0
LINE
8
BLACK
6
CONTINUOUS
10
142.018
20
-53.0748
11
141.828
21
-53.0748
0
LINE
8
BLACK
6
CONTINUOUS
10
141.828
20
-53.0748
11
141.769
21
-53.0557
0
LINE
8
BLACK
6
CONTINUOUS
10
141.769
20
-53.0557
11
141.733
21
-53.0057
0
LINE
8
BLACK
6
CONTINUOUS
10
141.733
20
-53.0057
11
141.733
21
-52.9439
0
LINE
8
BLACK
6
CONTINUOUS
10
141.733
20
-52.9439
11
141.769
21
-52.8939
0
LINE
8
BLACK
6
CONTINUOUS
10
141.769
20
-52.8939
11
141.828
21
-52.8748
0
LINE
8
BLACK
6
CONTINUOUS
10
141.828
20
-52.8748
11
142.002
21
-52.8748
0
LINE
8
BLACK
6
CONTINUOUS
10
142.002
20
-52.8748
11
142.25
21
-52.7921
0
LINE
8
BLACK
6
CONTINUOUS
10
142.25
20
-52.7921
11
142.407
21
-52.635
0
LINE
8
BLACK
6
CONTINUOUS
10
142.407
20
-52.635
11
142.49
21
-52.3871
0
LINE
8
BLACK
6
CONTINUOUS
10
142.49
20
-52.3871
11
142.49
21
-50.9748
0
LINE
8
BLACK
6
CONTINUOUS
10
142.49
20
-50.9748
11
142.509
21
-50.916
0
LINE
8
BLACK
6
CONTINUOUS
10
142.509
20
-50.916
11
142.559
21
-50.8797
0
LINE
8
BLACK
6
CONTINUOUS
10
142.559
20
-50.8797
11
142.621
21
-50.8797
0
LINE
8
BLACK
6
CONTINUOUS
10
142.621
20
-50.8797
11
142.671
21
-50.916
0
LINE
8
BLACK
6
CONTINUOUS
10
153.909
20
-50.916
11
153.928
21
-50.9748
0
LINE
8
BLACK
6
CONTINUOUS
10
153.928
20
-50.9748
11
153.928
21
-52.8748
0
LINE
8
BLACK
6
CONTINUOUS
10
153.928
20
-52.8748
11
154.78
21
-52.8748
0
LINE
8
BLACK
6
CONTINUOUS
10
154.78
20
-52.8748
11
154.839
21
-52.8939
0
LINE
8
BLACK
6
CONTINUOUS
10
154.839
20
-52.8939
11
154.875
21
-52.9439
0
LINE
8
BLACK
6
CONTINUOUS
10
154.875
20
-52.9439
11
154.875
21
-53.0057
0
LINE
8
BLACK
6
CONTINUOUS
10
154.875
20
-53.0057
11
154.839
21
-53.0557
0
LINE
8
BLACK
6
CONTINUOUS
10
154.839
20
-53.0557
11
154.78
21
-53.0748
0
LINE
8
BLACK
6
CONTINUOUS
10
154.78
20
-53.0748
11
153.828
21
-53.0748
0
LINE
8
BLACK
6
CONTINUOUS
10
153.828
20
-53.0748
11
153.813
21
-53.0699
0
LINE
8
BLACK
6
CONTINUOUS
10
153.813
20
-53.0699
11
153.797
21
-53.0699
0
LINE
8
BLACK
6
CONTINUOUS
10
153.797
20
-53.0699
11
153.784
21
-53.0606
0
LINE
8
BLACK
6
CONTINUOUS
10
153.784
20
-53.0606
11
153.769
21
-53.0557
0
LINE
8
BLACK
6
CONTINUOUS
10
153.769
20
-53.0557
11
153.76
21
-53.0428
0
LINE
8
BLACK
6
CONTINUOUS
10
153.76
20
-53.0428
11
153.747
21
-53.0335
0
LINE
8
BLACK
6
CONTINUOUS
10
153.747
20
-53.0335
11
153.742
21
-53.0185
0
LINE
8
BLACK
6
CONTINUOUS
10
153.742
20
-53.0185
11
153.733
21
-53.0057
0
LINE
8
BLACK
6
CONTINUOUS
10
153.733
20
-53.0057
11
153.733
21
-52.9898
0
LINE
8
BLACK
6
CONTINUOUS
10
153.733
20
-52.9898
11
153.728
21
-52.9748
0
LINE
8
BLACK
6
CONTINUOUS
10
153.728
20
-52.9748
11
153.728
21
-50.9748
0
LINE
8
BLACK
6
CONTINUOUS
10
153.728
20
-50.9748
11
153.747
21
-50.916
0
LINE
8
BLACK
6
CONTINUOUS
10
153.747
20
-50.916
11
153.797
21
-50.8797
0
LINE
8
BLACK
6
CONTINUOUS
10
153.797
20
-50.8797
11
153.859
21
-50.8797
0
LINE
8
BLACK
6
CONTINUOUS
10
153.859
20
-50.8797
11
153.909
21
-50.916
0
LINE
8
BLACK
6
CONTINUOUS
10
156.224
20
-50.8798
11
156.24
21
-50.8799
0
LINE
8
BLACK
6
CONTINUOUS
10
156.24
20
-50.8799
11
156.526
21
-50.9751
0
LINE
8
BLACK
6
CONTINUOUS
10
156.526
20
-50.9751
11
156.545
21
-50.9888
0
LINE
8
BLACK
6
CONTINUOUS
10
156.545
20
-50.9888
11
156.565
21
-50.9993
0
LINE
8
BLACK
6
CONTINUOUS
10
156.565
20
-50.9993
11
156.66
21
-51.0945
0
LINE
8
BLACK
6
CONTINUOUS
10
156.66
20
-51.0945
11
156.689
21
-51.1496
0
LINE
8
BLACK
6
CONTINUOUS
10
156.689
20
-51.1496
11
156.679
21
-51.2106
0
LINE
8
BLACK
6
CONTINUOUS
10
156.679
20
-51.2106
11
156.635
21
-51.2543
0
LINE
8
BLACK
6
CONTINUOUS
10
156.635
20
-51.2543
11
156.574
21
-51.264
0
LINE
8
BLACK
6
CONTINUOUS
10
156.574
20
-51.264
11
156.519
21
-51.2359
0
LINE
8
BLACK
6
CONTINUOUS
10
156.519
20
-51.2359
11
156.441
21
-51.1574
0
LINE
8
BLACK
6
CONTINUOUS
10
156.441
20
-51.1574
11
156.193
21
-51.0748
0
LINE
8
BLACK
6
CONTINUOUS
10
156.193
20
-51.0748
11
156.035
21
-51.0748
0
LINE
8
BLACK
6
CONTINUOUS
10
156.035
20
-51.0748
11
155.787
21
-51.1574
0
LINE
8
BLACK
6
CONTINUOUS
10
155.787
20
-51.1574
11
155.624
21
-51.3197
0
LINE
8
BLACK
6
CONTINUOUS
10
155.624
20
-51.3197
11
155.541
21
-51.4859
0
LINE
8
BLACK
6
CONTINUOUS
10
155.541
20
-51.4859
11
155.452
21
-51.8442
0
LINE
8
BLACK
6
CONTINUOUS
10
155.452
20
-51.8442
11
155.452
21
-52.1053
0
LINE
8
BLACK
6
CONTINUOUS
10
155.452
20
-52.1053
11
155.541
21
-52.4637
0
LINE
8
BLACK
6
CONTINUOUS
10
155.541
20
-52.4637
11
155.624
21
-52.6298
0
LINE
8
BLACK
6
CONTINUOUS
10
155.624
20
-52.6298
11
155.787
21
-52.7921
0
LINE
8
BLACK
6
CONTINUOUS
10
155.787
20
-52.7921
11
156.035
21
-52.8748
0
LINE
8
BLACK
6
CONTINUOUS
10
156.035
20
-52.8748
11
156.193
21
-52.8748
0
LINE
8
BLACK
6
CONTINUOUS
10
156.193
20
-52.8748
11
156.441
21
-52.7921
0
LINE
8
BLACK
6
CONTINUOUS
10
156.441
20
-52.7921
11
156.519
21
-52.7136
0
LINE
8
BLACK
6
CONTINUOUS
10
156.519
20
-52.7136
11
156.574
21
-52.6855
0
LINE
8
BLACK
6
CONTINUOUS
10
156.574
20
-52.6855
11
156.635
21
-52.6952
0
LINE
8
BLACK
6
CONTINUOUS
10
156.635
20
-52.6952
11
156.679
21
-52.7389
0
LINE
8
BLACK
6
CONTINUOUS
10
156.679
20
-52.7389
11
156.689
21
-52.7999
0
LINE
8
BLACK
6
CONTINUOUS
10
156.689
20
-52.7999
11
156.66
21
-52.855
0
LINE
8
BLACK
6
CONTINUOUS
10
156.66
20
-52.855
11
156.565
21
-52.9502
0
LINE
8
BLACK
6
CONTINUOUS
10
156.565
20
-52.9502
11
156.545
21
-52.9607
0
LINE
8
BLACK
6
CONTINUOUS
10
156.545
20
-52.9607
11
156.526
21
-52.9744
0
LINE
8
BLACK
6
CONTINUOUS
10
156.526
20
-52.9744
11
156.24
21
-53.0696
0
LINE
8
BLACK
6
CONTINUOUS
10
156.24
20
-53.0696
11
156.224
21
-53.0698
0
LINE
8
BLACK
6
CONTINUOUS
10
156.224
20
-53.0698
11
156.209
21
-53.0748
0
LINE
8
BLACK
6
CONTINUOUS
10
156.209
20
-53.0748
11
156.018
21
-53.0748
0
LINE
8
BLACK
6
CONTINUOUS
10
156.018
20
-53.0748
11
156.003
21
-53.0698
0
LINE
8
BLACK
6
CONTINUOUS
10
156.003
20
-53.0698
11
155.987
21
-53.0696
0
LINE
8
BLACK
6
CONTINUOUS
10
155.987
20
-53.0696
11
155.701
21
-52.9744
0
LINE
8
BLACK
6
CONTINUOUS
10
155.701
20
-52.9744
11
155.682
21
-52.9607
0
LINE
8
BLACK
6
CONTINUOUS
10
155.682
20
-52.9607
11
155.662
21
-52.9502
0
LINE
8
BLACK
6
CONTINUOUS
10
155.662
20
-52.9502
11
155.471
21
-52.7598
0
LINE
8
BLACK
6
CONTINUOUS
10
155.471
20
-52.7598
11
155.464
21
-52.7453
0
LINE
8
BLACK
6
CONTINUOUS
10
155.464
20
-52.7453
11
155.453
21
-52.7338
0
LINE
8
BLACK
6
CONTINUOUS
10
155.453
20
-52.7338
11
155.357
21
-52.5433
0
LINE
8
BLACK
6
CONTINUOUS
10
155.357
20
-52.5433
11
155.356
21
-52.5323
0
LINE
8
BLACK
6
CONTINUOUS
10
155.356
20
-52.5323
11
155.35
21
-52.5228
0
LINE
8
BLACK
6
CONTINUOUS
10
155.35
20
-52.5228
11
155.255
21
-52.1419
0
LINE
8
BLACK
6
CONTINUOUS
10
155.255
20
-52.1419
11
155.256
21
-52.1295
0
LINE
8
BLACK
6
CONTINUOUS
10
155.256
20
-52.1295
11
155.252
21
-52.1176
0
LINE
8
BLACK
6
CONTINUOUS
10
155.252
20
-52.1176
11
155.252
21
-51.8319
0
LINE
8
BLACK
6
CONTINUOUS
10
155.252
20
-51.8319
11
155.256
21
-51.8201
0
LINE
8
BLACK
6
CONTINUOUS
10
155.256
20
-51.8201
11
155.255
21
-51.8076
0
LINE
8
BLACK
6
CONTINUOUS
10
155.255
20
-51.8076
11
155.35
21
-51.4267
0
LINE
8
BLACK
6
CONTINUOUS
10
155.35
20
-51.4267
11
155.356
21
-51.4173
0
LINE
8
BLACK
6
CONTINUOUS
10
155.356
20
-51.4173
11
155.357
21
-51.4062
0
LINE
8
BLACK
6
CONTINUOUS
10
155.357
20
-51.4062
11
155.453
21
-51.2158
0
LINE
8
BLACK
6
CONTINUOUS
10
155.453
20
-51.2158
11
155.464
21
-51.2042
0
LINE
8
BLACK
6
CONTINUOUS
10
155.464
20
-51.2042
11
155.471
21
-51.1898
0
LINE
8
BLACK
6
CONTINUOUS
10
155.471
20
-51.1898
11
155.662
21
-50.9993
0
LINE
8
BLACK
6
CONTINUOUS
10
155.662
20
-50.9993
11
155.682
21
-50.9888
0
LINE
8
BLACK
6
CONTINUOUS
10
155.682
20
-50.9888
11
155.701
21
-50.9751
0
LINE
8
BLACK
6
CONTINUOUS
10
155.701
20
-50.9751
11
155.987
21
-50.8799
0
LINE
8
BLACK
6
CONTINUOUS
10
155.987
20
-50.8799
11
156.003
21
-50.8798
0
LINE
8
BLACK
6
CONTINUOUS
10
156.003
20
-50.8798
11
156.018
21
-50.8748
0
LINE
8
BLACK
6
CONTINUOUS
10
156.018
20
-50.8748
11
156.209
21
-50.8748
0
LINE
8
BLACK
6
CONTINUOUS
10
156.209
20
-50.8748
11
156.224
21
-50.8798
0
LINE
8
BLACK
6
CONTINUOUS
10
140.796
20
-50.8798
11
140.812
21
-50.8799
0
LINE
8
BLACK
6
CONTINUOUS
10
140.812
20
-50.8799
11
141.098
21
-50.9751
0
LINE
8
BLACK
6
CONTINUOUS
10
141.098
20
-50.9751
11
141.116
21
-50.9888
0
LINE
8
BLACK
6
CONTINUOUS
10
141.116
20
-50.9888
11
141.137
21
-50.9993
0
LINE
8
BLACK
6
CONTINUOUS
10
141.137
20
-50.9993
11
141.232
21
-51.0945
0
LINE
8
BLACK
6
CONTINUOUS
10
141.232
20
-51.0945
11
141.26
21
-51.1496
0
LINE
8
BLACK
6
CONTINUOUS
10
141.26
20
-51.1496
11
141.25
21
-51.2106
0
LINE
8
BLACK
6
CONTINUOUS
10
141.25
20
-51.2106
11
141.207
21
-51.2543
0
LINE
8
BLACK
6
CONTINUOUS
10
141.207
20
-51.2543
11
141.146
21
-51.264
0
LINE
8
BLACK
6
CONTINUOUS
10
141.146
20
-51.264
11
141.09
21
-51.2359
0
LINE
8
BLACK
6
CONTINUOUS
10
141.09
20
-51.2359
11
141.012
21
-51.1574
0
LINE
8
BLACK
6
CONTINUOUS
10
141.012
20
-51.1574
11
140.764
21
-51.0748
0
LINE
8
BLACK
6
CONTINUOUS
10
140.764
20
-51.0748
11
140.606
21
-51.0748
0
LINE
8
BLACK
6
CONTINUOUS
10
140.606
20
-51.0748
11
140.358
21
-51.1574
0
LINE
8
BLACK
6
CONTINUOUS
10
140.358
20
-51.1574
11
140.196
21
-51.3197
0
LINE
8
BLACK
6
CONTINUOUS
10
140.196
20
-51.3197
11
140.113
21
-51.4859
0
LINE
8
BLACK
6
CONTINUOUS
10
140.113
20
-51.4859
11
140.023
21
-51.8442
0
LINE
8
BLACK
6
CONTINUOUS
10
140.023
20
-51.8442
11
140.023
21
-52.1053
0
LINE
8
BLACK
6
CONTINUOUS
10
140.023
20
-52.1053
11
140.113
21
-52.4637
0
LINE
8
BLACK
6
CONTINUOUS
10
140.113
20
-52.4637
11
140.196
21
-52.6298
0
LINE
8
BLACK
6
CONTINUOUS
10
140.196
20
-52.6298
11
140.358
21
-52.7921
0
LINE
8
BLACK
6
CONTINUOUS
10
140.358
20
-52.7921
11
140.606
21
-52.8748
0
LINE
8
BLACK
6
CONTINUOUS
10
140.606
20
-52.8748
11
140.764
21
-52.8748
0
LINE
8
BLACK
6
CONTINUOUS
10
140.764
20
-52.8748
11
141.012
21
-52.7921
0
LINE
8
BLACK
6
CONTINUOUS
10
141.012
20
-52.7921
11
141.09
21
-52.7136
0
LINE
8
BLACK
6
CONTINUOUS
10
141.09
20
-52.7136
11
141.146
21
-52.6855
0
LINE
8
BLACK
6
CONTINUOUS
10
141.146
20
-52.6855
11
141.207
21
-52.6952
0
LINE
8
BLACK
6
CONTINUOUS
10
141.207
20
-52.6952
11
141.25
21
-52.7389
0
LINE
8
BLACK
6
CONTINUOUS
10
141.25
20
-52.7389
11
141.26
21
-52.7999
0
LINE
8
BLACK
6
CONTINUOUS
10
141.26
20
-52.7999
11
141.232
21
-52.855
0
LINE
8
BLACK
6
CONTINUOUS
10
141.232
20
-52.855
11
141.137
21
-52.9502
0
LINE
8
BLACK
6
CONTINUOUS
10
141.137
20
-52.9502
11
141.116
21
-52.9607
0
LINE
8
BLACK
6
CONTINUOUS
10
141.116
20
-52.9607
11
141.098
21
-52.9744
0
LINE
8
BLACK
6
CONTINUOUS
10
141.098
20
-52.9744
11
140.812
21
-53.0696
0
LINE
8
BLACK
6
CONTINUOUS
10
140.812
20
-53.0696
11
140.796
21
-53.0698
0
LINE
8
BLACK
6
CONTINUOUS
10
140.796
20
-53.0698
11
140.78
21
-53.0748
0
LINE
8
BLACK
6
CONTINUOUS
10
140.78
20
-53.0748
11
140.59
21
-53.0748
0
LINE
8
BLACK
6
CONTINUOUS
10
140.59
20
-53.0748
11
140.574
21
-53.0698
0
LINE
8
BLACK
6
CONTINUOUS
10
140.574
20
-53.0698
11
140.558
21
-53.0696
0
LINE
8
BLACK
6
CONTINUOUS
10
140.558
20
-53.0696
11
140.272
21
-52.9744
0
LINE
8
BLACK
6
CONTINUOUS
10
140.272
20
-52.9744
11
140.254
21
-52.9607
0
LINE
8
BLACK
6
CONTINUOUS
10
140.254
20
-52.9607
11
140.233
21
-52.9502
0
LINE
8
BLACK
6
CONTINUOUS
10
140.233
20
-52.9502
11
140.043
21
-52.7598
0
LINE
8
BLACK
6
CONTINUOUS
10
140.043
20
-52.7598
11
140.036
21
-52.7453
0
LINE
8
BLACK
6
CONTINUOUS
10
140.036
20
-52.7453
11
140.024
21
-52.7338
0
LINE
8
BLACK
6
CONTINUOUS
10
140.024
20
-52.7338
11
139.929
21
-52.5433
0
LINE
8
BLACK
6
CONTINUOUS
10
139.929
20
-52.5433
11
139.927
21
-52.5323
0
LINE
8
BLACK
6
CONTINUOUS
10
139.927
20
-52.5323
11
139.921
21
-52.5228
0
LINE
8
BLACK
6
CONTINUOUS
10
139.921
20
-52.5228
11
139.826
21
-52.1419
0
LINE
8
BLACK
6
CONTINUOUS
10
139.826
20
-52.1419
11
139.827
21
-52.1295
0
LINE
8
BLACK
6
CONTINUOUS
10
139.827
20
-52.1295
11
139.823
21
-52.1176
0
LINE
8
BLACK
6
CONTINUOUS
10
139.823
20
-52.1176
11
139.823
21
-51.8319
0
LINE
8
BLACK
6
CONTINUOUS
10
139.823
20
-51.8319
11
139.827
21
-51.8201
0
LINE
8
BLACK
6
CONTINUOUS
10
139.827
20
-51.8201
11
139.826
21
-51.8076
0
LINE
8
BLACK
6
CONTINUOUS
10
139.826
20
-51.8076
11
139.921
21
-51.4267
0
LINE
8
BLACK
6
CONTINUOUS
10
139.921
20
-51.4267
11
139.927
21
-51.4173
0
LINE
8
BLACK
6
CONTINUOUS
10
139.927
20
-51.4173
11
139.929
21
-51.4062
0
LINE
8
BLACK
6
CONTINUOUS
10
139.929
20
-51.4062
11
140.024
21
-51.2158
0
LINE
8
BLACK
6
CONTINUOUS
10
140.024
20
-51.2158
11
140.036
21
-51.2042
0
LINE
8
BLACK
6
CONTINUOUS
10
140.036
20
-51.2042
11
140.043
21
-51.1898
0
LINE
8
BLACK
6
CONTINUOUS
10
140.043
20
-51.1898
11
140.233
21
-50.9993
0
LINE
8
BLACK
6
CONTINUOUS
10
140.233
20
-50.9993
11
140.254
21
-50.9888
0
LINE
8
BLACK
6
CONTINUOUS
10
140.254
20
-50.9888
11
140.272
21
-50.9751
0
LINE
8
BLACK
6
CONTINUOUS
10
140.272
20
-50.9751
11
140.558
21
-50.8799
0
LINE
8
BLACK
6
CONTINUOUS
10
140.558
20
-50.8799
11
140.574
21
-50.8798
0
LINE
8
BLACK
6
CONTINUOUS
10
140.574
20
-50.8798
11
140.59
21
-50.8748
0
LINE
8
BLACK
6
CONTINUOUS
10
140.59
20
-50.8748
11
140.78
21
-50.8748
0
LINE
8
BLACK
6
CONTINUOUS
10
140.78
20
-50.8748
11
140.796
21
-50.8798
0
LINE
8
BLACK
6
CONTINUOUS
10
137.528
20
-50.916
11
137.547
21
-50.9748
0
LINE
8
BLACK
6
CONTINUOUS
10
137.547
20
-50.9748
11
137.547
21
-52.4033
0
LINE
8
BLACK
6
CONTINUOUS
10
137.547
20
-52.4033
11
137.542
21
-52.4187
0
LINE
8
BLACK
6
CONTINUOUS
10
137.542
20
-52.4187
11
137.542
21
-52.435
0
LINE
8
BLACK
6
CONTINUOUS
10
137.542
20
-52.435
11
137.447
21
-52.7207
0
LINE
8
BLACK
6
CONTINUOUS
10
137.447
20
-52.7207
11
137.433
21
-52.7392
0
LINE
8
BLACK
6
CONTINUOUS
10
137.433
20
-52.7392
11
137.422
21
-52.7598
0
LINE
8
BLACK
6
CONTINUOUS
10
137.422
20
-52.7598
11
137.232
21
-52.9502
0
LINE
8
BLACK
6
CONTINUOUS
10
137.232
20
-52.9502
11
137.211
21
-52.9607
0
LINE
8
BLACK
6
CONTINUOUS
10
137.211
20
-52.9607
11
137.193
21
-52.9744
0
LINE
8
BLACK
6
CONTINUOUS
10
137.193
20
-52.9744
11
136.907
21
-53.0696
0
LINE
8
BLACK
6
CONTINUOUS
10
136.907
20
-53.0696
11
136.891
21
-53.0698
0
LINE
8
BLACK
6
CONTINUOUS
10
136.891
20
-53.0698
11
136.875
21
-53.0748
0
LINE
8
BLACK
6
CONTINUOUS
10
136.875
20
-53.0748
11
136.685
21
-53.0748
0
LINE
8
BLACK
6
CONTINUOUS
10
136.685
20
-53.0748
11
136.626
21
-53.0557
0
LINE
8
BLACK
6
CONTINUOUS
10
136.626
20
-53.0557
11
136.59
21
-53.0057
0
LINE
8
BLACK
6
CONTINUOUS
10
136.59
20
-53.0057
11
136.59
21
-52.9439
0
LINE
8
BLACK
6
CONTINUOUS
10
136.59
20
-52.9439
11
136.626
21
-52.8939
0
LINE
8
BLACK
6
CONTINUOUS
10
136.626
20
-52.8939
11
136.685
21
-52.8748
0
LINE
8
BLACK
6
CONTINUOUS
10
136.685
20
-52.8748
11
136.859
21
-52.8748
0
LINE
8
BLACK
6
CONTINUOUS
10
136.859
20
-52.8748
11
137.107
21
-52.7921
0
LINE
8
BLACK
6
CONTINUOUS
10
137.107
20
-52.7921
11
137.264
21
-52.635
0
LINE
8
BLACK
6
CONTINUOUS
10
137.264
20
-52.635
11
137.347
21
-52.3871
0
LINE
8
BLACK
6
CONTINUOUS
10
137.347
20
-52.3871
11
137.347
21
-50.9748
0
LINE
8
BLACK
6
CONTINUOUS
10
137.347
20
-50.9748
11
137.366
21
-50.916
0
LINE
8
BLACK
6
CONTINUOUS
10
137.366
20
-50.916
11
137.416
21
-50.8797
0
LINE
8
BLACK
6
CONTINUOUS
10
137.416
20
-50.8797
11
137.478
21
-50.8797
0
LINE
8
BLACK
6
CONTINUOUS
10
137.478
20
-50.8797
11
137.528
21
-50.916
0
LINE
8
BLACK
6
CONTINUOUS
10
138.48
20
-50.916
11
138.499
21
-50.9748
0
LINE
8
BLACK
6
CONTINUOUS
10
138.499
20
-50.9748
11
138.499
21
-52.8748
0
LINE
8
BLACK
6
CONTINUOUS
10
138.499
20
-52.8748
11
139.352
21
-52.8748
0
LINE
8
BLACK
6
CONTINUOUS
10
139.352
20
-52.8748
11
139.41
21
-52.8939
0
LINE
8
BLACK
6
CONTINUOUS
10
139.41
20
-52.8939
11
139.447
21
-52.9439
0
LINE
8
BLACK
6
CONTINUOUS
10
139.447
20
-52.9439
11
139.447
21
-53.0057
0
LINE
8
BLACK
6
CONTINUOUS
10
139.447
20
-53.0057
11
139.41
21
-53.0557
0
LINE
8
BLACK
6
CONTINUOUS
10
139.41
20
-53.0557
11
139.352
21
-53.0748
0
LINE
8
BLACK
6
CONTINUOUS
10
139.352
20
-53.0748
11
138.399
21
-53.0748
0
LINE
8
BLACK
6
CONTINUOUS
10
138.399
20
-53.0748
11
138.384
21
-53.0699
0
LINE
8
BLACK
6
CONTINUOUS
10
138.384
20
-53.0699
11
138.368
21
-53.0699
0
LINE
8
BLACK
6
CONTINUOUS
10
138.368
20
-53.0699
11
138.356
21
-53.0606
0
LINE
8
BLACK
6
CONTINUOUS
10
138.356
20
-53.0606
11
138.341
21
-53.0557
0
LINE
8
BLACK
6
CONTINUOUS
10
138.341
20
-53.0557
11
138.331
21
-53.0428
0
LINE
8
BLACK
6
CONTINUOUS
10
138.331
20
-53.0428
11
138.318
21
-53.0335
0
LINE
8
BLACK
6
CONTINUOUS
10
138.318
20
-53.0335
11
138.313
21
-53.0185
0
LINE
8
BLACK
6
CONTINUOUS
10
138.313
20
-53.0185
11
138.304
21
-53.0057
0
LINE
8
BLACK
6
CONTINUOUS
10
138.304
20
-53.0057
11
138.304
21
-52.9898
0
LINE
8
BLACK
6
CONTINUOUS
10
138.304
20
-52.9898
11
138.299
21
-52.9748
0
LINE
8
BLACK
6
CONTINUOUS
10
138.299
20
-52.9748
11
138.299
21
-50.9748
0
LINE
8
BLACK
6
CONTINUOUS
10
138.299
20
-50.9748
11
138.318
21
-50.916
0
LINE
8
BLACK
6
CONTINUOUS
10
138.318
20
-50.916
11
138.368
21
-50.8797
0
LINE
8
BLACK
6
CONTINUOUS
10
138.368
20
-50.8797
11
138.43
21
-50.8797
0
LINE
8
BLACK
6
CONTINUOUS
10
138.43
20
-50.8797
11
138.48
21
-50.916
0
CIRCLE
8
BLACK
10
83.6121
20
-50.3729
40
0.25
0
CIRCLE
8
BLACK
10
80.2179
20
-53.7671
40
0.25
0
CIRCLE
8
BLACK
10
79.515
20
-52.07
40
0.25
0
CIRCLE
8
BLACK
10
83.6121
20
-53.7671
40
0.25
0
CIRCLE
8
BLACK
10
84.315
20
-52.07
40
0.25
0
CIRCLE
8
BLACK
10
81.915
20
-54.47
40
0.25
0
CIRCLE
8
BLACK
10
81.915
20
-52.07
40
1.6
0
CIRCLE
8
BLACK
10
80.2179
20
-50.3729
40
0.25
0
CIRCLE
8
BLACK
10
81.915
20
-49.67
40
0.25
0
CIRCLE
8
BLACK
10
211.315
20
-52.07
40
0.25
0
CIRCLE
8
BLACK
10
210.612
20
-53.7671
40
0.25
0
CIRCLE
8
BLACK
10
208.915
20
-54.47
40
0.25
0
CIRCLE
8
BLACK
10
208.915
20
-49.67
40
0.25
0
CIRCLE
8
BLACK
10
206.515
20
-52.07
40
0.25
0
CIRCLE
8
BLACK
10
207.218
20
-53.7671
40
0.25
0
CIRCLE
8
BLACK
10
210.612
20
-50.3729
40
0.25
0
CIRCLE
8
BLACK
10
208.915
20
-52.07
40
1.6
0
CIRCLE
8
BLACK
10
207.218
20
-50.3729
40
0.25
  0
ENDSEC
  0
EOF
