G04 #@! TF.GenerationSoftware,KiCad,Pcbnew,6.0.6-3a73a75311~116~ubuntu22.04.1*
G04 #@! TF.CreationDate,2022-07-13T12:19:01-04:00*
G04 #@! TF.ProjectId,stereo_whooshy_sound_front_panel,73746572-656f-45f7-9768-6f6f7368795f,0*
G04 #@! TF.SameCoordinates,Original*
G04 #@! TF.FileFunction,Profile,NP*
%FSLAX46Y46*%
G04 Gerber Fmt 4.6, Leading zero omitted, Abs format (unit mm)*
G04 Created by KiCad (PCBNEW 6.0.6-3a73a75311~116~ubuntu22.04.1) date 2022-07-13 12:19:01*
%MOMM*%
%LPD*%
G01*
G04 APERTURE LIST*
G04 #@! TA.AperFunction,Profile*
%ADD10C,0.050000*%
G04 #@! TD*
G04 APERTURE END LIST*
D10*
X121795000Y-116840000D02*
G75*
G03*
X121795000Y-116840000I-3050000J0D01*
G01*
X99345000Y-139700000D02*
G75*
G03*
X99345000Y-139700000I-6000000J0D01*
G01*
X184795000Y-139700000D02*
G75*
G03*
X184795000Y-139700000I-2550000J0D01*
G01*
X111135000Y-139700000D02*
G75*
G03*
X111135000Y-139700000I-2550000J0D01*
G01*
X81915000Y-46990000D02*
X208915000Y-46990000D01*
X213995000Y-52070000D02*
G75*
G03*
X208915000Y-46990000I-5080000J0D01*
G01*
X203575000Y-95250000D02*
G75*
G03*
X203575000Y-95250000I-3550000J0D01*
G01*
X76835000Y-146050000D02*
G75*
G03*
X81915000Y-151130000I5080000J0D01*
G01*
X176905000Y-116840000D02*
G75*
G03*
X176905000Y-116840000I-3550000J0D01*
G01*
X94355000Y-95250000D02*
G75*
G03*
X94355000Y-95250000I-3550000J0D01*
G01*
X122295000Y-95250000D02*
G75*
G03*
X122295000Y-95250000I-3550000J0D01*
G01*
X76835000Y-146050000D02*
X76835000Y-52070000D01*
X149735000Y-73660000D02*
G75*
G03*
X149735000Y-73660000I-3050000J0D01*
G01*
X213995000Y-52070000D02*
X213995000Y-146050000D01*
X81915000Y-46990000D02*
G75*
G03*
X76835000Y-52070000I0J-5080000D01*
G01*
X94355000Y-73660000D02*
G75*
G03*
X94355000Y-73660000I-3550000J0D01*
G01*
X208915000Y-151130000D02*
X81915000Y-151130000D01*
X203485000Y-139700000D02*
G75*
G03*
X203485000Y-139700000I-6000000J0D01*
G01*
X149735000Y-95250000D02*
G75*
G03*
X149735000Y-95250000I-3050000J0D01*
G01*
X176905000Y-73660000D02*
G75*
G03*
X176905000Y-73660000I-3550000J0D01*
G01*
X176905000Y-95250000D02*
G75*
G03*
X176905000Y-95250000I-3550000J0D01*
G01*
X208915000Y-151130000D02*
G75*
G03*
X213995000Y-146050000I0J5080000D01*
G01*
X94355000Y-116840000D02*
G75*
G03*
X94355000Y-116840000I-3550000J0D01*
G01*
X149735000Y-116840000D02*
G75*
G03*
X149735000Y-116840000I-3050000J0D01*
G01*
X203575000Y-73660000D02*
G75*
G03*
X203575000Y-73660000I-3550000J0D01*
G01*
X122295000Y-73660000D02*
G75*
G03*
X122295000Y-73660000I-3550000J0D01*
G01*
X203575000Y-116840000D02*
G75*
G03*
X203575000Y-116840000I-3550000J0D01*
G01*
M02*
