G04 #@! TF.GenerationSoftware,KiCad,Pcbnew,6.0.6-3a73a75311~116~ubuntu22.04.1*
G04 #@! TF.CreationDate,2022-07-13T12:19:01-04:00*
G04 #@! TF.ProjectId,stereo_whooshy_sound_front_panel,73746572-656f-45f7-9768-6f6f7368795f,0*
G04 #@! TF.SameCoordinates,Original*
G04 #@! TF.FileFunction,Copper,L1,Top*
G04 #@! TF.FilePolarity,Positive*
%FSLAX46Y46*%
G04 Gerber Fmt 4.6, Leading zero omitted, Abs format (unit mm)*
G04 Created by KiCad (PCBNEW 6.0.6-3a73a75311~116~ubuntu22.04.1) date 2022-07-13 12:19:01*
%MOMM*%
%LPD*%
G01*
G04 APERTURE LIST*
G04 #@! TA.AperFunction,ComponentPad*
%ADD10C,0.800000*%
G04 #@! TD*
G04 #@! TA.AperFunction,ComponentPad*
%ADD11C,6.400000*%
G04 #@! TD*
G04 APERTURE END LIST*
D10*
X83612056Y-50372944D03*
X80217944Y-53767056D03*
X79515000Y-52070000D03*
X83612056Y-53767056D03*
X84315000Y-52070000D03*
X81915000Y-54470000D03*
D11*
X81915000Y-52070000D03*
D10*
X80217944Y-50372944D03*
X81915000Y-49670000D03*
X211315000Y-52070000D03*
X210612056Y-53767056D03*
X208915000Y-54470000D03*
X208915000Y-49670000D03*
X206515000Y-52070000D03*
X207217944Y-53767056D03*
X210612056Y-50372944D03*
D11*
X208915000Y-52070000D03*
D10*
X207217944Y-50372944D03*
G04 #@! TA.AperFunction,Conductor*
G36*
X208885018Y-47500000D02*
G01*
X208899851Y-47502310D01*
X208899855Y-47502310D01*
X208908724Y-47503691D01*
X208929183Y-47501016D01*
X208951008Y-47500072D01*
X209307937Y-47515656D01*
X209318886Y-47516614D01*
X209703379Y-47567233D01*
X209714205Y-47569142D01*
X210092822Y-47653080D01*
X210103439Y-47655925D01*
X210273702Y-47709608D01*
X210473302Y-47772542D01*
X210483615Y-47776295D01*
X210841932Y-47924715D01*
X210851876Y-47929353D01*
X211195867Y-48108423D01*
X211205387Y-48113919D01*
X211532468Y-48322292D01*
X211541472Y-48328597D01*
X211849138Y-48564678D01*
X211857558Y-48571743D01*
X212143483Y-48833744D01*
X212151252Y-48841513D01*
X212164682Y-48856169D01*
X212413257Y-49127442D01*
X212420322Y-49135862D01*
X212656403Y-49443528D01*
X212662708Y-49452532D01*
X212871081Y-49779613D01*
X212876576Y-49789132D01*
X212926451Y-49884939D01*
X213055643Y-50133115D01*
X213060289Y-50143077D01*
X213208702Y-50501377D01*
X213212461Y-50511706D01*
X213329075Y-50881561D01*
X213331920Y-50892178D01*
X213415858Y-51270795D01*
X213417767Y-51281621D01*
X213468386Y-51666114D01*
X213469344Y-51677064D01*
X213484603Y-52026552D01*
X213483223Y-52051429D01*
X213481309Y-52063724D01*
X213482473Y-52072626D01*
X213482473Y-52072628D01*
X213485436Y-52095283D01*
X213486500Y-52111621D01*
X213486500Y-146000633D01*
X213485000Y-146020018D01*
X213482690Y-146034851D01*
X213482690Y-146034855D01*
X213481309Y-146043724D01*
X213483984Y-146064183D01*
X213484928Y-146086008D01*
X213469344Y-146442936D01*
X213468386Y-146453886D01*
X213417767Y-146838379D01*
X213415858Y-146849205D01*
X213331920Y-147227822D01*
X213329075Y-147238439D01*
X213212461Y-147608294D01*
X213208702Y-147618623D01*
X213060289Y-147976923D01*
X213055643Y-147986885D01*
X212876577Y-148330867D01*
X212871081Y-148340387D01*
X212662708Y-148667468D01*
X212656403Y-148676472D01*
X212420322Y-148984138D01*
X212413257Y-148992558D01*
X212151256Y-149278483D01*
X212143483Y-149286256D01*
X211857558Y-149548257D01*
X211849138Y-149555322D01*
X211541472Y-149791403D01*
X211532468Y-149797708D01*
X211205387Y-150006081D01*
X211195868Y-150011576D01*
X210851876Y-150190647D01*
X210841932Y-150195285D01*
X210483615Y-150343705D01*
X210473302Y-150347458D01*
X210273702Y-150410392D01*
X210103439Y-150464075D01*
X210092822Y-150466920D01*
X209714205Y-150550858D01*
X209703379Y-150552767D01*
X209318886Y-150603386D01*
X209307937Y-150604344D01*
X208958446Y-150619603D01*
X208933571Y-150618223D01*
X208921276Y-150616309D01*
X208912374Y-150617473D01*
X208912372Y-150617473D01*
X208897323Y-150619441D01*
X208889714Y-150620436D01*
X208873379Y-150621500D01*
X81964367Y-150621500D01*
X81944982Y-150620000D01*
X81930149Y-150617690D01*
X81930145Y-150617690D01*
X81921276Y-150616309D01*
X81900817Y-150618984D01*
X81878992Y-150619928D01*
X81522063Y-150604344D01*
X81511114Y-150603386D01*
X81126621Y-150552767D01*
X81115795Y-150550858D01*
X80737178Y-150466920D01*
X80726561Y-150464075D01*
X80556298Y-150410392D01*
X80356698Y-150347458D01*
X80346385Y-150343705D01*
X79988068Y-150195285D01*
X79978124Y-150190647D01*
X79634132Y-150011576D01*
X79624613Y-150006081D01*
X79297532Y-149797708D01*
X79288528Y-149791403D01*
X78980862Y-149555322D01*
X78972442Y-149548257D01*
X78686517Y-149286256D01*
X78678744Y-149278483D01*
X78416743Y-148992558D01*
X78409678Y-148984138D01*
X78173597Y-148676472D01*
X78167292Y-148667468D01*
X77958919Y-148340387D01*
X77953423Y-148330867D01*
X77774357Y-147986885D01*
X77769711Y-147976923D01*
X77621298Y-147618623D01*
X77617539Y-147608294D01*
X77500925Y-147238439D01*
X77498080Y-147227822D01*
X77414142Y-146849205D01*
X77412233Y-146838379D01*
X77361614Y-146453886D01*
X77360656Y-146442936D01*
X77345561Y-146097206D01*
X77347188Y-146070805D01*
X77347769Y-146067352D01*
X77347770Y-146067345D01*
X77348576Y-146062552D01*
X77348729Y-146050000D01*
X77344773Y-146022376D01*
X77343500Y-146004514D01*
X77343500Y-139700000D01*
X86831478Y-139700000D01*
X86840513Y-139929960D01*
X86851557Y-140211045D01*
X86851846Y-140213488D01*
X86851847Y-140213499D01*
X86881634Y-140465167D01*
X86911670Y-140718939D01*
X87011447Y-141220552D01*
X87150272Y-141712789D01*
X87327290Y-142192617D01*
X87328320Y-142194852D01*
X87328322Y-142194856D01*
X87540372Y-142654829D01*
X87540379Y-142654842D01*
X87541409Y-142657077D01*
X87791310Y-143103306D01*
X88075450Y-143528552D01*
X88392079Y-143930194D01*
X88393756Y-143932009D01*
X88393761Y-143932014D01*
X88650119Y-144209341D01*
X88739244Y-144305756D01*
X89114806Y-144652921D01*
X89516448Y-144969550D01*
X89941694Y-145253690D01*
X90387923Y-145503591D01*
X90390158Y-145504621D01*
X90390171Y-145504628D01*
X90850144Y-145716678D01*
X90852383Y-145717710D01*
X91332211Y-145894728D01*
X91665897Y-145988837D01*
X91822068Y-146032882D01*
X91822073Y-146032883D01*
X91824448Y-146033553D01*
X92326061Y-146133330D01*
X92489981Y-146152731D01*
X92831501Y-146193153D01*
X92831512Y-146193154D01*
X92833955Y-146193443D01*
X93345000Y-146213522D01*
X93856045Y-146193443D01*
X93858488Y-146193154D01*
X93858499Y-146193153D01*
X94200019Y-146152731D01*
X94363939Y-146133330D01*
X94865552Y-146033553D01*
X94867927Y-146032883D01*
X94867932Y-146032882D01*
X95024103Y-145988837D01*
X95357789Y-145894728D01*
X95837617Y-145717710D01*
X95839856Y-145716678D01*
X96299829Y-145504628D01*
X96299842Y-145504621D01*
X96302077Y-145503591D01*
X96748306Y-145253690D01*
X97173552Y-144969550D01*
X97575194Y-144652921D01*
X97950756Y-144305756D01*
X98039881Y-144209341D01*
X98296239Y-143932014D01*
X98296244Y-143932009D01*
X98297921Y-143930194D01*
X98614550Y-143528552D01*
X98898690Y-143103306D01*
X99148591Y-142657077D01*
X99149621Y-142654842D01*
X99149628Y-142654829D01*
X99361678Y-142194856D01*
X99361680Y-142194852D01*
X99362710Y-142192617D01*
X99539728Y-141712789D01*
X99678553Y-141220552D01*
X99778330Y-140718939D01*
X99808366Y-140465167D01*
X99838153Y-140213499D01*
X99838154Y-140213488D01*
X99838443Y-140211045D01*
X99858522Y-139700000D01*
X99856842Y-139657229D01*
X105521980Y-139657229D01*
X105522877Y-139678622D01*
X105536301Y-139998928D01*
X105556024Y-140126332D01*
X105569139Y-140211045D01*
X105588622Y-140336900D01*
X105678290Y-140666934D01*
X105804188Y-140984916D01*
X105805843Y-140988028D01*
X105805845Y-140988033D01*
X105892646Y-141151281D01*
X105964746Y-141286882D01*
X105966736Y-141289788D01*
X105966737Y-141289790D01*
X106155973Y-141566162D01*
X106155978Y-141566168D01*
X106157964Y-141569069D01*
X106381433Y-141827960D01*
X106632367Y-142060328D01*
X106907639Y-142263276D01*
X106910676Y-142265030D01*
X106910680Y-142265032D01*
X107028231Y-142332900D01*
X107203818Y-142434275D01*
X107330715Y-142489715D01*
X107513992Y-142569787D01*
X107513995Y-142569788D01*
X107517213Y-142571194D01*
X107520570Y-142572233D01*
X107520575Y-142572235D01*
X107656434Y-142614290D01*
X107843916Y-142672325D01*
X107847372Y-142672984D01*
X107847371Y-142672984D01*
X108176405Y-142735751D01*
X108176410Y-142735752D01*
X108179856Y-142736409D01*
X108404015Y-142753657D01*
X108517350Y-142762378D01*
X108517351Y-142762378D01*
X108520847Y-142762647D01*
X108733892Y-142755208D01*
X108859122Y-142750835D01*
X108859127Y-142750835D01*
X108862637Y-142750712D01*
X109031801Y-142725732D01*
X109197487Y-142701265D01*
X109197491Y-142701264D01*
X109200966Y-142700751D01*
X109204358Y-142699855D01*
X109204362Y-142699854D01*
X109528210Y-142614290D01*
X109528219Y-142614287D01*
X109531618Y-142613389D01*
X109850471Y-142489715D01*
X110153551Y-142331268D01*
X110437080Y-142140025D01*
X110697525Y-141918369D01*
X110699920Y-141915819D01*
X110699928Y-141915811D01*
X110929227Y-141671631D01*
X110929231Y-141671626D01*
X110931638Y-141669063D01*
X110933743Y-141666249D01*
X110933749Y-141666242D01*
X111134394Y-141398034D01*
X111136503Y-141395215D01*
X111138284Y-141392180D01*
X111307784Y-141103275D01*
X111307787Y-141103270D01*
X111309566Y-141100237D01*
X111346313Y-141017702D01*
X111447237Y-140791023D01*
X111447239Y-140791018D01*
X111448669Y-140787806D01*
X111552079Y-140461816D01*
X111618507Y-140126332D01*
X111629501Y-139995411D01*
X111646942Y-139787715D01*
X111646942Y-139787708D01*
X111647125Y-139785533D01*
X111648319Y-139700000D01*
X111645928Y-139657229D01*
X179181980Y-139657229D01*
X179182877Y-139678622D01*
X179196301Y-139998928D01*
X179216024Y-140126332D01*
X179229139Y-140211045D01*
X179248622Y-140336900D01*
X179338290Y-140666934D01*
X179464188Y-140984916D01*
X179465843Y-140988028D01*
X179465845Y-140988033D01*
X179552646Y-141151281D01*
X179624746Y-141286882D01*
X179626736Y-141289788D01*
X179626737Y-141289790D01*
X179815973Y-141566162D01*
X179815978Y-141566168D01*
X179817964Y-141569069D01*
X180041433Y-141827960D01*
X180292367Y-142060328D01*
X180567639Y-142263276D01*
X180570676Y-142265030D01*
X180570680Y-142265032D01*
X180688231Y-142332900D01*
X180863818Y-142434275D01*
X180990715Y-142489715D01*
X181173992Y-142569787D01*
X181173995Y-142569788D01*
X181177213Y-142571194D01*
X181180570Y-142572233D01*
X181180575Y-142572235D01*
X181316434Y-142614290D01*
X181503916Y-142672325D01*
X181507372Y-142672984D01*
X181507371Y-142672984D01*
X181836405Y-142735751D01*
X181836410Y-142735752D01*
X181839856Y-142736409D01*
X182064015Y-142753657D01*
X182177350Y-142762378D01*
X182177351Y-142762378D01*
X182180847Y-142762647D01*
X182393892Y-142755208D01*
X182519122Y-142750835D01*
X182519127Y-142750835D01*
X182522637Y-142750712D01*
X182691801Y-142725732D01*
X182857487Y-142701265D01*
X182857491Y-142701264D01*
X182860966Y-142700751D01*
X182864358Y-142699855D01*
X182864362Y-142699854D01*
X183188210Y-142614290D01*
X183188219Y-142614287D01*
X183191618Y-142613389D01*
X183510471Y-142489715D01*
X183813551Y-142331268D01*
X184097080Y-142140025D01*
X184357525Y-141918369D01*
X184359920Y-141915819D01*
X184359928Y-141915811D01*
X184589227Y-141671631D01*
X184589231Y-141671626D01*
X184591638Y-141669063D01*
X184593743Y-141666249D01*
X184593749Y-141666242D01*
X184794394Y-141398034D01*
X184796503Y-141395215D01*
X184798284Y-141392180D01*
X184967784Y-141103275D01*
X184967787Y-141103270D01*
X184969566Y-141100237D01*
X185006313Y-141017702D01*
X185107237Y-140791023D01*
X185107239Y-140791018D01*
X185108669Y-140787806D01*
X185212079Y-140461816D01*
X185278507Y-140126332D01*
X185289501Y-139995411D01*
X185306942Y-139787715D01*
X185306942Y-139787708D01*
X185307125Y-139785533D01*
X185308319Y-139700000D01*
X190971478Y-139700000D01*
X190980513Y-139929960D01*
X190991557Y-140211045D01*
X190991846Y-140213488D01*
X190991847Y-140213499D01*
X191021634Y-140465167D01*
X191051670Y-140718939D01*
X191151447Y-141220552D01*
X191290272Y-141712789D01*
X191467290Y-142192617D01*
X191468320Y-142194852D01*
X191468322Y-142194856D01*
X191680372Y-142654829D01*
X191680379Y-142654842D01*
X191681409Y-142657077D01*
X191931310Y-143103306D01*
X192215450Y-143528552D01*
X192532079Y-143930194D01*
X192533756Y-143932009D01*
X192533761Y-143932014D01*
X192790119Y-144209341D01*
X192879244Y-144305756D01*
X193254806Y-144652921D01*
X193656448Y-144969550D01*
X194081694Y-145253690D01*
X194527923Y-145503591D01*
X194530158Y-145504621D01*
X194530171Y-145504628D01*
X194990144Y-145716678D01*
X194992383Y-145717710D01*
X195472211Y-145894728D01*
X195805897Y-145988837D01*
X195962068Y-146032882D01*
X195962073Y-146032883D01*
X195964448Y-146033553D01*
X196466061Y-146133330D01*
X196629981Y-146152731D01*
X196971501Y-146193153D01*
X196971512Y-146193154D01*
X196973955Y-146193443D01*
X197485000Y-146213522D01*
X197996045Y-146193443D01*
X197998488Y-146193154D01*
X197998499Y-146193153D01*
X198340019Y-146152731D01*
X198503939Y-146133330D01*
X199005552Y-146033553D01*
X199007927Y-146032883D01*
X199007932Y-146032882D01*
X199164103Y-145988837D01*
X199497789Y-145894728D01*
X199977617Y-145717710D01*
X199979856Y-145716678D01*
X200439829Y-145504628D01*
X200439842Y-145504621D01*
X200442077Y-145503591D01*
X200888306Y-145253690D01*
X201313552Y-144969550D01*
X201715194Y-144652921D01*
X202090756Y-144305756D01*
X202179881Y-144209341D01*
X202436239Y-143932014D01*
X202436244Y-143932009D01*
X202437921Y-143930194D01*
X202754550Y-143528552D01*
X203038690Y-143103306D01*
X203288591Y-142657077D01*
X203289621Y-142654842D01*
X203289628Y-142654829D01*
X203501678Y-142194856D01*
X203501680Y-142194852D01*
X203502710Y-142192617D01*
X203679728Y-141712789D01*
X203818553Y-141220552D01*
X203918330Y-140718939D01*
X203948366Y-140465167D01*
X203978153Y-140213499D01*
X203978154Y-140213488D01*
X203978443Y-140211045D01*
X203998522Y-139700000D01*
X203978443Y-139188955D01*
X203971518Y-139130440D01*
X203918620Y-138683513D01*
X203918330Y-138681061D01*
X203818553Y-138179448D01*
X203790442Y-138079772D01*
X203773837Y-138020897D01*
X203679728Y-137687211D01*
X203502710Y-137207383D01*
X203501678Y-137205144D01*
X203289628Y-136745171D01*
X203289621Y-136745158D01*
X203288591Y-136742923D01*
X203038690Y-136296694D01*
X202754550Y-135871448D01*
X202437921Y-135469806D01*
X202304856Y-135325856D01*
X202092419Y-135096043D01*
X202090756Y-135094244D01*
X201715194Y-134747079D01*
X201313552Y-134430450D01*
X200888306Y-134146310D01*
X200442077Y-133896409D01*
X200439842Y-133895379D01*
X200439829Y-133895372D01*
X199979856Y-133683322D01*
X199979852Y-133683320D01*
X199977617Y-133682290D01*
X199497789Y-133505272D01*
X199164103Y-133411163D01*
X199007932Y-133367118D01*
X199007927Y-133367117D01*
X199005552Y-133366447D01*
X198503939Y-133266670D01*
X198340020Y-133247269D01*
X197998499Y-133206847D01*
X197998488Y-133206846D01*
X197996045Y-133206557D01*
X197485000Y-133186478D01*
X196973955Y-133206557D01*
X196971512Y-133206846D01*
X196971501Y-133206847D01*
X196629980Y-133247269D01*
X196466061Y-133266670D01*
X195964448Y-133366447D01*
X195962073Y-133367117D01*
X195962068Y-133367118D01*
X195805897Y-133411163D01*
X195472211Y-133505272D01*
X194992383Y-133682290D01*
X194990148Y-133683320D01*
X194990144Y-133683322D01*
X194530171Y-133895372D01*
X194530158Y-133895379D01*
X194527923Y-133896409D01*
X194081694Y-134146310D01*
X193656448Y-134430450D01*
X193254806Y-134747079D01*
X192879244Y-135094244D01*
X192877581Y-135096043D01*
X192665145Y-135325856D01*
X192532079Y-135469806D01*
X192215450Y-135871448D01*
X191931310Y-136296694D01*
X191681409Y-136742923D01*
X191680379Y-136745158D01*
X191680372Y-136745171D01*
X191468322Y-137205144D01*
X191467290Y-137207383D01*
X191290272Y-137687211D01*
X191196163Y-138020897D01*
X191179559Y-138079772D01*
X191151447Y-138179448D01*
X191051670Y-138681061D01*
X191051380Y-138683513D01*
X190998483Y-139130440D01*
X190991557Y-139188955D01*
X190971478Y-139700000D01*
X185308319Y-139700000D01*
X185289228Y-139358535D01*
X185232194Y-139021326D01*
X185220254Y-138979685D01*
X185138893Y-138695948D01*
X185138891Y-138695942D01*
X185137926Y-138692577D01*
X185134190Y-138683513D01*
X185008939Y-138379629D01*
X185008935Y-138379621D01*
X185007601Y-138376384D01*
X184842842Y-138076688D01*
X184805410Y-138023624D01*
X184647734Y-137800105D01*
X184647733Y-137800104D01*
X184645703Y-137797226D01*
X184418642Y-137541481D01*
X184164487Y-137312639D01*
X184088568Y-137258286D01*
X183889275Y-137115606D01*
X183889268Y-137115602D01*
X183886408Y-137113554D01*
X183587871Y-136946707D01*
X183272595Y-136814178D01*
X183229282Y-136801430D01*
X183136633Y-136774162D01*
X182944512Y-136717617D01*
X182941056Y-136717008D01*
X182941049Y-136717006D01*
X182611169Y-136658840D01*
X182611167Y-136658840D01*
X182607709Y-136658230D01*
X182604200Y-136658009D01*
X182604198Y-136658009D01*
X182269904Y-136636977D01*
X182269898Y-136636977D01*
X182266386Y-136636756D01*
X182168227Y-136641557D01*
X181928303Y-136653290D01*
X181928294Y-136653291D01*
X181924796Y-136653462D01*
X181921328Y-136654024D01*
X181921325Y-136654024D01*
X181590672Y-136707578D01*
X181590669Y-136707579D01*
X181587197Y-136708141D01*
X181583810Y-136709087D01*
X181583804Y-136709088D01*
X181261192Y-136799163D01*
X181257797Y-136800111D01*
X181254534Y-136801429D01*
X181254532Y-136801430D01*
X181222980Y-136814178D01*
X180940702Y-136928226D01*
X180639864Y-137090889D01*
X180359033Y-137286072D01*
X180356391Y-137288385D01*
X180356387Y-137288388D01*
X180325993Y-137314996D01*
X180101708Y-137511342D01*
X179871098Y-137763893D01*
X179869032Y-137766736D01*
X179869030Y-137766739D01*
X179848792Y-137794594D01*
X179670076Y-138040575D01*
X179501149Y-138337941D01*
X179366422Y-138652283D01*
X179353239Y-138695948D01*
X179300796Y-138869647D01*
X179267573Y-138979685D01*
X179240918Y-139124919D01*
X179219708Y-139240483D01*
X179205836Y-139316064D01*
X179181980Y-139657229D01*
X111645928Y-139657229D01*
X111629228Y-139358535D01*
X111572194Y-139021326D01*
X111560254Y-138979685D01*
X111478893Y-138695948D01*
X111478891Y-138695942D01*
X111477926Y-138692577D01*
X111474190Y-138683513D01*
X111348939Y-138379629D01*
X111348935Y-138379621D01*
X111347601Y-138376384D01*
X111182842Y-138076688D01*
X111145410Y-138023624D01*
X110987734Y-137800105D01*
X110987733Y-137800104D01*
X110985703Y-137797226D01*
X110758642Y-137541481D01*
X110504487Y-137312639D01*
X110428568Y-137258286D01*
X110229275Y-137115606D01*
X110229268Y-137115602D01*
X110226408Y-137113554D01*
X109927871Y-136946707D01*
X109612595Y-136814178D01*
X109569282Y-136801430D01*
X109476633Y-136774162D01*
X109284512Y-136717617D01*
X109281056Y-136717008D01*
X109281049Y-136717006D01*
X108951169Y-136658840D01*
X108951167Y-136658840D01*
X108947709Y-136658230D01*
X108944200Y-136658009D01*
X108944198Y-136658009D01*
X108609904Y-136636977D01*
X108609898Y-136636977D01*
X108606386Y-136636756D01*
X108508227Y-136641557D01*
X108268303Y-136653290D01*
X108268294Y-136653291D01*
X108264796Y-136653462D01*
X108261328Y-136654024D01*
X108261325Y-136654024D01*
X107930672Y-136707578D01*
X107930669Y-136707579D01*
X107927197Y-136708141D01*
X107923810Y-136709087D01*
X107923804Y-136709088D01*
X107601192Y-136799163D01*
X107597797Y-136800111D01*
X107594534Y-136801429D01*
X107594532Y-136801430D01*
X107562980Y-136814178D01*
X107280702Y-136928226D01*
X106979864Y-137090889D01*
X106699033Y-137286072D01*
X106696391Y-137288385D01*
X106696387Y-137288388D01*
X106665993Y-137314996D01*
X106441708Y-137511342D01*
X106211098Y-137763893D01*
X106209032Y-137766736D01*
X106209030Y-137766739D01*
X106188792Y-137794594D01*
X106010076Y-138040575D01*
X105841149Y-138337941D01*
X105706422Y-138652283D01*
X105693239Y-138695948D01*
X105640796Y-138869647D01*
X105607573Y-138979685D01*
X105580918Y-139124919D01*
X105559708Y-139240483D01*
X105545836Y-139316064D01*
X105521980Y-139657229D01*
X99856842Y-139657229D01*
X99838443Y-139188955D01*
X99831518Y-139130440D01*
X99778620Y-138683513D01*
X99778330Y-138681061D01*
X99678553Y-138179448D01*
X99650442Y-138079772D01*
X99633837Y-138020897D01*
X99539728Y-137687211D01*
X99362710Y-137207383D01*
X99361678Y-137205144D01*
X99149628Y-136745171D01*
X99149621Y-136745158D01*
X99148591Y-136742923D01*
X98898690Y-136296694D01*
X98614550Y-135871448D01*
X98297921Y-135469806D01*
X98164856Y-135325856D01*
X97952419Y-135096043D01*
X97950756Y-135094244D01*
X97575194Y-134747079D01*
X97173552Y-134430450D01*
X96748306Y-134146310D01*
X96302077Y-133896409D01*
X96299842Y-133895379D01*
X96299829Y-133895372D01*
X95839856Y-133683322D01*
X95839852Y-133683320D01*
X95837617Y-133682290D01*
X95357789Y-133505272D01*
X95024103Y-133411163D01*
X94867932Y-133367118D01*
X94867927Y-133367117D01*
X94865552Y-133366447D01*
X94363939Y-133266670D01*
X94200020Y-133247269D01*
X93858499Y-133206847D01*
X93858488Y-133206846D01*
X93856045Y-133206557D01*
X93345000Y-133186478D01*
X92833955Y-133206557D01*
X92831512Y-133206846D01*
X92831501Y-133206847D01*
X92489980Y-133247269D01*
X92326061Y-133266670D01*
X91824448Y-133366447D01*
X91822073Y-133367117D01*
X91822068Y-133367118D01*
X91665897Y-133411163D01*
X91332211Y-133505272D01*
X90852383Y-133682290D01*
X90850148Y-133683320D01*
X90850144Y-133683322D01*
X90390171Y-133895372D01*
X90390158Y-133895379D01*
X90387923Y-133896409D01*
X89941694Y-134146310D01*
X89516448Y-134430450D01*
X89114806Y-134747079D01*
X88739244Y-135094244D01*
X88737581Y-135096043D01*
X88525145Y-135325856D01*
X88392079Y-135469806D01*
X88075450Y-135871448D01*
X87791310Y-136296694D01*
X87541409Y-136742923D01*
X87540379Y-136745158D01*
X87540372Y-136745171D01*
X87328322Y-137205144D01*
X87327290Y-137207383D01*
X87150272Y-137687211D01*
X87056163Y-138020897D01*
X87039559Y-138079772D01*
X87011447Y-138179448D01*
X86911670Y-138681061D01*
X86911380Y-138683513D01*
X86858483Y-139130440D01*
X86851557Y-139188955D01*
X86831478Y-139700000D01*
X77343500Y-139700000D01*
X77343500Y-116783266D01*
X86742001Y-116783266D01*
X86742109Y-116786356D01*
X86742499Y-116797534D01*
X86755106Y-117158534D01*
X86755856Y-117180016D01*
X86756262Y-117183060D01*
X86756263Y-117183070D01*
X86766968Y-117263295D01*
X86808361Y-117573521D01*
X86809061Y-117576505D01*
X86809062Y-117576511D01*
X86861492Y-117800047D01*
X86899014Y-117960023D01*
X87026951Y-118335835D01*
X87190950Y-118697369D01*
X87389446Y-119041174D01*
X87391235Y-119043672D01*
X87391237Y-119043676D01*
X87544041Y-119257110D01*
X87620544Y-119363969D01*
X87882038Y-119662671D01*
X87884286Y-119664782D01*
X88169178Y-119932314D01*
X88169185Y-119932320D01*
X88171433Y-119934431D01*
X88173883Y-119936318D01*
X88173888Y-119936322D01*
X88381874Y-120096493D01*
X88485965Y-120176654D01*
X88488564Y-120178278D01*
X88488574Y-120178285D01*
X88669998Y-120291650D01*
X88822634Y-120387027D01*
X89178224Y-120563544D01*
X89549342Y-120704518D01*
X89932446Y-120808605D01*
X89935489Y-120809120D01*
X89935495Y-120809121D01*
X90320837Y-120874297D01*
X90320844Y-120874298D01*
X90323878Y-120874811D01*
X90326949Y-120875026D01*
X90326951Y-120875026D01*
X90716837Y-120902290D01*
X90716845Y-120902290D01*
X90719903Y-120902504D01*
X90976170Y-120895346D01*
X91113666Y-120891505D01*
X91113669Y-120891505D01*
X91116740Y-120891419D01*
X91119793Y-120891033D01*
X91119797Y-120891033D01*
X91308315Y-120867218D01*
X91510601Y-120841663D01*
X91513605Y-120840981D01*
X91513608Y-120840980D01*
X91894731Y-120754391D01*
X91894737Y-120754389D01*
X91897727Y-120753710D01*
X92045604Y-120704518D01*
X92271499Y-120629373D01*
X92271505Y-120629371D01*
X92274423Y-120628400D01*
X92417633Y-120564639D01*
X92634294Y-120468176D01*
X92634300Y-120468173D01*
X92637094Y-120466929D01*
X92639763Y-120465413D01*
X92979603Y-120272357D01*
X92979611Y-120272352D01*
X92982276Y-120270838D01*
X93306676Y-120041999D01*
X93607197Y-119782596D01*
X93609318Y-119780369D01*
X93609324Y-119780363D01*
X93878853Y-119497329D01*
X93880970Y-119495106D01*
X93884816Y-119490184D01*
X94123472Y-119184717D01*
X94123474Y-119184714D01*
X94125382Y-119182272D01*
X94127038Y-119179662D01*
X94127044Y-119179654D01*
X94336447Y-118849688D01*
X94336451Y-118849681D01*
X94338101Y-118847081D01*
X94364390Y-118795039D01*
X94451954Y-118621691D01*
X94517096Y-118492732D01*
X94518203Y-118489878D01*
X94518207Y-118489869D01*
X94659543Y-118125483D01*
X94659546Y-118125474D01*
X94660658Y-118122607D01*
X94767417Y-117740239D01*
X94836354Y-117349278D01*
X94866811Y-116953457D01*
X94868395Y-116840000D01*
X115181617Y-116840000D01*
X115181790Y-116843301D01*
X115199437Y-117180016D01*
X115201138Y-117212475D01*
X115201653Y-117215726D01*
X115258795Y-117576511D01*
X115259485Y-117580869D01*
X115356021Y-117941146D01*
X115489688Y-118289358D01*
X115491180Y-118292286D01*
X115491183Y-118292293D01*
X115608806Y-118523140D01*
X115659020Y-118621691D01*
X115660816Y-118624457D01*
X115660818Y-118624460D01*
X115803605Y-118844332D01*
X115862163Y-118934504D01*
X115864234Y-118937061D01*
X115864238Y-118937067D01*
X116094816Y-119221808D01*
X116096890Y-119224369D01*
X116360631Y-119488110D01*
X116363190Y-119490182D01*
X116363192Y-119490184D01*
X116422293Y-119538042D01*
X116650496Y-119722837D01*
X116963308Y-119925980D01*
X117136083Y-120014013D01*
X117292707Y-120093817D01*
X117292714Y-120093820D01*
X117295642Y-120095312D01*
X117298714Y-120096491D01*
X117298718Y-120096493D01*
X117424749Y-120144872D01*
X117643854Y-120228979D01*
X118004131Y-120325515D01*
X118007381Y-120326030D01*
X118007387Y-120326031D01*
X118280628Y-120369307D01*
X118372525Y-120383862D01*
X118375810Y-120384034D01*
X118375818Y-120384035D01*
X118741699Y-120403210D01*
X118745000Y-120403383D01*
X118748301Y-120403210D01*
X119114182Y-120384035D01*
X119114190Y-120384034D01*
X119117475Y-120383862D01*
X119209372Y-120369307D01*
X119482613Y-120326031D01*
X119482619Y-120326030D01*
X119485869Y-120325515D01*
X119846146Y-120228979D01*
X120065251Y-120144872D01*
X120191282Y-120096493D01*
X120191286Y-120096491D01*
X120194358Y-120095312D01*
X120197286Y-120093820D01*
X120197293Y-120093817D01*
X120353917Y-120014013D01*
X120526692Y-119925980D01*
X120839504Y-119722837D01*
X121067707Y-119538042D01*
X121126808Y-119490184D01*
X121126810Y-119490182D01*
X121129369Y-119488110D01*
X121393110Y-119224369D01*
X121395184Y-119221808D01*
X121625762Y-118937067D01*
X121625766Y-118937061D01*
X121627837Y-118934504D01*
X121686395Y-118844332D01*
X121829182Y-118624460D01*
X121829184Y-118624457D01*
X121830980Y-118621691D01*
X121881195Y-118523140D01*
X121998817Y-118292293D01*
X121998820Y-118292286D01*
X122000312Y-118289358D01*
X122133979Y-117941146D01*
X122230515Y-117580869D01*
X122231206Y-117576511D01*
X122288347Y-117215726D01*
X122288862Y-117212475D01*
X122290564Y-117180016D01*
X122308210Y-116843301D01*
X122308383Y-116840000D01*
X143121617Y-116840000D01*
X143121790Y-116843301D01*
X143139437Y-117180016D01*
X143141138Y-117212475D01*
X143141653Y-117215726D01*
X143198795Y-117576511D01*
X143199485Y-117580869D01*
X143296021Y-117941146D01*
X143429688Y-118289358D01*
X143431180Y-118292286D01*
X143431183Y-118292293D01*
X143548806Y-118523140D01*
X143599020Y-118621691D01*
X143600816Y-118624457D01*
X143600818Y-118624460D01*
X143743605Y-118844332D01*
X143802163Y-118934504D01*
X143804234Y-118937061D01*
X143804238Y-118937067D01*
X144034816Y-119221808D01*
X144036890Y-119224369D01*
X144300631Y-119488110D01*
X144303190Y-119490182D01*
X144303192Y-119490184D01*
X144362293Y-119538042D01*
X144590496Y-119722837D01*
X144903308Y-119925980D01*
X145076083Y-120014013D01*
X145232707Y-120093817D01*
X145232714Y-120093820D01*
X145235642Y-120095312D01*
X145238714Y-120096491D01*
X145238718Y-120096493D01*
X145364749Y-120144872D01*
X145583854Y-120228979D01*
X145944131Y-120325515D01*
X145947381Y-120326030D01*
X145947387Y-120326031D01*
X146220628Y-120369307D01*
X146312525Y-120383862D01*
X146315810Y-120384034D01*
X146315818Y-120384035D01*
X146681699Y-120403210D01*
X146685000Y-120403383D01*
X146688301Y-120403210D01*
X147054182Y-120384035D01*
X147054190Y-120384034D01*
X147057475Y-120383862D01*
X147149372Y-120369307D01*
X147422613Y-120326031D01*
X147422619Y-120326030D01*
X147425869Y-120325515D01*
X147786146Y-120228979D01*
X148005251Y-120144872D01*
X148131282Y-120096493D01*
X148131286Y-120096491D01*
X148134358Y-120095312D01*
X148137286Y-120093820D01*
X148137293Y-120093817D01*
X148293917Y-120014013D01*
X148466692Y-119925980D01*
X148779504Y-119722837D01*
X149007707Y-119538042D01*
X149066808Y-119490184D01*
X149066810Y-119490182D01*
X149069369Y-119488110D01*
X149333110Y-119224369D01*
X149335184Y-119221808D01*
X149565762Y-118937067D01*
X149565766Y-118937061D01*
X149567837Y-118934504D01*
X149626395Y-118844332D01*
X149769182Y-118624460D01*
X149769184Y-118624457D01*
X149770980Y-118621691D01*
X149821195Y-118523140D01*
X149938817Y-118292293D01*
X149938820Y-118292286D01*
X149940312Y-118289358D01*
X150073979Y-117941146D01*
X150170515Y-117580869D01*
X150171206Y-117576511D01*
X150228347Y-117215726D01*
X150228862Y-117212475D01*
X150230564Y-117180016D01*
X150248210Y-116843301D01*
X150248383Y-116840000D01*
X150245410Y-116783266D01*
X169292001Y-116783266D01*
X169292109Y-116786356D01*
X169292499Y-116797534D01*
X169305106Y-117158534D01*
X169305856Y-117180016D01*
X169306262Y-117183060D01*
X169306263Y-117183070D01*
X169316968Y-117263295D01*
X169358361Y-117573521D01*
X169359061Y-117576505D01*
X169359062Y-117576511D01*
X169411492Y-117800047D01*
X169449014Y-117960023D01*
X169576951Y-118335835D01*
X169740950Y-118697369D01*
X169939446Y-119041174D01*
X169941235Y-119043672D01*
X169941237Y-119043676D01*
X170094041Y-119257110D01*
X170170544Y-119363969D01*
X170432038Y-119662671D01*
X170434286Y-119664782D01*
X170719178Y-119932314D01*
X170719185Y-119932320D01*
X170721433Y-119934431D01*
X170723883Y-119936318D01*
X170723888Y-119936322D01*
X170931874Y-120096493D01*
X171035965Y-120176654D01*
X171038564Y-120178278D01*
X171038574Y-120178285D01*
X171219998Y-120291650D01*
X171372634Y-120387027D01*
X171728224Y-120563544D01*
X172099342Y-120704518D01*
X172482446Y-120808605D01*
X172485489Y-120809120D01*
X172485495Y-120809121D01*
X172870837Y-120874297D01*
X172870844Y-120874298D01*
X172873878Y-120874811D01*
X172876949Y-120875026D01*
X172876951Y-120875026D01*
X173266837Y-120902290D01*
X173266845Y-120902290D01*
X173269903Y-120902504D01*
X173526170Y-120895346D01*
X173663666Y-120891505D01*
X173663669Y-120891505D01*
X173666740Y-120891419D01*
X173669793Y-120891033D01*
X173669797Y-120891033D01*
X173858315Y-120867218D01*
X174060601Y-120841663D01*
X174063605Y-120840981D01*
X174063608Y-120840980D01*
X174444731Y-120754391D01*
X174444737Y-120754389D01*
X174447727Y-120753710D01*
X174595604Y-120704518D01*
X174821499Y-120629373D01*
X174821505Y-120629371D01*
X174824423Y-120628400D01*
X174967633Y-120564639D01*
X175184294Y-120468176D01*
X175184300Y-120468173D01*
X175187094Y-120466929D01*
X175189763Y-120465413D01*
X175529603Y-120272357D01*
X175529611Y-120272352D01*
X175532276Y-120270838D01*
X175856676Y-120041999D01*
X176157197Y-119782596D01*
X176159318Y-119780369D01*
X176159324Y-119780363D01*
X176428853Y-119497329D01*
X176430970Y-119495106D01*
X176434816Y-119490184D01*
X176673472Y-119184717D01*
X176673474Y-119184714D01*
X176675382Y-119182272D01*
X176677038Y-119179662D01*
X176677044Y-119179654D01*
X176886447Y-118849688D01*
X176886451Y-118849681D01*
X176888101Y-118847081D01*
X176914390Y-118795039D01*
X177001954Y-118621691D01*
X177067096Y-118492732D01*
X177068203Y-118489878D01*
X177068207Y-118489869D01*
X177209543Y-118125483D01*
X177209546Y-118125474D01*
X177210658Y-118122607D01*
X177317417Y-117740239D01*
X177386354Y-117349278D01*
X177416811Y-116953457D01*
X177418395Y-116840000D01*
X177415772Y-116786356D01*
X177415621Y-116783266D01*
X195962001Y-116783266D01*
X195962109Y-116786356D01*
X195962499Y-116797534D01*
X195975106Y-117158534D01*
X195975856Y-117180016D01*
X195976262Y-117183060D01*
X195976263Y-117183070D01*
X195986968Y-117263295D01*
X196028361Y-117573521D01*
X196029061Y-117576505D01*
X196029062Y-117576511D01*
X196081492Y-117800047D01*
X196119014Y-117960023D01*
X196246951Y-118335835D01*
X196410950Y-118697369D01*
X196609446Y-119041174D01*
X196611235Y-119043672D01*
X196611237Y-119043676D01*
X196764041Y-119257110D01*
X196840544Y-119363969D01*
X197102038Y-119662671D01*
X197104286Y-119664782D01*
X197389178Y-119932314D01*
X197389185Y-119932320D01*
X197391433Y-119934431D01*
X197393883Y-119936318D01*
X197393888Y-119936322D01*
X197601874Y-120096493D01*
X197705965Y-120176654D01*
X197708564Y-120178278D01*
X197708574Y-120178285D01*
X197889998Y-120291650D01*
X198042634Y-120387027D01*
X198398224Y-120563544D01*
X198769342Y-120704518D01*
X199152446Y-120808605D01*
X199155489Y-120809120D01*
X199155495Y-120809121D01*
X199540837Y-120874297D01*
X199540844Y-120874298D01*
X199543878Y-120874811D01*
X199546949Y-120875026D01*
X199546951Y-120875026D01*
X199936837Y-120902290D01*
X199936845Y-120902290D01*
X199939903Y-120902504D01*
X200196170Y-120895346D01*
X200333666Y-120891505D01*
X200333669Y-120891505D01*
X200336740Y-120891419D01*
X200339793Y-120891033D01*
X200339797Y-120891033D01*
X200528315Y-120867218D01*
X200730601Y-120841663D01*
X200733605Y-120840981D01*
X200733608Y-120840980D01*
X201114731Y-120754391D01*
X201114737Y-120754389D01*
X201117727Y-120753710D01*
X201265604Y-120704518D01*
X201491499Y-120629373D01*
X201491505Y-120629371D01*
X201494423Y-120628400D01*
X201637633Y-120564639D01*
X201854294Y-120468176D01*
X201854300Y-120468173D01*
X201857094Y-120466929D01*
X201859763Y-120465413D01*
X202199603Y-120272357D01*
X202199611Y-120272352D01*
X202202276Y-120270838D01*
X202526676Y-120041999D01*
X202827197Y-119782596D01*
X202829318Y-119780369D01*
X202829324Y-119780363D01*
X203098853Y-119497329D01*
X203100970Y-119495106D01*
X203104816Y-119490184D01*
X203343472Y-119184717D01*
X203343474Y-119184714D01*
X203345382Y-119182272D01*
X203347038Y-119179662D01*
X203347044Y-119179654D01*
X203556447Y-118849688D01*
X203556451Y-118849681D01*
X203558101Y-118847081D01*
X203584390Y-118795039D01*
X203671954Y-118621691D01*
X203737096Y-118492732D01*
X203738203Y-118489878D01*
X203738207Y-118489869D01*
X203879543Y-118125483D01*
X203879546Y-118125474D01*
X203880658Y-118122607D01*
X203987417Y-117740239D01*
X204056354Y-117349278D01*
X204086811Y-116953457D01*
X204088395Y-116840000D01*
X204085772Y-116786356D01*
X204069152Y-116446552D01*
X204069002Y-116443482D01*
X204034222Y-116207955D01*
X204011458Y-116053795D01*
X204011457Y-116053791D01*
X204011008Y-116050749D01*
X203914967Y-115665550D01*
X203896728Y-115614327D01*
X203782828Y-115294460D01*
X203781796Y-115291561D01*
X203612765Y-114932352D01*
X203583015Y-114882445D01*
X203501376Y-114745496D01*
X203409488Y-114591352D01*
X203173906Y-114271815D01*
X202908266Y-113976793D01*
X202615105Y-113709100D01*
X202297222Y-113471293D01*
X202248370Y-113441707D01*
X201960277Y-113267231D01*
X201960268Y-113267226D01*
X201957649Y-113265640D01*
X201599629Y-113094106D01*
X201540229Y-113072486D01*
X201229475Y-112959381D01*
X201229474Y-112959381D01*
X201226579Y-112958327D01*
X201019688Y-112905206D01*
X200845043Y-112860365D01*
X200845040Y-112860364D01*
X200842059Y-112859599D01*
X200449740Y-112798865D01*
X200446683Y-112798694D01*
X200446682Y-112798694D01*
X200417924Y-112797086D01*
X200053368Y-112776704D01*
X200050290Y-112776833D01*
X200050286Y-112776833D01*
X199791983Y-112787659D01*
X199656724Y-112793328D01*
X199653680Y-112793756D01*
X199653678Y-112793756D01*
X199613989Y-112799334D01*
X199263596Y-112848579D01*
X198877735Y-112941928D01*
X198502825Y-113072486D01*
X198456035Y-113094106D01*
X198145242Y-113237712D01*
X198145232Y-113237717D01*
X198142445Y-113239005D01*
X197800034Y-113439896D01*
X197785899Y-113450166D01*
X197481342Y-113671439D01*
X197481336Y-113671444D01*
X197478861Y-113673242D01*
X197476575Y-113675271D01*
X197476572Y-113675274D01*
X197389567Y-113752521D01*
X197181991Y-113936815D01*
X197179901Y-113939072D01*
X197179899Y-113939074D01*
X196914354Y-114225837D01*
X196914349Y-114225843D01*
X196912259Y-114228100D01*
X196910399Y-114230550D01*
X196910396Y-114230554D01*
X196877202Y-114274286D01*
X196672238Y-114544316D01*
X196670627Y-114546934D01*
X196670624Y-114546939D01*
X196550048Y-114742933D01*
X196464220Y-114882445D01*
X196290190Y-115239258D01*
X196289119Y-115242139D01*
X196289116Y-115242145D01*
X196233891Y-115390642D01*
X196151810Y-115611352D01*
X196050400Y-115995173D01*
X196049909Y-115998206D01*
X196015937Y-116207955D01*
X195986928Y-116387058D01*
X195986734Y-116390138D01*
X195986734Y-116390140D01*
X195979762Y-116500967D01*
X195962001Y-116783266D01*
X177415621Y-116783266D01*
X177399152Y-116446552D01*
X177399002Y-116443482D01*
X177364222Y-116207955D01*
X177341458Y-116053795D01*
X177341457Y-116053791D01*
X177341008Y-116050749D01*
X177244967Y-115665550D01*
X177226728Y-115614327D01*
X177112828Y-115294460D01*
X177111796Y-115291561D01*
X176942765Y-114932352D01*
X176913015Y-114882445D01*
X176831376Y-114745496D01*
X176739488Y-114591352D01*
X176503906Y-114271815D01*
X176238266Y-113976793D01*
X175945105Y-113709100D01*
X175627222Y-113471293D01*
X175578370Y-113441707D01*
X175290277Y-113267231D01*
X175290268Y-113267226D01*
X175287649Y-113265640D01*
X174929629Y-113094106D01*
X174870229Y-113072486D01*
X174559475Y-112959381D01*
X174559474Y-112959381D01*
X174556579Y-112958327D01*
X174349688Y-112905206D01*
X174175043Y-112860365D01*
X174175040Y-112860364D01*
X174172059Y-112859599D01*
X173779740Y-112798865D01*
X173776683Y-112798694D01*
X173776682Y-112798694D01*
X173747924Y-112797086D01*
X173383368Y-112776704D01*
X173380290Y-112776833D01*
X173380286Y-112776833D01*
X173121983Y-112787659D01*
X172986724Y-112793328D01*
X172983680Y-112793756D01*
X172983678Y-112793756D01*
X172943989Y-112799334D01*
X172593596Y-112848579D01*
X172207735Y-112941928D01*
X171832825Y-113072486D01*
X171786035Y-113094106D01*
X171475242Y-113237712D01*
X171475232Y-113237717D01*
X171472445Y-113239005D01*
X171130034Y-113439896D01*
X171115899Y-113450166D01*
X170811342Y-113671439D01*
X170811336Y-113671444D01*
X170808861Y-113673242D01*
X170806575Y-113675271D01*
X170806572Y-113675274D01*
X170719567Y-113752521D01*
X170511991Y-113936815D01*
X170509901Y-113939072D01*
X170509899Y-113939074D01*
X170244354Y-114225837D01*
X170244349Y-114225843D01*
X170242259Y-114228100D01*
X170240399Y-114230550D01*
X170240396Y-114230554D01*
X170207202Y-114274286D01*
X170002238Y-114544316D01*
X170000627Y-114546934D01*
X170000624Y-114546939D01*
X169880048Y-114742933D01*
X169794220Y-114882445D01*
X169620190Y-115239258D01*
X169619119Y-115242139D01*
X169619116Y-115242145D01*
X169563891Y-115390642D01*
X169481810Y-115611352D01*
X169380400Y-115995173D01*
X169379909Y-115998206D01*
X169345937Y-116207955D01*
X169316928Y-116387058D01*
X169316734Y-116390138D01*
X169316734Y-116390140D01*
X169309762Y-116500967D01*
X169292001Y-116783266D01*
X150245410Y-116783266D01*
X150228862Y-116467525D01*
X150170515Y-116099131D01*
X150073979Y-115738854D01*
X149940312Y-115390642D01*
X149938817Y-115387707D01*
X149772479Y-115061250D01*
X149772475Y-115061243D01*
X149770980Y-115058309D01*
X149679657Y-114917683D01*
X149569634Y-114748263D01*
X149569633Y-114748262D01*
X149567837Y-114745496D01*
X149528449Y-114696855D01*
X149335184Y-114458192D01*
X149335182Y-114458190D01*
X149333110Y-114455631D01*
X149069369Y-114191890D01*
X148779504Y-113957163D01*
X148466692Y-113754020D01*
X148293917Y-113665987D01*
X148137293Y-113586183D01*
X148137286Y-113586180D01*
X148134358Y-113584688D01*
X148131286Y-113583509D01*
X148131282Y-113583507D01*
X148005251Y-113535128D01*
X147786146Y-113451021D01*
X147425869Y-113354485D01*
X147422619Y-113353970D01*
X147422613Y-113353969D01*
X147149372Y-113310693D01*
X147057475Y-113296138D01*
X147054190Y-113295966D01*
X147054182Y-113295965D01*
X146688301Y-113276790D01*
X146685000Y-113276617D01*
X146681699Y-113276790D01*
X146315818Y-113295965D01*
X146315810Y-113295966D01*
X146312525Y-113296138D01*
X146220628Y-113310693D01*
X145947387Y-113353969D01*
X145947381Y-113353970D01*
X145944131Y-113354485D01*
X145583854Y-113451021D01*
X145364749Y-113535128D01*
X145238718Y-113583507D01*
X145238714Y-113583509D01*
X145235642Y-113584688D01*
X145232714Y-113586180D01*
X145232707Y-113586183D01*
X144906250Y-113752521D01*
X144906247Y-113752523D01*
X144903309Y-113754020D01*
X144900543Y-113755816D01*
X144900540Y-113755818D01*
X144593263Y-113955366D01*
X144590496Y-113957163D01*
X144587939Y-113959234D01*
X144587933Y-113959238D01*
X144563428Y-113979082D01*
X144300631Y-114191890D01*
X144036890Y-114455631D01*
X144034818Y-114458190D01*
X144034816Y-114458192D01*
X143841552Y-114696855D01*
X143802163Y-114745496D01*
X143800367Y-114748262D01*
X143800366Y-114748263D01*
X143690344Y-114917683D01*
X143599020Y-115058309D01*
X143597525Y-115061243D01*
X143597521Y-115061250D01*
X143431183Y-115387707D01*
X143429688Y-115390642D01*
X143296021Y-115738854D01*
X143199485Y-116099131D01*
X143141138Y-116467525D01*
X143121617Y-116840000D01*
X122308383Y-116840000D01*
X122288862Y-116467525D01*
X122230515Y-116099131D01*
X122133979Y-115738854D01*
X122000312Y-115390642D01*
X121998817Y-115387707D01*
X121832479Y-115061250D01*
X121832475Y-115061243D01*
X121830980Y-115058309D01*
X121739657Y-114917683D01*
X121629634Y-114748263D01*
X121629633Y-114748262D01*
X121627837Y-114745496D01*
X121588449Y-114696855D01*
X121395184Y-114458192D01*
X121395182Y-114458190D01*
X121393110Y-114455631D01*
X121129369Y-114191890D01*
X120839504Y-113957163D01*
X120526692Y-113754020D01*
X120353917Y-113665987D01*
X120197293Y-113586183D01*
X120197286Y-113586180D01*
X120194358Y-113584688D01*
X120191286Y-113583509D01*
X120191282Y-113583507D01*
X120065251Y-113535128D01*
X119846146Y-113451021D01*
X119485869Y-113354485D01*
X119482619Y-113353970D01*
X119482613Y-113353969D01*
X119209372Y-113310693D01*
X119117475Y-113296138D01*
X119114190Y-113295966D01*
X119114182Y-113295965D01*
X118748301Y-113276790D01*
X118745000Y-113276617D01*
X118741699Y-113276790D01*
X118375818Y-113295965D01*
X118375810Y-113295966D01*
X118372525Y-113296138D01*
X118280628Y-113310693D01*
X118007387Y-113353969D01*
X118007381Y-113353970D01*
X118004131Y-113354485D01*
X117643854Y-113451021D01*
X117424749Y-113535128D01*
X117298718Y-113583507D01*
X117298714Y-113583509D01*
X117295642Y-113584688D01*
X117292714Y-113586180D01*
X117292707Y-113586183D01*
X116966250Y-113752521D01*
X116966247Y-113752523D01*
X116963309Y-113754020D01*
X116960543Y-113755816D01*
X116960540Y-113755818D01*
X116653263Y-113955366D01*
X116650496Y-113957163D01*
X116647939Y-113959234D01*
X116647933Y-113959238D01*
X116623428Y-113979082D01*
X116360631Y-114191890D01*
X116096890Y-114455631D01*
X116094818Y-114458190D01*
X116094816Y-114458192D01*
X115901552Y-114696855D01*
X115862163Y-114745496D01*
X115860367Y-114748262D01*
X115860366Y-114748263D01*
X115750344Y-114917683D01*
X115659020Y-115058309D01*
X115657525Y-115061243D01*
X115657521Y-115061250D01*
X115491183Y-115387707D01*
X115489688Y-115390642D01*
X115356021Y-115738854D01*
X115259485Y-116099131D01*
X115201138Y-116467525D01*
X115181617Y-116840000D01*
X94868395Y-116840000D01*
X94865772Y-116786356D01*
X94849152Y-116446552D01*
X94849002Y-116443482D01*
X94814222Y-116207955D01*
X94791458Y-116053795D01*
X94791457Y-116053791D01*
X94791008Y-116050749D01*
X94694967Y-115665550D01*
X94676728Y-115614327D01*
X94562828Y-115294460D01*
X94561796Y-115291561D01*
X94392765Y-114932352D01*
X94363015Y-114882445D01*
X94281376Y-114745496D01*
X94189488Y-114591352D01*
X93953906Y-114271815D01*
X93688266Y-113976793D01*
X93395105Y-113709100D01*
X93077222Y-113471293D01*
X93028370Y-113441707D01*
X92740277Y-113267231D01*
X92740268Y-113267226D01*
X92737649Y-113265640D01*
X92379629Y-113094106D01*
X92320229Y-113072486D01*
X92009475Y-112959381D01*
X92009474Y-112959381D01*
X92006579Y-112958327D01*
X91799688Y-112905206D01*
X91625043Y-112860365D01*
X91625040Y-112860364D01*
X91622059Y-112859599D01*
X91229740Y-112798865D01*
X91226683Y-112798694D01*
X91226682Y-112798694D01*
X91197924Y-112797086D01*
X90833368Y-112776704D01*
X90830290Y-112776833D01*
X90830286Y-112776833D01*
X90571983Y-112787659D01*
X90436724Y-112793328D01*
X90433680Y-112793756D01*
X90433678Y-112793756D01*
X90393989Y-112799334D01*
X90043596Y-112848579D01*
X89657735Y-112941928D01*
X89282825Y-113072486D01*
X89236035Y-113094106D01*
X88925242Y-113237712D01*
X88925232Y-113237717D01*
X88922445Y-113239005D01*
X88580034Y-113439896D01*
X88565899Y-113450166D01*
X88261342Y-113671439D01*
X88261336Y-113671444D01*
X88258861Y-113673242D01*
X88256575Y-113675271D01*
X88256572Y-113675274D01*
X88169567Y-113752521D01*
X87961991Y-113936815D01*
X87959901Y-113939072D01*
X87959899Y-113939074D01*
X87694354Y-114225837D01*
X87694349Y-114225843D01*
X87692259Y-114228100D01*
X87690399Y-114230550D01*
X87690396Y-114230554D01*
X87657202Y-114274286D01*
X87452238Y-114544316D01*
X87450627Y-114546934D01*
X87450624Y-114546939D01*
X87330048Y-114742933D01*
X87244220Y-114882445D01*
X87070190Y-115239258D01*
X87069119Y-115242139D01*
X87069116Y-115242145D01*
X87013891Y-115390642D01*
X86931810Y-115611352D01*
X86830400Y-115995173D01*
X86829909Y-115998206D01*
X86795937Y-116207955D01*
X86766928Y-116387058D01*
X86766734Y-116390138D01*
X86766734Y-116390140D01*
X86759762Y-116500967D01*
X86742001Y-116783266D01*
X77343500Y-116783266D01*
X77343500Y-95193266D01*
X86742001Y-95193266D01*
X86742109Y-95196356D01*
X86742499Y-95207534D01*
X86755106Y-95568534D01*
X86755856Y-95590016D01*
X86756262Y-95593060D01*
X86756263Y-95593070D01*
X86766968Y-95673295D01*
X86808361Y-95983521D01*
X86809061Y-95986505D01*
X86809062Y-95986511D01*
X86861492Y-96210047D01*
X86899014Y-96370023D01*
X87026951Y-96745835D01*
X87190950Y-97107369D01*
X87389446Y-97451174D01*
X87391235Y-97453672D01*
X87391237Y-97453676D01*
X87544041Y-97667110D01*
X87620544Y-97773969D01*
X87882038Y-98072671D01*
X87884286Y-98074782D01*
X88169178Y-98342314D01*
X88169185Y-98342320D01*
X88171433Y-98344431D01*
X88173883Y-98346318D01*
X88173888Y-98346322D01*
X88381874Y-98506493D01*
X88485965Y-98586654D01*
X88488564Y-98588278D01*
X88488574Y-98588285D01*
X88669998Y-98701650D01*
X88822634Y-98797027D01*
X89178224Y-98973544D01*
X89549342Y-99114518D01*
X89932446Y-99218605D01*
X89935489Y-99219120D01*
X89935495Y-99219121D01*
X90320837Y-99284297D01*
X90320844Y-99284298D01*
X90323878Y-99284811D01*
X90326949Y-99285026D01*
X90326951Y-99285026D01*
X90716837Y-99312290D01*
X90716845Y-99312290D01*
X90719903Y-99312504D01*
X90976170Y-99305346D01*
X91113666Y-99301505D01*
X91113669Y-99301505D01*
X91116740Y-99301419D01*
X91119793Y-99301033D01*
X91119797Y-99301033D01*
X91308315Y-99277218D01*
X91510601Y-99251663D01*
X91513605Y-99250981D01*
X91513608Y-99250980D01*
X91894731Y-99164391D01*
X91894737Y-99164389D01*
X91897727Y-99163710D01*
X92045604Y-99114518D01*
X92271499Y-99039373D01*
X92271505Y-99039371D01*
X92274423Y-99038400D01*
X92417633Y-98974639D01*
X92634294Y-98878176D01*
X92634300Y-98878173D01*
X92637094Y-98876929D01*
X92639763Y-98875413D01*
X92979603Y-98682357D01*
X92979611Y-98682352D01*
X92982276Y-98680838D01*
X93306676Y-98451999D01*
X93607197Y-98192596D01*
X93609318Y-98190369D01*
X93609324Y-98190363D01*
X93878853Y-97907329D01*
X93880970Y-97905106D01*
X93884816Y-97900184D01*
X94123472Y-97594717D01*
X94123474Y-97594714D01*
X94125382Y-97592272D01*
X94127038Y-97589662D01*
X94127044Y-97589654D01*
X94336447Y-97259688D01*
X94336451Y-97259681D01*
X94338101Y-97257081D01*
X94364390Y-97205039D01*
X94451954Y-97031691D01*
X94517096Y-96902732D01*
X94518203Y-96899878D01*
X94518207Y-96899869D01*
X94659543Y-96535483D01*
X94659546Y-96535474D01*
X94660658Y-96532607D01*
X94767417Y-96150239D01*
X94836354Y-95759278D01*
X94866811Y-95363457D01*
X94868395Y-95250000D01*
X94865772Y-95196356D01*
X94865621Y-95193266D01*
X114682001Y-95193266D01*
X114682109Y-95196356D01*
X114682499Y-95207534D01*
X114695106Y-95568534D01*
X114695856Y-95590016D01*
X114696262Y-95593060D01*
X114696263Y-95593070D01*
X114706968Y-95673295D01*
X114748361Y-95983521D01*
X114749061Y-95986505D01*
X114749062Y-95986511D01*
X114801492Y-96210047D01*
X114839014Y-96370023D01*
X114966951Y-96745835D01*
X115130950Y-97107369D01*
X115329446Y-97451174D01*
X115331235Y-97453672D01*
X115331237Y-97453676D01*
X115484041Y-97667110D01*
X115560544Y-97773969D01*
X115822038Y-98072671D01*
X115824286Y-98074782D01*
X116109178Y-98342314D01*
X116109185Y-98342320D01*
X116111433Y-98344431D01*
X116113883Y-98346318D01*
X116113888Y-98346322D01*
X116321874Y-98506493D01*
X116425965Y-98586654D01*
X116428564Y-98588278D01*
X116428574Y-98588285D01*
X116609998Y-98701650D01*
X116762634Y-98797027D01*
X117118224Y-98973544D01*
X117489342Y-99114518D01*
X117872446Y-99218605D01*
X117875489Y-99219120D01*
X117875495Y-99219121D01*
X118260837Y-99284297D01*
X118260844Y-99284298D01*
X118263878Y-99284811D01*
X118266949Y-99285026D01*
X118266951Y-99285026D01*
X118656837Y-99312290D01*
X118656845Y-99312290D01*
X118659903Y-99312504D01*
X118916170Y-99305346D01*
X119053666Y-99301505D01*
X119053669Y-99301505D01*
X119056740Y-99301419D01*
X119059793Y-99301033D01*
X119059797Y-99301033D01*
X119248315Y-99277218D01*
X119450601Y-99251663D01*
X119453605Y-99250981D01*
X119453608Y-99250980D01*
X119834731Y-99164391D01*
X119834737Y-99164389D01*
X119837727Y-99163710D01*
X119985604Y-99114518D01*
X120211499Y-99039373D01*
X120211505Y-99039371D01*
X120214423Y-99038400D01*
X120357633Y-98974639D01*
X120574294Y-98878176D01*
X120574300Y-98878173D01*
X120577094Y-98876929D01*
X120579763Y-98875413D01*
X120919603Y-98682357D01*
X120919611Y-98682352D01*
X120922276Y-98680838D01*
X121246676Y-98451999D01*
X121547197Y-98192596D01*
X121549318Y-98190369D01*
X121549324Y-98190363D01*
X121818853Y-97907329D01*
X121820970Y-97905106D01*
X121824816Y-97900184D01*
X122063472Y-97594717D01*
X122063474Y-97594714D01*
X122065382Y-97592272D01*
X122067038Y-97589662D01*
X122067044Y-97589654D01*
X122276447Y-97259688D01*
X122276451Y-97259681D01*
X122278101Y-97257081D01*
X122304390Y-97205039D01*
X122391954Y-97031691D01*
X122457096Y-96902732D01*
X122458203Y-96899878D01*
X122458207Y-96899869D01*
X122599543Y-96535483D01*
X122599546Y-96535474D01*
X122600658Y-96532607D01*
X122707417Y-96150239D01*
X122776354Y-95759278D01*
X122806811Y-95363457D01*
X122808395Y-95250000D01*
X143121617Y-95250000D01*
X143121790Y-95253301D01*
X143139437Y-95590016D01*
X143141138Y-95622475D01*
X143141653Y-95625726D01*
X143198795Y-95986511D01*
X143199485Y-95990869D01*
X143296021Y-96351146D01*
X143429688Y-96699358D01*
X143431180Y-96702286D01*
X143431183Y-96702293D01*
X143548806Y-96933140D01*
X143599020Y-97031691D01*
X143600816Y-97034457D01*
X143600818Y-97034460D01*
X143743605Y-97254332D01*
X143802163Y-97344504D01*
X143804234Y-97347061D01*
X143804238Y-97347067D01*
X144034816Y-97631808D01*
X144036890Y-97634369D01*
X144300631Y-97898110D01*
X144303190Y-97900182D01*
X144303192Y-97900184D01*
X144362293Y-97948042D01*
X144590496Y-98132837D01*
X144903308Y-98335980D01*
X145076083Y-98424013D01*
X145232707Y-98503817D01*
X145232714Y-98503820D01*
X145235642Y-98505312D01*
X145238714Y-98506491D01*
X145238718Y-98506493D01*
X145364749Y-98554872D01*
X145583854Y-98638979D01*
X145944131Y-98735515D01*
X145947381Y-98736030D01*
X145947387Y-98736031D01*
X146220628Y-98779307D01*
X146312525Y-98793862D01*
X146315810Y-98794034D01*
X146315818Y-98794035D01*
X146681699Y-98813210D01*
X146685000Y-98813383D01*
X146688301Y-98813210D01*
X147054182Y-98794035D01*
X147054190Y-98794034D01*
X147057475Y-98793862D01*
X147149372Y-98779307D01*
X147422613Y-98736031D01*
X147422619Y-98736030D01*
X147425869Y-98735515D01*
X147786146Y-98638979D01*
X148005251Y-98554872D01*
X148131282Y-98506493D01*
X148131286Y-98506491D01*
X148134358Y-98505312D01*
X148137286Y-98503820D01*
X148137293Y-98503817D01*
X148293917Y-98424013D01*
X148466692Y-98335980D01*
X148779504Y-98132837D01*
X149007707Y-97948042D01*
X149066808Y-97900184D01*
X149066810Y-97900182D01*
X149069369Y-97898110D01*
X149333110Y-97634369D01*
X149335184Y-97631808D01*
X149565762Y-97347067D01*
X149565766Y-97347061D01*
X149567837Y-97344504D01*
X149626395Y-97254332D01*
X149769182Y-97034460D01*
X149769184Y-97034457D01*
X149770980Y-97031691D01*
X149821195Y-96933140D01*
X149938817Y-96702293D01*
X149938820Y-96702286D01*
X149940312Y-96699358D01*
X150073979Y-96351146D01*
X150170515Y-95990869D01*
X150171206Y-95986511D01*
X150228347Y-95625726D01*
X150228862Y-95622475D01*
X150230564Y-95590016D01*
X150248210Y-95253301D01*
X150248383Y-95250000D01*
X150245410Y-95193266D01*
X169292001Y-95193266D01*
X169292109Y-95196356D01*
X169292499Y-95207534D01*
X169305106Y-95568534D01*
X169305856Y-95590016D01*
X169306262Y-95593060D01*
X169306263Y-95593070D01*
X169316968Y-95673295D01*
X169358361Y-95983521D01*
X169359061Y-95986505D01*
X169359062Y-95986511D01*
X169411492Y-96210047D01*
X169449014Y-96370023D01*
X169576951Y-96745835D01*
X169740950Y-97107369D01*
X169939446Y-97451174D01*
X169941235Y-97453672D01*
X169941237Y-97453676D01*
X170094041Y-97667110D01*
X170170544Y-97773969D01*
X170432038Y-98072671D01*
X170434286Y-98074782D01*
X170719178Y-98342314D01*
X170719185Y-98342320D01*
X170721433Y-98344431D01*
X170723883Y-98346318D01*
X170723888Y-98346322D01*
X170931874Y-98506493D01*
X171035965Y-98586654D01*
X171038564Y-98588278D01*
X171038574Y-98588285D01*
X171219998Y-98701650D01*
X171372634Y-98797027D01*
X171728224Y-98973544D01*
X172099342Y-99114518D01*
X172482446Y-99218605D01*
X172485489Y-99219120D01*
X172485495Y-99219121D01*
X172870837Y-99284297D01*
X172870844Y-99284298D01*
X172873878Y-99284811D01*
X172876949Y-99285026D01*
X172876951Y-99285026D01*
X173266837Y-99312290D01*
X173266845Y-99312290D01*
X173269903Y-99312504D01*
X173526170Y-99305346D01*
X173663666Y-99301505D01*
X173663669Y-99301505D01*
X173666740Y-99301419D01*
X173669793Y-99301033D01*
X173669797Y-99301033D01*
X173858315Y-99277218D01*
X174060601Y-99251663D01*
X174063605Y-99250981D01*
X174063608Y-99250980D01*
X174444731Y-99164391D01*
X174444737Y-99164389D01*
X174447727Y-99163710D01*
X174595604Y-99114518D01*
X174821499Y-99039373D01*
X174821505Y-99039371D01*
X174824423Y-99038400D01*
X174967633Y-98974639D01*
X175184294Y-98878176D01*
X175184300Y-98878173D01*
X175187094Y-98876929D01*
X175189763Y-98875413D01*
X175529603Y-98682357D01*
X175529611Y-98682352D01*
X175532276Y-98680838D01*
X175856676Y-98451999D01*
X176157197Y-98192596D01*
X176159318Y-98190369D01*
X176159324Y-98190363D01*
X176428853Y-97907329D01*
X176430970Y-97905106D01*
X176434816Y-97900184D01*
X176673472Y-97594717D01*
X176673474Y-97594714D01*
X176675382Y-97592272D01*
X176677038Y-97589662D01*
X176677044Y-97589654D01*
X176886447Y-97259688D01*
X176886451Y-97259681D01*
X176888101Y-97257081D01*
X176914390Y-97205039D01*
X177001954Y-97031691D01*
X177067096Y-96902732D01*
X177068203Y-96899878D01*
X177068207Y-96899869D01*
X177209543Y-96535483D01*
X177209546Y-96535474D01*
X177210658Y-96532607D01*
X177317417Y-96150239D01*
X177386354Y-95759278D01*
X177416811Y-95363457D01*
X177418395Y-95250000D01*
X177415772Y-95196356D01*
X177415621Y-95193266D01*
X195962001Y-95193266D01*
X195962109Y-95196356D01*
X195962499Y-95207534D01*
X195975106Y-95568534D01*
X195975856Y-95590016D01*
X195976262Y-95593060D01*
X195976263Y-95593070D01*
X195986968Y-95673295D01*
X196028361Y-95983521D01*
X196029061Y-95986505D01*
X196029062Y-95986511D01*
X196081492Y-96210047D01*
X196119014Y-96370023D01*
X196246951Y-96745835D01*
X196410950Y-97107369D01*
X196609446Y-97451174D01*
X196611235Y-97453672D01*
X196611237Y-97453676D01*
X196764041Y-97667110D01*
X196840544Y-97773969D01*
X197102038Y-98072671D01*
X197104286Y-98074782D01*
X197389178Y-98342314D01*
X197389185Y-98342320D01*
X197391433Y-98344431D01*
X197393883Y-98346318D01*
X197393888Y-98346322D01*
X197601874Y-98506493D01*
X197705965Y-98586654D01*
X197708564Y-98588278D01*
X197708574Y-98588285D01*
X197889998Y-98701650D01*
X198042634Y-98797027D01*
X198398224Y-98973544D01*
X198769342Y-99114518D01*
X199152446Y-99218605D01*
X199155489Y-99219120D01*
X199155495Y-99219121D01*
X199540837Y-99284297D01*
X199540844Y-99284298D01*
X199543878Y-99284811D01*
X199546949Y-99285026D01*
X199546951Y-99285026D01*
X199936837Y-99312290D01*
X199936845Y-99312290D01*
X199939903Y-99312504D01*
X200196170Y-99305346D01*
X200333666Y-99301505D01*
X200333669Y-99301505D01*
X200336740Y-99301419D01*
X200339793Y-99301033D01*
X200339797Y-99301033D01*
X200528315Y-99277218D01*
X200730601Y-99251663D01*
X200733605Y-99250981D01*
X200733608Y-99250980D01*
X201114731Y-99164391D01*
X201114737Y-99164389D01*
X201117727Y-99163710D01*
X201265604Y-99114518D01*
X201491499Y-99039373D01*
X201491505Y-99039371D01*
X201494423Y-99038400D01*
X201637633Y-98974639D01*
X201854294Y-98878176D01*
X201854300Y-98878173D01*
X201857094Y-98876929D01*
X201859763Y-98875413D01*
X202199603Y-98682357D01*
X202199611Y-98682352D01*
X202202276Y-98680838D01*
X202526676Y-98451999D01*
X202827197Y-98192596D01*
X202829318Y-98190369D01*
X202829324Y-98190363D01*
X203098853Y-97907329D01*
X203100970Y-97905106D01*
X203104816Y-97900184D01*
X203343472Y-97594717D01*
X203343474Y-97594714D01*
X203345382Y-97592272D01*
X203347038Y-97589662D01*
X203347044Y-97589654D01*
X203556447Y-97259688D01*
X203556451Y-97259681D01*
X203558101Y-97257081D01*
X203584390Y-97205039D01*
X203671954Y-97031691D01*
X203737096Y-96902732D01*
X203738203Y-96899878D01*
X203738207Y-96899869D01*
X203879543Y-96535483D01*
X203879546Y-96535474D01*
X203880658Y-96532607D01*
X203987417Y-96150239D01*
X204056354Y-95759278D01*
X204086811Y-95363457D01*
X204088395Y-95250000D01*
X204085772Y-95196356D01*
X204069152Y-94856552D01*
X204069002Y-94853482D01*
X204034222Y-94617955D01*
X204011458Y-94463795D01*
X204011457Y-94463791D01*
X204011008Y-94460749D01*
X203914967Y-94075550D01*
X203896728Y-94024327D01*
X203782828Y-93704460D01*
X203781796Y-93701561D01*
X203612765Y-93342352D01*
X203583015Y-93292445D01*
X203501376Y-93155496D01*
X203409488Y-93001352D01*
X203173906Y-92681815D01*
X202908266Y-92386793D01*
X202615105Y-92119100D01*
X202297222Y-91881293D01*
X202248370Y-91851707D01*
X201960277Y-91677231D01*
X201960268Y-91677226D01*
X201957649Y-91675640D01*
X201599629Y-91504106D01*
X201540229Y-91482486D01*
X201229475Y-91369381D01*
X201229474Y-91369381D01*
X201226579Y-91368327D01*
X201019688Y-91315206D01*
X200845043Y-91270365D01*
X200845040Y-91270364D01*
X200842059Y-91269599D01*
X200449740Y-91208865D01*
X200446683Y-91208694D01*
X200446682Y-91208694D01*
X200417924Y-91207086D01*
X200053368Y-91186704D01*
X200050290Y-91186833D01*
X200050286Y-91186833D01*
X199791983Y-91197659D01*
X199656724Y-91203328D01*
X199653680Y-91203756D01*
X199653678Y-91203756D01*
X199613989Y-91209334D01*
X199263596Y-91258579D01*
X198877735Y-91351928D01*
X198502825Y-91482486D01*
X198456035Y-91504106D01*
X198145242Y-91647712D01*
X198145232Y-91647717D01*
X198142445Y-91649005D01*
X197800034Y-91849896D01*
X197785899Y-91860166D01*
X197481342Y-92081439D01*
X197481336Y-92081444D01*
X197478861Y-92083242D01*
X197476575Y-92085271D01*
X197476572Y-92085274D01*
X197389567Y-92162521D01*
X197181991Y-92346815D01*
X197179901Y-92349072D01*
X197179899Y-92349074D01*
X196914354Y-92635837D01*
X196914349Y-92635843D01*
X196912259Y-92638100D01*
X196910399Y-92640550D01*
X196910396Y-92640554D01*
X196877202Y-92684286D01*
X196672238Y-92954316D01*
X196670627Y-92956934D01*
X196670624Y-92956939D01*
X196550048Y-93152933D01*
X196464220Y-93292445D01*
X196290190Y-93649258D01*
X196289119Y-93652139D01*
X196289116Y-93652145D01*
X196233891Y-93800642D01*
X196151810Y-94021352D01*
X196050400Y-94405173D01*
X196049909Y-94408206D01*
X196015937Y-94617955D01*
X195986928Y-94797058D01*
X195986734Y-94800138D01*
X195986734Y-94800140D01*
X195979762Y-94910967D01*
X195962001Y-95193266D01*
X177415621Y-95193266D01*
X177399152Y-94856552D01*
X177399002Y-94853482D01*
X177364222Y-94617955D01*
X177341458Y-94463795D01*
X177341457Y-94463791D01*
X177341008Y-94460749D01*
X177244967Y-94075550D01*
X177226728Y-94024327D01*
X177112828Y-93704460D01*
X177111796Y-93701561D01*
X176942765Y-93342352D01*
X176913015Y-93292445D01*
X176831376Y-93155496D01*
X176739488Y-93001352D01*
X176503906Y-92681815D01*
X176238266Y-92386793D01*
X175945105Y-92119100D01*
X175627222Y-91881293D01*
X175578370Y-91851707D01*
X175290277Y-91677231D01*
X175290268Y-91677226D01*
X175287649Y-91675640D01*
X174929629Y-91504106D01*
X174870229Y-91482486D01*
X174559475Y-91369381D01*
X174559474Y-91369381D01*
X174556579Y-91368327D01*
X174349688Y-91315206D01*
X174175043Y-91270365D01*
X174175040Y-91270364D01*
X174172059Y-91269599D01*
X173779740Y-91208865D01*
X173776683Y-91208694D01*
X173776682Y-91208694D01*
X173747924Y-91207086D01*
X173383368Y-91186704D01*
X173380290Y-91186833D01*
X173380286Y-91186833D01*
X173121983Y-91197659D01*
X172986724Y-91203328D01*
X172983680Y-91203756D01*
X172983678Y-91203756D01*
X172943989Y-91209334D01*
X172593596Y-91258579D01*
X172207735Y-91351928D01*
X171832825Y-91482486D01*
X171786035Y-91504106D01*
X171475242Y-91647712D01*
X171475232Y-91647717D01*
X171472445Y-91649005D01*
X171130034Y-91849896D01*
X171115899Y-91860166D01*
X170811342Y-92081439D01*
X170811336Y-92081444D01*
X170808861Y-92083242D01*
X170806575Y-92085271D01*
X170806572Y-92085274D01*
X170719567Y-92162521D01*
X170511991Y-92346815D01*
X170509901Y-92349072D01*
X170509899Y-92349074D01*
X170244354Y-92635837D01*
X170244349Y-92635843D01*
X170242259Y-92638100D01*
X170240399Y-92640550D01*
X170240396Y-92640554D01*
X170207202Y-92684286D01*
X170002238Y-92954316D01*
X170000627Y-92956934D01*
X170000624Y-92956939D01*
X169880048Y-93152933D01*
X169794220Y-93292445D01*
X169620190Y-93649258D01*
X169619119Y-93652139D01*
X169619116Y-93652145D01*
X169563891Y-93800642D01*
X169481810Y-94021352D01*
X169380400Y-94405173D01*
X169379909Y-94408206D01*
X169345937Y-94617955D01*
X169316928Y-94797058D01*
X169316734Y-94800138D01*
X169316734Y-94800140D01*
X169309762Y-94910967D01*
X169292001Y-95193266D01*
X150245410Y-95193266D01*
X150228862Y-94877525D01*
X150170515Y-94509131D01*
X150073979Y-94148854D01*
X149940312Y-93800642D01*
X149938817Y-93797707D01*
X149772479Y-93471250D01*
X149772475Y-93471243D01*
X149770980Y-93468309D01*
X149679657Y-93327683D01*
X149569634Y-93158263D01*
X149569633Y-93158262D01*
X149567837Y-93155496D01*
X149528449Y-93106855D01*
X149335184Y-92868192D01*
X149335182Y-92868190D01*
X149333110Y-92865631D01*
X149069369Y-92601890D01*
X148779504Y-92367163D01*
X148466692Y-92164020D01*
X148293917Y-92075987D01*
X148137293Y-91996183D01*
X148137286Y-91996180D01*
X148134358Y-91994688D01*
X148131286Y-91993509D01*
X148131282Y-91993507D01*
X148005251Y-91945128D01*
X147786146Y-91861021D01*
X147425869Y-91764485D01*
X147422619Y-91763970D01*
X147422613Y-91763969D01*
X147149372Y-91720693D01*
X147057475Y-91706138D01*
X147054190Y-91705966D01*
X147054182Y-91705965D01*
X146688301Y-91686790D01*
X146685000Y-91686617D01*
X146681699Y-91686790D01*
X146315818Y-91705965D01*
X146315810Y-91705966D01*
X146312525Y-91706138D01*
X146220628Y-91720693D01*
X145947387Y-91763969D01*
X145947381Y-91763970D01*
X145944131Y-91764485D01*
X145583854Y-91861021D01*
X145364749Y-91945128D01*
X145238718Y-91993507D01*
X145238714Y-91993509D01*
X145235642Y-91994688D01*
X145232714Y-91996180D01*
X145232707Y-91996183D01*
X144906250Y-92162521D01*
X144906247Y-92162523D01*
X144903309Y-92164020D01*
X144900543Y-92165816D01*
X144900540Y-92165818D01*
X144593263Y-92365366D01*
X144590496Y-92367163D01*
X144587939Y-92369234D01*
X144587933Y-92369238D01*
X144563428Y-92389082D01*
X144300631Y-92601890D01*
X144036890Y-92865631D01*
X144034818Y-92868190D01*
X144034816Y-92868192D01*
X143841552Y-93106855D01*
X143802163Y-93155496D01*
X143800367Y-93158262D01*
X143800366Y-93158263D01*
X143690344Y-93327683D01*
X143599020Y-93468309D01*
X143597525Y-93471243D01*
X143597521Y-93471250D01*
X143431183Y-93797707D01*
X143429688Y-93800642D01*
X143296021Y-94148854D01*
X143199485Y-94509131D01*
X143141138Y-94877525D01*
X143121617Y-95250000D01*
X122808395Y-95250000D01*
X122805772Y-95196356D01*
X122789152Y-94856552D01*
X122789002Y-94853482D01*
X122754222Y-94617955D01*
X122731458Y-94463795D01*
X122731457Y-94463791D01*
X122731008Y-94460749D01*
X122634967Y-94075550D01*
X122616728Y-94024327D01*
X122502828Y-93704460D01*
X122501796Y-93701561D01*
X122332765Y-93342352D01*
X122303015Y-93292445D01*
X122221376Y-93155496D01*
X122129488Y-93001352D01*
X121893906Y-92681815D01*
X121628266Y-92386793D01*
X121335105Y-92119100D01*
X121017222Y-91881293D01*
X120968370Y-91851707D01*
X120680277Y-91677231D01*
X120680268Y-91677226D01*
X120677649Y-91675640D01*
X120319629Y-91504106D01*
X120260229Y-91482486D01*
X119949475Y-91369381D01*
X119949474Y-91369381D01*
X119946579Y-91368327D01*
X119739688Y-91315206D01*
X119565043Y-91270365D01*
X119565040Y-91270364D01*
X119562059Y-91269599D01*
X119169740Y-91208865D01*
X119166683Y-91208694D01*
X119166682Y-91208694D01*
X119137924Y-91207086D01*
X118773368Y-91186704D01*
X118770290Y-91186833D01*
X118770286Y-91186833D01*
X118511983Y-91197659D01*
X118376724Y-91203328D01*
X118373680Y-91203756D01*
X118373678Y-91203756D01*
X118333989Y-91209334D01*
X117983596Y-91258579D01*
X117597735Y-91351928D01*
X117222825Y-91482486D01*
X117176035Y-91504106D01*
X116865242Y-91647712D01*
X116865232Y-91647717D01*
X116862445Y-91649005D01*
X116520034Y-91849896D01*
X116505899Y-91860166D01*
X116201342Y-92081439D01*
X116201336Y-92081444D01*
X116198861Y-92083242D01*
X116196575Y-92085271D01*
X116196572Y-92085274D01*
X116109567Y-92162521D01*
X115901991Y-92346815D01*
X115899901Y-92349072D01*
X115899899Y-92349074D01*
X115634354Y-92635837D01*
X115634349Y-92635843D01*
X115632259Y-92638100D01*
X115630399Y-92640550D01*
X115630396Y-92640554D01*
X115597202Y-92684286D01*
X115392238Y-92954316D01*
X115390627Y-92956934D01*
X115390624Y-92956939D01*
X115270048Y-93152933D01*
X115184220Y-93292445D01*
X115010190Y-93649258D01*
X115009119Y-93652139D01*
X115009116Y-93652145D01*
X114953891Y-93800642D01*
X114871810Y-94021352D01*
X114770400Y-94405173D01*
X114769909Y-94408206D01*
X114735937Y-94617955D01*
X114706928Y-94797058D01*
X114706734Y-94800138D01*
X114706734Y-94800140D01*
X114699762Y-94910967D01*
X114682001Y-95193266D01*
X94865621Y-95193266D01*
X94849152Y-94856552D01*
X94849002Y-94853482D01*
X94814222Y-94617955D01*
X94791458Y-94463795D01*
X94791457Y-94463791D01*
X94791008Y-94460749D01*
X94694967Y-94075550D01*
X94676728Y-94024327D01*
X94562828Y-93704460D01*
X94561796Y-93701561D01*
X94392765Y-93342352D01*
X94363015Y-93292445D01*
X94281376Y-93155496D01*
X94189488Y-93001352D01*
X93953906Y-92681815D01*
X93688266Y-92386793D01*
X93395105Y-92119100D01*
X93077222Y-91881293D01*
X93028370Y-91851707D01*
X92740277Y-91677231D01*
X92740268Y-91677226D01*
X92737649Y-91675640D01*
X92379629Y-91504106D01*
X92320229Y-91482486D01*
X92009475Y-91369381D01*
X92009474Y-91369381D01*
X92006579Y-91368327D01*
X91799688Y-91315206D01*
X91625043Y-91270365D01*
X91625040Y-91270364D01*
X91622059Y-91269599D01*
X91229740Y-91208865D01*
X91226683Y-91208694D01*
X91226682Y-91208694D01*
X91197924Y-91207086D01*
X90833368Y-91186704D01*
X90830290Y-91186833D01*
X90830286Y-91186833D01*
X90571983Y-91197659D01*
X90436724Y-91203328D01*
X90433680Y-91203756D01*
X90433678Y-91203756D01*
X90393989Y-91209334D01*
X90043596Y-91258579D01*
X89657735Y-91351928D01*
X89282825Y-91482486D01*
X89236035Y-91504106D01*
X88925242Y-91647712D01*
X88925232Y-91647717D01*
X88922445Y-91649005D01*
X88580034Y-91849896D01*
X88565899Y-91860166D01*
X88261342Y-92081439D01*
X88261336Y-92081444D01*
X88258861Y-92083242D01*
X88256575Y-92085271D01*
X88256572Y-92085274D01*
X88169567Y-92162521D01*
X87961991Y-92346815D01*
X87959901Y-92349072D01*
X87959899Y-92349074D01*
X87694354Y-92635837D01*
X87694349Y-92635843D01*
X87692259Y-92638100D01*
X87690399Y-92640550D01*
X87690396Y-92640554D01*
X87657202Y-92684286D01*
X87452238Y-92954316D01*
X87450627Y-92956934D01*
X87450624Y-92956939D01*
X87330048Y-93152933D01*
X87244220Y-93292445D01*
X87070190Y-93649258D01*
X87069119Y-93652139D01*
X87069116Y-93652145D01*
X87013891Y-93800642D01*
X86931810Y-94021352D01*
X86830400Y-94405173D01*
X86829909Y-94408206D01*
X86795937Y-94617955D01*
X86766928Y-94797058D01*
X86766734Y-94800138D01*
X86766734Y-94800140D01*
X86759762Y-94910967D01*
X86742001Y-95193266D01*
X77343500Y-95193266D01*
X77343500Y-73603266D01*
X86742001Y-73603266D01*
X86742109Y-73606356D01*
X86742499Y-73617534D01*
X86755106Y-73978534D01*
X86755856Y-74000016D01*
X86756262Y-74003060D01*
X86756263Y-74003070D01*
X86766968Y-74083295D01*
X86808361Y-74393521D01*
X86809061Y-74396505D01*
X86809062Y-74396511D01*
X86861492Y-74620047D01*
X86899014Y-74780023D01*
X87026951Y-75155835D01*
X87190950Y-75517369D01*
X87389446Y-75861174D01*
X87391235Y-75863672D01*
X87391237Y-75863676D01*
X87544041Y-76077110D01*
X87620544Y-76183969D01*
X87882038Y-76482671D01*
X87884286Y-76484782D01*
X88169178Y-76752314D01*
X88169185Y-76752320D01*
X88171433Y-76754431D01*
X88173883Y-76756318D01*
X88173888Y-76756322D01*
X88381874Y-76916493D01*
X88485965Y-76996654D01*
X88488564Y-76998278D01*
X88488574Y-76998285D01*
X88669998Y-77111650D01*
X88822634Y-77207027D01*
X89178224Y-77383544D01*
X89549342Y-77524518D01*
X89932446Y-77628605D01*
X89935489Y-77629120D01*
X89935495Y-77629121D01*
X90320837Y-77694297D01*
X90320844Y-77694298D01*
X90323878Y-77694811D01*
X90326949Y-77695026D01*
X90326951Y-77695026D01*
X90716837Y-77722290D01*
X90716845Y-77722290D01*
X90719903Y-77722504D01*
X90976170Y-77715346D01*
X91113666Y-77711505D01*
X91113669Y-77711505D01*
X91116740Y-77711419D01*
X91119793Y-77711033D01*
X91119797Y-77711033D01*
X91308315Y-77687218D01*
X91510601Y-77661663D01*
X91513605Y-77660981D01*
X91513608Y-77660980D01*
X91894731Y-77574391D01*
X91894737Y-77574389D01*
X91897727Y-77573710D01*
X92045604Y-77524518D01*
X92271499Y-77449373D01*
X92271505Y-77449371D01*
X92274423Y-77448400D01*
X92417633Y-77384639D01*
X92634294Y-77288176D01*
X92634300Y-77288173D01*
X92637094Y-77286929D01*
X92639763Y-77285413D01*
X92979603Y-77092357D01*
X92979611Y-77092352D01*
X92982276Y-77090838D01*
X93306676Y-76861999D01*
X93607197Y-76602596D01*
X93609318Y-76600369D01*
X93609324Y-76600363D01*
X93878853Y-76317329D01*
X93880970Y-76315106D01*
X93884816Y-76310184D01*
X94123472Y-76004717D01*
X94123474Y-76004714D01*
X94125382Y-76002272D01*
X94127038Y-75999662D01*
X94127044Y-75999654D01*
X94336447Y-75669688D01*
X94336451Y-75669681D01*
X94338101Y-75667081D01*
X94364390Y-75615039D01*
X94451954Y-75441691D01*
X94517096Y-75312732D01*
X94518203Y-75309878D01*
X94518207Y-75309869D01*
X94659543Y-74945483D01*
X94659546Y-74945474D01*
X94660658Y-74942607D01*
X94767417Y-74560239D01*
X94836354Y-74169278D01*
X94866811Y-73773457D01*
X94868395Y-73660000D01*
X94865772Y-73606356D01*
X94865621Y-73603266D01*
X114682001Y-73603266D01*
X114682109Y-73606356D01*
X114682499Y-73617534D01*
X114695106Y-73978534D01*
X114695856Y-74000016D01*
X114696262Y-74003060D01*
X114696263Y-74003070D01*
X114706968Y-74083295D01*
X114748361Y-74393521D01*
X114749061Y-74396505D01*
X114749062Y-74396511D01*
X114801492Y-74620047D01*
X114839014Y-74780023D01*
X114966951Y-75155835D01*
X115130950Y-75517369D01*
X115329446Y-75861174D01*
X115331235Y-75863672D01*
X115331237Y-75863676D01*
X115484041Y-76077110D01*
X115560544Y-76183969D01*
X115822038Y-76482671D01*
X115824286Y-76484782D01*
X116109178Y-76752314D01*
X116109185Y-76752320D01*
X116111433Y-76754431D01*
X116113883Y-76756318D01*
X116113888Y-76756322D01*
X116321874Y-76916493D01*
X116425965Y-76996654D01*
X116428564Y-76998278D01*
X116428574Y-76998285D01*
X116609998Y-77111650D01*
X116762634Y-77207027D01*
X117118224Y-77383544D01*
X117489342Y-77524518D01*
X117872446Y-77628605D01*
X117875489Y-77629120D01*
X117875495Y-77629121D01*
X118260837Y-77694297D01*
X118260844Y-77694298D01*
X118263878Y-77694811D01*
X118266949Y-77695026D01*
X118266951Y-77695026D01*
X118656837Y-77722290D01*
X118656845Y-77722290D01*
X118659903Y-77722504D01*
X118916170Y-77715346D01*
X119053666Y-77711505D01*
X119053669Y-77711505D01*
X119056740Y-77711419D01*
X119059793Y-77711033D01*
X119059797Y-77711033D01*
X119248315Y-77687218D01*
X119450601Y-77661663D01*
X119453605Y-77660981D01*
X119453608Y-77660980D01*
X119834731Y-77574391D01*
X119834737Y-77574389D01*
X119837727Y-77573710D01*
X119985604Y-77524518D01*
X120211499Y-77449373D01*
X120211505Y-77449371D01*
X120214423Y-77448400D01*
X120357633Y-77384639D01*
X120574294Y-77288176D01*
X120574300Y-77288173D01*
X120577094Y-77286929D01*
X120579763Y-77285413D01*
X120919603Y-77092357D01*
X120919611Y-77092352D01*
X120922276Y-77090838D01*
X121246676Y-76861999D01*
X121547197Y-76602596D01*
X121549318Y-76600369D01*
X121549324Y-76600363D01*
X121818853Y-76317329D01*
X121820970Y-76315106D01*
X121824816Y-76310184D01*
X122063472Y-76004717D01*
X122063474Y-76004714D01*
X122065382Y-76002272D01*
X122067038Y-75999662D01*
X122067044Y-75999654D01*
X122276447Y-75669688D01*
X122276451Y-75669681D01*
X122278101Y-75667081D01*
X122304390Y-75615039D01*
X122391954Y-75441691D01*
X122457096Y-75312732D01*
X122458203Y-75309878D01*
X122458207Y-75309869D01*
X122599543Y-74945483D01*
X122599546Y-74945474D01*
X122600658Y-74942607D01*
X122707417Y-74560239D01*
X122776354Y-74169278D01*
X122806811Y-73773457D01*
X122808395Y-73660000D01*
X143121617Y-73660000D01*
X143121790Y-73663301D01*
X143139437Y-74000016D01*
X143141138Y-74032475D01*
X143141653Y-74035726D01*
X143198795Y-74396511D01*
X143199485Y-74400869D01*
X143296021Y-74761146D01*
X143429688Y-75109358D01*
X143431180Y-75112286D01*
X143431183Y-75112293D01*
X143548806Y-75343140D01*
X143599020Y-75441691D01*
X143600816Y-75444457D01*
X143600818Y-75444460D01*
X143743605Y-75664332D01*
X143802163Y-75754504D01*
X143804234Y-75757061D01*
X143804238Y-75757067D01*
X144034816Y-76041808D01*
X144036890Y-76044369D01*
X144300631Y-76308110D01*
X144303190Y-76310182D01*
X144303192Y-76310184D01*
X144362293Y-76358042D01*
X144590496Y-76542837D01*
X144903308Y-76745980D01*
X145076083Y-76834013D01*
X145232707Y-76913817D01*
X145232714Y-76913820D01*
X145235642Y-76915312D01*
X145238714Y-76916491D01*
X145238718Y-76916493D01*
X145364749Y-76964872D01*
X145583854Y-77048979D01*
X145944131Y-77145515D01*
X145947381Y-77146030D01*
X145947387Y-77146031D01*
X146220628Y-77189307D01*
X146312525Y-77203862D01*
X146315810Y-77204034D01*
X146315818Y-77204035D01*
X146681699Y-77223210D01*
X146685000Y-77223383D01*
X146688301Y-77223210D01*
X147054182Y-77204035D01*
X147054190Y-77204034D01*
X147057475Y-77203862D01*
X147149372Y-77189307D01*
X147422613Y-77146031D01*
X147422619Y-77146030D01*
X147425869Y-77145515D01*
X147786146Y-77048979D01*
X148005251Y-76964872D01*
X148131282Y-76916493D01*
X148131286Y-76916491D01*
X148134358Y-76915312D01*
X148137286Y-76913820D01*
X148137293Y-76913817D01*
X148293917Y-76834013D01*
X148466692Y-76745980D01*
X148779504Y-76542837D01*
X149007707Y-76358042D01*
X149066808Y-76310184D01*
X149066810Y-76310182D01*
X149069369Y-76308110D01*
X149333110Y-76044369D01*
X149335184Y-76041808D01*
X149565762Y-75757067D01*
X149565766Y-75757061D01*
X149567837Y-75754504D01*
X149626395Y-75664332D01*
X149769182Y-75444460D01*
X149769184Y-75444457D01*
X149770980Y-75441691D01*
X149821195Y-75343140D01*
X149938817Y-75112293D01*
X149938820Y-75112286D01*
X149940312Y-75109358D01*
X150073979Y-74761146D01*
X150170515Y-74400869D01*
X150171206Y-74396511D01*
X150228347Y-74035726D01*
X150228862Y-74032475D01*
X150230564Y-74000016D01*
X150248210Y-73663301D01*
X150248383Y-73660000D01*
X150245410Y-73603266D01*
X169292001Y-73603266D01*
X169292109Y-73606356D01*
X169292499Y-73617534D01*
X169305106Y-73978534D01*
X169305856Y-74000016D01*
X169306262Y-74003060D01*
X169306263Y-74003070D01*
X169316968Y-74083295D01*
X169358361Y-74393521D01*
X169359061Y-74396505D01*
X169359062Y-74396511D01*
X169411492Y-74620047D01*
X169449014Y-74780023D01*
X169576951Y-75155835D01*
X169740950Y-75517369D01*
X169939446Y-75861174D01*
X169941235Y-75863672D01*
X169941237Y-75863676D01*
X170094041Y-76077110D01*
X170170544Y-76183969D01*
X170432038Y-76482671D01*
X170434286Y-76484782D01*
X170719178Y-76752314D01*
X170719185Y-76752320D01*
X170721433Y-76754431D01*
X170723883Y-76756318D01*
X170723888Y-76756322D01*
X170931874Y-76916493D01*
X171035965Y-76996654D01*
X171038564Y-76998278D01*
X171038574Y-76998285D01*
X171219998Y-77111650D01*
X171372634Y-77207027D01*
X171728224Y-77383544D01*
X172099342Y-77524518D01*
X172482446Y-77628605D01*
X172485489Y-77629120D01*
X172485495Y-77629121D01*
X172870837Y-77694297D01*
X172870844Y-77694298D01*
X172873878Y-77694811D01*
X172876949Y-77695026D01*
X172876951Y-77695026D01*
X173266837Y-77722290D01*
X173266845Y-77722290D01*
X173269903Y-77722504D01*
X173526170Y-77715346D01*
X173663666Y-77711505D01*
X173663669Y-77711505D01*
X173666740Y-77711419D01*
X173669793Y-77711033D01*
X173669797Y-77711033D01*
X173858315Y-77687218D01*
X174060601Y-77661663D01*
X174063605Y-77660981D01*
X174063608Y-77660980D01*
X174444731Y-77574391D01*
X174444737Y-77574389D01*
X174447727Y-77573710D01*
X174595604Y-77524518D01*
X174821499Y-77449373D01*
X174821505Y-77449371D01*
X174824423Y-77448400D01*
X174967633Y-77384639D01*
X175184294Y-77288176D01*
X175184300Y-77288173D01*
X175187094Y-77286929D01*
X175189763Y-77285413D01*
X175529603Y-77092357D01*
X175529611Y-77092352D01*
X175532276Y-77090838D01*
X175856676Y-76861999D01*
X176157197Y-76602596D01*
X176159318Y-76600369D01*
X176159324Y-76600363D01*
X176428853Y-76317329D01*
X176430970Y-76315106D01*
X176434816Y-76310184D01*
X176673472Y-76004717D01*
X176673474Y-76004714D01*
X176675382Y-76002272D01*
X176677038Y-75999662D01*
X176677044Y-75999654D01*
X176886447Y-75669688D01*
X176886451Y-75669681D01*
X176888101Y-75667081D01*
X176914390Y-75615039D01*
X177001954Y-75441691D01*
X177067096Y-75312732D01*
X177068203Y-75309878D01*
X177068207Y-75309869D01*
X177209543Y-74945483D01*
X177209546Y-74945474D01*
X177210658Y-74942607D01*
X177317417Y-74560239D01*
X177386354Y-74169278D01*
X177416811Y-73773457D01*
X177418395Y-73660000D01*
X177415772Y-73606356D01*
X177415621Y-73603266D01*
X195962001Y-73603266D01*
X195962109Y-73606356D01*
X195962499Y-73617534D01*
X195975106Y-73978534D01*
X195975856Y-74000016D01*
X195976262Y-74003060D01*
X195976263Y-74003070D01*
X195986968Y-74083295D01*
X196028361Y-74393521D01*
X196029061Y-74396505D01*
X196029062Y-74396511D01*
X196081492Y-74620047D01*
X196119014Y-74780023D01*
X196246951Y-75155835D01*
X196410950Y-75517369D01*
X196609446Y-75861174D01*
X196611235Y-75863672D01*
X196611237Y-75863676D01*
X196764041Y-76077110D01*
X196840544Y-76183969D01*
X197102038Y-76482671D01*
X197104286Y-76484782D01*
X197389178Y-76752314D01*
X197389185Y-76752320D01*
X197391433Y-76754431D01*
X197393883Y-76756318D01*
X197393888Y-76756322D01*
X197601874Y-76916493D01*
X197705965Y-76996654D01*
X197708564Y-76998278D01*
X197708574Y-76998285D01*
X197889998Y-77111650D01*
X198042634Y-77207027D01*
X198398224Y-77383544D01*
X198769342Y-77524518D01*
X199152446Y-77628605D01*
X199155489Y-77629120D01*
X199155495Y-77629121D01*
X199540837Y-77694297D01*
X199540844Y-77694298D01*
X199543878Y-77694811D01*
X199546949Y-77695026D01*
X199546951Y-77695026D01*
X199936837Y-77722290D01*
X199936845Y-77722290D01*
X199939903Y-77722504D01*
X200196170Y-77715346D01*
X200333666Y-77711505D01*
X200333669Y-77711505D01*
X200336740Y-77711419D01*
X200339793Y-77711033D01*
X200339797Y-77711033D01*
X200528315Y-77687218D01*
X200730601Y-77661663D01*
X200733605Y-77660981D01*
X200733608Y-77660980D01*
X201114731Y-77574391D01*
X201114737Y-77574389D01*
X201117727Y-77573710D01*
X201265604Y-77524518D01*
X201491499Y-77449373D01*
X201491505Y-77449371D01*
X201494423Y-77448400D01*
X201637633Y-77384639D01*
X201854294Y-77288176D01*
X201854300Y-77288173D01*
X201857094Y-77286929D01*
X201859763Y-77285413D01*
X202199603Y-77092357D01*
X202199611Y-77092352D01*
X202202276Y-77090838D01*
X202526676Y-76861999D01*
X202827197Y-76602596D01*
X202829318Y-76600369D01*
X202829324Y-76600363D01*
X203098853Y-76317329D01*
X203100970Y-76315106D01*
X203104816Y-76310184D01*
X203343472Y-76004717D01*
X203343474Y-76004714D01*
X203345382Y-76002272D01*
X203347038Y-75999662D01*
X203347044Y-75999654D01*
X203556447Y-75669688D01*
X203556451Y-75669681D01*
X203558101Y-75667081D01*
X203584390Y-75615039D01*
X203671954Y-75441691D01*
X203737096Y-75312732D01*
X203738203Y-75309878D01*
X203738207Y-75309869D01*
X203879543Y-74945483D01*
X203879546Y-74945474D01*
X203880658Y-74942607D01*
X203987417Y-74560239D01*
X204056354Y-74169278D01*
X204086811Y-73773457D01*
X204088395Y-73660000D01*
X204085772Y-73606356D01*
X204069152Y-73266552D01*
X204069002Y-73263482D01*
X204034222Y-73027955D01*
X204011458Y-72873795D01*
X204011457Y-72873791D01*
X204011008Y-72870749D01*
X203914967Y-72485550D01*
X203896728Y-72434327D01*
X203782828Y-72114460D01*
X203781796Y-72111561D01*
X203612765Y-71752352D01*
X203583015Y-71702445D01*
X203501376Y-71565496D01*
X203409488Y-71411352D01*
X203173906Y-71091815D01*
X202908266Y-70796793D01*
X202615105Y-70529100D01*
X202297222Y-70291293D01*
X202248370Y-70261707D01*
X201960277Y-70087231D01*
X201960268Y-70087226D01*
X201957649Y-70085640D01*
X201599629Y-69914106D01*
X201540229Y-69892486D01*
X201229475Y-69779381D01*
X201229474Y-69779381D01*
X201226579Y-69778327D01*
X201019688Y-69725206D01*
X200845043Y-69680365D01*
X200845040Y-69680364D01*
X200842059Y-69679599D01*
X200449740Y-69618865D01*
X200446683Y-69618694D01*
X200446682Y-69618694D01*
X200417924Y-69617086D01*
X200053368Y-69596704D01*
X200050290Y-69596833D01*
X200050286Y-69596833D01*
X199791983Y-69607659D01*
X199656724Y-69613328D01*
X199653680Y-69613756D01*
X199653678Y-69613756D01*
X199613989Y-69619334D01*
X199263596Y-69668579D01*
X198877735Y-69761928D01*
X198502825Y-69892486D01*
X198456035Y-69914106D01*
X198145242Y-70057712D01*
X198145232Y-70057717D01*
X198142445Y-70059005D01*
X197800034Y-70259896D01*
X197785899Y-70270166D01*
X197481342Y-70491439D01*
X197481336Y-70491444D01*
X197478861Y-70493242D01*
X197476575Y-70495271D01*
X197476572Y-70495274D01*
X197389567Y-70572521D01*
X197181991Y-70756815D01*
X197179901Y-70759072D01*
X197179899Y-70759074D01*
X196914354Y-71045837D01*
X196914349Y-71045843D01*
X196912259Y-71048100D01*
X196910399Y-71050550D01*
X196910396Y-71050554D01*
X196877202Y-71094286D01*
X196672238Y-71364316D01*
X196670627Y-71366934D01*
X196670624Y-71366939D01*
X196550048Y-71562933D01*
X196464220Y-71702445D01*
X196290190Y-72059258D01*
X196289119Y-72062139D01*
X196289116Y-72062145D01*
X196233891Y-72210642D01*
X196151810Y-72431352D01*
X196050400Y-72815173D01*
X196049909Y-72818206D01*
X196015937Y-73027955D01*
X195986928Y-73207058D01*
X195986734Y-73210138D01*
X195986734Y-73210140D01*
X195979762Y-73320967D01*
X195962001Y-73603266D01*
X177415621Y-73603266D01*
X177399152Y-73266552D01*
X177399002Y-73263482D01*
X177364222Y-73027955D01*
X177341458Y-72873795D01*
X177341457Y-72873791D01*
X177341008Y-72870749D01*
X177244967Y-72485550D01*
X177226728Y-72434327D01*
X177112828Y-72114460D01*
X177111796Y-72111561D01*
X176942765Y-71752352D01*
X176913015Y-71702445D01*
X176831376Y-71565496D01*
X176739488Y-71411352D01*
X176503906Y-71091815D01*
X176238266Y-70796793D01*
X175945105Y-70529100D01*
X175627222Y-70291293D01*
X175578370Y-70261707D01*
X175290277Y-70087231D01*
X175290268Y-70087226D01*
X175287649Y-70085640D01*
X174929629Y-69914106D01*
X174870229Y-69892486D01*
X174559475Y-69779381D01*
X174559474Y-69779381D01*
X174556579Y-69778327D01*
X174349688Y-69725206D01*
X174175043Y-69680365D01*
X174175040Y-69680364D01*
X174172059Y-69679599D01*
X173779740Y-69618865D01*
X173776683Y-69618694D01*
X173776682Y-69618694D01*
X173747924Y-69617086D01*
X173383368Y-69596704D01*
X173380290Y-69596833D01*
X173380286Y-69596833D01*
X173121983Y-69607659D01*
X172986724Y-69613328D01*
X172983680Y-69613756D01*
X172983678Y-69613756D01*
X172943989Y-69619334D01*
X172593596Y-69668579D01*
X172207735Y-69761928D01*
X171832825Y-69892486D01*
X171786035Y-69914106D01*
X171475242Y-70057712D01*
X171475232Y-70057717D01*
X171472445Y-70059005D01*
X171130034Y-70259896D01*
X171115899Y-70270166D01*
X170811342Y-70491439D01*
X170811336Y-70491444D01*
X170808861Y-70493242D01*
X170806575Y-70495271D01*
X170806572Y-70495274D01*
X170719567Y-70572521D01*
X170511991Y-70756815D01*
X170509901Y-70759072D01*
X170509899Y-70759074D01*
X170244354Y-71045837D01*
X170244349Y-71045843D01*
X170242259Y-71048100D01*
X170240399Y-71050550D01*
X170240396Y-71050554D01*
X170207202Y-71094286D01*
X170002238Y-71364316D01*
X170000627Y-71366934D01*
X170000624Y-71366939D01*
X169880048Y-71562933D01*
X169794220Y-71702445D01*
X169620190Y-72059258D01*
X169619119Y-72062139D01*
X169619116Y-72062145D01*
X169563891Y-72210642D01*
X169481810Y-72431352D01*
X169380400Y-72815173D01*
X169379909Y-72818206D01*
X169345937Y-73027955D01*
X169316928Y-73207058D01*
X169316734Y-73210138D01*
X169316734Y-73210140D01*
X169309762Y-73320967D01*
X169292001Y-73603266D01*
X150245410Y-73603266D01*
X150228862Y-73287525D01*
X150170515Y-72919131D01*
X150073979Y-72558854D01*
X149940312Y-72210642D01*
X149938817Y-72207707D01*
X149772479Y-71881250D01*
X149772475Y-71881243D01*
X149770980Y-71878309D01*
X149679657Y-71737683D01*
X149569634Y-71568263D01*
X149569633Y-71568262D01*
X149567837Y-71565496D01*
X149528449Y-71516855D01*
X149335184Y-71278192D01*
X149335182Y-71278190D01*
X149333110Y-71275631D01*
X149069369Y-71011890D01*
X148779504Y-70777163D01*
X148466692Y-70574020D01*
X148293917Y-70485987D01*
X148137293Y-70406183D01*
X148137286Y-70406180D01*
X148134358Y-70404688D01*
X148131286Y-70403509D01*
X148131282Y-70403507D01*
X148005251Y-70355128D01*
X147786146Y-70271021D01*
X147425869Y-70174485D01*
X147422619Y-70173970D01*
X147422613Y-70173969D01*
X147149372Y-70130693D01*
X147057475Y-70116138D01*
X147054190Y-70115966D01*
X147054182Y-70115965D01*
X146688301Y-70096790D01*
X146685000Y-70096617D01*
X146681699Y-70096790D01*
X146315818Y-70115965D01*
X146315810Y-70115966D01*
X146312525Y-70116138D01*
X146220628Y-70130693D01*
X145947387Y-70173969D01*
X145947381Y-70173970D01*
X145944131Y-70174485D01*
X145583854Y-70271021D01*
X145364749Y-70355128D01*
X145238718Y-70403507D01*
X145238714Y-70403509D01*
X145235642Y-70404688D01*
X145232714Y-70406180D01*
X145232707Y-70406183D01*
X144906250Y-70572521D01*
X144906247Y-70572523D01*
X144903309Y-70574020D01*
X144900543Y-70575816D01*
X144900540Y-70575818D01*
X144593263Y-70775366D01*
X144590496Y-70777163D01*
X144587939Y-70779234D01*
X144587933Y-70779238D01*
X144563428Y-70799082D01*
X144300631Y-71011890D01*
X144036890Y-71275631D01*
X144034818Y-71278190D01*
X144034816Y-71278192D01*
X143841552Y-71516855D01*
X143802163Y-71565496D01*
X143800367Y-71568262D01*
X143800366Y-71568263D01*
X143690344Y-71737683D01*
X143599020Y-71878309D01*
X143597525Y-71881243D01*
X143597521Y-71881250D01*
X143431183Y-72207707D01*
X143429688Y-72210642D01*
X143296021Y-72558854D01*
X143199485Y-72919131D01*
X143141138Y-73287525D01*
X143121617Y-73660000D01*
X122808395Y-73660000D01*
X122805772Y-73606356D01*
X122789152Y-73266552D01*
X122789002Y-73263482D01*
X122754222Y-73027955D01*
X122731458Y-72873795D01*
X122731457Y-72873791D01*
X122731008Y-72870749D01*
X122634967Y-72485550D01*
X122616728Y-72434327D01*
X122502828Y-72114460D01*
X122501796Y-72111561D01*
X122332765Y-71752352D01*
X122303015Y-71702445D01*
X122221376Y-71565496D01*
X122129488Y-71411352D01*
X121893906Y-71091815D01*
X121628266Y-70796793D01*
X121335105Y-70529100D01*
X121017222Y-70291293D01*
X120968370Y-70261707D01*
X120680277Y-70087231D01*
X120680268Y-70087226D01*
X120677649Y-70085640D01*
X120319629Y-69914106D01*
X120260229Y-69892486D01*
X119949475Y-69779381D01*
X119949474Y-69779381D01*
X119946579Y-69778327D01*
X119739688Y-69725206D01*
X119565043Y-69680365D01*
X119565040Y-69680364D01*
X119562059Y-69679599D01*
X119169740Y-69618865D01*
X119166683Y-69618694D01*
X119166682Y-69618694D01*
X119137924Y-69617086D01*
X118773368Y-69596704D01*
X118770290Y-69596833D01*
X118770286Y-69596833D01*
X118511983Y-69607659D01*
X118376724Y-69613328D01*
X118373680Y-69613756D01*
X118373678Y-69613756D01*
X118333989Y-69619334D01*
X117983596Y-69668579D01*
X117597735Y-69761928D01*
X117222825Y-69892486D01*
X117176035Y-69914106D01*
X116865242Y-70057712D01*
X116865232Y-70057717D01*
X116862445Y-70059005D01*
X116520034Y-70259896D01*
X116505899Y-70270166D01*
X116201342Y-70491439D01*
X116201336Y-70491444D01*
X116198861Y-70493242D01*
X116196575Y-70495271D01*
X116196572Y-70495274D01*
X116109567Y-70572521D01*
X115901991Y-70756815D01*
X115899901Y-70759072D01*
X115899899Y-70759074D01*
X115634354Y-71045837D01*
X115634349Y-71045843D01*
X115632259Y-71048100D01*
X115630399Y-71050550D01*
X115630396Y-71050554D01*
X115597202Y-71094286D01*
X115392238Y-71364316D01*
X115390627Y-71366934D01*
X115390624Y-71366939D01*
X115270048Y-71562933D01*
X115184220Y-71702445D01*
X115010190Y-72059258D01*
X115009119Y-72062139D01*
X115009116Y-72062145D01*
X114953891Y-72210642D01*
X114871810Y-72431352D01*
X114770400Y-72815173D01*
X114769909Y-72818206D01*
X114735937Y-73027955D01*
X114706928Y-73207058D01*
X114706734Y-73210138D01*
X114706734Y-73210140D01*
X114699762Y-73320967D01*
X114682001Y-73603266D01*
X94865621Y-73603266D01*
X94849152Y-73266552D01*
X94849002Y-73263482D01*
X94814222Y-73027955D01*
X94791458Y-72873795D01*
X94791457Y-72873791D01*
X94791008Y-72870749D01*
X94694967Y-72485550D01*
X94676728Y-72434327D01*
X94562828Y-72114460D01*
X94561796Y-72111561D01*
X94392765Y-71752352D01*
X94363015Y-71702445D01*
X94281376Y-71565496D01*
X94189488Y-71411352D01*
X93953906Y-71091815D01*
X93688266Y-70796793D01*
X93395105Y-70529100D01*
X93077222Y-70291293D01*
X93028370Y-70261707D01*
X92740277Y-70087231D01*
X92740268Y-70087226D01*
X92737649Y-70085640D01*
X92379629Y-69914106D01*
X92320229Y-69892486D01*
X92009475Y-69779381D01*
X92009474Y-69779381D01*
X92006579Y-69778327D01*
X91799688Y-69725206D01*
X91625043Y-69680365D01*
X91625040Y-69680364D01*
X91622059Y-69679599D01*
X91229740Y-69618865D01*
X91226683Y-69618694D01*
X91226682Y-69618694D01*
X91197924Y-69617086D01*
X90833368Y-69596704D01*
X90830290Y-69596833D01*
X90830286Y-69596833D01*
X90571983Y-69607659D01*
X90436724Y-69613328D01*
X90433680Y-69613756D01*
X90433678Y-69613756D01*
X90393989Y-69619334D01*
X90043596Y-69668579D01*
X89657735Y-69761928D01*
X89282825Y-69892486D01*
X89236035Y-69914106D01*
X88925242Y-70057712D01*
X88925232Y-70057717D01*
X88922445Y-70059005D01*
X88580034Y-70259896D01*
X88565899Y-70270166D01*
X88261342Y-70491439D01*
X88261336Y-70491444D01*
X88258861Y-70493242D01*
X88256575Y-70495271D01*
X88256572Y-70495274D01*
X88169567Y-70572521D01*
X87961991Y-70756815D01*
X87959901Y-70759072D01*
X87959899Y-70759074D01*
X87694354Y-71045837D01*
X87694349Y-71045843D01*
X87692259Y-71048100D01*
X87690399Y-71050550D01*
X87690396Y-71050554D01*
X87657202Y-71094286D01*
X87452238Y-71364316D01*
X87450627Y-71366934D01*
X87450624Y-71366939D01*
X87330048Y-71562933D01*
X87244220Y-71702445D01*
X87070190Y-72059258D01*
X87069119Y-72062139D01*
X87069116Y-72062145D01*
X87013891Y-72210642D01*
X86931810Y-72431352D01*
X86830400Y-72815173D01*
X86829909Y-72818206D01*
X86795937Y-73027955D01*
X86766928Y-73207058D01*
X86766734Y-73210138D01*
X86766734Y-73210140D01*
X86759762Y-73320967D01*
X86742001Y-73603266D01*
X77343500Y-73603266D01*
X77343500Y-54867386D01*
X79482759Y-54867386D01*
X79490216Y-54877753D01*
X79729935Y-55071874D01*
X79735272Y-55075751D01*
X80055685Y-55283830D01*
X80061394Y-55287127D01*
X80401811Y-55460578D01*
X80407836Y-55463260D01*
X80764502Y-55600171D01*
X80770784Y-55602212D01*
X81139816Y-55701094D01*
X81146266Y-55702465D01*
X81523629Y-55762234D01*
X81530167Y-55762920D01*
X81911699Y-55782916D01*
X81918301Y-55782916D01*
X82299833Y-55762920D01*
X82306371Y-55762234D01*
X82683734Y-55702465D01*
X82690184Y-55701094D01*
X83059216Y-55602212D01*
X83065498Y-55600171D01*
X83422164Y-55463260D01*
X83428189Y-55460578D01*
X83768606Y-55287127D01*
X83774315Y-55283830D01*
X84094728Y-55075751D01*
X84100065Y-55071874D01*
X84338835Y-54878522D01*
X84346527Y-54867386D01*
X206482759Y-54867386D01*
X206490216Y-54877753D01*
X206729935Y-55071874D01*
X206735272Y-55075751D01*
X207055685Y-55283830D01*
X207061394Y-55287127D01*
X207401811Y-55460578D01*
X207407836Y-55463260D01*
X207764502Y-55600171D01*
X207770784Y-55602212D01*
X208139816Y-55701094D01*
X208146266Y-55702465D01*
X208523629Y-55762234D01*
X208530167Y-55762920D01*
X208911699Y-55782916D01*
X208918301Y-55782916D01*
X209299833Y-55762920D01*
X209306371Y-55762234D01*
X209683734Y-55702465D01*
X209690184Y-55701094D01*
X210059216Y-55602212D01*
X210065498Y-55600171D01*
X210422164Y-55463260D01*
X210428189Y-55460578D01*
X210768606Y-55287127D01*
X210774315Y-55283830D01*
X211094728Y-55075751D01*
X211100065Y-55071874D01*
X211338835Y-54878522D01*
X211347300Y-54866267D01*
X211340966Y-54855176D01*
X208927812Y-52442022D01*
X208913868Y-52434408D01*
X208912035Y-52434539D01*
X208905420Y-52438790D01*
X206489900Y-54854310D01*
X206482759Y-54867386D01*
X84346527Y-54867386D01*
X84347300Y-54866267D01*
X84340966Y-54855176D01*
X81927812Y-52442022D01*
X81913868Y-52434408D01*
X81912035Y-52434539D01*
X81905420Y-52438790D01*
X79489900Y-54854310D01*
X79482759Y-54867386D01*
X77343500Y-54867386D01*
X77343500Y-52123250D01*
X77345246Y-52102345D01*
X77347770Y-52087344D01*
X77347770Y-52087341D01*
X77348576Y-52082552D01*
X77348689Y-52073301D01*
X78202084Y-52073301D01*
X78222080Y-52454833D01*
X78222766Y-52461371D01*
X78282535Y-52838734D01*
X78283906Y-52845184D01*
X78382788Y-53214216D01*
X78384829Y-53220498D01*
X78521740Y-53577164D01*
X78524422Y-53583189D01*
X78697872Y-53923603D01*
X78701169Y-53929313D01*
X78909253Y-54249735D01*
X78913123Y-54255061D01*
X79106478Y-54493835D01*
X79118733Y-54502300D01*
X79129824Y-54495966D01*
X81542978Y-52082812D01*
X81549356Y-52071132D01*
X82279408Y-52071132D01*
X82279539Y-52072965D01*
X82283790Y-52079580D01*
X84699310Y-54495100D01*
X84712386Y-54502241D01*
X84722753Y-54494784D01*
X84916877Y-54255061D01*
X84920747Y-54249735D01*
X85128831Y-53929313D01*
X85132128Y-53923603D01*
X85305578Y-53583189D01*
X85308260Y-53577164D01*
X85445171Y-53220498D01*
X85447212Y-53214216D01*
X85546094Y-52845184D01*
X85547465Y-52838734D01*
X85607234Y-52461371D01*
X85607920Y-52454833D01*
X85627916Y-52073301D01*
X205202084Y-52073301D01*
X205222080Y-52454833D01*
X205222766Y-52461371D01*
X205282535Y-52838734D01*
X205283906Y-52845184D01*
X205382788Y-53214216D01*
X205384829Y-53220498D01*
X205521740Y-53577164D01*
X205524422Y-53583189D01*
X205697872Y-53923603D01*
X205701169Y-53929313D01*
X205909253Y-54249735D01*
X205913123Y-54255061D01*
X206106478Y-54493835D01*
X206118733Y-54502300D01*
X206129824Y-54495966D01*
X208542978Y-52082812D01*
X208549356Y-52071132D01*
X209279408Y-52071132D01*
X209279539Y-52072965D01*
X209283790Y-52079580D01*
X211699310Y-54495100D01*
X211712386Y-54502241D01*
X211722753Y-54494784D01*
X211916877Y-54255061D01*
X211920747Y-54249735D01*
X212128831Y-53929313D01*
X212132128Y-53923603D01*
X212305578Y-53583189D01*
X212308260Y-53577164D01*
X212445171Y-53220498D01*
X212447212Y-53214216D01*
X212546094Y-52845184D01*
X212547465Y-52838734D01*
X212607234Y-52461371D01*
X212607920Y-52454833D01*
X212627916Y-52073301D01*
X212627916Y-52066699D01*
X212607920Y-51685167D01*
X212607234Y-51678629D01*
X212547465Y-51301266D01*
X212546094Y-51294816D01*
X212447212Y-50925784D01*
X212445171Y-50919502D01*
X212308260Y-50562836D01*
X212305578Y-50556811D01*
X212132128Y-50216397D01*
X212128831Y-50210687D01*
X211920747Y-49890265D01*
X211916877Y-49884939D01*
X211723522Y-49646165D01*
X211711267Y-49637700D01*
X211700176Y-49644034D01*
X209287022Y-52057188D01*
X209279408Y-52071132D01*
X208549356Y-52071132D01*
X208550592Y-52068868D01*
X208550461Y-52067035D01*
X208546210Y-52060420D01*
X206130690Y-49644900D01*
X206117614Y-49637759D01*
X206107247Y-49645216D01*
X205913123Y-49884939D01*
X205909253Y-49890265D01*
X205701169Y-50210687D01*
X205697872Y-50216397D01*
X205524422Y-50556811D01*
X205521740Y-50562836D01*
X205384829Y-50919502D01*
X205382788Y-50925784D01*
X205283906Y-51294816D01*
X205282535Y-51301266D01*
X205222766Y-51678629D01*
X205222080Y-51685167D01*
X205202084Y-52066699D01*
X205202084Y-52073301D01*
X85627916Y-52073301D01*
X85627916Y-52066699D01*
X85607920Y-51685167D01*
X85607234Y-51678629D01*
X85547465Y-51301266D01*
X85546094Y-51294816D01*
X85447212Y-50925784D01*
X85445171Y-50919502D01*
X85308260Y-50562836D01*
X85305578Y-50556811D01*
X85132128Y-50216397D01*
X85128831Y-50210687D01*
X84920747Y-49890265D01*
X84916877Y-49884939D01*
X84723522Y-49646165D01*
X84711267Y-49637700D01*
X84700176Y-49644034D01*
X82287022Y-52057188D01*
X82279408Y-52071132D01*
X81549356Y-52071132D01*
X81550592Y-52068868D01*
X81550461Y-52067035D01*
X81546210Y-52060420D01*
X79130690Y-49644900D01*
X79117614Y-49637759D01*
X79107247Y-49645216D01*
X78913123Y-49884939D01*
X78909253Y-49890265D01*
X78701169Y-50210687D01*
X78697872Y-50216397D01*
X78524422Y-50556811D01*
X78521740Y-50562836D01*
X78384829Y-50919502D01*
X78382788Y-50925784D01*
X78283906Y-51294816D01*
X78282535Y-51301266D01*
X78222766Y-51678629D01*
X78222080Y-51685167D01*
X78202084Y-52066699D01*
X78202084Y-52073301D01*
X77348689Y-52073301D01*
X77348729Y-52070000D01*
X77348039Y-52065184D01*
X77348039Y-52065178D01*
X77346387Y-52053644D01*
X77345234Y-52030284D01*
X77360656Y-51677064D01*
X77361614Y-51666114D01*
X77412233Y-51281621D01*
X77414142Y-51270795D01*
X77498080Y-50892178D01*
X77500925Y-50881561D01*
X77617539Y-50511706D01*
X77621298Y-50501377D01*
X77769711Y-50143077D01*
X77774357Y-50133115D01*
X77903550Y-49884939D01*
X77953424Y-49789132D01*
X77958919Y-49779613D01*
X78167292Y-49452532D01*
X78173597Y-49443528D01*
X78303886Y-49273733D01*
X79482700Y-49273733D01*
X79489034Y-49284824D01*
X81902188Y-51697978D01*
X81916132Y-51705592D01*
X81917965Y-51705461D01*
X81924580Y-51701210D01*
X84340100Y-49285690D01*
X84346630Y-49273733D01*
X206482700Y-49273733D01*
X206489034Y-49284824D01*
X208902188Y-51697978D01*
X208916132Y-51705592D01*
X208917965Y-51705461D01*
X208924580Y-51701210D01*
X211340100Y-49285690D01*
X211347241Y-49272614D01*
X211339784Y-49262247D01*
X211100065Y-49068126D01*
X211094728Y-49064249D01*
X210774315Y-48856170D01*
X210768606Y-48852873D01*
X210428189Y-48679422D01*
X210422164Y-48676740D01*
X210065498Y-48539829D01*
X210059216Y-48537788D01*
X209690184Y-48438906D01*
X209683734Y-48437535D01*
X209306371Y-48377766D01*
X209299833Y-48377080D01*
X208918301Y-48357084D01*
X208911699Y-48357084D01*
X208530167Y-48377080D01*
X208523629Y-48377766D01*
X208146266Y-48437535D01*
X208139816Y-48438906D01*
X207770784Y-48537788D01*
X207764502Y-48539829D01*
X207407836Y-48676740D01*
X207401811Y-48679422D01*
X207061397Y-48852872D01*
X207055687Y-48856169D01*
X206735265Y-49064253D01*
X206729939Y-49068123D01*
X206491165Y-49261478D01*
X206482700Y-49273733D01*
X84346630Y-49273733D01*
X84347241Y-49272614D01*
X84339784Y-49262247D01*
X84100065Y-49068126D01*
X84094728Y-49064249D01*
X83774315Y-48856170D01*
X83768606Y-48852873D01*
X83428189Y-48679422D01*
X83422164Y-48676740D01*
X83065498Y-48539829D01*
X83059216Y-48537788D01*
X82690184Y-48438906D01*
X82683734Y-48437535D01*
X82306371Y-48377766D01*
X82299833Y-48377080D01*
X81918301Y-48357084D01*
X81911699Y-48357084D01*
X81530167Y-48377080D01*
X81523629Y-48377766D01*
X81146266Y-48437535D01*
X81139816Y-48438906D01*
X80770784Y-48537788D01*
X80764502Y-48539829D01*
X80407836Y-48676740D01*
X80401811Y-48679422D01*
X80061397Y-48852872D01*
X80055687Y-48856169D01*
X79735265Y-49064253D01*
X79729939Y-49068123D01*
X79491165Y-49261478D01*
X79482700Y-49273733D01*
X78303886Y-49273733D01*
X78409678Y-49135862D01*
X78416743Y-49127442D01*
X78665318Y-48856169D01*
X78678748Y-48841513D01*
X78686517Y-48833744D01*
X78972442Y-48571743D01*
X78980862Y-48564678D01*
X79288528Y-48328597D01*
X79297532Y-48322292D01*
X79624613Y-48113919D01*
X79634133Y-48108423D01*
X79978124Y-47929353D01*
X79988068Y-47924715D01*
X80346385Y-47776295D01*
X80356698Y-47772542D01*
X80556298Y-47709608D01*
X80726561Y-47655925D01*
X80737178Y-47653080D01*
X81115795Y-47569142D01*
X81126621Y-47567233D01*
X81511114Y-47516614D01*
X81522063Y-47515656D01*
X81871554Y-47500397D01*
X81896429Y-47501777D01*
X81908724Y-47503691D01*
X81917626Y-47502527D01*
X81917628Y-47502527D01*
X81936399Y-47500072D01*
X81940286Y-47499564D01*
X81956621Y-47498500D01*
X208865633Y-47498500D01*
X208885018Y-47500000D01*
G37*
G04 #@! TD.AperFunction*
M02*
