%FSLAX45Y45*%
G04 Gerber Fmt 4.5, Leading zero omitted, Abs format (unit mm)*
G04 Created by KiCad (PCBNEW 6.0.6-3a73a75311~116~ubuntu22.04.1) date 2022-07-13 12:19:01*
%MOMM*%
%LPD*%
G01*
G04 APERTURE LIST*
%TA.AperFunction,Profile*%
%ADD10C,0.050000*%
%TD*%
%ADD11C,0.200000*%
G04 APERTURE END LIST*
D10*
X12179500Y-11684000D02*
G75*
G03*
X12179500Y-11684000I-305000J0D01*
G01*
X9934500Y-13970000D02*
G75*
G03*
X9934500Y-13970000I-600000J0D01*
G01*
X18479500Y-13970000D02*
G75*
G03*
X18479500Y-13970000I-255000J0D01*
G01*
X11113500Y-13970000D02*
G75*
G03*
X11113500Y-13970000I-255000J0D01*
G01*
X8191500Y-4699000D02*
X20891500Y-4699000D01*
X21399500Y-5207000D02*
G75*
G03*
X20891500Y-4699000I-508000J0D01*
G01*
X20357500Y-9525000D02*
G75*
G03*
X20357500Y-9525000I-355000J0D01*
G01*
X7683500Y-14605000D02*
G75*
G03*
X8191500Y-15113000I508000J0D01*
G01*
X17690500Y-11684000D02*
G75*
G03*
X17690500Y-11684000I-355000J0D01*
G01*
X9435500Y-9525000D02*
G75*
G03*
X9435500Y-9525000I-355000J0D01*
G01*
X12229500Y-9525000D02*
G75*
G03*
X12229500Y-9525000I-355000J0D01*
G01*
X7683500Y-14605000D02*
X7683500Y-5207000D01*
X14973500Y-7366000D02*
G75*
G03*
X14973500Y-7366000I-305000J0D01*
G01*
X21399500Y-5207000D02*
X21399500Y-14605000D01*
X8191500Y-4699000D02*
G75*
G03*
X7683500Y-5207000I0J-508000D01*
G01*
X9435500Y-7366000D02*
G75*
G03*
X9435500Y-7366000I-355000J0D01*
G01*
X20891500Y-15113000D02*
X8191500Y-15113000D01*
X20348500Y-13970000D02*
G75*
G03*
X20348500Y-13970000I-600000J0D01*
G01*
X14973500Y-9525000D02*
G75*
G03*
X14973500Y-9525000I-305000J0D01*
G01*
X17690500Y-7366000D02*
G75*
G03*
X17690500Y-7366000I-355000J0D01*
G01*
X17690500Y-9525000D02*
G75*
G03*
X17690500Y-9525000I-355000J0D01*
G01*
X20891500Y-15113000D02*
G75*
G03*
X21399500Y-14605000I0J508000D01*
G01*
X9435500Y-11684000D02*
G75*
G03*
X9435500Y-11684000I-355000J0D01*
G01*
X14973500Y-11684000D02*
G75*
G03*
X14973500Y-11684000I-305000J0D01*
G01*
X20357500Y-7366000D02*
G75*
G03*
X20357500Y-7366000I-355000J0D01*
G01*
X12229500Y-7366000D02*
G75*
G03*
X12229500Y-7366000I-355000J0D01*
G01*
X20357500Y-11684000D02*
G75*
G03*
X20357500Y-11684000I-355000J0D01*
G01*
D11*
X7938619Y-15425976D02*
X7938619Y-15225976D01*
X7986238Y-15225976D01*
X8014809Y-15235500D01*
X8033857Y-15254548D01*
X8043381Y-15273595D01*
X8052905Y-15311690D01*
X8052905Y-15340262D01*
X8043381Y-15378357D01*
X8033857Y-15397405D01*
X8014809Y-15416452D01*
X7986238Y-15425976D01*
X7938619Y-15425976D01*
X8138619Y-15425976D02*
X8138619Y-15292643D01*
X8138619Y-15330738D02*
X8148143Y-15311690D01*
X8157667Y-15302167D01*
X8176714Y-15292643D01*
X8195762Y-15292643D01*
X8262428Y-15425976D02*
X8262428Y-15292643D01*
X8262428Y-15225976D02*
X8252905Y-15235500D01*
X8262428Y-15245024D01*
X8271952Y-15235500D01*
X8262428Y-15225976D01*
X8262428Y-15245024D01*
X8386238Y-15425976D02*
X8367190Y-15416452D01*
X8357667Y-15397405D01*
X8357667Y-15225976D01*
X8491000Y-15425976D02*
X8471952Y-15416452D01*
X8462429Y-15397405D01*
X8462429Y-15225976D01*
X8719571Y-15425976D02*
X8719571Y-15225976D01*
X8786238Y-15368833D01*
X8852905Y-15225976D01*
X8852905Y-15425976D01*
X9033857Y-15425976D02*
X9033857Y-15321214D01*
X9024333Y-15302167D01*
X9005286Y-15292643D01*
X8967190Y-15292643D01*
X8948143Y-15302167D01*
X9033857Y-15416452D02*
X9014810Y-15425976D01*
X8967190Y-15425976D01*
X8948143Y-15416452D01*
X8938619Y-15397405D01*
X8938619Y-15378357D01*
X8948143Y-15359309D01*
X8967190Y-15349786D01*
X9014810Y-15349786D01*
X9033857Y-15340262D01*
X9129095Y-15292643D02*
X9129095Y-15492643D01*
X9129095Y-15302167D02*
X9148143Y-15292643D01*
X9186238Y-15292643D01*
X9205286Y-15302167D01*
X9214810Y-15311690D01*
X9224333Y-15330738D01*
X9224333Y-15387881D01*
X9214810Y-15406928D01*
X9205286Y-15416452D01*
X9186238Y-15425976D01*
X9148143Y-15425976D01*
X9129095Y-15416452D01*
X9310048Y-15406928D02*
X9319571Y-15416452D01*
X9310048Y-15425976D01*
X9300524Y-15416452D01*
X9310048Y-15406928D01*
X9310048Y-15425976D01*
X9310048Y-15302167D02*
X9319571Y-15311690D01*
X9310048Y-15321214D01*
X9300524Y-15311690D01*
X9310048Y-15302167D01*
X9310048Y-15321214D01*
M02*
