%FSLAX45Y45*%
G04 Gerber Fmt 4.5, Leading zero omitted, Abs format (unit mm)*
G04 Created by KiCad (PCBNEW 6.0.6-3a73a75311~116~ubuntu22.04.1) date 2022-07-13 12:19:01*
%MOMM*%
%LPD*%
G01*
G04 APERTURE LIST*
%TA.AperFunction,Profile*%
%ADD10C,0.050000*%
%TD*%
%ADD11C,0.200000*%
%ADD12C,0.050000*%
%ADD13C,0.320000*%
G04 APERTURE END LIST*
D10*
X12179500Y-11684000D02*
G75*
G03*
X12179500Y-11684000I-305000J0D01*
G01*
X9934500Y-13970000D02*
G75*
G03*
X9934500Y-13970000I-600000J0D01*
G01*
X18479500Y-13970000D02*
G75*
G03*
X18479500Y-13970000I-255000J0D01*
G01*
X11113500Y-13970000D02*
G75*
G03*
X11113500Y-13970000I-255000J0D01*
G01*
X8191500Y-4699000D02*
X20891500Y-4699000D01*
X21399500Y-5207000D02*
G75*
G03*
X20891500Y-4699000I-508000J0D01*
G01*
X20357500Y-9525000D02*
G75*
G03*
X20357500Y-9525000I-355000J0D01*
G01*
X7683500Y-14605000D02*
G75*
G03*
X8191500Y-15113000I508000J0D01*
G01*
X17690500Y-11684000D02*
G75*
G03*
X17690500Y-11684000I-355000J0D01*
G01*
X9435500Y-9525000D02*
G75*
G03*
X9435500Y-9525000I-355000J0D01*
G01*
X12229500Y-9525000D02*
G75*
G03*
X12229500Y-9525000I-355000J0D01*
G01*
X7683500Y-14605000D02*
X7683500Y-5207000D01*
X14973500Y-7366000D02*
G75*
G03*
X14973500Y-7366000I-305000J0D01*
G01*
X21399500Y-5207000D02*
X21399500Y-14605000D01*
X8191500Y-4699000D02*
G75*
G03*
X7683500Y-5207000I0J-508000D01*
G01*
X9435500Y-7366000D02*
G75*
G03*
X9435500Y-7366000I-355000J0D01*
G01*
X20891500Y-15113000D02*
X8191500Y-15113000D01*
X20348500Y-13970000D02*
G75*
G03*
X20348500Y-13970000I-600000J0D01*
G01*
X14973500Y-9525000D02*
G75*
G03*
X14973500Y-9525000I-305000J0D01*
G01*
X17690500Y-7366000D02*
G75*
G03*
X17690500Y-7366000I-355000J0D01*
G01*
X17690500Y-9525000D02*
G75*
G03*
X17690500Y-9525000I-355000J0D01*
G01*
X20891500Y-15113000D02*
G75*
G03*
X21399500Y-14605000I0J508000D01*
G01*
X9435500Y-11684000D02*
G75*
G03*
X9435500Y-11684000I-355000J0D01*
G01*
X14973500Y-11684000D02*
G75*
G03*
X14973500Y-11684000I-305000J0D01*
G01*
X20357500Y-7366000D02*
G75*
G03*
X20357500Y-7366000I-355000J0D01*
G01*
X12229500Y-7366000D02*
G75*
G03*
X12229500Y-7366000I-355000J0D01*
G01*
X20357500Y-11684000D02*
G75*
G03*
X20357500Y-11684000I-355000J0D01*
G01*
D11*
D12*
X7926500Y-5182000D02*
X7976500Y-5232000D01*
X7976500Y-5182000D02*
X7926500Y-5232000D01*
X7996794Y-5012294D02*
X8046794Y-5062294D01*
X8046794Y-5012294D02*
X7996794Y-5062294D01*
X7996794Y-5351706D02*
X8046794Y-5401706D01*
X8046794Y-5351706D02*
X7996794Y-5401706D01*
X8166500Y-4942000D02*
X8216500Y-4992000D01*
X8216500Y-4942000D02*
X8166500Y-4992000D01*
X8166500Y-5422000D02*
X8216500Y-5472000D01*
X8216500Y-5422000D02*
X8166500Y-5472000D01*
X8336206Y-5012294D02*
X8386206Y-5062294D01*
X8386206Y-5012294D02*
X8336206Y-5062294D01*
X8336206Y-5351706D02*
X8386206Y-5401706D01*
X8386206Y-5351706D02*
X8336206Y-5401706D01*
X8406500Y-5182000D02*
X8456500Y-5232000D01*
X8456500Y-5182000D02*
X8406500Y-5232000D01*
X20626500Y-5182000D02*
X20676500Y-5232000D01*
X20676500Y-5182000D02*
X20626500Y-5232000D01*
X20696794Y-5012294D02*
X20746794Y-5062294D01*
X20746794Y-5012294D02*
X20696794Y-5062294D01*
X20696794Y-5351706D02*
X20746794Y-5401706D01*
X20746794Y-5351706D02*
X20696794Y-5401706D01*
X20866500Y-4942000D02*
X20916500Y-4992000D01*
X20916500Y-4942000D02*
X20866500Y-4992000D01*
X20866500Y-5422000D02*
X20916500Y-5472000D01*
X20916500Y-5422000D02*
X20866500Y-5472000D01*
X21036206Y-5012294D02*
X21086206Y-5062294D01*
X21086206Y-5012294D02*
X21036206Y-5062294D01*
X21036206Y-5351706D02*
X21086206Y-5401706D01*
X21086206Y-5351706D02*
X21036206Y-5401706D01*
X21106500Y-5182000D02*
X21156500Y-5232000D01*
X21156500Y-5182000D02*
X21106500Y-5232000D01*
D13*
X8351500Y-5207000D02*
G75*
G03*
X8351500Y-5207000I-160000J0D01*
G01*
X21051500Y-5207000D02*
G75*
G03*
X21051500Y-5207000I-160000J0D01*
G01*
D11*
X7938619Y-15425976D02*
X7938619Y-15225976D01*
X7986238Y-15225976D01*
X8014809Y-15235500D01*
X8033857Y-15254548D01*
X8043381Y-15273595D01*
X8052905Y-15311690D01*
X8052905Y-15340262D01*
X8043381Y-15378357D01*
X8033857Y-15397405D01*
X8014809Y-15416452D01*
X7986238Y-15425976D01*
X7938619Y-15425976D01*
X8138619Y-15425976D02*
X8138619Y-15292643D01*
X8138619Y-15330738D02*
X8148143Y-15311690D01*
X8157667Y-15302167D01*
X8176714Y-15292643D01*
X8195762Y-15292643D01*
X8262428Y-15425976D02*
X8262428Y-15292643D01*
X8262428Y-15225976D02*
X8252905Y-15235500D01*
X8262428Y-15245024D01*
X8271952Y-15235500D01*
X8262428Y-15225976D01*
X8262428Y-15245024D01*
X8386238Y-15425976D02*
X8367190Y-15416452D01*
X8357667Y-15397405D01*
X8357667Y-15225976D01*
X8491000Y-15425976D02*
X8471952Y-15416452D01*
X8462429Y-15397405D01*
X8462429Y-15225976D01*
X8719571Y-15425976D02*
X8719571Y-15225976D01*
X8786238Y-15368833D01*
X8852905Y-15225976D01*
X8852905Y-15425976D01*
X9033857Y-15425976D02*
X9033857Y-15321214D01*
X9024333Y-15302167D01*
X9005286Y-15292643D01*
X8967190Y-15292643D01*
X8948143Y-15302167D01*
X9033857Y-15416452D02*
X9014810Y-15425976D01*
X8967190Y-15425976D01*
X8948143Y-15416452D01*
X8938619Y-15397405D01*
X8938619Y-15378357D01*
X8948143Y-15359309D01*
X8967190Y-15349786D01*
X9014810Y-15349786D01*
X9033857Y-15340262D01*
X9129095Y-15292643D02*
X9129095Y-15492643D01*
X9129095Y-15302167D02*
X9148143Y-15292643D01*
X9186238Y-15292643D01*
X9205286Y-15302167D01*
X9214810Y-15311690D01*
X9224333Y-15330738D01*
X9224333Y-15387881D01*
X9214810Y-15406928D01*
X9205286Y-15416452D01*
X9186238Y-15425976D01*
X9148143Y-15425976D01*
X9129095Y-15416452D01*
X9310048Y-15406928D02*
X9319571Y-15416452D01*
X9310048Y-15425976D01*
X9300524Y-15416452D01*
X9310048Y-15406928D01*
X9310048Y-15425976D01*
X9310048Y-15302167D02*
X9319571Y-15311690D01*
X9310048Y-15321214D01*
X9300524Y-15311690D01*
X9310048Y-15302167D01*
X9310048Y-15321214D01*
D12*
X7631000Y-15730500D02*
X7681000Y-15780500D01*
X7681000Y-15730500D02*
X7631000Y-15780500D01*
D11*
X7976714Y-15645976D02*
X7995762Y-15645976D01*
X8014809Y-15655500D01*
X8024333Y-15665024D01*
X8033857Y-15684071D01*
X8043381Y-15722167D01*
X8043381Y-15769786D01*
X8033857Y-15807881D01*
X8024333Y-15826928D01*
X8014809Y-15836452D01*
X7995762Y-15845976D01*
X7976714Y-15845976D01*
X7957667Y-15836452D01*
X7948143Y-15826928D01*
X7938619Y-15807881D01*
X7929095Y-15769786D01*
X7929095Y-15722167D01*
X7938619Y-15684071D01*
X7948143Y-15665024D01*
X7957667Y-15655500D01*
X7976714Y-15645976D01*
X8129095Y-15826928D02*
X8138619Y-15836452D01*
X8129095Y-15845976D01*
X8119571Y-15836452D01*
X8129095Y-15826928D01*
X8129095Y-15845976D01*
X8319571Y-15645976D02*
X8224333Y-15645976D01*
X8214809Y-15741214D01*
X8224333Y-15731690D01*
X8243381Y-15722167D01*
X8291000Y-15722167D01*
X8310048Y-15731690D01*
X8319571Y-15741214D01*
X8329095Y-15760262D01*
X8329095Y-15807881D01*
X8319571Y-15826928D01*
X8310048Y-15836452D01*
X8291000Y-15845976D01*
X8243381Y-15845976D01*
X8224333Y-15836452D01*
X8214809Y-15826928D01*
X8452905Y-15645976D02*
X8471952Y-15645976D01*
X8491000Y-15655500D01*
X8500524Y-15665024D01*
X8510048Y-15684071D01*
X8519571Y-15722167D01*
X8519571Y-15769786D01*
X8510048Y-15807881D01*
X8500524Y-15826928D01*
X8491000Y-15836452D01*
X8471952Y-15845976D01*
X8452905Y-15845976D01*
X8433857Y-15836452D01*
X8424333Y-15826928D01*
X8414810Y-15807881D01*
X8405286Y-15769786D01*
X8405286Y-15722167D01*
X8414810Y-15684071D01*
X8424333Y-15665024D01*
X8433857Y-15655500D01*
X8452905Y-15645976D01*
X8643381Y-15645976D02*
X8662429Y-15645976D01*
X8681476Y-15655500D01*
X8691000Y-15665024D01*
X8700524Y-15684071D01*
X8710048Y-15722167D01*
X8710048Y-15769786D01*
X8700524Y-15807881D01*
X8691000Y-15826928D01*
X8681476Y-15836452D01*
X8662429Y-15845976D01*
X8643381Y-15845976D01*
X8624333Y-15836452D01*
X8614810Y-15826928D01*
X8605286Y-15807881D01*
X8595762Y-15769786D01*
X8595762Y-15722167D01*
X8605286Y-15684071D01*
X8614810Y-15665024D01*
X8624333Y-15655500D01*
X8643381Y-15645976D01*
X8795762Y-15845976D02*
X8795762Y-15712643D01*
X8795762Y-15731690D02*
X8805286Y-15722167D01*
X8824333Y-15712643D01*
X8852905Y-15712643D01*
X8871952Y-15722167D01*
X8881476Y-15741214D01*
X8881476Y-15845976D01*
X8881476Y-15741214D02*
X8891000Y-15722167D01*
X8910048Y-15712643D01*
X8938619Y-15712643D01*
X8957667Y-15722167D01*
X8967190Y-15741214D01*
X8967190Y-15845976D01*
X9062429Y-15845976D02*
X9062429Y-15712643D01*
X9062429Y-15731690D02*
X9071952Y-15722167D01*
X9091000Y-15712643D01*
X9119571Y-15712643D01*
X9138619Y-15722167D01*
X9148143Y-15741214D01*
X9148143Y-15845976D01*
X9148143Y-15741214D02*
X9157667Y-15722167D01*
X9176714Y-15712643D01*
X9205286Y-15712643D01*
X9224333Y-15722167D01*
X9233857Y-15741214D01*
X9233857Y-15845976D01*
X9624333Y-15636452D02*
X9452905Y-15893595D01*
X9881476Y-15645976D02*
X9900524Y-15645976D01*
X9919571Y-15655500D01*
X9929095Y-15665024D01*
X9938619Y-15684071D01*
X9948143Y-15722167D01*
X9948143Y-15769786D01*
X9938619Y-15807881D01*
X9929095Y-15826928D01*
X9919571Y-15836452D01*
X9900524Y-15845976D01*
X9881476Y-15845976D01*
X9862429Y-15836452D01*
X9852905Y-15826928D01*
X9843381Y-15807881D01*
X9833857Y-15769786D01*
X9833857Y-15722167D01*
X9843381Y-15684071D01*
X9852905Y-15665024D01*
X9862429Y-15655500D01*
X9881476Y-15645976D01*
X10033857Y-15826928D02*
X10043381Y-15836452D01*
X10033857Y-15845976D01*
X10024333Y-15836452D01*
X10033857Y-15826928D01*
X10033857Y-15845976D01*
X10167190Y-15645976D02*
X10186238Y-15645976D01*
X10205286Y-15655500D01*
X10214810Y-15665024D01*
X10224333Y-15684071D01*
X10233857Y-15722167D01*
X10233857Y-15769786D01*
X10224333Y-15807881D01*
X10214810Y-15826928D01*
X10205286Y-15836452D01*
X10186238Y-15845976D01*
X10167190Y-15845976D01*
X10148143Y-15836452D01*
X10138619Y-15826928D01*
X10129095Y-15807881D01*
X10119571Y-15769786D01*
X10119571Y-15722167D01*
X10129095Y-15684071D01*
X10138619Y-15665024D01*
X10148143Y-15655500D01*
X10167190Y-15645976D01*
X10424333Y-15845976D02*
X10310048Y-15845976D01*
X10367190Y-15845976D02*
X10367190Y-15645976D01*
X10348143Y-15674548D01*
X10329095Y-15693595D01*
X10310048Y-15703119D01*
X10519571Y-15845976D02*
X10557667Y-15845976D01*
X10576714Y-15836452D01*
X10586238Y-15826928D01*
X10605286Y-15798357D01*
X10614810Y-15760262D01*
X10614810Y-15684071D01*
X10605286Y-15665024D01*
X10595762Y-15655500D01*
X10576714Y-15645976D01*
X10538619Y-15645976D01*
X10519571Y-15655500D01*
X10510048Y-15665024D01*
X10500524Y-15684071D01*
X10500524Y-15731690D01*
X10510048Y-15750738D01*
X10519571Y-15760262D01*
X10538619Y-15769786D01*
X10576714Y-15769786D01*
X10595762Y-15760262D01*
X10605286Y-15750738D01*
X10614810Y-15731690D01*
X10681476Y-15645976D02*
X10814810Y-15645976D01*
X10729095Y-15845976D01*
X10881476Y-15645976D02*
X10881476Y-15684071D01*
X10957667Y-15645976D02*
X10957667Y-15684071D01*
X11252905Y-15922167D02*
X11243381Y-15912643D01*
X11224333Y-15884071D01*
X11214809Y-15865024D01*
X11205286Y-15836452D01*
X11195762Y-15788833D01*
X11195762Y-15750738D01*
X11205286Y-15703119D01*
X11214809Y-15674548D01*
X11224333Y-15655500D01*
X11243381Y-15626928D01*
X11252905Y-15617405D01*
X11433857Y-15845976D02*
X11319571Y-15845976D01*
X11376714Y-15845976D02*
X11376714Y-15645976D01*
X11357667Y-15674548D01*
X11338619Y-15693595D01*
X11319571Y-15703119D01*
X11605286Y-15645976D02*
X11567190Y-15645976D01*
X11548143Y-15655500D01*
X11538619Y-15665024D01*
X11519571Y-15693595D01*
X11510048Y-15731690D01*
X11510048Y-15807881D01*
X11519571Y-15826928D01*
X11529095Y-15836452D01*
X11548143Y-15845976D01*
X11586238Y-15845976D01*
X11605286Y-15836452D01*
X11614809Y-15826928D01*
X11624333Y-15807881D01*
X11624333Y-15760262D01*
X11614809Y-15741214D01*
X11605286Y-15731690D01*
X11586238Y-15722167D01*
X11548143Y-15722167D01*
X11529095Y-15731690D01*
X11519571Y-15741214D01*
X11510048Y-15760262D01*
X11862428Y-15845976D02*
X11862428Y-15645976D01*
X11948143Y-15845976D02*
X11948143Y-15741214D01*
X11938619Y-15722167D01*
X11919571Y-15712643D01*
X11891000Y-15712643D01*
X11871952Y-15722167D01*
X11862428Y-15731690D01*
X12071952Y-15845976D02*
X12052905Y-15836452D01*
X12043381Y-15826928D01*
X12033857Y-15807881D01*
X12033857Y-15750738D01*
X12043381Y-15731690D01*
X12052905Y-15722167D01*
X12071952Y-15712643D01*
X12100524Y-15712643D01*
X12119571Y-15722167D01*
X12129095Y-15731690D01*
X12138619Y-15750738D01*
X12138619Y-15807881D01*
X12129095Y-15826928D01*
X12119571Y-15836452D01*
X12100524Y-15845976D01*
X12071952Y-15845976D01*
X12252905Y-15845976D02*
X12233857Y-15836452D01*
X12224333Y-15817405D01*
X12224333Y-15645976D01*
X12405286Y-15836452D02*
X12386238Y-15845976D01*
X12348143Y-15845976D01*
X12329095Y-15836452D01*
X12319571Y-15817405D01*
X12319571Y-15741214D01*
X12329095Y-15722167D01*
X12348143Y-15712643D01*
X12386238Y-15712643D01*
X12405286Y-15722167D01*
X12414809Y-15741214D01*
X12414809Y-15760262D01*
X12319571Y-15779309D01*
X12491000Y-15836452D02*
X12510048Y-15845976D01*
X12548143Y-15845976D01*
X12567190Y-15836452D01*
X12576714Y-15817405D01*
X12576714Y-15807881D01*
X12567190Y-15788833D01*
X12548143Y-15779309D01*
X12519571Y-15779309D01*
X12500524Y-15769786D01*
X12491000Y-15750738D01*
X12491000Y-15741214D01*
X12500524Y-15722167D01*
X12519571Y-15712643D01*
X12548143Y-15712643D01*
X12567190Y-15722167D01*
X12643381Y-15922167D02*
X12652905Y-15912643D01*
X12671952Y-15884071D01*
X12681476Y-15865024D01*
X12691000Y-15836452D01*
X12700524Y-15788833D01*
X12700524Y-15750738D01*
X12691000Y-15703119D01*
X12681476Y-15674548D01*
X12671952Y-15655500D01*
X12652905Y-15626928D01*
X12643381Y-15617405D01*
X7681000Y-16019500D02*
G75*
G03*
X7681000Y-16019500I-100000J0D01*
G01*
X7919571Y-15909976D02*
X8043381Y-15909976D01*
X7976714Y-15986167D01*
X8005286Y-15986167D01*
X8024333Y-15995690D01*
X8033857Y-16005214D01*
X8043381Y-16024262D01*
X8043381Y-16071881D01*
X8033857Y-16090928D01*
X8024333Y-16100452D01*
X8005286Y-16109976D01*
X7948143Y-16109976D01*
X7929095Y-16100452D01*
X7919571Y-16090928D01*
X8129095Y-16090928D02*
X8138619Y-16100452D01*
X8129095Y-16109976D01*
X8119571Y-16100452D01*
X8129095Y-16090928D01*
X8129095Y-16109976D01*
X8214809Y-15929024D02*
X8224333Y-15919500D01*
X8243381Y-15909976D01*
X8291000Y-15909976D01*
X8310048Y-15919500D01*
X8319571Y-15929024D01*
X8329095Y-15948071D01*
X8329095Y-15967119D01*
X8319571Y-15995690D01*
X8205286Y-16109976D01*
X8329095Y-16109976D01*
X8452905Y-15909976D02*
X8471952Y-15909976D01*
X8491000Y-15919500D01*
X8500524Y-15929024D01*
X8510048Y-15948071D01*
X8519571Y-15986167D01*
X8519571Y-16033786D01*
X8510048Y-16071881D01*
X8500524Y-16090928D01*
X8491000Y-16100452D01*
X8471952Y-16109976D01*
X8452905Y-16109976D01*
X8433857Y-16100452D01*
X8424333Y-16090928D01*
X8414810Y-16071881D01*
X8405286Y-16033786D01*
X8405286Y-15986167D01*
X8414810Y-15948071D01*
X8424333Y-15929024D01*
X8433857Y-15919500D01*
X8452905Y-15909976D01*
X8643381Y-15909976D02*
X8662429Y-15909976D01*
X8681476Y-15919500D01*
X8691000Y-15929024D01*
X8700524Y-15948071D01*
X8710048Y-15986167D01*
X8710048Y-16033786D01*
X8700524Y-16071881D01*
X8691000Y-16090928D01*
X8681476Y-16100452D01*
X8662429Y-16109976D01*
X8643381Y-16109976D01*
X8624333Y-16100452D01*
X8614810Y-16090928D01*
X8605286Y-16071881D01*
X8595762Y-16033786D01*
X8595762Y-15986167D01*
X8605286Y-15948071D01*
X8614810Y-15929024D01*
X8624333Y-15919500D01*
X8643381Y-15909976D01*
X8795762Y-16109976D02*
X8795762Y-15976643D01*
X8795762Y-15995690D02*
X8805286Y-15986167D01*
X8824333Y-15976643D01*
X8852905Y-15976643D01*
X8871952Y-15986167D01*
X8881476Y-16005214D01*
X8881476Y-16109976D01*
X8881476Y-16005214D02*
X8891000Y-15986167D01*
X8910048Y-15976643D01*
X8938619Y-15976643D01*
X8957667Y-15986167D01*
X8967190Y-16005214D01*
X8967190Y-16109976D01*
X9062429Y-16109976D02*
X9062429Y-15976643D01*
X9062429Y-15995690D02*
X9071952Y-15986167D01*
X9091000Y-15976643D01*
X9119571Y-15976643D01*
X9138619Y-15986167D01*
X9148143Y-16005214D01*
X9148143Y-16109976D01*
X9148143Y-16005214D02*
X9157667Y-15986167D01*
X9176714Y-15976643D01*
X9205286Y-15976643D01*
X9224333Y-15986167D01*
X9233857Y-16005214D01*
X9233857Y-16109976D01*
X9624333Y-15900452D02*
X9452905Y-16157595D01*
X9881476Y-15909976D02*
X9900524Y-15909976D01*
X9919571Y-15919500D01*
X9929095Y-15929024D01*
X9938619Y-15948071D01*
X9948143Y-15986167D01*
X9948143Y-16033786D01*
X9938619Y-16071881D01*
X9929095Y-16090928D01*
X9919571Y-16100452D01*
X9900524Y-16109976D01*
X9881476Y-16109976D01*
X9862429Y-16100452D01*
X9852905Y-16090928D01*
X9843381Y-16071881D01*
X9833857Y-16033786D01*
X9833857Y-15986167D01*
X9843381Y-15948071D01*
X9852905Y-15929024D01*
X9862429Y-15919500D01*
X9881476Y-15909976D01*
X10033857Y-16090928D02*
X10043381Y-16100452D01*
X10033857Y-16109976D01*
X10024333Y-16100452D01*
X10033857Y-16090928D01*
X10033857Y-16109976D01*
X10233857Y-16109976D02*
X10119571Y-16109976D01*
X10176714Y-16109976D02*
X10176714Y-15909976D01*
X10157667Y-15938548D01*
X10138619Y-15957595D01*
X10119571Y-15967119D01*
X10310048Y-15929024D02*
X10319571Y-15919500D01*
X10338619Y-15909976D01*
X10386238Y-15909976D01*
X10405286Y-15919500D01*
X10414810Y-15929024D01*
X10424333Y-15948071D01*
X10424333Y-15967119D01*
X10414810Y-15995690D01*
X10300524Y-16109976D01*
X10424333Y-16109976D01*
X10595762Y-15909976D02*
X10557667Y-15909976D01*
X10538619Y-15919500D01*
X10529095Y-15929024D01*
X10510048Y-15957595D01*
X10500524Y-15995690D01*
X10500524Y-16071881D01*
X10510048Y-16090928D01*
X10519571Y-16100452D01*
X10538619Y-16109976D01*
X10576714Y-16109976D01*
X10595762Y-16100452D01*
X10605286Y-16090928D01*
X10614810Y-16071881D01*
X10614810Y-16024262D01*
X10605286Y-16005214D01*
X10595762Y-15995690D01*
X10576714Y-15986167D01*
X10538619Y-15986167D01*
X10519571Y-15995690D01*
X10510048Y-16005214D01*
X10500524Y-16024262D01*
X10738619Y-15909976D02*
X10757667Y-15909976D01*
X10776714Y-15919500D01*
X10786238Y-15929024D01*
X10795762Y-15948071D01*
X10805286Y-15986167D01*
X10805286Y-16033786D01*
X10795762Y-16071881D01*
X10786238Y-16090928D01*
X10776714Y-16100452D01*
X10757667Y-16109976D01*
X10738619Y-16109976D01*
X10719571Y-16100452D01*
X10710048Y-16090928D01*
X10700524Y-16071881D01*
X10691000Y-16033786D01*
X10691000Y-15986167D01*
X10700524Y-15948071D01*
X10710048Y-15929024D01*
X10719571Y-15919500D01*
X10738619Y-15909976D01*
X10881476Y-15909976D02*
X10881476Y-15948071D01*
X10957667Y-15909976D02*
X10957667Y-15948071D01*
X11252905Y-16186167D02*
X11243381Y-16176643D01*
X11224333Y-16148071D01*
X11214809Y-16129024D01*
X11205286Y-16100452D01*
X11195762Y-16052833D01*
X11195762Y-16014738D01*
X11205286Y-15967119D01*
X11214809Y-15938548D01*
X11224333Y-15919500D01*
X11243381Y-15890928D01*
X11252905Y-15881405D01*
X11319571Y-15929024D02*
X11329095Y-15919500D01*
X11348143Y-15909976D01*
X11395762Y-15909976D01*
X11414809Y-15919500D01*
X11424333Y-15929024D01*
X11433857Y-15948071D01*
X11433857Y-15967119D01*
X11424333Y-15995690D01*
X11310048Y-16109976D01*
X11433857Y-16109976D01*
X11671952Y-16109976D02*
X11671952Y-15909976D01*
X11757667Y-16109976D02*
X11757667Y-16005214D01*
X11748143Y-15986167D01*
X11729095Y-15976643D01*
X11700524Y-15976643D01*
X11681476Y-15986167D01*
X11671952Y-15995690D01*
X11881476Y-16109976D02*
X11862428Y-16100452D01*
X11852905Y-16090928D01*
X11843381Y-16071881D01*
X11843381Y-16014738D01*
X11852905Y-15995690D01*
X11862428Y-15986167D01*
X11881476Y-15976643D01*
X11910048Y-15976643D01*
X11929095Y-15986167D01*
X11938619Y-15995690D01*
X11948143Y-16014738D01*
X11948143Y-16071881D01*
X11938619Y-16090928D01*
X11929095Y-16100452D01*
X11910048Y-16109976D01*
X11881476Y-16109976D01*
X12062428Y-16109976D02*
X12043381Y-16100452D01*
X12033857Y-16081405D01*
X12033857Y-15909976D01*
X12214809Y-16100452D02*
X12195762Y-16109976D01*
X12157667Y-16109976D01*
X12138619Y-16100452D01*
X12129095Y-16081405D01*
X12129095Y-16005214D01*
X12138619Y-15986167D01*
X12157667Y-15976643D01*
X12195762Y-15976643D01*
X12214809Y-15986167D01*
X12224333Y-16005214D01*
X12224333Y-16024262D01*
X12129095Y-16043309D01*
X12300524Y-16100452D02*
X12319571Y-16109976D01*
X12357667Y-16109976D01*
X12376714Y-16100452D01*
X12386238Y-16081405D01*
X12386238Y-16071881D01*
X12376714Y-16052833D01*
X12357667Y-16043309D01*
X12329095Y-16043309D01*
X12310048Y-16033786D01*
X12300524Y-16014738D01*
X12300524Y-16005214D01*
X12310048Y-15986167D01*
X12329095Y-15976643D01*
X12357667Y-15976643D01*
X12376714Y-15986167D01*
X12452905Y-16186167D02*
X12462428Y-16176643D01*
X12481476Y-16148071D01*
X12491000Y-16129024D01*
X12500524Y-16100452D01*
X12510048Y-16052833D01*
X12510048Y-16014738D01*
X12500524Y-15967119D01*
X12491000Y-15938548D01*
X12481476Y-15919500D01*
X12462428Y-15890928D01*
X12452905Y-15881405D01*
M02*
