G04 #@! TF.GenerationSoftware,KiCad,Pcbnew,6.0.6-3a73a75311~116~ubuntu22.04.1*
G04 #@! TF.CreationDate,2022-07-13T12:19:01-04:00*
G04 #@! TF.ProjectId,stereo_whooshy_sound_front_panel,73746572-656f-45f7-9768-6f6f7368795f,0*
G04 #@! TF.SameCoordinates,Original*
G04 #@! TF.FileFunction,Legend,Bot*
G04 #@! TF.FilePolarity,Positive*
%FSLAX46Y46*%
G04 Gerber Fmt 4.6, Leading zero omitted, Abs format (unit mm)*
G04 Created by KiCad (PCBNEW 6.0.6-3a73a75311~116~ubuntu22.04.1) date 2022-07-13 12:19:01*
%MOMM*%
%LPD*%
G01*
G04 APERTURE LIST*
%ADD10C,0.200000*%
%ADD11C,0.800000*%
%ADD12C,6.400000*%
G04 APERTURE END LIST*
D10*
X137446904Y-50974761D02*
X137446904Y-52403333D01*
X137351666Y-52689047D01*
X137161190Y-52879523D01*
X136875476Y-52974761D01*
X136685000Y-52974761D01*
X139351666Y-52974761D02*
X138399285Y-52974761D01*
X138399285Y-50974761D01*
X141161190Y-52784285D02*
X141065952Y-52879523D01*
X140780238Y-52974761D01*
X140589761Y-52974761D01*
X140304047Y-52879523D01*
X140113571Y-52689047D01*
X140018333Y-52498571D01*
X139923095Y-52117619D01*
X139923095Y-51831904D01*
X140018333Y-51450952D01*
X140113571Y-51260476D01*
X140304047Y-51070000D01*
X140589761Y-50974761D01*
X140780238Y-50974761D01*
X141065952Y-51070000D01*
X141161190Y-51165238D01*
X142589761Y-50974761D02*
X142589761Y-52403333D01*
X142494523Y-52689047D01*
X142304047Y-52879523D01*
X142018333Y-52974761D01*
X141827857Y-52974761D01*
X144494523Y-52974761D02*
X143542142Y-52974761D01*
X143542142Y-50974761D01*
X146304047Y-52784285D02*
X146208809Y-52879523D01*
X145923095Y-52974761D01*
X145732619Y-52974761D01*
X145446904Y-52879523D01*
X145256428Y-52689047D01*
X145161190Y-52498571D01*
X145065952Y-52117619D01*
X145065952Y-51831904D01*
X145161190Y-51450952D01*
X145256428Y-51260476D01*
X145446904Y-51070000D01*
X145732619Y-50974761D01*
X145923095Y-50974761D01*
X146208809Y-51070000D01*
X146304047Y-51165238D01*
X147732619Y-50974761D02*
X147732619Y-52403333D01*
X147637380Y-52689047D01*
X147446904Y-52879523D01*
X147161190Y-52974761D01*
X146970714Y-52974761D01*
X149637380Y-52974761D02*
X148685000Y-52974761D01*
X148685000Y-50974761D01*
X151446904Y-52784285D02*
X151351666Y-52879523D01*
X151065952Y-52974761D01*
X150875476Y-52974761D01*
X150589761Y-52879523D01*
X150399285Y-52689047D01*
X150304047Y-52498571D01*
X150208809Y-52117619D01*
X150208809Y-51831904D01*
X150304047Y-51450952D01*
X150399285Y-51260476D01*
X150589761Y-51070000D01*
X150875476Y-50974761D01*
X151065952Y-50974761D01*
X151351666Y-51070000D01*
X151446904Y-51165238D01*
X152875476Y-50974761D02*
X152875476Y-52403333D01*
X152780238Y-52689047D01*
X152589761Y-52879523D01*
X152304047Y-52974761D01*
X152113571Y-52974761D01*
X154780238Y-52974761D02*
X153827857Y-52974761D01*
X153827857Y-50974761D01*
X156589761Y-52784285D02*
X156494523Y-52879523D01*
X156208809Y-52974761D01*
X156018333Y-52974761D01*
X155732619Y-52879523D01*
X155542142Y-52689047D01*
X155446904Y-52498571D01*
X155351666Y-52117619D01*
X155351666Y-51831904D01*
X155446904Y-51450952D01*
X155542142Y-51260476D01*
X155732619Y-51070000D01*
X156018333Y-50974761D01*
X156208809Y-50974761D01*
X156494523Y-51070000D01*
X156589761Y-51165238D01*
%LPC*%
D11*
X83612056Y-50372944D03*
X80217944Y-53767056D03*
X79515000Y-52070000D03*
X83612056Y-53767056D03*
X84315000Y-52070000D03*
X81915000Y-54470000D03*
D12*
X81915000Y-52070000D03*
D11*
X80217944Y-50372944D03*
X81915000Y-49670000D03*
X211315000Y-52070000D03*
X210612056Y-53767056D03*
X208915000Y-54470000D03*
X208915000Y-49670000D03*
X206515000Y-52070000D03*
X207217944Y-53767056D03*
X210612056Y-50372944D03*
D12*
X208915000Y-52070000D03*
D11*
X207217944Y-50372944D03*
M02*
